<svg width="90" height="90" viewBox="0 0 90 90" fill="none" xmlns="http://www.w3.org/2000/svg">
<rect width="90" height="90" rx="10" fill="white"/>
<path d="M44.843 18C32.882 18 23 30.105 23 45C23 59.895 32.81 72 44.843 72C56.8737 72 66.686 59.895 66.686 45C66.686 30.105 56.804 18 44.843 18ZM27.0815 54.5243C26.654 53.1652 26.294 51.732 26.15 50.2987L44.843 36.405L63.6777 50.2987C63.4784 51.7293 63.1677 53.1421 62.7485 54.5243V54.5962H62.6765L44.843 41.2763L27.0815 54.5243ZM29.1582 59.2515L29.0863 59.1795L44.843 47.5065L60.5998 59.1795V59.2515C56.876 65.7697 51.1453 69.6375 44.879 69.6375C38.6128 69.6375 32.8122 65.6978 29.1582 59.2515ZM44.843 30.0308L25.6505 44.2845V44.2125C25.7922 38.196 27.797 32.3235 31.523 27.5962C35.1005 23.229 39.83 20.7225 44.843 20.7225C49.856 20.7225 54.653 23.229 58.163 27.5962C61.673 31.9657 63.8218 37.9823 64.0355 44.2845V44.3565L63.9658 44.2845L44.843 30.0308Z" fill="#E2001A"/>
</svg>
