<svg width="90" height="90" viewBox="0 0 90 90" fill="none" xmlns="http://www.w3.org/2000/svg">
<rect width="90" height="90" rx="10" fill="white"/>
<g filter="url(#filter0_i_326_1366)">
<path d="M43.8358 14C43.8358 14 43.8103 14.3584 43.7007 14.577C43.6191 14.7676 43.3999 14.9023 43.4279 15.0395C43.4534 15.1768 43.5911 15.342 43.8103 15.4513C44.0295 15.5606 44.1085 15.6394 44.3277 15.6953C44.5189 15.7487 44.7968 15.8885 44.8503 15.7233C44.9344 15.5606 44.8248 15.3395 44.6871 15.1488C44.4679 14.793 44.3558 14.7117 44.055 14.2211C43.9989 14.1118 43.9454 14 43.8358 14ZM45.564 14C45.5079 14.028 45.4263 14.4423 45.2887 14.7955C45.1256 15.2048 45.2326 15.3954 45.3142 15.5581C45.4238 15.7233 45.564 15.8326 45.2887 15.9978C45.016 16.1604 44.6566 16.1071 44.6566 16.1071C44.6566 16.1071 44.3558 16.0486 44.1085 15.9139C43.8544 15.802 43.5995 15.6919 43.3438 15.5835C43.3438 15.5835 42.8493 15.4488 42.5205 15.4767C42.1917 15.5021 42.1636 15.5326 41.9189 15.5606C41.7813 15.5606 41.7278 15.5581 41.5901 15.586C41.4805 15.6114 41.3454 15.5352 41.3454 15.6699C41.3454 15.8046 41.6182 15.8071 41.8093 15.8885C42.0005 15.9698 42.4389 15.9673 42.3574 16.0766C42.2478 16.1858 41.8374 16.2138 41.8093 16.1858C41.7838 16.1858 41.5111 16.1325 41.2919 16.1325C40.935 16.1579 40.9095 16.1579 40.3921 16.4044C40.308 16.4298 40.336 16.623 40.4992 16.5671C40.7487 16.4961 41.0069 16.4593 41.2664 16.4578C41.5978 16.4578 41.7838 16.5696 42.1127 16.6535C42.388 16.7348 42.4135 16.7857 42.8264 16.8416C42.908 16.8416 43.0685 16.7857 43.0685 16.895C43.0685 16.9509 42.9589 17.0348 42.9589 17.0348C42.9589 17.0348 42.7142 17.0856 42.7397 17.1695C42.7958 17.2788 43.015 17.1695 43.1221 17.1695C43.2342 17.1695 43.4025 17.2 43.3719 17.3067L43.3183 17.3881C43.0659 17.4538 42.8181 17.5361 42.5766 17.6346C41.8909 17.9091 41.6207 18.237 40.9631 18.5649C40.3335 18.8648 39.3215 19.2435 39.3215 19.2435C39.3215 19.2435 39.0208 19.4087 38.5823 19.5154C38.1464 19.6273 38.1184 19.6019 37.8176 19.6552C37.5734 19.6693 37.3367 19.7445 37.1294 19.8738C36.9847 19.9487 36.8551 20.0495 36.7471 20.1712L36.3647 20.7482L36.1429 21.071C36.0894 21.1802 36.0359 21.2336 36.0104 21.3429C35.9543 21.4802 35.9263 21.5361 35.9008 21.6733C35.8192 21.9987 35.9008 22.1918 35.9543 22.5197C35.9824 22.601 35.9824 22.657 36.0104 22.7383C36.0359 22.8196 36.1429 22.9035 36.1429 22.9035L36.2526 22.9289C36.2526 22.9289 36.64 22.9035 36.8847 22.8476C37.132 22.7942 37.4888 22.7078 37.4888 22.7078L37.9502 22.5756L38.2561 22.4663C38.2561 22.4663 38.4472 22.4663 38.4753 22.5756C38.5008 22.657 38.4192 22.7942 38.4192 22.7942C38.4192 22.7942 38.2535 22.8705 38.1159 22.9264C37.9782 22.9823 37.6494 23.0636 37.6239 23.0916L37.267 23.2009L36.9663 23.2288C36.9663 23.2288 36.9102 23.2568 36.8567 23.3381C36.8006 23.422 36.8006 23.4195 36.8006 23.4728C36.8567 23.5288 36.8847 23.5821 36.9408 23.6381C37.0504 23.7194 37.1039 23.7728 37.239 23.8007C37.4302 23.8821 37.5398 23.8566 37.731 23.8566C37.9703 23.8573 38.2063 23.8006 38.4192 23.6914C38.6384 23.5542 38.72 23.5567 39.0208 23.4474C39.1187 23.4186 39.2196 23.4007 39.3215 23.3941C39.8415 23.3381 40.1372 23.4195 40.6597 23.5033C41.1797 23.5847 41.4295 23.7499 41.9495 23.8312C42.4976 23.9126 42.8238 24.0752 43.3974 23.9405C43.6726 23.8846 43.8383 23.7473 43.976 24.0193C44.1111 24.2659 44.0856 24.4006 44.0856 24.4006C44.0856 24.4006 44.083 24.5683 43.8919 25.0868C43.6981 25.6053 43.0991 26.8889 43.0991 26.8889L42.6862 27.7073C42.6862 27.7073 42.3548 28.3605 41.5901 29.2069C41.3196 29.5071 41.0477 29.8062 40.7745 30.1041C40.7745 30.1041 40.3641 30.4066 39.9537 30.9251C39.5433 31.4436 39.5382 31.6342 39.1558 32.018C38.9086 32.262 38.7735 32.3992 38.4727 32.5924C38.1719 32.783 37.8151 32.7271 36.8567 33.3803C36.0359 33.9547 35.5975 34.4224 35.5414 34.3945C35.4879 34.369 35.2126 34.1454 35.103 34.0894C35.0214 34.0386 33.4359 32.9737 33.4359 32.9737L32.7783 32.5365L32.475 32.3433L32.4214 32.234L32.2608 32.0154C32.2608 32.0154 32.0136 31.7155 31.7128 31.4715C31.4012 31.171 31.0121 30.9625 30.5887 30.8691C30.1222 30.7344 29.824 30.6506 29.3601 30.8158C29.0975 30.9016 28.8609 31.0519 28.6719 31.2529C28.3991 31.5249 28.3431 31.7435 28.1238 32.0714C27.9046 32.3992 27.6854 32.7017 27.5758 32.8644C27.4662 33.0296 27.247 33.4667 27.247 33.4667C27.247 33.4667 26.7015 34.3385 26.4007 34.9104C26.0439 35.5382 25.9088 35.9245 25.58 36.5244C25.06 37.4801 24.3182 38.4611 24.127 38.8958L23.9129 39.3889C23.9129 39.3889 23.8543 39.6303 23.8288 39.7955C23.8008 39.9582 23.8008 40.2327 23.7727 40.342C23.7495 40.4512 23.7035 40.5542 23.6376 40.6444C23.6121 40.6699 23.3088 41.2977 23.1992 41.7069C23.0896 42.1135 22.8423 43.3996 23.1457 43.5623C23.4465 43.7275 25.6615 42.7744 25.9623 41.8441C26.156 41.2443 25.3607 40.9418 25.58 40.3954C25.6615 40.2047 25.7176 40.1793 25.8527 39.9887C26.0719 39.6329 25.9903 38.8983 26.4007 38.2171C26.7015 37.7266 27.3031 37.0937 28.1238 36.166C28.6438 35.5941 29.1383 34.6664 29.1383 34.6664C29.1383 34.6664 29.2479 34.3385 29.4697 34.3945C29.7144 34.4478 29.9311 34.4199 29.9311 34.4199L30.0407 34.5037L30.2599 34.7223L30.5887 35.2129C30.5887 35.2129 31.1393 36.0008 31.3279 36.2219C31.5216 36.4405 31.7128 36.6032 31.9881 36.8218C32.2889 37.0937 32.3959 37.231 32.7783 37.5334C33.3263 37.9681 33.1326 38.1333 32.4214 37.7495C32.1256 37.5998 31.8146 37.4822 31.4936 37.3987C31.1673 37.3148 29.9336 36.987 29.304 36.9056C28.7025 36.8243 28.5903 36.8523 28.5903 36.8523C28.5903 36.8523 28.2895 36.8218 27.9352 37.0403C27.5784 37.2589 27.3872 37.4216 27.3872 37.4216C27.3872 37.4216 26.9768 37.8867 26.9488 37.9681C26.9233 38.0494 26.7295 38.3747 26.7295 38.3747C26.7295 38.3747 26.6174 38.5425 26.5919 38.7306C26.5358 38.9237 26.5664 39.1144 26.5664 39.1144L26.5919 39.521L26.6199 39.9023C26.6199 39.9023 26.7041 40.8605 26.8952 41.8162C26.9488 42.0881 27.0048 42.5253 27.0048 42.5253L27.1374 43.5089C27.1374 43.5089 27.2215 44.5485 27.3031 44.9018C27.3846 45.2322 27.4407 45.2576 27.4968 45.4736C27.6064 45.8829 27.4152 46.0735 27.6064 46.5666C27.7976 47.0571 27.9633 46.9986 28.1544 47.3011C28.2921 47.5197 28.3431 47.5731 28.4527 47.8476C28.5623 48.1195 28.9191 49.0244 29.3295 49.6776C29.7679 50.3613 30.344 51.2051 30.7289 51.1238C31.1113 51.0399 31.384 50.4426 31.384 50.4426C31.384 50.4426 31.8224 49.2658 31.5497 48.1195C31.2744 46.9453 30.0152 47.4968 29.8521 46.6504C29.8266 46.4598 29.8521 46.1599 29.8521 46.1599C29.8521 46.1599 29.8215 45.8015 29.7679 45.6922C29.7119 45.5829 29.2734 44.7671 29.1103 44.0833C28.9727 43.5648 29.0007 41.8975 28.8911 41.4324C28.5903 40.2327 28.5623 40.3394 28.7254 40.1234C28.9191 39.9048 29.0848 39.9582 29.0848 39.9582L29.3295 39.9887L29.5232 40.0675L29.8775 40.2861C29.9872 40.3674 30.3695 40.6673 30.3695 40.6673L31.2999 41.2697C31.2999 41.2697 31.8224 41.5722 32.0416 41.6814C32.2608 41.7907 32.4495 41.9255 32.4495 41.9255L32.6942 42.0881L33.1071 42.3931L33.1861 42.4694L33.2422 42.5787C33.2422 42.5787 33.4359 43.0184 34.2567 43.4835C34.9143 43.8648 35.4904 43.7529 35.7351 44.0554C35.7912 44.1088 36.2526 44.7416 36.4743 45.1229C36.7471 45.5575 37.0759 46.0735 37.1855 46.2387C37.2951 46.4014 37.9808 47.2452 37.9808 47.2452L38.8831 48.2288L40.0633 49.3217L41.1288 50.224L41.8093 50.7705C41.8093 50.7705 42.4134 51.3449 43.0991 51.8075C43.7568 52.2447 43.7823 52.2981 44.2207 52.5954C44.547 52.8166 44.9854 53.119 45.4238 53.4469C45.8622 53.8027 46.3567 54.4534 46.1656 54.672C46.0279 54.7533 45.7807 54.4026 45.3142 53.9934C45.0101 53.7208 44.691 53.4653 44.3583 53.2283C43.8664 52.8471 43.6166 52.6513 43.0685 52.3235C42.7958 52.1608 42.3038 51.8634 42.2784 51.9168C42.0872 52.4912 42.1101 53.0351 42.1382 53.7443C42.1636 54.2348 42.2478 54.7254 42.4109 55.3532C42.5485 55.953 42.6862 56.2834 42.9054 56.8553C43.1246 57.4297 43.5375 58.3295 43.5375 58.3295L44.1646 59.5876L44.7407 60.5407L45.0415 61.0313L45.1511 61.1939C45.1511 61.1939 45.2862 61.5244 45.1511 61.7404C45.016 61.9564 44.8477 62.4241 44.603 62.4521C44.3558 62.5054 43.7823 62.5359 43.7823 62.5359L40.5247 62.48L38.827 62.3428C38.827 62.3428 38.6384 62.2335 37.6545 62.2335C37.0784 62.2335 36.612 62.4775 36.2831 62.5054C36.0104 62.5309 34.6671 62.4241 33.7647 62.7774C32.9159 63.1332 32.531 63.2146 32.2303 63.761C32.011 64.1702 33.3008 64.8285 34.3663 65.0725C36.092 65.4538 35.5975 64.7167 36.2526 64.2541C36.3367 64.1982 36.3647 64.1474 36.4488 64.1194C36.8847 63.9822 37.1294 64.3329 37.5704 64.3329C38.0598 64.3329 38.3351 64.1703 38.827 64.0889C41.3174 63.761 45.2046 64.9328 45.2046 64.9328C45.2046 64.9328 46.1656 65.2327 46.604 65.1513C47.124 65.042 47.0118 64.8514 47.175 64.5515C47.3126 64.305 47.2591 64.2541 47.2846 63.9796C47.2846 63.817 47.2591 63.7356 47.231 63.573C47.1214 63.1078 46.8232 62.4521 46.8232 62.4521C46.8232 62.4521 46.6014 61.9615 46.5173 61.715C46.4103 61.3617 46.3007 61.1406 46.2446 60.7593C46.0814 59.7477 46.1095 59.8316 46.1095 59.2597C46.1095 58.2227 46.2191 57.6483 46.4918 56.6392C46.9048 55.1651 47.672 54.5373 48.2455 53.119C48.4112 52.7378 48.4087 52.1913 48.6024 52.1354C48.819 52.11 48.7936 52.8191 48.684 53.2283C48.3271 54.6466 47.4528 55.2464 47.0424 56.6926C46.7416 57.811 46.5759 58.4642 46.6601 59.6105C46.6855 60.2383 46.9328 61.2244 46.9328 61.2244C46.9328 61.2244 47.2616 62.3148 47.4248 62.724C47.5904 63.1332 47.9167 63.817 47.9167 63.817L48.6559 65.1259L49.0383 65.7512C49.0383 65.7512 49.3085 65.9977 49.1734 66.4069C49.0357 66.8161 48.7655 67.0678 48.4342 67.4211C47.5063 68.514 45.3448 70.1203 44.7968 70.5016C44.0321 71.076 44.055 71.2412 43.9989 71.4064C43.6981 72.2808 42.8213 72.3062 41.8654 73.3432C41.6462 73.5618 41.0727 74.1591 41.1823 74.6776C41.2358 74.8682 43.5911 75.2799 44.9599 74.7081C46.0305 74.2429 45.0975 73.7219 45.3983 73.2034C45.6175 72.8221 46.163 72.8221 46.4103 72.4917C46.8181 71.9478 46.5454 71.9757 46.9022 71.5411C48.0798 70.1203 48.8471 69.3044 50.9551 68.0209C51.1463 67.9116 51.5031 67.7489 51.5031 67.7489C51.5031 67.7489 51.8014 67.6091 51.911 67.4439C52.0486 67.2254 52.0206 67.0373 52.0206 66.7907C52.0206 66.6255 51.9951 66.5467 51.9951 66.3841C51.9951 66.1909 52.0206 66.0816 51.9645 65.891C51.911 65.591 51.7223 65.3445 51.6127 65.1793C51.3999 64.9188 51.2577 64.6081 51.1998 64.277C51.0505 63.7742 51.0803 63.2354 51.2839 62.752C51.5031 62.1801 51.9951 61.7175 51.9951 61.7175L53.2237 60.8966C53.2237 60.8966 54.2943 60.1315 54.6256 59.8291C54.9799 59.5291 55.6631 58.9013 56.155 58.1922C56.7311 57.4017 57.0319 56.9087 57.2766 55.9555C57.3581 55.5997 57.4423 55.0558 57.4423 55.0558C57.4423 55.0558 57.4423 54.6745 57.6615 54.6491C57.8781 54.6212 57.9342 54.6999 57.9342 54.6999C57.9342 54.6999 58.1228 54.8067 58.1789 55.3532C58.2044 55.8996 58.0438 56.53 58.0438 56.53C58.0438 56.53 57.8781 57.1552 57.8246 57.5365C57.7991 57.783 57.794 57.9177 57.794 58.1922C57.794 58.6573 57.9877 59.0411 57.9877 59.0411C57.9877 59.0411 58.0974 59.1225 58.0974 58.9318C58.112 58.6362 58.159 58.343 58.2375 58.0575C58.3191 57.7855 58.3726 57.8364 58.5358 57.3712C58.755 56.7714 58.5613 56.8299 58.6709 56.474C58.727 56.3114 58.8646 56.1462 59.0277 56.1462C59.1934 56.1462 59.2189 56.3647 59.2189 56.3647C59.2189 56.3647 59.3846 57.0764 59.2495 57.7296C59.1118 58.3854 58.6173 59.2851 58.6173 59.2851L58.2375 59.9383C58.2375 59.9383 57.9648 60.4035 57.8552 60.7034C57.7456 61.0313 57.715 61.1685 57.7711 61.4659C57.8526 61.7963 58.1024 62.236 58.2375 62.1522C58.3472 62.0708 58.0744 61.7963 58.4032 61.1406C58.732 60.4848 59.1628 60.0781 59.1628 60.0781C59.1628 60.0781 59.7669 59.3665 60.0397 58.8226C60.2869 58.332 60.5342 57.5365 60.5342 57.5365C60.5342 57.5365 60.7279 56.8248 60.6718 56.225C60.6463 55.6531 60.5342 55.3532 60.5342 55.3532L60.2895 54.916L60.1493 54.5932L60.2054 54.4C60.2589 54.3721 60.4526 54.5093 60.6183 54.7279C60.8179 54.9844 60.9573 55.2823 61.0261 55.5997C61.1009 55.8478 61.1378 56.1057 61.1357 56.3647C61.1357 56.5833 61.0567 57.4831 61.383 58.0575C61.5206 58.332 61.8495 58.9573 61.8775 58.6828C61.931 58.055 61.6557 57.7576 61.6838 57.1832C61.7093 56.53 61.8775 56.6926 61.931 56.3647C61.9871 56.0089 62.0661 55.925 62.0126 55.4624C61.9574 55.1203 61.8755 54.7829 61.7679 54.4534L61.5742 54.0162L61.4926 53.8536C61.4926 53.8536 61.5461 53.7748 61.6277 53.7748L62.2853 53.5562C62.2853 53.5562 63.1367 53.1749 63.4655 52.9004C63.8224 52.6539 64.2302 52.2142 64.2302 52.2142C64.2302 52.2142 64.7782 51.5356 65.0535 51.045C65.7112 49.8148 65.7086 48.2593 65.6806 47.5477C65.6551 46.8665 65.4614 45.9642 65.4614 45.9642C65.4614 45.9642 65.2422 44.8713 65.2982 44.1621C65.3518 43.453 65.4078 43.1251 65.4078 43.1251C65.4078 43.1251 65.3823 42.416 65.9839 41.6509C66.5855 40.8884 66.8557 40.3979 66.9653 39.8235C67.0749 39.3329 66.9092 38.5425 66.69 38.8424C66.4453 39.1703 66.3408 39.826 65.9839 40.3699C65.492 41.135 64.7757 42.0627 64.4214 42.0627C64.2302 42.0627 64.1767 41.6255 64.1767 41.6255C64.1767 41.6255 63.932 40.8884 64.3424 39.9582C64.6431 39.3024 64.8037 39.1144 65.1886 38.6238C65.5455 38.1587 65.7621 37.9121 66.0094 37.4216C66.2286 36.9844 66.2796 36.9031 66.4172 36.2219C66.4427 36.0567 66.3917 35.7034 66.2286 35.7288C66.0094 35.7288 65.4078 37.0429 64.7782 37.78C64.1767 38.4611 63.0526 39.3329 63.0526 39.3329C63.0526 39.3329 62.943 39.4117 62.943 39.1931C62.9175 39.0025 62.8869 38.4306 62.9965 37.9147C63.134 37.266 63.3851 36.6465 63.7383 36.0847C64.2582 35.1849 64.9133 34.5597 65.2422 34.2292C65.3798 34.0945 65.7902 33.8454 65.5735 33.7082C65.3798 33.5989 64.8037 34.0894 64.3653 34.4199C63.8198 34.8265 63.6286 34.9409 63.0832 35.5967C62.5351 36.2499 62.3949 36.5244 62.3949 36.5244C62.3949 36.5244 61.8749 37.3682 61.7373 38.1866C61.5997 39.0051 61.6022 39.4676 61.6022 39.4676C61.6022 39.4676 61.6022 40.2073 61.6838 40.6444C61.7373 41.107 61.931 41.8136 61.931 41.8136C61.931 41.8136 62.2063 42.6092 62.3134 43.1023C62.4255 43.5928 62.6142 45.0365 62.6142 45.0365C62.6142 45.0365 62.7518 46.076 62.6677 47.0571C62.5861 48.0407 62.5045 48.6126 62.3949 48.9125C62.2853 49.215 61.9871 50.0055 61.4926 50.5519C61.0287 51.0704 60.9165 51.1518 60.9165 51.1518C60.9165 51.1518 60.4246 51.5584 60.0142 51.777C59.6 52.0008 59.1697 52.1936 58.727 52.354C58.5011 52.3941 58.2729 52.4204 58.0438 52.4328H57.6895L57.5799 52.3565L57.5213 52.1354C57.5213 52.1354 57.2511 51.0704 56.9248 50.3893C56.6495 49.8148 56.0735 49.0244 56.0735 49.0244C56.0735 49.0244 55.087 47.6849 54.3198 46.9478C53.4429 46.076 52.459 45.4228 51.8549 44.9577C51.6357 44.795 51.1437 44.49 51.1437 44.49C51.1437 44.49 49.1479 42.4999 48.4367 40.9164C47.9422 39.8235 47.6159 39.0356 47.7536 37.8333C47.7791 37.5614 47.8887 37.0403 47.9422 37.0403L48.2991 37.1496C48.3296 37.1751 48.6559 37.4775 48.9592 37.5868C49.1224 37.6402 49.4206 37.6961 49.4206 37.6961C49.4206 37.6961 49.6679 37.7215 49.803 37.7495C49.9406 37.8054 50.1879 37.8867 50.351 37.9681C50.5167 38.0494 50.7588 38.2171 50.7588 38.2171L51.2278 38.5679L51.7223 38.9491C51.7223 38.9491 51.9925 39.1423 52.0741 39.1703C52.1557 39.1957 52.2117 39.2236 52.2398 39.2236H52.3494C52.3494 39.2236 52.4615 39.1931 52.487 39.0839C52.5151 38.9491 52.3519 39.0584 52.1047 38.7865C51.9521 38.6558 51.8228 38.5002 51.7223 38.3264C51.7223 38.3264 51.6663 38.1053 51.4471 37.8588C51.2278 37.6122 50.9551 37.3962 50.9551 37.3962C50.9551 37.3962 50.7614 37.2615 50.4861 37.1776C50.2133 37.0963 50.1292 37.0937 50.1037 36.9844C50.0782 36.8751 50.4326 36.931 50.4326 36.931C50.4326 36.931 50.8455 36.9844 51.1718 37.1496C51.5031 37.3123 51.6918 37.5055 51.6918 37.5055L51.911 37.6961L52.0512 37.8333L52.1837 37.9147C52.1837 37.9147 52.3214 38.0494 52.3494 37.8588C52.3749 37.6961 52.3214 37.5588 52.2933 37.5309L52.1582 37.3962L51.6127 36.931C51.4806 36.7888 51.3336 36.661 51.1743 36.5498C50.9529 36.3942 50.7132 36.2661 50.4606 36.1685C50.1879 36.0567 50.0247 36.0847 49.7494 35.9474C49.5583 35.8661 49.3926 35.8127 49.283 35.65C49.2549 35.6246 49.1198 35.5102 49.3671 35.5662C49.6118 35.6195 49.7749 35.7034 50.0477 35.7593C50.4861 35.8686 50.7614 35.8661 51.1743 36.0033C51.3374 36.0567 51.5567 36.166 51.5567 36.166L52.0741 36.3846C52.0741 36.3846 52.7878 36.7684 53.2798 36.7963C53.6444 36.8245 54.0107 36.7688 54.3503 36.6337C54.5491 36.5525 54.7339 36.441 54.8984 36.3033C54.9487 36.2543 54.9931 36.1997 55.0309 36.1406L55.087 36.0033V35.894C54.9494 35.7288 54.6792 36.1685 54.2407 36.2499C53.7743 36.3338 53.7998 36.3846 53.499 36.3312C53.2062 36.3006 52.9345 36.1652 52.7343 35.95C52.2933 35.5382 52.1327 35.157 51.5567 34.9104C51.312 34.8011 50.8684 34.6918 50.8684 34.6918C50.8684 34.6918 50.2669 34.5012 49.9381 34.3106C49.6933 34.1733 49.1785 34.092 49.3416 33.8734C49.4232 33.7641 50.0808 34.1454 50.5702 34.2013C50.9271 34.2547 51.1743 34.2292 51.4471 34.2292C51.7198 34.2292 52.1047 34.1454 52.1608 34.1454C52.2143 34.1199 52.431 34.1454 52.6221 34.2013C52.8133 34.2547 52.9229 34.336 53.1141 34.4199C53.3078 34.5012 53.5296 34.6385 53.5831 34.6385L53.6927 34.6664L53.7488 34.613L53.7743 34.5571L53.7488 34.5037L53.6621 34.4478L53.499 34.3385C53.499 34.3385 53.2543 34.2013 53.0351 33.9827C52.8159 33.7641 52.6221 33.5201 52.2959 33.4108C51.9645 33.3015 51.5821 33.2482 51.5821 33.2482L51.1998 33.2177L51.0341 33.1922C51.0341 33.1922 50.7614 33.1084 50.9806 33.055C51.1054 33.0169 51.2334 32.9897 51.3629 32.9737C51.5724 32.9285 51.79 32.9372 51.9951 32.9991C52.2143 33.0804 52.5712 33.271 52.5966 33.271C52.6247 33.299 52.9535 33.5481 53.3104 33.6294C53.6672 33.7107 54.1311 33.7387 54.1311 33.7387L54.3503 33.6853L54.46 33.6548L54.539 33.5989L54.5135 33.4667C54.5135 33.4667 54.5135 33.3549 54.3503 33.3269C54.0642 33.2938 53.7903 33.1917 53.5525 33.0296C53.2517 32.811 53.0351 32.5924 53.0351 32.5924C53.0351 32.5924 52.8159 32.3992 52.3774 32.2874C51.9696 32.1806 51.8319 32.1806 51.8319 32.1806L51.6918 32.1247L51.3935 31.9926C51.3935 31.9926 51.2533 31.9087 51.1437 31.774C51.0341 31.6367 50.8735 31.3876 51.3374 31.5249C51.8039 31.6621 51.911 31.7435 51.911 31.7435C51.911 31.7435 52.1582 31.99 52.3774 32.0154C52.5151 32.0434 52.6247 32.0714 52.7088 31.9621C52.8439 31.8248 52.459 31.6621 52.1837 31.469C52.0093 31.333 51.8608 31.1668 51.7453 30.9784C51.7453 30.9784 51.5847 30.8437 51.8319 30.8996C52.0766 30.953 52.5125 31.2275 52.5125 31.2275C52.5125 31.2275 52.7317 31.3343 52.8439 31.3622C52.9229 31.3876 53.1447 31.5249 53.2543 31.5783C53.3358 31.6062 53.5856 31.6621 53.7462 31.7435C53.9654 31.8807 54.0776 32.0993 54.1847 32.1806C54.2943 32.262 54.3784 32.4018 54.516 32.4272C54.6511 32.4551 54.6766 32.5085 54.7582 32.4526C54.7964 32.4287 54.833 32.4024 54.8678 32.3738C54.8678 32.3738 54.8933 32.3154 54.7582 32.234C54.6231 32.1527 54.46 31.9366 54.46 31.9366L54.4039 31.8274L54.3758 31.7181L54.2407 31.4995L53.9909 31.1436C53.9909 31.1436 53.6086 30.6251 53.2543 30.432C52.9255 30.2413 52.6782 30.1346 52.6782 30.1346C52.6782 30.1346 52.5151 30.0558 52.4335 29.9999C52.2959 29.8906 52.2398 29.8042 52.1276 29.6695C51.9925 29.5043 51.9416 29.4 51.7759 29.2374C51.4751 28.9375 50.5447 28.7697 50.899 28.5511C51.0927 28.4418 51.3374 28.5003 51.4471 28.5257C51.5567 28.5537 51.8039 28.6579 52.0512 28.7392C52.2143 28.7951 52.3239 28.8002 52.487 28.8536C52.6527 28.9095 52.8439 28.9324 52.9255 28.9883C53.007 29.0417 53.0911 29.1535 53.1447 29.1815C53.1727 29.2069 53.3894 29.5627 53.7717 29.7533C54.1541 29.944 54.3503 30.0787 54.7327 30.1041C55.0335 30.1321 55.5229 30.0278 55.5229 30.0278C55.5229 30.0278 55.6631 29.9694 55.5535 29.8321C55.4184 29.6949 55.4158 29.6695 55.3062 29.644C54.8678 29.4788 54.516 29.5348 54.1847 29.2069C54.0496 29.0696 53.9909 29.0417 53.8813 28.8256C53.7717 28.607 53.8304 28.5537 53.7488 28.419C53.6927 28.2817 53.5525 28.0885 53.5525 28.0885C53.5525 28.0885 53.1447 27.5955 52.7062 27.3515C52.4046 27.1986 52.1193 27.0155 51.8549 26.805C51.7733 26.7491 51.6127 26.5305 51.6127 26.5305L51.4725 26.3119L51.3935 26.1492C51.3374 25.8493 51.8829 26.2331 52.1837 26.3424C52.6782 26.5051 52.9255 26.7237 53.42 26.8889C53.6927 26.9702 53.8584 26.9677 54.1311 27.077C54.595 27.2676 54.7327 27.7327 55.2272 27.7886C55.4999 27.814 56.048 27.9233 55.9384 27.6768C55.8288 27.4048 55.2807 27.4048 55.008 27.077C54.8703 26.9397 54.8703 26.8075 54.7327 26.6703C54.5135 26.3958 53.9935 26.1492 53.9935 26.1492C53.9935 26.1492 53.8303 26.0145 53.6366 25.6333C53.4735 25.252 53.0631 24.9724 52.3239 24.6191C51.8319 24.3751 50.8455 24.3192 51.2278 24.0727C51.447 23.91 51.6382 23.938 51.9416 24.0193C52.2423 24.1286 52.3494 24.2684 52.5966 24.3751C52.8439 24.487 52.9535 24.5124 53.0045 24.5404C53.0606 24.5658 53.2517 24.6496 53.3358 24.6496C53.3868 24.6751 53.8023 24.731 53.9119 24.7589L54.46 24.8936L54.8984 25.0563C54.8984 25.0563 55.115 25.1402 55.2501 25.1402C55.3852 25.1402 55.6095 25.0868 55.6095 25.0868L55.7727 24.9775L55.7982 24.9216C55.7982 24.9216 55.8823 24.7869 55.6631 24.7589C55.5551 24.7417 55.4461 24.7315 55.3368 24.7284L55.1405 24.6751L55.0641 24.6496C55.0641 24.6496 54.6792 24.3497 54.3503 24.2125C54.2117 24.1607 54.0741 24.1065 53.9374 24.0498L53.8023 24.0193L53.6392 23.9939C53.6392 23.9939 53.499 23.9939 53.2798 23.8007C53.0606 23.6101 52.979 23.5008 52.7878 23.3102L52.5431 23.0662C52.5431 23.0662 52.3239 22.8984 52.3239 22.7612C52.3494 22.5451 52.8159 23.0103 52.8159 23.0103L53.1472 23.2288C53.1472 23.2288 53.42 23.422 53.9119 23.4474C54.4039 23.4754 55.008 23.3102 55.008 23.3102C55.008 23.3102 55.087 23.2593 55.3597 23.3381C55.6325 23.4169 55.8542 23.5821 55.8542 23.5821L56.0735 23.7753L56.4023 24.1286L56.4558 24.1032C56.4813 24.0778 56.6215 23.938 56.3768 23.6381C56.1295 23.3356 55.7191 23.0662 55.7191 23.0662C55.7191 23.0662 55.1711 22.7383 54.6231 22.629C54.0776 22.5197 53.8278 22.5197 53.8278 22.5197C53.8278 22.5197 53.4174 22.5197 53.1702 22.2478C52.9229 21.9733 52.7623 21.7013 52.7623 21.7013L52.6782 21.32C52.6782 21.32 52.5431 21.1548 52.2704 21.0455C52.0231 20.9362 51.7453 20.7736 51.7453 20.7736C51.7453 20.7736 51.3374 20.6363 51.3069 20.4432C51.2253 20.0899 51.9951 20.4432 52.4029 20.5245C52.7853 20.6058 52.951 20.7456 53.3333 20.8295C53.6181 20.9102 53.9157 20.9361 54.2101 20.9057C54.4013 20.9057 54.5109 20.8854 54.7021 20.8549C54.8958 20.8549 55.0335 20.8295 55.2272 20.8549C55.4999 20.9108 55.6095 21.0455 55.8823 21.1548C56.048 21.2362 56.1295 21.315 56.3207 21.3429C56.4864 21.3709 56.8152 21.4827 56.7591 21.3175L56.675 21.2082C56.5374 21.0176 56.3768 21.0176 56.2111 20.8829C55.8542 20.6084 55.6911 20.3923 55.2807 20.2017C55.0498 20.0786 54.8 19.9945 54.5415 19.9526C54.3198 19.9272 54.1566 19.9831 53.9374 19.9272C53.6902 19.8459 53.6111 19.7366 53.3639 19.6019C52.9815 19.3833 52.7598 19.1901 52.3494 19.0249C52.1073 18.9381 51.8605 18.8652 51.6102 18.8063L51.4165 18.7809L51.34 18.7529C50.9551 18.6157 52.0206 18.3183 52.5125 18.1811C52.7598 18.1277 52.8694 18.0692 53.1141 18.0972C53.3333 18.1226 53.5806 18.4276 53.8278 18.2904C54.1847 18.0997 53.4174 17.5787 53.1702 17.4974C52.8413 17.3601 52.2678 17.4719 52.2678 17.4719L51.0086 17.4414L50.6518 17.3881C50.6518 17.3881 50.4326 17.3881 50.2694 17.1974C50.1037 17.0068 49.4767 16.2392 48.7655 16.1299C48.0263 16.0206 47.8071 16.1299 47.7536 16.0791C47.124 15.0929 46.4638 14.8769 45.9693 14.4143C45.8342 14.277 45.6175 13.9746 45.5614 14.0025L45.564 14ZM48.554 16.8975C48.5973 16.8954 48.6406 16.8954 48.684 16.8975L48.819 16.9814C48.9312 17.092 49.0234 17.2209 49.0918 17.3626C49.1198 17.4719 48.7655 17.3372 48.6304 17.3067C48.4915 17.2681 48.3615 17.2024 48.2481 17.1136C48.2481 17.1136 48.1894 17.0322 48.3245 16.9509C48.3955 16.9143 48.4741 16.8977 48.554 16.8975ZM49.1963 18.2446C49.2626 18.2446 49.311 18.2599 49.311 18.2599L49.4461 18.3463C49.5583 18.4568 49.6506 18.5857 49.7188 18.7275C49.7469 18.8368 49.3926 18.7021 49.2575 18.6716C49.1185 18.6329 48.9886 18.5673 48.8751 18.4784C48.8751 18.4784 48.819 18.3971 48.9847 18.3158C49.0455 18.2698 49.12 18.2456 49.1963 18.2471V18.2446ZM44.3991 18.2802C44.4673 18.2767 44.5356 18.2801 44.603 18.2904C44.603 18.2904 44.7126 18.2904 44.8758 18.3692C45.0415 18.4784 45.1511 18.8063 45.1511 18.8063C45.1511 18.8063 45.1765 18.8622 45.0415 18.8622C44.9573 18.8622 44.9573 18.7275 44.8758 18.6716C44.7662 18.5903 44.6846 18.5623 44.5469 18.5089C44.4119 18.4556 44.2207 18.5344 44.1952 18.3997C44.1952 18.3183 44.2971 18.2878 44.3991 18.2802ZM42.2478 18.5979C42.3548 18.5674 42.2478 18.7809 42.2478 18.7809C42.2478 18.7809 41.8935 19.3528 41.4015 19.5714C40.9095 19.7899 40.5807 19.9018 39.6478 19.9831C39.5127 19.9831 39.5713 19.8992 39.5713 19.8992C39.5713 19.8992 40.6343 19.6019 41.2384 19.274C41.5265 19.1146 41.801 18.9318 42.0591 18.7275C42.1139 18.6742 42.1777 18.6286 42.2478 18.5979ZM44.1646 18.7504C44.1646 18.7504 44.3303 18.7555 44.5215 18.8902C44.7152 19.0274 44.8783 19.4926 44.8783 19.4926C44.8783 19.4926 44.9344 19.79 44.7968 19.8992C44.6591 20.0085 44.4399 19.8204 44.3277 19.6552C44.2301 19.5175 44.0848 19.4207 43.9199 19.3833C43.7007 19.3019 43.3719 19.5459 43.3183 19.3833C43.3183 19.3274 43.3438 19.1901 43.3438 19.1901C43.3438 19.1901 43.3999 19.0274 43.6472 18.8927C43.8664 18.7555 44.1646 18.7529 44.1646 18.7529V18.7504ZM49.2575 19.8052C49.3671 19.8154 49.52 19.8992 49.6398 19.8992C49.9967 19.8992 50.2949 19.8992 50.5422 19.9526C50.7614 20.0085 50.8149 20.1432 50.7053 20.1432C50.6255 20.1645 50.5431 20.1739 50.4606 20.1712C50.2159 20.1712 50.2414 20.0619 49.9151 20.2271C49.5837 20.3898 49.831 20.311 49.3671 20.4737C48.9287 20.6389 49.0357 20.2017 49.0357 20.2017C49.0357 20.2017 49.0688 20.1178 49.1224 19.8967C49.1428 19.8179 49.1912 19.7976 49.2575 19.8052ZM36.9102 21.071C37.0759 21.071 37.3792 21.1828 37.3792 21.4268C37.4047 21.6733 37.211 21.564 37.0733 21.6454C36.9943 21.7013 36.9408 21.7293 36.8312 21.8106C36.6935 21.9199 36.5559 22.1918 36.4743 22.108C36.3622 22.0266 36.4182 21.7267 36.4182 21.7267C36.4182 21.7267 36.5024 21.5081 36.612 21.2895C36.7496 21.071 36.9102 21.071 36.9102 21.071ZM50.0043 21.3531C50.0474 21.3551 50.0902 21.3619 50.1318 21.3734C50.1318 21.3734 50.2133 21.3988 50.2669 21.4522C50.3229 21.5081 50.5422 21.7013 50.5422 21.808C50.5422 21.8919 50.1879 21.7521 50.0247 21.7267C49.859 21.6988 49.6424 21.5361 49.6424 21.5361C49.6424 21.5361 49.5863 21.4853 49.7494 21.4039C49.8289 21.3663 49.9165 21.3489 50.0043 21.3531ZM45.174 21.5768C45.1995 21.5768 45.1969 21.6149 45.1485 21.7013C45.0415 21.9199 44.7126 22.1918 44.7126 22.1918C44.7126 22.1918 44.3303 22.7358 44.2487 22.8171C43.8919 23.0916 43.4534 22.9289 43.2623 22.9569C43.0991 22.9823 43.2087 22.8171 43.2087 22.8171C43.2087 22.8171 43.6752 22.629 43.9734 22.4663C44.3762 22.2655 45.0618 21.5768 45.174 21.5768ZM39.5458 22.0571C39.6045 22.0571 39.6504 22.0825 39.6504 22.1664C39.6784 22.357 39.3241 22.4918 39.3241 22.4918C39.3241 22.4918 39.217 22.5197 39.189 22.3291C39.1635 22.1385 39.3241 22.1105 39.3241 22.1105C39.3241 22.1105 39.4515 22.0495 39.5458 22.0571ZM46.3261 22.3545C46.372 22.3291 46.3338 22.601 46.3338 22.601C46.3338 22.601 46.2497 22.9594 46.0585 23.0687C45.8138 23.206 45.2071 23.3686 45.1536 23.2873C45.1536 23.2314 45.9463 22.9823 46.3007 22.385C46.3067 22.373 46.3154 22.3626 46.3261 22.3545ZM50.0324 22.4536C50.077 22.4539 50.1214 22.459 50.1649 22.4689C50.1649 22.4689 50.2414 22.4943 50.3255 22.5451C50.4071 22.629 50.6008 22.8501 50.6288 22.9594C50.6543 23.0687 50.272 22.934 50.0808 22.9061C49.9177 22.8781 49.6679 22.6875 49.6679 22.6875C49.6679 22.6875 49.6169 22.6036 49.7826 22.5223C49.8572 22.4752 49.9441 22.4514 50.0324 22.4536ZM46.7161 23.0738C46.7671 23.0586 46.6855 23.2873 46.6855 23.2873C46.6855 23.2873 46.5759 23.6431 46.3567 23.7245C46.084 23.8058 45.0465 23.8312 45.0185 23.7499C44.993 23.666 46.2216 23.5567 46.6855 23.0941C46.6936 23.0846 46.7042 23.0776 46.7161 23.0738ZM50.1165 23.544C50.1678 23.544 50.2191 23.5491 50.2694 23.5593C50.2694 23.5593 50.3535 23.5847 50.4351 23.6406C50.5167 23.7219 50.7359 23.971 50.7639 24.1057C50.7894 24.2709 50.3816 24.1057 50.1904 24.0523C50.0192 24.0008 49.8598 23.9162 49.7214 23.8033C49.7214 23.8033 49.6679 23.7245 49.831 23.6152C49.9175 23.5649 50.0165 23.5403 50.1165 23.544ZM50.1165 24.9089C50.1678 24.9088 50.2191 24.914 50.2694 24.9241C50.2694 24.9241 50.3535 24.9496 50.4351 25.0055C50.5167 25.0868 50.7359 25.3359 50.7639 25.4706C50.7894 25.6079 50.3816 25.4426 50.1904 25.3867C50.0193 25.3373 49.8599 25.2544 49.7214 25.1427C49.7214 25.1427 49.6679 25.0894 49.831 24.9801C49.9177 24.9307 50.0167 24.9069 50.1165 24.9114V24.9089ZM46.1197 26.2153C46.3312 26.2763 46.1375 27.814 45.7297 28.5283C45.2043 29.4051 44.5687 30.2114 43.8383 30.9276C43.456 31.1996 43.7032 30.709 43.7032 30.709C43.7032 30.709 44.7687 29.2374 45.2632 28.2004C45.6201 27.4633 45.8393 26.4822 46.0024 26.289C46.0534 26.2331 46.0891 26.2077 46.1197 26.2153ZM50.0706 26.2357C50.13 26.2376 50.189 26.2461 50.2465 26.2611C50.2465 26.2611 50.3535 26.2865 50.4351 26.3704C50.5167 26.4517 50.792 26.7542 50.8174 26.8914C50.8174 27.0541 50.3535 26.8329 50.1369 26.8075C49.9466 26.7541 49.7701 26.6605 49.6194 26.533C49.6194 26.533 49.5608 26.4237 49.752 26.3144C49.847 26.2549 49.9587 26.2273 50.0706 26.2357ZM49.8973 27.5573C49.9485 27.5564 49.9998 27.5607 50.0502 27.57C50.0502 27.57 50.1343 27.6005 50.2159 27.6565C50.2975 27.7378 50.5167 27.9818 50.5447 28.1165C50.5702 28.2537 50.1624 28.0911 49.9712 28.0631C49.8019 28.013 49.6443 27.9301 49.5073 27.8191C49.5073 27.8191 49.4563 27.7352 49.6169 27.626C49.7018 27.5768 49.7991 27.5529 49.8973 27.5573ZM49.8183 28.7418C49.859 28.7397 49.8998 28.7397 49.9406 28.7418L50.0808 28.8256C50.1938 28.9361 50.2869 29.065 50.3561 29.2069C50.3561 29.3187 50.0247 29.1815 49.8616 29.156C49.6984 29.1281 49.4792 28.9654 49.4792 28.9654C49.4792 28.9654 49.4232 28.8841 49.5888 28.8028C49.6594 28.7647 49.738 28.7438 49.8183 28.7418ZM49.6679 29.9033C49.7064 29.9057 49.7447 29.9108 49.7826 29.9185L49.8922 29.9745C49.9457 30.0278 50.1063 30.1905 50.1063 30.2718C50.1063 30.3811 49.8081 30.2464 49.6984 30.2464C49.5887 30.2137 49.4871 30.1583 49.4002 30.0838C49.4002 30.0838 49.3696 30.0253 49.4767 29.944C49.5328 29.9033 49.6041 29.9008 49.6679 29.9033ZM49.4385 30.9759C49.47 30.9757 49.5015 30.9774 49.5328 30.981L49.6424 31.0369C49.6984 31.0903 49.831 31.2275 49.831 31.3088C49.8055 31.3648 49.5583 31.2555 49.4486 31.2555C49.3524 31.2222 49.2608 31.1769 49.1759 31.1208C49.1759 31.1208 49.1504 31.0648 49.26 31.0115C49.3162 30.9868 49.3771 30.9746 49.4385 30.9759ZM30.0432 31.502C30.344 31.5579 30.4001 31.5834 30.372 31.7206C30.3975 31.8579 30.0177 31.8553 30.0177 31.8553C30.0177 31.8553 29.4672 31.9671 29.5513 31.7765C29.6609 31.5834 30.0432 31.502 30.0432 31.502ZM49.1886 31.8197C49.2447 31.8197 49.2906 31.8299 49.2906 31.8299L49.4002 31.8858C49.4537 31.9392 49.5888 32.0764 49.5888 32.1578C49.5608 32.2391 49.3135 32.1324 49.2065 32.1044C49.0943 32.0764 48.9312 31.9646 48.9312 31.9646C48.9312 31.9646 48.9057 31.9087 49.0153 31.8553C49.0697 31.8306 49.1289 31.8185 49.1886 31.8197ZM48.8828 32.7779C48.9083 32.7779 48.9339 32.7796 48.9592 32.783L49.0408 32.8389C49.0663 32.8644 49.2039 33.0016 49.2039 33.0575C49.2039 33.1389 49.0102 33.0575 48.9006 33.0321C48.819 33.0067 48.6865 32.9228 48.6865 32.9228C48.6865 32.9228 48.661 32.8669 48.7426 32.8135C48.7841 32.7889 48.8344 32.7765 48.8828 32.7779ZM41.0803 33.0829C41.2354 33.0829 41.3903 33.0922 41.5442 33.1109C42.3089 33.2202 43.0481 33.9039 42.936 33.9852C42.8264 34.0666 42.6632 33.9852 42.6072 33.9852L42.3344 33.8505L41.9215 33.7412C41.9215 33.7412 41.1823 33.576 40.6368 33.6014C40.0888 33.6294 39.5968 33.82 39.5968 33.82C39.5968 33.82 39.3776 33.9319 39.3241 33.7946C39.296 33.6319 39.4082 33.5481 39.4082 33.5481L39.4337 33.4922C39.4337 33.4922 40.0607 33.0779 41.0803 33.0829ZM28.0474 33.4083C28.0652 33.4083 28.0729 33.4134 28.0729 33.4134L28.1264 33.4693C28.1009 33.4693 28.208 33.7412 27.9633 34.0132C27.716 34.2877 26.9513 35.7339 26.7882 35.4874C26.6225 35.2967 27.5274 33.9293 27.7186 33.6574C27.8613 33.4312 27.9913 33.4083 28.0474 33.4083ZM48.5667 33.7057C48.6049 33.7057 48.633 33.7107 48.633 33.7107L48.712 33.7412L48.8522 33.9293C48.8241 34.0107 48.6585 33.9573 48.5769 33.9293C48.4953 33.9293 48.3832 33.82 48.3832 33.82C48.3832 33.82 48.3577 33.7946 48.4392 33.7438C48.4773 33.7193 48.5215 33.7061 48.5667 33.7057ZM31.2769 34.4758C31.3203 34.4605 31.3509 34.4961 31.3865 34.5063L31.5216 34.5597L31.6058 34.641L31.881 34.913C31.9907 35.0756 32.2889 35.6246 32.2328 35.6755C31.9881 35.922 31.9065 35.5941 31.5522 35.1849C31.1954 34.8037 31.2769 34.4758 31.2769 34.4758ZM48.1843 34.6029C48.2061 34.6036 48.2277 34.6079 48.2481 34.6156L48.3296 34.641L48.4673 34.8342C48.4673 34.8875 48.3016 34.8037 48.22 34.8037C48.1359 34.8037 48.0289 34.6944 48.0289 34.6944C48.0289 34.6944 47.9728 34.669 48.0544 34.641C48.0934 34.617 48.1385 34.6046 48.1843 34.6054V34.6029ZM35.8243 35.5967C35.9135 35.6043 35.7912 35.7619 35.7912 35.7619C35.7912 35.7619 35.3222 36.3871 35.0494 36.7709C34.6926 37.2869 34.2541 38.0773 34.1726 37.996C34.091 37.9147 34.5575 37.0454 34.8047 36.5803C35.0775 36.0084 35.4879 35.7085 35.651 35.6526C35.7044 35.623 35.7635 35.6048 35.8243 35.5992V35.5967ZM28.0448 37.6427L28.0984 37.6986C28.0984 37.6986 28.1264 37.8054 27.9352 38.1053C27.744 38.4052 27.6039 38.4078 27.6039 38.4078C27.6039 38.3823 27.5529 38.2731 27.716 37.9452C27.8791 37.6173 28.0448 37.6427 28.0448 37.6427ZM24.6878 38.7102C24.7037 38.7144 24.7179 38.7233 24.7286 38.7356C24.8102 38.8449 24.5655 39.3355 24.5655 39.3355C24.5655 39.3355 24.3182 39.8514 24.2341 39.6329C24.1525 39.4422 24.3208 39.0889 24.3208 39.0889C24.5119 38.9212 24.596 38.6924 24.6878 38.7102ZM46.5199 39.4143C46.7646 39.4422 46.7391 39.9074 46.7391 40.0166C46.8206 40.8071 47.152 41.6027 47.7536 42.5583C48.6024 43.8953 49.9712 44.9323 49.9151 45.0161C49.7775 45.1508 48.4112 44.0859 47.9167 43.486C47.0959 42.5024 46.4893 41.4374 46.3007 40.1005C46.2446 39.8006 46.2446 39.3609 46.5199 39.4143ZM30.4001 39.7955C30.4536 39.7955 30.6983 39.8819 30.6983 39.8819L31.2999 40.1259C31.3254 40.1259 31.6312 40.2632 31.8785 40.3979L32.475 40.7792L32.6432 40.9189C32.6432 40.9749 32.8344 41.2748 32.4495 41.1934C32.0671 41.1096 31.2463 40.4818 30.9175 40.3191C30.5862 40.1564 30.0432 40.1005 30.2905 39.8819C30.316 39.8565 30.344 39.7955 30.4001 39.7955ZM27.4942 41.3027C27.5128 41.2992 27.5318 41.2992 27.5503 41.3027C27.716 41.3027 27.716 41.4349 27.716 41.4349V41.5188C27.716 41.5188 27.7135 42.0119 27.7415 42.3931C27.7415 42.5024 28.0448 43.73 28.0448 43.73C28.0448 43.73 28.0984 43.8393 27.9887 43.8393C27.9072 43.8393 27.8256 43.6741 27.8256 43.6741C27.8256 43.6741 27.6039 43.3488 27.5197 43.1048C27.4407 42.8862 27.4127 42.5278 27.4127 42.5278C27.4127 42.5278 27.3566 42.0652 27.3566 41.9026C27.3846 41.684 27.3846 41.4908 27.4127 41.3815C27.4164 41.362 27.4259 41.3441 27.44 41.33C27.4541 41.316 27.4747 41.3065 27.4942 41.3027ZM23.6963 41.956C23.7213 41.9495 23.7476 41.9495 23.7727 41.956C23.9359 41.9839 23.8517 42.2813 23.8517 42.4185C23.8517 42.5558 23.6937 42.7998 23.6376 42.7998C23.5841 42.7998 23.4719 42.5558 23.5 42.4185C23.5255 42.2991 23.5433 41.9941 23.6963 41.956ZM37.5678 44.2257C37.8788 44.2003 38.7786 45.4889 40.0862 46.8944C41.5646 48.4804 43.2878 49.9826 43.3438 50.1732C43.4534 50.5011 42.1382 49.4615 41.427 48.9176C39.5382 47.4689 37.239 44.5231 37.5143 44.2511C37.5288 44.2369 37.5477 44.228 37.5678 44.2257ZM63.7535 45.555C63.8045 45.5499 63.8479 45.616 63.8479 45.616L63.9039 45.6948C63.9039 45.7507 64.2302 47.0317 64.2022 47.8501C64.1461 48.9939 64.0951 49.8148 63.412 50.6892C62.5887 51.7541 61.1638 52.8496 61.4646 51.9753C61.6557 51.4568 62.9175 50.801 63.4094 49.3548C63.6847 48.4804 63.7408 47.6595 63.7408 47.6595L63.6847 45.9972C63.6847 45.9972 63.6541 45.8625 63.6541 45.6693C63.6847 45.588 63.7204 45.5601 63.7535 45.555ZM49.7902 48.4017C50.0451 48.4296 50.1598 48.5897 49.859 48.8083C49.5022 49.0523 49.3671 49.0244 49.1453 49.2684C48.9006 49.5683 48.8216 50.5824 48.5743 50.1732C48.3296 49.764 48.4928 49.1896 48.9057 48.7524C49.0155 48.6291 49.1526 48.533 49.3061 48.4717C49.4597 48.4104 49.6254 48.3881 49.7902 48.4017ZM29.9107 49.5175C30.0152 49.4971 30.2905 49.7055 30.2905 49.7055C30.4256 49.731 30.5632 49.98 30.5632 49.98C30.5632 49.98 30.6193 50.1732 30.4536 50.2266C30.2905 50.3079 30.1809 50.1427 30.1809 50.1427C30.1809 50.1427 29.824 49.6522 29.875 49.5429C29.8785 49.5361 29.8836 49.5303 29.8898 49.5259C29.896 49.5215 29.9031 49.5186 29.9107 49.5175ZM56.1831 53.3935C56.2366 53.3935 56.3487 53.4494 56.4864 53.7239C56.624 53.9984 56.2672 55.9301 55.8288 55.6556C55.5815 55.4929 55.9639 55.0049 55.9639 54.5957C55.9639 54.2679 55.9078 54.0188 55.9078 53.7468C55.9078 53.4749 56.1831 53.3935 56.1831 53.3935ZM48.0595 56.7612C48.1563 56.7714 48.1818 56.9087 48.0493 57.1832C47.8581 57.5924 47.8046 57.7296 47.7765 58.1134C47.7204 58.5201 47.9702 59.6638 47.5879 59.2318C47.4502 59.0386 47.3126 58.1388 47.4222 57.7017C47.542 57.0866 47.8963 56.7485 48.0595 56.7612ZM45.9693 62.1445C46.061 62.1318 46.1069 62.1776 46.1069 62.1776C46.163 62.2869 46.0509 62.3987 46.0228 62.4267C45.9196 62.48 45.8087 62.5169 45.694 62.5359C45.5309 62.5614 45.6175 62.4267 45.6175 62.4267C45.6175 62.4267 45.722 62.2589 45.8597 62.1776C45.8941 62.1605 45.9311 62.1493 45.9693 62.1445ZM38.6359 62.724C38.8551 62.724 38.8551 62.8333 38.8551 62.8333C38.8551 62.9147 38.7709 62.9452 38.5492 62.9172C38.3606 62.8918 38.3351 62.8359 38.3631 62.8079C38.3631 62.7825 38.4166 62.724 38.6359 62.724ZM40.2978 62.8028C40.3183 62.8006 40.3391 62.8023 40.359 62.8079C40.359 62.8079 41.2893 62.9706 41.8909 62.996C42.3293 63.0239 42.5485 63.0544 42.987 63.0265C43.2342 63.0265 43.0966 62.996 43.4789 62.996C43.6166 62.9706 43.535 63.1637 43.4254 63.1917C43.015 63.301 42.8493 63.2425 42.495 63.2705C42.1917 63.2959 42.054 63.3239 41.7533 63.3239C41.2333 63.3239 41.1823 63.3544 40.4431 63.1358C40.3054 63.0824 40.1372 62.9172 40.1933 62.8638C40.205 62.8465 40.2205 62.832 40.2386 62.8215C40.2567 62.8109 40.2769 62.8046 40.2978 62.8028ZM34.091 62.968C34.4122 62.9757 34.3102 63.0824 34.3102 63.0824C34.3102 63.0824 34.3077 63.1892 34.1165 63.3239C33.9228 63.4611 33.8438 63.3798 33.8157 63.3798C33.7902 63.3798 33.5965 63.2705 33.5965 63.1612C33.6246 63.0519 33.9279 62.9731 33.9279 62.9731C33.9821 62.9679 34.0366 62.9662 34.091 62.968ZM51.3247 66.7297C51.3469 66.7292 51.3691 66.7309 51.391 66.7348L51.4445 66.8441C51.4445 66.8695 51.2253 67.1745 51.1157 67.1745C50.9806 67.144 51.0316 66.9839 51.0316 66.9839C51.0316 66.9839 50.978 66.8187 51.1412 66.7653C51.2001 66.7438 51.262 66.7318 51.3247 66.7297ZM49.2804 67.538C49.3008 67.538 49.3263 67.5405 49.339 67.5532V67.6625C49.3645 67.7464 48.6508 68.5394 48.1589 69.0045C47.6949 69.4417 46.8997 70.0415 46.8997 70.0415H46.7901V69.9017L46.8206 69.8484L46.8742 69.767L46.9303 69.6832L46.9838 69.6069L47.1495 69.4112L47.5318 69.0579L47.9142 68.7021L48.5183 68.0997C48.5183 68.0997 48.7349 67.8582 48.8165 67.8023C48.8981 67.7489 48.9541 67.693 49.0357 67.6396C49.1173 67.599 49.2141 67.5431 49.2804 67.538ZM45.3218 70.8244C45.3444 70.8211 45.3674 70.8226 45.3893 70.8287C45.4113 70.8348 45.4317 70.8455 45.4493 70.86C45.5334 71.0506 45.3983 71.104 45.3983 71.104L45.1485 71.2971C45.1205 71.2971 44.9573 71.4344 44.9038 71.3505C44.8477 71.2692 44.9293 71.1599 44.9293 71.1319C44.9293 71.1065 45.095 70.9159 45.2326 70.86C45.2596 70.8421 45.29 70.83 45.3218 70.8244ZM42.6531 73.3508C42.7652 73.3381 42.8468 73.5058 42.8468 73.5058C42.8468 73.5058 42.9029 73.5846 42.9029 73.6939C42.9029 73.7778 42.6556 73.7498 42.5205 73.8591C42.3548 73.9684 42.6862 74.2988 42.1636 74.2709C41.8654 74.2455 42.0286 73.971 42.0566 73.943L42.2452 73.6711C42.3829 73.4779 42.467 73.4499 42.6021 73.3661C42.6177 73.3571 42.6351 73.3519 42.6531 73.3508Z" fill="#D40000"/>
</g>
<defs>
<filter id="filter0_i_326_1366" x="23" y="14" width="44" height="65" filterUnits="userSpaceOnUse" color-interpolation-filters="sRGB">
<feFlood flood-opacity="0" result="BackgroundImageFix"/>
<feBlend mode="normal" in="SourceGraphic" in2="BackgroundImageFix" result="shape"/>
<feColorMatrix in="SourceAlpha" type="matrix" values="0 0 0 0 0 0 0 0 0 0 0 0 0 0 0 0 0 0 127 0" result="hardAlpha"/>
<feOffset dy="4"/>
<feGaussianBlur stdDeviation="2"/>
<feComposite in2="hardAlpha" operator="arithmetic" k2="-1" k3="1"/>
<feColorMatrix type="matrix" values="0 0 0 0 0 0 0 0 0 0 0 0 0 0 0 0 0 0 0.5 0"/>
<feBlend mode="normal" in2="shape" result="effect1_innerShadow_326_1366"/>
</filter>
</defs>
</svg>
