<svg width="90" height="90" viewBox="0 0 90 90" fill="none" xmlns="http://www.w3.org/2000/svg">
<rect width="90" height="90" rx="10" fill="white"/>
<path d="M71.7794 33.4575C71.0369 26.217 66.2219 24.6938 61.9829 23.9985C59.8544 23.6385 56.0654 23.3235 53.6219 23.2335C51.4934 23.0985 46.4939 23.031 44.9931 23.031C43.5149 23.031 38.4906 23.0985 36.3644 23.2335C33.9434 23.3235 30.1319 23.6385 28.0034 23.9985C23.7666 24.7163 18.9449 26.235 18.2069 33.4575C18.0269 35.4308 17.9819 38.0093 18.0044 40.7655C18.0719 45.3353 18.4544 48.429 18.6794 50.5823C18.8369 52.0605 19.4399 56.4773 20.2251 58.7633C21.3006 61.902 22.2861 62.82 23.4291 63.7628C25.5374 65.466 28.9889 66.0038 29.7066 66.1388C33.6059 66.8363 41.4966 66.9668 44.9706 66.9668C48.4446 66.9668 56.3331 66.8543 60.2346 66.1388C60.9749 66.0038 64.4264 65.4863 66.5121 63.7628C67.6551 62.82 68.6406 61.902 69.7161 58.7633C70.5036 56.4773 71.1291 52.0605 71.2866 50.5823C71.5116 48.429 71.9144 45.3353 71.9594 40.7655C72.0494 38.0093 71.9819 35.4308 71.7794 33.4575ZM69.1334 45.6075C68.7059 51.39 68.1929 54.8415 67.4526 57.3525C66.8001 59.5485 66.0194 61.0043 64.8314 62.0595C62.8806 63.8303 60.1896 64.2105 58.6214 64.4355C55.2149 64.953 49.4976 65.1105 44.9931 65.1105C40.4886 65.1105 34.7714 64.9305 31.3649 64.4355C29.7966 64.2105 27.1056 63.8303 25.1549 62.0595C23.9894 61.0043 23.1839 59.526 22.5561 57.3503C21.8159 54.864 21.3006 51.3878 20.8754 45.6053C20.6279 42.1335 20.6729 36.4838 21.0554 33.4553C21.6359 28.9305 23.8791 26.6648 28.6761 25.8143C30.9171 25.4093 33.9411 25.1168 36.7896 24.9818C39.0756 24.8243 42.8646 24.7568 44.9706 24.7793C47.0766 24.7568 50.8656 24.8468 53.1516 24.9818C56.0204 25.1168 59.0241 25.4093 61.2651 25.8143C66.0846 26.6648 68.3279 28.953 68.8881 33.4575C69.3359 36.4838 69.4011 42.1335 69.1334 45.6075ZM57.4311 26.73C56.1981 32.2695 55.7054 34.803 54.6951 38.8125C53.7321 42.6713 52.9694 46.233 51.6914 47.9588C50.3706 49.707 48.6201 50.0895 47.4321 50.2223C46.8044 50.2898 46.3566 50.3123 45.0336 50.3348C43.6926 50.3348 43.2426 50.2898 42.6149 50.2223C41.4269 50.0873 39.6561 49.707 38.3579 47.9588C37.0574 46.233 36.3171 42.6713 35.3541 38.8148C34.2966 34.8255 33.8286 32.2673 32.5731 26.7323C32.5731 26.7323 31.3401 26.7773 30.7799 26.8223C30.0396 26.8673 29.4569 26.9348 28.8291 27.0248C29.6009 39.1118 30.3861 51.9525 31.3626 63.3173C33.1469 63.5417 34.942 63.6686 36.7401 63.6975C37.4826 60.849 38.4231 56.9025 39.4559 55.2218C40.3064 53.8538 41.6294 53.6985 42.3696 53.6085C43.5351 53.451 44.5206 53.4285 44.9909 53.4285C45.4409 53.406 46.4241 53.4285 47.6121 53.6085C48.3546 53.721 49.6754 53.856 50.5259 55.2218C51.5834 56.9025 52.4991 60.8468 53.2394 63.6953C53.2394 63.6953 54.0449 63.6728 55.8606 63.5828C56.7831 63.5423 57.7056 63.4523 58.6191 63.3128C59.6496 51.1853 60.3854 39.1748 61.1526 27.0248C60.5226 26.9348 59.9421 26.8673 59.2019 26.8223C58.6844 26.7773 57.4311 26.73 57.4311 26.73Z" fill="#DA251D"/>
</svg>
