<svg width="90" height="90" viewBox="0 0 90 90" fill="none" xmlns="http://www.w3.org/2000/svg">
<rect width="90" height="90" rx="10" fill="white"/>
<path fill-rule="evenodd" clip-rule="evenodd" d="M9 9H81V81H9V9Z" fill="white"/>
<g filter="url(#filter0_i_328_1348)">
<path fill-rule="evenodd" clip-rule="evenodd" d="M21.6617 61.1263L22.5825 61.2234C23.0188 61.2724 23.0188 61.6115 23.0188 61.8539V62.9686H18.7534V61.8539C18.7534 61.6119 18.802 61.2724 19.2383 61.2234L20.159 61.1263V60.2056H14.6338V61.1263L15.5549 61.2234C15.9426 61.2724 15.9908 61.6115 15.9908 61.8539V65.4406C15.9908 65.6834 15.9426 66.0229 15.5549 66.0711L14.6338 66.1682V67.089H20.1594V66.1682L19.2387 66.0711C18.8024 66.0229 18.7538 65.6837 18.7538 65.4406V64.3745H23.0191V65.4406C23.0191 65.6834 23.0191 66.0229 22.5829 66.0711L21.6621 66.1682V67.089H27.1874V66.1682L26.2666 66.0711C25.8789 66.0229 25.8303 65.6837 25.8303 65.4406V61.8539C25.8303 61.6119 25.8789 61.2724 26.2666 61.2234L27.1874 61.1263V60.2056H21.6617V61.1263ZM58.6445 60.2056H51.81V61.1263L52.6344 61.2234C52.9246 61.2724 53.1189 61.3695 53.1189 61.8058V65.4402C53.1189 65.683 53.0707 66.0225 52.6344 66.0707L51.7129 66.1678V67.0886H58.6445C61.1161 67.0886 63.1522 66.1197 63.1522 63.6473C63.1526 61.1752 61.1161 60.2056 58.6445 60.2056ZM58.16 65.7794H55.8333V61.5144H58.16C59.5171 61.5144 59.9533 62.1449 59.9533 63.6469C59.9533 65.1496 59.5171 65.7794 58.16 65.7794Z" fill="#C23C40"/>
</g>
<g filter="url(#filter1_i_328_1348)">
<path fill-rule="evenodd" clip-rule="evenodd" d="M74.8338 66.0702C74.3975 66.022 74.2514 65.731 74.1065 65.5368L70.9076 60.6417C70.6655 60.3025 70.5195 60.2054 70.1803 60.2054H64.9457V61.1262L66.1574 61.2722C66.3517 61.2722 66.5937 61.5143 66.3995 61.8538L64.0249 65.6832C63.9278 65.8285 63.8307 66.0224 63.5397 66.0706L62.619 66.1677V67.0884H67.03V66.1677L66.3027 66.1195C65.9636 66.0706 65.7693 65.8285 65.9636 65.5861L66.3027 65.0038H70.5684L70.8594 65.489C71.1496 65.8763 70.8105 66.0706 70.4713 66.0706L69.6959 66.1677V67.0884H75.7059V66.1677L74.8338 66.0702ZM67.0296 63.7439L68.3385 61.6596L69.7437 63.7439H67.0296ZM46.8176 61.1262L47.7873 61.2233C48.1746 61.2722 48.2235 61.6114 48.2235 61.8538V65.2951L44.588 60.4968C44.3941 60.254 44.2488 60.2058 43.8611 60.2058H39.1109V61.1265L40.0317 61.2237C40.468 61.2726 40.5165 61.6117 40.5165 61.8542V65.4408C40.5165 65.6836 40.468 66.0231 40.0317 66.0713L39.1109 66.1684V67.0892H43.5216V66.1684L42.6004 66.0713C42.2127 66.0231 42.1641 65.684 42.1641 65.4408V61.9995L45.7997 66.7986C45.9939 67.0406 46.1389 67.0888 46.5262 67.0888H49.8712V61.8542C49.8712 61.6121 49.9194 61.2726 50.3556 61.2237L51.2764 61.1265V60.2058H46.8172V61.1262H46.8176ZM33.149 59.9634C28.6413 59.9634 27.4781 61.9505 27.4781 63.6467C27.4781 65.3919 28.6413 67.3309 33.149 67.3309C37.6568 67.3309 38.8203 65.3919 38.8203 63.6467C38.8199 61.9505 37.6568 59.9634 33.149 59.9634ZM33.149 66.022C31.4043 66.022 30.677 65.2947 30.677 63.6467C30.677 61.9987 31.4039 61.2722 33.149 61.2722C34.8941 61.2722 35.621 61.9987 35.621 63.6467C35.621 65.2947 34.8941 66.022 33.149 66.022ZM30.7256 58.8966L27.381 55.7944L44.2488 53.8562L52.3921 58.8966H30.7256ZM59.1287 45.6639L23.6487 52.3049L26.7023 55.1639L43.0853 53.1285C42.7943 52.9832 42.7461 52.8375 42.7461 52.6441C42.7461 52.4498 42.8914 52.256 43.182 52.2078C43.3277 52.2078 52.2461 50.8989 52.8762 50.8018C53.1665 50.7529 53.8941 50.6076 54.6695 50.2202C55.445 49.8811 55.9294 49.493 56.2204 49.2016C56.4625 49.0081 57.1412 48.2809 57.6264 47.7475C57.9015 47.4718 58.1604 47.1805 58.4018 46.8749C58.5961 46.6329 59.0324 46.0995 59.2255 45.857C59.2748 45.761 59.2258 45.6639 59.1287 45.6639ZM64.7033 37.9091L20.353 49.2995L23.0189 51.7719L36.6875 49.1542C36.4454 49.0089 36.2997 48.9121 36.2997 48.6697C36.3016 48.5627 36.3417 48.4598 36.4129 48.3798C36.484 48.2998 36.5814 48.2479 36.6875 48.2334L58.8867 43.9195C59.1777 43.871 59.9531 43.7253 60.68 43.2408C61.4073 42.8046 61.7953 42.3201 62.0378 42.0773C62.328 41.7381 62.8614 41.0594 63.2495 40.575C63.5397 40.1872 63.7829 39.7995 63.976 39.5089C64.1702 39.2183 64.6065 38.4425 64.8486 38.1033C64.8971 38.0058 64.8004 37.8605 64.7033 37.9091Z" fill="#C23C40"/>
</g>
<g filter="url(#filter2_i_328_1348)">
<path fill-rule="evenodd" clip-rule="evenodd" d="M58.8383 25.0161C59.4199 24.7737 62.3768 23.5134 63.0062 23.1739C63.6852 22.8833 65.6238 22.0107 66.3511 21.6715C67.1747 21.3324 69.5014 20.2174 69.8406 20.0721C71.4886 19.2966 73.5247 18.3273 73.9121 18.0849C74.0092 18.0363 74.2031 18.1335 74.1541 18.2788C73.8072 19.3975 73.4027 20.4977 72.9424 21.5748C72.6522 22.2535 72.2159 23.2228 71.8278 23.8529C71.3433 24.6288 70.8589 25.1614 70.4708 25.5009C69.6471 26.2768 68.9681 26.6645 68.2412 26.9555C67.8049 27.1008 66.8841 27.4885 66.254 27.7309C66.1087 27.7795 63.6363 28.7002 63.1029 28.8455L19.3832 44.3074C18.3653 44.6466 17.2021 45.3249 17.2021 46.6337C17.2021 47.2161 17.5417 47.9915 18.22 48.6209L29.2712 58.8967H24.1333C24.0366 58.6065 23.8909 58.1702 23.6971 57.8788C23.5032 57.5875 23.4065 57.2973 22.8245 56.7642C22.3886 56.279 21.9523 55.8435 21.8066 55.6978L15.99 49.8819C14.8754 48.8155 14.2935 47.4096 14.2935 46.1496C14.2935 44.4045 15.2628 42.7083 18.1711 41.5448L58.8383 25.0161Z" fill="#C23C40"/>
</g>
<g filter="url(#filter3_i_328_1348)">
<path fill-rule="evenodd" clip-rule="evenodd" d="M63.6366 30.881C64.2181 30.6872 65.3335 30.2994 65.6237 30.2027C65.9147 30.1059 67.0779 29.6697 67.2717 29.6211C68.0472 29.2819 68.8226 28.991 69.647 28.6518C69.7434 28.6032 69.8891 28.7004 69.8405 28.8457C69.7434 29.0881 69.2107 30.1541 69.0651 30.3965C68.7259 31.0753 68.3867 31.7054 68.0472 32.2384C67.708 32.7718 67.2717 33.4987 66.9811 33.8382C66.4959 34.4198 66.0596 34.8076 65.3813 35.2924C64.5088 35.874 63.7333 36.0678 63.3941 36.2135L31.1619 44.8405C30.9199 44.8887 30.8228 45.1797 30.8228 45.2768C30.8228 45.4711 30.9681 45.6642 31.1619 45.7613L19.723 48.7182L18.8022 47.8456C18.4631 47.5554 18.3174 47.1191 18.3174 46.7795C18.3174 45.9552 18.9475 45.5678 19.9658 45.2286L63.6366 30.881Z" fill="#C23C40"/>
</g>
<defs>
<filter id="filter0_i_328_1348" x="14.6338" y="60.2056" width="48.5186" height="10.8833" filterUnits="userSpaceOnUse" color-interpolation-filters="sRGB">
<feFlood flood-opacity="0" result="BackgroundImageFix"/>
<feBlend mode="normal" in="SourceGraphic" in2="BackgroundImageFix" result="shape"/>
<feColorMatrix in="SourceAlpha" type="matrix" values="0 0 0 0 0 0 0 0 0 0 0 0 0 0 0 0 0 0 127 0" result="hardAlpha"/>
<feOffset dy="4"/>
<feGaussianBlur stdDeviation="2"/>
<feComposite in2="hardAlpha" operator="arithmetic" k2="-1" k3="1"/>
<feColorMatrix type="matrix" values="0 0 0 0 0 0 0 0 0 0 0 0 0 0 0 0 0 0 0.25 0"/>
<feBlend mode="normal" in2="shape" result="effect1_innerShadow_328_1348"/>
</filter>
<filter id="filter1_i_328_1348" x="20.353" y="37.8994" width="55.353" height="33.4316" filterUnits="userSpaceOnUse" color-interpolation-filters="sRGB">
<feFlood flood-opacity="0" result="BackgroundImageFix"/>
<feBlend mode="normal" in="SourceGraphic" in2="BackgroundImageFix" result="shape"/>
<feColorMatrix in="SourceAlpha" type="matrix" values="0 0 0 0 0 0 0 0 0 0 0 0 0 0 0 0 0 0 127 0" result="hardAlpha"/>
<feOffset dy="4"/>
<feGaussianBlur stdDeviation="2"/>
<feComposite in2="hardAlpha" operator="arithmetic" k2="-1" k3="1"/>
<feColorMatrix type="matrix" values="0 0 0 0 0 0 0 0 0 0 0 0 0 0 0 0 0 0 0.25 0"/>
<feBlend mode="normal" in2="shape" result="effect1_innerShadow_328_1348"/>
</filter>
<filter id="filter2_i_328_1348" x="14.2935" y="18.0723" width="59.8687" height="44.8242" filterUnits="userSpaceOnUse" color-interpolation-filters="sRGB">
<feFlood flood-opacity="0" result="BackgroundImageFix"/>
<feBlend mode="normal" in="SourceGraphic" in2="BackgroundImageFix" result="shape"/>
<feColorMatrix in="SourceAlpha" type="matrix" values="0 0 0 0 0 0 0 0 0 0 0 0 0 0 0 0 0 0 127 0" result="hardAlpha"/>
<feOffset dy="4"/>
<feGaussianBlur stdDeviation="2"/>
<feComposite in2="hardAlpha" operator="arithmetic" k2="-1" k3="1"/>
<feColorMatrix type="matrix" values="0 0 0 0 0 0 0 0 0 0 0 0 0 0 0 0 0 0 0.25 0"/>
<feBlend mode="normal" in2="shape" result="effect1_innerShadow_328_1348"/>
</filter>
<filter id="filter3_i_328_1348" x="18.3174" y="28.6392" width="51.5327" height="24.0791" filterUnits="userSpaceOnUse" color-interpolation-filters="sRGB">
<feFlood flood-opacity="0" result="BackgroundImageFix"/>
<feBlend mode="normal" in="SourceGraphic" in2="BackgroundImageFix" result="shape"/>
<feColorMatrix in="SourceAlpha" type="matrix" values="0 0 0 0 0 0 0 0 0 0 0 0 0 0 0 0 0 0 127 0" result="hardAlpha"/>
<feOffset dy="4"/>
<feGaussianBlur stdDeviation="2"/>
<feComposite in2="hardAlpha" operator="arithmetic" k2="-1" k3="1"/>
<feColorMatrix type="matrix" values="0 0 0 0 0 0 0 0 0 0 0 0 0 0 0 0 0 0 0.25 0"/>
<feBlend mode="normal" in2="shape" result="effect1_innerShadow_328_1348"/>
</filter>
</defs>
</svg>
