<svg width="90" height="90" viewBox="0 0 90 90" fill="none" xmlns="http://www.w3.org/2000/svg">
<rect width="90" height="90" rx="10" fill="white"/>
<g filter="url(#filter0_i_319_2026)">
<path d="M45 63C25.6698 63 10 54.942 10 44.9977C10 35.058 25.6698 27 45 27C64.3311 27 80 35.058 80 44.9977C80 54.942 64.3311 63 45 63ZM32.1734 30.8914C20.7946 33.2528 12.8379 38.6619 12.8379 44.9544C12.8379 48.4389 15.2827 51.6529 19.3946 54.2308C19.737 54.4422 19.9607 54.4826 20.1267 54.472C20.4239 54.4545 20.5913 54.2681 20.7129 54.0456C20.7946 53.9039 20.897 53.6877 20.9964 53.4707C22.3384 50.3061 27.0561 39.3525 33.2531 31.9257C33.3657 31.7915 33.4679 31.6488 33.5588 31.499C33.693 31.2536 33.6626 31.057 33.5605 30.9381C33.3876 30.7491 32.9052 30.7483 32.1734 30.8914ZM38.4142 35.9433C34.9935 44.2659 41.4688 43.2345 43.2203 42.8478C46.1961 42.1882 49.0373 41.0578 51.3128 40.1458C57.7925 37.5499 61.233 34.9452 62.3743 33.9445C62.4824 33.8522 62.5871 33.7559 62.6881 33.6559C62.8506 33.4864 62.9728 33.3077 62.9728 33.0711C62.9728 32.7977 62.7365 32.5783 62.2804 32.4194C62.2454 32.4051 62.1296 32.3581 62.0934 32.3464C57.1409 30.7646 51.2318 29.8451 44.8804 29.8451C44.8314 29.8451 44.7095 29.8387 44.5395 29.8451C43.7788 29.8679 42.9327 30.039 42.244 30.3966C39.9758 31.5793 38.9879 34.5544 38.4142 35.9433ZM69.2874 35.9541C69.2092 36.0964 69.1089 36.3117 69.0068 36.5308C67.6654 39.6931 62.9477 50.6423 56.7515 58.0684C56.6013 58.2524 56.5194 58.3696 56.4476 58.4969C56.3041 58.7441 56.3345 58.9453 56.4476 59.0622C56.6145 59.2494 57.0995 59.2532 57.8301 59.108C69.2045 56.742 77.1618 51.3363 77.1618 45.0435C77.1618 41.5602 74.7235 38.3462 70.6075 35.7707C70.2688 35.5575 70.0434 35.5163 69.8783 35.5283C69.5785 35.5478 69.4116 35.7324 69.2874 35.9541ZM51.5858 54.0523C55.0071 45.7303 48.5283 46.7672 46.783 47.1522C43.8027 47.8095 40.9613 48.9428 38.6872 49.8513C32.2046 52.446 28.7655 55.0565 27.6202 56.0538C27.4837 56.1788 27.3772 56.2705 27.3092 56.3444C27.1448 56.5118 27.0272 56.6885 27.0272 56.9307C27.0272 57.2003 27.2605 57.4237 27.7161 57.5818C27.7511 57.5958 27.8652 57.644 27.9078 57.6563C32.8544 59.2336 38.7636 60.1558 45.1161 60.1558C45.1677 60.1558 45.2888 60.1605 45.4597 60.1558C46.2206 60.1321 47.0703 59.958 47.7554 59.6043C50.0248 58.4207 51.013 55.4465 51.5858 54.0523Z" fill="#002C5F"/>
</g>
<defs>
<filter id="filter0_i_319_2026" x="10" y="27" width="70" height="40" filterUnits="userSpaceOnUse" color-interpolation-filters="sRGB">
<feFlood flood-opacity="0" result="BackgroundImageFix"/>
<feBlend mode="normal" in="SourceGraphic" in2="BackgroundImageFix" result="shape"/>
<feColorMatrix in="SourceAlpha" type="matrix" values="0 0 0 0 0 0 0 0 0 0 0 0 0 0 0 0 0 0 127 0" result="hardAlpha"/>
<feOffset dy="4"/>
<feGaussianBlur stdDeviation="2"/>
<feComposite in2="hardAlpha" operator="arithmetic" k2="-1" k3="1"/>
<feColorMatrix type="matrix" values="0 0 0 0 0 0 0 0 0 0 0 0 0 0 0 0 0 0 0.5 0"/>
<feBlend mode="normal" in2="shape" result="effect1_innerShadow_319_2026"/>
</filter>
</defs>
</svg>
