<svg width="90" height="90" viewBox="0 0 90 90" fill="none" xmlns="http://www.w3.org/2000/svg">
<rect width="90" height="90" rx="10" fill="white"/>
<g filter="url(#filter0_i_319_2050)">
<path d="M24.723 29.0034C24.4298 29.0072 24.1368 29.0172 23.844 29.0334C23.844 29.0334 19.044 29.2494 17.544 31.4274C17.544 31.4274 17.289 31.7214 17.433 32.0364C17.433 32.0364 17.463 32.1264 17.403 32.1864C17.403 32.1864 16.593 32.9064 16.185 33.5514C16.041 33.7854 15.879 34.1784 16.185 34.4514C16.185 34.4514 16.32 34.5564 16.374 34.6464C16.491 34.8384 16.599 35.1234 16.743 35.2914C16.953 35.5434 17.376 35.9754 17.973 35.8704C18.192 35.8314 18.243 35.7504 18.243 35.7504C18.543 36.0474 19.023 36.0384 19.023 36.0384C18.963 35.8464 18.753 35.4744 18.723 35.2494C18.7063 35.086 18.7215 34.9209 18.768 34.7634C18.8511 34.4636 18.9996 34.1859 19.203 33.9504C19.365 33.7884 19.779 33.6054 20.112 33.8364C20.376 34.0254 20.694 34.6404 20.43 35.5164C20.43 35.5824 20.13 36.2064 19.815 36.2964C19.815 36.2964 19.785 36.3084 19.725 36.3084C19.515 36.3084 19.125 36.0894 19.125 36.0894C19.125 36.0894 19.125 36.1434 19.17 36.3714C19.206 36.5004 19.251 36.6414 19.29 36.7524C19.29 36.7524 19.215 36.8904 19.164 36.9684C19.089 37.1034 19.026 37.3614 19.194 37.4784C19.194 37.4784 19.884 37.9494 20.559 37.9914C21.021 38.0214 21.195 37.7064 21.195 37.7064C21.537 37.2384 21.795 36.8364 22.155 36.5094C23.136 35.6094 24.513 35.3694 24.513 35.3694C24.603 35.3574 26.112 34.9374 28.671 36.9864C27.939 37.0464 27.069 37.2204 26.403 37.3374C24.507 37.6764 23.292 39.4674 22.938 40.1934C22.017 42.0924 23.898 42.7464 23.898 42.7464C23.928 42.7284 25.698 42.5904 26.556 40.6974C26.556 40.6974 26.868 39.8604 27.705 40.1334C28.251 40.3104 33.075 41.9934 34.161 42.2814C34.161 42.2814 37.392 43.1214 38.607 41.6364C40.554 42.2754 42.378 42.5844 47.157 41.9664C47.988 41.8584 48.642 41.8854 48.642 41.8854C49.758 41.9664 50.778 42.7194 51.087 43.2114C52.347 45.2244 53.937 49.2204 59.475 48.7344L61.98 48.5064C63.51 48.4164 64.752 48.3564 66.015 49.0224C66.564 49.3104 66.87 49.4154 67.803 50.3064C69.078 51.5184 70.251 52.8324 71.811 52.1154C72.366 51.8604 72.99 50.8704 72.99 50.8704C72.9593 50.6192 72.8758 50.3773 72.745 50.1607C72.6142 49.944 72.439 49.7575 72.231 49.6134C73.65 49.9524 76.851 50.1684 78.087 48.0054C78.408 47.5014 78.441 47.0514 78.321 46.7814C77.982 46.0224 77.043 46.2714 77.043 46.2714C76.599 46.3614 76.092 46.8714 75.339 47.0934C73.725 47.5734 72.435 47.0154 72.435 47.0154C69.948 45.9384 61.956 41.3634 57.891 39.3654C57.891 39.3654 53.226 37.0254 46.374 34.3134C46.374 34.3134 33.93 28.8444 24.738 29.0034H24.723ZM24.723 29.4114C33.723 29.2584 46.062 34.6284 46.185 34.6854C47.289 35.1234 48.333 35.5554 49.314 35.9634L47.889 35.3994C46.0757 34.7135 44.2472 34.0683 42.405 33.4644C37.773 31.8654 35.745 31.5834 35.604 31.5654C35.3489 31.5214 35.0929 31.4834 34.836 31.4514L34.002 31.3554L34.464 32.1024C31.194 29.7894 27.279 29.6724 27.087 29.6664C26.298 29.6664 25.611 29.8914 25.077 30.1464L25.344 29.6514L24.696 29.6214C23.7949 29.5752 22.8916 29.5932 21.993 29.6754C22.8913 29.5062 23.8029 29.4179 24.717 29.4114H24.723ZM23.766 30.0054C24.051 30.0054 24.357 30.0144 24.687 30.0294L24.579 30.2304C24.348 30.6684 23.424 31.5744 21.903 31.2384C21.903 31.2384 21.903 31.9164 23.568 32.1594C23.568 32.1594 25.059 32.4234 27.591 34.4604C27.591 34.4604 26.382 32.0544 24.327 31.4304C24.327 31.4304 24.069 31.3764 24.195 31.2144C24.195 31.2144 25.407 30.0744 27.096 30.0744C27.096 30.0744 32.358 30.1884 35.703 33.6864C35.703 33.6864 35.553 33.0774 35.028 32.2164L34.809 31.8564C34.809 31.8564 35.01 31.8804 35.559 31.9704C35.559 31.9704 37.569 32.2194 42.288 33.8484C42.288 33.8484 45.825 35.0124 47.76 35.7774C50.67 36.9384 57.954 39.7584 62.601 42.2934C63.429 42.7434 71.832 47.1234 71.832 47.1234C74.157 48.1704 75.768 47.5344 75.768 47.5344C76.293 47.3364 77.244 46.6044 77.658 47.0184C77.871 47.2314 77.901 47.5194 77.799 47.7984C77.679 48.2184 77.079 48.7824 76.35 49.1034C75.585 49.4454 73.989 49.5354 73.068 49.3854C73.068 49.3854 71.28 49.2054 69.717 47.5704C69.222 47.0544 68.616 46.4694 68.055 45.8934C67.5702 45.354 66.9124 45.0006 66.195 44.8944C65.145 44.7534 62.58 44.6844 61.617 44.3634C60.972 44.1474 60.195 43.7124 59.16 42.1794C58.662 41.4474 58.311 41.2464 57.633 40.8144C57.633 40.8144 58.152 41.2284 58.446 41.7504C58.872 42.5064 59.085 43.0554 59.316 43.4604C59.547 43.8654 59.808 44.2224 60.201 44.5404C60.693 44.9334 60.999 45.0084 61.53 45.0954C62.04 45.1794 63.756 45.1644 65.226 45.1434C66.675 45.1194 67.323 45.5874 67.797 45.9894C68.238 46.3614 68.997 47.4204 69.459 47.8854C70.011 48.4374 70.419 49.0014 71.511 49.5534C71.892 49.7454 72.513 50.2194 72.48 50.6754C71.988 51.1674 71.379 51.2964 69.915 50.9034C70.02 51.0054 70.785 51.8124 72.096 51.4314C71.7745 51.7317 71.3477 51.8933 70.908 51.8814C69.534 51.8034 68.19 50.1114 67.434 49.4874C66.864 49.0134 66.795 48.8964 65.823 48.2214C64.344 47.1984 61.029 47.4864 61.029 47.4864L58.593 47.6124C53.853 47.9724 51.861 43.7724 51.336 42.8964C51.1837 42.6362 51.0154 42.3857 50.832 42.1464C50.592 41.8224 49.296 40.1424 47.985 39.5904C47.985 39.5904 49.275 40.7004 49.197 41.4324C49.197 41.4324 48.663 41.1834 47.211 41.3904C40.968 42.2814 38.841 40.7184 38.841 40.7184C39.132 39.4674 38.259 38.1834 38.259 38.1834C38.739 38.3334 41.811 39.3714 44.724 38.7834C44.724 38.7834 39.981 38.8074 36.654 36.1524C36.654 36.1524 38.724 38.7474 38.232 40.4454C38.232 40.4454 37.893 42.2544 34.284 41.5254C33.897 41.4504 33.444 41.3214 28.044 39.8214C26.772 39.4404 26.334 40.0464 26.103 40.4124C26.103 40.9464 25.464 41.5704 25.149 41.7624C23.475 41.4624 24.141 39.9114 24.141 39.9114C23.091 41.4174 24.192 42.0834 24.54 42.1314C24.33 42.2304 24.135 42.3054 23.97 42.3654C23.97 42.3654 22.599 41.5524 23.364 40.2204C24.429 38.3604 25.515 37.7634 27.504 37.5804C28.374 37.4994 29.097 37.4364 29.649 37.5144C31.089 37.7124 31.995 38.5284 34.155 38.7354C29.571 37.3854 29.559 34.7304 29.544 34.6794V34.6764C29.289 35.5524 29.43 36.2904 29.655 36.9144C29.595 36.8904 28.59 36.2304 28.206 35.9994C26.562 34.9944 25.26 34.8174 25.26 34.8174C24.714 34.7484 24.462 34.0854 24.462 34.0854C24.432 34.0524 24.423 34.0194 24.402 33.9894C23.646 32.6934 22.896 32.6694 22.896 32.6694C23.1194 33.0033 23.2594 33.3861 23.304 33.7854C23.334 33.9504 23.346 34.2564 23.346 34.3464C23.346 35.7324 21.726 36.1674 21.726 36.1674C20.61 37.5864 20.667 37.6164 20.418 37.6524C20.169 37.6884 19.623 37.4124 19.623 37.4124C19.581 37.3884 19.569 37.3254 19.575 37.2864C19.575 37.1994 19.659 37.1454 19.659 37.1454C19.869 36.9804 20.04 36.8154 20.04 36.8154C21.222 35.6064 21.363 35.0154 21.219 34.2324C20.919 32.6604 19.797 32.8434 19.797 32.8434C19.251 32.8974 19.029 33.3474 19.029 33.3474C18.8153 33.7298 18.6201 34.1223 18.444 34.5234C18.204 35.0514 17.952 35.1684 17.823 35.1924C17.7584 35.2007 17.6931 35.2038 17.628 35.2014C17.247 35.1864 16.959 34.8384 16.959 34.8384C16.929 34.8204 16.929 34.7994 16.911 34.7844C16.563 34.4124 16.815 33.9234 16.815 33.9234C17.283 32.8344 18.195 32.6754 18.315 32.6604L18.861 32.5824C20.016 32.3874 20.562 31.1844 20.562 31.1844C20.1755 31.1734 19.7887 31.1875 19.404 31.2264C18.636 31.3614 18.375 32.2644 18.375 32.2614C17.727 32.4114 17.745 31.8534 17.859 31.6824C17.961 31.5264 18.339 30.8574 20.832 30.2814C20.832 30.2814 21.774 29.9964 23.766 30.0054ZM23.289 30.3654C22.689 30.3654 22.374 30.7014 22.374 30.7344C22.374 30.7524 22.455 30.7614 22.584 30.7644L22.794 30.7734C23.128 30.759 23.4551 30.6742 23.754 30.5244C23.8522 30.4842 23.9449 30.4318 24.03 30.3684L23.295 30.3624L23.289 30.3654ZM23.781 31.4544V31.4664C23.871 31.7094 24.105 31.7964 24.21 31.8264V31.8234C24.699 31.9734 25.137 32.2374 25.521 32.5464C24.351 31.8924 23.682 31.7634 23.637 31.7544C23.4785 31.7302 23.3213 31.6982 23.166 31.6584C23.3809 31.6137 23.5902 31.5453 23.79 31.4544H23.781ZM19.689 31.6044C19.689 31.6044 19.539 32.0844 18.948 32.1864C18.948 32.1864 18.717 32.2404 18.624 32.2434L18.687 32.0634C18.687 32.0274 18.84 31.6494 19.182 31.6134C19.182 31.6134 19.38 31.6044 19.689 31.6044ZM17.64 32.3034C17.6875 32.3597 17.7443 32.4074 17.808 32.4444C17.403 32.6154 16.353 33.7404 16.353 33.7404C16.884 32.9544 17.577 32.3664 17.583 32.3604C17.583 32.3514 17.613 32.3424 17.613 32.3334C17.613 32.3244 17.64 32.3124 17.64 32.3034ZM19.851 33.2484C19.965 33.2334 20.502 33.2124 20.751 34.0584C20.6641 33.8386 20.5189 33.6468 20.331 33.5034C20.2211 33.4271 20.0972 33.3733 19.9664 33.345C19.8357 33.3167 19.7006 33.3144 19.569 33.3384C19.654 33.2853 19.751 33.2544 19.851 33.2484ZM16.005 55.4424V58.0614C16.005 58.8264 15.837 59.3394 15.465 59.7114C14.97 60.1974 14.154 60.3954 12.945 60.3954H9V61.1634H13.284C15.315 61.1634 16.752 60.8874 17.499 60.1224C17.928 59.6844 18.135 59.1354 18.135 58.2324V55.4424H16.005ZM24.069 55.4424L19.11 61.1664H20.346L21.39 59.9484H27.702L28.752 61.1664H31.14L26.172 55.4454L24.069 55.4424ZM36.327 55.4424C34.878 55.4424 34.011 55.6104 33.237 56.0424C32.8351 56.2622 32.5016 56.5884 32.2729 56.9854C32.0443 57.3823 31.9295 57.8345 31.941 58.2924C31.941 59.4474 32.466 60.2904 33.612 60.7524C34.299 61.0314 35.208 61.1634 36.363 61.1634H42.528V58.5384H40.407V60.3984H37.008C35.91 60.3984 35.268 60.2394 34.797 59.8794C34.347 59.5344 34.11 59.0124 34.11 58.3044C34.11 57.6174 34.335 57.1044 34.755 56.7654C35.229 56.3814 35.85 56.2074 36.99 56.2074H42.312V55.4424H36.327ZM53.295 55.4424V58.2144C53.295 58.9344 53.205 59.3934 52.929 59.7744C52.467 60.4254 51.738 60.6594 50.241 60.6594H50.061C48.633 60.6594 47.838 60.4254 47.376 59.7774C47.103 59.3934 47.01 58.9584 47.01 58.2144V55.4454H44.88V58.2954C44.88 59.0334 44.961 59.6154 45.33 60.1044C45.936 60.8964 47.052 61.3524 50.13 61.3524H50.163C53.259 61.3524 54.369 60.8964 54.975 60.1044C55.347 59.6154 55.425 59.0334 55.425 58.2954V55.4454L53.295 55.4424ZM61.326 55.4424L56.364 61.1634H57.6L58.647 59.9454H64.956L66.006 61.1634H68.394L63.426 55.4424H61.326ZM70.284 55.4424V61.1664H72.414V59.1834H75.213L78.405 61.1634H81L77.649 59.1444C78.447 59.1174 79.128 58.9944 79.65 58.7154C79.9009 58.5759 80.1084 58.3699 80.2497 58.1201C80.391 57.8702 80.4607 57.5863 80.451 57.2994C80.451 56.5344 80.109 56.0454 79.488 55.7694C78.933 55.5294 78.249 55.4454 76.89 55.4454L70.284 55.4424ZM72.414 56.1624H76.611C77.409 56.1624 77.763 56.2404 78.006 56.4204C78.237 56.5944 78.321 56.8584 78.321 57.2694V57.3774C78.321 57.7464 78.231 58.0464 77.961 58.2354C77.691 58.4214 77.319 58.4604 76.638 58.4604H72.414V56.1624ZM24.54 56.2764L27.06 59.2074H22.026L24.54 56.2764ZM61.797 56.2764L64.317 59.2074H59.277L61.797 56.2764Z" fill="#7A7A7A"/>
</g>
<defs>
<filter id="filter0_i_319_2050" x="9" y="29" width="72" height="36.3525" filterUnits="userSpaceOnUse" color-interpolation-filters="sRGB">
<feFlood flood-opacity="0" result="BackgroundImageFix"/>
<feBlend mode="normal" in="SourceGraphic" in2="BackgroundImageFix" result="shape"/>
<feColorMatrix in="SourceAlpha" type="matrix" values="0 0 0 0 0 0 0 0 0 0 0 0 0 0 0 0 0 0 127 0" result="hardAlpha"/>
<feOffset dy="4"/>
<feGaussianBlur stdDeviation="2"/>
<feComposite in2="hardAlpha" operator="arithmetic" k2="-1" k3="1"/>
<feColorMatrix type="matrix" values="0 0 0 0 0 0 0 0 0 0 0 0 0 0 0 0 0 0 0.5 0"/>
<feBlend mode="normal" in2="shape" result="effect1_innerShadow_319_2050"/>
</filter>
</defs>
</svg>
