<svg width="90" height="90" viewBox="0 0 90 90" fill="none" xmlns="http://www.w3.org/2000/svg">
<rect width="90" height="90" rx="10" fill="white"/>
<path d="M45.4975 46.7584C45.409 46.7584 45.2394 46.6453 44.9518 46.1192C43.748 43.878 42.0952 41.9089 40.0966 40.3348C38.5281 39.1046 36.7869 38.1123 34.9292 37.3897C34.6476 37.2753 34.3649 37.1639 34.081 37.0554C31.5932 36.072 29.0144 35.0568 26.62 33.6702C26.3546 33.52 26.0923 33.3643 25.8333 33.2032C26.3102 32.3673 26.8658 31.5684 27.4804 30.8382C28.3723 29.7722 29.4092 28.8363 30.5607 28.0579C31.7971 27.2312 33.1337 26.5654 34.5383 26.0765C37.5325 25.0095 41.1192 24.4859 45.4975 24.481C49.8807 24.4859 53.465 25.0095 56.4592 26.0789C57.8649 26.5662 59.2024 27.2312 60.4393 28.0579C61.5972 28.8421 62.6321 29.7763 63.5196 30.8358C64.1342 31.5684 64.6873 32.3673 65.1667 33.2032C64.9135 33.3605 64.6455 33.5203 64.38 33.6752C61.9807 35.0617 59.4068 36.077 56.914 37.0578L56.0659 37.3922C54.2099 38.1153 52.4705 39.1077 50.9034 40.3372C48.9039 41.9114 47.251 43.8815 46.0482 46.1242C45.7606 46.6478 45.5885 46.7584 45.4975 46.7584ZM45.4975 64.1462C41.7019 64.1413 38.6191 63.8291 36.0821 63.1948C33.5918 62.5753 31.5219 61.6215 29.7495 60.2743C28.3908 59.231 27.2315 57.951 26.3275 56.4959C25.4805 55.1383 24.8113 53.6775 24.3362 52.1495C23.5953 49.7748 23.2085 47.3039 23.1882 44.8163C23.1882 43.1594 23.3037 41.5885 23.52 40.143C26.239 41.6082 28.8128 42.3433 31.0917 42.9947L31.6202 43.1422C34.7915 44.0542 37.3088 45.249 39.3271 46.8002C40.4948 47.7049 41.515 48.7497 42.3509 49.9075C43.258 51.1564 43.9807 52.5822 44.5068 54.1482C44.7428 54.8586 44.9985 55.2987 45.4975 55.2987C46.0064 55.2987 46.2547 54.8562 46.4932 54.1482C47.4315 51.2294 49.2386 48.6666 51.6729 46.8027C53.6887 45.249 56.2085 44.0542 59.3797 43.1422L59.9107 42.9947C62.1872 42.3433 64.761 41.6082 67.4775 40.143C67.6987 41.591 67.8118 43.1594 67.8118 44.8139C67.8118 45.9398 67.6987 48.9045 66.6687 52.1495C66.1939 53.6772 65.5256 55.1379 64.6799 56.4959C63.773 57.9519 62.6104 59.232 61.2481 60.2743C59.4707 61.6215 57.4008 62.5753 54.9203 63.1948C52.376 63.8291 49.2957 64.1413 45.4975 64.1462ZM69.3237 28.3627C64.6307 23.3231 57.0566 21.0123 45.4975 21C33.9434 21.0123 26.3692 23.3207 21.6763 28.3603C18.1879 32.0994 16 37.2742 16 44.2952C16 48.1769 16.9587 58.0618 24.7615 63.1653C29.4323 66.2186 35.4651 68.1951 45.4975 68.2098C55.5349 68.1951 61.5652 66.2186 66.2385 63.1653C74.0388 58.0618 75 48.1744 75 44.2952C75 37.2938 72.7949 32.0822 69.3213 28.3578L69.3237 28.3627Z" fill="#E51937"/>
</svg>
