<svg width="90" height="90" viewBox="0 0 90 90" fill="none" xmlns="http://www.w3.org/2000/svg">
<rect width="90" height="90" rx="10" fill="white"/>
<path d="M48.5417 26.2418H40.8873V41.688C39.9648 42.129 38.959 42.516 37.87 42.8377C37.2952 43.0034 36.7125 43.1401 36.124 43.2472V26.928C36.124 26.928 36.259 24.5858 34.9562 23.7938V23.5012H47.1827C47.7317 24.1695 48.2245 25.0695 48.5417 26.2418ZM50.6972 47.3715C56.2435 44.712 58.9143 40.032 58.9638 34.668C58.9975 31.0185 57.7105 28.7775 56.2705 27.585C56.1854 27.5148 56.0976 27.448 56.0072 27.3848C55.7137 26.115 55.2505 24.8905 54.6303 23.7442C54.8958 23.7825 55.141 23.8252 55.3592 23.8725C59.3823 24.7275 62.6155 27.1035 64.1455 31.689C65.392 35.4285 64.7867 40.068 62.1115 43.7873C61.4792 44.667 59.794 46.5458 57.859 47.9318C57.508 48.1838 57.2965 48.3232 56.9275 48.555C59.3507 52.4385 60.5455 54.6683 62.0913 58.905C63.4412 62.604 64.465 67.5225 64.6045 68.679C64.942 71.4308 65.7633 71.649 65.9523 71.7052V72H56.2885V71.7075C56.5855 71.55 59.1978 70.479 59.2113 66.3818C59.2248 63.3735 58.4912 60.0637 57.1548 56.3467C56.3419 54.1625 55.3819 52.0359 54.2815 49.9815L54.25 49.9342C53.6099 50.2112 52.9549 50.4523 52.288 50.6565C51.7863 49.4955 51.2755 48.4447 50.6972 47.3738V47.3715ZM40.8873 47.0475V49.5585C41.6185 49.527 43.9023 49.3425 45.9588 48.942C46.4245 49.995 46.8295 50.994 47.1085 51.7702L47.1468 51.8783C46.2273 52.0245 45.3046 52.149 44.3792 52.2517C43.2177 52.3773 42.0534 52.4756 40.8873 52.5465V68.769C40.8873 69.1267 40.9705 71.037 42.2147 71.7075V72H34.7965V71.7075C36.007 71.0708 36.124 69.1268 36.124 68.7713V47.9137C37.7276 47.7155 39.3164 47.4263 40.8873 47.0475ZM41.9155 20.8125L40.876 20.7968H31.2145V44.5905C32.173 44.5478 35.7437 44.2485 38.0815 43.5555C45.8777 41.2493 49.6015 35.7997 49.66 29.3962C49.6937 25.6725 48.382 23.3843 46.9105 22.1693C45.9947 21.411 44.782 21.0533 43.9 20.9227C43.405 20.8238 42.3025 20.8102 41.9155 20.8102V20.8125ZM26.3545 64.2533V21.4965C26.3545 21.4965 26.494 19.107 25.162 18.2993V18H41.6905C43.0697 18.0023 44.8743 18.1418 45.9813 18.3825C50.0853 19.2533 53.386 21.6765 54.9475 26.3565C56.2187 30.1725 55.6023 34.9065 52.873 38.7023C52.2273 39.6023 50.5105 41.5148 48.5305 42.9323C48.2217 43.1544 47.905 43.3653 47.581 43.5645C50.056 47.529 51.2732 49.8037 52.8527 54.1283C54.2297 57.9015 55.2738 62.9235 55.4178 64.1003C55.7575 66.9082 56.599 67.1917 56.7902 67.2503V67.5472H46.9307L46.9285 67.248C47.2345 67.086 49.8985 65.9362 49.912 61.7535C49.9278 58.6867 49.1785 55.3073 47.815 51.516C46.9844 49.2868 46.0034 47.1166 44.8787 45.0203L44.8472 44.9708C43.5377 45.567 40.7703 46.3748 38.9747 46.7145C37.69 46.9575 36.3872 47.1577 34.7785 47.3377C33.3767 47.4952 32.0178 47.5875 31.2145 47.6393V64.2533C31.2145 64.6155 31.3 66.5662 32.5712 67.2503V67.5472H25V67.2503C26.2352 66.5978 26.3545 64.6177 26.3545 64.2533Z" fill="#281432"/>
</svg>
