<svg width="90" height="90" viewBox="0 0 90 90" fill="none" xmlns="http://www.w3.org/2000/svg">
<rect width="90" height="90" rx="10" fill="white"/>
<g filter="url(#filter0_i_328_1351)">
<path d="M56.844 62.9888C48.1612 68.3775 44.7638 72 44.7638 72L18 53.3363C18 53.3363 29.2568 44.9775 38.6685 51.3787L51.291 60.1132L52.8278 59.094L18.0023 34.4722C18.0023 34.4722 23.0108 33.0098 32.6813 27.0135C41.3662 21.6202 44.7638 18 44.7638 18L71.5275 36.666C71.5275 36.666 60.2708 45.0248 50.8568 38.6235L38.2388 29.8822L36.702 30.9038L71.523 55.53C71.523 55.53 66.519 56.9903 56.844 62.9888Z" fill="#E30613"/>
</g>
<defs>
<filter id="filter0_i_328_1351" x="18" y="18" width="53.5273" height="58" filterUnits="userSpaceOnUse" color-interpolation-filters="sRGB">
<feFlood flood-opacity="0" result="BackgroundImageFix"/>
<feBlend mode="normal" in="SourceGraphic" in2="BackgroundImageFix" result="shape"/>
<feColorMatrix in="SourceAlpha" type="matrix" values="0 0 0 0 0 0 0 0 0 0 0 0 0 0 0 0 0 0 127 0" result="hardAlpha"/>
<feOffset dy="4"/>
<feGaussianBlur stdDeviation="2"/>
<feComposite in2="hardAlpha" operator="arithmetic" k2="-1" k3="1"/>
<feColorMatrix type="matrix" values="0 0 0 0 0 0 0 0 0 0 0 0 0 0 0 0 0 0 0.25 0"/>
<feBlend mode="normal" in2="shape" result="effect1_innerShadow_328_1351"/>
</filter>
</defs>
</svg>
