<svg width="90" height="90" viewBox="0 0 90 90" fill="none" xmlns="http://www.w3.org/2000/svg">
<rect width="90" height="90" rx="10" fill="white"/>
<g filter="url(#filter0_i_319_2023)">
<path d="M45 24C27.4928 24 14 32.8874 14 45C14 57.1126 27.4953 66 45 66C62.5047 66 76 57.1126 76 45C76 32.8874 62.5072 24 45 24ZM63.9462 33.8895C63.9462 36.6716 59.4899 38.8175 52.3522 39.6753C51.6805 33.0291 49.7559 28.6524 47.2811 27.0191C54.8968 27.4931 63.9462 30.18 63.9462 33.8895ZM45 56.3372C42.52 56.3372 40.4895 52.4731 40.3293 45.0309C41.8199 45.152 43.3777 45.2164 45 45.2164C46.6223 45.2164 48.1775 45.152 49.6681 45.0309C49.5105 52.4757 47.48 56.3372 45 56.3372ZM45 40.0875C43.4758 40.0875 42.0163 40.0385 40.6342 39.9484C41.3084 35.4969 43.0108 31.8338 45 31.8338C46.9892 31.8338 48.689 35.4969 49.3633 39.9484C47.9812 40.0359 46.5242 40.0875 45 40.0875ZM42.7215 27.014C40.2518 28.6446 38.3143 33.0239 37.6478 39.6753C30.5101 38.8175 26.0512 36.6716 26.0512 33.8895C26.0512 30.18 35.1033 27.4751 42.7215 27.014ZM19.2622 44.1757C19.2557 41.2381 20.2058 38.3779 21.9696 36.025C22.6671 40.0102 28.4847 43.4466 37.3972 44.7063V45C37.3972 54.7169 39.668 60.9793 42.7887 62.9551C29.5956 62.1282 19.2622 53.9904 19.2622 44.1757ZM47.2217 62.9551C50.3397 60.9793 52.6131 54.7169 52.6131 45V44.7038C61.5178 43.4466 67.3484 39.9999 68.0407 36.0224C69.8068 38.3752 70.7579 41.2368 70.7507 44.1757C70.7403 53.9904 60.3992 62.1282 47.2217 62.9551Z" fill="#EB0A1E"/>
</g>
<defs>
<filter id="filter0_i_319_2023" x="14" y="24" width="62" height="46" filterUnits="userSpaceOnUse" color-interpolation-filters="sRGB">
<feFlood flood-opacity="0" result="BackgroundImageFix"/>
<feBlend mode="normal" in="SourceGraphic" in2="BackgroundImageFix" result="shape"/>
<feColorMatrix in="SourceAlpha" type="matrix" values="0 0 0 0 0 0 0 0 0 0 0 0 0 0 0 0 0 0 127 0" result="hardAlpha"/>
<feOffset dy="4"/>
<feGaussianBlur stdDeviation="2"/>
<feComposite in2="hardAlpha" operator="arithmetic" k2="-1" k3="1"/>
<feColorMatrix type="matrix" values="0 0 0 0 0 0 0 0 0 0 0 0 0 0 0 0 0 0 0.5 0"/>
<feBlend mode="normal" in2="shape" result="effect1_innerShadow_319_2023"/>
</filter>
</defs>
</svg>
