<svg width="90" height="90" viewBox="0 0 90 90" fill="none" xmlns="http://www.w3.org/2000/svg">
<rect width="90" height="90" rx="10" fill="white"/>
<g filter="url(#filter0_i_319_2014)">
<path d="M45 18C30.06 18 18 30.06 18 45C18 59.94 30.06 72 45 72C59.94 72 72 59.94 72 45C72 30.06 59.94 18 45 18ZM45 21.1725C47.7 21.1725 50.31 21.6675 52.7175 22.5L45.2925 38.5425C45.2025 38.6325 45.2025 38.835 45 38.835C44.7975 38.835 44.7975 38.6325 44.7075 38.5425L37.2825 22.5C39.69 21.6675 42.3 21.195 45 21.195M33.525 24.165L42.12 42.6825C42.3 43.065 42.5025 43.1775 42.75 43.1775H47.25C47.52 43.1775 47.7 43.065 47.9025 42.6825L56.385 24.165C59.94 26.19 63 29.0925 65.16 32.5575L53.1 55.89C53.01 56.0925 52.875 56.1825 52.8075 56.1825C52.6275 56.1825 52.6275 56.0025 52.515 55.89L47.9025 45.675C47.7 45.2925 47.52 45.2025 47.25 45.2025H42.75C42.5025 45.2025 42.3 45.2925 42.0975 45.675L37.485 55.89C37.3725 56.0025 37.395 56.1825 37.1925 56.1825C36.99 56.1825 36.99 56.0025 36.9 55.89L24.75 32.5575C26.865 29.0925 29.97 26.19 33.525 24.165ZM22.635 37.1925L36.5175 64.1925C36.6975 64.575 36.9 64.8675 37.395 64.8675C37.8675 64.8675 38.0475 64.575 38.25 64.1925L44.7075 49.815C44.7975 49.635 44.91 49.5 45 49.5C45.2025 49.5 45.2025 49.725 45.2925 49.815L51.84 64.1925C52.0425 64.575 52.2225 64.8675 52.7175 64.8675C53.19 64.8675 53.3925 64.575 53.5725 64.1925L67.5 37.1925C68.3325 39.6 68.8275 42.21 68.8275 45C68.715 58.0275 58.0275 68.8275 45 68.8275C31.9725 68.8275 21.285 58.0275 21.285 45C21.285 42.3 21.7575 39.7125 22.635 37.1925Z" fill="#001E50"/>
</g>
<defs>
<filter id="filter0_i_319_2014" x="18" y="18" width="54" height="58" filterUnits="userSpaceOnUse" color-interpolation-filters="sRGB">
<feFlood flood-opacity="0" result="BackgroundImageFix"/>
<feBlend mode="normal" in="SourceGraphic" in2="BackgroundImageFix" result="shape"/>
<feColorMatrix in="SourceAlpha" type="matrix" values="0 0 0 0 0 0 0 0 0 0 0 0 0 0 0 0 0 0 127 0" result="hardAlpha"/>
<feOffset dy="4"/>
<feGaussianBlur stdDeviation="2"/>
<feComposite in2="hardAlpha" operator="arithmetic" k2="-1" k3="1"/>
<feColorMatrix type="matrix" values="0 0 0 0 0 0 0 0 0 0 0 0 0 0 0 0 0 0 0.5 0"/>
<feBlend mode="normal" in2="shape" result="effect1_innerShadow_319_2014"/>
</filter>
</defs>
</svg>
