<svg width="90" height="90" viewBox="0 0 90 90" fill="none" xmlns="http://www.w3.org/2000/svg">
<rect width="90" height="90" rx="10" fill="white"/>
<path d="M45 18C37.8392 18 30.9716 20.8446 25.9081 25.9081C20.8446 30.9716 18 37.8392 18 45C18 52.1608 20.8446 59.0284 25.9081 64.0919C30.9716 69.1554 37.8392 72 45 72C52.1608 72 59.0284 69.1554 64.0919 64.0919C69.1554 59.0284 72 52.1608 72 45C72 37.8392 69.1554 30.9716 64.0919 25.9081C59.0284 20.8446 52.1608 18 45 18ZM45 19.2825C59.2087 19.2825 70.7175 30.7913 70.7175 45C70.7175 59.1975 59.2087 70.7175 45 70.7175C30.8025 70.7175 19.2825 59.2065 19.2825 45C19.2825 30.8025 30.8025 19.2825 45 19.2825ZM45 19.809C44.775 19.809 44.5882 19.944 44.5095 20.1398L43.4025 23.6295C38.01 24.0315 32.9689 26.4576 29.2903 30.4212C25.6118 34.3847 23.568 39.5925 23.5687 45C23.5687 48.33 24.327 51.4912 25.6838 54.306L23.2088 57.0195C23.1468 57.104 23.1106 57.2046 23.1046 57.3093C23.0986 57.4139 23.1231 57.518 23.175 57.609C23.2304 57.6986 23.3102 57.7706 23.405 57.8164C23.4999 57.8622 23.6059 57.8801 23.7105 57.8677L27.2925 57.0735C29.2579 59.9585 31.8987 62.3193 34.9848 63.9507C38.071 65.582 41.5092 66.4343 45 66.4335C52.3575 66.4335 58.86 62.7165 62.7165 57.0735L66.2985 57.8677C66.4024 57.8776 66.5069 57.8566 66.599 57.8074C66.691 57.7581 66.7665 57.6829 66.816 57.591C66.8696 57.5004 66.8949 57.3958 66.8884 57.2907C66.882 57.1856 66.8442 57.0849 66.78 57.0015L64.305 54.306C65.7121 51.4059 66.44 48.2234 66.4335 45C66.4343 39.5925 64.3904 34.3847 60.7119 30.4212C57.0334 26.4576 51.9923 24.0315 46.5998 23.6295L45.4905 20.1308C45.4492 20.035 45.3806 19.9536 45.2935 19.8964C45.2063 19.8392 45.1043 19.8088 45 19.809ZM44.9932 20.3715C45.0473 20.3715 45.1013 20.4165 45.1193 20.4683L47.4142 28.0148C47.0798 28.2656 46.8082 28.5906 46.6208 28.9643C46.4334 29.3379 46.3353 29.75 46.3343 30.168C46.3343 31.0433 46.7617 31.8195 47.4142 32.31H47.4053C48.3862 33.0435 49.0208 34.2135 49.0208 35.5252V38.0452L58.7543 32.427L59.8253 34.2833L49.0208 40.5158V42.687L50.8973 43.767L61.7018 37.5255L62.7728 39.3818L53.0392 45.0068L55.2262 46.2668C56.3693 46.9282 57.0667 48.0623 57.2108 49.2773V49.2683C57.2608 49.6823 57.4067 50.0789 57.6367 50.4267C57.8668 50.7746 58.1747 51.064 58.5361 51.2721C58.8975 51.4802 59.3024 51.6012 59.7187 51.6256C60.135 51.65 60.5513 51.577 60.9345 51.4125L66.3188 57.1725C66.3638 57.2175 66.3638 57.2782 66.3368 57.33C66.3008 57.3862 66.2468 57.4043 66.1838 57.3953L58.5045 55.6087C58.4551 55.1954 58.3103 54.7992 58.0815 54.4515C57.8526 54.1037 57.546 53.814 57.1859 53.6051C56.8258 53.3962 56.4221 53.274 56.0066 53.248C55.5911 53.2221 55.1753 53.2931 54.792 53.4555L54.7987 53.4465C53.6737 53.9302 52.344 53.8942 51.1987 53.2327L49.0208 51.9728V63.2093H46.8787V50.733L45.0023 49.653L43.128 50.733V63.2093H40.9837V51.975L38.7967 53.2238C37.6537 53.8853 36.3218 53.9212 35.1968 53.4398L35.2057 53.4487C34.8223 53.2859 34.4063 53.2145 33.9905 53.2403C33.5748 53.266 33.1707 53.3882 32.8103 53.5971C32.4499 53.806 32.1431 54.0959 31.9141 54.4439C31.6851 54.7919 31.5403 55.1884 31.491 55.602L23.8117 57.3862C23.7845 57.3939 23.7554 57.3918 23.7295 57.3803C23.7036 57.3688 23.6826 57.3486 23.67 57.3232C23.634 57.2783 23.643 57.2175 23.688 57.1725L29.0813 51.4125C29.8305 51.7343 30.7238 51.7163 31.482 51.2685C32.2425 50.832 32.706 50.0805 32.805 49.2683V49.2773C32.9468 48.0623 33.6442 46.9283 34.785 46.269L36.9675 45.009L27.2318 39.393L28.305 37.5345L39.1095 43.776L40.9837 42.687V40.518L30.1793 34.2855L31.2502 32.427L40.9837 38.043V35.5275C40.9837 34.2157 41.6182 33.0457 42.6015 32.3123H42.5925C43.245 31.8308 43.6635 31.0522 43.6635 30.1702C43.6635 29.286 43.236 28.5098 42.5835 28.017L44.8785 20.4727C44.8965 20.4097 44.9482 20.3715 44.9932 20.3715ZM45.0023 33.651C44.5052 33.651 44.0284 33.8485 43.677 34.2C43.3255 34.5514 43.128 35.0282 43.128 35.5252V39.2827L45 40.365L46.8743 39.285V35.5252C46.8743 35.0282 46.6768 34.5514 46.3253 34.2C45.9738 33.8485 45.4971 33.651 45 33.651H45.0023ZM45.0023 42.84L43.128 43.92V46.089L45.0023 47.16L46.8765 46.08V43.92L45.0023 42.84ZM39.1072 46.251L35.8582 48.1252C35.6443 48.2481 35.4566 48.412 35.3061 48.6076C35.1557 48.8031 35.0453 49.0264 34.9813 49.2648C34.9173 49.5031 34.901 49.7517 34.9334 49.9963C34.9657 50.2409 35.046 50.4767 35.1698 50.6903C35.3339 50.9755 35.5712 51.2119 35.8572 51.3748C36.1431 51.5378 36.4674 51.6215 36.7965 51.6172C37.125 51.6178 37.4479 51.5316 37.7325 51.3675L40.9837 49.491V47.331L39.1072 46.251ZM50.904 46.251L49.0298 47.331V49.5L52.281 51.3765C52.7118 51.6188 53.2208 51.6814 53.6974 51.5506C54.174 51.4199 54.5798 51.1064 54.8267 50.6782C55.0735 50.25 55.1415 49.7417 55.0157 49.2637C54.89 48.7857 54.5808 48.3766 54.1553 48.1252L50.904 46.251Z" fill="#E60012"/>
</svg>
