<svg width="90" height="90" viewBox="0 0 90 90" fill="none" xmlns="http://www.w3.org/2000/svg">
<rect width="90" height="90" rx="10" fill="white"/>
<path d="M43.5662 33C41.993 33.1304 40.4461 33.4839 38.9721 34.0499C38.5682 34.2043 38.1427 34.4668 37.6956 34.2939C35.6791 33.8214 33.5917 33.9974 31.5536 34.2167C28.905 34.4946 26.2502 34.2074 23.6017 34.0777C21.1864 33.9972 18.7686 34.0487 16.3589 34.2321C14.1605 34.368 11.9528 34.2012 9.76675 33.9665C9.49542 33.9604 9.21792 33.9048 8.94967 33.9604C8.53342 34.2321 8.27133 34.6768 8 35.0813V35.2913C8.57042 35.7792 9.24567 36.1004 9.92708 36.3968C9.73592 36.8631 9.61567 37.3541 9.52625 37.8482C10.3403 38.2311 11.1912 38.5492 11.9806 38.9846C11.8912 39.2779 11.7586 39.5589 11.7247 39.8646C11.7062 40.0468 11.7987 40.2383 11.9806 40.3031C12.6281 40.6428 13.3619 40.7416 14.031 41.0134C14.0957 41.0443 14.1852 41.0751 14.1852 41.1616C14.2376 41.5569 14.2468 41.9583 14.3301 42.3505C14.3811 42.3976 14.4408 42.4343 14.5058 42.4586C15.3907 42.7519 16.3188 42.8631 17.2222 43.0638C17.3271 43.4035 17.2901 43.8327 17.5491 44.1014C18.7053 44.7066 20.0774 44.4102 21.2892 44.8055C21.5913 45.1019 21.5204 45.701 21.9767 45.8677C22.8894 46.1457 23.8699 45.8986 24.8073 46.0221C25.02 46.2661 25.0447 46.6181 25.2512 46.8652C25.3883 47.0076 25.575 47.0917 25.7723 47.0998C26.6572 47.1245 27.5052 46.8312 28.3808 46.7293C28.5627 47.035 28.6491 47.492 29.0376 47.5847C29.7437 47.7236 30.4312 47.455 31.088 47.2265C31.3347 48.0293 31.5998 48.8353 32.0222 49.5672C33.4807 52.2167 35.9936 54.1961 38.7994 55.2522C39.1941 55.3634 39.3298 55.7926 39.5333 56.1045C39.9248 55.9563 40.3102 55.7895 40.7173 55.6907L41.3339 56.6078C41.7008 56.4225 42.0647 56.2311 42.4316 56.0396C42.6782 56.3299 42.9249 56.6171 43.1777 56.9043L44.1336 56.2249C44.4111 56.4658 44.667 56.7313 44.9167 57H45.0247C45.3207 56.7375 45.6012 56.4534 45.8942 56.1879C46.221 56.4256 46.5417 56.6696 46.8685 56.9135C47.1182 56.6202 47.3711 56.3268 47.627 56.0365C47.997 56.2218 48.3608 56.4164 48.7277 56.6047C48.922 56.3021 49.1101 55.9995 49.2982 55.6938C49.7298 55.7895 50.1307 55.9686 50.5438 56.1137C50.6456 55.9038 50.7442 55.6876 50.8583 55.4838C51.0217 55.0453 51.5367 54.9774 51.8943 54.7674C54.8913 53.387 57.3827 50.7962 58.3662 47.6094C58.8657 47.7946 59.43 48.0232 59.9603 47.807C60.2378 47.665 60.3457 47.3623 60.4783 47.1029C61.2183 47.2666 61.9583 47.5785 62.7292 47.4179C63.13 47.2975 63.3273 46.9207 63.5093 46.5811C64.2184 46.6737 64.9152 46.8744 65.6367 46.8127C65.9574 46.7725 66.3983 46.8127 66.6172 46.5162C66.7992 46.2198 66.8238 45.8523 66.9996 45.5528C67.9708 45.4231 68.9976 45.6825 69.9411 45.3304C70.2371 44.9969 70.2402 44.4967 70.5084 44.1477C71.27 44.0921 72.0347 44.1477 72.7962 44.0921C72.9281 44.0826 73.0562 44.0436 73.1709 43.9778C73.2856 43.9121 73.3842 43.8213 73.4592 43.7123C73.6318 43.3819 73.6565 43.0021 73.7675 42.65C73.7891 42.5759 73.8292 42.4956 73.9032 42.4617C74.6462 42.1529 75.5497 42.3937 76.2311 41.9151C76.5641 41.5445 76.2958 40.9578 76.5024 40.5471C77.1407 40.1827 77.9732 40.2753 78.5652 39.8029C78.9629 39.4632 78.6638 38.9321 78.6083 38.5059C79.3021 38.2681 80.0637 38.1384 80.6341 37.6444C80.4737 37.212 80.2857 36.7952 80.1099 36.3721C80.7648 36.075 81.3966 35.7292 82 35.3376V35.069C81.7881 34.6698 81.5037 34.3137 81.1613 34.019C80.9424 33.8554 80.6372 33.9882 80.3905 33.9635C78.2445 34.1549 76.0862 34.3649 73.9309 34.2476C72.6452 34.1796 71.3625 34.0561 70.0767 34.0561C68.4672 34.0561 66.8577 34.0098 65.2544 34.1395C62.8802 34.2815 60.4937 34.4575 58.1227 34.192C56.0969 33.9542 54.0064 33.8369 52.0146 34.3556C51.697 34.4884 51.364 34.3834 51.0742 34.2414C49.4832 33.5188 47.7534 33.1668 46.0237 33H43.5662ZM45.1727 33.4786C46.1809 33.5219 47.1892 33.63 48.1758 33.8554C49.1317 34.0777 50.0937 34.3155 50.9817 34.7416C50.6641 34.9424 50.2817 35.2481 49.8902 35.0813C48.1909 34.4807 46.4011 34.1778 44.5992 34.1858C43.594 34.2476 42.5888 34.3278 41.6083 34.5718C40.9793 34.6953 40.375 34.93 39.7398 35.0319C39.4438 34.9516 39.1725 34.8065 38.9012 34.6644C40.901 33.886 43.0271 33.484 45.1727 33.4786ZM80.5293 34.3371C81.0534 34.3062 81.4789 34.7262 81.7472 35.14C80.7047 35.6727 79.5472 35.94 78.3771 35.9182C73.2896 36.0015 68.2082 36.2115 63.1238 36.3412C63.1238 36.4246 63.13 36.508 63.1362 36.5914C63.0822 36.4343 63.0328 36.2757 62.9882 36.1158C64.1012 35.9614 65.2082 35.7452 66.3336 35.6773C68.3932 35.5229 70.4652 35.4673 72.5311 35.4457C72.8006 35.4576 73.0663 35.3794 73.2865 35.2234C71.6431 35.0473 69.9873 35.1431 68.3408 35.1832C67.1969 35.2666 66.0468 35.2851 64.906 35.4303C63.3797 35.6155 61.8566 35.9058 60.3149 35.9243C59.3529 35.9398 58.3878 36.0232 57.4258 35.9552C56.2233 35.9336 55.0023 35.8255 53.8183 36.0942C53.4853 36.2023 53.0814 36.3196 52.9488 36.6871C52.6621 37.2676 52.9797 37.9161 53.2417 38.4442C53.5593 39.1143 54.102 39.7566 54.0033 40.5502C53.9571 40.8312 53.7197 41.0165 53.5038 41.177C53.2834 40.9326 53.0794 40.6736 52.8933 40.402C53.0167 40.1549 53.2202 39.9233 53.1647 39.6238C53.0629 39.0062 52.6158 38.5183 52.1965 38.0859C51.5922 37.4992 50.92 36.9526 50.5099 36.2023C50.3897 35.9861 50.3064 35.6773 50.5377 35.5013C51.216 35.0196 52.0516 34.8559 52.8563 34.7231C55.0609 34.4143 57.284 34.6768 59.4948 34.7694C60.5832 34.8775 61.6808 34.8621 62.7723 34.7694C65.3562 34.6027 67.9523 34.3433 70.5423 34.5162C71.7078 34.5811 72.8764 34.6336 74.0419 34.6613C76.1756 34.7478 78.2969 34.4699 80.4244 34.3495C80.4591 34.3434 80.4941 34.3393 80.5293 34.3371ZM9.69583 34.3464C10.3002 34.3402 10.9045 34.4297 11.5057 34.4699C13.1769 34.6181 14.8542 34.7138 16.5316 34.6428C18.6097 34.6181 20.6787 34.3711 22.7568 34.4822C24.8751 34.5502 26.981 34.7849 29.1023 34.8497C30.7211 34.7941 32.3368 34.6644 33.9555 34.5903C35.5989 34.5378 37.3071 34.5564 38.858 35.1678C39.1571 35.2913 39.5271 35.455 39.598 35.807C39.5363 36.2949 39.1663 36.6716 38.8642 37.0391C38.3246 37.7061 37.5414 38.1508 37.1067 38.9074C36.7675 39.3397 36.7182 39.9882 37.0913 40.4143C36.8893 40.6844 36.6633 40.9355 36.416 41.1647C36.1601 40.93 35.9227 40.6397 35.9535 40.263C36.0707 39.1945 37.0234 38.4318 37.1344 37.3603C37.23 36.9866 37.0388 36.6222 36.8014 36.3505C36.3528 36.1222 35.861 35.9917 35.3584 35.9676C33.6256 35.8194 31.8866 36.051 30.1507 35.946C28.4332 35.9583 26.7374 35.6588 25.0416 35.4303C22.873 35.2354 20.6975 35.1262 18.5203 35.1029C17.9191 35.0937 17.3178 35.1493 16.7166 35.2017C16.9108 35.3623 17.1483 35.4704 17.4103 35.4426C19.6704 35.4735 21.9305 35.5105 24.1844 35.7051C25.131 35.7946 26.0652 35.9645 27.0087 36.1096L26.9378 36.369C25.2852 36.2671 23.6263 36.2826 21.9706 36.2146C18.9952 36.1065 16.0197 36.0139 13.0443 35.9645C11.7771 35.8811 10.4513 36.017 9.2395 35.5507C8.90033 35.4364 8.58275 35.2789 8.26208 35.1307C8.49642 34.8435 8.73383 34.5162 9.09458 34.3896C9.295 34.3587 9.49542 34.3464 9.69583 34.3464ZM45.0154 34.6984C46.6997 34.6888 48.3705 34.999 49.9395 35.6125C49.9518 35.9336 49.8501 36.2856 50.0135 36.579C50.1509 36.8325 50.3164 37.0697 50.5068 37.2862C51.0618 37.9408 51.771 38.4689 52.3198 39.1297C52.5413 39.3703 52.7066 39.6572 52.8039 39.9696C51.6682 38.9418 50.3404 38.1494 48.8973 37.6382C47.3061 37.0813 45.6147 36.8704 43.9357 37.0195C42.2567 37.1686 40.6287 37.6743 39.1602 38.5028C38.6237 38.8055 38.1365 39.1822 37.6617 39.5775L37.193 39.9727C37.2302 39.8125 37.2927 39.6593 37.378 39.5188C38.0656 38.5461 39.0923 37.8729 39.7861 36.9063C40.1253 36.4956 40.0944 35.949 40.042 35.455C41.6536 34.9591 43.3295 34.7042 45.0154 34.6984ZM62.7816 36.1034C62.8309 36.2393 62.8741 36.3752 62.9173 36.5111C61.9522 37.0669 60.7959 36.9279 59.7352 36.789C59.4947 36.7674 59.3529 36.5605 59.2573 36.3598C60.429 36.2331 61.6099 36.2424 62.7816 36.1034ZM27.1691 36.1529C28.3592 36.1714 29.5463 36.2301 30.7272 36.3505C30.6347 36.508 30.5608 36.7334 30.3511 36.7581C29.7252 36.8662 29.0869 36.8847 28.4579 36.9094C27.9707 36.9403 27.5237 36.718 27.1012 36.5111L27.1691 36.1529ZM30.8907 36.3227C31.3655 36.332 31.8434 36.3381 32.3182 36.3659C33.5824 36.4184 34.8805 36.3165 36.1107 36.6902C36.416 36.7952 36.7521 36.9372 36.9093 37.2398C37.0296 37.771 36.7243 38.2434 36.4653 38.6727C36.2094 39.139 35.8579 39.5775 35.7407 40.1055C35.5927 40.5996 35.8949 41.0134 36.1231 41.4117C35.7778 41.4241 35.3522 41.5692 35.0809 41.2882C34.9545 41.035 35.1025 40.7355 35.1549 40.4761L34.6616 40.9177L34.0603 40.8806C34.0141 40.2537 34.4951 39.7998 34.7418 39.2717C34.3162 39.6516 33.8846 40.1889 33.2525 40.1395C33.0027 40.1487 32.8116 39.8183 32.9657 39.6176C33.308 39.1822 33.752 38.8332 34.0727 38.3762C33.6903 38.6727 33.3018 38.9784 32.8486 39.1513C32.5104 39.2361 32.153 39.1944 31.8434 39.034C31.8989 38.404 32.5649 38.1817 32.9226 37.7463C32.531 37.9099 32.1826 38.2218 31.7293 38.194C31.5505 38.2002 31.3747 38.1446 31.2052 38.1045C31.1743 37.5703 31.7324 37.3819 32.0469 37.0638C31.7694 37.1256 31.5012 37.2553 31.2144 37.2491C31.0232 37.1812 30.8752 37.0268 30.7087 36.9156C30.755 36.7118 30.8167 36.5142 30.8937 36.3227H30.8907ZM59.1217 36.3227C59.1772 36.5636 59.3899 36.8724 59.1063 37.0546C58.7979 37.4406 58.2799 37.1225 57.9037 37.0484C58.2491 37.3448 58.7825 37.5641 58.7794 38.1076C58.4834 38.1601 58.1627 38.262 57.8698 38.1384C57.5985 38.0273 57.3364 37.8883 57.0712 37.7617C57.1545 37.8451 57.2408 37.9254 57.3302 38.0026L57.5985 38.2373C57.7743 38.3948 57.9469 38.5584 58.0918 38.7437C58.1412 38.9537 57.9901 39.176 57.765 39.1729C57.0466 39.3551 56.4854 38.7808 55.9643 38.3886C56.2388 38.7622 56.5656 39.0865 56.8801 39.4231C57.0373 39.5898 57.0219 39.8399 57.0774 40.0499C56.8184 40.0839 56.5409 40.1858 56.2881 40.0746C55.8934 39.914 55.5943 39.596 55.2706 39.3242C55.5512 39.8183 55.9797 40.2661 55.9366 40.8744L55.2952 40.8991C55.1532 40.7646 55.0123 40.6287 54.8728 40.4915C54.8975 40.7447 55.0578 41.035 54.8944 41.2635C54.7032 41.4797 54.4072 41.4642 54.1359 41.4581C54.0434 41.4581 53.954 41.4581 53.8707 41.4673C54.0157 41.0998 54.3024 40.7818 54.2932 40.368C54.1822 39.2872 53.1893 38.5553 53.0413 37.49C53.0105 37.0298 53.5162 36.8168 53.8831 36.684C55.5912 36.2362 57.3734 36.4586 59.1217 36.3227ZM10.1522 36.3289C12.5263 36.3289 14.9005 36.4524 17.2747 36.474C20.2439 36.5389 23.2132 36.5605 26.1793 36.6377C26.796 36.5944 27.3047 36.9959 27.8135 37.2769L27.758 37.8636C27.6669 37.9087 27.5755 37.953 27.4836 37.9964L27.5637 37.771C24.7918 37.8451 22.0261 38.0335 19.2542 38.1168C17.509 38.1539 15.77 38.3021 14.0217 38.2712C12.9177 38.3111 11.8137 38.1904 10.7442 37.913C10.3896 37.808 9.98258 37.7524 9.702 37.49C9.69892 37.0731 9.93017 36.6747 10.1522 36.3289ZM79.8972 36.3968C80.0945 36.7396 80.3042 37.0823 80.4491 37.4529C79.1232 37.8852 77.7049 37.8636 76.3297 37.8111C73.7767 37.8049 71.2238 37.6413 68.6707 37.5548C66.5155 37.456 64.3602 37.3695 62.205 37.246C62.6459 36.931 63.1454 36.6222 63.7035 36.6408C69.1024 36.6191 74.4983 36.403 79.8972 36.3968ZM30.3387 37.0576C30.5762 37.0731 30.7581 37.2862 30.9369 37.4282C30.9892 37.4713 31.0305 37.5263 31.0573 37.5886C31.0841 37.6509 31.0957 37.7187 31.0911 37.7864C30.8506 37.9717 30.533 37.9964 30.2493 38.0705C29.6758 38.1755 29.1085 38.3484 28.5227 38.37C28.3161 38.2898 28.091 38.2002 27.9522 38.0118C27.9029 37.7524 27.9831 37.3942 28.2729 37.3263C28.9204 37.1966 29.5833 37.1595 30.2339 37.0638C30.2685 37.0575 30.3037 37.0554 30.3387 37.0576ZM59.5225 37.0823C60.2471 37.0823 60.9717 37.175 61.6808 37.3078C62.0169 37.3726 62.0077 37.771 62.094 38.0304C61.8165 38.1848 61.5482 38.4318 61.1998 38.3608C60.6973 38.2836 60.2039 38.157 59.7044 38.0643C59.4362 37.9964 59.1278 37.9748 58.9089 37.7864C58.9243 37.4529 59.2666 37.2398 59.5256 37.0823H59.5225ZM44.7687 37.5085C47.5684 37.4467 50.4482 38.404 52.4617 40.3958C53.5655 41.5229 54.3733 43.0391 54.3487 44.648C54.3795 46.0993 53.7351 47.5075 52.7854 48.5821C51.0402 50.5646 48.4225 51.6176 45.8294 51.8121C43.4872 52.0107 41.143 51.4545 39.1386 50.2249C38.0748 49.5455 37.1036 48.6809 36.4653 47.5754C35.6973 46.3136 35.4465 44.8031 35.7654 43.3603C36.0707 42.0787 36.8631 40.9701 37.8251 40.0962C39.5672 38.5214 41.8889 37.703 44.2076 37.5332C44.3926 37.5208 44.5807 37.5147 44.7687 37.5085ZM62.1587 37.5795C62.8309 37.5641 63.5 37.6567 64.1722 37.6876C68.6122 37.9593 73.0583 38.1199 77.4983 38.3793C77.7851 38.4225 78.1088 38.367 78.3709 38.5121C78.5467 38.7684 78.5929 39.0834 78.6392 39.386C77.708 39.9573 76.5487 39.8183 75.5096 39.8461C74.1992 39.7597 72.8887 39.5991 71.5814 39.4725C71.1451 39.4294 70.7083 39.3924 70.271 39.3613C67.5823 39.0926 64.8844 38.9321 62.2081 38.5646C62.2275 38.2344 62.211 37.903 62.1587 37.5764V37.5795ZM45.037 37.6104C44.6793 37.6104 44.3278 37.6258 43.9732 37.6598C41.4912 37.8976 38.9567 38.8641 37.3102 40.8096C36.3605 41.8842 35.713 43.3078 35.8178 44.7684C35.8733 46.8497 37.1992 48.6994 38.8549 49.8636C41.5806 51.772 45.1973 52.1796 48.3485 51.2223C49.7668 50.7622 51.1327 50.0489 52.1872 48.9774C53.5069 47.6989 54.3887 45.8369 54.1452 43.9686C53.9447 42.44 53.066 41.0628 51.9159 40.0623C50.0351 38.4071 47.5222 37.6073 45.037 37.6104ZM26.7991 38.1508C26.981 38.1508 27.1629 38.1508 27.3479 38.157C27.8042 38.2867 28.1157 38.6727 28.4548 38.9784C28.3716 39.2162 28.3007 39.457 28.2328 39.701C28.4548 39.877 28.6922 40.0345 28.942 40.1642C27.3479 40.4236 25.7662 40.7602 24.1813 41.0659L22.7507 41.3809L21.3169 41.6835C20.3611 41.878 19.4022 42.0633 18.4371 42.2208C17.1883 42.4431 15.8841 42.3752 14.6693 42.0077C14.3208 41.9089 14.2345 41.5075 14.3763 41.1987C14.4288 40.8899 14.8111 40.9207 15.0392 40.8744C18.9736 40.473 22.8956 39.9635 26.8176 39.4941C27.3664 39.4354 27.9893 39.4231 28.3901 38.9907C26.2287 39.1884 24.0672 39.4292 21.9089 39.6701L18.6683 40.019C17.5892 40.1302 16.5069 40.2352 15.4247 40.3278C14.2098 40.4514 12.9518 40.334 11.8172 39.8554C11.928 39.5026 12.0769 39.163 12.2612 38.8425C16.5562 38.648 20.8606 38.5584 25.1495 38.2403C25.6983 38.2156 26.2472 38.1631 26.7991 38.1508ZM30.6717 38.3484C30.7977 38.3429 30.9238 38.3512 31.0479 38.3731C31.3069 38.4503 31.5474 38.58 31.7879 38.6974C31.7602 39.105 31.3624 39.21 31.0541 39.352C30.6687 39.5095 30.2925 39.6917 29.8978 39.8245C29.3983 39.9851 28.8958 39.738 28.4363 39.5558C28.498 39.3459 28.5227 39.1112 28.6522 38.929C28.9333 38.7525 29.2433 38.6271 29.5679 38.5584C29.9287 38.4658 30.2987 38.3608 30.6717 38.3484ZM59.1864 38.3484C59.7322 38.3361 60.2656 38.5152 60.7805 38.6758C60.9778 38.756 61.2245 38.7869 61.3725 38.9599C61.4712 39.1451 61.4958 39.3613 61.5698 39.5528C61.1197 39.7164 60.6387 40.0005 60.1453 39.8399C59.4822 39.5938 58.8319 39.3145 58.1967 39.0031C58.2522 38.6233 58.6191 38.4472 58.9521 38.367C59.0298 38.3566 59.108 38.3504 59.1864 38.3484ZM61.9213 38.8796C62.6582 38.8672 63.3828 39.0062 64.1136 39.0834C66.4507 39.3459 68.791 39.6022 71.1312 39.843C72.8055 40.053 74.4921 40.1765 76.1632 40.4297C76.2033 40.7602 76.5517 41.3932 76.0615 41.5105C74.9192 41.6931 73.7574 41.719 72.6082 41.5878C68.9637 41.0196 65.3315 40.3711 61.6808 39.8399C61.6673 39.5232 61.6426 39.207 61.6068 38.8919C61.7117 38.8857 61.8165 38.8796 61.9213 38.8796ZM45.3423 39.2223C46.1223 39.2254 46.8962 39.3212 47.6486 39.5404C48.5181 39.7998 49.3999 40.2383 49.8994 41.0288C50.2417 41.5229 50.2817 42.1652 50.1677 42.7396C49.995 43.4375 49.3568 43.8667 48.8048 44.2589L48.8172 44.3886C49.6342 44.9475 50.5253 45.7288 50.4976 46.8127C50.5747 47.597 50.1584 48.332 49.5942 48.8415C49.1964 49.1441 48.7617 49.4066 48.293 49.5857C46.9672 50.0458 45.5427 50.1045 44.1552 50.0118C42.4532 49.7988 40.671 49.3201 39.4161 48.0757C39.6319 47.7854 39.9094 47.5507 40.1068 47.2481C40.1708 45.5864 40.1769 43.923 40.1252 42.2609C39.9217 41.9552 39.6412 41.7144 39.413 41.4272C40.2578 40.2692 41.67 39.7442 43.0205 39.4508C43.7821 39.3057 44.5622 39.2192 45.3423 39.2223ZM58.1782 39.4169C58.2676 39.4169 58.357 39.42 58.4433 39.4416C58.9644 39.6423 59.467 39.8863 59.9665 40.1364C60.0775 40.2105 60.244 40.2476 60.2933 40.3896C60.3057 40.6366 60.1885 40.9084 59.9449 40.9979C59.5903 41.1462 59.1648 41.2388 58.8041 41.0721C58.2152 40.8127 57.6787 40.4483 57.1267 40.124C57.1792 39.9943 57.2038 39.8307 57.2933 39.7226C57.3252 39.6859 57.3653 39.6574 57.4104 39.6392C57.6473 39.5105 57.9092 39.4347 58.1782 39.4169ZM31.7756 39.4169C32.0754 39.4211 32.3689 39.5042 32.6266 39.6577C32.827 39.7535 32.8702 40.0901 32.679 40.2136C32.1795 40.5533 31.6553 40.8621 31.0942 41.0813C30.6532 41.2265 30.2092 41.0597 29.7992 40.9177L29.6758 40.3186C30.1938 40.0468 30.7242 39.7844 31.2607 39.5466C31.4193 39.4623 31.596 39.4178 31.7756 39.4169ZM45.2497 39.948C44.9593 39.9473 44.669 39.9627 44.3802 39.9943C43.9625 40.0407 43.5715 40.2229 43.2672 40.5131C42.7646 41.035 42.7245 41.8163 42.8201 42.4925C42.8446 42.8256 42.9643 43.1445 43.165 43.4112C43.3656 43.6779 43.6388 43.881 43.9517 43.9964C44.6701 44.2404 45.4625 44.228 46.1871 44.0273C46.9702 43.7648 47.3649 42.9094 47.3464 42.1312C47.3865 41.4735 47.2231 40.7046 46.6342 40.3217C46.219 40.0649 45.7375 39.9329 45.2497 39.948ZM61.5513 40.2105C62.3838 40.229 63.2163 40.3711 64.0365 40.5162C66.6049 40.9794 69.1733 41.4457 71.7387 41.9305C72.3862 42.0633 73.0429 42.1745 73.6812 42.3567C73.5948 42.7427 73.5486 43.3448 73.0583 43.4189C71.4766 43.6197 69.8887 43.2645 68.3717 42.8415C65.8618 42.1621 63.3242 41.563 60.8175 40.8652C60.6667 40.8315 60.5113 40.8242 60.3581 40.8435C60.3982 40.683 60.4105 40.5131 60.4876 40.368C60.6849 40.2198 60.9593 40.229 61.1937 40.2136L61.5513 40.2105ZM29.5247 40.3803C29.6111 40.7324 29.6851 41.0875 29.8238 41.421C27.869 42.0232 25.9172 42.6253 23.9532 43.1873C22.911 43.4869 21.8873 43.876 20.8082 44.0211C19.8338 44.1076 18.8348 44.0612 17.8852 43.8173C17.4967 43.7123 17.3918 43.2923 17.3826 42.9403C20.1267 42.3443 22.8617 41.7082 25.6151 41.1585C26.9162 40.896 28.202 40.5317 29.5247 40.3803ZM56.9572 40.5378C57.1567 40.534 57.3507 40.6032 57.5029 40.7324C57.9654 41.0381 58.4187 41.35 58.8843 41.6464C58.8648 41.6889 58.8503 41.7334 58.8411 41.7792L58.8102 41.9243C58.7825 42.0232 58.7455 42.1127 58.6561 42.1621C58.2553 42.2054 57.8267 42.2949 57.4351 42.1436C56.9909 41.8584 56.5811 41.5227 56.2141 41.1431C56.0722 41.0226 56.0877 40.7849 56.2079 40.6552C56.2494 40.612 56.3033 40.5828 56.3621 40.5718C56.5502 40.5625 56.7567 40.5286 56.9572 40.5378ZM33.1754 40.5378C33.3327 40.5378 33.4899 40.5502 33.6441 40.5687C33.8568 40.6212 34.0017 40.9454 33.789 41.0906C33.308 41.5723 32.8085 42.1837 32.0716 42.2177C31.8249 42.2146 31.5782 42.2239 31.3377 42.1714C31.162 42.054 31.1774 41.8008 31.1188 41.6279C31.6523 41.2882 32.161 40.9146 32.7098 40.5996C32.861 40.5605 33.0162 40.5397 33.1723 40.5378H33.1754ZM60.4845 41.1678C60.984 41.2203 61.4588 41.3839 61.9429 41.5013C64.3047 42.1961 66.6697 42.8816 69.0284 43.5826C69.4693 43.7154 69.9195 43.8266 70.3419 44.0087C70.2247 44.3021 70.1138 44.6356 69.8393 44.8178C68.7095 45.0521 67.5374 44.9753 66.4477 44.5955C65.6152 44.2774 64.8227 43.876 64.0057 43.527C62.5257 42.894 61.0518 42.2331 59.5502 41.6433C59.8678 41.4982 60.1515 41.2697 60.4845 41.1678ZM55.6652 41.2913C55.989 41.2913 56.2511 41.5507 56.4854 41.7483C56.7074 41.9707 57.0003 42.1529 57.1391 42.4431C57.1853 42.7056 56.9695 42.9341 56.8955 43.1688C56.5748 43.107 56.174 43.2306 55.915 42.965C55.5194 42.6134 55.184 42.1993 54.9222 41.7391C54.8728 41.4735 55.1781 41.3129 55.4247 41.3037L55.5234 41.3067C55.5699 41.2962 55.6175 41.291 55.6652 41.2913ZM34.418 41.3037C34.6741 41.3164 34.9208 41.4045 35.1272 41.5569C34.8703 42.0878 34.5144 42.5647 34.0788 42.9619C33.8507 43.2398 33.4622 43.1935 33.1538 43.1009C32.9596 42.9557 32.8887 42.6994 32.7715 42.4956C33.1507 42.1034 33.5115 41.6866 33.9709 41.387C34.1114 41.3248 34.2645 41.2962 34.418 41.3037ZM30.3295 41.6742C30.4405 41.6692 30.5517 41.6712 30.6625 41.6804C30.977 41.7267 31.0171 42.0973 31.1342 42.335C30.5854 42.5203 30.0828 42.8075 29.5679 43.0638C28.2297 43.7061 26.9255 44.4071 25.5904 45.0556C24.6808 45.5373 23.6078 45.457 22.6119 45.4663C22.3344 45.4385 22.023 45.4663 21.7794 45.3057C21.6191 45.0988 21.5512 44.8363 21.4711 44.5893C22.2265 44.2064 23.0621 44.0335 23.8452 43.7154C25.2512 43.1842 26.6942 42.7581 28.1126 42.264C28.8464 42.0571 29.5648 41.7113 30.3326 41.6773L30.3295 41.6742ZM54.0465 41.7082C54.3332 41.7761 54.6848 41.7545 54.9006 41.9892C55.2028 42.3999 55.508 42.8291 55.6807 43.3109C55.6252 43.6814 55.2058 43.9285 54.842 43.913C54.7187 43.1318 54.3857 42.4153 54.0465 41.7082ZM35.8918 41.7174C35.5502 42.4218 35.2995 43.1669 35.1457 43.9346C34.8527 43.8667 34.4858 43.7926 34.3563 43.4807C34.2638 43.3263 34.3532 43.1565 34.4242 43.0175C34.6198 42.6394 34.8522 42.2815 35.1179 41.949C35.3368 41.7823 35.6328 41.7823 35.8918 41.7174ZM59.0631 41.8039C59.6242 41.9058 60.1176 42.2177 60.6294 42.4586C62.6675 43.4128 64.6994 44.3824 66.7252 45.3675C66.6851 45.5836 66.6912 45.843 66.5432 46.0283C66.0407 46.2229 65.4826 46.1426 64.9615 46.0901C64.3263 46.019 63.6665 45.9449 63.1084 45.596C61.5452 44.6233 60.0868 43.4745 58.4557 42.613C58.8102 42.4833 58.9305 42.122 59.0631 41.8039ZM31.8311 42.5883C32.1086 42.5883 32.3861 42.6315 32.6543 42.718C32.0562 43.4344 31.2483 43.9285 30.5114 44.4812C29.6481 45.0679 28.8526 45.7689 27.8906 46.1889C27.136 46.4447 26.3396 46.5537 25.5442 46.51C25.1988 46.4668 25.0478 46.1457 25.0323 45.8307C26.8423 44.8425 28.6922 43.9316 30.5022 42.9496C30.903 42.7103 31.3645 42.5854 31.8311 42.5883ZM57.8113 42.6439C58.1747 42.6809 58.5191 42.8249 58.801 43.0576C60.1854 44.0921 61.5637 45.139 62.9512 46.1673C63.1362 46.263 63.2317 46.4483 63.3088 46.6366C62.9203 46.8034 62.4979 47.0072 62.0662 46.8775C61.9398 46.8466 61.8073 46.8219 61.6777 46.7941C61.28 46.7391 60.898 46.6024 60.5554 46.3927C59.2388 45.5589 58.172 44.3855 56.8369 43.5764C57.1206 43.3232 57.2069 42.9279 57.4721 42.6716C57.5833 42.6467 57.6975 42.6373 57.8113 42.6439ZM32.6636 43.1873C33.0151 43.737 33.6934 43.5486 34.2299 43.6969C33.0582 44.5399 32.1764 45.7102 31.0171 46.5687C30.3141 47.0906 29.2195 47.2913 28.5072 46.683C28.8557 46.1426 29.4014 45.7874 29.8855 45.3767C30.8105 44.648 31.7139 43.8852 32.6636 43.1873ZM55.9551 43.5733C56.2943 43.6444 56.6735 43.6722 56.9387 43.9316C57.8143 44.6727 58.6376 45.4694 59.5163 46.2105C59.8154 46.4884 60.2162 46.7262 60.2502 47.1832C59.9572 47.2913 59.6273 47.4148 59.319 47.2851C59.2448 47.2655 59.1717 47.2418 59.1001 47.2141C58.6006 47.0196 58.1905 46.649 57.7927 46.297C57.0394 45.5571 56.248 44.8572 55.4217 44.2002C55.5943 43.9871 55.7732 43.7771 55.9551 43.5733ZM34.1621 44.1168C34.4766 44.2002 34.7818 44.3176 35.0963 44.3978C35.1364 44.7066 35.158 45.0154 35.1765 45.3242C34.64 45.8646 34.2299 46.578 33.5084 46.8991C33.0274 47.0844 32.5002 47.1493 31.9883 47.0844C31.8126 47.0473 31.6893 46.9084 31.5628 46.791C32.42 45.8893 33.2278 44.9382 34.1621 44.1168ZM54.9098 44.3423C55.3754 44.3361 55.6807 44.7066 55.9705 45.0154C56.5748 45.7195 57.2655 46.3371 57.8883 47.0196C57.7557 47.1956 57.6108 47.4395 57.3333 47.3469C57.0063 47.3651 56.6792 47.3125 56.3744 47.1925C55.7331 46.8837 55.3107 46.2877 54.7649 45.8554L54.9098 44.3423ZM45.3423 44.7499C45.0794 44.7428 44.8165 44.7572 44.556 44.7931C43.7112 44.8919 42.9002 45.5188 42.7553 46.3834C42.6628 47.2203 42.6967 48.2424 43.3843 48.8415C43.8376 49.212 44.4327 49.3356 45.0031 49.385C45.7986 49.4097 46.7297 49.2831 47.2231 48.5697C47.7627 47.7545 47.7657 46.6459 47.3896 45.7658C46.9826 45.0247 46.1532 44.7746 45.3423 44.7499ZM35.158 45.7689C35.3615 46.2939 35.5095 46.8374 35.6513 47.3809C35.2813 47.3098 34.7202 47.35 34.5105 46.9547C34.4087 46.4575 34.8712 46.1086 35.158 45.772V45.7689ZM54.7341 46.2321C55.0023 46.4699 55.3631 46.791 55.2582 47.1894C55.0517 47.5507 54.5861 47.5538 54.2253 47.5908C54.3981 47.1391 54.5677 46.6862 54.7341 46.2321ZM34.1066 47.2234C34.3933 47.4611 34.7078 47.7082 35.0902 47.7669C35.3368 47.841 35.6236 47.8224 35.8456 47.9614C36.3266 48.5512 36.7521 49.1935 37.3503 49.6752C38.2722 50.5306 39.3791 51.1235 40.4182 51.8121C40.2393 52.5533 39.7614 53.1616 39.3729 53.8008C36.5363 52.7108 34.0727 50.4967 32.9442 47.6402C33.3327 47.5105 33.7212 47.3716 34.1035 47.2234H34.1066ZM55.6683 47.4179C55.9551 47.5322 56.2418 47.6495 56.5317 47.7576C55.9613 49.3325 54.8913 50.6912 53.6333 51.7751C52.7194 52.5845 51.6606 53.2132 50.513 53.6279C50.2663 53.1956 50.0012 52.7694 49.7853 52.3186C49.7237 52.1642 49.625 51.9542 49.7545 51.8091C50.0567 51.5064 50.4544 51.3273 50.8213 51.1173C51.586 50.6603 52.289 50.1076 52.9365 49.4931C53.3682 49.0793 53.6395 48.5296 54.0372 48.0849C54.3764 47.9521 54.7711 48.0108 55.1072 47.8564C55.323 47.7452 55.4895 47.5723 55.6683 47.4179ZM32.0192 47.6341L32.6482 47.6433C33.1847 48.9712 33.9493 50.228 34.9915 51.2162C35.6297 51.7936 36.2495 52.402 36.9926 52.8435C37.7017 53.3129 38.4788 53.6526 39.2434 54.017C39.168 54.2296 39.0762 54.4361 38.969 54.6346C38.2205 54.3355 37.4994 53.9718 36.8137 53.5476C35.8888 53.001 35.1179 52.2476 34.3471 51.5095C33.5454 50.7283 33.0212 49.7185 32.4847 48.7488C32.2843 48.3968 32.1548 48.0108 32.0192 47.6341ZM56.7691 47.8132L57.4474 47.8749C56.9357 49.4422 56.0374 50.8548 54.8358 51.982C53.6888 53.0319 52.4154 54.0355 50.9138 54.5142C50.809 54.298 50.7042 54.0818 50.6055 53.8595C51.5459 53.4364 52.4863 52.9671 53.288 52.3031C54.768 51.105 56.0938 49.6227 56.7691 47.8132ZM52.6127 49.1503C52.0269 49.9717 51.1173 50.4472 50.3126 51.0185C49.9426 51.3057 49.4184 51.4817 49.2673 51.9758C49.3012 52.2661 49.5356 52.4822 49.6682 52.7324C50.0012 53.3067 50.3311 53.8873 50.5993 54.4925C50.7473 54.8755 50.5962 55.2707 50.4513 55.6258C49.9642 55.4931 49.4215 55.2707 49.2087 54.7766C48.7987 54.0324 48.8079 53.0968 48.2375 52.4297C48.1851 53.4241 48.9035 54.227 49.0238 55.1873C48.9744 55.5239 48.7647 55.8111 48.6044 56.1045C48.1758 55.8636 47.6486 55.6227 47.5468 55.0885C47.2539 54.298 47.4327 53.35 46.9548 52.6274C46.7606 53.316 47.0967 53.9861 47.2262 54.6531C47.2971 55.0669 47.479 55.5888 47.1553 55.9408C47.0505 56.081 46.9416 56.218 46.8284 56.3515C46.5047 56.1199 46.0884 55.9038 45.9805 55.4869C45.7986 54.684 45.9312 53.8502 45.7832 53.0473C45.74 52.9454 45.6691 52.8652 45.6043 52.7818C45.3885 53.7391 45.8664 54.684 45.7492 55.6475C45.6197 55.9933 45.333 56.3546 44.9476 56.4195C44.593 56.1724 44.2631 55.8019 44.2662 55.3386C44.2199 54.5018 44.5344 53.6866 44.4912 52.8466L44.2662 52.8405C44.1521 53.5507 44.2107 54.2764 44.1644 54.9928C44.1598 55.3224 44.0471 55.6414 43.8438 55.9007C43.6587 56.0674 43.4522 56.2095 43.2363 56.3392C43.0421 56.1354 42.8201 55.9377 42.7029 55.6722C42.5981 55.2707 42.743 54.8693 42.8262 54.474C42.9712 53.8811 43.1808 53.2882 43.1531 52.6706H42.9496C42.6937 53.4704 42.6998 54.3165 42.4747 55.1225C42.4108 55.3274 42.3021 55.5155 42.1565 55.6731C42.0109 55.8307 41.8321 55.9538 41.633 56.0335C41.4665 56.1076 41.2661 55.9902 41.2013 55.8296C40.9022 55.4498 41.0533 54.9372 41.1859 54.5234C41.4511 53.8379 41.7779 53.1678 41.9259 52.4421L41.7224 52.3587C41.2907 53.1616 41.1859 54.1004 40.7357 54.894C40.6375 55.0785 40.5011 55.24 40.3358 55.3678C40.1705 55.4955 39.98 55.5867 39.7768 55.6351C39.6381 55.6814 39.5302 55.5672 39.4685 55.4591C39.389 55.2993 39.3463 55.1237 39.3436 54.9451C39.341 54.7666 39.3784 54.5898 39.4531 54.4277C39.7984 53.6835 40.2856 53.0072 40.6248 52.2599C40.6864 52.0561 40.7974 51.7813 40.6278 51.6022C39.9495 50.9043 38.9443 50.6758 38.2537 49.9902C38.9721 50.4164 39.6689 50.9043 40.4613 51.1822C43.3072 52.3309 46.5972 52.3649 49.4492 51.2162C50.6517 50.7962 51.697 50.0211 52.6127 49.1503Z" fill="#333333"/>
</svg>
