<svg width="90" height="90" viewBox="0 0 90 90" fill="none" xmlns="http://www.w3.org/2000/svg">
<rect width="90" height="90" rx="10" fill="white"/>
<g filter="url(#filter0_i_319_2205)">
<path d="M45 16C28.9848 16 16 28.9848 16 45C16 61.0153 28.9848 74 45 74C61.0153 74 74 61.0153 74 45C74 28.9848 61.0153 16 45 16ZM45 17.885C59.9737 17.885 72.1126 30.0239 72.1126 45C72.1126 59.9737 59.9761 72.1126 45 72.1126C30.0239 72.1126 17.8874 59.9737 17.8874 45C17.8874 30.0263 30.0263 17.885 45 17.885ZM43.3615 19.4075C42.564 19.4413 41.7665 19.509 40.9642 19.596L40.7056 26.7107C41.2746 26.6144 41.8469 26.5386 42.4214 26.4835L42.5906 21.6792L42.5592 21.3481L42.6631 21.6623L44.2677 25.2607H45.7323L47.3369 21.6647L47.4336 21.3481L47.4094 21.6792L47.5786 26.4835C48.1393 26.5367 48.7217 26.614 49.2944 26.7107L49.031 19.596C48.2342 19.5062 47.4347 19.4433 46.6337 19.4075L45.0556 23.3346L45 23.6246L44.9444 23.3346L43.3615 19.4075ZM59.5435 23.8155L55.8146 29.6832C56.2858 30.0457 56.9069 30.5798 57.3057 30.9447L60.8171 29.1225L61.0394 28.9558L60.8727 29.1829L59.0553 32.6943C59.4493 33.1173 60.0172 33.8012 60.3362 34.2168L66.2087 30.4855C65.8485 30.0196 65.4779 29.5619 65.097 29.1128L61.3778 31.5633L61.124 31.7857L61.3125 31.5078L62.9558 28.2308L61.7958 27.0708L58.5188 28.7141L58.2409 28.9026L58.4608 28.6464L60.921 24.9272C60.486 24.5598 60.0728 24.2239 59.5435 23.8155ZM29.2917 25.1471C28.4217 25.2365 27.7498 25.831 25.9253 27.8658C25.2926 28.5829 24.6825 29.3195 24.0958 30.0747L29.108 34.8283C30.7682 32.9916 31.4425 32.3101 32.7523 30.9302C33.6779 29.9514 34.2023 28.8277 33.2743 27.7474C32.7717 27.1626 31.9258 27.0345 31.2202 27.3245L31.1525 27.3487L31.1767 27.2858C31.2638 26.9652 31.2546 26.6259 31.1502 26.3105C31.0457 25.995 30.8507 25.7173 30.5894 25.512C30.4078 25.3688 30.1996 25.263 29.9768 25.2008C29.7541 25.1386 29.5212 25.1187 29.2917 25.1471ZM29.3062 26.6333C29.6348 26.5439 29.9756 26.7783 30.0505 27.1167C30.1278 27.455 29.9152 27.774 29.6783 28.0398C29.1467 28.644 27.1868 30.6933 27.1868 30.6933L26.2153 29.7678C27.223 28.5353 28.296 27.4139 28.7818 26.9693C28.9275 26.8173 29.1072 26.7022 29.3062 26.6333ZM45 27.8006C40.7428 27.7987 36.6363 29.3764 33.4755 32.2283C30.3147 35.0801 28.3245 39.0033 27.89 43.2383V43.2431C27.6169 45.9299 27.9799 48.6433 28.9497 51.1639C29.9195 53.6844 31.4688 55.9414 33.4724 57.7523C35.476 59.5632 37.8776 60.8772 40.4831 61.588C43.0885 62.2989 45.8247 62.3866 48.4703 61.8442C52.3483 61.047 55.8322 58.9355 58.3332 55.8665C60.8342 52.7974 62.199 48.9591 62.197 45C62.1925 40.4407 60.3792 36.0694 57.155 32.8457C53.9309 29.622 49.5593 27.8093 45 27.8054V27.8006ZM31.6189 28.3854C31.7325 28.3854 31.8509 28.4168 31.9573 28.4893C32.1699 28.6319 32.2666 28.876 32.2134 29.1177C32.1506 29.4053 31.9113 29.6759 31.718 29.8862L29.1926 32.5928L28.1776 31.6262C28.1776 31.6262 30.0795 29.6155 30.703 28.9703C30.9495 28.7141 31.109 28.5594 31.2782 28.4748C31.383 28.4204 31.5009 28.3899 31.6189 28.3854ZM45 30.0602C46.9626 30.0579 48.9063 30.4429 50.7199 31.1929C52.5335 31.9429 54.1813 33.0432 55.569 34.431C56.9568 35.8187 58.0571 37.4666 58.8071 39.2801C59.5571 41.0937 59.9421 43.0374 59.9398 45H45V59.9398C43.0374 59.9421 41.0937 59.5571 39.2801 58.8071C37.4666 58.0571 35.8187 56.9568 34.431 55.569C33.0432 54.1813 31.9429 52.5335 31.1929 50.7199C30.4429 48.9063 30.0579 46.9626 30.0602 45H45V30.0602Z" fill="#1C69D4"/>
</g>
<defs>
<filter id="filter0_i_319_2205" x="16" y="16" width="58" height="62" filterUnits="userSpaceOnUse" color-interpolation-filters="sRGB">
<feFlood flood-opacity="0" result="BackgroundImageFix"/>
<feBlend mode="normal" in="SourceGraphic" in2="BackgroundImageFix" result="shape"/>
<feColorMatrix in="SourceAlpha" type="matrix" values="0 0 0 0 0 0 0 0 0 0 0 0 0 0 0 0 0 0 127 0" result="hardAlpha"/>
<feOffset dy="4"/>
<feGaussianBlur stdDeviation="2"/>
<feComposite in2="hardAlpha" operator="arithmetic" k2="-1" k3="1"/>
<feColorMatrix type="matrix" values="0 0 0 0 0 0 0 0 0 0 0 0 0 0 0 0 0 0 0.5 0"/>
<feBlend mode="normal" in2="shape" result="effect1_innerShadow_319_2205"/>
</filter>
</defs>
</svg>
