<svg width="90" height="90" viewBox="0 0 90 90" fill="none" xmlns="http://www.w3.org/2000/svg">
<rect width="90" height="90" rx="10" fill="white"/>
<path d="M18 25H59.8343C59.8815 25.009 59.9287 25.027 59.976 25.0293C60.957 25.072 61.9177 25.2318 62.8537 25.5198C66.1365 26.5345 68.4945 28.5955 69.867 31.7568C70.8885 34.1103 70.992 36.8395 70.578 38.8578C70.1591 40.9956 69.0812 42.9485 67.4955 44.4423C67.464 44.4738 67.4347 44.5098 67.4055 44.5435C67.4528 44.602 67.5225 44.6335 67.5788 44.6808C68.8553 45.6122 69.9105 46.8138 70.6693 48.1999C71.4281 49.5861 71.8717 51.1225 71.9685 52.6997C71.9707 52.747 71.991 52.7943 72 52.8415V54.619C71.9888 54.6798 71.973 54.7383 71.9685 54.799C71.9595 54.9025 71.964 55.0082 71.9528 55.114C71.872 55.9127 71.7138 56.7017 71.4802 57.4698C70.5847 60.3453 68.8545 62.5592 66.2243 64.0487C64.3433 65.1152 62.3003 65.5923 60.1493 65.5945C46.1092 65.6035 32.0692 65.599 18.0292 65.599V54.934H24.7522L24.7545 58.8445C25.056 58.8805 41.013 58.867 41.148 58.831V48.328H34.263V51.5343C34.0335 51.577 27.675 51.5658 27.5445 51.5253V38.3515H34.263V41.5555C34.4948 41.5983 41.0198 41.587 41.148 41.5488V31.7455H24.75V35.197H18.018L18 25ZM48.9443 58.8625H59.6182C60.1898 58.8625 60.7545 58.8107 61.3057 58.66C63.0382 58.1875 64.2307 57.1232 64.7842 55.4042C65.1744 54.2074 65.1689 52.9167 64.7685 51.7232C64.575 51.0945 64.2503 50.5138 63.8159 50.0197C63.3816 49.5256 62.8473 49.1292 62.2485 48.8568C61.4793 48.4982 60.6402 48.3145 59.7915 48.319H48.9465L48.9443 58.8625ZM48.951 31.732V41.5803H58.8442C59.3949 41.583 59.943 41.505 60.471 41.3485C61.9965 40.8918 63.0518 39.931 63.567 38.4145C63.8933 37.4515 63.9338 36.4615 63.72 35.4715C63.3577 33.802 62.3745 32.6568 60.7658 32.0628C60.0808 31.8268 59.3593 31.7148 58.635 31.732H48.951Z" fill="black"/>
</svg>
