<svg width="90" height="90" viewBox="0 0 90 90" fill="none" xmlns="http://www.w3.org/2000/svg">
<rect width="90" height="90" rx="10" fill="white"/>
<g clip-path="url(#clip0_860_2017)">
<rect width="80" height="80" transform="translate(5 7)" fill="white"/>
<path fill-rule="evenodd" clip-rule="evenodd" d="M5 7H85V87H5V7Z" fill="white"/>
<path fill-rule="evenodd" clip-rule="evenodd" d="M72.6364 14.4204C69.7781 13.7854 56.6851 12.8059 45.1439 12.8059C33.4383 12.8059 20.2212 13.7854 17.3628 14.4204C15.9725 14.7296 11.7412 15.6696 11.7412 20.5807C11.7412 26.8996 11.906 58.6475 15.1582 63.0983C20.7727 70.7814 43.5202 80.6708 44.4856 81.0883C44.6452 81.1573 44.817 81.1935 44.9909 81.1947C45.1647 81.1958 45.337 81.1619 45.4975 81.0949C46.501 80.6766 70.1263 70.7669 74.8984 63.0128C78.0078 57.9602 78.2585 20.9509 78.2585 20.5811C78.2589 15.6696 74.0264 14.7296 72.6364 14.4204Z" fill="black"/>
<path fill-rule="evenodd" clip-rule="evenodd" d="M72.6915 61.6549C68.7106 68.1244 48.4786 77.0007 45.0089 78.4874C41.6102 76.9796 22.0194 68.0954 17.2507 61.569C15.1249 58.6604 14.333 34.8845 14.333 20.5808C14.333 18.5164 15.3067 17.5324 17.9255 16.9501C20.38 16.4047 33.256 15.3975 45.1442 15.3975C56.863 15.3975 69.6203 16.4047 72.0748 16.9501C74.6932 17.5324 75.6665 18.516 75.6665 20.5808C75.6665 27.9568 74.8896 58.0815 72.6915 61.6549Z" fill="white"/>
<path fill-rule="evenodd" clip-rule="evenodd" d="M46.0506 30.8386C46.4105 29.6151 49.0849 27.852 49.4829 28.2276C49.4846 27.7752 51.4286 25.9952 52.1321 26.3127C51.9715 25.7661 54.6385 24.0981 55.2797 24.57C55.4167 23.8905 59.2785 23.3792 60.0439 24.0304C60.4846 23.5299 63.9111 24.3599 63.98 25.234C64.6246 24.6683 68.1191 28.3621 68.122 30.2268C68.1237 30.9457 64.8375 28.0147 62.7665 28.6506C59.34 29.7022 54.978 33.3504 51.1908 38.8288C50.1491 40.3366 47.4472 40.8807 46.872 38.4333C46.872 38.4337 45.6908 32.0625 46.0506 30.8386Z" fill="black"/>
<path fill-rule="evenodd" clip-rule="evenodd" d="M45.7555 64.8887C45.2193 63.9823 45.3891 62.8891 45.8439 62.4562C46.4785 61.8524 48.3067 62.3467 48.4549 61.793C48.8098 60.474 47.8809 60.0121 48.0407 58.1947C48.0967 57.5593 49.3003 52.9508 49.6066 52.5432C49.8643 52.2004 51.402 51.6629 51.8092 51.5056C52.0727 51.2001 52.2508 50.8515 52.2703 50.2393C50.2545 49.6272 49.7145 51.499 49.4265 51.4268C49.1385 51.3545 49.5747 49.3782 49.827 49.1628C50.0781 48.9465 52.4371 48.4227 52.7023 48.0077C52.9812 47.5699 54.0699 43.3643 52.7023 43.2925C52.8119 43.317 52.6318 43.0136 52.738 43.0385C55.5648 43.7005 57.4752 30.1721 64.4361 30.2265C71.3481 30.2804 70.9874 40.291 70.5699 40.6645C69.795 41.3581 68.6495 41.1016 68.6114 41.7445C68.2515 47.8633 62.7806 54.4146 61.1246 53.8381C60.1347 53.4936 60.981 50.3834 61.4487 50.3111C61.0167 50.131 61.4487 46.9278 61.953 46.8556C61.5566 46.5676 61.9165 43.6163 62.4207 43.5802C62.1767 43.3564 62.2028 41.3352 61.6857 40.3304C61.2877 39.5568 59.5732 39.1414 59.4694 41.0248C60.5128 40.5209 60.5851 43.9043 60.1526 44.4804C59.7205 45.0564 56.949 46.3522 56.0857 47.0714C56.1579 48.512 54.7895 54.0547 53.7818 55.6389C52.7741 57.2219 51.766 58.1582 51.1904 59.5979C50.6139 61.0377 50.9837 63.4922 49.6784 64.6011C49.1011 65.0917 46.0045 65.3104 45.7555 64.8887Z" fill="black"/>
<path fill-rule="evenodd" clip-rule="evenodd" d="M69.512 42.2131C69.8353 41.6611 71.1638 41.4428 71.6432 41.7092C72.2064 42.0226 72.6222 46.4244 72.0462 46.5684C72.5504 46.8249 71.9125 50.1638 71.2763 50.168C71.7806 50.3842 70.7363 53.6592 70.1246 53.5513C70.4844 54.0556 68.7927 56.7193 68.325 56.5748C68.1806 59.3107 59.9318 60.6164 60.1186 58.3022C60.2086 57.1883 61.4421 58.826 66.9932 50.1676C69.4414 46.3493 69.0276 43.0386 69.512 42.2131ZM43.9995 30.8603C43.4235 29.6002 41.0594 27.9094 40.6614 28.285C40.6593 27.8326 38.7157 26.0525 38.0119 26.3696C38.1721 25.823 35.5059 24.155 34.8647 24.6273C34.7273 23.9475 30.8654 23.4366 30.1001 24.0873C29.6593 23.5868 26.2332 24.4169 26.1643 25.2909C25.5194 24.7252 22.0252 28.419 22.0215 30.2838C22.0202 31.0026 25.3069 28.0717 27.3771 28.7075C30.8036 29.7592 35.166 33.4073 38.9531 38.8862C39.9949 40.3936 42.6386 40.9377 43.2151 38.4902C43.2151 38.491 44.5756 32.1199 43.9995 30.8603Z" fill="black"/>
<path fill-rule="evenodd" clip-rule="evenodd" d="M44.2803 64.9464C44.8165 63.969 44.7194 62.911 44.2641 62.4782C43.6291 61.8743 41.8374 62.4043 41.6888 61.8506C41.334 60.5317 42.2624 60.0706 42.1034 58.2523C42.0478 57.6169 40.8434 53.0084 40.5371 52.6008C40.2794 52.2572 38.7417 51.7205 38.3345 51.5632C38.0714 51.2586 37.8934 50.91 37.8734 50.297C39.8892 49.6848 40.4292 51.5566 40.7172 51.4844C41.0053 51.4122 40.5691 49.4358 40.3171 49.2204C40.0652 49.0041 37.7427 48.4447 37.4418 48.0653C37.1189 47.6586 36.0739 43.422 37.4418 43.3502C37.3318 43.3746 37.5119 43.0712 37.4061 43.0962C34.5793 43.7581 32.6685 30.2297 25.7076 30.2841C18.7952 30.3381 19.1567 40.3486 19.5742 40.7222C20.3491 41.4157 21.4946 41.1592 21.5324 41.8021C21.8922 47.9209 27.3632 54.4722 29.0191 53.8957C30.009 53.5512 29.1631 50.4402 28.6954 50.3688C29.1275 50.1886 28.6954 46.9854 28.1916 46.9132C28.5875 46.6252 28.2277 43.6739 27.7238 43.6378C27.9679 43.4141 27.9417 41.3929 28.4588 40.3876C28.8569 39.6144 30.5718 39.199 30.6755 41.082C29.6313 40.5777 29.5599 43.9615 29.992 44.5376C30.4236 45.1136 33.1952 46.4094 34.0593 47.1286C33.9871 48.5692 35.355 54.1119 36.3627 55.6953C37.3704 57.2791 38.3781 58.2154 38.9542 59.6551C39.5352 61.1077 39.8042 63.9806 40.5018 64.6226C41.1534 65.222 44.045 65.3759 44.2803 64.9464ZM45.0718 67.725C42.9123 67.7615 41.0173 66.2213 41.4008 65.8105C42.1416 65.0153 43.4345 66.1778 44.9817 65.4934C46.4941 66.1412 47.7529 65.0182 48.7427 65.7528C49.3047 66.1695 47.232 67.6897 45.0718 67.725Z" fill="black"/>
<path fill-rule="evenodd" clip-rule="evenodd" d="M20.6324 42.2704C20.3086 41.7188 18.9805 41.6441 18.5016 41.9105C17.9388 42.2239 17.5225 46.4817 18.0982 46.6257C17.5943 46.8818 18.2326 50.2211 18.8685 50.2249C18.3646 50.4407 19.4084 53.7161 20.0202 53.6082C19.6604 54.1125 21.352 56.7762 21.8198 56.6317C21.9638 59.3676 30.213 60.6733 30.0262 58.3591C29.9366 57.2452 28.7031 58.8829 23.1512 50.2245C20.7033 46.407 21.1171 43.0967 20.6324 42.2704Z" fill="black"/>
</g>
<defs>
<clipPath id="clip0_860_2017">
<rect width="80" height="80" fill="white" transform="translate(5 7)"/>
</clipPath>
</defs>
</svg>
