<svg width="90" height="90" viewBox="0 0 90 90" fill="none" xmlns="http://www.w3.org/2000/svg">
<rect width="90" height="90" rx="10" fill="white"/>
<g filter="url(#filter0_i_319_2044)">
<path d="M39.546 43.43H41.697L43.572 37.88L44.667 43.43H46.821L49.755 34.856L47.505 34.859L45.939 39.521L45.042 34.859H42.012L41.937 35.081L42.087 35.225C42.246 35.384 42.237 35.567 42.102 35.963L39.546 43.43ZM50.793 35.963L48.234 43.433H52.011C53.631 43.433 54.552 43.073 55.305 42.272C56.244 41.276 57.105 38.687 57.075 37.262C57.048 35.807 56.109 34.862 54.135 34.862H50.7L50.628 35.081L50.778 35.225C50.934 35.384 50.931 35.567 50.793 35.963ZM52.845 36.893H53.784C54.423 36.893 54.774 37.106 54.783 37.601C54.789 37.919 54.702 38.357 54.372 39.296C54.078 40.136 53.844 40.625 53.511 40.982C53.247 41.264 52.89 41.387 52.077 41.387H51.294L52.845 36.893ZM65.043 37.934H59.34L58.599 39.974H62.553L58.062 41.501L57.783 42.23L64.254 40.1L65.043 37.934ZM24.129 43.433H29.979L30.687 41.387H27.285L29.535 34.859H26.598L26.526 35.081L26.673 35.225C26.832 35.384 26.826 35.567 26.688 35.963L24.129 43.433ZM30.588 43.43H33.078L34.155 41.534H36.732L36.756 43.43H39.015L38.529 34.859H35.148L35.073 35.081L35.181 35.189C35.361 35.363 35.286 35.615 34.629 36.659L30.588 43.43ZM36.576 37.229H36.654L36.696 39.821H35.115L36.576 37.229ZM33.03 45.287H29.328L29.253 45.509L29.403 45.659C29.562 45.812 29.553 45.998 29.415 46.394L26.829 53.864H29.193L30.204 50.897H31.005L31.893 53.861H34.269L33.153 50.831C33.637 50.7806 34.0922 50.5767 34.452 50.249C34.899 49.841 35.208 49.271 35.463 48.428C35.835 47.207 35.61 46.508 35.37 46.148C35.04 45.656 34.344 45.287 33.03 45.287ZM33.234 48.401C33.084 48.767 32.922 48.854 32.709 48.941C32.4691 49.0028 32.2215 49.029 31.974 49.019H30.84L31.455 47.246H32.82C33.228 47.246 33.396 47.456 33.402 47.702C33.3824 47.9426 33.3247 48.1785 33.231 48.401M64.539 45.287H60.84L60.768 45.509L60.918 45.659C61.077 45.812 61.068 45.998 60.933 46.394L58.344 53.864H60.711L61.719 50.9H62.52L63.411 53.861H65.781L64.671 50.831C65.153 50.7798 65.606 50.5759 65.964 50.249C66.414 49.841 66.723 49.271 66.978 48.428C67.35 47.207 67.128 46.508 66.888 46.148C66.558 45.656 65.856 45.287 64.539 45.287ZM64.749 48.401C64.599 48.767 64.437 48.854 64.227 48.941C63.9871 49.0026 63.7395 49.0289 63.492 49.019H62.364L62.973 47.246H64.338C64.746 47.246 64.914 47.456 64.917 47.702C64.899 47.9425 64.8423 48.1786 64.749 48.401ZM68.85 34.175C61.755 30.509 52.92 29.105 45 29.105C37.08 29.105 28.245 30.509 21.15 34.175C17.16 36.236 12.105 39.95 12.105 44.957C12.105 49.964 17.163 53.678 21.15 55.739C28.245 59.405 37.08 60.809 45 60.809C52.92 60.809 61.755 59.408 68.85 55.739C72.837 53.678 77.895 49.964 77.895 44.957C77.895 39.947 72.84 36.236 68.85 34.175ZM68.49 55.037C61.5 58.646 52.809 60.017 45 60.017C37.191 60.017 28.5 58.646 21.51 55.037C17.817 53.12 12.9 49.595 12.9 44.957C12.9 40.313 17.814 36.791 21.51 34.88C28.5 31.271 37.194 29.9 45 29.9C52.809 29.9 61.5 31.268 68.49 34.88C72.189 36.791 77.1 40.31 77.1 44.96C77.1 49.601 72.186 53.123 68.49 55.037ZM70.275 31.418C63.513 27.923 54.54 26 45 26C35.463 26 26.49 27.923 19.725 31.418C15.72 33.488 9 38 9 44.957C9 51.914 15.72 56.426 19.725 58.496C26.487 61.991 35.463 63.917 45 63.917C54.54 63.917 63.513 61.994 70.275 58.499C74.28 56.426 81 51.917 81 44.957C81 37.997 74.28 33.488 70.275 31.418ZM69.396 56.798C62.901 60.149 54.24 61.997 45 61.997C35.76 61.997 27.102 60.149 20.604 56.792C14.358 53.567 10.914 49.361 10.914 44.957C10.914 40.55 14.358 36.347 20.604 33.119C27.102 29.765 35.763 27.917 45 27.917C54.24 27.917 62.901 29.768 69.396 33.122C75.645 36.347 79.086 40.553 79.086 44.96C79.086 49.364 75.645 53.57 69.396 56.798ZM41.166 45.188H40.893C39.276 45.188 38.355 45.62 37.596 46.424C36.654 47.423 35.769 50.114 35.787 51.542C35.805 52.994 36.747 54.002 38.721 54.002H39.009C40.629 54.002 41.553 53.567 42.309 52.763C43.251 51.764 44.118 49.073 44.1 47.645C44.082 46.193 43.14 45.185 41.163 45.185M41.301 49.73C41.007 50.573 40.776 51.116 40.437 51.473C40.167 51.755 39.816 51.956 38.997 51.956C38.361 51.956 38.007 51.695 38.007 51.203C38.001 50.882 38.088 50.399 38.43 49.457C38.724 48.617 38.955 48.071 39.297 47.714C39.561 47.432 39.918 47.231 40.731 47.231C41.37 47.231 41.724 47.492 41.721 47.981C41.73 48.305 41.643 48.791 41.301 49.73ZM27.105 46.397L20.634 48.524L19.845 50.693H25.551L26.295 48.65H22.338L26.829 47.129L27.105 46.397ZM50.643 45.29L47.505 51.455H47.439L47.28 45.29H44.655L44.553 45.512L44.778 45.65C44.997 45.803 45.057 45.959 45.084 46.388L45.441 53.864H48.366L53.085 45.29H50.643ZM57.831 50.426L58.488 48.635H55.47L55.938 47.264H59.202L59.922 45.284H53.76L53.673 45.536L53.823 45.683C53.982 45.836 53.973 46.019 53.835 46.421L51.27 53.861H57.03L57.726 51.872H54.366L54.858 50.426H57.831Z" fill="#005A2B"/>
</g>
<defs>
<filter id="filter0_i_319_2044" x="9" y="26" width="72" height="41.917" filterUnits="userSpaceOnUse" color-interpolation-filters="sRGB">
<feFlood flood-opacity="0" result="BackgroundImageFix"/>
<feBlend mode="normal" in="SourceGraphic" in2="BackgroundImageFix" result="shape"/>
<feColorMatrix in="SourceAlpha" type="matrix" values="0 0 0 0 0 0 0 0 0 0 0 0 0 0 0 0 0 0 127 0" result="hardAlpha"/>
<feOffset dy="4"/>
<feGaussianBlur stdDeviation="2"/>
<feComposite in2="hardAlpha" operator="arithmetic" k2="-1" k3="1"/>
<feColorMatrix type="matrix" values="0 0 0 0 0 0 0 0 0 0 0 0 0 0 0 0 0 0 0.5 0"/>
<feBlend mode="normal" in2="shape" result="effect1_innerShadow_319_2044"/>
</filter>
</defs>
</svg>
