<svg width="90" height="90" viewBox="0 0 90 90" fill="none" xmlns="http://www.w3.org/2000/svg">
<rect width="90" height="90" rx="10" fill="white"/>
<g filter="url(#filter0_i_319_2202)">
<path d="M45 25C53.5113 25 62.6347 26.7443 69.8937 31.3816C74.6112 34.4143 79 39.0145 79 45.0057C79 52.0058 73.0585 57.0963 67.3663 60.0748C60.5918 63.6034 52.5877 65 45 65C36.4915 65 27.3852 63.2756 20.1233 58.6212C15.4087 55.5857 11 50.9883 11 45.0086C11 37.9771 16.9273 32.9065 22.6337 29.9223C29.428 26.3995 37.4152 25 45 25ZM44.9292 27.1263C37.0157 27.1263 28.4902 28.6169 21.625 32.7783C17.307 35.3777 13.04 39.4677 13.04 44.9002C13.04 51.2819 18.82 55.7482 23.988 58.3134C30.3857 61.4543 37.8628 62.6742 44.9292 62.6742C52.8568 62.6742 61.388 61.1836 68.2532 57.0222C72.5513 54.4057 76.8353 50.3356 76.8353 44.9002C76.8353 38.5072 71.0695 34.0324 65.8873 31.49C59.4897 28.3433 52.0097 27.1263 44.9292 27.1263ZM15.0658 40.4824L28.0907 38.2478L32.012 29.6886L35.9163 38.245L48.9383 40.4795L35.9163 42.7369L32.012 51.3161L28.0907 42.7369L15.0658 40.4824ZM43.6995 47.0066L49.4455 45.9919L51.1597 42.1184L52.8767 45.9919L58.6227 47.0066L52.8767 48.0041L51.1597 51.8804L49.4455 48.0041L43.6995 47.0066ZM55.5882 36.6859L61.3342 35.6883L63.0483 31.7978L64.7653 35.6855L70.5113 36.6831L64.7653 37.7006L63.0483 41.5769L61.3313 37.7006L55.5882 36.6859ZM49.4483 55.0043L55.1717 54.0067L56.8915 50.1161L58.6255 54.0067L64.3687 55.0043L58.6255 56.0218L56.8915 59.8981L55.1745 56.0218L49.4483 55.0043ZM31.7967 56.4037L37.5427 55.4062L39.2767 51.5128L40.9908 55.4062L46.7368 56.4037L40.9908 57.4213L39.2767 61.2947L37.5427 57.4213L31.7967 56.4037ZM60.6853 46.8469L66.4143 45.8294L68.1285 41.956L69.8625 45.8294L75.6085 46.8469L69.8625 47.8445L68.1285 51.7123L66.4115 47.8445L60.6853 46.8469Z" fill="#002B7F"/>
</g>
<defs>
<filter id="filter0_i_319_2202" x="11" y="25" width="68" height="44" filterUnits="userSpaceOnUse" color-interpolation-filters="sRGB">
<feFlood flood-opacity="0" result="BackgroundImageFix"/>
<feBlend mode="normal" in="SourceGraphic" in2="BackgroundImageFix" result="shape"/>
<feColorMatrix in="SourceAlpha" type="matrix" values="0 0 0 0 0 0 0 0 0 0 0 0 0 0 0 0 0 0 127 0" result="hardAlpha"/>
<feOffset dy="4"/>
<feGaussianBlur stdDeviation="2"/>
<feComposite in2="hardAlpha" operator="arithmetic" k2="-1" k3="1"/>
<feColorMatrix type="matrix" values="0 0 0 0 0 0 0 0 0 0 0 0 0 0 0 0 0 0 0.5 0"/>
<feBlend mode="normal" in2="shape" result="effect1_innerShadow_319_2202"/>
</filter>
</defs>
</svg>
