<svg xmlns="http://www.w3.org/2000/svg" xmlns:xlink="http://www.w3.org/1999/xlink" width="200" zoomAndPan="magnify" viewBox="0 0 150 89.999999" height="120" preserveAspectRatio="xMidYMid meet" version="1.2"><defs><clipPath id="c1f4cca4f3"><path d="M 14 28 L 67 28 L 67 52.265625 L 14 52.265625 Z M 14 28 "/></clipPath><clipPath id="c68335f734"><path d="M 82 5.015625 L 88 5.015625 L 88 11 L 82 11 Z M 82 5.015625 "/></clipPath></defs><g id="fe95f7da31"><path style=" stroke:none;fill-rule:nonzero;fill:#0097b2;fill-opacity:1;" d="M 141 34.453125 C 141 35.339844 140.859375 36.199219 140.578125 37.035156 C 140.296875 37.875 139.890625 38.644531 139.359375 39.351562 C 138.828125 40.058594 138.199219 40.660156 137.472656 41.160156 C 136.742188 41.660156 135.953125 42.03125 135.105469 42.277344 C 135.339844 37.300781 134.996094 31.207031 133.113281 29.722656 C 126.351562 26.570312 119.367188 24.03125 112.160156 22.105469 C 102.613281 19.289062 89.164062 15.917969 79.304688 15.917969 C 77.003906 15.871094 74.738281 16.128906 72.507812 16.695312 C 66.117188 18.5 60.019531 21.011719 54.214844 24.238281 C 52.386719 25.523438 50.402344 26.476562 48.257812 27.09375 L 47.273438 27.820312 C 26.328125 28.960938 15.164062 35.574219 14.136719 38.257812 C 13.488281 41.671875 13.488281 45.085938 14.136719 48.496094 C 13.804688 48.417969 13.488281 48.308594 13.179688 48.160156 C 12.871094 48.015625 12.585938 47.839844 12.316406 47.628906 C 12.046875 47.421875 11.800781 47.191406 11.582031 46.929688 C 11.359375 46.671875 11.171875 46.390625 11.007812 46.09375 C 10.847656 45.792969 10.722656 45.480469 10.628906 45.152344 C 10.53125 44.824219 10.472656 44.492188 10.449219 44.152344 C 10.425781 43.8125 10.4375 43.476562 10.488281 43.140625 C 10.535156 42.804688 10.617188 42.476562 10.734375 42.15625 C 10.34375 41.542969 10.042969 40.886719 9.828125 40.1875 C 9.613281 39.492188 9.492188 38.78125 9.46875 38.050781 C 9.445312 37.324219 9.519531 36.605469 9.6875 35.894531 C 9.859375 35.1875 10.117188 34.511719 10.46875 33.875 C 10.820312 33.234375 11.25 32.652344 11.757812 32.128906 C 12.261719 31.605469 12.832031 31.160156 13.457031 30.789062 C 14.085938 30.417969 14.75 30.136719 15.453125 29.941406 C 16.15625 29.75 16.871094 29.652344 17.601562 29.652344 C 17.601562 29.175781 17.671875 28.707031 17.8125 28.246094 C 17.949219 27.789062 18.15625 27.363281 18.421875 26.964844 C 18.691406 26.566406 19.011719 26.21875 19.382812 25.917969 C 19.757812 25.617188 20.164062 25.375 20.609375 25.199219 C 21.054688 25.019531 21.515625 24.910156 21.992188 24.867188 C 22.46875 24.828125 22.941406 24.855469 23.410156 24.957031 C 23.878906 25.058594 24.324219 25.226562 24.742188 25.460938 C 25.160156 25.691406 25.535156 25.980469 25.867188 26.328125 C 26.246094 26.0625 26.644531 25.828125 27.066406 25.628906 C 27.484375 25.429688 27.917969 25.269531 28.367188 25.144531 C 28.8125 25.023438 29.269531 24.9375 29.730469 24.890625 C 30.191406 24.84375 30.65625 24.839844 31.117188 24.871094 C 31.582031 24.90625 32.039062 24.976562 32.488281 25.089844 C 32.941406 25.199219 33.378906 25.347656 33.804688 25.535156 C 34.226562 25.722656 34.632812 25.941406 35.019531 26.199219 C 35.410156 26.457031 35.769531 26.742188 36.109375 27.0625 C 36.382812 26.695312 36.6875 26.355469 37.019531 26.039062 C 37.351562 25.722656 37.710938 25.4375 38.089844 25.183594 C 38.472656 24.929688 38.871094 24.707031 39.289062 24.519531 C 39.707031 24.332031 40.136719 24.183594 40.582031 24.066406 C 41.023438 23.953125 41.476562 23.878906 41.933594 23.839844 C 42.386719 23.800781 42.84375 23.800781 43.300781 23.839844 C 43.757812 23.878906 44.207031 23.953125 44.652344 24.070312 C 45.09375 24.183594 45.527344 24.335938 45.945312 24.523438 C 45.957031 24.1875 45.992188 23.855469 46.042969 23.527344 C 46.097656 23.195312 46.171875 22.871094 46.265625 22.550781 C 46.359375 22.230469 46.472656 21.914062 46.605469 21.609375 C 46.742188 21.300781 46.890625 21.003906 47.0625 20.714844 C 47.230469 20.429688 47.417969 20.152344 47.621094 19.886719 C 47.824219 19.621094 48.042969 19.371094 48.277344 19.132812 C 48.511719 18.894531 48.761719 18.671875 49.023438 18.460938 C 49.285156 18.253906 49.558594 18.066406 49.84375 17.890625 C 50.128906 17.71875 50.425781 17.5625 50.730469 17.425781 C 51.035156 17.285156 51.347656 17.167969 51.667969 17.070312 C 51.988281 16.972656 52.3125 16.890625 52.640625 16.832031 C 52.96875 16.773438 53.300781 16.734375 53.632812 16.71875 C 53.96875 16.699219 54.300781 16.703125 54.636719 16.726562 C 54.96875 16.75 55.300781 16.792969 55.628906 16.855469 C 55.957031 16.917969 56.277344 17.003906 56.597656 17.105469 C 56.914062 17.210938 57.226562 17.332031 57.527344 17.476562 C 57.574219 17.273438 57.632812 17.078125 57.707031 16.886719 C 57.777344 16.691406 57.863281 16.503906 57.960938 16.324219 C 58.054688 16.140625 58.164062 15.964844 58.28125 15.796875 C 58.402344 15.628906 58.53125 15.46875 58.667969 15.320312 C 58.808594 15.167969 58.957031 15.023438 59.113281 14.894531 C 59.273438 14.761719 59.4375 14.640625 59.613281 14.527344 C 59.785156 14.417969 59.964844 14.316406 60.152344 14.230469 C 60.335938 14.140625 60.527344 14.066406 60.722656 14 C 60.917969 13.9375 61.117188 13.886719 61.320312 13.851562 C 61.523438 13.8125 61.726562 13.789062 61.933594 13.777344 C 62.136719 13.765625 62.34375 13.765625 62.550781 13.78125 C 62.753906 13.796875 62.957031 13.824219 63.160156 13.863281 C 63.363281 13.90625 63.558594 13.960938 63.753906 14.027344 C 63.949219 14.09375 64.140625 14.171875 64.324219 14.261719 C 64.507812 14.355469 64.6875 14.457031 64.859375 14.570312 C 65.03125 14.683594 65.195312 14.808594 65.347656 14.945312 C 65.691406 14.257812 66.117188 13.636719 66.636719 13.070312 C 67.152344 12.507812 67.738281 12.027344 68.390625 11.628906 C 69.039062 11.230469 69.734375 10.929688 70.472656 10.726562 C 71.210938 10.523438 71.960938 10.425781 72.726562 10.4375 C 73.488281 10.445312 74.238281 10.558594 74.96875 10.78125 C 75.703125 11 76.390625 11.316406 77.03125 11.730469 C 77.675781 12.144531 78.25 12.636719 78.75 13.214844 C 79.253906 13.789062 79.667969 14.421875 79.992188 15.113281 C 80.6875 14.710938 81.425781 14.414062 82.207031 14.226562 C 82.988281 14.042969 83.777344 13.972656 84.582031 14.019531 C 85.382812 14.070312 86.160156 14.234375 86.914062 14.511719 C 87.667969 14.789062 88.363281 15.171875 89.003906 15.65625 C 89.296875 14.886719 89.703125 14.179688 90.210938 13.535156 C 90.722656 12.886719 91.316406 12.332031 91.996094 11.863281 C 92.675781 11.398438 93.410156 11.042969 94.195312 10.800781 C 94.984375 10.558594 95.789062 10.4375 96.613281 10.4375 C 97.4375 10.4375 98.242188 10.5625 99.027344 10.808594 C 99.8125 11.054688 100.546875 11.410156 101.222656 11.878906 C 101.902344 12.347656 102.496094 12.90625 103.003906 13.554688 C 103.511719 14.203125 103.910156 14.914062 104.203125 15.683594 C 104.378906 15.671875 104.558594 15.664062 104.734375 15.664062 C 105.554688 15.664062 106.355469 15.785156 107.140625 16.03125 C 107.925781 16.273438 108.65625 16.625 109.335938 17.089844 C 110.011719 17.554688 110.605469 18.109375 111.117188 18.753906 C 111.625 19.398438 112.027344 20.101562 112.324219 20.871094 C 112.714844 20.601562 113.136719 20.398438 113.589844 20.253906 C 114.042969 20.113281 114.507812 20.039062 114.980469 20.035156 C 115.457031 20.03125 115.921875 20.097656 116.375 20.230469 C 116.832031 20.363281 117.257812 20.558594 117.652344 20.820312 C 118.097656 20.039062 118.652344 19.347656 119.324219 18.75 C 119.996094 18.152344 120.746094 17.679688 121.574219 17.332031 C 122.40625 16.984375 123.265625 16.777344 124.164062 16.714844 C 125.0625 16.652344 125.945312 16.738281 126.8125 16.96875 C 127.679688 17.195312 128.488281 17.5625 129.238281 18.058594 C 129.984375 18.558594 130.632812 19.164062 131.179688 19.875 C 131.730469 20.589844 132.148438 21.371094 132.433594 22.222656 C 132.722656 23.074219 132.867188 23.949219 132.863281 24.847656 C 132.863281 25.34375 132.820312 25.835938 132.730469 26.324219 L 132.863281 26.324219 C 133.398438 26.324219 133.925781 26.375 134.449219 26.480469 C 134.972656 26.582031 135.484375 26.738281 135.976562 26.941406 C 136.46875 27.144531 136.9375 27.398438 137.382812 27.695312 C 137.828125 27.988281 138.238281 28.328125 138.617188 28.703125 C 138.992188 29.082031 139.332031 29.492188 139.628906 29.9375 C 139.925781 30.378906 140.175781 30.847656 140.378906 31.34375 C 140.582031 31.835938 140.738281 32.34375 140.84375 32.867188 C 140.949219 33.390625 141 33.921875 141 34.453125 Z M 141 34.453125 "/><g clip-rule="nonzero" clip-path="url(#c1f4cca4f3)"><path style=" stroke:none;fill-rule:nonzero;fill:#fe5d26;fill-opacity:1;" d="M 53.027344 49.347656 C 53.027344 49.347656 56.9375 49.742188 58.625 49.988281 L 52.648438 49.988281 C 50.824219 36.992188 41.703125 38.316406 33.292969 38.949219 C 24.882812 39.582031 27.253906 50.289062 27.253906 52.054688 L 20.714844 51.351562 C 18.6875 51.246094 15.535156 50.949219 15.207031 50.128906 C 14.71875 48.910156 13.769531 41.144531 14.78125 38.507812 C 15.796875 35.875 33.101562 25.773438 66.53125 28.917969 C 64.78125 28.917969 51.09375 29.882812 38.222656 31.9375 C 38.417969 31.832031 38.625 31.777344 38.851562 31.78125 C 38.675781 31.78125 38.507812 31.746094 38.34375 31.679688 C 38.183594 31.613281 38.039062 31.515625 37.914062 31.390625 C 37.789062 31.269531 37.695312 31.125 37.628906 30.964844 C 37.558594 30.800781 37.527344 30.632812 37.527344 30.457031 C 37.527344 30.632812 37.492188 30.800781 37.425781 30.964844 C 37.359375 31.125 37.261719 31.269531 37.136719 31.390625 C 37.015625 31.515625 36.871094 31.613281 36.710938 31.679688 C 36.546875 31.746094 36.378906 31.78125 36.203125 31.78125 C 36.542969 31.777344 36.839844 31.894531 37.089844 32.121094 C 27.03125 33.789062 17.707031 36.128906 15.300781 39.210938 C 15.253906 42.523438 15.417969 45.824219 15.796875 49.117188 L 21.214844 50.71875 C 23.179688 50.953125 26.144531 51.402344 26.144531 51.285156 C 24.5 38.160156 28.683594 37.742188 40.433594 37.523438 C 52.019531 37.308594 53.027344 49.347656 53.027344 49.347656 Z M 53.027344 49.347656 "/></g><path style=" stroke:none;fill-rule:nonzero;fill:#fe5d26;fill-opacity:1;" d="M 132.683594 30.265625 C 130.117188 28.238281 87.695312 13.121094 72.695312 17.363281 C 57.695312 21.609375 52.21875 27.195312 47.96875 27.546875 C 50.269531 27.96875 58.390625 24.351562 64.894531 22.023438 C 74.523438 18.578125 97.867188 20.058594 110.785156 25.378906 C 123.703125 30.699219 129.140625 31.347656 130.457031 31.347656 C 131.773438 31.347656 132.441406 34.582031 132.441406 36.710938 C 132.441406 36.753906 132.441406 36.796875 132.441406 36.84375 C 130.773438 40.546875 128.410156 43.734375 125.355469 46.410156 C 123.511719 35.199219 116.898438 32.785156 107.414062 32.699219 C 97.683594 32.597656 97.414062 40.0625 95.996094 43.914062 C 94.578125 47.761719 78.871094 48.117188 75.328125 48.980469 C 75.328125 48.980469 93.058594 49.789062 95.996094 47.257812 C 98.929688 44.726562 94.679688 34.386719 108.054688 34.28125 C 120.484375 34.179688 123.464844 42.761719 123.824219 47.390625 C 122.089844 48.273438 123.289062 49.816406 123.289062 51.882812 C 125.660156 51.882812 132.535156 50.945312 133.546875 48.574219 C 134.558594 46.207031 135.253906 32.292969 132.683594 30.265625 Z M 132.683594 30.265625 "/><path style=" stroke:none;fill-rule:nonzero;fill:#0097b2;fill-opacity:1;" d="M 39.683594 16.992188 C 39.335938 16.992188 38.996094 17.0625 38.675781 17.195312 C 38.351562 17.328125 38.066406 17.519531 37.820312 17.765625 C 37.570312 18.015625 37.382812 18.300781 37.246094 18.621094 C 37.113281 18.945312 37.046875 19.28125 37.046875 19.632812 C 37.046875 19.980469 37.113281 20.316406 37.246094 20.640625 C 37.382812 20.964844 37.570312 21.25 37.820312 21.496094 C 38.066406 21.742188 38.351562 21.933594 38.675781 22.070312 C 38.996094 22.203125 39.335938 22.269531 39.683594 22.269531 C 40.035156 22.269531 40.371094 22.203125 40.695312 22.070312 C 41.015625 21.933594 41.300781 21.742188 41.550781 21.496094 C 41.796875 21.25 41.988281 20.964844 42.121094 20.640625 C 42.253906 20.316406 42.320312 19.980469 42.320312 19.632812 C 42.320312 19.28125 42.253906 18.945312 42.121094 18.621094 C 41.988281 18.300781 41.796875 18.015625 41.550781 17.765625 C 41.300781 17.519531 41.015625 17.328125 40.695312 17.195312 C 40.371094 17.0625 40.035156 16.992188 39.683594 16.992188 Z M 40.710938 21.574219 C 40.929688 21.398438 41.105469 21.1875 41.246094 20.949219 C 41.382812 20.707031 41.476562 20.449219 41.519531 20.171875 C 41.5625 19.898438 41.558594 19.625 41.5 19.351562 C 41.445312 19.078125 41.339844 18.824219 41.191406 18.589844 C 41.039062 18.355469 40.851562 18.15625 40.628906 17.988281 C 40.402344 17.824219 40.15625 17.703125 39.890625 17.628906 C 39.621094 17.554688 39.347656 17.53125 39.070312 17.554688 C 38.792969 17.582031 38.53125 17.65625 38.28125 17.777344 C 38.53125 17.574219 38.8125 17.425781 39.125 17.34375 C 39.4375 17.257812 39.753906 17.242188 40.074219 17.289062 C 40.394531 17.339844 40.691406 17.457031 40.960938 17.632812 C 41.234375 17.8125 41.457031 18.035156 41.628906 18.308594 C 41.804688 18.582031 41.917969 18.878906 41.964844 19.199219 C 42.011719 19.519531 41.992188 19.835938 41.902344 20.148438 C 41.816406 20.460938 41.667969 20.742188 41.457031 20.988281 C 41.25 21.238281 41 21.433594 40.707031 21.574219 Z M 40.710938 21.574219 "/><path style=" stroke:none;fill-rule:nonzero;fill:#0097b2;fill-opacity:1;" d="M 50.609375 6.71875 C 50.257812 6.722656 49.921875 6.789062 49.597656 6.921875 C 49.277344 7.054688 48.992188 7.246094 48.742188 7.496094 C 48.496094 7.742188 48.304688 8.027344 48.171875 8.351562 C 48.039062 8.671875 47.972656 9.011719 47.972656 9.359375 C 47.972656 9.710938 48.039062 10.046875 48.175781 10.367188 C 48.308594 10.691406 48.5 10.976562 48.746094 11.222656 C 48.992188 11.472656 49.277344 11.660156 49.601562 11.796875 C 49.925781 11.929688 50.261719 11.996094 50.609375 11.996094 C 50.960938 11.996094 51.296875 11.929688 51.621094 11.792969 C 51.945312 11.660156 52.230469 11.46875 52.476562 11.222656 C 52.722656 10.976562 52.914062 10.691406 53.046875 10.367188 C 53.179688 10.042969 53.25 9.707031 53.25 9.359375 C 53.25 9.007812 53.179688 8.671875 53.046875 8.347656 C 52.914062 8.023438 52.722656 7.738281 52.476562 7.492188 C 52.226562 7.246094 51.941406 7.054688 51.617188 6.921875 C 51.292969 6.785156 50.957031 6.71875 50.609375 6.71875 Z M 51.636719 11.300781 C 51.851562 11.125 52.027344 10.914062 52.167969 10.675781 C 52.304688 10.433594 52.398438 10.175781 52.441406 9.902344 C 52.484375 9.625 52.476562 9.351562 52.421875 9.082031 C 52.363281 8.808594 52.261719 8.554688 52.109375 8.320312 C 51.960938 8.085938 51.773438 7.886719 51.550781 7.722656 C 51.328125 7.554688 51.082031 7.433594 50.8125 7.359375 C 50.546875 7.285156 50.273438 7.257812 49.996094 7.285156 C 49.71875 7.308594 49.457031 7.382812 49.207031 7.503906 C 49.457031 7.300781 49.738281 7.15625 50.050781 7.070312 C 50.363281 6.988281 50.679688 6.96875 51 7.019531 C 51.320312 7.070312 51.613281 7.183594 51.886719 7.363281 C 52.15625 7.539062 52.378906 7.765625 52.554688 8.039062 C 52.726562 8.308594 52.839844 8.605469 52.886719 8.925781 C 52.933594 9.246094 52.914062 9.5625 52.828125 9.875 C 52.738281 10.1875 52.59375 10.464844 52.382812 10.714844 C 52.175781 10.964844 51.929688 11.160156 51.636719 11.300781 Z M 51.636719 11.300781 "/><path style=" stroke:none;fill-rule:nonzero;fill:#0097b2;fill-opacity:1;" d="M 134.46875 22.265625 C 134.46875 22.613281 134.535156 22.949219 134.667969 23.273438 C 134.800781 23.597656 134.992188 23.882812 135.242188 24.128906 C 135.488281 24.378906 135.773438 24.566406 136.097656 24.703125 C 136.417969 24.835938 136.757812 24.902344 137.105469 24.902344 C 137.457031 24.902344 137.792969 24.835938 138.113281 24.703125 C 138.4375 24.566406 138.722656 24.378906 138.972656 24.128906 C 139.21875 23.882812 139.410156 23.597656 139.542969 23.273438 C 139.675781 22.949219 139.742188 22.613281 139.742188 22.265625 C 139.742188 21.914062 139.675781 21.578125 139.542969 21.253906 C 139.410156 20.933594 139.21875 20.648438 138.972656 20.398438 C 138.722656 20.152344 138.4375 19.960938 138.113281 19.828125 C 137.792969 19.695312 137.457031 19.628906 137.105469 19.628906 C 136.757812 19.628906 136.417969 19.695312 136.097656 19.828125 C 135.773438 19.960938 135.488281 20.152344 135.242188 20.398438 C 134.992188 20.648438 134.804688 20.933594 134.667969 21.253906 C 134.535156 21.578125 134.46875 21.914062 134.46875 22.265625 Z M 134.804688 22.171875 C 134.808594 21.734375 134.925781 21.328125 135.160156 20.957031 C 135.394531 20.589844 135.707031 20.308594 136.101562 20.121094 C 136.5 19.933594 136.914062 19.867188 137.347656 19.917969 C 137.785156 19.972656 138.171875 20.136719 138.511719 20.410156 C 138.257812 20.28125 137.992188 20.203125 137.714844 20.171875 C 137.433594 20.140625 137.15625 20.164062 136.882812 20.234375 C 136.609375 20.308594 136.359375 20.429688 136.132812 20.59375 C 135.902344 20.761719 135.710938 20.960938 135.558594 21.199219 C 135.40625 21.4375 135.300781 21.695312 135.246094 21.972656 C 135.1875 22.25 135.183594 22.527344 135.230469 22.804688 C 135.277344 23.082031 135.375 23.34375 135.519531 23.585938 C 135.664062 23.828125 135.84375 24.039062 136.066406 24.210938 C 135.679688 24.019531 135.375 23.742188 135.144531 23.375 C 134.917969 23.007812 134.804688 22.605469 134.804688 22.175781 Z M 134.804688 22.171875 "/><path style=" stroke:none;fill-rule:nonzero;fill:#0097b2;fill-opacity:1;" d="M 112.71875 16.070312 C 112.71875 16.417969 112.785156 16.753906 112.917969 17.078125 C 113.054688 17.402344 113.242188 17.6875 113.492188 17.933594 C 113.738281 18.179688 114.023438 18.371094 114.347656 18.503906 C 114.671875 18.640625 115.007812 18.707031 115.355469 18.707031 C 115.707031 18.707031 116.042969 18.640625 116.367188 18.503906 C 116.6875 18.371094 116.972656 18.179688 117.222656 17.933594 C 117.46875 17.6875 117.660156 17.402344 117.792969 17.078125 C 117.925781 16.753906 117.992188 16.417969 117.992188 16.070312 C 117.992188 15.71875 117.925781 15.382812 117.792969 15.058594 C 117.660156 14.734375 117.46875 14.449219 117.222656 14.203125 C 116.972656 13.957031 116.6875 13.765625 116.367188 13.632812 C 116.042969 13.496094 115.707031 13.429688 115.355469 13.429688 C 115.007812 13.429688 114.671875 13.496094 114.347656 13.632812 C 114.023438 13.765625 113.738281 13.957031 113.492188 14.203125 C 113.242188 14.449219 113.054688 14.734375 112.917969 15.058594 C 112.785156 15.382812 112.71875 15.71875 112.71875 16.070312 Z M 113.054688 15.976562 C 113.054688 15.535156 113.171875 15.132812 113.40625 14.761719 C 113.640625 14.394531 113.957031 14.113281 114.351562 13.925781 C 114.746094 13.738281 115.160156 13.671875 115.597656 13.722656 C 116.03125 13.773438 116.417969 13.9375 116.757812 14.214844 C 116.507812 14.09375 116.246094 14.019531 115.96875 13.996094 C 115.691406 13.96875 115.417969 13.996094 115.152344 14.070312 C 114.882812 14.144531 114.636719 14.265625 114.414062 14.429688 C 114.191406 14.597656 114.003906 14.796875 113.851562 15.03125 C 113.703125 15.265625 113.601562 15.519531 113.542969 15.789062 C 113.484375 16.0625 113.480469 16.335938 113.523438 16.609375 C 113.566406 16.886719 113.65625 17.144531 113.796875 17.386719 C 113.933594 17.625 114.113281 17.835938 114.328125 18.011719 C 113.9375 17.820312 113.628906 17.542969 113.398438 17.175781 C 113.167969 16.808594 113.050781 16.40625 113.050781 15.976562 Z M 113.054688 15.976562 "/><g clip-rule="nonzero" clip-path="url(#c68335f734)"><path style=" stroke:none;fill-rule:nonzero;fill:#0097b2;fill-opacity:1;" d="M 82.105469 7.804688 C 82.105469 8.15625 82.175781 8.492188 82.308594 8.816406 C 82.441406 9.136719 82.632812 9.421875 82.878906 9.671875 C 83.128906 9.917969 83.414062 10.109375 83.734375 10.242188 C 84.058594 10.375 84.394531 10.441406 84.746094 10.441406 C 85.09375 10.441406 85.429688 10.375 85.753906 10.242188 C 86.078125 10.109375 86.363281 9.917969 86.609375 9.671875 C 86.855469 9.421875 87.046875 9.136719 87.183594 8.816406 C 87.316406 8.492188 87.382812 8.15625 87.382812 7.804688 C 87.382812 7.457031 87.316406 7.121094 87.183594 6.796875 C 87.046875 6.472656 86.855469 6.1875 86.609375 5.941406 C 86.363281 5.691406 86.078125 5.503906 85.753906 5.367188 C 85.429688 5.234375 85.09375 5.167969 84.746094 5.167969 C 84.394531 5.167969 84.058594 5.234375 83.734375 5.367188 C 83.414062 5.503906 83.128906 5.691406 82.878906 5.941406 C 82.632812 6.1875 82.441406 6.472656 82.308594 6.796875 C 82.175781 7.121094 82.105469 7.457031 82.105469 7.804688 Z M 82.441406 7.710938 C 82.441406 7.273438 82.558594 6.871094 82.792969 6.5 C 83.027344 6.128906 83.34375 5.851562 83.738281 5.664062 C 84.136719 5.472656 84.550781 5.40625 84.984375 5.460938 C 85.421875 5.511719 85.808594 5.679688 86.148438 5.953125 C 85.832031 5.800781 85.5 5.71875 85.152344 5.71875 C 84.671875 5.722656 84.238281 5.859375 83.84375 6.136719 C 83.453125 6.414062 83.175781 6.777344 83.015625 7.230469 C 82.855469 7.679688 82.839844 8.136719 82.96875 8.597656 C 83.097656 9.0625 83.34375 9.445312 83.714844 9.75 C 83.324219 9.558594 83.015625 9.277344 82.785156 8.90625 C 82.554688 8.539062 82.441406 8.136719 82.441406 7.703125 Z M 82.441406 7.710938 "/></g><path style=" stroke:none;fill-rule:nonzero;fill:#0097b2;fill-opacity:1;" d="M 63.894531 9.890625 C 63.722656 9.890625 63.554688 9.925781 63.398438 9.988281 C 63.238281 10.054688 63.097656 10.148438 62.976562 10.269531 C 62.855469 10.390625 62.761719 10.53125 62.695312 10.691406 C 62.632812 10.847656 62.597656 11.015625 62.597656 11.183594 C 62.597656 11.355469 62.632812 11.523438 62.695312 11.679688 C 62.761719 11.839844 62.855469 11.980469 62.976562 12.101562 C 63.097656 12.222656 63.238281 12.316406 63.398438 12.382812 C 63.554688 12.445312 63.722656 12.480469 63.894531 12.480469 C 64.0625 12.480469 64.230469 12.445312 64.386719 12.382812 C 64.546875 12.316406 64.6875 12.222656 64.808594 12.101562 C 64.929688 11.980469 65.023438 11.839844 65.089844 11.679688 C 65.152344 11.523438 65.1875 11.355469 65.1875 11.183594 C 65.1875 11.015625 65.152344 10.847656 65.089844 10.691406 C 65.023438 10.53125 64.929688 10.390625 64.808594 10.269531 C 64.6875 10.148438 64.546875 10.054688 64.386719 9.988281 C 64.230469 9.925781 64.0625 9.890625 63.894531 9.890625 Z M 64.398438 12.136719 C 64.578125 11.988281 64.703125 11.800781 64.765625 11.574219 C 64.828125 11.347656 64.820312 11.121094 64.742188 10.902344 C 64.664062 10.679688 64.527344 10.5 64.335938 10.363281 C 64.140625 10.230469 63.929688 10.160156 63.691406 10.160156 C 63.519531 10.160156 63.359375 10.199219 63.203125 10.277344 C 63.410156 10.109375 63.644531 10.023438 63.910156 10.023438 C 64.167969 10.023438 64.398438 10.105469 64.601562 10.265625 C 64.808594 10.425781 64.9375 10.632812 64.996094 10.886719 C 65.054688 11.140625 65.027344 11.382812 64.917969 11.617188 C 64.804688 11.851562 64.632812 12.023438 64.398438 12.140625 Z M 64.398438 12.136719 "/><path style=" stroke:none;fill-rule:nonzero;fill:#ffffff;fill-opacity:1;" d="M 70.269531 12.480469 C 70.097656 12.480469 69.933594 12.511719 69.773438 12.578125 C 69.617188 12.644531 69.476562 12.738281 69.355469 12.859375 C 69.234375 12.980469 69.140625 13.121094 69.074219 13.277344 C 69.007812 13.4375 68.976562 13.601562 68.976562 13.773438 C 68.976562 13.945312 69.007812 14.113281 69.074219 14.269531 C 69.140625 14.429688 69.234375 14.570312 69.355469 14.691406 C 69.476562 14.8125 69.617188 14.90625 69.777344 14.96875 C 69.933594 15.035156 70.097656 15.066406 70.269531 15.066406 C 70.441406 15.066406 70.609375 15.035156 70.765625 14.96875 C 70.925781 14.902344 71.066406 14.808594 71.1875 14.6875 C 71.308594 14.566406 71.402344 14.425781 71.464844 14.265625 C 71.53125 14.109375 71.5625 13.941406 71.5625 13.773438 C 71.5625 13.601562 71.53125 13.433594 71.464844 13.277344 C 71.398438 13.117188 71.304688 12.980469 71.183594 12.859375 C 71.0625 12.738281 70.921875 12.644531 70.765625 12.578125 C 70.605469 12.511719 70.441406 12.480469 70.269531 12.480469 Z M 70.773438 14.726562 C 70.957031 14.578125 71.078125 14.386719 71.140625 14.160156 C 71.207031 13.933594 71.199219 13.710938 71.117188 13.488281 C 71.039062 13.265625 70.902344 13.089844 70.710938 12.953125 C 70.519531 12.816406 70.304688 12.75 70.070312 12.75 C 69.898438 12.75 69.734375 12.789062 69.582031 12.863281 C 69.785156 12.695312 70.019531 12.613281 70.285156 12.613281 C 70.546875 12.613281 70.777344 12.691406 70.980469 12.855469 C 71.183594 13.015625 71.316406 13.222656 71.375 13.476562 C 71.433594 13.726562 71.40625 13.972656 71.292969 14.207031 C 71.183594 14.441406 71.011719 14.613281 70.777344 14.726562 Z M 70.773438 14.726562 "/><path style=" stroke:none;fill-rule:nonzero;fill:#0097b2;fill-opacity:1;" d="M 124.019531 11.183594 C 123.847656 11.183594 123.683594 11.21875 123.523438 11.285156 C 123.363281 11.351562 123.226562 11.441406 123.101562 11.566406 C 122.980469 11.6875 122.886719 11.824219 122.824219 11.984375 C 122.757812 12.144531 122.722656 12.308594 122.722656 12.480469 C 122.722656 12.652344 122.757812 12.816406 122.824219 12.976562 C 122.886719 13.132812 122.980469 13.273438 123.101562 13.394531 C 123.226562 13.515625 123.363281 13.609375 123.523438 13.675781 C 123.683594 13.742188 123.847656 13.773438 124.019531 13.773438 C 124.191406 13.773438 124.355469 13.742188 124.515625 13.675781 C 124.671875 13.609375 124.8125 13.515625 124.933594 13.394531 C 125.054688 13.273438 125.148438 13.132812 125.214844 12.976562 C 125.28125 12.816406 125.3125 12.652344 125.3125 12.480469 C 125.3125 12.308594 125.28125 12.144531 125.214844 11.984375 C 125.148438 11.824219 125.054688 11.6875 124.933594 11.566406 C 124.8125 11.441406 124.671875 11.351562 124.515625 11.285156 C 124.355469 11.21875 124.191406 11.183594 124.019531 11.183594 Z M 124.519531 13.429688 C 124.742188 13.253906 124.875 13.023438 124.921875 12.746094 C 124.964844 12.464844 124.914062 12.207031 124.757812 11.96875 C 124.605469 11.726562 124.394531 11.570312 124.121094 11.496094 C 123.847656 11.417969 123.585938 11.445312 123.332031 11.570312 C 123.535156 11.402344 123.769531 11.320312 124.035156 11.320312 C 124.296875 11.316406 124.527344 11.394531 124.734375 11.558594 C 124.9375 11.71875 125.070312 11.925781 125.128906 12.179688 C 125.1875 12.433594 125.160156 12.679688 125.046875 12.914062 C 124.933594 13.148438 124.757812 13.320312 124.523438 13.433594 Z M 124.519531 13.429688 "/><path style=" stroke:none;fill-rule:nonzero;fill:#0097b2;fill-opacity:1;" d="M 71.007812 24.90625 C 71.007812 25.179688 70.957031 25.441406 70.851562 25.691406 C 70.75 25.945312 70.601562 26.167969 70.410156 26.359375 C 70.214844 26.550781 69.992188 26.699219 69.742188 26.804688 C 69.492188 26.90625 69.230469 26.960938 68.957031 26.960938 C 68.683594 26.960938 68.421875 26.90625 68.171875 26.804688 C 67.917969 26.699219 67.699219 26.550781 67.503906 26.359375 C 67.3125 26.167969 67.164062 25.945312 67.058594 25.691406 C 66.957031 25.441406 66.902344 25.179688 66.902344 24.90625 C 66.902344 24.632812 66.957031 24.371094 67.058594 24.121094 C 67.164062 23.871094 67.3125 23.648438 67.503906 23.457031 C 67.699219 23.261719 67.917969 23.113281 68.171875 23.011719 C 68.421875 22.90625 68.683594 22.855469 68.957031 22.855469 C 69.230469 22.855469 69.492188 22.90625 69.742188 23.011719 C 69.992188 23.113281 70.214844 23.261719 70.40625 23.457031 C 70.601562 23.648438 70.75 23.871094 70.851562 24.121094 C 70.957031 24.371094 71.007812 24.632812 71.007812 24.90625 Z M 71.007812 24.90625 "/><path style=" stroke:none;fill-rule:nonzero;fill:#ffffff;fill-opacity:1;" d="M 131.496094 47.203125 C 131.496094 47.476562 131.441406 47.738281 131.339844 47.988281 C 131.234375 48.242188 131.085938 48.460938 130.894531 48.65625 C 130.699219 48.847656 130.480469 48.996094 130.226562 49.101562 C 129.976562 49.203125 129.714844 49.257812 129.441406 49.257812 C 129.167969 49.257812 128.90625 49.203125 128.65625 49.101562 C 128.40625 48.996094 128.183594 48.847656 127.988281 48.65625 C 127.796875 48.460938 127.648438 48.242188 127.546875 47.988281 C 127.441406 47.738281 127.390625 47.476562 127.390625 47.203125 C 127.390625 46.929688 127.441406 46.667969 127.546875 46.417969 C 127.648438 46.167969 127.796875 45.945312 127.988281 45.753906 C 128.183594 45.558594 128.40625 45.410156 128.65625 45.308594 C 128.90625 45.203125 129.167969 45.152344 129.441406 45.152344 C 129.714844 45.152344 129.976562 45.203125 130.226562 45.308594 C 130.480469 45.410156 130.699219 45.558594 130.894531 45.753906 C 131.085938 45.945312 131.234375 46.167969 131.339844 46.417969 C 131.441406 46.667969 131.496094 46.929688 131.496094 47.203125 Z M 131.496094 47.203125 "/><path style=" stroke:none;fill-rule:nonzero;fill:#0097b2;fill-opacity:1;" d="M 62.832031 42.636719 C 62.339844 42.636719 61.863281 42.730469 61.410156 42.917969 C 60.953125 43.105469 60.550781 43.375 60.203125 43.722656 C 59.851562 44.074219 59.585938 44.476562 59.394531 44.929688 C 59.207031 45.386719 59.113281 45.859375 59.113281 46.351562 C 59.113281 45.859375 59.019531 45.386719 58.828125 44.929688 C 58.640625 44.476562 58.371094 44.074219 58.023438 43.722656 C 57.675781 43.375 57.273438 43.105469 56.816406 42.917969 C 56.363281 42.730469 55.886719 42.636719 55.394531 42.636719 C 55.886719 42.636719 56.363281 42.539062 56.816406 42.351562 C 57.273438 42.164062 57.675781 41.894531 58.023438 41.546875 C 58.371094 41.199219 58.640625 40.796875 58.828125 40.339844 C 59.019531 39.882812 59.113281 39.410156 59.113281 38.917969 C 59.113281 39.410156 59.207031 39.882812 59.394531 40.339844 C 59.585938 40.796875 59.851562 41.199219 60.203125 41.546875 C 60.550781 41.894531 60.953125 42.164062 61.410156 42.351562 C 61.863281 42.539062 62.339844 42.636719 62.832031 42.636719 Z M 62.832031 42.636719 "/><path style=" stroke:none;fill-rule:nonzero;fill:#0097b2;fill-opacity:1;" d="M 97.046875 22.855469 C 97.046875 23.347656 96.949219 23.824219 96.761719 24.28125 C 96.574219 24.734375 96.304688 25.136719 95.957031 25.484375 C 95.609375 25.835938 95.207031 26.101562 94.75 26.292969 C 94.292969 26.480469 93.820312 26.574219 93.328125 26.574219 C 92.835938 26.574219 92.359375 26.480469 91.90625 26.292969 C 91.449219 26.101562 91.046875 25.835938 90.699219 25.484375 C 90.347656 25.136719 90.082031 24.734375 89.890625 24.28125 C 89.703125 23.824219 89.609375 23.347656 89.609375 22.855469 C 89.609375 22.363281 89.703125 21.890625 89.890625 21.433594 C 90.082031 20.976562 90.347656 20.574219 90.699219 20.226562 C 91.046875 19.878906 91.449219 19.609375 91.90625 19.421875 C 92.359375 19.234375 92.835938 19.136719 93.328125 19.136719 C 93.820312 19.136719 94.292969 19.234375 94.75 19.421875 C 95.207031 19.609375 95.609375 19.878906 95.957031 20.226562 C 96.304688 20.574219 96.574219 20.976562 96.761719 21.433594 C 96.949219 21.890625 97.046875 22.363281 97.046875 22.855469 Z M 97.046875 22.855469 "/><path style=" stroke:none;fill-rule:nonzero;fill:#ffffff;fill-opacity:1;" d="M 139.121094 33.539062 C 138.945312 33.539062 138.78125 33.570312 138.621094 33.636719 C 138.457031 33.703125 138.316406 33.800781 138.195312 33.921875 C 138.070312 34.046875 137.976562 34.1875 137.910156 34.347656 C 137.84375 34.507812 137.808594 34.675781 137.808594 34.847656 C 137.808594 34.675781 137.777344 34.507812 137.710938 34.347656 C 137.644531 34.1875 137.550781 34.042969 137.425781 33.921875 C 137.300781 33.796875 137.160156 33.703125 137 33.636719 C 136.839844 33.570312 136.671875 33.539062 136.496094 33.539062 C 136.671875 33.539062 136.839844 33.503906 137 33.4375 C 137.160156 33.371094 137.300781 33.277344 137.425781 33.152344 C 137.550781 33.03125 137.644531 32.890625 137.710938 32.726562 C 137.777344 32.566406 137.808594 32.398438 137.808594 32.226562 C 137.808594 32.398438 137.84375 32.566406 137.910156 32.726562 C 137.976562 32.890625 138.070312 33.03125 138.195312 33.152344 C 138.316406 33.277344 138.457031 33.371094 138.617188 33.4375 C 138.78125 33.503906 138.945312 33.539062 139.121094 33.539062 Z M 139.121094 33.539062 "/><path style=" stroke:none;fill-rule:nonzero;fill:#ffffff;fill-opacity:1;" d="M 100.519531 12.792969 C 100.34375 12.792969 100.175781 12.824219 100.015625 12.890625 C 99.855469 12.957031 99.714844 13.054688 99.589844 13.175781 C 99.46875 13.300781 99.371094 13.441406 99.304688 13.601562 C 99.238281 13.761719 99.207031 13.929688 99.207031 14.105469 C 99.207031 13.929688 99.171875 13.761719 99.105469 13.601562 C 99.039062 13.441406 98.945312 13.300781 98.824219 13.175781 C 98.699219 13.054688 98.558594 12.957031 98.398438 12.890625 C 98.238281 12.824219 98.070312 12.792969 97.894531 12.792969 C 98.070312 12.792969 98.238281 12.757812 98.398438 12.691406 C 98.558594 12.625 98.699219 12.53125 98.824219 12.410156 C 98.945312 12.285156 99.039062 12.144531 99.105469 11.984375 C 99.171875 11.824219 99.207031 11.65625 99.207031 11.480469 C 99.207031 11.65625 99.238281 11.824219 99.308594 11.984375 C 99.375 12.144531 99.46875 12.285156 99.589844 12.410156 C 99.714844 12.53125 99.855469 12.625 100.015625 12.691406 C 100.179688 12.757812 100.34375 12.792969 100.519531 12.792969 Z M 100.519531 12.792969 "/><path style=" stroke:none;fill-rule:nonzero;fill:#ffffff;fill-opacity:1;" d="M 53.753906 19.632812 C 53.753906 19.804688 53.722656 19.972656 53.65625 20.132812 C 53.589844 20.292969 53.496094 20.433594 53.371094 20.558594 C 53.25 20.679688 53.105469 20.777344 52.945312 20.84375 C 52.785156 20.910156 52.617188 20.941406 52.445312 20.941406 C 52.269531 20.941406 52.105469 20.910156 51.945312 20.84375 C 51.78125 20.777344 51.640625 20.679688 51.519531 20.558594 C 51.394531 20.433594 51.300781 20.292969 51.234375 20.132812 C 51.167969 19.972656 51.132812 19.804688 51.132812 19.632812 C 51.132812 19.457031 51.167969 19.289062 51.234375 19.128906 C 51.300781 18.96875 51.394531 18.828125 51.519531 18.703125 C 51.640625 18.582031 51.78125 18.488281 51.945312 18.421875 C 52.105469 18.355469 52.269531 18.320312 52.445312 18.320312 C 52.617188 18.320312 52.785156 18.355469 52.945312 18.421875 C 53.105469 18.488281 53.25 18.582031 53.371094 18.703125 C 53.496094 18.828125 53.589844 18.96875 53.65625 19.128906 C 53.722656 19.289062 53.753906 19.457031 53.753906 19.632812 Z M 53.753906 19.632812 "/><path style=" stroke:none;fill-rule:nonzero;fill:#ffffff;fill-opacity:1;" d="M 125.328125 19.632812 C 125.15625 19.632812 124.988281 19.664062 124.828125 19.730469 C 124.667969 19.796875 124.523438 19.894531 124.402344 20.015625 C 124.277344 20.140625 124.183594 20.28125 124.117188 20.441406 C 124.050781 20.601562 124.019531 20.769531 124.019531 20.945312 C 124.019531 20.769531 123.984375 20.601562 123.917969 20.441406 C 123.851562 20.28125 123.757812 20.140625 123.632812 20.015625 C 123.511719 19.894531 123.367188 19.796875 123.207031 19.730469 C 123.046875 19.664062 122.878906 19.632812 122.707031 19.632812 C 122.878906 19.632812 123.046875 19.597656 123.207031 19.53125 C 123.367188 19.464844 123.511719 19.371094 123.632812 19.25 C 123.757812 19.125 123.851562 18.984375 123.917969 18.824219 C 123.984375 18.664062 124.019531 18.496094 124.019531 18.320312 C 124.019531 18.496094 124.050781 18.660156 124.117188 18.824219 C 124.183594 18.984375 124.28125 19.125 124.402344 19.246094 C 124.523438 19.371094 124.667969 19.464844 124.828125 19.53125 C 124.988281 19.597656 125.15625 19.632812 125.328125 19.632812 Z M 125.328125 19.632812 "/><path style=" stroke:none;fill-rule:nonzero;fill:#ffffff;fill-opacity:1;" d="M 130.753906 22.828125 C 130.753906 23.003906 130.71875 23.167969 130.652344 23.328125 C 130.585938 23.492188 130.492188 23.632812 130.367188 23.753906 C 130.246094 23.878906 130.105469 23.972656 129.941406 24.039062 C 129.78125 24.105469 129.617188 24.140625 129.441406 24.140625 C 129.269531 24.140625 129.101562 24.105469 128.941406 24.039062 C 128.78125 23.972656 128.636719 23.878906 128.515625 23.753906 C 128.390625 23.632812 128.296875 23.492188 128.230469 23.328125 C 128.164062 23.167969 128.132812 23.003906 128.132812 22.828125 C 128.132812 22.65625 128.164062 22.488281 128.230469 22.328125 C 128.296875 22.167969 128.390625 22.023438 128.515625 21.902344 C 128.636719 21.777344 128.78125 21.683594 128.941406 21.617188 C 129.101562 21.550781 129.269531 21.519531 129.441406 21.519531 C 129.617188 21.519531 129.78125 21.550781 129.941406 21.617188 C 130.105469 21.683594 130.246094 21.777344 130.367188 21.902344 C 130.492188 22.023438 130.585938 22.167969 130.652344 22.328125 C 130.71875 22.488281 130.753906 22.65625 130.753906 22.828125 Z M 130.753906 22.828125 "/><path style=" stroke:none;fill-rule:nonzero;fill:#fe5d26;fill-opacity:1;" d="M 86.21875 37.625 C 79.222656 38.332031 71.421875 38.347656 68.976562 38.347656 L 86.195312 36.246094 C 86.105469 36.449219 85.96875 36.609375 85.78125 36.726562 C 85.597656 36.847656 85.394531 36.90625 85.175781 36.90625 C 85.40625 36.90625 85.617188 36.972656 85.808594 37.105469 C 86 37.234375 86.136719 37.410156 86.21875 37.625 Z M 86.21875 37.625 "/><path style=" stroke:none;fill-rule:nonzero;fill:#fe5d26;fill-opacity:1;" d="M 87.40625 36.90625 C 87.179688 36.90625 86.976562 36.84375 86.789062 36.71875 C 86.601562 36.597656 86.464844 36.429688 86.378906 36.222656 L 97.601562 34.855469 C 94.050781 36.558594 90.304688 37.476562 86.371094 37.609375 C 86.453125 37.398438 86.589844 37.226562 86.78125 37.097656 C 86.96875 36.972656 87.179688 36.90625 87.40625 36.90625 Z M 87.40625 36.90625 "/><g style="fill:#0097b2;fill-opacity:1;"><g transform="translate(1.52969, 70.128721)"><path style="stroke:none" d="M 0 -17.703125 L 7.96875 -17.703125 L 7.96875 -13.28125 L 4.421875 -13.28125 L 4.421875 -10.625 L 7.96875 -10.625 L 7.96875 -6.1875 L 4.421875 -6.1875 L 4.421875 -3.546875 L 7.96875 -3.546875 L 7.96875 0.890625 L 0 0.890625 Z M 0 -17.703125 "/></g></g><g style="fill:#0097b2;fill-opacity:1;"><g transform="translate(10.381194, 70.128721)"><path style="stroke:none" d="M 0 -17.703125 L 7.078125 -17.703125 C 7.578125 -17.703125 8.019531 -17.40625 8.40625 -16.8125 C 8.789062 -17.40625 9.234375 -17.703125 9.734375 -17.703125 L 13.28125 -17.703125 C 15.632812 -17.703125 16.8125 -16.519531 16.8125 -14.15625 L 16.8125 0.890625 L 12.390625 0.890625 L 12.390625 -13.28125 L 10.625 -13.28125 L 10.625 0.890625 L 6.1875 0.890625 L 6.1875 -13.28125 L 4.421875 -13.28125 L 4.421875 0.890625 L 0 0.890625 Z M 0 -17.703125 "/></g></g><g style="fill:#0097b2;fill-opacity:1;"><g transform="translate(28.084201, 70.128721)"><path style="stroke:none" d="M 6.1875 -3.546875 L 6.1875 -6.1875 L 4.421875 -6.1875 L 4.421875 -3.546875 Z M 4.421875 -13.28125 L 4.421875 -10.625 L 6.1875 -10.625 L 6.1875 -13.28125 Z M 0 -17.703125 L 7.078125 -17.703125 C 9.441406 -17.703125 10.625 -16.519531 10.625 -14.15625 L 10.625 -12.390625 C 10.625 -10.023438 9.738281 -8.695312 7.96875 -8.40625 C 9.738281 -8.113281 10.625 -6.785156 10.625 -4.421875 L 10.625 -2.65625 C 10.625 -0.289062 9.441406 0.890625 7.078125 0.890625 L 0 0.890625 Z M 0 -17.703125 "/></g></g><g style="fill:#0097b2;fill-opacity:1;"><g transform="translate(39.591156, 70.128721)"><path style="stroke:none" d="M 0 -17.703125 L 7.96875 -17.703125 L 7.96875 -13.28125 L 4.421875 -13.28125 L 4.421875 -10.625 L 7.96875 -10.625 L 7.96875 -6.1875 L 4.421875 -6.1875 L 4.421875 -3.546875 L 7.96875 -3.546875 L 7.96875 0.890625 L 0 0.890625 Z M 0 -17.703125 "/></g></g><g style="fill:#0097b2;fill-opacity:1;"><g transform="translate(48.44266, 70.128721)"><path style="stroke:none" d="M 0 -17.703125 L 4.421875 -17.703125 L 4.421875 -3.546875 L 7.96875 -3.546875 L 7.96875 0.890625 L 0 0.890625 Z M 0 -17.703125 "/></g></g><g style="fill:#0097b2;fill-opacity:1;"><g transform="translate(57.294163, 70.128721)"><path style="stroke:none" d="M 0 -17.703125 L 7.96875 -17.703125 L 7.96875 -13.28125 L 4.421875 -13.28125 L 4.421875 -10.625 L 7.96875 -10.625 L 7.96875 -6.1875 L 4.421875 -6.1875 L 4.421875 -3.546875 L 7.96875 -3.546875 L 7.96875 0.890625 L 0 0.890625 Z M 0 -17.703125 "/></g></g><g style="fill:#0097b2;fill-opacity:1;"><g transform="translate(66.145667, 70.128721)"><path style="stroke:none" d="M 9.734375 -17.703125 L 9.734375 -13.28125 L 4.421875 -3.546875 L 9.734375 -3.546875 L 9.734375 0.890625 L 0 0.890625 L 0 -3.546875 L 5.3125 -13.28125 L 0 -13.28125 L 0 -17.703125 Z M 9.734375 -17.703125 "/></g></g><g style="fill:#0097b2;fill-opacity:1;"><g transform="translate(76.767471, 70.128721)"><path style="stroke:none" d="M 0 -17.703125 L 7.078125 -17.703125 C 9.441406 -17.703125 10.625 -16.519531 10.625 -14.15625 L 10.625 0.890625 L 6.1875 0.890625 L 6.1875 -6.1875 L 4.421875 -6.1875 L 4.421875 0.890625 L 0 0.890625 Z M 4.421875 -10.625 L 6.1875 -10.625 L 6.1875 -13.28125 L 4.421875 -13.28125 Z M 4.421875 -10.625 "/></g></g><g style="fill:#0097b2;fill-opacity:1;"><g transform="translate(88.274426, 70.128721)"><path style="stroke:none" d="M 0 -17.703125 L 7.078125 -17.703125 C 7.578125 -17.703125 8.019531 -17.40625 8.40625 -16.8125 C 8.789062 -17.40625 9.234375 -17.703125 9.734375 -17.703125 L 13.28125 -17.703125 C 15.632812 -17.703125 16.8125 -16.519531 16.8125 -14.15625 L 16.8125 0.890625 L 12.390625 0.890625 L 12.390625 -13.28125 L 10.625 -13.28125 L 10.625 0.890625 L 6.1875 0.890625 L 6.1875 -13.28125 L 4.421875 -13.28125 L 4.421875 0.890625 L 0 0.890625 Z M 0 -17.703125 "/></g></g><g style="fill:#0097b2;fill-opacity:1;"><g transform="translate(105.977433, 70.128721)"><path style="stroke:none" d="M 0 -17.703125 L 7.96875 -17.703125 L 7.96875 -13.28125 L 4.421875 -13.28125 L 4.421875 -10.625 L 7.96875 -10.625 L 7.96875 -6.1875 L 4.421875 -6.1875 L 4.421875 -3.546875 L 7.96875 -3.546875 L 7.96875 0.890625 L 0 0.890625 Z M 0 -17.703125 "/></g></g><g style="fill:#0097b2;fill-opacity:1;"><g transform="translate(114.828937, 70.128721)"><path style="stroke:none" d="M 0 -17.703125 L 7.078125 -17.703125 C 9.441406 -17.703125 10.625 -16.519531 10.625 -14.15625 L 10.625 0.890625 L 6.1875 0.890625 L 6.1875 -13.28125 L 4.421875 -13.28125 L 4.421875 0.890625 L 0 0.890625 Z M 0 -17.703125 "/></g></g><g style="fill:#0097b2;fill-opacity:1;"><g transform="translate(126.335892, 70.128721)"><path style="stroke:none" d="M 2.65625 -13.28125 L 0 -13.28125 L 0 -17.703125 L 9.734375 -17.703125 L 9.734375 -13.28125 L 7.078125 -13.28125 L 7.078125 0.890625 L 2.65625 0.890625 Z M 2.65625 -13.28125 "/></g></g><g style="fill:#0097b2;fill-opacity:1;"><g transform="translate(136.957696, 70.128721)"><path style="stroke:none" d="M 4.421875 -13.28125 L 4.421875 -3.546875 L 6.1875 -3.546875 L 6.1875 -13.28125 Z M 0 -14.15625 C 0 -16.519531 1.179688 -17.703125 3.546875 -17.703125 L 7.078125 -17.703125 C 9.441406 -17.703125 10.625 -16.519531 10.625 -14.15625 L 10.625 -2.65625 C 10.625 -0.289062 9.441406 0.890625 7.078125 0.890625 L 3.546875 0.890625 C 1.179688 0.890625 0 -0.289062 0 -2.65625 Z M 0 -14.15625 "/></g></g><g style="fill:#fe5d26;fill-opacity:1;"><g transform="translate(23.561464, 77.742355)"><path style="stroke:none" d="M 2.90625 0.265625 C 2.101562 0.265625 1.476562 0.046875 1.03125 -0.390625 C 0.582031 -0.828125 0.359375 -1.378906 0.359375 -2.046875 C 0.359375 -2.585938 0.5 -3.035156 0.78125 -3.390625 C 1.070312 -3.753906 1.460938 -4.050781 1.953125 -4.28125 C 2.441406 -4.519531 2.988281 -4.71875 3.59375 -4.875 C 4.195312 -5.03125 4.816406 -5.179688 5.453125 -5.328125 L 5.453125 -6.65625 C 5.453125 -7.40625 5.394531 -7.960938 5.28125 -8.328125 C 5.175781 -8.691406 4.96875 -8.875 4.65625 -8.875 C 4.476562 -8.875 4.304688 -8.773438 4.140625 -8.578125 C 3.972656 -8.378906 3.867188 -8.078125 3.828125 -7.671875 C 3.796875 -7.265625 3.882812 -6.742188 4.09375 -6.109375 C 3.445312 -5.859375 2.890625 -5.753906 2.421875 -5.796875 C 1.953125 -5.847656 1.59375 -6.003906 1.34375 -6.265625 C 1.101562 -6.523438 0.984375 -6.835938 0.984375 -7.203125 C 0.984375 -7.597656 1.144531 -7.953125 1.46875 -8.265625 C 1.789062 -8.585938 2.242188 -8.84375 2.828125 -9.03125 C 3.421875 -9.226562 4.101562 -9.328125 4.875 -9.328125 C 7.59375 -9.328125 8.953125 -8.148438 8.953125 -5.796875 L 8.953125 -1.671875 C 8.953125 -1.378906 9.078125 -1.234375 9.328125 -1.234375 C 9.429688 -1.234375 9.523438 -1.253906 9.609375 -1.296875 C 9.703125 -1.335938 9.8125 -1.394531 9.9375 -1.46875 L 10.15625 -1.140625 C 9.8125 -0.742188 9.40625 -0.414062 8.9375 -0.15625 C 8.46875 0.101562 7.953125 0.234375 7.390625 0.234375 C 6.910156 0.234375 6.515625 0.132812 6.203125 -0.0625 C 5.890625 -0.257812 5.671875 -0.582031 5.546875 -1.03125 C 5.410156 -0.875 5.222656 -0.691406 4.984375 -0.484375 C 4.742188 -0.285156 4.453125 -0.113281 4.109375 0.03125 C 3.765625 0.1875 3.363281 0.265625 2.90625 0.265625 Z M 4.515625 -1 C 4.722656 -1 4.898438 -1.046875 5.046875 -1.140625 C 5.203125 -1.234375 5.335938 -1.359375 5.453125 -1.515625 L 5.453125 -4.9375 C 4.703125 -4.644531 4.1875 -4.289062 3.90625 -3.875 C 3.625 -3.46875 3.484375 -2.984375 3.484375 -2.421875 C 3.484375 -1.953125 3.578125 -1.597656 3.765625 -1.359375 C 3.960938 -1.117188 4.210938 -1 4.515625 -1 Z M 4.515625 -1 "/></g></g><g style="fill:#fe5d26;fill-opacity:1;"><g transform="translate(33.568036, 77.742355)"><path style="stroke:none" d="M 4.03125 0.265625 C 3.125 0.265625 2.425781 0.0078125 1.9375 -0.5 C 1.457031 -1.007812 1.21875 -1.75 1.21875 -2.71875 L 1.21875 -7.515625 C 1.21875 -7.785156 1.132812 -7.976562 0.96875 -8.09375 C 0.800781 -8.21875 0.59375 -8.28125 0.34375 -8.28125 L 0.34375 -8.71875 C 0.738281 -8.726562 1.195312 -8.753906 1.71875 -8.796875 C 2.25 -8.847656 2.765625 -8.921875 3.265625 -9.015625 C 3.773438 -9.117188 4.191406 -9.242188 4.515625 -9.390625 L 4.71875 -9.28125 L 4.71875 -3.015625 C 4.71875 -2.335938 4.796875 -1.820312 4.953125 -1.46875 C 5.109375 -1.125 5.390625 -0.953125 5.796875 -0.953125 C 6.222656 -0.953125 6.601562 -1.210938 6.9375 -1.734375 L 6.9375 -7.515625 C 6.9375 -7.785156 6.851562 -7.976562 6.6875 -8.09375 C 6.53125 -8.21875 6.328125 -8.28125 6.078125 -8.28125 L 6.078125 -8.71875 C 6.472656 -8.726562 6.929688 -8.753906 7.453125 -8.796875 C 7.984375 -8.847656 8.5 -8.921875 9 -9.015625 C 9.5 -9.117188 9.910156 -9.242188 10.234375 -9.390625 L 10.4375 -9.28125 L 10.4375 -1.625 C 10.4375 -1.34375 10.566406 -1.203125 10.828125 -1.203125 C 10.921875 -1.203125 11.007812 -1.222656 11.09375 -1.265625 C 11.1875 -1.304688 11.296875 -1.363281 11.421875 -1.4375 L 11.640625 -1.109375 C 11.296875 -0.703125 10.882812 -0.367188 10.40625 -0.109375 C 9.9375 0.140625 9.421875 0.265625 8.859375 0.265625 C 8.359375 0.253906 7.945312 0.140625 7.625 -0.078125 C 7.300781 -0.296875 7.09375 -0.65625 7 -1.15625 C 6.5625 -0.601562 6.113281 -0.226562 5.65625 -0.03125 C 5.195312 0.164062 4.65625 0.265625 4.03125 0.265625 Z M 4.03125 0.265625 "/></g></g><g style="fill:#fe5d26;fill-opacity:1;"><g transform="translate(45.206116, 77.742355)"><path style="stroke:none" d="M 4.21875 0.265625 C 2.226562 0.265625 1.234375 -0.816406 1.234375 -2.984375 L 1.234375 -8.34375 L 0.3125 -8.34375 L 0.3125 -8.765625 C 1.34375 -8.765625 2.203125 -9.035156 2.890625 -9.578125 C 3.578125 -10.128906 4.035156 -10.847656 4.265625 -11.734375 L 4.734375 -11.703125 L 4.734375 -8.765625 L 7.15625 -8.765625 L 7.15625 -8.34375 L 4.734375 -8.34375 L 4.734375 -2.296875 C 4.734375 -1.296875 5.066406 -0.796875 5.734375 -0.796875 C 6.191406 -0.796875 6.671875 -1.109375 7.171875 -1.734375 L 7.5 -1.4375 C 7.125 -0.863281 6.671875 -0.4375 6.140625 -0.15625 C 5.609375 0.125 4.96875 0.265625 4.21875 0.265625 Z M 4.21875 0.265625 "/></g></g><g style="fill:#fe5d26;fill-opacity:1;"><g transform="translate(52.094681, 77.742355)"><path style="stroke:none" d="M 5.703125 0.265625 C 4.691406 0.265625 3.804688 0.0664062 3.046875 -0.328125 C 2.285156 -0.722656 1.691406 -1.28125 1.265625 -2 C 0.847656 -2.71875 0.640625 -3.554688 0.640625 -4.515625 C 0.640625 -5.484375 0.847656 -6.328125 1.265625 -7.046875 C 1.691406 -7.773438 2.285156 -8.335938 3.046875 -8.734375 C 3.804688 -9.128906 4.691406 -9.328125 5.703125 -9.328125 C 6.722656 -9.328125 7.613281 -9.128906 8.375 -8.734375 C 9.132812 -8.335938 9.722656 -7.773438 10.140625 -7.046875 C 10.566406 -6.328125 10.78125 -5.484375 10.78125 -4.515625 C 10.78125 -3.554688 10.566406 -2.71875 10.140625 -2 C 9.722656 -1.28125 9.132812 -0.722656 8.375 -0.328125 C 7.613281 0.0664062 6.722656 0.265625 5.703125 0.265625 Z M 5.78125 -0.203125 C 6.21875 -0.210938 6.550781 -0.613281 6.78125 -1.40625 C 7.019531 -2.207031 7.128906 -3.25 7.109375 -4.53125 C 7.078125 -5.84375 6.929688 -6.894531 6.671875 -7.6875 C 6.421875 -8.476562 6.078125 -8.867188 5.640625 -8.859375 C 5.203125 -8.847656 4.863281 -8.445312 4.625 -7.65625 C 4.382812 -6.863281 4.273438 -5.8125 4.296875 -4.5 C 4.316406 -3.21875 4.457031 -2.175781 4.71875 -1.375 C 4.988281 -0.582031 5.34375 -0.191406 5.78125 -0.203125 Z M 5.78125 -0.203125 "/></g></g><g style="fill:#fe5d26;fill-opacity:1;"><g transform="translate(63.497099, 77.742355)"><path style="stroke:none" d="M 0.40625 0 L 0.40625 -0.4375 C 0.738281 -0.476562 0.960938 -0.550781 1.078125 -0.65625 C 1.191406 -0.769531 1.25 -1 1.25 -1.34375 L 1.25 -7.5625 C 1.25 -7.820312 1.164062 -8.007812 1 -8.125 C 0.84375 -8.25 0.632812 -8.3125 0.375 -8.3125 L 0.375 -8.75 C 0.78125 -8.757812 1.242188 -8.789062 1.765625 -8.84375 C 2.296875 -8.894531 2.8125 -8.96875 3.3125 -9.0625 C 3.8125 -9.15625 4.222656 -9.273438 4.546875 -9.421875 L 4.75 -9.3125 L 4.75 -8.46875 C 5.132812 -8.757812 5.570312 -8.976562 6.0625 -9.125 C 6.550781 -9.28125 7.03125 -9.359375 7.5 -9.359375 C 8.644531 -9.359375 9.457031 -8.960938 9.9375 -8.171875 C 10.457031 -8.597656 10.988281 -8.898438 11.53125 -9.078125 C 12.082031 -9.265625 12.609375 -9.359375 13.109375 -9.359375 C 14.023438 -9.359375 14.734375 -9.097656 15.234375 -8.578125 C 15.734375 -8.054688 15.984375 -7.300781 15.984375 -6.3125 L 15.984375 -1.125 C 15.984375 -0.875 16.039062 -0.703125 16.15625 -0.609375 C 16.269531 -0.515625 16.5 -0.445312 16.84375 -0.40625 L 16.84375 0 L 11.78125 0 L 11.78125 -0.40625 C 12.050781 -0.445312 12.234375 -0.515625 12.328125 -0.609375 C 12.429688 -0.703125 12.484375 -0.875 12.484375 -1.125 L 12.484375 -6.671875 C 12.484375 -7.234375 12.382812 -7.644531 12.1875 -7.90625 C 12 -8.164062 11.726562 -8.296875 11.375 -8.296875 C 10.976562 -8.296875 10.570312 -8.101562 10.15625 -7.71875 C 10.3125 -7.332031 10.390625 -6.863281 10.390625 -6.3125 L 10.390625 -1.125 C 10.390625 -0.875 10.445312 -0.703125 10.5625 -0.609375 C 10.675781 -0.515625 10.898438 -0.445312 11.234375 -0.40625 L 11.234375 0 L 6.1875 0 L 6.1875 -0.40625 C 6.445312 -0.445312 6.628906 -0.515625 6.734375 -0.609375 C 6.835938 -0.703125 6.890625 -0.875 6.890625 -1.125 L 6.890625 -6.671875 C 6.890625 -7.234375 6.789062 -7.644531 6.59375 -7.90625 C 6.394531 -8.175781 6.117188 -8.3125 5.765625 -8.3125 C 5.578125 -8.3125 5.394531 -8.269531 5.21875 -8.1875 C 5.050781 -8.113281 4.894531 -8.023438 4.75 -7.921875 L 4.75 -1.34375 C 4.75 -1 4.804688 -0.769531 4.921875 -0.65625 C 5.035156 -0.550781 5.257812 -0.476562 5.59375 -0.4375 L 5.59375 0 Z M 0.40625 0 "/></g></g><g style="fill:#fe5d26;fill-opacity:1;"><g transform="translate(80.609791, 77.742355)"><path style="stroke:none" d="M 5.703125 0.265625 C 4.691406 0.265625 3.804688 0.0664062 3.046875 -0.328125 C 2.285156 -0.722656 1.691406 -1.28125 1.265625 -2 C 0.847656 -2.71875 0.640625 -3.554688 0.640625 -4.515625 C 0.640625 -5.484375 0.847656 -6.328125 1.265625 -7.046875 C 1.691406 -7.773438 2.285156 -8.335938 3.046875 -8.734375 C 3.804688 -9.128906 4.691406 -9.328125 5.703125 -9.328125 C 6.722656 -9.328125 7.613281 -9.128906 8.375 -8.734375 C 9.132812 -8.335938 9.722656 -7.773438 10.140625 -7.046875 C 10.566406 -6.328125 10.78125 -5.484375 10.78125 -4.515625 C 10.78125 -3.554688 10.566406 -2.71875 10.140625 -2 C 9.722656 -1.28125 9.132812 -0.722656 8.375 -0.328125 C 7.613281 0.0664062 6.722656 0.265625 5.703125 0.265625 Z M 5.78125 -0.203125 C 6.21875 -0.210938 6.550781 -0.613281 6.78125 -1.40625 C 7.019531 -2.207031 7.128906 -3.25 7.109375 -4.53125 C 7.078125 -5.84375 6.929688 -6.894531 6.671875 -7.6875 C 6.421875 -8.476562 6.078125 -8.867188 5.640625 -8.859375 C 5.203125 -8.847656 4.863281 -8.445312 4.625 -7.65625 C 4.382812 -6.863281 4.273438 -5.8125 4.296875 -4.5 C 4.316406 -3.21875 4.457031 -2.175781 4.71875 -1.375 C 4.988281 -0.582031 5.34375 -0.191406 5.78125 -0.203125 Z M 5.78125 -0.203125 "/></g></g><g style="fill:#fe5d26;fill-opacity:1;"><g transform="translate(92.012209, 77.742355)"><path style="stroke:none" d="M 4.21875 0.265625 C 2.226562 0.265625 1.234375 -0.816406 1.234375 -2.984375 L 1.234375 -8.34375 L 0.3125 -8.34375 L 0.3125 -8.765625 C 1.34375 -8.765625 2.203125 -9.035156 2.890625 -9.578125 C 3.578125 -10.128906 4.035156 -10.847656 4.265625 -11.734375 L 4.734375 -11.703125 L 4.734375 -8.765625 L 7.15625 -8.765625 L 7.15625 -8.34375 L 4.734375 -8.34375 L 4.734375 -2.296875 C 4.734375 -1.296875 5.066406 -0.796875 5.734375 -0.796875 C 6.191406 -0.796875 6.671875 -1.109375 7.171875 -1.734375 L 7.5 -1.4375 C 7.125 -0.863281 6.671875 -0.4375 6.140625 -0.15625 C 5.609375 0.125 4.96875 0.265625 4.21875 0.265625 Z M 4.21875 0.265625 "/></g></g><g style="fill:#fe5d26;fill-opacity:1;"><g transform="translate(99.426501, 77.742355)"><path style="stroke:none" d="M 2.984375 -10.15625 C 2.472656 -10.15625 2.054688 -10.304688 1.734375 -10.609375 C 1.410156 -10.910156 1.25 -11.316406 1.25 -11.828125 C 1.25 -12.328125 1.410156 -12.726562 1.734375 -13.03125 C 2.054688 -13.332031 2.472656 -13.484375 2.984375 -13.484375 C 3.515625 -13.484375 3.9375 -13.332031 4.25 -13.03125 C 4.570312 -12.726562 4.734375 -12.328125 4.734375 -11.828125 C 4.734375 -11.316406 4.570312 -10.910156 4.25 -10.609375 C 3.9375 -10.304688 3.515625 -10.15625 2.984375 -10.15625 Z M 0.40625 0 L 0.40625 -0.4375 C 0.738281 -0.476562 0.960938 -0.550781 1.078125 -0.65625 C 1.191406 -0.769531 1.25 -1 1.25 -1.34375 L 1.25 -7.5625 C 1.25 -7.820312 1.164062 -8.007812 1 -8.125 C 0.84375 -8.25 0.632812 -8.3125 0.375 -8.3125 L 0.375 -8.75 C 0.78125 -8.757812 1.242188 -8.789062 1.765625 -8.84375 C 2.296875 -8.894531 2.8125 -8.96875 3.3125 -9.0625 C 3.8125 -9.15625 4.222656 -9.273438 4.546875 -9.421875 L 4.75 -9.3125 L 4.75 -1.34375 C 4.75 -1 4.804688 -0.769531 4.921875 -0.65625 C 5.035156 -0.550781 5.257812 -0.476562 5.59375 -0.4375 L 5.59375 0 Z M 0.40625 0 "/></g></g><g style="fill:#fe5d26;fill-opacity:1;"><g transform="translate(105.408691, 77.742355)"><path style="stroke:none" d="M 4.375 0 L 1.15625 -7.796875 C 1.039062 -8.109375 0.894531 -8.316406 0.71875 -8.421875 C 0.550781 -8.523438 0.328125 -8.59375 0.046875 -8.625 L 0.046875 -9.0625 L 5.734375 -9.0625 L 5.734375 -8.625 C 5.410156 -8.613281 5.171875 -8.507812 5.015625 -8.3125 C 4.867188 -8.125 4.875 -7.832031 5.03125 -7.4375 L 6.828125 -2.84375 L 7.890625 -5.6875 C 8.222656 -6.625 8.34375 -7.34375 8.25 -7.84375 C 8.15625 -8.351562 7.757812 -8.613281 7.0625 -8.625 L 7.0625 -9.0625 L 10.546875 -9.0625 L 10.546875 -8.625 C 10.191406 -8.5625 9.910156 -8.445312 9.703125 -8.28125 C 9.492188 -8.125 9.304688 -7.84375 9.140625 -7.4375 L 6.234375 0 Z M 4.375 0 "/></g></g><g style="fill:#fe5d26;fill-opacity:1;"><g transform="translate(115.034546, 77.742355)"><path style="stroke:none" d="M 5.703125 0.265625 C 4.691406 0.265625 3.804688 0.0664062 3.046875 -0.328125 C 2.285156 -0.722656 1.691406 -1.28125 1.265625 -2 C 0.847656 -2.71875 0.640625 -3.554688 0.640625 -4.515625 C 0.640625 -5.484375 0.847656 -6.328125 1.265625 -7.046875 C 1.691406 -7.773438 2.285156 -8.335938 3.046875 -8.734375 C 3.804688 -9.128906 4.691406 -9.328125 5.703125 -9.328125 C 6.722656 -9.328125 7.613281 -9.128906 8.375 -8.734375 C 9.132812 -8.335938 9.722656 -7.773438 10.140625 -7.046875 C 10.566406 -6.328125 10.78125 -5.484375 10.78125 -4.515625 C 10.78125 -3.554688 10.566406 -2.71875 10.140625 -2 C 9.722656 -1.28125 9.132812 -0.722656 8.375 -0.328125 C 7.613281 0.0664062 6.722656 0.265625 5.703125 0.265625 Z M 5.78125 -0.203125 C 6.21875 -0.210938 6.550781 -0.613281 6.78125 -1.40625 C 7.019531 -2.207031 7.128906 -3.25 7.109375 -4.53125 C 7.078125 -5.84375 6.929688 -6.894531 6.671875 -7.6875 C 6.421875 -8.476562 6.078125 -8.867188 5.640625 -8.859375 C 5.203125 -8.847656 4.863281 -8.445312 4.625 -7.65625 C 4.382812 -6.863281 4.273438 -5.8125 4.296875 -4.5 C 4.316406 -3.21875 4.457031 -2.175781 4.71875 -1.375 C 4.988281 -0.582031 5.34375 -0.191406 5.78125 -0.203125 Z M 5.78125 -0.203125 "/></g></g></g></svg>