<svg width="25" height="25" viewBox="0 0 25 25" fill="none" xmlns="http://www.w3.org/2000/svg">
<g clip-path="url(#clip0_733_1744)">
<path d="M13.7687 0C10.328 0 7.11971 1.55208 4.91971 4.32083C3.34159 6.31354 2.51346 8.77083 2.51346 11.3062V13.1177C2.51346 14.049 1.86763 14.9281 0.57388 15.0062C0.263464 15.0323 0.00408875 15.2396 0.00408875 15.55C-0.0479946 16.4042 0.858255 17.9562 2.09992 19.1979C2.95409 20.0771 3.96242 20.776 5.04992 21.3187C4.96947 21.7687 4.98872 22.2309 5.1063 22.6726C5.22389 23.1143 5.43695 23.5249 5.73047 23.8753C6.02398 24.2258 6.3908 24.5075 6.80506 24.7008C7.21932 24.894 7.67093 24.994 8.12805 24.9937C8.84642 24.9992 9.54423 24.7541 10.1014 24.3007C10.6587 23.8473 11.0405 23.2139 11.1812 22.5094H13.7947C14.1312 24.2687 15.9676 25.4844 17.9343 24.8115C19.6426 24.2427 20.3926 22.3021 19.7708 20.724C20.4543 20.2749 21.0951 19.7641 21.6853 19.1979C22.7381 18.1555 23.573 16.9142 24.1417 15.5461C24.7104 14.1781 25.0014 12.7107 24.9978 11.2292C24.9978 8.22708 23.8333 5.40729 21.7114 3.28646C19.5969 1.1923 16.7447 0.0121302 13.7687 0ZM13.7687 1.26771C16.4333 1.26771 18.9426 2.30313 20.8312 4.19167C21.7613 5.11706 22.4987 6.21776 23.0006 7.43004C23.5025 8.64232 23.7589 9.9421 23.7551 11.2542C23.7593 12.5662 23.5032 13.8661 23.0016 15.0786C22.5001 16.291 21.7631 17.392 20.8333 18.3177C18.9562 20.1846 16.4182 21.2354 13.7708 21.2417H11.2083C11.0652 20.5364 10.6837 19.9018 10.1279 19.4446C9.57208 18.9875 8.87583 18.7355 8.15617 18.7312C7.63261 18.7311 7.11723 18.8611 6.65644 19.1097C6.19565 19.3583 5.80394 19.7176 5.51659 20.1552V20.1802C4.58087 19.7052 3.73213 19.0755 3.00617 18.3177C2.12701 17.4385 1.63534 16.6365 1.42805 16.1198C2.00501 15.9821 2.5277 15.6753 2.92909 15.2385C3.46568 14.6632 3.76195 13.9044 3.75721 13.1177V11.2542C3.75721 9.05625 4.48221 6.88229 5.85305 5.14896C7.79367 2.66458 10.6645 1.26771 13.7687 1.26771ZM11.2583 7.50312C10.9291 7.5034 10.6136 7.63434 10.3809 7.86717C10.1483 8.1 10.0176 8.41566 10.0176 8.74479C10.0175 8.90794 10.0495 9.06951 10.1118 9.22028C10.1742 9.37104 10.2656 9.50805 10.3809 9.62346C10.4962 9.73887 10.6332 9.83042 10.7839 9.89288C10.9346 9.95535 11.0962 9.9875 11.2593 9.9875C11.4224 9.98736 11.5838 9.95511 11.7344 9.89258C11.885 9.83006 12.0218 9.73848 12.137 9.62309C12.2522 9.50769 12.3435 9.37073 12.4058 9.22004C12.4681 9.06934 12.5001 8.90785 12.4999 8.74479C12.4999 8.41548 12.3691 8.09966 12.1362 7.8668C11.9034 7.63394 11.5876 7.50312 11.2583 7.50312ZM18.7624 7.50312C18.4331 7.50312 18.1173 7.63394 17.8844 7.8668C17.6516 8.09966 17.5208 8.41548 17.5208 8.74479C17.5206 8.90794 17.5526 9.06951 17.615 9.22028C17.6773 9.37104 17.7687 9.50805 17.8841 9.62346C17.9994 9.73887 18.1363 9.83042 18.287 9.89288C18.4377 9.95535 18.5993 9.9875 18.7624 9.9875C18.9256 9.9875 19.0871 9.95535 19.2378 9.89288C19.3885 9.83042 19.5255 9.73887 19.6408 9.62346C19.7561 9.50805 19.8475 9.37104 19.9099 9.22028C19.9722 9.06951 20.0042 8.90794 20.0041 8.74479C20.0041 8.41548 19.8733 8.09966 19.6404 7.8668C19.4076 7.63394 19.0917 7.50312 18.7624 7.50312ZM11.078 12.4708C10.9735 12.47 10.8705 12.4956 10.7786 12.5453C10.6866 12.5949 10.6086 12.6669 10.5519 12.7547C10.4952 12.8425 10.4615 12.9432 10.4541 13.0474C10.4466 13.1517 10.4656 13.2561 10.5093 13.351C10.9147 14.2091 11.5553 14.9345 12.3567 15.4429C13.1581 15.9513 14.0873 16.2218 15.0364 16.2229C15.9868 16.2274 16.9185 15.9592 17.7211 15.4502C18.5237 14.9412 19.1634 14.2127 19.5645 13.351C19.6082 13.256 19.6272 13.1515 19.6197 13.0471C19.6122 12.9428 19.5785 12.8421 19.5216 12.7543C19.4648 12.6665 19.3867 12.5944 19.2946 12.5449C19.2024 12.4953 19.0993 12.4699 18.9947 12.4708H18.9687C18.8524 12.4704 18.7387 12.5047 18.642 12.5693C18.5453 12.6338 18.4701 12.7258 18.426 12.8333C18.1233 13.4762 17.6438 14.0196 17.0435 14.3998C16.4432 14.7801 15.747 14.9814 15.0364 14.9802C14.3258 14.9812 13.6297 14.7799 13.0294 14.3997C12.4291 14.0195 11.9495 13.4762 11.6468 12.8333C11.5928 12.7278 11.5116 12.6386 11.4116 12.5749C11.3117 12.5111 11.1965 12.4752 11.078 12.4708Z" fill="#0097B2"/>
</g>
<defs>
<clipPath id="clip0_733_1744">
<rect width="25" height="25" fill="white"/>
</clipPath>
</defs>
</svg>
