<svg width="90" height="90" viewBox="0 0 90 90" fill="none" xmlns="http://www.w3.org/2000/svg">
<rect width="90" height="90" rx="10" fill="white"/>
<path fill-rule="evenodd" clip-rule="evenodd" d="M12.9719 69.4495L10.1186 69.4462L12.902 64.4818L12.9719 69.4495ZM7.42404 74.1603L8.45113 72.3328L12.9516 72.3377L12.9776 74.1665L17.4784 74.171L16.4034 60.3077L11.8073 60.3019L3 74.1551L7.42404 74.1603ZM31.8115 68.5875C29.8792 73.7176 26.514 74.3561 23.3483 74.3837C19.8247 74.4149 17.2909 71.93 18.6389 67.0994C19.8743 62.672 23.1255 59.9512 27.588 59.9556C30.9009 59.9595 33.0794 61.6946 32.6847 65.1017L28.3949 65.0968C28.3862 63.9611 27.7343 63.3233 26.5664 63.3431C25.1256 63.368 23.511 64.9626 22.8093 67.4017C22.1042 69.8526 22.1042 71.1853 24.6542 71.158C25.5737 71.1478 26.9189 70.526 27.4168 69.5628L24.2262 69.5614L25.0639 66.5583L32.4487 66.5645L31.8115 68.5875ZM38.953 63.5698L41.0597 63.5722C42.1134 63.5722 42.7505 64.0356 42.4761 65.0171C42.2079 65.9802 41.3645 66.3254 39.966 66.3239L38.1854 66.3225L38.953 63.5698ZM38.7155 69.365C40.8222 69.3673 40.8971 69.9475 40.4571 71.7731C40.4429 71.8348 39.9216 74.1792 39.9216 74.1792H44.3061C44.3061 74.1792 44.5008 73.2457 44.9042 71.3544C45.5068 68.521 44.8979 68.2161 43.5933 67.6754C45.3254 67.2345 46.4096 65.8879 46.8551 64.2903C47.6071 61.5954 46.4431 60.3435 41.8469 60.3377L35.3354 60.3309L31.4691 74.1897L35.9888 74.1946L37.3365 69.3634L38.7155 69.365ZM54.8731 69.4981L52.0198 69.4948L54.8027 64.531L54.8731 69.4981ZM49.3252 74.2092L50.3524 72.3811L54.8527 72.3861L54.8784 74.2155L59.3793 74.2204L58.3045 60.3566L53.7083 60.3513L44.9009 74.2048L49.3252 74.2092ZM65.5032 70.9932L71.7086 71L70.8063 74.2334L60.0823 74.2228L63.9477 60.3634L68.4676 60.3683L65.5032 70.9932ZM86.098 63.6228L79.3761 63.616L78.8227 65.5986L84.5104 65.6039L83.6081 68.8385L77.9204 68.832L77.3139 71.0073L84.304 71.0151L83.4018 74.2486L71.892 74.236L75.7584 60.3771L87 60.3892L86.098 63.6228Z" fill="black"/>
<path fill-rule="evenodd" clip-rule="evenodd" d="M63.19 43.2695L63.3452 43.4731L63.9291 43.4994C63.9832 44.3145 63.6946 44.2616 62.9403 44.2605C53.6642 44.2477 44.4643 44.2764 35.1781 44.1967C35.2159 43.9116 35.1347 44.1153 35.7289 43.7133L35.357 43.6918L34.8298 43.77C34.6475 42.8304 34.8202 42.9624 35.3943 42.1159C35.8783 41.4018 36.7491 39.8563 37.512 39.5556C38.0198 39.3554 39.0489 39.3278 39.6854 39.3278L58.5051 39.3164C59.389 39.3164 59.9425 39.2725 60.5644 39.6075C60.9547 39.8179 61.6415 40.7618 61.9704 41.1466C62.0453 41.2341 62.2816 41.3977 62.5816 41.7307C62.9513 42.1408 64.26 43.3514 63.19 43.2695ZM35.2232 28.2541L35.1688 28.589C38.0733 28.5734 40.9757 28.5725 43.8807 28.573C45.6455 28.5734 45.5472 28.1034 46.2449 27.1295C46.3377 26.9999 46.4083 26.8776 46.4865 26.7695L46.9467 26.1553C47.1515 25.9515 47.6358 25.1186 47.8355 24.8857C48.0237 24.6666 48.1466 24.4111 48.2736 24.2457C48.4622 23.6466 49.3935 23.5483 49.7193 24.0934L50.3983 24.968L50.5933 25.3102L54.0641 29.688C54.1565 29.8111 54.2164 29.8678 54.2076 30.1043C54.1969 30.3868 54.1122 30.3775 53.8688 30.4073L53.8965 30.462C53.9779 30.5838 53.9748 30.5877 54.0098 30.7489L54.4301 30.7568C54.4433 31.0843 54.4676 31.3812 53.927 31.583C53.5645 31.7184 50.3474 31.6388 49.8143 31.6381L38.8462 31.6295C37.927 31.6295 37.0082 31.6267 36.0892 31.6267C35.3198 31.6267 34.1882 31.5197 33.6433 31.8459C33.5341 32.1073 33.4078 32.1004 33.0547 32.5814C33.0392 32.6026 32.9798 32.6866 32.978 32.6885C32.8234 32.8401 32.9867 32.7156 32.8006 32.7994C32.6895 32.9724 32.6139 33.0638 32.4964 33.2224C32.3667 33.3977 32.2836 33.5446 32.1499 33.7172C32.009 33.8989 31.8906 34.0171 31.7798 34.1834C31.4908 34.6173 30.9182 35.3665 30.7693 35.6447C30.694 35.7851 30.1654 36.3425 30.0953 36.5669C29.9968 36.9229 27.9606 39.5789 27.5538 40.1391C27.4556 40.2745 27.4685 40.2811 27.2956 40.3526C27.1523 40.5598 27.0226 40.7204 26.8695 40.9658L25.4926 42.8216C25.2507 43.187 23.7773 45.1782 23.7355 45.3069C23.6287 45.5958 22.4993 47.0904 22.184 47.5533L21.5845 47.4101V47.7322C22.2176 47.7434 22.3835 48.4186 22.7556 49.1906C24.4126 52.6292 23.6251 52.2881 28.0578 52.2881H68.8739C70.1117 52.2881 71.3523 52.2963 72.5899 52.2881C73.9169 52.2794 74.0092 51.6538 74.5901 50.5791C74.7992 50.1924 75.0282 49.7918 75.2199 49.4154C75.3401 49.1791 75.4007 48.9793 75.5111 48.7817C75.781 48.2985 76.4813 47.5218 76.1563 46.7936C75.9787 46.3957 75.5832 46.0901 75.3611 45.7349C75.0671 45.2648 75.3852 45.6985 74.9896 45.2071C74.1765 44.1974 72.5806 41.7927 71.8294 40.9351C71.5366 40.601 71.5789 40.4378 71.02 39.8843C70.8764 39.7421 70.7692 39.5147 70.6298 39.3154C70.4816 39.1035 70.3495 39 70.2256 38.823C70.1199 38.6723 70.1495 38.6174 70.0693 38.4939C70.0512 38.466 69.8854 38.3172 69.8323 38.257C69.3145 37.6728 67.5497 35.097 67.0746 34.541C66.908 34.3463 66.8495 34.2096 66.6575 33.9981C66.5076 33.8329 66.4303 33.6564 66.2783 33.4765L64.3064 30.8367C64.1612 30.6364 64.1177 30.4581 63.9672 30.2728L62.3654 28.1581C62.0699 27.7877 62.0608 27.6856 61.9804 27.5801C61.9108 27.4888 61.783 27.4229 61.5482 27.1195L60.3557 25.4936C60.1968 25.2813 60.1245 25.2142 59.9742 24.9773C59.6973 24.5409 59.6074 24.4779 59.3948 24.1756C59.1736 23.8615 59.2342 24.0392 58.9795 23.6341C58.909 23.5221 58.8572 23.4729 58.7679 23.3654L57.946 22.344C57.8372 22.1389 57.7401 21.9719 57.5914 21.7842C57.4364 21.5884 57.275 21.4812 57.151 21.2791C56.8446 20.7802 57.1322 21.0969 56.6176 20.418L55.2215 18.5783C55.001 18.1309 54.7067 17.9045 54.4464 17.4908C54.2193 17.1301 54.2109 17.296 53.6776 16.398C53.5797 16.2334 53.4663 15.9856 53.5534 15.776C53.6296 15.5925 53.4951 15.6688 53.6873 15.6656C53.5339 15.4653 53.2781 15.2024 52.9435 15.1968L52.8692 15.7147C51.7997 15.7431 46.0349 15.5735 45.5621 15.7835C44.9367 16.0614 44.6468 16.5904 44.213 17.1889L41.0716 21.4797C40.9155 21.6938 40.8132 21.922 40.6984 22.0686C40.5605 22.2446 40.4244 22.3058 40.2748 22.5376C39.7222 23.3941 36.6755 27.4704 35.9092 28.4328C35.4187 28.4605 35.6461 28.2947 35.2232 28.2541Z" fill="#F20005"/>
<path fill-rule="evenodd" clip-rule="evenodd" d="M23.4673 51.9122C23.4979 52.3093 24.0645 52.7371 24.4685 52.874C24.9885 53.0504 25.6748 52.99 26.2595 52.99H72.2898C72.9139 52.9901 73.4555 53.0256 73.9569 52.7508C74.4096 52.5027 74.5772 52.19 74.834 51.7104C75.2767 50.8832 75.7443 50.0725 76.1744 49.2135C76.5839 48.3956 77.3956 47.445 76.6363 46.5103C76.4957 46.584 76.4338 46.5726 76.3883 46.7877C76.3572 46.9352 76.3865 47.0976 76.3817 47.2489C76.3663 47.7273 75.7602 48.7438 75.4949 49.2021C73.5887 52.4952 74.4634 52.4232 71.2709 52.4232H37.7072C36.8167 52.4232 25.3302 52.5146 24.7357 52.3511C24.256 52.2192 23.6219 51.6047 23.4673 51.9122Z" fill="#950000"/>
<path fill-rule="evenodd" clip-rule="evenodd" d="M21.5842 47.7324L21.5518 47.8167C21.5472 48.1616 22.2656 49.5191 22.4524 49.917C22.6154 50.2639 22.7764 50.5706 22.9424 50.9236C23.0561 51.1657 23.2788 51.7267 23.4672 51.912C23.6218 51.6046 24.2559 52.219 24.7357 52.351C25.3303 52.5145 36.8167 52.4231 37.7072 52.4231H71.271C74.4635 52.4231 73.5888 52.495 75.495 49.2019C75.7603 48.7437 76.3663 47.7273 76.3818 47.2489C76.3866 47.0974 76.3572 46.935 76.3883 46.7876C76.4338 46.5725 76.4958 46.584 76.6363 46.5101C76.3974 46.1452 76.1572 45.8597 75.8939 45.5009L62.301 27.2053C61.4396 26.0319 60.3042 24.4369 59.4437 23.3483C58.8048 22.5398 53.9744 15.8701 53.687 15.6659C53.4948 15.669 53.6294 15.5929 53.5532 15.7763C53.4661 15.9858 53.5796 16.2334 53.6773 16.3983C54.2106 17.2962 54.2191 17.1303 54.4461 17.4911C54.7064 17.9048 55.0008 18.1312 55.2212 18.5786L56.6173 20.4183C57.1318 21.0972 56.8443 20.7804 57.1507 21.2794C57.2747 21.4814 57.4362 21.5887 57.5912 21.7845C57.7398 21.9721 57.8368 22.1392 57.9457 22.3443L58.7677 23.3657C58.857 23.4732 58.9087 23.5222 58.9793 23.6344C59.2338 24.0394 59.1733 23.8617 59.3945 24.176C59.6073 24.4783 59.697 24.5411 59.9739 24.9777C60.1242 25.2145 60.1965 25.2815 60.3554 25.4938L61.548 27.1198C61.7827 27.4231 61.9105 27.489 61.9802 27.5805C62.0605 27.6859 62.0696 27.788 62.3651 28.1584L63.9669 30.273C64.1175 30.4584 64.1609 30.6367 64.3062 30.8371L66.278 33.4768C66.43 33.6568 66.5074 33.8333 66.6572 33.9983C66.8494 34.2099 66.9077 34.3466 67.0743 34.5413C67.5495 35.0973 69.3142 37.6732 69.832 38.2573C69.8851 38.3174 70.051 38.4663 70.0691 38.4942C70.1493 38.6177 70.1197 38.6726 70.2254 38.8233C70.3493 39.0002 70.4814 39.1038 70.6296 39.3157C70.7689 39.515 70.8762 39.7424 71.0198 39.8846C71.5785 40.4381 71.5363 40.6012 71.8291 40.9354C72.5804 41.793 74.1763 44.1978 74.9893 45.2074C75.3851 45.6987 75.067 45.265 75.3608 45.7352C75.5829 46.0903 75.9784 46.396 76.156 46.7939C76.481 47.5221 75.7806 48.2987 75.5108 48.7821C75.4005 48.9795 75.3399 49.1793 75.2196 49.4157C75.028 49.7921 74.7989 50.1927 74.5899 50.5794C74.009 51.654 73.9166 52.2796 72.5896 52.2884C71.3521 52.2966 70.1115 52.2884 68.8736 52.2884H28.0575C23.6248 52.2884 24.4123 52.6294 22.7552 49.1909C22.3832 48.4189 22.2173 47.7436 21.5842 47.7324Z" fill="#BB0000"/>
<path fill-rule="evenodd" clip-rule="evenodd" d="M21.5981 47.067L21.8243 47.0254L22.0639 47.3556C22.2983 47.2556 22.6588 46.6314 22.8584 46.3644C23.0666 46.0858 23.438 45.438 23.7352 45.3074C23.777 45.1786 25.2504 43.1874 25.4924 42.822L26.8692 40.9663C27.0224 40.7208 27.1521 40.5601 27.2954 40.3529C27.4219 40.0073 28.3198 38.8679 28.643 38.419L29.6827 37.0006C29.7772 36.8666 29.8198 36.7529 29.9436 36.6529C30.0781 36.5438 29.8638 36.6738 30.0951 36.5671C30.1652 36.3428 30.6939 35.7855 30.7691 35.645C30.9181 35.3668 31.4907 34.6176 31.7796 34.1838C31.8904 34.0173 32.0089 33.8992 32.1498 33.7174C32.2834 33.545 32.3665 33.3979 32.4962 33.2226C32.6137 33.064 32.6893 32.9728 32.8004 32.7997C32.8755 32.5672 32.9852 32.4499 33.1389 32.2502C33.2841 32.0615 33.3714 31.9382 33.6432 31.8463C34.1882 31.52 35.3196 31.6271 36.0891 31.6271C37.0081 31.6271 37.927 31.63 38.8461 31.63L49.8142 31.6385C50.3474 31.6392 53.5645 31.7186 53.9269 31.5833C54.4675 31.3815 54.4433 31.0847 54.43 30.7573L54.0097 30.7493C53.9747 30.5881 53.9779 30.5842 53.8964 30.4624C53.8854 31.1566 53.4144 31.023 52.811 31.017L36.0292 30.9928C33.0677 30.9928 33.2199 30.9328 31.8454 32.872L27.9788 38.1757C27.5515 38.7762 27.1472 39.3505 26.6918 39.9459C25.7983 41.1143 25.0216 42.3073 24.1164 43.485C23.8244 43.8649 21.7359 46.6376 21.5981 47.067Z" fill="#F33822"/>
<path fill-rule="evenodd" clip-rule="evenodd" d="M35.3569 43.6937C35.2859 43.6854 35.2541 43.6348 35.2497 43.5805L35.2865 43.4725C35.4395 43.3611 36.8278 41.286 37.0829 40.9292C37.4403 40.4295 37.5708 40.1302 38.3796 40.0116C39.103 39.9054 55.7205 39.9463 57.8457 39.9463C60.2338 39.9463 59.9449 39.7682 61.3801 41.3147L62.1416 42.1731C62.2809 42.3443 63.0092 43.136 63.19 43.2716C64.2598 43.3535 62.9513 42.1427 62.5815 41.7326C62.2814 41.3997 62.0451 41.2361 61.9703 41.1484C61.6413 40.7638 60.9546 39.8197 60.5643 39.6094C59.9423 39.2744 59.389 39.3182 58.505 39.3184L39.6853 39.3298C39.0489 39.3298 38.0197 39.3573 37.5119 39.5575C36.749 39.8582 35.8781 41.4038 35.3942 42.1177C34.8201 42.9643 34.6474 42.8325 34.8297 43.772L35.3569 43.6937Z" fill="#950000"/>
<path fill-rule="evenodd" clip-rule="evenodd" d="M35.2863 43.4706L35.2494 43.5787C35.2538 43.6329 35.2858 43.6836 35.3566 43.6917L35.7285 43.7133C35.1343 44.1153 35.2154 43.9116 35.1777 44.1967C44.4639 44.2764 53.6638 44.2477 62.9399 44.2605C63.6942 44.2616 63.9828 44.3145 63.9287 43.4993L63.3448 43.473C63.3938 43.6014 63.3834 43.5218 63.3594 43.6056L36.0889 43.613C35.9557 43.6127 35.7936 43.6213 35.6663 43.6175C35.2107 43.6042 35.3204 43.5396 35.2863 43.4706ZM35.2228 28.2542C35.6458 28.2946 35.4183 28.4604 35.909 28.4329C36.6752 27.4705 39.722 23.3942 40.2746 22.5377C40.4243 22.3059 40.5604 22.2446 40.6982 22.0687C40.813 21.9222 40.9154 21.6939 41.0714 21.4798L44.2129 17.189C44.6466 16.5905 44.9366 16.0615 45.562 15.7836C46.0347 15.5736 51.7995 15.7432 52.869 15.7148L52.9434 15.1969C52.5985 14.8963 49.8354 15.0293 49.2148 15.0293C48.3796 15.0293 46.0066 14.9311 45.3605 15.0992C44.4644 15.3322 44.0296 16.1647 43.4286 17.0021C41.0895 20.2606 38.4486 23.8537 36.0601 27.0767C35.9056 27.2853 35.7994 27.4227 35.6525 27.6276C35.5079 27.8295 35.3369 28.0224 35.2228 28.2542Z" fill="#F33822"/>
<path fill-rule="evenodd" clip-rule="evenodd" d="M48.2737 24.2456C48.1467 24.411 48.0238 24.6665 47.8356 24.8856C47.6359 25.1186 47.1516 25.9514 46.9468 26.1552L46.4866 26.7694C46.4083 26.8775 46.3378 26.9998 46.245 27.1294C45.5474 28.1032 45.6457 28.5733 43.8808 28.5729C40.9758 28.5724 38.0734 28.5733 35.1689 28.5889C35.268 29.424 36.0769 29.26 36.8684 29.26L44.1807 29.2691C45.9567 29.2585 46.1942 28.5353 47.0523 27.2789L49.1605 24.4526C50.1524 25.6075 51.6216 27.6351 52.6795 28.9149L53.8689 30.4071C54.1122 30.3773 54.1969 30.3866 54.2077 30.1042C54.2165 29.8676 54.1567 29.811 54.0642 29.6879L50.5934 25.3101C50.3048 25.2401 49.7996 24.4679 49.6198 24.1902C49.3319 23.7455 48.8012 23.8529 48.5842 24.0129C48.434 24.1234 48.5156 24.1368 48.2737 24.2456Z" fill="#9B0000"/>
<path fill-rule="evenodd" clip-rule="evenodd" d="M27.2957 40.3531C27.4685 40.2816 27.4557 40.2749 27.5538 40.1397C27.9606 39.5794 29.9969 36.9234 30.0953 36.5674C29.864 36.6741 30.0783 36.544 29.9438 36.6531C29.8199 36.7532 29.7774 36.8668 29.6828 37.0009L28.6432 38.4192C28.3201 38.868 27.4222 40.0075 27.2957 40.3531ZM21.5984 47.067C21.4944 47.2258 21.4149 47.6506 21.5521 47.8168L21.5846 47.7326V47.4105L22.1842 47.5537C22.4993 47.0908 23.6288 45.5962 23.7356 45.3074C23.4384 45.4381 23.067 46.0858 22.8588 46.3644C22.6591 46.6314 22.2986 47.2555 22.0643 47.3557L21.8246 47.0255L21.5984 47.067Z" fill="#F1180D"/>
<path fill-rule="evenodd" clip-rule="evenodd" d="M48.2734 24.2457C48.5154 24.137 48.4338 24.1236 48.5839 24.0129C48.801 23.853 49.3317 23.7456 49.6196 24.1903C49.7994 24.4679 50.3045 25.2401 50.5931 25.3102L50.3982 24.968L49.7192 24.0934C49.3934 23.5483 48.462 23.6465 48.2734 24.2457Z" fill="#BE0000"/>
<path fill-rule="evenodd" clip-rule="evenodd" d="M32.8008 32.7997C32.987 32.716 32.8237 32.8404 32.9782 32.6888C32.9801 32.6869 33.0394 32.6029 33.055 32.5817C33.4081 32.1007 33.5343 32.1076 33.6435 31.8462C33.3717 31.9382 33.2844 32.0616 33.1392 32.2501C32.9857 32.4499 32.8759 32.5672 32.8008 32.7997Z" fill="#F31A10"/>
</svg>
