<svg width="90" height="90" viewBox="0 0 90 90" fill="none" xmlns="http://www.w3.org/2000/svg">
<rect width="90" height="90" rx="10" fill="white"/>
<path fill-rule="evenodd" clip-rule="evenodd" d="M63.2094 35H89V39.2562H73.4543V42.0058H89V46.0273H73.4543V50.2831H63.2094V35ZM29.5656 50.2831L38.1443 35H52.4051L61.5163 50.2831V50.2967L42.0784 50.2831L44.4686 46.0273H49.3722L45.4112 39.2562L39.0594 50.2831H29.5656ZM19.5532 50.2831H2V35H19.5397C33.568 35 32.7486 50.2831 19.5532 50.2831Z" fill="#33348E"/>
<path fill-rule="evenodd" clip-rule="evenodd" d="M15.8157 45.9946H11.5605V39.3023H15.8157C21.0348 39.2957 20.9196 45.9885 15.8157 45.9946Z" fill="white"/>
<path fill-rule="evenodd" clip-rule="evenodd" d="M2 51.731H89V55.5551H2V51.731Z" fill="#CC2229"/>
</svg>
