<svg width="90" height="90" viewBox="0 0 90 90" fill="none" xmlns="http://www.w3.org/2000/svg">
<rect width="90" height="90" rx="10" fill="white"/>
<path d="M10 19L11.3949 70H18.1747L18.0265 48.8514H23.7117V42.2589H18.0265L18.0475 25.664H25.47L25.4299 19H10ZM28.1103 19L28.9681 70H35.9694L36.1113 19.0008L28.1103 19ZM60.932 19V25.4327H66.462L66.3029 70H73.0764L74.5152 25.426H80L79.958 19H60.932ZM46.6692 42.604L46.7455 25.2813H50.6554C52.4276 29.1388 53.5661 34.241 54.4589 42.604H46.6692ZM40.4233 69.9985H46.9046L46.9772 48.9102H54.7427C55.353 52.6321 55.5025 64.1218 55.5388 69.9985H61.8261C62.4211 43.9624 60.5782 29.2466 55.4866 19H39.8302L40.4233 69.9985Z" fill="#981E32"/>
</svg>
