<svg width="90" height="90" viewBox="0 0 90 90" fill="none" xmlns="http://www.w3.org/2000/svg">
<rect width="90" height="90" rx="10" fill="white"/>
<path fill-rule="evenodd" clip-rule="evenodd" d="M45.5136 61.153C68.9767 61.153 88 53.971 88 45.0902C88 36.2093 68.9767 29 45.5136 29C22.0233 29 3 36.2093 3 45.0902C3 53.9714 22.0233 61.153 45.5136 61.153Z" fill="#425E99"/>
<path fill-rule="evenodd" clip-rule="evenodd" d="M45.5141 59.5081C22.9829 59.5081 4.67285 53.0939 4.67285 45.0899C4.67285 37.1137 22.9829 30.6172 45.5141 30.6172C68.1003 30.6172 86.3826 37.1137 86.3826 45.0899C86.3826 53.0939 68.1003 59.5081 45.5141 59.5081Z" fill="white"/>
<path fill-rule="evenodd" clip-rule="evenodd" d="M45.5132 58.3849C67.3592 58.3849 85.0932 52.4368 85.0932 45.0902C85.0932 37.7718 67.3592 31.8237 45.5132 31.8237C23.6398 31.8237 5.95996 37.7718 5.95996 45.0902C5.96042 52.4368 23.6398 58.3849 45.5132 58.3849Z" fill="#425E99"/>
<path fill-rule="evenodd" clip-rule="evenodd" d="M55.8748 47.7487C57.7385 45.9945 58.7794 44.1581 61.4663 44.1854C63.0832 44.2126 63.4939 45.5011 63.7679 46.0495L67.304 40.0741H69.4693L63.6039 50.4629C63.494 50.6819 63.2195 51.093 63.2472 51.422C63.3031 51.9426 63.9606 51.8059 63.7139 51.8059C64.8924 51.7509 67.0573 49.5033 67.5784 48.9554C67.6874 48.8178 67.8801 48.5715 67.9891 48.5715C68.0991 48.5715 68.3185 48.681 68.3185 48.8455C68.3185 48.9554 68.0718 49.3661 67.8801 49.6128C66.7833 50.9835 64.9746 53.0939 62.9188 53.1489C61.9047 53.1489 61.5203 52.7377 61.3836 51.9431C60.9179 52.3538 59.3277 53.0667 57.7108 53.0667C56.3673 53.0394 55.8189 52.2443 55.5454 51.6142C55.2987 51.0935 55.1888 50.3261 55.3805 49.5588C54.6404 49.9427 53.9553 49.9972 52.9685 49.9699C51.8167 49.9422 51.1039 49.4216 50.7481 48.0781C49.4324 50.4906 49.377 50.5724 48.0344 53.0944H45.7046L48.6923 48.0236C49.0766 47.338 49.2684 46.7901 49.4047 46.2149C49.4874 45.8855 49.2407 45.5838 48.884 45.557C48.5006 45.557 47.8709 45.9409 47.267 46.5161C47.267 46.5161 45.7323 48.1608 44.6083 49.8327C43.5388 51.4229 41.7028 53.2316 39.702 53.2316C38.249 53.2316 36.9333 52.437 36.6593 50.9018C36.6593 50.9018 36.5221 51.258 35.2336 51.9981C35.1241 52.0526 34.8502 52.2171 34.7684 52.1625C34.5212 51.9436 34.3845 51.6691 34.3568 51.477C34.439 51.5047 34.6035 51.3675 35.1241 50.9563C36.1382 50.1889 36.3576 49.5851 36.3576 49.5851C36.6039 49.0645 37.0432 48.2421 37.3444 47.6665C38.1672 46.0218 39.592 44.3499 41.9218 44.2676C42.3057 44.2676 42.4152 44.4321 42.4975 44.5693C42.7165 44.7338 42.6347 45.0627 42.6347 45.0627C40.99 45.3094 39.8664 46.2685 39.1808 47.2008C38.7701 47.8037 38.3312 48.7905 38.249 49.5029C38.0845 50.7364 38.6602 51.5583 39.5098 51.7505C41.0995 51.9972 42.4152 50.8459 43.457 49.0645C43.7314 48.5983 43.9232 47.3921 43.9232 46.7342C43.9232 46.0763 43.5665 45.3912 43.2926 45.1168C43.2926 44.6511 43.5938 44.3494 43.95 44.3494C44.0595 44.3494 44.1694 44.3494 44.2789 44.4589C44.8273 45.0073 45.129 46.0491 45.129 46.8437C45.129 47.1181 45.129 47.3921 45.074 47.6665C46.2253 46.2685 47.6778 44.4593 48.8022 44.1032C49.0212 43.9937 49.2407 43.9937 49.4596 43.9937C51.5155 43.9387 51.2415 45.8028 51.2415 45.8028C52.3374 44.542 53.1052 44.0759 54.1193 44.1304C55.216 44.1854 55.5995 44.9532 55.5995 45.5561C55.5718 46.2685 55.052 47.0908 54.1479 47.1181C53.3519 47.1181 52.8862 46.7342 52.6395 46.0218C52.1189 46.214 51.8726 46.5702 51.7627 47.2826C51.5977 48.1871 52.2833 48.9 53.1602 48.9C54.6681 48.9004 55.3264 48.2421 55.8748 47.7487ZM57.519 35.9352C57.519 36.8125 54.4487 38.4844 51.8444 38.4844C47.7882 38.4844 43.567 36.5381 41.6215 36.0996C39.5107 35.6062 37.592 35.1951 36.0841 35.1951C30.7939 35.1951 28.4364 37.4704 28.5463 39.5535C28.6013 40.4031 29.286 40.9515 30.3005 40.7593C31.3972 40.5675 32.932 39.5258 33.3159 38.6212C33.3981 38.4295 33.6176 38.4017 33.6998 38.4567C33.8643 38.5939 33.8093 38.7857 33.8093 38.7857C33.6721 39.8547 32.0274 42.8151 29.1769 42.8151C27.5872 42.8151 26.5182 41.3349 26.5454 39.882C26.5727 37.1682 29.3414 34.4272 36.1664 34.4272C37.4544 34.4272 38.9073 34.5367 40.4975 34.8112C42.3335 35.1401 46.9108 35.9075 50.6386 35.9624C52.0098 35.9624 53.764 36.0174 55.1892 35.798C56.6967 35.5513 56.3678 35.4963 56.9711 35.4963C57.519 35.4963 57.519 35.7157 57.519 35.9352Z" fill="white"/>
<path fill-rule="evenodd" clip-rule="evenodd" d="M61.5771 45.4741C60.6171 45.3646 59.4108 46.187 58.4244 47.3932C57.931 47.9961 57.4104 49.1474 57.3277 49.8325C57.2187 50.5181 57.4104 51.2032 57.6571 51.395C57.9038 51.5867 59.0005 52.1623 60.6997 50.4359C61.6588 49.4763 62.5907 47.9139 62.5907 47.9139L62.289 47.8312C62.8646 46.7626 62.7542 45.6109 61.5771 45.4741Z" fill="#425E99"/>
<path fill-rule="evenodd" clip-rule="evenodd" d="M41.5396 42.2397C41.5396 42.5414 41.9503 42.7881 42.3069 42.8158C42.2247 43.117 42.252 43.2542 42.1152 43.227C41.2929 43.227 40.9639 42.4319 40.9639 42.4319C39.8681 42.6236 38.7991 42.7608 36.6333 42.9803C31.1786 51.8066 29.4794 53.2595 26.135 53.2595C23.7502 53.2595 21.6399 51.6971 21.5849 48.9011C21.5572 47.2019 22.9279 45.1184 25.4771 44.4878C25.7788 44.4878 25.8883 44.5977 25.8883 44.7622C25.8883 44.8721 25.7788 45.0089 25.5317 45.1184C24.7916 45.3928 23.5035 46.8453 23.5035 48.1887C23.5035 49.2028 24.1341 50.3268 25.2027 50.5731C25.5044 50.6558 25.7788 50.6281 26.0528 50.6281C28.7115 50.6281 31.6992 47.6404 34.9336 43.0902C34.4129 43.1175 32.1926 43.3647 31.6442 43.9948C31.398 44.1865 31.2335 44.077 31.1786 43.8576C31.1786 43.8026 31.2608 43.6109 31.3435 43.5009C32.2203 42.5141 34.8518 42.2952 35.482 42.2129C37.949 38.4302 41.1284 36.0726 41.7863 36.1003C41.8958 36.1003 42.1429 36.2648 42.033 36.5388C42.0053 36.5937 41.7313 36.895 41.6223 36.9772C41.0739 37.4706 39.2098 38.6769 37.1816 42.103C38.8263 42.0207 40.745 41.6918 40.745 41.6918C40.745 41.6918 40.6355 41.3356 40.6355 41.0339C40.7177 39.8554 41.4028 39.1425 42.2801 39.2798C42.774 39.362 43.1025 39.7732 43.1025 40.2116C43.1025 40.6777 42.7463 41.3629 42.3896 41.6918C42.1425 41.8831 41.8681 42.0753 41.5396 42.2397Z" fill="white"/>
<path fill-rule="evenodd" clip-rule="evenodd" d="M41.4021 41.6362C41.4021 41.6362 41.6765 41.6639 42.0872 41.1977C42.2517 41.0333 42.5261 40.5399 42.4711 40.2109C42.4434 40.0465 42.3616 39.8547 42.1699 39.882C41.7583 39.9647 41.5115 40.1564 41.4021 40.5676C41.2653 41.006 41.3203 41.3077 41.4021 41.6362Z" fill="#425E99"/>
</svg>
