<svg width="90" height="90" viewBox="0 0 90 90" fill="none" xmlns="http://www.w3.org/2000/svg">
<rect width="90" height="90" rx="10" fill="white"/>
<path d="M25.9244 20.2533C25.2124 20.7438 25.4022 21.2343 28.0921 25.8704C31.3674 31.5191 31.3832 31.535 33.282 28.2122C33.899 27.1362 35.0225 25.19 35.7661 23.8926C37.2535 21.3293 37.4117 20.6964 36.7788 20.2533C36.4782 20.0318 35.687 20.0002 31.3516 20.0002C27.0162 20.0002 26.225 20.0318 25.9244 20.2533Z" fill="#444444"/>
<path d="M38.7723 21.0601C38.4559 21.6614 37.8071 22.769 37.3641 23.5601C36.9052 24.3354 35.5287 26.788 34.2945 28.9873L32.0635 32.9905L33.978 36.3449C35.0382 38.1962 36.0033 39.8259 36.1457 39.9683C36.4464 40.3164 37.3325 40.3481 37.6489 40.0158C37.7755 39.8892 39.1521 37.5633 40.7027 34.8417C42.2533 32.1202 44.6426 27.943 46.0033 25.5854C47.3799 23.212 48.535 21.1234 48.5983 20.9652C48.6457 20.7911 48.6141 20.5063 48.5191 20.3165C48.3609 20.0158 48.2185 20 43.8514 20H39.3578L38.7723 21.0601Z" fill="#444444"/>
<path d="M50.5443 20.2687C50.4177 20.427 49.5632 21.8352 48.6772 23.4016C47.7753 24.9681 44.9588 29.8731 42.3955 34.3035L37.7437 42.3415L38.0443 42.9269C39.3418 45.3636 42.4588 50.5377 42.8544 50.9174C43.2816 51.313 43.4398 51.3604 44.0569 51.2813C44.4367 51.2339 44.8797 51.0756 45.0379 50.9174C45.3386 50.6009 46.0822 49.3351 48.7563 44.6041C49.6424 43.0377 52.7753 37.5472 55.7183 32.4206C58.6613 27.2782 61.2721 22.7213 61.5252 22.294C62.0474 21.3447 62.079 20.7909 61.636 20.3795C61.3196 20.0947 60.9556 20.0789 56.0506 20.0314C51.1613 19.9839 50.7816 19.9997 50.5443 20.2687Z" fill="#444444"/>
<path d="M4.92721 58.8766C3.3924 59.2247 2.58544 59.8576 2.23734 61.0285C2.04747 61.6456 2 62.7374 2 65.9177V70H3.7405H5.481V68.4968V66.9937H9.43669H13.3924V65.4114V63.8291H9.42087H5.46518L5.51265 62.9905L5.56012 62.1677L10.75 62.0728C13.5981 62.0095 15.9557 61.9462 15.9873 61.9146C16.019 61.8829 16.0822 61.2026 16.1139 60.4114L16.1772 58.9715L12.538 58.8766C8.59809 58.7658 5.43354 58.7658 4.92721 58.8766Z" fill="#444444"/>
<path d="M73.7402 58.8766C73.4079 58.9399 73.3921 59.0348 73.2814 62.8798C73.2181 65.0317 73.2181 67.5158 73.2814 68.4019L73.3921 70H75.1168H76.8415V66.0601V62.1203L78.5345 62.0095C80.4491 61.8671 83.6453 62.0253 83.8826 62.2627C83.9775 62.3576 84.0408 63.8766 84.025 66.2184L84.0092 70H85.718H87.4427V66.25C87.4427 60.7437 87.1737 59.731 85.6231 59.2247C84.9744 59.019 83.8193 58.9399 79.4522 58.8766C76.4934 58.8291 73.9143 58.8291 73.7402 58.8766Z" fill="#444444"/>
<path d="M21.0662 59.1771C20.3542 59.4461 19.8004 59.9049 19.4365 60.5853C19.2149 60.9809 19.1675 61.5821 19.1675 64.3828C19.1675 67.5631 19.1833 67.7372 19.5314 68.3384C20.4175 69.8732 21.2244 70.0315 27.2846 69.9682C31.6833 69.9207 32.0314 69.9049 32.7118 69.5884C33.408 69.2562 34.1042 68.5283 34.3415 67.8638C34.4048 67.6897 34.4523 66.1074 34.4523 64.3353C34.4523 61.2815 34.4206 61.0758 34.0883 60.4587C33.851 60.0315 33.4554 59.6518 33.0124 59.3986L32.3004 59.003L26.9997 58.9714C22.6643 58.9397 21.5884 58.9872 21.0662 59.1771ZM30.7497 62.2942C31.0029 62.5473 31.0345 62.8321 30.9871 64.5093C30.9713 65.5695 30.8763 66.503 30.7814 66.5979C30.6232 66.7562 22.9966 66.8353 22.8384 66.6771C22.7909 66.6296 22.7276 65.6802 22.696 64.5568C22.6327 61.8195 22.332 62.0093 26.889 62.0093C30.1168 62.0093 30.4966 62.041 30.7497 62.2942Z" fill="#444444"/>
<path d="M37.0001 60.4589L37.0476 62.0095L40.1014 62.057L43.1393 62.0886V66.0443V70H44.5476C45.3229 70 46.0665 69.9525 46.2089 69.9051C46.4305 69.8259 46.4621 69.3196 46.4621 65.9494V62.0886L49.5159 62.057L52.5539 62.0095L52.5697 60.4589L52.5855 58.9241H44.7691H36.9526L37.0001 60.4589Z" fill="#444444"/>
<path d="M57.0313 59.1454C56.0661 59.4935 55.6231 59.8574 55.2908 60.6011C55.006 61.2498 54.9902 61.6138 55.0377 64.6992C55.0851 68.4492 55.1168 68.5441 56.256 69.3194C57.1579 69.9207 58.1706 70.0315 63.1073 69.9682C68.0914 69.9207 68.4554 69.8574 69.3731 69.003C70.2275 68.2118 70.275 67.9587 70.275 64.3827C70.275 61.3131 70.2433 61.0125 69.9427 60.5062C69.5788 59.8574 68.8193 59.3036 67.9965 59.0821C67.0946 58.829 57.7592 58.8922 57.0313 59.1454ZM66.6357 62.2625C66.9047 62.5315 66.9364 66.0758 66.6674 66.4239C66.4775 66.677 66.1611 66.7245 63.6927 66.7878C62.1737 66.8194 60.4016 66.8036 59.7528 66.7245L58.5661 66.5979V64.4619C58.5661 62.4207 58.582 62.3258 58.9142 62.1517C59.3731 61.9302 66.3984 62.0251 66.6357 62.2625Z" fill="#444444"/>
</svg>
