<svg width="90" height="90" viewBox="0 0 90 90" fill="none" xmlns="http://www.w3.org/2000/svg">
<rect width="90" height="90" rx="10" fill="white"/>
<path d="M66.7794 25.7238C70.8122 27.9118 75.3762 31.759 74.9004 36.8879C74.347 41.6415 69.8782 44.9598 65.8852 46.9592C54.2251 52.4853 37.8505 52.6543 25.8119 47.826C21.7437 46.1471 17.1775 43.2612 15.4665 38.9246C14.1562 35.3605 15.752 31.6471 18.4347 29.1759C24.0456 24.1217 31.1971 22.3879 38.5566 21.3871C46.5447 20.4259 54.9511 21.2752 62.1026 23.7069C63.7006 24.2928 65.2766 24.9337 66.7794 25.7238ZM80 57.522V69H77.4834V65.6993H71.7419V69H69.2252V59.9998C69.2252 58.4086 69.8738 57.5198 71.7419 57.5198H80V57.522Z" fill="#002C5F"/>
<path d="M76.9981 60H72.8828C72.1908 60.0361 72 60.1891 72 60.9387V63H77L76.9981 60Z" fill="white"/>
<path d="M67 60.3746V66.3268C67 68.2218 65.8215 69 64.3519 69H56V58H64.3519C66.6087 57.9979 67 59.2914 67 60.3746Z" fill="#002C5F"/>
<path d="M64 61.0364C64 60.424 63.6427 60 63.0144 60H59V67H63.0144C63.9302 66.9507 64 66.379 64 65.9251V61.0364Z" fill="white"/>
<path d="M5 58H7.51417V62.334H13.1395V58H15.6537V68.9979H13.1395V64.5083H7.51417V68.9979H5V58ZM19.9634 58L23.1144 62.4938L26.2278 58H29.2815L24.3704 65.0298V68.9979H21.8562V65.0298L16.9097 58H19.9634ZM43.3935 58H51.4955C52.6497 58 53.7686 58.1535 53.7355 60.3762V69H51.2213V61.1669C51.2213 60.2185 51.1019 60.0187 50.3213 60.0187H45.9077V69H43.3935V58ZM82.4858 58.0021H85V69H82.4858V58.0021ZM30.5375 68.9979H38.6394C40.2514 68.9979 40.9125 68.5542 40.8794 66.3441V58H38.3652V65.8499C38.3652 66.792 38.2458 66.9056 37.463 66.9056H33.0494V58H30.5353L30.5375 68.9979Z" fill="#002C5F"/>
<path d="M50.7737 39.5449C51.2317 41.9401 49.9949 43.9305 48.9683 45.8647C47.8266 47.6617 45.946 49.2067 43.6826 48.9773C38.7231 48.9076 33.7971 48.1401 29.0447 46.6968C28.826 46.6393 28.6361 46.5015 28.5115 46.31C28.4164 46.0401 28.5513 45.7882 28.7416 45.615C32.9431 42.156 37.9434 40.5525 42.8861 38.8702C44.7291 38.3282 46.6894 37.748 48.7603 38.0201C49.6143 38.1348 50.4706 38.733 50.7737 39.5449ZM68.0931 29.3029C70.4494 31.273 72.5801 33.9606 71.8566 37.206C70.6773 41.9986 65.5443 44.5513 61.4578 46.1728C59.2343 46.9262 56.9908 47.6999 54.557 47.9315C54.4044 47.9135 54.1566 47.9518 54.119 47.7201L54.1765 47.4502C57.6346 43.4875 60.2586 39.0434 62.5596 34.5409C63.6239 32.5123 64.6129 30.4252 65.5244 28.3763C65.6373 28.2451 65.7812 28.1453 65.9426 28.0862C66.801 28.1627 67.4094 28.8374 68.0931 29.3029ZM34.9189 24.1999L34.8415 24.49C29.8412 30.2677 26.5534 36.9743 23.436 43.6404C22.8276 44.2207 22.2368 43.447 21.6859 43.1973C18.9115 41.3419 16.4025 38.3462 17.126 34.7905C18.2853 30.153 22.9802 27.6769 26.8986 25.9968C29.2511 25.0737 31.6912 24.3999 34.1799 23.9862C34.4432 23.9885 34.7861 23.9502 34.9189 24.1999ZM59.7276 25.1287C60.0131 25.2817 60.356 25.3401 60.5264 25.6303C60.679 25.9586 60.3737 26.1723 60.2033 26.3837C56.2673 29.5143 51.7626 31.2528 47.1606 32.7799C44.822 33.3579 42.4635 34.4037 39.8594 33.8234C39.5454 33.7419 39.2507 33.5971 38.9927 33.3978C38.7346 33.1985 38.5185 32.9486 38.3571 32.6629C37.7111 30.8457 38.585 28.9521 39.3461 27.3687C40.355 25.3784 42.1405 23.0394 44.6119 23.0012C49.9373 22.9652 54.9575 23.7748 59.7276 25.1287Z" fill="white"/>
</svg>
