<svg width="90" height="90" viewBox="0 0 90 90" fill="none" xmlns="http://www.w3.org/2000/svg">
<rect width="90" height="90" rx="10" fill="white"/>
<path d="M75.0174 63.0036C78.2862 57.5679 80.009 51.3429 80 45C80 25.6698 64.3291 10 44.9997 10C25.6697 10 10 25.6704 10 45C9.99105 51.343 11.7143 57.5681 14.9839 63.0036L14.8565 63.1056L15.0086 63.0467C21.1346 73.2046 32.2729 80 44.9997 80C57.7271 80 68.8641 73.2046 74.9895 63.0467L75.1416 63.1056L75.0174 63.0036ZM75.7 45C75.706 50.36 74.3008 55.6271 71.6258 60.2717L49.974 42.8329L45.5334 14.3152C62.2406 14.6004 75.7 28.2242 75.7 45ZM14.3031 45C14.3031 28.2248 27.7613 14.601 44.4685 14.3152L40.0279 42.8329L18.3761 60.2717C15.7019 55.6268 14.2972 50.3598 14.3031 45ZM45.0009 75.6981C34.1079 75.6981 24.5465 70.0189 19.0981 61.4653L45.0009 51.4442L70.9038 61.4659C65.4548 70.0189 55.8953 75.6981 45.0009 75.6981Z" fill="#444444"/>
</svg>
