<svg width="90" height="90" viewBox="0 0 90 90" fill="none" xmlns="http://www.w3.org/2000/svg">
<rect width="90" height="90" rx="10" fill="white"/>
<path fill-rule="evenodd" clip-rule="evenodd" d="M45.5337 24.278C49.1157 24.278 52.67 23.8428 56.1056 22.9763L56.539 22.8675L56.8636 23.1702C59.319 25.445 61.0256 28.4114 61.7577 31.6769L61.8547 32.1102L61.54 32.4346C56.5748 37.5589 52.9598 43.8352 51.0195 50.7004L50.8988 51.1357L50.4634 51.2662C48.8666 51.7554 47.2057 52.0034 45.5357 52.0022C43.8713 52.0022 42.2089 51.7489 40.5921 51.2425L40.1705 51.11L40.0518 50.6886C38.0958 43.8273 34.4721 37.5564 29.5036 32.4346L29.1909 32.1102L29.2879 31.675C30.0357 28.3989 31.7577 25.4258 34.2275 23.1464L34.5521 22.8438L34.9875 22.9526C38.4348 23.8233 41.976 24.2685 45.5317 24.278" fill="#112C5C"/>
<path fill-rule="evenodd" clip-rule="evenodd" d="M31.1676 35.3626C31.1617 33.4758 31.5303 31.6065 32.2522 29.8631C32.9741 28.1196 34.0348 26.5367 35.373 25.206C36.7024 23.869 38.2838 22.8089 40.0258 22.0869C41.7677 21.365 43.6357 20.9956 45.5214 21.0001C47.4091 20.9944 49.2791 21.3633 51.0232 22.0852C52.7672 22.8072 54.3506 23.8679 55.6817 25.206C57.0202 26.5365 58.0813 28.1194 58.8035 29.8628C59.5257 31.6063 59.8947 33.4756 59.8891 35.3626C59.8891 43.266 53.4414 49.7134 45.5214 49.7134C43.6356 49.718 41.7677 49.3486 40.0257 48.6267C38.2837 47.9047 36.7023 46.8445 35.373 45.5075C34.0358 44.1784 32.9756 42.5975 32.2537 40.8561C31.5319 39.1148 31.1627 37.2476 31.1676 35.3626Z" fill="#112C5C"/>
<path d="M34.9143 24.2486C33.8533 25.262 32.9417 26.421 32.207 27.6909C31.4782 28.9498 30.9343 30.307 30.5921 31.7207C33.0752 34.3118 35.238 37.1918 37.0338 40.2987C38.8163 43.3836 40.2166 46.674 41.2036 50.0973C41.8626 50.2892 42.5454 50.4435 43.2479 50.5523C43.9921 50.667 44.756 50.7284 45.5337 50.7284C46.3273 50.7284 47.1011 50.669 47.8531 50.5582C48.5292 50.4579 49.1976 50.3118 49.8539 50.121C50.8428 46.6871 52.2442 43.3856 54.0277 40.2888C55.8169 37.1852 57.9738 34.3084 60.4516 31.7207C59.7656 28.8815 58.2825 26.2973 56.1769 24.2723C52.6938 25.1277 49.1204 25.5615 45.5337 25.5642C43.6616 25.5642 41.8171 25.4395 39.9984 25.2041C38.2864 24.9814 36.5884 24.6624 34.9123 24.2486H34.9143ZM31.4213 27.2358C32.2446 25.8115 33.2776 24.5256 34.4749 23.4177L34.655 23.2476L34.8925 23.3069C36.6063 23.7382 38.3459 24.0765 40.1112 24.304C41.9093 24.537 43.7206 24.654 45.5337 24.6541C49.1303 24.6554 52.7132 24.2115 56.2006 23.3326L56.4381 23.2733L56.6182 23.4395C59.0114 25.6684 60.6752 28.5679 61.3916 31.7583L61.447 31.9957L61.2768 32.1717C58.7793 34.7534 56.6097 37.6332 54.8173 40.7458C53.0295 43.848 51.6335 47.1599 50.6614 50.6057L50.5941 50.8431L50.3566 50.9163C49.5848 51.1537 48.7932 51.3357 47.9857 51.4564C47.1862 51.5751 46.3669 51.6364 45.5337 51.6364C44.7124 51.6364 43.903 51.5711 43.1134 51.4505C42.2959 51.3241 41.4889 51.1376 40.699 50.8926L40.4635 50.8194L40.3962 50.582C39.4265 47.1457 38.0324 43.8435 36.2462 40.7517C34.4465 37.6375 32.2711 34.7559 29.7688 32.1717L29.5986 31.9957L29.6521 31.7583C30.009 30.1699 30.6056 28.6449 31.4213 27.2358Z" fill="#DEDDDE"/>
<path d="M31.5322 35.3628C31.5322 31.4972 33.0976 27.9995 35.6288 25.4673C36.9263 24.1654 38.4685 23.1329 40.1667 22.429C41.8649 21.7252 43.6855 21.364 45.5239 21.3662C49.3909 21.3662 52.8918 22.9311 55.425 25.4633C56.7272 26.762 57.7598 28.3051 58.4635 30.004C59.1672 31.7029 59.5281 33.524 59.5255 35.3628C59.5272 37.2003 59.1654 39.02 58.461 40.7173C57.7566 42.4145 56.7234 43.9558 55.421 45.2524C54.122 46.5529 52.5788 47.5841 50.88 48.2869C49.1813 48.9896 47.3604 49.3501 45.5219 49.3475C43.6847 49.3498 41.8651 48.9892 40.1677 48.2864C38.4702 47.5836 36.9284 46.5526 35.6308 45.2524C34.3298 43.9551 33.2982 42.4135 32.5952 40.7163C31.8922 39.0191 31.5316 37.1998 31.5342 35.3628H31.5322ZM36.274 26.1063C35.0568 27.3212 34.0917 28.7645 33.4342 30.3534C32.7767 31.9423 32.4397 33.6453 32.4426 35.3648C32.4426 38.9732 33.9071 42.2414 36.274 44.6075C37.4871 45.8233 38.9287 46.7875 40.5157 47.4448C42.1028 48.1021 43.8041 48.4394 45.5219 48.4375C49.1396 48.4375 52.4129 46.9736 54.7837 44.6095C56.0006 43.3967 56.9655 41.9555 57.623 40.3686C58.2806 38.7817 58.6177 37.0805 58.6151 35.3628C58.6151 31.7484 57.1507 28.4743 54.7818 26.1082C53.5672 24.8908 52.1238 23.9253 50.5347 23.2673C48.9455 22.6093 47.242 22.2719 45.5219 22.2743C41.9102 22.2743 38.6389 23.7382 36.274 26.1063Z" fill="#DEDDDE"/>
<path d="M40.7683 34.6706C41.2195 34.5835 41.6687 34.6112 42.0685 34.7576C42.4583 34.9001 42.8007 35.1533 43.0461 35.5114L43.2678 36.0297L42.7532 35.8398C41.9854 35.4243 41.2135 35.6558 40.4576 35.8793C39.4918 36.1662 38.5478 36.4471 37.5603 35.6142C37.3582 35.4585 37.1899 35.2633 37.0655 35.0405C36.9569 34.855 36.8617 34.6619 36.7805 34.4628L36.4619 33.6992L37.1249 34.1938C37.1288 34.1958 38.4983 35.2482 40.7544 34.6726L40.7683 34.6706Z" fill="#DEDDDE"/>
<path fill-rule="evenodd" clip-rule="evenodd" d="M45.2208 30.9033C44.257 30.9033 43.3645 31.0853 43.0162 31.5799C43.0162 31.5799 42.6303 31.94 42.5571 32.2525C42.5571 32.2525 40.0872 30.5789 39.3154 34.217C39.3154 34.217 40.8096 33.1448 41.6645 33.8451C41.6645 33.8451 42.0999 34.4584 42.8955 34.6641C43.98 34.9529 43.8593 35.1706 43.9068 35.3981C43.9068 35.3981 43.7623 35.7344 42.8223 36.3279C41.8941 36.9293 41.3637 36.6404 40.5068 36.3635C40.5068 36.3635 40.4474 37.6276 42.1494 37.6039C42.1494 37.6039 42.4265 37.6276 42.7629 37.592C42.7629 37.592 40.7245 38.4466 41.4963 40.5437C41.4963 40.5437 42.1949 39.6989 42.9667 39.507C42.9667 39.507 40.7621 42.0136 43.6792 44.4588C43.6792 44.4588 43.6792 42.2173 44.5104 41.5308C44.5104 41.5308 44.9675 43.3153 44.823 44.2906C44.823 44.2906 44.7874 45.1452 44.5222 45.5923C44.5222 45.5923 47.9816 45.5191 46.9921 41.3627C46.9921 41.3627 48.3774 41.8335 48.0904 43.7248C48.0904 43.7248 51.1995 42.1698 49.1512 38.9768C49.1512 38.9768 50.3188 38.9768 50.681 40.3755C50.681 40.3755 52.3433 37.8076 49.5964 35.3624C49.5964 35.3624 50.6335 35.1092 51.1995 35.9658C51.1995 35.9658 51.1262 34.0132 49.2818 33.0617C48.8602 32.8322 49.5232 32.1576 49.355 31.7837L45.2208 30.9033Z" fill="#CE0F3E"/>
<path fill-rule="evenodd" clip-rule="evenodd" d="M47.3682 32.399C47.3682 32.399 48.4863 30.9766 50.1625 31.1705C50.1625 31.1705 49.6935 33.2675 47.8471 33.6513L47.3682 32.399Z" fill="#CE0F3E"/>
<path fill-rule="evenodd" clip-rule="evenodd" d="M47.9086 32.6024C47.9086 32.6024 48.5479 31.9773 49.3197 31.8447C49.3197 31.8447 48.9338 32.7488 48.0531 32.9288L47.9086 32.6024ZM44.6076 34.6262C44.4018 34.4818 44.1366 34.4225 43.9189 34.5313C44.5819 34.555 44.6908 35.4947 45.4151 35.3028C45.5435 35.2659 45.6652 35.2085 45.7753 35.1327C45.3062 35.3266 44.9203 34.8933 44.6076 34.6262ZM48.3777 37.3168C48.3181 36.9852 48.1803 36.6726 47.9759 36.4047C47.7385 36.108 47.408 35.9161 46.9805 35.7598C47.0755 36.1753 47.1903 36.5907 47.1922 37.018C47.2052 37.3792 47.1153 37.7366 46.933 38.0487C46.8173 38.2321 46.665 38.3897 46.4857 38.5117C46.6361 38.116 46.6441 37.7777 46.5966 37.5087C46.5075 37.0081 46.2205 36.745 45.896 36.3988C45.8821 36.7074 45.8881 37.024 45.8089 37.3247C45.7429 37.6264 45.5709 37.8945 45.324 38.0804C45.4359 37.7364 45.4118 37.3627 45.2568 37.0358L44.8471 37.2534C44.855 37.2732 45.0371 37.6432 44.8313 38.0646C44.6927 38.3475 44.4157 38.5651 44.198 38.7847C45.0252 38.7352 45.7772 38.6462 46.1651 37.7203C46.2027 38.3415 45.8228 38.8361 45.4863 39.3149C46.2265 39.1665 46.8519 39.0161 47.307 38.302C47.592 37.8608 47.6949 37.3247 47.6316 36.6876C48.0591 37.2614 48.0056 38.0092 48.0056 38.6877C48.5677 38.0052 48.9872 37.3623 48.9813 36.4067C48.9753 35.7697 48.7458 35.0298 48.0175 34.3018L47.8612 34.7845C48.6824 35.8271 48.5855 36.747 48.3777 37.3168Z" fill="#DEDDDE"/>
<path d="M41.8154 35.1528C41.5057 35.0644 41.1794 35.0508 40.8635 35.1133C39.3614 35.4951 38.2056 35.2082 37.5288 34.9233C37.6088 35.0486 37.7107 35.1585 37.8296 35.2478L37.8395 35.2557L37.8474 35.2616C38.6489 35.9442 39.4801 35.6969 40.3271 35.4456C40.816 35.2992 41.3087 35.1548 41.8154 35.1528Z" fill="#CE0F3E"/>
<path fill-rule="evenodd" clip-rule="evenodd" d="M46.0026 29.6532C46.2935 30.134 46.7646 30.773 47.3543 30.773C47.9579 30.773 48.3181 30.5079 48.609 30.0251C48.4807 30.0535 48.347 30.0452 48.2231 30.0014C47.8471 29.8689 47.669 29.495 47.7402 29.0123C47.7758 28.8802 47.8461 28.76 47.9438 28.6642C48.0415 28.5684 48.1631 28.5004 48.2959 28.4673C48.4287 28.4342 48.5679 28.4372 48.6992 28.476C48.8304 28.5148 48.9489 28.5879 49.0424 28.6878C48.9409 28.5001 48.9147 28.2808 48.9692 28.0745C49.0899 27.6512 49.5827 27.3149 50.0181 27.3861L48.33 31.5425H42.763L41.063 27.5799C41.4845 27.5068 41.9793 27.845 42.1 28.2664C42.1278 28.3547 42.1357 28.4481 42.123 28.5397C42.1104 28.6314 42.0775 28.7192 42.0268 28.7966C42.1119 28.6997 42.2445 28.5197 42.3771 28.4702C42.7867 28.3515 43.2557 28.7115 43.3765 29.123C43.4497 29.6038 43.2933 29.9045 42.9193 30.037C42.7511 30.0726 42.6066 30.0489 42.4364 30.0251C42.5666 30.2602 42.7595 30.4546 42.9936 30.5866C43.2276 30.7186 43.4938 30.7831 43.7624 30.773C44.3541 30.773 44.7875 30.134 45.0764 29.6512C44.9434 29.7471 44.7832 29.7977 44.6193 29.7957C44.5169 29.7957 44.4156 29.7753 44.3212 29.7358C44.2267 29.6963 44.1411 29.6384 44.0693 29.5655C43.9975 29.4926 43.9409 29.4061 43.9028 29.3112C43.8647 29.2162 43.8459 29.1146 43.8475 29.0123C43.8475 28.579 44.1839 28.2189 44.6193 28.2189C44.7519 28.2189 44.8964 28.2546 45.0052 28.3258C44.8535 28.1762 44.7668 27.973 44.7638 27.76C44.7638 27.3247 45.1121 26.9766 45.5356 26.9766C45.969 26.9766 46.3173 27.3267 46.3173 27.76C46.31 27.9779 46.2193 28.1847 46.064 28.3376C46.1832 28.2623 46.3208 28.2213 46.4618 28.2189C46.8971 28.2189 47.2336 28.579 47.2336 29.0123C47.2352 29.1146 47.2164 29.2162 47.1783 29.3112C47.1402 29.4061 47.0836 29.4926 47.0118 29.5655C46.9399 29.6384 46.8543 29.6963 46.7599 29.7358C46.6655 29.7753 46.5641 29.7957 46.4618 29.7957C46.3023 29.7737 46.1477 29.7249 46.0046 29.6512" fill="#E2AD25"/>
<path d="M44.1666 32.5791C44.0843 32.5727 44.0015 32.5727 43.9192 32.5791C43.9156 32.6875 43.8693 32.7902 43.7903 32.8647C43.7114 32.9391 43.6062 32.9794 43.4977 32.9767C43.4013 32.9787 43.307 32.9479 43.2304 32.8893C43.1539 32.8307 43.0994 32.7478 43.0761 32.6543C42.9984 32.646 42.9216 32.6308 42.8466 32.6088C42.9 32.858 43.0385 33.1508 43.3948 33.2181C43.3948 33.2181 43.8955 33.3249 44.1092 32.7116C44.1259 32.6671 44.1451 32.6215 44.1666 32.5791ZM43.3631 31.5444C43.3012 31.5916 43.2465 31.6476 43.2008 31.7106L43.1889 31.7284L43.1731 31.7442C43.1731 31.7442 42.9633 31.9421 42.8466 32.1439C42.9633 32.2072 43.2028 32.2784 43.6263 32.1735L43.6421 32.1696C44.1963 32.0766 44.5446 32.1993 44.7108 32.2883C44.9443 32.3615 45.1442 32.587 45.1442 32.587L44.8177 32.8838C44.8177 32.8838 44.602 32.6424 44.5248 32.858C44.1824 33.8334 43.3156 33.6513 43.3136 33.6494C42.5398 33.505 42.3973 32.7651 42.3756 32.407C42.049 32.2151 40.4025 31.3842 39.6722 33.7443C40.2323 33.4595 41.1565 33.137 41.8096 33.6692L41.8353 33.6889L41.8491 33.7087C41.8511 33.7127 42.239 34.2607 42.9515 34.4427C44.0538 34.7394 44.0874 35.0124 44.1191 35.2874C44.1224 35.3093 44.1263 35.3311 44.131 35.3527L44.1448 35.4219L44.1171 35.4872C44.1171 35.4872 43.9449 35.8908 42.9436 36.5179C42.0649 37.0877 41.5187 36.9413 40.7983 36.6999C40.9131 36.9967 41.2376 37.3884 42.144 37.3765H42.1618C42.1618 37.3765 42.429 37.3983 42.7397 37.3666L44.2319 37.2064L42.8525 37.7999C42.8486 37.8019 41.2495 38.4725 41.6057 40.1007C41.8966 39.8197 42.3855 39.4181 42.9119 39.2876L43.6045 39.1155L43.1395 39.6555C43.1355 39.6615 41.2713 41.7783 43.4739 43.9663C43.5274 43.2343 43.7134 41.895 44.3645 41.3549L44.6416 41.1294L44.7306 41.4736C44.7306 41.4795 45.1937 43.2838 45.0512 44.3066C45.0323 44.6493 44.9759 44.989 44.883 45.3195C45.6904 45.1612 47.4993 44.4688 46.773 41.4143L46.674 41.0087L47.0698 41.1472C47.0738 41.1492 48.3938 41.5982 48.3562 43.2877C49.0686 42.7734 50.4302 41.3925 48.9598 39.0996L48.7322 38.7435L49.1537 38.7495C49.1557 38.7495 50.1828 38.7495 50.7092 39.8C51.0239 38.9968 51.3663 37.242 49.4466 35.5327L49.1201 35.2419L49.5456 35.143C49.5456 35.141 50.2362 34.9729 50.8537 35.329C50.7332 34.8875 50.5221 34.4758 50.2338 34.1203C49.9456 33.7647 49.5865 33.473 49.1794 33.2636L49.1755 33.2596L49.1616 33.2517C48.8272 33.5346 48.4116 33.7661 47.8951 33.8749L47.802 33.4298C48.8311 33.2161 49.692 31.9876 49.8642 31.3802C48.467 31.3703 47.5468 32.5376 47.5428 32.5415L47.1905 32.2566C47.1945 32.2527 48.3878 30.7373 50.1887 30.943L50.444 30.9727L50.3847 31.222C50.3847 31.2259 50.1769 32.1518 49.4981 32.9194C51.3524 33.9521 51.4276 35.9482 51.4276 35.9541L51.4692 36.783L51.01 36.0906C50.9125 35.9426 50.7828 35.8185 50.6307 35.7274C50.4786 35.6363 50.3079 35.5806 50.1314 35.5644C52.4765 38.0215 50.8774 40.4884 50.8735 40.4963L50.5944 40.9395L50.4619 40.431C50.2897 39.7643 49.9176 39.4617 49.6129 39.3232C51.2238 42.4113 48.2018 43.9228 48.1939 43.9267L47.7981 44.1305L47.8654 43.6913C48.0237 42.6586 47.6437 42.1007 47.3192 41.8238C47.9722 45.7468 44.5406 45.82 44.5287 45.82L44.1132 45.8338L44.3269 45.4777C44.5644 45.0821 44.596 44.2848 44.596 44.2828V44.2729L44.6 44.2571C44.693 43.6201 44.5149 42.6052 44.3922 42.0295C43.9073 42.8604 43.9073 44.4549 43.9073 44.4609L43.9034 44.9436L43.5333 44.633C41.4118 42.8545 41.8491 41.0423 42.336 40.073C41.9501 40.3539 41.671 40.6882 41.671 40.6902L41.4197 40.9869L41.2832 40.621C40.7646 39.2104 41.4019 38.3123 41.9758 37.8296C40.2145 37.7662 40.2818 36.3577 40.2818 36.3537L40.2936 36.055L40.5786 36.146L40.8458 36.235C41.4949 36.4566 41.9639 36.6149 42.7001 36.1361H42.7021C43.375 35.7128 43.6026 35.4536 43.6718 35.3547L43.6698 35.3408C43.654 35.2202 43.6402 35.0975 42.8387 34.8838C42.3108 34.7393 41.8424 34.431 41.5008 34.0035C40.7745 33.4515 39.4506 34.4011 39.4466 34.4031L38.9736 34.7355L39.0924 34.1716C39.5337 32.0944 40.4975 31.6117 41.3128 31.6275C41.7126 31.6335 42.0985 31.7581 42.4547 31.9302C42.5339 31.7917 42.6289 31.6651 42.7318 31.5444H43.3631Z" fill="#DEDDDE"/>
<path fill-rule="evenodd" clip-rule="evenodd" d="M81.6093 56.0971H74.3166L70.4971 65.5317L70.509 56.0853H65.601V68.7603H74.184L74.9558 66.8335H81.0789L81.9576 68.7603H86.7429L81.6093 56.0971ZM59.8539 62.9045L54.6709 56.0853H48.4508V65.4961L44.5462 56.0991H37.3505L34.3384 63.6286H29.8421C29.468 65.2073 28.6131 65.9037 27.0576 65.9037C25.2745 65.9037 24.0693 64.5782 24.0693 62.6038C24.0693 60.0379 25.0805 58.7125 27.022 58.7125C28.6131 58.7125 29.5155 59.4247 29.7926 60.9044H34.8925L34.9044 60.7125C34.9044 57.6521 31.8072 55.6401 27.0932 55.6401C22.0566 55.6401 19.6699 57.6046 19.2602 62.1092C18.5359 61.3258 17.3544 60.7125 16.4639 60.6393L14.5601 60.4712L11.7498 60.4237C10.5446 60.4 9.8579 59.9766 9.8579 59.2664C9.8579 58.4592 10.5585 58.0141 11.8369 58.0141C13.3054 58.0141 13.8951 58.5562 13.8951 59.8935H19.2583V59.7234C19.2583 57.1081 16.7291 55.6619 12.1358 55.6619C7.0378 55.6619 4.54423 57.0606 4.54423 59.8915C4.54423 62.313 6.37483 63.6147 9.88363 63.7097L11.9675 63.7592C13.4993 63.8066 14.184 64.1805 14.184 64.9877C14.184 65.6742 13.2222 66.325 12.2209 66.325C10.4734 66.325 9.55709 65.7236 9.55709 64.59H4V64.7087C4 67.4586 6.77261 68.9621 11.8112 68.9621C16.6677 68.9621 19.0544 67.9037 19.8262 65.3853C21.3817 68.0363 23.4063 68.9997 27.3465 68.9997C29.8539 68.9997 31.1561 68.6496 32.7829 67.4705L32.2644 68.7584H37.0022L37.869 66.782H44.089L44.9202 68.7346H53.0441V61.2289L58.8169 68.7584H64.566V56.0971H59.8539V62.9045ZM76.2699 63.6523L77.9442 59.4583L79.848 63.6286L76.2699 63.6523ZM39.1712 63.6523L40.8573 59.3277L42.7868 63.6523H39.1712Z" fill="#112C5C"/>
</svg>
