<svg width="90" height="90" viewBox="0 0 90 90" fill="none" xmlns="http://www.w3.org/2000/svg">
<rect width="90" height="90" rx="10" fill="white"/>
<path d="M41.9498 17.245C29.7937 19.1663 22.3486 31.8397 26.5053 43.4785C28.7038 49.6304 33.9874 54.3968 40.361 55.9671C42.3008 56.4474 45.8479 56.6137 47.8801 56.3366C49.9861 56.0225 52.9605 55.0064 54.8264 53.9534C55.6577 53.473 56.3598 53.0481 56.3598 52.9927C56.3598 52.9373 56.0272 52.5309 55.6577 52.0875L54.9557 51.2746L54.1429 51.7919C49.9677 54.4337 43.7418 55.0064 39.0309 53.1775C37.5714 52.6232 34.7449 51.0529 34.7449 50.8128C34.7449 50.7389 37.2204 50.7019 40.2317 50.7389C46.6423 50.8128 47.1042 50.7573 47.7877 50.0368C48.3604 49.4457 53.2191 37.5113 53.2191 36.7169C53.2191 35.8301 52.7388 35.6269 50.6512 35.6269C48.5821 35.6269 48.0463 35.4606 48.0463 34.8325C48.0463 34.6108 48.7484 32.5971 49.6167 30.3617C50.9099 27.0179 51.3163 26.1865 51.8336 25.6877L52.4802 25.0965H55.3067H58.1333L58.6136 25.5954C59.9623 27.0548 61.4402 29.9922 62.1053 32.4863C62.6595 34.5369 62.7149 38.7121 62.2161 40.6704C61.8282 42.2592 60.9599 44.3098 60.147 45.6769L59.5373 46.693L60.3872 47.3396L61.2555 47.9862L61.6434 47.5243C62.2531 46.7854 63.4724 44.199 63.9897 42.5547C65.4861 37.8253 65.0242 32.5417 62.7334 27.9601C58.8538 20.2009 50.5034 15.8964 41.9498 17.245ZM47.4182 19.388C50.0231 19.739 52.8866 20.829 54.8818 22.2146L55.7132 22.7873L49.3026 22.8796L42.8735 22.972L42.4117 23.4523C42.0976 23.7664 41.137 25.9464 39.5297 30.0107C38.218 33.3546 37.0911 36.2735 37.0172 36.5137C36.9618 36.7538 37.0541 37.1233 37.2204 37.3819C37.516 37.8253 37.6084 37.8438 39.4743 37.8438C41.6727 37.8438 42.1346 37.9916 42.1346 38.7306C42.1346 39.0077 41.4141 41.0953 40.5273 43.3676C38.4582 48.6882 38.7168 48.448 34.8927 48.5035L32.14 48.5219L31.3086 47.4874C30.2926 46.1942 28.8146 43.3307 28.3158 41.7234C26.413 35.4421 28.2604 28.6621 33.1376 24.062C37.0726 20.3487 42.2269 18.6675 47.4182 19.388Z" fill="#0154A4"/>
<path d="M57.3753 47.801C56.4885 48.189 55.9897 48.891 55.8604 49.8701C55.768 50.4798 55.8604 50.683 56.507 51.5144L57.2645 52.4565L59.0565 50.7015L60.83 48.928L59.9063 48.189C58.8717 47.3576 58.4653 47.3022 57.3753 47.801Z" fill="#0154A4"/>
<path d="M3.85541 63.412C2.19272 63.8554 1.21358 64.9269 1.37985 66.0908C1.56459 67.3471 2.82085 68.0676 5.8691 68.6957C8.19686 69.176 8.32618 69.2314 8.32618 69.527C8.32618 70.1552 5.97995 70.0997 5.27793 69.4347C4.92691 69.1021 4.6498 69.0652 2.89474 69.0652C0.917995 69.0652 0.917995 69.0652 1.04731 69.4716C1.28748 70.2845 1.87866 70.8941 2.91322 71.3929C3.83693 71.8548 4.22489 71.9287 6.20164 71.9841C8.6033 72.0765 10.3953 71.7624 11.2636 71.1343C12.4829 70.2291 12.8339 68.8989 12.0395 68.0676C11.4483 67.4394 10.1182 66.9037 8.10449 66.4973C6.14622 66.0908 5.3703 65.8322 5.3703 65.5735C5.3703 65.0747 7.55026 65.1671 7.97517 65.6659C8.12297 65.8507 8.69567 65.9246 10.1921 65.9246C11.3005 65.9246 12.2058 65.8876 12.2058 65.8322C12.2058 65.7583 12.0765 65.4812 11.9287 65.2041C11.5222 64.4097 10.6355 63.7446 9.58243 63.4305C8.41855 63.098 5.09318 63.0795 3.85541 63.412Z" fill="#0154A4"/>
<path d="M42.245 63.3752C39.8618 63.7077 38.0698 65.5552 38.0698 67.6982C38.0698 68.585 38.9196 70.0998 39.7879 70.728C41.0627 71.6702 41.9864 71.8364 45.7736 71.8364H49.1729L49.1174 70.5802L49.062 69.3424L46.1985 69.25C43.2611 69.1577 42.6884 69.0283 42.3189 68.3263C41.8201 67.3841 42.3004 66.3865 43.4828 65.9431C43.7784 65.8323 45.1639 65.7399 46.5865 65.7399H49.1544V64.5391V63.3567L46.1246 63.3013C44.4619 63.2644 42.7069 63.3013 42.245 63.3752Z" fill="#0154A4"/>
<path d="M12.9818 67.532L13.0372 71.7441L15.1248 71.7996L17.1939 71.855V70.3586V68.8806H18.7642H20.3345V70.3586V71.8365H22.3667H24.3989V67.5874V63.3383H22.3667H20.353L20.2976 64.8532L20.2422 66.3496H18.7642L17.2863 66.3312L17.2309 64.8348L17.1754 63.3383H15.0509H12.9448L12.9818 67.532Z" fill="#0154A4"/>
<path d="M27.5393 66.8668C26.3754 68.8251 25.23 70.7464 24.9898 71.1344L24.5649 71.8364H26.5047H28.463L28.9249 71.0975L29.3867 70.3585H31.6036H33.8206L34.19 71.0975L34.5595 71.8364H36.407C37.423 71.8364 38.2544 71.7995 38.2544 71.7625C38.2544 71.7256 37.1459 69.8227 35.7788 67.5504L33.3218 63.4306L31.4928 63.3752L29.6638 63.3198L27.5393 66.8668ZM32.1579 67.4026L32.7121 68.5111H31.4004C30.3659 68.5111 30.1257 68.4556 30.255 68.2709C30.3474 68.16 30.6615 67.6612 30.9386 67.1624C31.2157 66.6821 31.4743 66.2941 31.5113 66.2941C31.5667 66.2941 31.8438 66.7929 32.1579 67.4026Z" fill="#0154A4"/>
<path d="M50.5212 63.5785C50.4843 63.7078 50.4658 65.5922 50.4843 67.7722L50.5397 71.7441L52.3133 71.7996L54.0868 71.855L54.2161 70.9867C54.2715 70.5064 54.3269 69.5826 54.3269 68.936V67.7352L55.5832 69.0654L56.821 70.3955L58.0772 69.0838C58.7793 68.3633 59.3889 67.7722 59.4259 67.7722C59.4628 67.7722 59.4997 68.6959 59.4997 69.8043V71.855L61.4026 71.7996L63.287 71.7441L63.3424 67.532L63.3793 63.3383H61.5873H59.7769L58.3543 65.001L56.9318 66.6637L55.3985 65.001L53.8651 63.3383H52.2394C51.0939 63.3383 50.5951 63.4122 50.5212 63.5785Z" fill="#0154A4"/>
<path d="M68.6082 63.5599C68.3127 63.9479 63.7495 71.6147 63.7495 71.7256C63.7495 71.781 64.5809 71.8364 65.5969 71.8364H67.4444L67.9247 71.0975L68.4235 70.3585H70.6035H72.8019L73.2638 71.0975L73.7256 71.8364H75.4807C76.4413 71.8364 77.2357 71.781 77.2357 71.6886C77.2357 71.6147 76.1273 69.7304 74.7787 67.495L72.3401 63.4306L70.5665 63.3752C69.2918 63.3383 68.7376 63.3937 68.6082 63.5599ZM71.1946 67.3102C71.4718 67.8829 71.6935 68.3817 71.6935 68.4187C71.6935 68.4741 71.1392 68.5111 70.4742 68.5111C69.8091 68.5111 69.2918 68.4556 69.3287 68.3633C69.532 67.8829 70.5111 66.2941 70.585 66.2941C70.6404 66.2941 70.9175 66.756 71.1946 67.3102Z" fill="#0154A4"/>
<path d="M77.6785 63.5784C77.6415 63.7077 77.6231 65.5921 77.6415 67.7721L77.6969 71.7441H79.5259H81.3549L81.3179 69.8227C81.281 68.0122 81.2994 67.9014 81.595 68.16C81.7798 68.3078 82.7959 69.1946 83.8674 70.1368L85.8256 71.8364L87.4883 71.7995L89.151 71.7441V67.5873V63.4306L87.2482 63.3752L85.3268 63.3198L85.4007 65.3704C85.4561 67.2548 85.3823 67.6982 85.0867 67.2179C85.0128 67.107 83.9967 66.2018 82.8328 65.1857L80.6898 63.3383H79.2303C78.2327 63.3383 77.7524 63.4122 77.6785 63.5784Z" fill="#0154A4"/>
</svg>
