<svg width="90" height="90" viewBox="0 0 90 90" fill="none" xmlns="http://www.w3.org/2000/svg">
<rect width="90" height="90" rx="10" fill="white"/>
<g filter="url(#filter0_i_946_1693)">
<path d="M42.4643 46.314H43.5667L43.5645 43.047H42.4643V42.3225H46.8293V43.047H45.7425V46.3118H46.7528C47.6865 46.3118 48.2985 45.6953 48.2985 44.8583H49.0185V47.0453H42.4643V46.314ZM52.1685 47.0498H54.72L56.8845 43.047H57.969V42.3225H54.7065V43.047H55.6493L54.072 45.9608L52.4745 43.047H53.622L53.6175 42.3225H48.8835V43.047H49.968L52.1685 47.0498ZM29.4142 42.3225H24.678V43.047H25.7602L27.9653 47.0498H30.5145L32.679 43.047H33.7635V42.3225H30.501V43.047H31.4415L29.8665 45.9608L28.269 43.047H29.4142V42.3225ZM37.755 42.2235C39.9487 42.2235 41.1255 43.317 41.1255 44.6895C41.1255 46.08 40.014 47.1893 37.7663 47.1893C35.5185 47.1893 34.398 46.08 34.398 44.6895C34.398 43.317 35.5612 42.2235 37.755 42.2235ZM37.7932 42.966C37.044 42.9548 36.6075 43.749 36.5917 44.6603C36.5782 45.5378 36.9293 46.4243 37.7302 46.4378C38.5538 46.4535 38.9093 45.5603 38.9227 44.7008C38.9408 43.7895 38.5448 42.9818 37.7932 42.9683V42.966ZM61.9538 42.2235C64.1452 42.2235 65.322 43.317 65.322 44.6895C65.322 46.08 64.2128 47.1893 61.965 47.1893C59.715 47.1893 58.5945 46.08 58.5945 44.6895C58.5945 43.317 59.76 42.2235 61.9538 42.2235ZM60.7905 44.6603C60.7747 45.5378 61.128 46.4243 61.929 46.4378C62.7525 46.4535 63.108 45.5603 63.1215 44.7008C63.1395 43.7895 62.7435 42.9818 61.992 42.9683C61.2427 42.9548 60.8062 43.749 60.7905 44.6603ZM67.2188 29.6595L64.476 32.4C66.9091 36.1514 68.2004 40.5287 68.193 45C68.193 57.8093 57.8092 68.193 45 68.193C32.1908 68.193 21.807 57.8093 21.807 45C21.807 32.1908 32.1908 21.807 45 21.807C49.6575 21.807 53.991 23.1795 57.6247 25.542L60.3675 22.7993C55.8558 19.6667 50.4926 17.9918 45 18C30.0893 18 18 30.0893 18 45C18 59.9108 30.0893 72 45 72C59.9108 72 72 59.9108 72 45C72 39.3008 70.2337 34.0155 67.2188 29.6595ZM58.581 19.062V19.8203C60.219 20.7068 61.7603 21.753 63.1868 22.9298L59.3392 26.7773C60.7911 27.9161 62.1017 29.2244 63.243 30.6743L67.086 26.8313C68.265 28.2623 69.3113 29.8058 70.2 31.4168H70.938V19.0643L58.581 19.062Z" fill="#003057"/>
</g>
<defs>
<filter id="filter0_i_946_1693" x="18" y="18" width="54" height="58" filterUnits="userSpaceOnUse" color-interpolation-filters="sRGB">
<feFlood flood-opacity="0" result="BackgroundImageFix"/>
<feBlend mode="normal" in="SourceGraphic" in2="BackgroundImageFix" result="shape"/>
<feColorMatrix in="SourceAlpha" type="matrix" values="0 0 0 0 0 0 0 0 0 0 0 0 0 0 0 0 0 0 127 0" result="hardAlpha"/>
<feOffset dy="4"/>
<feGaussianBlur stdDeviation="2"/>
<feComposite in2="hardAlpha" operator="arithmetic" k2="-1" k3="1"/>
<feColorMatrix type="matrix" values="0 0 0 0 0 0 0 0 0 0 0 0 0 0 0 0 0 0 0.5 0"/>
<feBlend mode="normal" in2="shape" result="effect1_innerShadow_946_1693"/>
</filter>
</defs>
</svg>
