<svg width="90" height="90" viewBox="0 0 90 90" fill="none" xmlns="http://www.w3.org/2000/svg">
<rect width="90" height="90" rx="10" fill="white"/>
<path fill-rule="evenodd" clip-rule="evenodd" d="M45.5136 61.153C68.9767 61.153 88 53.971 88 45.0902C88 36.2093 68.9767 29 45.5136 29C22.0233 29 3 36.2093 3 45.0902C3 53.9714 22.0233 61.153 45.5136 61.153Z" fill="#425E99"/>
<path fill-rule="evenodd" clip-rule="evenodd" d="M45.5141 59.5084C22.9829 59.5084 4.67285 53.0941 4.67285 45.0902C4.67285 37.1139 22.9829 30.6174 45.5141 30.6174C68.1003 30.6174 86.3826 37.1139 86.3826 45.0902C86.3826 53.0941 68.1003 59.5084 45.5141 59.5084Z" fill="white"/>
<path fill-rule="evenodd" clip-rule="evenodd" d="M45.5132 58.3847C67.3593 58.3847 85.0932 52.4366 85.0932 45.0901C85.0932 37.7717 67.3593 31.8236 45.5132 31.8236C23.6398 31.8236 5.95996 37.7717 5.95996 45.0901C5.96042 52.4366 23.6398 58.3847 45.5132 58.3847Z" fill="#425E99"/>
<path fill-rule="evenodd" clip-rule="evenodd" d="M55.8748 47.7489C57.7385 45.9948 58.7794 44.1584 61.4663 44.1856C63.0832 44.2129 63.494 45.5014 63.7679 46.0497L67.304 40.0744H69.4693L63.6039 50.4631C63.494 50.6821 63.2195 51.0933 63.2473 51.4222C63.3031 51.9429 63.9606 51.8061 63.7139 51.8061C64.8924 51.7512 67.0573 49.5036 67.5784 48.9557C67.6874 48.818 67.8801 48.5717 67.9891 48.5717C68.0991 48.5717 68.3185 48.6812 68.3185 48.8457C68.3185 48.9557 68.0718 49.3664 67.8801 49.6131C66.7833 50.9838 64.9746 53.0942 62.9188 53.1491C61.9047 53.1491 61.5203 52.738 61.3836 51.9433C60.9179 52.3541 59.3277 53.0669 57.7108 53.0669C56.3673 53.0396 55.8189 52.2446 55.5454 51.6144C55.2987 51.0937 55.1888 50.3264 55.3805 49.559C54.6404 49.9429 53.9553 49.9974 52.9685 49.9702C51.8167 49.9425 51.1039 49.4218 50.7481 48.0783C49.4324 50.4908 49.377 50.5726 48.0344 53.0946H45.7046L48.6923 48.0238C49.0766 47.3382 49.2684 46.7903 49.4047 46.2151C49.4874 45.8857 49.2407 45.5841 48.884 45.5573C48.5006 45.5573 47.8709 45.9412 47.267 46.5163C47.267 46.5163 45.7323 48.161 44.6083 49.833C43.5388 51.4231 41.7028 53.2318 39.702 53.2318C38.249 53.2318 36.9333 52.4372 36.6593 50.902C36.6593 50.902 36.5221 51.2582 35.2336 51.9983C35.1241 52.0528 34.8502 52.2173 34.7684 52.1628C34.5212 51.9438 34.3845 51.6694 34.3568 51.4772C34.439 51.5049 34.6035 51.3677 35.1241 50.9565C36.1382 50.1892 36.3576 49.5854 36.3576 49.5854C36.6039 49.0647 37.0432 48.2424 37.3444 47.6667C38.1672 46.022 39.592 44.3501 41.9218 44.2679C42.3057 44.2679 42.4152 44.4323 42.4975 44.5695C42.7165 44.734 42.6347 45.0629 42.6347 45.0629C40.99 45.3096 39.8664 46.2687 39.1808 47.201C38.7701 47.8039 38.3312 48.7907 38.249 49.5031C38.0845 50.7366 38.6602 51.5585 39.5098 51.7507C41.0995 51.9974 42.4152 50.8461 43.457 49.0647C43.7314 48.5986 43.9232 47.3923 43.9232 46.7344C43.9232 46.0766 43.5665 45.3914 43.2926 45.117C43.2926 44.6513 43.5938 44.3496 43.95 44.3496C44.0595 44.3496 44.1694 44.3496 44.2789 44.4591C44.8273 45.0075 45.129 46.0493 45.129 46.8439C45.129 47.1183 45.129 47.3923 45.074 47.6667C46.2253 46.2687 47.6778 44.4596 48.8022 44.1034C49.0212 43.9939 49.2407 43.9939 49.4596 43.9939C51.5155 43.9389 51.2415 45.803 51.2415 45.803C52.3374 44.5423 53.1052 44.0761 54.1193 44.1307C55.216 44.1856 55.5995 44.9534 55.5995 45.5563C55.5718 46.2687 55.052 47.0911 54.1479 47.1183C53.3519 47.1183 52.8862 46.7344 52.6395 46.022C52.1189 46.2142 51.8726 46.5704 51.7627 47.2828C51.5977 48.1874 52.2833 48.9002 53.1602 48.9002C54.6681 48.9007 55.3264 48.2424 55.8748 47.7489ZM57.519 35.9354C57.519 36.8127 54.4487 38.4847 51.8444 38.4847C47.7882 38.4847 43.567 36.5383 41.6215 36.0999C39.5107 35.6065 37.592 35.1953 36.0841 35.1953C30.7939 35.1953 28.4364 37.4706 28.5463 39.5537C28.6013 40.4033 29.286 40.9517 30.3005 40.7595C31.3972 40.5678 32.932 39.526 33.3159 38.6214C33.3981 38.4297 33.6176 38.402 33.6998 38.457C33.8643 38.5942 33.8093 38.7859 33.8093 38.7859C33.6721 39.8549 32.0274 42.8154 29.1769 42.8154C27.5872 42.8154 26.5182 41.3352 26.5454 39.8822C26.5727 37.1685 29.3414 34.4275 36.1664 34.4275C37.4544 34.4275 38.9073 34.537 40.4975 34.8114C42.3335 35.1403 46.9108 35.9077 50.6386 35.9627C52.0098 35.9627 53.764 36.0177 55.1892 35.7982C56.6967 35.5515 56.3678 35.4965 56.9711 35.4965C57.519 35.4965 57.519 35.716 57.519 35.9354Z" fill="white"/>
<path fill-rule="evenodd" clip-rule="evenodd" d="M61.5766 45.4741C60.6166 45.3646 59.4103 46.187 58.424 47.3932C57.9306 47.9961 57.4099 49.1474 57.3272 49.8325C57.2182 50.5181 57.4099 51.2032 57.6566 51.395C57.9033 51.5867 59.0001 52.1623 60.6993 50.4359C61.6583 49.4763 62.5902 47.9139 62.5902 47.9139L62.2885 47.8312C62.8641 46.7626 62.7537 45.6109 61.5766 45.4741Z" fill="#425E99"/>
<path fill-rule="evenodd" clip-rule="evenodd" d="M41.5401 42.2397C41.5401 42.5414 41.9508 42.7881 42.3074 42.8158C42.2252 43.117 42.2525 43.2542 42.1157 43.227C41.2934 43.227 40.9644 42.4319 40.9644 42.4319C39.8686 42.6236 38.7995 42.7608 36.6337 42.9803C31.179 51.8066 29.4798 53.2595 26.1355 53.2595C23.7507 53.2595 21.6403 51.6971 21.5854 48.9011C21.5577 47.2019 22.9284 45.1184 25.4776 44.4878C25.7793 44.4878 25.8888 44.5977 25.8888 44.7622C25.8888 44.8721 25.7793 45.0089 25.5322 45.1184C24.792 45.3928 23.504 46.8453 23.504 48.1887C23.504 49.2028 24.1346 50.3268 25.2032 50.5731C25.5049 50.6558 25.7793 50.6281 26.0533 50.6281C28.712 50.6281 31.6997 47.6404 34.9341 43.0902C34.4134 43.1175 32.1931 43.3647 31.6447 43.9948C31.3985 44.1865 31.234 44.077 31.179 43.8576C31.179 43.8026 31.2613 43.6109 31.344 43.5009C32.2208 42.5141 34.8523 42.2952 35.4825 42.2129C37.9495 38.4302 41.1289 36.0726 41.7868 36.1003C41.8963 36.1003 42.1434 36.2648 42.0335 36.5388C42.0058 36.5937 41.7318 36.895 41.6228 36.9772C41.0744 37.4706 39.2103 38.6769 37.1821 42.103C38.8268 42.0207 40.7454 41.6918 40.7454 41.6918C40.7454 41.6918 40.636 41.3356 40.636 41.0339C40.7182 39.8554 41.4033 39.1425 42.2806 39.2798C42.7745 39.362 43.103 39.7732 43.103 40.2116C43.103 40.6777 42.7468 41.3629 42.3901 41.6918C42.143 41.8831 41.8686 42.0753 41.5401 42.2397Z" fill="white"/>
<path fill-rule="evenodd" clip-rule="evenodd" d="M41.4016 41.6363C41.4016 41.6363 41.676 41.664 42.0867 41.1979C42.2512 41.0334 42.5256 40.54 42.4706 40.2111C42.4429 40.0466 42.3611 39.8549 42.1694 39.8821C41.7578 39.9648 41.5111 40.1565 41.4016 40.5677C41.2648 41.0061 41.3198 41.3078 41.4016 41.6363Z" fill="#425E99"/>
</svg>
