<svg width="90" height="90" viewBox="0 0 90 90" fill="none" xmlns="http://www.w3.org/2000/svg">
<rect width="90" height="90" rx="10" fill="white"/>
<path d="M10.245 39.3389C10.18 39.3389 10.1177 39.3647 10.0718 39.4107C10.0258 39.4566 10 39.519 10 39.5839V50.0081C10 50.1423 10.1108 50.2531 10.245 50.2531H12.905C12.9368 50.2527 12.9682 50.2461 12.9974 50.2336C13.0266 50.221 13.0531 50.2029 13.0753 50.1801C13.0975 50.1574 13.115 50.1305 13.1269 50.101C13.1387 50.0714 13.1446 50.0399 13.1442 50.0081V39.5839C13.1446 39.5521 13.1387 39.5206 13.1269 39.4911C13.115 39.4615 13.0975 39.4346 13.0753 39.4119C13.0531 39.3891 13.0266 39.371 12.9974 39.3585C12.9682 39.346 12.9368 39.3393 12.905 39.3389H10.245ZM15.4221 39.3389C15.2413 39.3389 15.1158 39.5081 15.2004 39.6598L20.7275 49.1593L20.7596 49.2177C21.3283 50.1102 22.4425 50.6614 23.6821 50.6585C24.9246 50.6556 26.0358 50.0868 26.59 49.1768L32.6042 39.6627C32.6858 39.5285 32.5837 39.3389 32.3825 39.3389H29.4192C29.3765 39.338 29.3343 39.3479 29.2965 39.3678C29.2587 39.3877 29.2267 39.4169 29.2033 39.4527L23.7871 47.9839C23.7375 48.0656 23.6004 48.051 23.5567 48.0014L18.5633 39.4585C18.5398 39.4207 18.5066 39.3899 18.467 39.3694C18.4275 39.3488 18.3832 39.3393 18.3388 39.3419L15.4221 39.3389ZM37.5829 39.3389C35.4537 39.336 33.7213 40.7623 33.7213 42.521V47.0623C33.7213 48.821 35.4537 50.2531 37.5829 50.2531H46.4758C46.5077 50.2531 46.5393 50.2467 46.5687 50.2344C46.5981 50.222 46.6248 50.2038 46.647 50.181C46.6693 50.1582 46.6868 50.1311 46.6985 50.1014C46.7102 50.0717 46.7158 50.04 46.715 50.0081V47.8702C46.7158 47.8383 46.7102 47.8066 46.6985 47.7769C46.6868 47.7472 46.6693 47.7201 46.647 47.6973C46.6248 47.6745 46.5981 47.6563 46.5687 47.6439C46.5393 47.6315 46.5077 47.6252 46.4758 47.6252H36.9325C36.8829 47.6252 36.845 47.5814 36.845 47.5289V42.0543C36.845 42.0048 36.8829 41.9581 36.9325 41.9581H46.4758C46.5075 41.9589 46.5389 41.9533 46.5683 41.9415C46.5977 41.9298 46.6244 41.9122 46.6467 41.8898C46.6691 41.8675 46.6867 41.8408 46.6984 41.8114C46.7102 41.782 46.7158 41.7506 46.715 41.7189V39.5839C46.7158 39.552 46.7102 39.5203 46.6985 39.4906C46.6868 39.4609 46.6693 39.4339 46.647 39.411C46.6248 39.3882 46.5981 39.3701 46.5687 39.3577C46.5393 39.3453 46.5077 39.3389 46.4758 39.3389H37.5829ZM53.4583 39.3389C51.3292 39.336 49.5967 40.7623 49.5967 42.521V47.0623C49.5967 48.821 51.3292 50.2531 53.4583 50.2531H62.3542C62.4186 50.2523 62.4802 50.2262 62.5255 50.1803C62.5708 50.1345 62.5963 50.0726 62.5963 50.0081V47.8702C62.5963 47.8052 62.5704 47.7429 62.5245 47.6969C62.4785 47.651 62.4162 47.6252 62.3512 47.6252H52.8108C52.7583 47.6252 52.7175 47.5814 52.7175 47.5289V42.0543C52.7175 42.0048 52.7583 41.9581 52.8108 41.9581H62.3512C62.3831 41.9589 62.4149 41.9533 62.4446 41.9416C62.4743 41.9299 62.5013 41.9124 62.5242 41.8901C62.547 41.8679 62.5651 41.8412 62.5775 41.8118C62.5899 41.7824 62.5963 41.7508 62.5963 41.7189V39.5839C62.5963 39.519 62.5704 39.4566 62.5245 39.4107C62.4785 39.3647 62.4162 39.3389 62.3512 39.3389H53.4583ZM69.0158 39.3389C66.8867 39.3389 65.1542 40.7681 65.1542 42.5269V47.0623C65.1542 48.821 66.8867 50.2531 69.0158 50.2531H76.1383C78.2675 50.2531 80 48.8239 80 47.0623V42.5269C80 40.7681 78.2675 39.3389 76.1383 39.3389H69.0158ZM68.3567 41.9581H76.7537C76.7975 41.9581 76.8325 41.9931 76.8325 42.0369V47.5464C76.8325 47.5673 76.8242 47.5873 76.8094 47.6021C76.7947 47.6169 76.7746 47.6252 76.7537 47.6252H68.3538C68.3329 47.6252 68.3128 47.6169 68.2981 47.6021C68.2833 47.5873 68.275 47.5673 68.275 47.5464V42.0369C68.275 41.9931 68.3129 41.9581 68.3567 41.9581ZM38.5629 43.5914C38.5438 43.5918 38.5249 43.596 38.5073 43.6036C38.4898 43.6113 38.4739 43.6224 38.4606 43.6362C38.4474 43.65 38.437 43.6663 38.43 43.6841C38.423 43.702 38.4196 43.721 38.42 43.7402V45.8694C38.42 45.951 38.4842 46.021 38.5629 46.021H46.4962C46.5156 46.021 46.5349 46.0172 46.5527 46.0096C46.5706 46.0021 46.5868 45.9911 46.6004 45.9773C46.614 45.9634 46.6247 45.947 46.6318 45.929C46.639 45.9109 46.6425 45.8917 46.6421 45.8723V43.7431C46.6425 43.7237 46.639 43.7044 46.6318 43.6864C46.6247 43.6684 46.614 43.6519 46.6004 43.6381C46.5868 43.6242 46.5706 43.6132 46.5527 43.6057C46.5349 43.5982 46.5156 43.5943 46.4962 43.5943L38.5629 43.5914Z" fill="black"/>
</svg>
