<svg width="90" height="90" viewBox="0 0 90 90" fill="none" xmlns="http://www.w3.org/2000/svg">
<rect width="90" height="90" rx="10" fill="white"/>
<path fill-rule="evenodd" clip-rule="evenodd" d="M76.484 40.2963C77.8228 40.3703 78.7887 41.3332 78.9378 42.5926C79.0115 43.2591 79.0115 44.2965 79.0115 44.9625C79.0115 45.778 79.0115 46.4444 78.9378 47.1104C78.715 48.6663 77.6 49.5553 76.484 49.5553H74.5516C73.5104 49.5553 72.3206 48.6663 72.0978 47.1104C72.0231 46.4444 72.0231 45.7775 72.0231 45.037C72.0231 44.296 72.0231 43.2591 72.0978 42.5922C72.2468 41.3327 73.2866 40.3698 74.6254 40.2958C74.9229 40.2218 75.1457 40.2218 75.5175 40.2218L76.484 40.2963ZM75.7408 36C77.1534 36 78.4921 36.074 79.6071 36.222C82.7293 36.5925 85.2568 39.0368 85.7772 42.0742C85.8519 42.5926 86 43.7776 86 44.9625C86 46.2219 85.8519 47.4074 85.7772 47.8514C85.2568 50.9632 82.7293 53.333 79.6071 53.778C78.4921 53.8515 77.1534 54 75.7408 54H75.2952C73.8079 54 72.5439 53.8515 71.3551 53.778C68.232 53.333 65.7797 50.9632 65.2589 47.8514C65.1841 47.4074 65.0351 46.2219 65.0351 44.9625C65.0351 43.7776 65.1841 42.5926 65.2589 42.0742C65.7792 39.0368 68.232 36.5925 71.3551 36.222C72.5439 36.074 73.8079 36 75.2205 36H75.7408ZM48.9029 44.9625C48.9029 43.9996 48.9777 43.0371 49.2005 42.0742C49.7209 39.0368 52.1746 36.5925 55.2968 36.222C56.4118 36.074 57.7505 36 59.1631 36C60.7237 36 62.1362 36.074 63.326 36.222C63.7716 36.296 64.0691 36.6665 64.0691 37.1109V39.7773C64.0691 40.2958 63.6973 40.6663 63.2507 40.6663C63.2507 40.6663 61.8382 40.5923 61.095 40.5923C60.2038 40.5923 59.4597 40.5923 58.6422 40.6663C57.3035 40.7403 56.3375 41.7032 56.1885 42.9626C56.1137 43.6291 56.0395 44.2961 56.0395 44.962V45.0365C56.0395 45.7035 56.1132 46.3695 56.1885 47.0364C56.3375 48.2958 57.2297 49.2583 58.6422 49.4063C59.3854 49.4808 60.2776 49.5548 61.095 49.5548C61.8382 49.5548 63.2507 49.4813 63.2507 49.4813C63.6973 49.4813 64.0691 49.8517 64.0691 50.3702V53.0371C64.0691 53.481 63.7716 53.8515 63.326 53.926C62.1362 53.926 60.7237 53.9995 59.1631 53.9995C57.7505 53.9995 56.4118 53.851 55.2968 53.7775C52.1746 53.3326 49.7213 50.9627 49.2005 47.8509C48.9777 46.9629 48.9029 45.9995 48.9029 45.037V44.9625ZM46.8958 49.3333C47.4161 49.3333 47.788 49.7773 47.788 50.2222V52.8891C47.788 53.4075 47.4161 53.778 46.8958 53.778H36.2648C35.8058 53.7785 35.3511 53.6888 34.927 53.514C34.5028 53.3392 34.1174 53.0827 33.7928 52.7593C33.4683 52.4359 33.211 52.0519 33.0356 51.6292C32.8602 51.2065 32.7702 50.7536 32.7708 50.2962V39.7778C32.7703 39.3205 32.8603 38.8676 33.0357 38.445C33.2111 38.0223 33.4685 37.6384 33.793 37.315C34.1176 36.9916 34.5029 36.7352 34.9271 36.5604C35.3512 36.3857 35.8058 36.296 36.2648 36.2965H46.8958C47.4161 36.2965 47.788 36.667 47.788 37.1114V39.7038C47.788 40.2223 47.4161 40.5927 46.8958 40.5927H40.3539C39.8335 40.5927 39.4617 40.8892 39.4617 41.4077V43.0371L45.0371 42.9631C45.4827 42.9631 45.9293 43.4071 45.9293 43.8516V46.0744C45.9293 46.5919 45.4827 46.9634 45.0371 46.9634H39.4617V48.4443C39.4617 48.9628 39.8335 49.3333 40.3539 49.3333H46.8958ZM19.8356 53.7775C18.2745 53.7775 16.9357 52.7401 16.4896 51.3327L12.8471 37.3329V37.1109C12.8471 36.6665 13.2189 36.296 13.7393 36.296H19.1662C19.6123 36.296 19.9841 36.592 20.0584 36.9625L22.8835 48.6663C22.8835 48.8148 23.032 48.9628 23.2553 48.9628C23.4038 48.9628 23.5524 48.8143 23.5524 48.6663L26.4517 36.9625C26.526 36.592 26.8978 36.296 27.2696 36.296H30.3175C30.8379 36.296 31.2097 36.6665 31.2097 37.1109V37.3329L27.7157 51.0362C27.3439 52.5921 26.0799 53.7775 24.296 53.7775H19.8356ZM4.89219 36.296H10.1705C10.6909 36.296 11.0627 36.6665 11.0627 37.1109V52.8886C11.0627 53.407 10.6909 53.7775 10.1705 53.7775H4.89219C4.44609 53.7775 4 53.407 4 52.8886V37.1109C4.00049 36.6665 4.44658 36.296 4.89219 36.296Z" fill="#223D7D"/>
</svg>
