<svg width="90" height="90" viewBox="0 0 90 90" fill="none" xmlns="http://www.w3.org/2000/svg">
<rect width="90" height="90" rx="10" fill="white"/>
<path fill-rule="evenodd" clip-rule="evenodd" d="M51.0801 39.0451H55.2843V48.7332H64.0219V51.3659H51.0801V39.0451ZM40.1748 43.9076H47.6974V46.3726H40.1748V48.7667H49.6671V51.3659H35.9375V39.0451H49.6676V41.6112H40.1752V43.9076H40.1748ZM19.7113 39.0451L30.8392 39.055C33.1206 39.054 34.7584 40.4741 34.7235 43.0851C34.6839 46.04 33.509 47.4322 30.8921 47.4275H24.0139V51.2984H19.7113V39.0451ZM24.0746 41.64L29.0727 41.6447C29.3076 41.6646 30.5069 41.4265 30.5652 43.2802C30.6144 44.8514 29.7112 44.9209 29.1738 44.8859H24.0746V41.64ZM8.2277 41.7373H12.0922C12.6585 41.7373 13.2016 41.9685 13.602 42.38C14.0024 42.7915 14.2274 43.3497 14.2274 43.9316V46.3145C14.2274 46.8965 14.0024 47.4546 13.602 47.8661C13.2016 48.2776 12.6585 48.5088 12.0922 48.5088H8.2277C7.66141 48.5088 7.11831 48.2776 6.71789 47.8661C6.31746 47.4546 6.0925 46.8965 6.0925 46.3145V43.9316C6.0925 43.3497 6.31746 42.7915 6.71789 42.38C7.11831 41.9685 7.66141 41.7373 8.2277 41.7373ZM6.8928 38.8537H13.5039C17.2856 38.8537 18.3075 40.8312 18.3075 43.874V46.4822C18.3075 49.6851 16.7864 51.4193 13.5039 51.4193H6.80408C3.25584 51.4193 2 49.6875 2 46.4822V43.874C2 40.4065 3.58726 38.8537 6.8928 38.8537ZM67.4373 43.0634L70.1388 43.0388C70.9901 39.5685 74.047 37 77.6876 37C81.9874 37 85.4718 40.5818 85.4718 44.9998C85.4718 45.0687 85.4718 45.1372 85.4699 45.2057L88 45.3271V46.6754L85.2957 46.7004C84.5373 50.3021 81.4188 53 77.6876 53C73.3878 53 69.9034 49.4182 69.9034 44.9998C69.9034 44.8491 69.9071 44.6988 69.9149 44.5496L67.4368 44.4825L67.4373 43.0634ZM70.9938 43.0312L82.0872 42.9292L79.4923 44.9199L84.6476 45.1661C84.6485 45.1108 84.6494 45.0555 84.6494 44.9993C84.6494 41.0481 81.5324 37.8451 77.6876 37.8451C74.5076 37.8456 71.8249 40.0371 70.9938 43.0312ZM84.449 46.708L73.3827 46.8096L76.1417 44.7182L70.7387 44.5722C70.7304 44.7146 70.7262 44.8572 70.7263 44.9998C70.7263 48.9505 73.8433 52.1539 77.6881 52.1539C80.9591 52.1534 83.7039 49.8339 84.449 46.708Z" fill="#FFCD00"/>
</svg>
