<svg width="90" height="90" viewBox="0 0 90 90" fill="none" xmlns="http://www.w3.org/2000/svg">
<rect width="90" height="90" rx="10" fill="white"/>
<path d="M43.9025 75.3613L42.3789 71.9888H42.3079L40.595 75.3613H43.9025ZM44.5592 77.5949H39.956L38.968 80H31.726L37.0243 70.063H47.7542L52.878 80H45.636L44.5592 77.5949ZM72.7107 74.2756H72.4001L69.3086 80H64.8948L61.8122 74.3022L61.5193 74.3052L61.4927 80H54.869V70.063H65.2882L67.1431 73.187H67.2319L69.2613 70.063H79.3285V80H72.7048L72.7107 74.2756ZM18.517 74.5715H19.8985C21.3807 74.5715 21.8126 74.0952 21.8215 73.6189C21.8422 72.6988 21.6676 71.9829 19.9725 71.9829H18.517V74.5715ZM20.0317 76.6512H18.5555V80H11.6685V70.063H21.6025C26.8122 70.063 28.9392 70.9209 29.1936 73.1307C29.3208 74.2312 28.7173 76.2163 26.3033 76.4145L29.9036 80H22.6172L20.0317 76.6512ZM45.0385 10.2188C37.2225 10.2277 28.3002 10.6774 25.336 10.9288C22.1025 11.204 21.5227 11.414 21.5197 14.1445L21.4931 16.6236C21.4694 18.5702 21.4339 21.3185 21.4339 24.4129C21.4339 29.4539 21.7327 35.409 22.1025 40.308C22.4989 45.5177 22.8125 49.6327 29.3741 53.5466C34.4151 56.5522 43.1836 60.8951 43.2694 60.9365C43.7752 61.188 44.9408 61.75 45.3372 61.9039C45.4611 61.9187 45.5862 61.9187 45.71 61.9039C46.1153 61.7441 47.4022 61.1051 48.0352 60.8211C48.0974 60.7945 54.1797 58.0107 61.6673 53.5466C68.2288 49.6327 68.5424 45.5177 68.9418 40.3051C69.3116 35.4061 69.6104 29.448 69.6104 24.407C69.6104 21.3155 69.5749 18.5672 69.5512 16.6207L69.5275 14.1416C69.5157 11.7365 69.0601 11.204 65.7083 10.9259C62.7441 10.6803 53.8217 10.2218 46.0058 10.2129H45.0385V10.2188ZM46.0117 9C53.7981 9.00887 62.7175 9.41121 65.8326 9.71887C69.7879 10.1064 70.7493 10.2928 70.7493 14.1445C70.7493 17.1827 70.8884 30.7674 70.1606 40.3998C69.7524 45.7425 69.4003 50.3545 62.2974 54.5938C57.7843 57.2877 53.1334 59.7435 48.3636 61.9512C47.4436 62.3595 46.2307 63.0458 45.9851 63.0961C45.6799 63.1508 45.3674 63.1508 45.0621 63.0961C44.79 63.0399 43.3078 62.3121 42.7369 62.0311C42.1659 61.753 33.6637 57.5196 28.7558 54.5938C21.6528 50.3575 21.3008 45.7455 20.8925 40.3998C20.1618 30.7674 20.3009 17.1798 20.3009 14.1445C20.3009 10.2928 21.2623 10.1064 25.2176 9.71887C28.3327 9.41121 37.2521 9.00887 45.0385 9H46.0117ZM34.492 15.8397C40.2607 15.8397 43.2339 20.7623 44.9408 24.3478L44.4054 27.2795C41.4175 21.067 37.8527 17.1147 33.5365 17.1147C28.8712 17.1147 26.2442 23.0669 25.5697 24.0697C26.7737 21.0108 30.2764 15.8397 34.492 15.8397ZM65.09 24.0727C64.4126 23.0698 61.7885 17.1177 57.1232 17.1177C52.807 17.1177 49.2452 21.07 46.2543 27.2825L45.7159 24.3478C47.4199 20.7623 50.393 15.8397 56.1647 15.8397C60.3833 15.8397 63.889 21.0108 65.09 24.0727ZM54.9015 36.261C54.4193 36.4711 54.0495 36.6072 54.0495 36.6072L54.3395 34.1044L55.8837 32.0809C56.36 34.3559 56.3245 35.6398 54.9015 36.261ZM36.0451 36.261C34.6222 35.6398 34.5867 34.3559 35.063 32.078L36.6072 34.1015L36.8971 36.6042C36.8971 36.6042 36.5244 36.4711 36.0451 36.261ZM60.7975 23.2148C57.0227 23.1408 53.7537 26.0577 51.5468 33.1311L52.7863 33.9121L52.2745 36.8645L49.4582 37.8645L48.905 41.6866L50.2717 39.9501L52.1917 39.5596L51.3367 41.8612L48.689 43.3374L47.7483 49.5025L48.1033 51.8189L45.3816 52.8721V52.875L42.8848 51.8189L43.2398 49.5025L42.299 43.3374L39.6513 41.8612L38.7993 39.5596L40.7193 39.9501L42.086 41.6866L41.5299 37.8645L38.7135 36.8645L38.2017 33.9121L39.4383 33.1311C37.2344 26.0607 33.9654 23.1438 30.1876 23.2148C27.1701 23.274 24.9277 26.7914 25.1792 30.51L27.7973 30.8207C28.7351 36.0658 29.6078 42.728 31.584 42.728C32.1845 42.728 32.2111 41.7843 32.2111 41.021C32.2111 39.1661 31.0929 36.9385 31.0929 33.4033C31.0929 31.7703 31.6224 30.3651 32.8294 30.3651C33.6489 30.3651 34.0187 30.584 34.4032 31.297C34.0778 33.7169 34.066 35.7936 35.9564 37.0746C36.3735 37.3556 37.2758 38.2047 37.2758 38.2047C37.2758 38.2047 38.8289 44.3195 38.9236 44.7278C39.0123 45.1005 39.2312 45.6094 39.3999 45.92L41.3701 49.3605C41.3701 49.3605 41.9588 53.0555 42.0831 53.6945C42.3937 55.2713 44.0001 55.4074 45.3106 55.4192H45.6745C46.988 55.4103 48.5914 55.2742 48.902 53.6945C49.0263 53.0585 49.615 49.3605 49.615 49.3605L51.5852 45.92C51.7539 45.6094 51.9757 45.1005 52.0615 44.7278C52.1562 44.3195 53.7123 38.2047 53.7123 38.2047C53.7123 38.2047 54.6146 37.3556 55.0317 37.0746C56.9191 35.7936 56.9102 33.7169 56.5819 31.297C56.9694 30.584 57.3362 30.3651 58.1557 30.3651C59.3627 30.3651 59.8922 31.7703 59.8922 33.4033C59.8922 36.9415 58.774 39.1661 58.774 41.021C58.774 41.7872 58.7977 42.728 59.4012 42.728C61.3744 42.728 62.25 36.0658 63.1849 30.8207L65.803 30.51C66.0574 26.7914 63.815 23.274 60.7975 23.2148ZM46.1449 13.3635C51.8485 13.3635 63.4452 13.9463 64.1907 14.0203C65.1551 14.1061 65.7912 14.2392 66.0071 14.4729C66.2231 14.6918 66.2882 14.9403 66.3237 15.4906C66.3592 16.0024 66.3917 18.0288 66.3917 18.0318C66.4124 19.8423 66.445 22.3953 66.445 25.2679C66.445 26.9541 66.4331 28.7469 66.4035 30.5662L66.794 30.8207C66.8266 28.9155 66.8384 27.031 66.8384 25.2679C66.8384 22.3924 66.8059 19.8364 66.7852 18.0259C66.7852 18.0229 66.7526 16.0024 66.7171 15.464C66.6816 14.9048 66.6047 14.5084 66.2852 14.1919C65.8829 13.8073 65.2025 13.7274 64.2292 13.6239C63.4452 13.547 51.8781 12.9671 46.1449 12.9642C45.3225 12.9701 44.4557 12.9553 43.6185 12.9553C36.7462 12.9553 27.5872 13.5765 26.8299 13.6239C25.7087 13.6978 25.1141 13.7215 24.7088 14.183C24.3952 14.5676 24.3035 15.1385 24.2828 15.7006C24.268 16.2479 24.2621 18.0259 24.2621 18.0288C24.2414 19.8364 24.2088 22.3953 24.2088 25.2708C24.2088 27.0074 24.2207 28.8622 24.2532 30.7378L24.6437 30.4834C24.6141 28.6966 24.6052 26.9305 24.6052 25.2708C24.6052 22.3983 24.6378 19.8423 24.6585 18.0318C24.6585 18.0288 24.6644 16.2479 24.6822 15.7125C24.694 15.1918 24.8035 14.683 25.0165 14.4374C25.2354 14.1534 25.7146 14.0824 26.8536 14.0203C27.6139 13.973 36.761 13.3517 43.6125 13.3517L46.1449 13.3635ZM67.2112 31.3236L66.7793 32.143C66.7793 32.143 65.0575 32.3235 64.9983 32.3235C64.167 38.9472 61.4779 46.0206 58.5403 46.0206C57.5729 46.0206 57.5463 44.5207 57.5463 42.7339C57.5463 41.9736 57.6528 41.2961 57.7711 40.7015C57.4575 41.2843 56.9162 43.4172 56.9162 45.2396C56.9162 47.3696 58.1143 48.5411 60.1615 48.5411C62.2382 48.5411 63.9747 47.5264 65.1107 45.639C64.3771 47.6684 62.9452 49.4286 59.8834 51.2687C55.7664 53.7297 51.5222 55.9713 47.1685 57.9841C46.633 58.2237 45.9378 58.5373 45.3905 58.771C44.8876 58.5373 44.4054 58.2947 44.0001 58.0965C43.9261 58.061 35.8085 54.0406 31.1609 51.2687C28.2943 49.5499 26.8565 47.8962 26.0844 46.0265C27.2145 47.6565 28.7913 48.5411 30.7142 48.5411C32.7614 48.5411 33.9595 47.3696 33.9595 45.2396C33.9595 43.4172 33.4211 41.2843 33.1045 40.7015C33.2258 41.2961 33.3294 41.9736 33.3294 42.7339C33.3294 44.5177 33.3027 46.0206 32.3354 46.0206C29.3977 46.0206 26.6997 38.9147 25.8714 32.291L24.2029 32.1194L23.6704 31.1254C23.6704 31.1254 23.5728 34.3056 23.6793 36.3912C23.7858 38.4798 24.0047 40.2725 24.6762 42.8108C24.8035 43.296 24.9514 43.7515 25.12 44.1775C25.7057 46.9761 27.0666 49.2925 30.9597 51.6C35.6339 54.3867 43.7457 58.4042 43.8255 58.4426C44.2663 58.6586 44.858 58.9544 45.3846 59.194C45.9585 58.9544 46.7425 58.5994 47.3312 58.3361C47.3933 58.3065 53.162 55.7239 60.0875 51.597C64.4007 49.041 65.6048 46.4762 66.09 43.2545C66.1284 43.1066 66.1698 42.9587 66.2053 42.8049C66.7793 40.237 67.0159 38.894 67.1224 36.8054C67.2171 35.0126 67.2141 32.0987 67.2112 31.3236Z" fill="black"/>
</svg>
