<svg width="90" height="90" viewBox="0 0 90 90" fill="none" xmlns="http://www.w3.org/2000/svg">
<rect width="90" height="90" rx="10" fill="white"/>
<path d="M4.83402 68.6598C4.09698 68.9702 4 69.4745 4 72.8299C4 75.9914 4 76.0496 4.48489 76.5151L4.95039 77H9.21745C13.4263 77 13.4845 77 14.0082 76.5345C14.4737 76.1466 14.5513 75.9138 14.6289 74.8083C14.7064 73.7221 14.6483 73.4894 14.2991 73.1402L13.8918 72.7329L14.2991 72.3256C14.881 71.7438 14.7646 69.649 14.1246 68.9896C13.6979 68.5823 13.5427 68.5629 9.4696 68.5241C7.1615 68.5047 5.06677 68.5629 4.83402 68.6598ZM12.2238 70.4636C12.4371 70.6188 12.5535 70.9097 12.4953 71.2007C12.4371 71.6662 12.4371 71.6662 9.77993 71.7244C7.12271 71.7825 7.10332 71.7825 7.10332 72.2286C7.10332 72.4808 7.27788 72.9075 7.49123 73.179C7.87915 73.6639 7.97613 73.6833 10.1678 73.7415C12.379 73.7997 12.4371 73.8191 12.4953 74.2458C12.6311 75.1574 12.3014 75.2544 9.35322 75.2544C7.47184 75.2544 6.52145 75.1768 6.36628 75.0216C6.21111 74.8665 6.13353 74.0712 6.13353 72.7329C6.13353 71.3946 6.21111 70.5994 6.36628 70.4442C6.69601 70.1145 11.7583 70.1145 12.2238 70.4636Z" fill="black"/>
<path d="M16.6657 68.9311C16.1226 69.3966 16.1226 69.416 16.0644 72.1896C15.9868 75.2347 16.1808 76.2627 16.8596 76.6506C17.3445 76.9415 24.6373 77.0191 25.5877 76.7476C26.4605 76.5148 26.6933 75.6614 26.6933 72.8878C26.6739 69.3578 26.3441 68.4074 25.1416 68.5238L24.6567 68.5626L24.5597 71.7629L24.4627 74.9632H21.3594H18.2561L18.1979 71.7047L18.1591 68.4656H17.6742C17.4221 68.4656 16.9566 68.679 16.6657 68.9311Z" fill="black"/>
<path d="M29.1174 68.6598C28.4579 68.912 28.2058 69.3775 28.1088 70.58C27.9731 72.1123 28.167 73.0627 28.6907 73.3536C28.9816 73.5282 30.3587 73.6445 32.8026 73.7027L36.4878 73.7997V74.4786V75.1574L32.2983 75.2156L28.1088 75.2544L28.2058 75.7393C28.2446 76.0108 28.5161 76.3987 28.7877 76.6121C29.2338 76.9806 29.5829 77 33.4233 77C37.4964 77 37.5739 77 38.02 76.5539C38.3692 76.2048 38.4855 75.8169 38.5825 74.6725C38.8153 71.9571 38.5049 71.7632 33.7336 71.7632H30.1842V71.0843V70.4054H34.2573C37.7873 70.4054 38.3498 70.3667 38.4661 70.0951C38.6795 69.552 38.1946 68.8926 37.4188 68.6792C36.5654 68.4271 29.6993 68.4077 29.1174 68.6598Z" fill="black"/>
<path d="M40.9297 68.7372C40.1539 69.0863 40.0763 69.3191 40.0763 71.2587C40.0763 73.6249 39.9793 73.5862 44.7119 73.7025L48.5135 73.7995V74.4784V75.1572L44.3046 75.2154C40.3285 75.2542 40.0763 75.2736 40.0763 75.6227C40.0763 75.8167 40.2509 76.1852 40.4448 76.4373C40.8134 76.9028 40.8715 76.9028 45.1774 76.961C49.4833 77.0192 49.5414 77.0192 50.0263 76.5731C50.453 76.1852 50.55 75.9136 50.647 74.5559C50.7634 73.0625 50.744 72.9655 50.2979 72.4224L49.813 71.8599L45.9532 71.763L42.1129 71.666V71.0841V70.5022L46.3411 70.444C50.4336 70.4053 50.55 70.3859 50.55 69.9979C50.55 69.3191 50.1815 68.873 49.4251 68.6596C48.3389 68.3687 41.6668 68.4269 40.9297 68.7372Z" fill="black"/>
<path d="M52.9358 68.6598C52.7031 68.7568 52.4315 69.009 52.3152 69.2223C52.0436 69.7072 52.0242 75.7393 52.2958 76.2242C52.6255 76.8448 53.5759 77 57.3581 77C61.0433 77 61.8385 76.8836 62.304 76.263C62.6725 75.7781 62.6337 75.2544 62.2458 75.2544C62.0518 75.235 60.3062 75.2544 58.3666 75.2544C56.1749 75.2544 54.6621 75.1962 54.4293 75.0604C54.0802 74.8665 54.0414 74.6531 54.0414 72.7717C54.0414 71.3946 54.119 70.5994 54.2741 70.4442C54.4487 70.2697 55.6706 70.2115 58.5412 70.2115C62.7889 70.2115 62.7889 70.2115 62.4591 69.3387C62.1682 68.6016 61.4118 68.4659 57.2999 68.4853C55.1276 68.4853 53.1686 68.5629 52.9358 68.6598Z" fill="black"/>
<path d="M64.7672 68.757C64.0689 69.2418 63.8749 70.4056 64.0301 73.218C64.0883 74.5951 64.2047 75.8946 64.2435 76.0885C64.3598 76.4959 65.4072 77.0777 65.7757 76.9226C65.9503 76.8644 66.0667 76.4183 66.1055 75.6036L66.1636 74.3817H69.267H72.3703L72.4673 75.6424C72.5642 76.9032 72.5642 76.9032 73.1267 76.8644C73.4564 76.845 73.8831 76.6316 74.0965 76.4183C74.4844 76.0498 74.5038 75.7976 74.5038 72.7137V69.397L73.9607 68.9315C73.4176 68.466 73.3789 68.466 69.3058 68.466C65.9115 68.466 65.1163 68.5242 64.7672 68.757ZM72.2345 70.3862C72.4091 70.4832 72.4673 70.8711 72.4285 71.4918L72.3703 72.4421H69.267H66.1636L66.1055 71.6081C66.0085 70.2698 66.1249 70.2116 69.2476 70.2116C70.741 70.2116 72.0987 70.2892 72.2345 70.3862Z" fill="black"/>
<path d="M76.5983 68.9312L76.0552 69.3967V72.7134C76.0552 75.7973 76.0746 76.0494 76.4625 76.4179C76.6758 76.6313 77.1025 76.8446 77.4323 76.864L77.9947 76.9028L78.0529 73.7025C78.0917 71.4526 78.1693 70.4828 78.3439 70.3665C78.6542 70.1725 83.9492 70.1725 84.2596 70.3859C84.4341 70.4828 84.4923 70.8708 84.4535 71.4914L84.3953 72.4418L81.7381 72.5C79.0615 72.5582 79.0615 72.5582 79.0615 73.0043C79.0615 73.2564 79.2167 73.6443 79.4106 73.8771C79.7016 74.2456 79.9731 74.2844 82.0679 74.3232L84.3953 74.3814L84.4923 75.6421L84.5893 76.9028L85.1712 76.864C86.0246 76.8059 86.6259 76.0106 86.6259 74.9827C86.6259 74.4008 86.5095 74.0517 86.2379 73.7995L85.85 73.4504L86.2379 73.0819C86.5677 72.7715 86.6259 72.4612 86.6259 71.1617C86.6259 69.6876 86.5871 69.5712 86.0634 69.0282L85.5009 68.4657H81.3114C77.1801 68.4657 77.1413 68.4657 76.5983 68.9312Z" fill="black"/>
<path d="M34.572 14.6954C29.2695 15.4883 25.9493 17.0246 24.7104 19.1555C22.3317 23.3677 21.2414 37.7885 22.5795 47.105C23.967 56.471 25.4537 58.3542 32.6393 59.8408C37.5949 60.8815 51.8174 60.9806 57.0703 60.0886C65.8913 58.5028 67.2293 56.5701 68.5177 44.1316C69.4098 35.1125 68.1213 22.5748 65.9408 19.0068C65.3957 18.1643 64.0082 16.975 62.8684 16.4299C58.111 14.1503 43.6903 13.2583 34.572 14.6954ZM55.435 17.421C60.4401 18.1148 63.1657 19.3041 63.909 21.1377C65.8417 26.0437 66.5851 39.8698 65.2966 47.6996C64.3551 53.3986 63.7604 54.8852 61.9764 55.8268C57.9623 57.8586 42.7982 58.7011 34.6215 57.2639C29.3686 56.3719 27.981 55.7277 26.9899 53.8941C24.2148 48.4925 24.2148 26.3906 26.9899 21.0386C27.3864 20.1961 28.2784 19.3041 28.9226 18.9572C32.2924 17.1237 47.1592 16.2812 55.435 17.421Z" fill="black"/>
<path d="M44.7802 20.8405C43.69 24.8545 43.1945 25.4492 39.7255 26.589C36.3557 27.7287 36.3557 27.7783 40.4689 28.9181C43.1945 29.6614 43.7891 30.4543 44.7307 34.2206C45.3254 36.5992 45.7714 36.3515 46.4156 33.2294C47.0103 30.2561 47.9023 29.4136 50.8756 28.7199C52.4118 28.373 53.7499 27.9765 53.849 27.7783C53.9976 27.5801 52.6101 27.035 50.8261 26.5394C47.3076 25.5978 47.258 25.4987 46.0191 21.0883L45.3254 18.6105L44.7802 20.8405Z" fill="black"/>
<path d="M35.1672 29.0176C35.0185 29.3149 34.7212 30.4051 34.523 31.4954C33.9778 34.6174 33.1849 35.4598 29.8647 36.4014C28.1798 36.8474 26.8418 37.343 26.8418 37.4421C26.8418 37.5412 28.1798 38.0368 29.8647 38.4828C33.2345 39.4243 34.0274 40.3163 34.5725 43.5375C35.0681 46.5604 35.6132 46.5108 36.307 43.3888C37.0503 40.1181 37.6945 39.4739 41.5103 38.2845L44.4341 37.3925L41.4608 36.5005C38.2892 35.559 36.753 34.5183 36.7034 33.2794C36.6539 31.7432 35.4645 28.522 35.1672 29.0176Z" fill="black"/>
<path d="M54.6427 30.7516C53.6516 34.7656 53.1065 35.3603 49.6376 36.401C46.1687 37.4416 46.2182 37.5903 50.5296 38.6805C52.8092 39.2752 53.8003 40.415 54.3454 43.1406C54.9896 46.2626 55.4356 46.5104 56.0303 44.1317C57.0214 40.2168 57.5665 39.523 60.7381 38.5814C62.3734 38.0859 63.761 37.5903 63.9097 37.4912C64.0088 37.3425 62.7203 36.8965 61.0354 36.401C57.7647 35.509 56.9223 34.6665 56.3276 31.7427C55.6834 28.6207 55.2374 28.3729 54.6427 30.7516Z" fill="black"/>
<path d="M44.731 40.6626C43.6904 44.6766 43.4426 44.9739 40.3701 45.9155C38.7843 46.411 37.2976 46.9562 37.0994 47.1048C36.9012 47.303 38.1401 47.8482 39.9241 48.2942C43.393 49.2357 43.4921 49.3844 44.731 54.0426C45.3753 56.5204 45.4248 56.4213 46.6637 51.7135C47.2584 49.3348 47.7539 48.9879 51.4706 48.0959C52.9077 47.7986 53.998 47.3526 53.8493 47.1544C53.7502 46.9562 52.4122 46.4606 50.8264 46.1137C47.8035 45.3704 47.0106 44.5279 46.4159 41.6537C45.7717 38.5317 45.3257 38.2839 44.731 40.6626Z" fill="black"/>
</svg>
