<svg width="90" height="90" viewBox="0 0 90 90" fill="none" xmlns="http://www.w3.org/2000/svg">
<rect width="90" height="90" rx="10" fill="white"/>
<g clip-path="url(#clip0_993_23003)">
<path d="M27.3848 39.3641C26.1346 37.4532 23.9949 37.0784 22.544 37.046C21.2712 37.0183 15.7416 37.009 12.5206 37.009C6.17864 37.0044 9.80575 37.009 4.09375 37.009V40.0813C10.8734 40.0813 18.9261 40.0674 22.4483 40.1184C23.0779 40.1276 23.6983 40.1924 24.1956 40.6365C24.6565 41.053 24.8207 41.7054 24.6154 42.2699C24.2824 43.186 23.3653 43.4127 22.4528 43.4266C21.0567 43.4498 17.2198 43.459 14.3546 43.459C7.32847 43.4729 10.3671 43.4682 4.09375 43.4682V46.5313C10.8689 46.5313 18.9352 46.5174 22.4483 46.5683C23.5432 46.5822 24.7021 46.9708 24.7021 48.2063C24.7021 49.4416 23.5432 49.8488 22.4483 49.8673C18.9444 49.9228 10.8735 49.909 4.09375 49.909V52.9766C10.8963 52.9766 19.7975 52.9998 22.544 52.9349C23.9949 52.9025 26.1346 52.5278 27.3848 50.6168C28.5573 48.8215 28.2698 46.485 26.7323 44.9905C28.2698 43.4913 28.5573 41.1594 27.3848 39.3641ZM82.7495 38.8552C80.6781 37.3514 78.4333 37.1339 76.6085 37.0923C74.8109 37.0507 72.1054 37.032 69.7101 37.0229C63.8702 36.9998 67.3833 37.009 61.8171 37.009V40.0905C67.7347 40.0905 71.8863 40.0397 76.4579 40.1738C77.7992 40.2109 79.241 40.3543 80.5366 41.2705C81.764 42.1356 82.4939 43.5145 82.4939 44.9997C82.4939 46.485 81.7868 47.8684 80.5595 48.7291C79.2638 49.6405 77.8221 49.784 76.4807 49.821C71.9092 49.9505 67.7574 49.8997 61.84 49.8997L61.8217 52.9766C67.7756 52.9766 72.0552 52.9998 76.6131 52.8933C78.4334 52.8516 80.6827 52.6388 82.7539 51.1304C84.7159 49.7007 85.9066 47.4567 85.9066 44.9905C85.902 42.5243 84.7112 40.2802 82.7495 38.8552ZM37.3536 43.9032C35.7659 43.8708 35.2641 43.3479 35.2504 41.7424C35.2412 40.2618 35.2458 38.5081 35.2458 37.0044H31.7511C31.7511 38.5221 31.7236 41.6036 31.7829 43.0888C31.897 45.9807 32.8323 46.8783 35.7431 46.9801C37.7596 47.0494 39.3657 47.0263 42.1533 47.0217V43.9263C39.9131 43.9309 39.0052 43.9356 37.3536 43.9032ZM54.6861 41.8025C54.677 43.3618 54.1752 43.8754 52.5829 43.9032C51.8255 43.917 49.8317 43.9264 48.1938 43.9309H48.1802C46.5058 43.9309 44.7173 43.9263 43.668 43.9263V52.9766H47.7787V47.0217H48.1938V47.0263C50.3336 47.0263 53.0026 47.0171 54.0155 46.9847C57.1042 46.8875 58.0441 46.0038 58.1581 43.0888C58.1718 42.7002 58.181 42.205 58.19 41.6637V37.0091H54.6953C54.6907 38.5499 54.6953 40.2803 54.6861 41.8025Z" fill="#D4001A"/>
</g>
<defs>
<clipPath id="clip0_993_23003">
<rect width="82" height="16" fill="white" transform="translate(4 37)"/>
</clipPath>
</defs>
</svg>
