<svg width="90" height="90" viewBox="0 0 90 90" fill="none" xmlns="http://www.w3.org/2000/svg">
<rect width="90" height="90" rx="10" fill="white"/>
<path d="M7.28605 38.7725C6.10207 39.1195 6 39.5686 6 44.9374C6 49.4692 6.02041 49.755 6.42868 50.2653L6.83695 50.796H16.2884C27.4545 50.796 26.4747 51.0614 26.5972 48.1219L26.6584 46.3051L22.4124 46.3459C18.1868 46.4071 18.146 46.4071 18.0848 46.8562C17.9827 47.5911 16.9212 48.3464 15.9822 48.3464C14.1654 48.3464 13.7571 47.6115 13.7571 44.3862C13.7571 42.2428 13.7979 41.9978 14.2266 41.5079C15.1861 40.3852 17.4315 40.6505 17.9623 41.957C18.2481 42.6102 18.2685 42.6307 19.5341 42.6307C20.2282 42.6307 22.1062 42.5694 23.7189 42.4878L26.6176 42.3653V41.365C26.6176 39.834 26.1889 39.0175 25.2499 38.7725C24.2701 38.4867 8.22507 38.5071 7.28605 38.7725Z" fill="#AAAAAA"/>
<path d="M29.884 38.8132C28.7204 39.2215 28.6592 39.5073 28.6592 45.4272V50.7959H32.5377H36.4163V49.9794V49.1628H38.5597H40.7031V49.9794V50.7959H44.8879H49.0726V45.223C49.0726 41.0178 49.0114 39.5685 48.8073 39.2827C48.6644 39.099 48.1949 38.854 47.7458 38.752C46.5005 38.4458 30.7618 38.507 29.884 38.8132ZM39.8662 41.0995C40.1928 41.2628 40.499 41.5486 40.5806 41.7119C40.6419 41.8956 40.7031 43.0388 40.7031 44.2636V46.4887L38.8863 46.5499C36.2122 46.652 36.4163 46.8357 36.4163 44.1819C36.4163 42.0589 36.4571 41.8548 36.8858 41.4669C37.1308 41.2424 37.4778 40.9974 37.6411 40.9362C38.2331 40.7321 39.2946 40.7933 39.8662 41.0995Z" fill="#AAAAAA"/>
<path d="M52.1343 44.7739V51H56.4211H60.7079V44.7739V38.5478H56.4211H52.1343V44.7739Z" fill="#AAAAAA"/>
<path d="M65.8725 38.7724C64.6273 39.1398 64.5864 39.3235 64.5864 44.9168C64.5864 49.714 64.6068 49.9998 64.9947 50.3876C65.3826 50.7755 65.6683 50.7959 74.7523 50.7959H84.1221L84.5508 50.3264C84.9795 49.8569 84.9999 49.6936 84.9999 44.8556C84.9999 39.2623 84.9795 39.1398 83.6118 38.752C82.6523 38.4866 66.7911 38.507 65.8725 38.7724ZM76.1609 41.4874C76.5895 41.9977 76.6304 42.2222 76.6304 44.3861C76.6304 47.6318 76.2221 48.3463 74.3849 48.3463C73.2417 48.3463 72.3435 47.4889 72.3231 46.3662C72.3027 44.4677 72.3844 41.9569 72.4864 41.6915C72.8743 40.6708 75.3239 40.5279 76.1609 41.4874Z" fill="#AAAAAA"/>
</svg>
