<svg width="90" height="90" viewBox="0 0 90 90" fill="none" xmlns="http://www.w3.org/2000/svg">
<rect width="90" height="90" rx="10" fill="white"/>
<path d="M10.4704 41.1801C5.33225 41.5729 2.33772 42.6201 1.35591 44.3547C0.881364 45.1892 0.881364 45.811 1.35591 46.7274C2.01045 48.0365 3.72862 48.8874 6.80496 49.4274C8.57223 49.7383 13.3995 50.0328 15.5431 49.9674L17.2613 49.9183V48.5274V47.1365L12.2704 47.0219C5.5777 46.891 3.92498 46.5801 3.92498 45.4838C3.92498 44.5838 5.98679 44.1583 11.6158 43.9456C13.8249 43.8638 16.0176 43.7819 16.4922 43.7819H17.3431V42.391V41.0001L14.8558 41.0165C13.4813 41.0329 11.5013 41.1147 10.4704 41.1801Z" fill="#AAAAAA"/>
<path d="M43.5248 41.1637C41.2503 41.5891 40.3339 43.4382 40.4485 47.4636L40.4975 49.2636L41.8557 49.3127L43.1975 49.3618V47.3818C43.1975 43.8473 43.8684 43.2582 46.4866 44.4691C48.6139 45.4673 50.4138 47.0873 51.2811 48.8055L51.5593 49.3455H52.9993H54.4393L55.0447 48.38C56.5502 45.9418 60.3792 43.4546 61.852 43.9782C62.6538 44.24 62.8338 44.8782 62.8338 47.3V49.3455H64.241H65.6483L65.5828 46.76C65.4847 43.8637 65.2883 43.0291 64.421 42.1455C63.3738 41.0655 61.901 40.8691 59.4792 41.4746C57.4174 41.9982 55.5847 43.0128 54.1938 44.3709L52.9993 45.5491L52.0338 44.5346C51.5102 43.9946 50.6757 43.2909 50.1684 42.98C48.0411 41.7037 45.063 40.8855 43.5248 41.1637Z" fill="#AAAAAA"/>
<path d="M26.6704 41.2619C22.3831 41.8182 19.6177 42.8328 18.8159 44.1418C18.4068 44.8291 18.3904 45.9746 18.7831 46.7273C19.9122 48.8218 25.5413 50.3273 30.5322 49.8363C36.2758 49.28 39.2703 47.7582 39.2703 45.3855C39.2703 43.9946 38.6485 43.2418 36.7667 42.3909C35.2121 41.6709 33.134 41.3273 30.0249 41.2619C28.5031 41.2128 26.9813 41.2291 26.6704 41.2619ZM33.1994 44.2891C34.0503 44.4855 35.2612 44.8291 35.883 45.0582C37.2412 45.5491 37.1757 45.6473 35.1303 46.3018C31.2521 47.5127 26.4413 47.5291 22.6286 46.3182C21.9249 46.1055 21.2049 45.8273 21.0413 45.6964C20.7631 45.5 20.8286 45.4509 21.7286 45.1073C23.1358 44.6 25.0667 44.1255 26.5067 43.9618C28.2413 43.7328 31.3667 43.8964 33.1994 44.2891Z" fill="#D34440"/>
<path d="M67.8248 41.36C67.7757 41.491 67.7593 43.3073 67.7757 45.4182L67.8248 49.2636L69.1829 49.3127L70.5247 49.3618L70.492 45.3037L70.4429 41.2455L69.1666 41.1964C68.2338 41.1637 67.8738 41.2128 67.8248 41.36Z" fill="#AAAAAA"/>
<path d="M72.8154 43.7491C72.8154 46.22 72.8318 46.3509 73.2245 46.9237C73.5027 47.3491 73.9936 47.7091 74.8118 48.1018C76.9718 49.1655 79.5245 49.5909 84.8754 49.8364C86.839 49.9182 88.639 50 88.9008 50H89.3426V48.6091V47.2182H87.2644C84.5644 47.2182 80.8499 46.9564 78.8699 46.6291C77.1681 46.3509 75.5318 45.7782 75.499 45.4509C75.4827 45.3528 75.4663 44.3382 75.45 43.2091L75.4336 41.1637H74.1245H72.8154V43.7491Z" fill="#AAAAAA"/>
</svg>
