<svg width="90" height="90" viewBox="0 0 90 90" fill="none" xmlns="http://www.w3.org/2000/svg">
<rect width="90" height="90" rx="10" fill="white"/>
<path fill-rule="evenodd" clip-rule="evenodd" d="M57.16 54.8568V43H63.0067L71.2187 48.3175V43H77V54.8568H70.8575L63.4668 49.7046V54.8568H57.16ZM34.5951 54.8568L42.4454 43H48.9492L56.6348 54.8568H49.9345L48.8508 53.6681H42.2481L41.2953 54.8568H34.5951ZM44.2846 50.5301H46.8134L45.5002 48.0201L44.2846 50.5301ZM14 54.8568V43H20.0762L23.9849 47.4916L28.1564 43H33.9372V54.8568H27.927V50.5632L24.1167 54.2293L20.0437 50.5632V54.8568H14ZM33.6094 61.9578H57.1274C57.8829 61.9578 58.5069 62.6181 58.5069 63.444V77.5139C58.5069 78.3398 57.8829 79 57.1274 79H33.6094C32.8539 79 32.2299 78.3398 32.2299 77.5139V63.444C32.2299 62.6185 32.8539 61.9578 33.6094 61.9578ZM33.8392 63.5761V77.3821H56.8976V63.5761H33.8392Z" fill="black"/>
<path fill-rule="evenodd" clip-rule="evenodd" d="M34.5931 76.9677L35.4465 75.7773H36.0702L38.3683 73.1007H39.2547L41.8154 69.2664L48.6107 68.3082L49.3658 72.9022L43.4572 72.043L42.3407 73.1662H42.2752L39.3535 75.8436L40.1085 76.3398V76.9341H37.2856L37.5153 75.4143L35.9397 76.9677H34.5931ZM38.5984 72.8031H39.1237L40.9294 70.0929L38.5984 72.8031ZM48.8738 68.176L49.6614 72.9349L52.4518 73.3643L53.798 72.5378L54.4868 68.3405L52.6165 63.8128L52.5506 63.7801L48.8738 68.176ZM52.9446 63.8796L53.1418 63.9451L53.7322 63.6147V64.5075L54.5864 64.8378L54.6189 65.2345C54.6189 65.3335 54.8812 65.4658 54.9145 65.3663L55.0129 64.9369L56.3254 65.3994L56.1945 66.5562L55.341 66.4244C54.8157 66.3581 54.7173 67.1846 55.2093 67.2181L55.9977 67.2836L55.8668 68.2754L54.7503 68.2419L52.9446 63.8796ZM52.2546 73.5955L51.467 75.7769L52.4514 76.4711V77H50.2521L49.8256 74.3561H49.8907L49.8581 74.1903L49.6943 73.2321L52.2546 73.5955ZM49.1686 73.1662L43.5556 72.3397L42.7347 73.1662H49.1686ZM44.9994 15.7258C63.9087 15.7258 79.338 31.2592 79.338 50.263C79.338 51.6511 79.2396 53.0396 79.0749 54.3941H83.8028C83.9337 53.0396 84 51.6511 84 50.263C84 28.6485 66.469 11 44.9998 11C23.5306 11 6 28.6489 6 50.263C6 51.6511 6.06587 53.0396 6.1972 54.3941H10.9246C10.7604 53.0396 10.662 51.6511 10.662 50.263C10.6616 31.2592 26.0909 15.7258 44.9994 15.7258Z" fill="black"/>
</svg>
