<svg width="90" height="90" viewBox="0 0 90 90" fill="none" xmlns="http://www.w3.org/2000/svg">
<rect width="90" height="90" rx="10" fill="white"/>
<path d="M44.4119 50.1294C53.5747 50.1294 60.9766 42.7001 60.9766 33.5647C60.9766 24.4018 53.5472 17 44.4119 17C35.2765 17 27.8472 24.4018 27.8472 33.5647C27.8472 42.7001 35.2765 50.1294 44.4119 50.1294Z" fill="white"/>
<path d="M51.3507 33.6767C51.3507 37.5603 48.2335 40.7279 44.4114 40.7279C40.5894 40.7279 37.4722 37.5603 37.4722 33.6767C37.4722 29.793 40.5894 26.6255 44.4114 26.6255C48.2606 26.6255 51.3507 29.7655 51.3507 33.6767Z" fill="#F58220"/>
<path d="M58.5387 26.8139C55.4544 27.5594 53.1687 30.3481 53.1687 33.6615C53.1687 36.9748 55.4268 39.7359 58.4836 40.509C59.5025 38.4382 60.0808 36.0912 60.0808 33.6062C60.0808 31.1765 59.5301 28.8847 58.5387 26.8139ZM35.7094 33.5786C35.7094 30.2377 33.3962 27.449 30.3119 26.7035C29.293 28.7743 28.7422 31.0936 28.7422 33.5786C28.7422 36.036 29.3205 38.383 30.3119 40.4538C33.4237 39.6807 35.7094 36.892 35.7094 33.5786ZM48.7901 41.1165C45.871 42.7455 44.5767 46.1417 45.4855 49.2341C50.4149 48.9028 54.7108 46.2521 57.3545 42.3866C55.1515 40.1225 51.6541 39.515 48.7901 41.1165ZM40.1431 25.9856C43.0346 24.3565 44.3289 20.988 43.4752 17.8955C38.5183 18.1716 34.1948 20.7671 31.5511 24.6326C33.6991 26.9796 37.2515 27.6146 40.1431 25.9856ZM40.1155 41.1165C37.224 39.4046 33.6165 39.9844 31.4134 42.3314C34.0295 46.2245 38.3255 48.8752 43.2824 49.2341C44.1637 46.1969 42.952 42.8007 40.1155 41.1165ZM48.8452 26.096C51.7092 27.8079 55.2616 27.2281 57.4922 24.964C54.9312 21.0432 50.6352 18.3649 45.7058 17.9507C44.797 20.988 46.0087 24.4117 48.8452 26.096Z" fill="#231F20"/>
<path d="M72.0558 66.4055L74.4094 57.3252L77.1553 57.2925L74.7363 66.6346C74.7363 66.6346 74.5565 67.2563 74.7363 67.5181C74.9161 67.7798 75.4392 67.6162 75.4392 67.6162L75.4065 68.9087C75.4065 68.9087 73.0202 69.6123 72.0068 68.4834C71.5818 68.0089 72.0558 66.4055 72.0558 66.4055ZM21.7309 68.9578H24.4768C24.4768 68.9578 25.9151 63.9023 26.0949 62.3316C26.3237 60.2047 24.1499 60.0902 22.4501 60.0902C21.3386 60.0902 19.9984 60.2702 19.2465 60.5647L18.6908 62.7734C19.8022 62.2662 21.1098 62.0372 22.0087 62.0372C22.826 62.0372 23.4307 62.2335 23.3327 62.8716C23.3163 62.9861 23.2346 63.2969 23.2346 63.2969C19.884 63.2969 17.0237 64.524 16.8765 66.7491C16.7621 68.4506 17.3996 69.1869 19.0013 69.1869C19.8676 69.1869 21.4857 68.876 21.9434 67.9762L21.7309 68.9578ZM20.7502 67.3545C20.1782 67.3708 19.7859 67.3381 19.7369 66.8473C19.6878 66.4546 19.8022 65.7511 20.5377 65.3748C21.2406 65.0148 22.6462 64.9494 22.7442 64.9658C22.6298 65.5057 22.3193 66.7164 22.3193 66.7164C22.1395 66.9618 21.3876 67.3381 20.7502 67.3545ZM71.4838 63.9677C71.9741 61.7754 70.6175 60.1066 68.1822 60.1066C64.8642 60.1066 62.8375 62.1353 62.1674 65.2112C61.677 67.4199 62.6087 69.2687 65.2728 69.2687C68.6889 69.2523 70.6829 67.6162 71.4838 63.9677ZM68.6071 64.0005C68.1658 65.9801 67.6918 67.3054 65.9757 67.3054C65.1257 67.3054 64.6191 66.7164 64.995 65.1948C65.3219 63.8041 65.8612 62.0862 67.6101 62.0862C68.5744 62.0699 68.8196 63.0843 68.6071 64.0005ZM85.8997 63.9677C86.39 61.7754 85.0498 60.1066 82.5981 60.1066C79.2801 60.1066 77.2698 62.1353 76.5833 65.2112C76.0929 67.4199 77.0246 69.2687 79.6888 69.2687C83.1048 69.2523 85.0988 67.6162 85.8997 63.9677ZM83.0394 64.0005C82.5981 65.9801 82.1241 67.3054 80.4079 67.3054C79.558 67.3054 79.0513 66.7164 79.4272 65.1948C79.7541 63.8041 80.2935 62.0862 82.0424 62.0862C82.9904 62.0699 83.2355 63.0843 83.0394 64.0005ZM31.4886 60.3193L31.1944 61.4645C31.1944 61.4645 32.6164 60.2702 34.6268 60.2702L33.9239 62.8879C32.0607 62.5116 30.7531 63.2315 30.7531 63.2315L29.184 68.9578H26.4708L28.7591 60.3029H31.4886V60.3193ZM50.8733 72.1155H53.6355L54.6325 68.5652C55.368 69.1214 56.2179 69.056 56.5775 69.056C58.9965 69.056 61.6934 66.5037 61.6934 62.9534C61.6934 61.1046 60.8598 60.3356 58.784 60.2211C56.9861 60.1229 54.0605 60.3193 54.0605 60.3193L50.8733 72.1155ZM55.0575 66.88L56.2506 62.1353C56.2506 62.1353 56.4631 62.0044 57.215 62.0044C58.5552 62.0044 59.1927 62.2662 58.7187 64.2295C58.4081 65.4729 57.9014 66.9945 56.2179 67.0272C55.3517 67.06 55.0575 66.88 55.0575 66.88ZM40.6416 68.5652C40.1676 68.7615 39.2032 69.1705 37.4871 69.1869C34.7412 69.2196 33.5971 68.058 33.7115 65.9965C33.8586 63.3133 35.8853 60.0902 39.6772 60.0902C41.2463 60.0902 41.9982 60.3847 42.6519 60.7283L42.0962 63.1497L41.704 63.1006C41.5242 62.8716 40.8867 62.0699 39.6282 62.0699C37.9447 62.0699 36.6208 63.8532 36.5391 65.5548C36.49 66.5364 37.0294 67.3708 38.4187 67.2727C40.1839 67.1418 40.854 66.1928 40.854 66.1928H41.23L40.6416 68.5652ZM51.8866 63.9677C52.377 61.7754 51.0204 60.1066 48.585 60.1066C45.2671 60.1066 43.2567 62.1353 42.5702 65.2112C42.0799 67.4199 43.0115 69.2687 45.6757 69.2687C49.0917 69.2523 51.0857 67.6162 51.8866 63.9677ZM49.0263 64.0005C48.585 65.9801 48.111 67.3054 46.3949 67.3054C45.5449 67.3054 45.0383 66.7164 45.4142 65.1948C45.7411 63.8041 46.2804 62.0862 48.0293 62.0862C48.9773 62.0699 49.2225 63.0843 49.0263 64.0005ZM14.5393 57.5215L10.4531 63.2969L9.42342 57.5215H6.00741L5.99106 57.5706L3 68.9742L5.74589 68.9578L7.70724 61.6936L8.29565 65.0966C8.81867 68.058 9.97913 67.3545 11.3684 65.2766L13.8365 61.5954L11.8915 68.9415H14.7681L17.8245 57.5215H14.5393Z" fill="#231F20"/>
</svg>
