<svg width="90" height="90" viewBox="0 0 90 90" fill="none" xmlns="http://www.w3.org/2000/svg">
<rect width="90" height="90" rx="10" fill="white"/>
<path d="M42.0157 23.162C41.1836 23.2703 39.6946 23.552 38.7311 23.7904C36.6728 24.3104 32.6 26.2172 32.2716 26.824C32.0745 27.1707 32.0964 27.2357 32.4249 27.1273C32.6438 27.0623 32.4249 27.3223 31.9431 27.734C31.4614 28.1241 30.5198 28.9475 29.8629 29.5542C29.206 30.1609 28.571 30.6376 28.4396 30.5943C28.1331 30.4643 27.082 32.1761 26.5784 33.6495C25.1989 37.6149 26.3156 41.8619 29.6221 45.1988C35.7094 51.3527 46.9862 52.8261 55.5917 48.5791C63.3213 44.7654 66.1679 37.3765 62.2483 31.266C61.6133 30.2692 61.5476 30.2259 61.3725 30.6593C61.263 30.9843 61.3943 31.591 61.898 32.7178C62.4673 34.0612 62.5768 34.6463 62.6644 36.5098C62.7738 38.9583 62.533 39.9767 61.263 42.4253C60.1681 44.5488 60.1024 44.5921 58.6791 44.5921H57.4529L58.2412 43.4003C58.6791 42.7503 59.1171 42.2086 59.2047 42.2086C59.2923 42.2086 59.5988 41.6885 59.8835 41.0601C60.3433 40.1067 60.409 39.6084 60.409 37.6582C60.3871 35.7514 60.3214 35.188 59.8835 34.2562C59.5988 33.6279 59.2923 33.1512 59.2047 33.2162C59.1171 33.2595 58.8762 33.1295 58.6572 32.8911C58.285 32.4794 58.285 32.4794 57.8252 32.9128C57.5843 33.1295 57.2121 33.3245 57.015 33.3245C56.8179 33.3245 56.577 33.4112 56.4676 33.4978C55.7888 34.0829 51.0591 35.5997 50.7963 35.318C50.7087 35.253 50.6649 35.2963 50.6649 35.4047C50.6649 35.513 50.424 35.6214 50.1175 35.6214C49.8109 35.643 49.5701 35.6214 49.5701 35.5564C49.5701 35.4913 50.008 34.8196 50.5554 34.0612C51.1028 33.3245 51.5408 32.6311 51.5408 32.5444C51.5408 32.1977 47.6212 36.9215 47.1176 37.8532C46.9643 38.1566 46.4607 38.915 45.979 39.5433L45.1031 40.6701L44.7309 40.0851C44.2053 39.2617 40.1544 34.5379 39.8917 34.4296C39.7603 34.3863 39.7822 34.5596 39.9355 34.8413C40.0668 35.1013 40.1325 35.3613 40.0668 35.448C39.8479 35.643 37.0889 35.0796 36.1692 34.6246L35.3371 34.2346L35.1839 34.798C34.8335 36.0547 35.0087 37.5065 35.6656 38.6983C36.3882 40.0417 37.3297 40.7784 38.9063 41.3202C41.7091 42.2736 44.9717 42.4036 47.4899 41.6669C50.8839 40.6918 56.796 38.4383 59.1828 37.2465L60.1024 36.7698L59.9711 37.8099C59.6426 40.1284 59.0076 41.6885 57.4967 43.8987C56.7303 45.0255 56.7303 45.0255 54.0808 45.8705C50.3365 47.0623 49.5263 47.1923 44.9717 47.2356C39.8479 47.3007 39.1034 47.1056 36.3225 45.0688C32.7752 42.4253 31.5052 40.2801 31.6585 37.1165C31.768 34.9063 32.6438 32.9778 34.2642 31.266C34.8992 30.6159 35.3371 29.9876 35.2495 29.9009C35.0744 29.7492 34.3737 30.4426 32.9285 32.1977C32.2278 33.0428 32.1183 33.0861 31.7242 32.8045C31.3081 32.5228 31.3738 32.4361 32.7971 31.0276C34.2423 29.6409 34.2861 29.5975 33.3883 30.0959C32.0964 30.811 31.0454 32.0244 30.2133 33.7362C29.5783 35.0796 29.5345 35.318 29.5345 37.5498C29.5345 40.2151 29.841 41.2985 31.0891 43.2053C31.5052 43.812 31.8336 44.3754 31.8336 44.4621C31.8336 44.5271 31.5052 44.5921 31.0891 44.5921C30.4541 44.5921 30.1914 44.4404 29.5783 43.6604C27.6951 41.3418 26.885 39.0233 27.082 36.3581C27.3229 33.0861 28.5929 30.9843 32.0307 28.0807C34.4613 26.0439 36.4539 25.0255 38.0523 25.0038C39.0815 24.9821 39.1472 25.0255 40.3296 26.2823C41.1617 27.1707 41.4901 27.4307 41.4026 27.1057C41.315 26.694 41.4026 26.5856 42.0814 26.3906C44.1397 25.8489 48.4971 25.1338 48.2563 25.3938C48.1906 25.4372 47.468 25.6539 46.614 25.8489C44.9279 26.2172 41.9062 27.5824 41.9062 27.9507C41.9062 28.3191 44.6214 31.2443 44.709 30.9626C44.7528 30.8326 44.8841 30.7243 44.9936 30.7243C45.125 30.7243 45.1469 30.811 45.0812 30.941C45.0155 31.0493 44.9936 31.1577 45.0593 31.1577C45.2345 31.1577 46.614 29.6409 48.5628 27.3223C50.9496 24.4838 51.4532 24.3971 54.7377 26.2172C57.0369 27.5174 58.066 27.7557 57.7376 26.9106C57.5843 26.4989 55.4384 25.2638 53.6648 24.5704C50.424 23.292 45.4316 22.6853 42.0157 23.162Z" fill="black"/>
<path d="M53.5221 29.6958C52.579 30.5502 51.6855 32 52.1074 32C52.2315 32 52.7279 31.4822 53.2242 30.835C54.2418 29.5405 54.8622 29.3851 56.128 30.0842C57.1455 30.6278 57.3192 30.3948 56.401 29.7217C55.1352 28.7638 54.5396 28.7638 53.5221 29.6958Z" fill="black"/>
<path d="M36 29.1474C36 29.2622 36.1026 29.4459 36.2052 29.5148C36.3283 29.6067 36.3694 29.7445 36.3078 29.8593C36.1847 30.0889 37.0055 31.2831 37.2107 31.1453C37.2928 31.0764 37.7237 31.4898 38.1342 32.0639C39.3859 33.7403 39.2423 33.0054 37.9495 31.1223C36.8208 29.4689 36 28.6422 36 29.1474Z" fill="black"/>
<path d="M80.7846 59.8353C79.3656 60.2826 78.6098 61.2698 78.471 62.8739C78.2396 65.3418 79.4427 66.7917 81.8952 66.9768C84.7487 67.1927 86.2911 65.8971 86.2911 63.2904C86.2911 61.4086 85.597 60.2981 84.1471 59.8662C83.1445 59.5731 81.6792 59.5577 80.7846 59.8353ZM83.3605 61.131C83.669 61.2852 84.0083 61.6246 84.1625 61.933C84.5173 62.6117 84.5327 64.0924 84.1934 64.7865C83.561 66.1285 81.1702 66.0668 80.4761 64.694C80.1522 64.0924 80.2293 62.3958 80.5841 61.8096C81.1394 60.915 82.3425 60.622 83.3605 61.131Z" fill="black"/>
<path d="M3.18509 59.9586C3.04627 60.0974 3 61.1 3 63.5062V66.8687H3.77122H4.54243L4.57328 64.2311L4.61955 61.5781L5.52959 64.0769C6.10029 65.6193 6.54759 66.6373 6.71726 66.7298C6.8715 66.807 7.27253 66.8687 7.61187 66.8687C8.39851 66.8687 8.44478 66.807 9.49364 63.938L10.3265 61.7015L10.3728 64.2774L10.4037 66.8687H11.1749H11.9461V63.5062C11.9461 61.1 11.8998 60.0974 11.761 59.9586C11.5451 59.7426 10.0335 59.7118 9.64788 59.9277C9.46279 60.0203 9.06175 60.9303 8.53733 62.4727C7.92036 64.2465 7.64272 64.8635 7.47305 64.8326C7.33423 64.8018 6.9332 63.9535 6.45505 62.627C5.42162 59.8197 5.37534 59.7735 4.26479 59.7735C3.77122 59.7735 3.29306 59.8506 3.18509 59.9586Z" fill="black"/>
<path d="M14.0285 60.1128C13.2881 60.6989 13.1802 61.2079 13.1802 64.1694V66.8687H13.9514H14.7226V64.1694V61.4701H17.1134H19.5041L19.5967 61.8403C19.643 62.0408 19.6584 62.3802 19.6275 62.5653C19.5813 62.9355 19.5504 62.9355 17.6224 62.9817L15.6481 63.028V63.7838V64.5396L17.6224 64.5859L19.5813 64.6321L19.6275 65.7427L19.6738 66.8687H20.3525H21.0466V64.0769C21.0466 59.7889 21.0312 59.7735 17.0671 59.7735C14.6146 59.7735 14.4295 59.7889 14.0285 60.1128Z" fill="black"/>
<path d="M23.576 59.9894C22.5117 60.4521 22.0489 61.6552 22.5271 62.6578C23.0053 63.5987 23.6068 63.8455 25.6737 63.9072C27.5863 63.9689 27.9873 64.1231 27.9873 64.8018C27.9873 65.4959 27.4937 65.6347 25.0258 65.6347H22.743V66.2517V66.8687H25.5348C28.666 66.8687 29.1287 66.7607 29.684 65.8661C30.0696 65.2491 30.085 64.2157 29.7303 63.6141C29.3138 62.9046 28.6814 62.7041 26.923 62.7041C26.0747 62.7041 25.1955 62.627 24.9796 62.519C24.4706 62.2876 24.3163 61.7015 24.6711 61.3159C24.9179 61.0383 25.1647 61.0074 27.2469 61.0074H29.5297V60.3904V59.7735H26.7996C24.8562 59.7889 23.9153 59.8506 23.576 59.9894Z" fill="black"/>
<path d="M32.985 60.0665C31.8744 60.5755 31.3037 61.7324 31.3192 63.4753C31.3192 64.7247 31.6276 65.5576 32.3372 66.2054C32.9233 66.7453 33.4631 66.8687 35.4066 66.8687H37.2421V66.2517V65.6347H35.638C34.2806 65.6347 33.9876 65.5884 33.6482 65.3262C32.877 64.7247 32.7382 62.7195 33.4014 61.6398L33.6945 61.1617H35.4683H37.2421V60.4676V59.7735H35.4374C34.003 59.7735 33.4786 59.8352 32.985 60.0665Z" fill="black"/>
<path d="M39.4165 60.0203C38.6453 60.5601 38.4756 61.3159 38.4756 64.2002V66.8687H39.2468H40.018V64.1694V61.4547L42.4551 61.501L44.8767 61.5473V62.2414V62.9355L42.9178 62.9817L40.9435 63.028V63.7838V64.555H42.9486H44.9538V65.7118V66.8687H45.7404H46.5271L46.4654 64.046C46.3883 59.8043 46.3574 59.7735 42.3779 59.7735C40.2185 59.7735 39.7095 59.8197 39.4165 60.0203Z" fill="black"/>
<path d="M47.5762 63.3056V66.8687H48.4245H49.2728V65.4805V64.0923H50.5068H51.7253L52.6662 65.4805L53.6071 66.8687H54.5171C55.0261 66.8687 55.4426 66.8224 55.4426 66.7607C55.4426 66.699 55.0415 66.0666 54.5634 65.3416C54.0081 64.5396 53.7459 64.0152 53.8539 63.9843C54.4863 63.7684 55.0724 63.1822 55.2729 62.5807C55.458 61.9946 55.4426 61.8249 55.2266 61.2542C55.0878 60.884 54.7948 60.4213 54.5788 60.2208C54.1932 59.8506 54.1315 59.8506 50.877 59.8043L47.5762 59.758V63.3056ZM53.0055 61.2696C53.3757 61.609 53.3603 62.2722 52.9593 62.6424C52.6816 62.8892 52.3886 62.9355 50.9849 62.9355H49.35L49.3037 61.9637L49.2574 61.0074H50.9849C52.3886 61.0074 52.7742 61.0537 53.0055 61.2696Z" fill="black"/>
<path d="M58.4503 59.9586C57.6483 60.2516 57.1855 60.6835 56.7691 61.501C56.0441 62.9355 56.2755 64.8943 57.2935 65.9586C58.003 66.7144 58.6508 66.8687 61.0416 66.8687H63.0005V66.2517V65.6347H61.1342C59.2832 65.6347 59.2678 65.6347 58.8205 65.1874C58.5583 64.9252 58.3732 64.5704 58.3732 64.3391V63.938H60.6868H63.0005V63.3211V62.7041H60.6868C58.4503 62.7041 58.3732 62.6887 58.3732 62.3802C58.3732 61.3467 59.1136 61.0074 61.3038 61.0074H63.0005V60.3904V59.7735L60.9645 59.7889C59.8385 59.7889 58.7125 59.866 58.4503 59.9586Z" fill="black"/>
<path d="M64.2655 62.5348C64.3118 65.0644 64.3426 65.342 64.6357 65.7431C65.2989 66.6223 65.8079 66.7919 68.0599 66.8382L70.0959 66.8999V66.3601V65.8202L68.4609 65.7585C66.8876 65.7122 66.8105 65.6814 66.4558 65.2803C66.101 64.8639 66.0856 64.7559 66.0856 62.3035V59.7739H65.1447H64.2192L64.2655 62.5348Z" fill="black"/>
<path d="M71.3607 62.5348C71.407 65.0644 71.4378 65.342 71.7309 65.7431C72.3942 66.6223 72.9032 66.7919 75.1551 66.8382L77.1911 66.8999V66.3601V65.8202L75.5561 65.7585C73.9829 65.7122 73.9057 65.6814 73.551 65.2803C73.1962 64.8639 73.1808 64.7559 73.1808 62.3035V59.7739H72.2399H71.3145L71.3607 62.5348Z" fill="black"/>
</svg>
