<svg width="90" height="90" viewBox="0 0 90 90" fill="none" xmlns="http://www.w3.org/2000/svg">
<rect width="90" height="90" rx="10" fill="white"/>
<path d="M1.115 41.5578C1.04929 41.7221 1 43.4471 1 45.3857V48.9179H4.03931H7.07862L7.17719 47.1107C7.24291 46.1085 7.29219 45.2871 7.30862 45.2543C7.30862 45.2378 7.60434 45.2214 7.94934 45.2214C8.54077 45.2214 8.57363 45.2543 9.7565 47.1107L10.9722 49L13.7815 48.9671L16.6073 48.9179L16.7387 45.4843C16.8373 43.1021 16.8208 41.9192 16.7058 41.6564C16.5251 41.2785 16.4758 41.2621 14.8494 41.3114L13.1572 41.3607L13.108 43.365C13.0587 45.3364 13.0587 45.3857 12.6972 45.3857C12.4015 45.3857 12.1058 44.975 11.1365 43.3321L9.95364 41.2785H5.58361C1.59143 41.2785 1.23 41.2949 1.115 41.5578Z" fill="#444444"/>
<path d="M18.0696 41.4921C18.0367 41.6071 18.0203 43.3157 18.0367 45.3035L18.086 48.9179L24.6246 48.9671L31.1468 49L31.344 48.5893C31.4754 48.2936 31.4918 48.0307 31.3768 47.7186L31.229 47.275L27.1382 47.1928C22.686 47.1107 22.6039 47.0778 22.8175 46.1743L22.9325 45.7635L27.0725 45.6157L31.229 45.4678V45.0571V44.6464L27.2204 44.5971C24.5096 44.5807 23.1296 44.4985 22.9818 44.3671C22.8503 44.2685 22.7682 43.9564 22.801 43.6771L22.8503 43.1678L24.6575 43.0692C25.6596 43.0035 27.5489 42.9542 28.8632 42.9378C30.9004 42.9214 31.2947 42.8885 31.3768 42.6585C31.5411 42.2478 31.4918 41.6892 31.2782 41.4757C30.9825 41.1799 18.1846 41.1964 18.0696 41.4921Z" fill="#444444"/>
<path d="M32.905 41.3935C32.8393 41.4428 32.79 43.1842 32.79 45.2543V49L39.1644 48.9671L45.5223 48.9179V45.1393V41.3607L39.2629 41.3114C35.8293 41.2949 32.9708 41.3278 32.905 41.3935ZM41.0208 43.365C41.0701 45.0078 40.9551 46.9628 40.7908 47.0614C40.5608 47.2093 38.1787 47.2421 37.8172 47.0943C37.6036 47.0121 37.5544 46.6836 37.5544 45.1557C37.5544 44.1371 37.6036 43.25 37.6694 43.2007C37.7186 43.135 38.5072 43.0857 39.3944 43.0857C40.8072 43.0857 41.0044 43.1185 41.0208 43.365Z" fill="#444444"/>
<path d="M47.5261 41.3935C47.4604 41.4428 47.4111 43.1842 47.4111 45.2543V49L53.7033 48.9671L59.9791 48.9179L60.0284 45.09L60.0612 41.2785H53.8512C50.434 41.2785 47.5754 41.3278 47.5261 41.3935ZM55.7569 43.6278C55.8555 44.4328 55.5762 44.5643 53.884 44.5643H52.3397V43.825V43.0692L54.0319 43.1185L55.7076 43.1678L55.7569 43.6278ZM55.7241 45.665C55.9376 46.47 55.6583 46.6178 53.9169 46.6671L52.3397 46.7164V45.9607V45.2214H53.9826C55.6091 45.2214 55.6255 45.2214 55.7241 45.665Z" fill="#444444"/>
<path d="M62.2629 41.4921C62.2301 41.6071 62.2136 43.3157 62.2301 45.3035L62.2794 48.9179L68.7523 48.9671L75.2252 49L75.1102 45.2707C75.0445 43.2171 74.9623 41.4921 74.913 41.4099C74.7652 41.1799 70.773 41.2457 70.6251 41.4757C70.5594 41.5907 70.4937 42.905 70.4937 44.4V47.1107H68.6044H66.7151L66.633 44.4C66.5837 42.905 66.4851 41.5907 66.4194 41.4757C66.2223 41.1964 62.3779 41.1964 62.2629 41.4921Z" fill="#444444"/>
<path d="M77.2296 41.5413C77.016 41.7549 76.9831 42.1327 77.016 43.562L77.0653 45.3035L80.9753 45.3528L84.8853 45.3856L84.8361 46.2564L84.7868 47.1106H83.3082H81.8296L81.7803 46.5685L81.731 46.0428H79.4474C77.2624 46.0428 77.1639 46.0592 77.0653 46.4042C76.8517 47.0449 76.9503 48.0635 77.2789 48.4907L77.591 48.9178L83.226 48.9671C88.0725 48.9999 88.9104 48.9671 89.2554 48.7535C89.6168 48.5071 89.6332 48.4085 89.6332 46.6999V44.8928L85.6575 44.8599L81.6653 44.8106L81.5175 44.3506C81.4189 44.0713 81.4189 43.7428 81.5175 43.447L81.6653 43.0035H83.3082H84.9511L85.0003 43.6113L85.0496 44.2356H87.3496H89.6332V43.1185C89.6332 42.2149 89.5675 41.9192 89.3047 41.6399C88.9597 41.2785 88.9104 41.2785 83.226 41.2785C78.1824 41.2785 77.4596 41.3113 77.2296 41.5413Z" fill="#444444"/>
</svg>
