<svg width="90" height="90" viewBox="0 0 90 90" fill="none" xmlns="http://www.w3.org/2000/svg">
<rect width="90" height="90" rx="10" fill="white"/>
<path d="M54.2447 36.2786C54.3759 36.4427 55.8029 38.0664 57.3939 39.9034C58.9848 41.7404 60.3626 43.4134 60.4446 43.643C60.8218 44.6271 60.6414 45.1848 58.7224 49.1704C57.6891 51.3191 56.8362 53.1561 56.8362 53.2381C56.8362 53.3201 57.0002 53.3037 57.2135 53.2217C57.6071 53.0577 76.748 45.7589 77.5845 45.4636C77.8797 45.3652 80.2908 45.2504 83.5383 45.2012L89.0001 45.1028L85.5885 44.1187C82.3082 43.1674 82.095 43.1346 80.0119 43.0854C78.8146 43.0526 77.8305 42.9706 77.8305 42.905C77.8305 42.8229 78.4866 41.4124 79.2902 39.7558C80.0939 38.0992 80.7172 36.7051 80.6844 36.6723C80.6516 36.6231 73.3036 40.5595 71.647 41.5108C71.2042 41.7732 71.0402 41.7896 70.5809 41.6256C67.9074 40.6743 54.2283 35.9998 54.1299 35.9998C54.0479 35.9998 54.1135 36.131 54.2447 36.2786Z" fill="#1C336B"/>
<path d="M1.00429 41.0685C0.905879 41.2161 2.52966 47.5636 2.89049 48.4985C3.23493 49.3514 3.77619 49.6794 4.84231 49.6958C5.56398 49.6958 5.90842 49.6138 6.26926 49.3514C6.79412 48.9577 12.0755 41.2489 11.9607 41.0521C11.8459 40.8716 10.9438 40.888 10.2057 41.1013C9.63163 41.2489 9.4184 41.5113 7.5486 44.3488C5.56398 47.3503 5.10473 47.9572 4.90791 47.7604C4.85871 47.7112 4.43226 46.1694 3.97301 44.3324L3.12012 41.0029L2.10321 40.9537C1.54555 40.9208 1.0535 40.9701 1.00429 41.0685Z" fill="#1C336B"/>
<path d="M24.9014 41.1009C24.557 41.1994 24.2618 41.4454 24.0813 41.7898C23.1792 43.5284 20.4566 49.5315 20.5222 49.6463C20.6534 49.8595 22.1787 49.7939 22.3592 49.5643C22.7036 49.1378 26.3284 41.2158 26.2464 41.0681C26.1316 40.8877 25.6067 40.9041 24.9014 41.1009Z" fill="#1C336B"/>
<path d="M11.9443 43.9055C11.8459 44.0203 11.3211 45.0701 10.7634 46.2346C9.07401 49.8102 9.07401 49.8102 14.3226 49.7446C17.8162 49.6954 18.1442 49.6625 18.5706 49.3673C19.1119 48.9737 20.9325 45.3653 20.9489 44.6272C20.9817 43.7907 20.6537 43.7087 17.6029 43.7087H14.8474L14.5194 44.3648C14.339 44.7092 14.1914 45.0865 14.1914 45.1849C14.1914 45.2833 14.9623 45.3489 16.3236 45.3489C18.8823 45.3489 18.9151 45.3817 18.1606 46.9235L17.6357 47.9732H14.8474C13.3221 47.9732 12.0591 47.9076 12.0591 47.8255C12.0591 47.7435 12.4364 46.8906 12.8792 45.9229C13.3385 44.9552 13.6993 44.0695 13.6993 43.9383C13.6993 43.6431 12.174 43.6267 11.9443 43.9055Z" fill="#1C336B"/>
<path d="M27.1487 44.004C26.6566 44.2336 26.427 44.5944 25.5577 46.333C23.9011 49.679 23.9995 49.8102 27.9852 49.7446L30.675 49.6954L31.0359 48.9737C31.2327 48.5801 31.3639 48.1864 31.3147 48.1208C31.2655 48.0388 30.2322 47.9732 29.0185 47.9732C27.6899 47.9732 26.8206 47.9076 26.8206 47.8092C26.8206 47.3663 27.9031 45.5293 28.1984 45.4473C28.6576 45.3161 32.7909 45.3161 33.1189 45.4473C33.5126 45.5949 33.4633 45.7918 32.5613 47.6944C32.1184 48.6457 31.7412 49.515 31.7412 49.6134C31.7412 49.7282 32.0692 49.7774 32.6597 49.7446L33.5782 49.6954L34.7099 47.3171C35.3168 46.005 35.8252 44.7748 35.8252 44.578C35.858 43.7907 35.3988 43.7087 31.4131 43.7087C28.2312 43.7087 27.6407 43.7415 27.1487 44.004Z" fill="#1C336B"/>
<path d="M38.3675 43.9381C38.0887 44.0693 37.7115 44.4137 37.5474 44.7089C37.0062 45.6274 35.3496 49.2686 35.3496 49.5475C35.3496 49.7443 35.53 49.7771 36.2189 49.7443L37.0718 49.6951L38.0559 47.6777C38.5972 46.5623 39.1548 45.5946 39.286 45.5126C39.5977 45.3158 43.2225 45.2994 43.5341 45.4962C43.6981 45.5946 43.7145 45.7095 43.5669 45.9719C43.2553 46.5623 43.3537 46.6608 44.2886 46.6608H45.2071L45.6007 45.7915C46.5028 43.8561 46.2568 43.7084 42.0743 43.7084C39.7781 43.7248 38.7284 43.7904 38.3675 43.9381Z" fill="#1C336B"/>
<path d="M48.3401 44.0367C47.8973 44.3156 47.5856 44.7912 46.8148 46.4314C45.2402 49.7773 45.2402 49.7773 49.8655 49.7773C51.7353 49.7773 53.4247 49.6953 53.8019 49.5969C54.4908 49.4001 55.6061 48.416 55.4421 48.1372C55.3765 48.0388 54.0315 47.9731 51.7353 47.9731C49.3898 47.9731 48.1433 47.9075 48.1433 47.8091C48.1433 47.5631 49.1274 45.6441 49.4226 45.2997C49.6359 45.0536 49.9967 45.0208 52.1945 45.0208C54.1463 45.0208 54.704 45.07 54.704 45.2341C54.704 45.7425 54.3104 45.8409 52.0469 45.8409H49.7999L49.5374 46.333L49.275 46.825H52.7358H56.1802L56.5574 46.0377C57.1643 44.8404 57.2299 44.4304 56.8362 44.0367C56.5246 43.7251 56.295 43.7087 52.703 43.7087C49.1438 43.7087 48.8486 43.7415 48.3401 44.0367Z" fill="#1C336B"/>
<path d="M38.8106 53.0744C38.6958 53.2712 38.6466 53.4516 38.6794 53.5009C38.7286 53.5501 38.8598 53.4188 38.9582 53.222C39.2043 52.7628 39.0895 52.648 38.8106 53.0744Z" fill="black"/>
<path d="M79.0817 38.3574L76.6829 42.8474L72.3159 41.9863L79.0817 38.3574Z" fill="#DC4826"/>
</svg>
