<svg width="90" height="90" viewBox="0 0 90 90" fill="none" xmlns="http://www.w3.org/2000/svg">
<rect width="90" height="90" rx="10" fill="white"/>
<g clip-path="url(#clip0_947_1766)">
<path d="M76.3963 41.6335C75.7926 31.0863 72.4798 23.5472 67.6551 19.3315C62.5337 14.8086 52.8868 13 45.6497 13C38.1159 13 28.7709 14.8086 23.6469 19.3315C18.8274 23.5499 15.2076 31.3855 14.6038 41.6335C14.0001 51.2804 16.1106 62.1348 21.5364 68.1618C26.6604 74.1888 37.2129 76 45.3504 76C53.4879 76 64.0404 74.1914 69.1644 68.1618C74.8869 62.1348 77.0027 51.5822 76.3963 41.6335ZM43.8463 16.0109H47.4609V38.9271H43.8463V16.0109ZM18.8274 51.2856C18.5229 47.3665 17.3181 33.1994 23.0458 25.0619C25.4582 21.4394 28.7736 19.0323 32.3908 17.8247C37.2156 16.0161 43.2426 16.0161 43.2426 16.0161C40.8302 21.7413 36.3099 34.1024 35.4069 36.8166C34.1994 40.132 33.2964 41.9406 32.3882 47.9676C31.7871 52.7924 30.5822 65.1509 30.5822 70.5741C23.6496 67.2614 19.7331 61.2291 18.8274 51.2804M60.4258 70.8786C55.9029 72.9865 50.1752 73.2884 45.6523 73.2884C41.1321 73.2884 35.4069 72.6846 30.8841 70.8786C32.3908 66.6602 39.6253 49.1725 43.5444 42.2399H47.7654C51.6846 49.1777 58.9164 66.9595 60.4258 70.8786ZM72.4798 51.2804C71.5768 61.2291 67.6577 67.2614 61.0269 70.5741C60.7251 65.1509 59.8221 52.7924 59.2183 47.9676C58.3127 41.9406 57.4123 40.132 56.2048 36.8166C55.2992 34.1024 50.4771 21.7439 48.3666 16.0161C48.3666 16.0161 54.0917 16.0161 59.2183 17.8274C62.8356 19.0296 66.1536 21.442 68.5633 25.0619C73.6873 33.1994 72.7817 47.3665 72.4824 51.2856" fill="black"/>
</g>
<defs>
<clipPath id="clip0_947_1766">
<rect width="63" height="63" fill="white" transform="translate(14 13)"/>
</clipPath>
</defs>
</svg>
