<svg width="90" height="90" viewBox="0 0 90 90" fill="none" xmlns="http://www.w3.org/2000/svg">
<rect width="90" height="90" rx="10" fill="white"/>
<g clip-path="url(#clip0_993_22752)">
<path fill-rule="evenodd" clip-rule="evenodd" d="M8 7H83V82H8V7Z" fill="white"/>
<path fill-rule="evenodd" clip-rule="evenodd" d="M22.6436 36.6734C22.6436 16.5153 37.5754 14.6492 45.7876 14.6492C54.0002 14.6492 68.9324 16.5156 68.9324 36.6734C68.9324 56.3339 53.7515 58.8225 45.7876 58.8225C37.9489 58.8225 22.6436 56.3339 22.6436 36.6734ZM54.4982 35.9267L56.9868 54.5915C58.3557 53.8448 65.8212 50.2368 65.6975 36.673C65.6975 20.7455 55.9915 16.5149 47.6548 16.5149L54.4982 35.9267ZM45.7876 32.1938H46.9078V16.5153H44.7927V32.1938H45.7876ZM45.7876 56.956C50.3921 56.956 54.4982 55.7117 56.2406 54.8405L47.156 35.0559H44.4191L35.3354 54.8405C37.0777 55.7113 41.1838 56.956 45.7876 56.956ZM43.9215 16.5153C35.5844 16.5153 25.8785 20.7459 25.8785 36.6734C25.754 50.2368 33.2203 53.8452 34.5891 54.5919L37.2022 35.9271L43.9215 16.5153Z" fill="#444444"/>
<path fill-rule="evenodd" clip-rule="evenodd" d="M19.8321 62.9473H22.2799L27.7864 72.0641H25.186L21.0255 65.1807L18.8532 68.821H22.4021L23.4421 70.5342H17.8131L16.8953 72.0641H14.3257L19.8321 62.9473ZM68.7197 62.9473H71.1978L76.6739 72.0641H74.0732L69.9438 65.1807L67.7408 68.821H71.2897L72.3301 70.5342H66.7314L65.7828 72.0641H63.2129L68.7197 62.9473ZM44.7041 72.0945H46.7539C49.1402 72.0641 50.0884 70.7486 50.0884 68.607V62.9473H47.855V69.0043C47.855 70.1365 47.0601 70.2894 46.3251 70.3198H43.1131C42.3789 70.2894 41.5836 70.1365 41.5836 69.0043V62.9473H39.3198V68.607C39.3198 70.7486 40.2988 72.0641 42.6851 72.0945H44.7041ZM29.8972 67.5055V66.3736C29.9279 65.6091 30.0808 64.8134 31.1516 64.8441H38.0351V62.9473H31.1209C28.9797 62.9473 27.6638 63.9262 27.6331 66.3121V68.7292C27.6638 71.1155 28.9793 72.0637 31.1209 72.0637H38.0351V70.1972H31.1516C30.0808 70.1972 29.9279 69.4327 29.8972 68.6673V67.5055ZM53.7906 72.0641H51.5572V62.9473H59.9099C62.816 62.9473 63.5498 66.802 61.5308 68.1479C62.4176 68.4844 62.5409 69.5856 62.6016 69.9529L62.6631 72.0641H60.46L60.3993 70.1976C60.3379 69.4023 59.818 68.8518 59.0224 68.8518H54.7696L54.3416 66.9549H59.2667C60.032 66.9549 60.4597 66.6184 60.4597 65.9452C60.4597 65.3028 60.0317 64.9052 59.2667 64.9052H53.7906V72.0641Z" fill="#444444"/>
</g>
<defs>
<clipPath id="clip0_993_22752">
<rect width="75" height="75" fill="white" transform="translate(8 7)"/>
</clipPath>
</defs>
</svg>
