<svg width="90" height="90" viewBox="0 0 90 90" fill="none" xmlns="http://www.w3.org/2000/svg">
<rect width="90" height="90" rx="10" fill="white"/>
<g filter="url(#filter0_i_319_2041)">
<path d="M48.591 29.6117C48.7246 29.6117 48.8527 29.5587 48.9472 29.4642C49.0417 29.3697 49.0948 29.2416 49.0948 29.108C49.0948 28.9744 49.0417 28.8462 48.9472 28.7517C48.8527 28.6573 48.7246 28.6042 48.591 28.6042C48.4574 28.6042 48.3293 28.6573 48.2348 28.7517C48.1403 28.8462 48.0872 28.9744 48.0872 29.108C48.0872 29.2416 48.1403 29.3697 48.2348 29.4642C48.3293 29.5587 48.4574 29.6117 48.591 29.6117ZM26.8782 33.2892L25.3538 36.3195L22.2353 34.6862L21.5913 35.9728C21.6616 35.9576 21.7333 35.9501 21.8053 35.9502C21.935 35.9502 22.0636 35.9747 22.1637 36.0204L25.6457 37.8437L27.7151 33.7276L26.8782 33.2892ZM63.5631 34.2981L64.2885 33.904L65.4762 36.1889L66.2924 35.7469L65.1035 33.4623L65.7963 33.0871L67.508 36.3755L68.3233 35.9331L65.9578 31.3863C65.8712 31.5877 65.7048 31.7578 65.5725 31.8268L62.1869 33.6632L64.5368 38.1802L65.3527 37.7376L63.5631 34.2981ZM46.5615 29.6117C46.6951 29.6117 46.8232 29.5587 46.9177 29.4642C47.0122 29.3697 47.0652 29.2416 47.0652 29.108C47.0652 28.9744 47.0122 28.8462 46.9177 28.7517C46.8232 28.6573 46.6951 28.6042 46.5615 28.6042C46.4279 28.6042 46.2997 28.6573 46.2052 28.7517C46.1108 28.8462 46.0577 28.9744 46.0577 29.108C46.0577 29.2416 46.1108 29.3697 46.2052 29.4642C46.2997 29.5587 46.4279 29.6117 46.5615 29.6117ZM58.3621 33.1555L58.3684 33.1627C61.1642 36.3123 62.8628 40.4581 62.8628 45.0005C62.8628 52.2421 58.5471 58.4751 52.3477 61.2707C52.3267 61.281 52.3061 61.2924 52.2844 61.302L52.2893 61.2978L52.3477 61.2707C53.3615 60.7889 54.0631 59.7568 54.0631 58.5596C54.0631 56.9012 52.7191 55.5577 51.0608 55.5577L47.9003 55.5549C47.7979 55.5549 47.6996 55.5142 47.6271 55.4417C47.5546 55.3692 47.5139 55.2709 47.5139 55.1685C47.5139 55.066 47.5546 54.9677 47.6271 54.8952C47.6996 54.8228 47.7979 54.782 47.9003 54.782H53.2378C55.7501 54.782 57.7869 52.7452 57.7869 50.2326C57.7869 47.7203 55.7501 45.6832 53.2378 45.6832L52.5598 45.6839H48.0835C48.032 45.6852 47.9807 45.6761 47.9327 45.6573C47.8848 45.6384 47.841 45.6102 47.8042 45.5742C47.7673 45.5382 47.7379 45.4952 47.7179 45.4477C47.6979 45.4002 47.6876 45.3492 47.6876 45.2976C47.6876 45.2461 47.6979 45.1951 47.7179 45.1476C47.7379 45.1001 47.7673 45.0571 47.8042 45.0211C47.841 44.9851 47.8848 44.9568 47.9327 44.938C47.9807 44.9191 48.032 44.9101 48.0835 44.9113L52.0194 44.9069C56.1722 44.9069 59.539 41.5403 59.539 37.3873C59.5413 35.9173 59.1106 34.4793 58.3007 33.2525L58.2809 33.2245C58.274 33.2154 58.2703 33.2044 58.2701 33.193C58.2701 33.1627 58.2949 33.1382 58.3252 33.1382C58.3439 33.1382 58.3518 33.141 58.3621 33.1555ZM50.7601 61.8977C48.9121 62.5242 46.9737 62.8427 45.0224 62.8406C42.3437 62.8406 39.8032 62.2494 37.5231 61.1909V47.1313H42.5752C42.3849 46.5554 42.2882 45.9528 42.2889 45.3463C42.2889 44.4062 42.519 43.5192 42.9233 42.7373H37.5233V28.8093C39.8032 27.7511 42.3435 27.1596 45.0226 27.1596C48.1369 27.1596 51.0655 27.9581 53.6135 29.3611C53.978 29.5917 54.2218 29.9982 54.2218 30.4618C54.2218 30.6326 54.1882 30.8017 54.1228 30.9594C54.0575 31.1172 53.9617 31.2605 53.8409 31.3812C53.7202 31.502 53.5768 31.5977 53.419 31.6631C53.2613 31.7284 53.0922 31.762 52.9214 31.762L52.893 31.761H52.4748L50.7015 31.7631C50.0769 31.7631 49.7343 31.9475 49.5194 32.1341C48.8999 32.6713 49.1123 33.3076 47.8413 33.3076H44.3362C44.8103 34.4008 45.8986 35.19 46.1692 35.3738H50.4742C50.5573 35.3739 50.6385 35.3988 50.7073 35.4454C50.7762 35.4919 50.8295 35.558 50.8604 35.6352C50.8924 35.7062 50.9007 35.7856 50.8842 35.8617C50.8675 35.9585 50.8173 36.0462 50.7423 36.1095C50.6673 36.1728 50.5724 36.2076 50.4742 36.2078H46.092C45.7553 36.3837 44.7324 37.0219 44.2603 38.4621H52.1703C52.2931 38.4621 52.4146 38.4862 52.528 38.5332C52.6414 38.5802 52.7445 38.6491 52.8313 38.7359C52.9181 38.8227 52.9869 38.9257 53.0339 39.0391C53.0809 39.1525 53.1051 39.2741 53.1051 39.3968C53.1051 39.5196 53.0809 39.6411 53.0339 39.7545C52.9869 39.868 52.9181 39.971 52.8313 40.0578C52.7445 40.1446 52.6414 40.2135 52.528 40.2604C52.4146 40.3074 52.2931 40.3316 52.1703 40.3316L48.1638 40.3311C45.402 40.3311 43.1632 42.57 43.1632 45.3316C43.1632 48.0936 45.402 50.3325 48.1635 50.3325H53.1601C53.3736 50.3325 53.5465 50.511 53.5465 50.7245C53.5464 50.775 53.5363 50.8249 53.5168 50.8715C53.4972 50.918 53.4687 50.9602 53.4328 50.9957C53.3969 51.0311 53.3543 51.0591 53.3075 51.078C53.2607 51.0969 53.2106 51.1063 53.1601 51.1058H48.0431C46.0199 51.1058 44.3796 52.7457 44.3796 54.7685C44.3796 56.7918 46.0199 58.4319 48.0429 58.4319L49.9758 58.4385C50.9523 58.4385 51.7566 59.258 51.7566 60.2275C51.7566 61.0199 51.2783 61.5787 50.7601 61.8977ZM33.1296 42.7373H27.325C27.8775 38.3704 30.0097 34.4958 33.1299 31.7034L33.1296 42.7373ZM33.1296 58.2971C29.9785 55.476 27.8358 51.5519 27.3096 47.1313H33.1296V58.2971ZM45.0226 26.1945C34.637 26.1945 26.2174 34.6141 26.2174 45.0005C26.2174 55.3859 34.637 63.8062 45.0224 63.8062C55.4085 63.8062 63.8279 55.3859 63.8279 45.0005C63.8279 34.6141 55.4088 26.1945 45.0226 26.1945ZM44.3203 30.8823H48.759C48.8481 30.8821 48.9334 30.8466 48.9964 30.7837C49.0594 30.7207 49.0948 30.6353 49.095 30.5463C49.0948 30.4572 49.0594 30.3718 48.9964 30.3087C48.9335 30.2457 48.8481 30.2101 48.759 30.2098H44.3203C44.2312 30.2101 44.1458 30.2457 44.0829 30.3087C44.0199 30.3718 43.9845 30.4572 43.9843 30.5463C43.9843 30.7313 44.1357 30.8823 44.3203 30.8823ZM44.4883 29.6117C44.6219 29.6117 44.75 29.5587 44.8445 29.4642C44.939 29.3697 44.9921 29.2416 44.9921 29.108C44.9921 28.9744 44.939 28.8462 44.8445 28.7517C44.75 28.6573 44.6219 28.6042 44.4883 28.6042C44.3547 28.6042 44.2266 28.6573 44.1321 28.7517C44.0376 28.8462 43.9845 28.9744 43.9845 29.108C43.9845 29.2416 44.0376 29.3697 44.1321 29.4642C44.2266 29.5587 44.3547 29.6117 44.4883 29.6117ZM45.1855 35.8004L45.2485 35.7404L45.1855 35.6795C44.2032 34.9662 43.768 34.0825 43.5053 33.3986C43.324 32.9273 43.1198 32.5402 42.8228 32.2569C42.5143 31.9633 42.2896 31.8072 41.8446 31.8072C41.6635 31.8084 41.4832 31.8313 41.3075 31.8754L41.2011 31.901L41.2671 32.0235C41.3656 32.2062 41.5483 32.5458 41.8682 32.6433C41.8952 32.651 41.9232 32.6547 41.9513 32.654C41.9771 32.6537 42.003 32.6522 42.0287 32.6496C42.0497 32.6477 42.0703 32.6456 42.0896 32.6456C42.1113 32.6456 42.1183 32.6487 42.1186 32.6487C42.4639 32.8484 42.6447 34.3208 42.6447 35.0544C42.6447 35.1797 42.5929 35.2364 42.4772 35.2364C42.3622 35.2364 42.2121 35.1734 42.1202 35.0868C41.9179 34.8686 41.6286 34.7461 41.3105 34.7461C40.7918 34.7461 40.2419 35.0959 40.2202 35.6807V35.7994C40.2421 36.3842 40.7918 36.734 41.3108 36.734C41.6286 36.734 41.9179 36.6115 42.1202 36.3933C42.2121 36.3069 42.3622 36.2442 42.4772 36.2442C42.5929 36.2442 42.6447 36.3002 42.6447 36.4257C42.6447 37.1593 42.4637 38.6317 42.1186 38.8314C42.1186 38.8314 42.1116 38.8342 42.0896 38.8342C42.0694 38.8339 42.0491 38.8327 42.029 38.8305C42.0031 38.8279 41.9772 38.8264 41.9513 38.8261C41.9232 38.8255 41.8952 38.8291 41.8682 38.8368C41.5483 38.9343 41.3656 39.2739 41.2671 39.4566L41.2011 39.5791L41.3075 39.6052C41.4832 39.6489 41.6635 39.6716 41.8446 39.6729C42.2896 39.6729 42.5143 39.5172 42.8228 39.2232C43.1198 38.9399 43.324 38.5528 43.5053 38.0815C43.768 37.3976 44.2029 36.5139 45.1855 35.8004ZM23.156 40.7525L22.8709 42.6274L21.2378 41.3944L23.156 40.7525ZM20.1838 42.2394C20.2555 42.2092 20.3325 42.1939 20.4102 42.1943C20.5108 42.194 20.6099 42.2196 20.6979 42.2685L20.7044 42.2723L24.2665 45.0105L24.4473 43.8209L23.7233 43.2759L24.1575 40.4193L25.0064 40.1356L25.1867 38.9481L20.448 40.5418L20.1838 42.2394ZM45 71.8807C30.1549 71.8807 18.12 59.8455 18.12 45C18.12 30.1545 30.1551 18.12 45 18.12C59.8451 18.12 71.8795 30.1545 71.8795 45C71.8795 59.8455 59.8454 71.8807 45 71.8807ZM45 17C29.5363 17 17 29.5361 17 45C17 60.4639 29.5363 73 45 73C60.4639 73 73 60.4639 73 45C73 29.5361 60.4639 17 45 17ZM51.2242 23.1672C51.4092 22.6305 51.8651 22.3346 52.5087 22.3346C52.7777 22.3346 53.0635 22.3883 53.358 22.4942C54.3842 22.8631 54.8742 23.603 54.6061 24.3791C54.4204 24.9188 53.9633 25.2166 53.3197 25.2166C53.0491 25.2166 52.7614 25.1624 52.4646 25.0558C51.4416 24.6883 50.9547 23.9472 51.2242 23.1672ZM52.1398 26.006C52.5948 26.1695 53.0474 26.2526 53.4847 26.2526C54.5937 26.2526 55.4438 25.7085 55.7583 24.7966C55.9802 24.1525 55.8796 23.4665 55.475 22.8645C55.0889 22.2896 54.4523 21.8203 53.6826 21.5438C53.2388 21.3844 52.7922 21.3035 52.3568 21.3035C51.2384 21.3035 50.3844 21.8439 50.0713 22.7499C49.624 24.0454 50.4936 25.4151 52.1398 26.006ZM59.36 26.3779L58.9314 29.7739L58.9851 29.8241L62.2373 29.062L60.4499 31.4817L61.3266 32.2993L64.0381 28.723L63.0308 27.7842L60.194 28.4196L60.5405 25.463L59.4858 24.4795L59.3556 24.36C59.3451 24.5735 59.256 24.7893 59.1351 24.906L56.3248 27.6358L57.2061 28.4577L59.36 26.3779ZM67.8167 43.8352C67.7459 43.8475 67.6742 43.8537 67.6023 43.8538C66.8997 43.8538 66.3617 43.2409 66.1976 42.255C66.0166 41.1648 66.4163 40.371 67.2173 40.2317C67.287 40.2202 67.3576 40.2142 67.4282 40.214C68.1187 40.214 68.6689 40.8389 68.8296 41.807C69.0116 42.9004 68.6143 43.6968 67.8167 43.8352ZM69.7984 41.6376C69.5362 40.0653 68.5328 38.9675 67.358 38.9675C67.2422 38.9679 67.1266 38.9779 67.0124 38.9973C65.6871 39.2281 64.9372 40.6692 65.2291 42.4244C65.4958 44.0246 66.4765 45.0999 67.669 45.0999C67.7873 45.0997 67.9053 45.0894 68.0218 45.0691C69.3432 44.8397 70.0908 43.3967 69.7984 41.6376ZM46.0087 21.0293C46.3851 21.0293 46.6406 21.299 46.6441 21.7013C46.6473 22.1073 46.4014 22.3621 46.0022 22.3654L43.694 22.3857L43.6824 21.0496L46.0087 21.0293ZM42.5204 24.5835L43.7125 24.573L43.702 23.3317L45.7021 23.3137L46.5762 24.5485L47.9052 24.5369L46.9012 23.2075L47.0249 23.1483C47.5352 22.9037 47.8245 22.3948 47.8187 21.752C47.81 20.7381 47.142 20.0826 46.1181 20.0826L42.4812 20.1139L42.2712 20.1165C42.3955 20.267 42.4746 20.466 42.4865 20.6329L42.5204 24.5835ZM34.6234 25.3391L32.9794 26.2834L32.9264 24.2379L34.6234 25.3391ZM31.9058 24.3556L31.9072 24.3635L31.9851 28.8599L33.0286 28.26L33.0034 27.3542L35.5082 25.9138L36.2589 26.4015L37.3002 25.803L33.1014 23.0883L31.6081 23.9409C31.6854 23.9835 31.7523 24.0428 31.8038 24.1145C31.8554 24.1863 31.8902 24.2686 31.9058 24.3556ZM25.7453 30.007L28.5668 32.7147L29.3851 31.8268L28.3456 30.8288L30.0816 28.9449L29.408 28.298L27.6713 30.182L26.8686 29.4118L29.3683 26.6987L28.6947 26.0524L25.2276 29.8164C25.41 29.8285 25.6109 29.9004 25.7409 30.0035L25.7453 30.007Z" fill="#981E32"/>
</g>
<defs>
<filter id="filter0_i_319_2041" x="17" y="17" width="56" height="60" filterUnits="userSpaceOnUse" color-interpolation-filters="sRGB">
<feFlood flood-opacity="0" result="BackgroundImageFix"/>
<feBlend mode="normal" in="SourceGraphic" in2="BackgroundImageFix" result="shape"/>
<feColorMatrix in="SourceAlpha" type="matrix" values="0 0 0 0 0 0 0 0 0 0 0 0 0 0 0 0 0 0 127 0" result="hardAlpha"/>
<feOffset dy="4"/>
<feGaussianBlur stdDeviation="2"/>
<feComposite in2="hardAlpha" operator="arithmetic" k2="-1" k3="1"/>
<feColorMatrix type="matrix" values="0 0 0 0 0 0 0 0 0 0 0 0 0 0 0 0 0 0 0.5 0"/>
<feBlend mode="normal" in2="shape" result="effect1_innerShadow_319_2041"/>
</filter>
</defs>
</svg>
