<svg width="90" height="90" viewBox="0 0 90 90" fill="none" xmlns="http://www.w3.org/2000/svg">
<rect width="90" height="90" rx="10" fill="white"/>
<g clip-path="url(#clip0_993_12916)">
<path d="M80.215 44.9995C80.215 64.4482 64.4488 80.2145 45.0001 80.2145C25.5514 80.2145 9.7852 64.4482 9.78516 44.9995C9.78516 25.5509 25.5514 9.78461 45.0001 9.78461C64.4488 9.78461 80.215 25.5509 80.215 44.9995Z" fill="#1E1D51"/>
<path d="M44.8629 20.2829C41.8553 20.3395 38.97 20.8747 36.2876 21.811V41.1431H44.8629V20.2829ZM29.2649 26.0443C24.793 29.8398 21.6395 35.0743 20.5672 41.0049H29.2649V26.0443ZM35.9842 48.0019V68.2124C38.7371 69.1471 41.6979 69.6816 44.7846 69.7381V48.0019H35.9842ZM20.5391 48.057C21.4305 54.3726 24.6509 59.9591 29.3199 63.9523V48.057H20.5391Z" fill="url(#paint0_linear_993_12916)"/>
<path d="M45.4873 20.5319C58.7748 20.7918 69.4686 31.6505 69.4686 45.0002C69.4686 58.3498 58.7748 69.2026 45.4873 69.4622V20.5319Z" fill="url(#paint1_linear_993_12916)"/>
<path d="M35.6488 22.118V41.6912H44.729V47.4691H35.6488V67.9325C33.566 67.0727 31.6088 65.9353 29.8306 64.5513V47.4691H20.3709C20.2909 46.6578 20.2509 45.843 20.251 45.0278C20.2508 43.9118 20.3259 42.7971 20.4757 41.6912H29.8306V25.5005C31.6088 24.1161 33.5659 22.9783 35.6488 22.118Z" fill="url(#paint2_linear_993_12916)"/>
<path d="M51.6807 28.772H60.0982V29.9466H51.6807V28.772Z" fill="#9D0D16"/>
<path d="M45.1028 8.0009C32.2924 7.9805 19.8193 14.6178 12.9585 26.501C2.7471 44.1877 8.81446 66.8301 26.5011 77.0414C44.1878 87.2528 66.8302 81.1855 77.0415 63.4988C87.2529 45.8122 81.1856 23.1698 63.4989 12.9584C57.6955 9.60778 51.359 8.01085 45.1028 8.0009ZM45 9.7847C64.4387 9.7847 80.2152 25.5613 80.2152 44.9999C80.2152 64.4386 64.4387 80.2151 45 80.2151C25.5614 80.2151 9.78478 64.4386 9.78478 44.9999C9.78478 25.5613 25.5614 9.7847 45 9.7847ZM42.8797 11.018V18.3172H45.104V15.8581L46.9 18.3172L49.8266 18.7455L47.2903 15.4678C47.8469 15.3521 48.8906 14.7612 48.8906 13.5163C48.8906 11.6526 47.2124 11.0572 46.1586 11.0572L42.8797 11.018ZM45.69 12.6183C46.295 12.6183 46.7239 13.0283 46.7434 13.4772C46.763 13.926 46.4525 14.4131 45.7683 14.4131H45.0648L45.0269 12.6574L45.69 12.6183ZM56.1752 13.033C56.1357 13.0328 56.0958 13.0335 56.0565 13.0342C54.1376 13.0733 52.5151 14.2368 52.1267 16.137C51.7399 18.0295 53.4588 20.2689 55.5598 20.7458C57.8394 21.2632 59.9668 20.1808 60.4463 17.7238C60.857 15.6199 59.3107 13.5541 57.0145 13.1162C56.732 13.0624 56.4514 13.0347 56.1752 13.033ZM29.2588 14.96L27.2682 16.0134L28.2042 24.2486L30.3122 22.6875L30.0394 21.4395L32.3419 20.0729L33.3953 20.8535L35.8153 19.8784L29.2588 14.96ZM56.2266 15.0505C56.3619 15.0509 56.4992 15.0633 56.6377 15.0897C57.7456 15.3009 58.4489 16.2588 58.2551 17.2748C58.0614 18.2908 57.0433 18.9824 55.9354 18.7711C54.8275 18.5598 54.2809 17.487 54.4746 16.471C54.6441 15.582 55.2795 15.0479 56.2266 15.0505ZM29.3371 17.5746L31.0145 18.8629L29.8045 19.5652L29.3371 17.5746ZM66.4536 18.6292L60.209 22.9615L62.043 24.4052L65.0491 22.0635L63.5258 25.8489L64.3064 26.5904L68.1322 25.0292L65.8297 28.1515L67.2342 30.1421L71.6448 23.8192L70.239 22.1418L66.6481 23.5855L68.093 19.9554L66.4536 18.6292ZM45 19.5517C30.9579 19.5517 19.5506 30.9591 19.5506 45.0011C19.5506 59.0432 30.9579 70.4494 45 70.4494C59.0421 70.4494 70.4494 59.0432 70.4494 45.0011C70.4494 30.9591 59.0421 19.5517 45 19.5517ZM21.6867 20.3849L18.6427 23.8975L23.9501 28.6201L25.4342 26.9035L23.4044 25.1075L24.8873 23.5072L23.599 22.3363L22.1162 23.9758L21.3747 23.2735L22.975 21.5166L21.6867 20.3849ZM44.5081 20.5329V40.73H36.5911V22.0121C39.0676 21.1055 41.7313 20.5877 44.5081 20.5329ZM45.4869 20.5329C54.8059 20.7151 62.8486 26.1109 66.8219 33.9226C66.7708 33.8544 66.7186 33.7871 66.6653 33.7207C65.6918 32.5115 64.4654 31.7094 63.4206 31.0377C63.3375 30.9844 63.2403 30.9576 63.1417 30.9606C63.0665 30.9627 62.9929 30.9822 62.9265 31.0174C62.8601 31.0526 62.8027 31.1027 62.7587 31.1637C62.5156 31.5004 62.0566 31.7803 61.4582 31.7803H56.9497C56.7235 31.7803 56.5086 31.8419 56.3232 31.9761C56.1379 32.1102 55.9733 32.3502 55.9733 32.6343V33.1481C55.9711 33.1511 55.967 33.159 55.9476 33.1738C55.9035 33.2077 55.8168 33.2435 55.7201 33.2435H51.8356L51.8392 32.9193V32.9132C51.8392 32.3218 51.5377 31.7846 51.0721 31.4451L51.0647 31.439L51.0586 31.4353L49.3605 30.284L49.358 30.2816L49.3556 30.2804C49.0853 30.1019 48.7831 30.0173 48.498 30.0234C48.4043 30.0255 48.3112 30.0379 48.2202 30.0602C47.862 30.1479 47.5705 30.3742 47.3822 30.6633C47.0055 31.2416 47.092 32.1555 47.8165 32.6735L48.613 33.2828L48.6191 33.2877L48.6252 33.2913C48.7928 33.4113 48.8858 33.5561 48.8858 33.596L48.8662 34.8868V34.8941C48.8662 34.9099 48.8639 34.9137 48.8625 34.9198C48.8402 34.9197 48.7974 34.9147 48.7084 34.8855C48.52 34.8238 48.3771 34.7442 48.1553 34.6604C47.9337 34.5766 47.6486 34.5099 47.2818 34.5099C46.6361 34.5099 46.1056 34.8014 45.7733 35.189C45.6604 35.3206 45.5643 35.4656 45.487 35.6208L45.4869 20.5329ZM35.6123 22.395V41.7088H44.5082V47.4101H35.6123V67.6023C33.5701 66.753 31.6526 65.6307 29.9121 64.2659V47.4101H20.6443C20.5661 46.6095 20.5269 45.8056 20.5269 45.0011C20.5267 43.9 20.6003 42.8001 20.7471 41.7088H29.9121V25.7327C31.6526 24.3675 33.5701 23.2448 35.6123 22.395ZM52.2013 26.1572C51.8015 26.1572 51.477 26.4817 51.477 26.8815C51.477 27.2814 51.8016 27.6058 52.2013 27.6058C52.6012 27.6058 52.9256 27.2814 52.9256 26.8815C52.9256 26.4817 52.6012 26.1572 52.2013 26.1572ZM54.0463 26.1572C53.6465 26.1572 53.322 26.4817 53.322 26.8815C53.322 27.2814 53.6465 27.6058 54.0463 27.6058C54.4462 27.6058 54.7706 27.2814 54.7706 26.8815C54.7706 26.4817 54.4462 26.1572 54.0463 26.1572ZM55.8901 26.1572C55.4903 26.1572 55.1658 26.4817 55.1658 26.8815C55.1658 27.2814 55.4903 27.6058 55.8901 27.6058C56.29 27.6058 56.6144 27.2814 56.6144 26.8815C56.6144 26.4817 56.29 26.1572 55.8901 26.1572ZM57.7339 26.1572C57.3341 26.1572 57.0096 26.4817 57.0096 26.8815C57.0096 27.2814 57.3341 27.6058 57.7339 27.6058C58.1338 27.6058 58.4582 27.2814 58.4582 26.8815C58.4582 26.4817 58.1338 26.1572 57.7339 26.1572ZM59.5789 26.1572C59.1791 26.1572 58.8546 26.4817 58.8546 26.8815C58.8546 27.2814 59.1791 27.6058 59.5789 27.6058C59.9788 27.6058 60.3032 27.2814 60.3032 26.8815C60.3032 26.4817 59.9788 26.1572 59.5789 26.1572ZM28.9334 26.5426V40.73H20.8988C21.8894 35.1058 24.8021 30.1421 28.9334 26.5426ZM51.6814 28.0499V29.2244H60.0989V28.0499H51.6814ZM51.6814 29.6306V30.8052H60.0989V29.6306H51.6814ZM75.1182 29.6355L68.4833 32.3284L70.3565 36.6999L72.1122 35.9584L71.1371 33.7329L71.9568 33.3426L72.894 35.4898L74.4931 34.8255L73.5963 32.7578L74.3769 32.4067L75.3128 34.6309L76.9523 33.9678L75.1182 29.6355ZM14.505 30.4553L13.569 32.5229L20.0473 35.529L22.1162 31.3129L20.5159 30.4932L19.2667 32.6795L14.505 30.4553ZM48.526 30.9997C48.6033 30.9953 48.6933 31.0154 48.816 31.0964L50.5093 32.2452C50.7203 32.3991 50.8604 32.6837 50.8604 32.9132L50.8408 34.5001V34.5062C50.8408 35.1311 51.1569 35.6637 51.5651 36.0355C51.8058 36.2547 52.0815 36.4277 52.3763 36.5335C52.0815 36.6392 51.8059 36.8122 51.5651 37.0314C51.1569 37.4033 50.8408 37.9358 50.8408 38.5607V38.5668L50.8604 40.1598C50.8604 40.3894 50.7057 40.6777 50.4946 40.8315L48.8111 41.973C48.6476 42.081 48.5474 42.0794 48.4526 42.0562C48.3579 42.033 48.2648 41.9657 48.2018 41.869C48.0759 41.6757 48.0211 41.4504 48.3854 41.19L48.3915 41.1851L48.3976 41.1802L49.2075 40.5623C49.4815 40.3663 49.8645 40.037 49.8645 39.471V39.4636L49.845 38.1655C49.845 37.8886 49.7455 37.5759 49.4657 37.3642C49.1859 37.1524 48.7862 37.1262 48.4037 37.2516C48.1306 37.3411 47.9521 37.4374 47.8091 37.4914C47.6661 37.5455 47.5449 37.5783 47.2817 37.5783C46.9129 37.5783 46.6864 37.4396 46.5159 37.2406C46.3453 37.0416 46.2577 36.7644 46.2577 36.5824V36.4845C46.2577 36.3025 46.3452 36.0253 46.5159 35.8263C46.6864 35.6273 46.913 35.4886 47.2817 35.4886C47.5449 35.4886 47.666 35.5215 47.8091 35.5755C47.9521 35.6296 48.1306 35.7258 48.4037 35.8153C48.7862 35.9407 49.1859 35.9145 49.4657 35.7027C49.7454 35.491 49.845 35.171 49.845 34.894L49.8645 33.6033V33.5959C49.8645 33.0299 49.4692 32.692 49.1953 32.496L48.3976 31.8867L48.3915 31.8818L48.3854 31.8769C48.0211 31.6165 48.0759 31.3913 48.2018 31.1979C48.2648 31.1012 48.3579 31.0339 48.4526 31.0107C48.4767 31.0048 48.5013 31.0012 48.526 30.9997ZM63.2346 32.0874C64.1714 32.6997 65.143 33.3909 65.903 34.3349C66.7561 35.3945 67.3602 36.7578 67.3602 38.7675C67.3602 42.5433 63.8342 45.5761 60.4427 45.5761H52.2466C52.0137 45.5761 51.7755 45.6829 51.6312 45.8478C51.4869 46.0127 51.429 46.2118 51.4305 46.402C51.4321 46.5923 51.4934 46.7868 51.6361 46.9489C51.7788 47.1111 52.0133 47.2193 52.2466 47.2193H60.2481C63.1249 47.2193 64.6587 49.0709 64.6587 51.2567C64.6587 53.387 63.0656 55.3896 60.2677 55.3896H52.0227C51.8229 55.3896 51.6106 55.4802 51.4795 55.6257C51.3484 55.7713 51.2937 55.9483 51.2947 56.1175C51.2958 56.2868 51.3509 56.461 51.4807 56.6045C51.6105 56.748 51.8222 56.8394 52.0227 56.8394H58.1596C59.4806 56.8394 60.6042 58.1267 60.6042 59.3561C60.6042 59.9795 60.427 60.5551 60.0352 60.9735C59.6435 61.3919 59.0177 61.6954 57.9651 61.6954H54.2849C54.1383 61.6954 53.984 61.7275 53.842 61.83C53.7001 61.9325 53.584 62.1283 53.59 62.3316C53.596 62.5349 53.7131 62.7093 53.8494 62.8063C53.9856 62.9033 54.1378 62.9384 54.2849 62.9384H56.7258C57.0701 62.9384 57.3247 63.089 57.5259 63.3336C57.7271 63.5782 57.844 63.921 57.844 64.1949C57.844 64.5361 57.718 64.8515 57.4954 65.0489C57.351 65.177 57.1513 65.2659 56.8775 65.2875C56.891 65.1465 56.8933 64.9868 56.7992 64.7957C56.6876 64.5689 56.3763 64.3883 56.1116 64.3883H54.6472C54.1371 64.3883 53.5742 64.196 53.1582 63.8328C52.7423 63.4697 52.4572 62.9551 52.4572 62.2141C52.4572 61.5329 52.7419 61.0471 53.146 60.6982C53.55 60.3494 54.0867 60.1673 54.482 60.1673H58.0815C58.244 60.1673 58.4023 60.1392 58.5537 60.0474C58.7052 59.9555 58.8611 59.762 58.8608 59.5213C58.8606 59.2806 58.7038 59.0869 58.5525 58.9952C58.4013 58.9034 58.244 58.8765 58.0815 58.8765H52.4425C50.2728 58.8765 49.0645 57.3411 49.0645 55.6857C49.0645 54.2088 50.3295 52.4581 52.2468 52.4581H60.6386C60.867 52.4581 61.102 52.3516 61.2417 52.189C61.3815 52.0264 61.4364 51.8329 61.4351 51.6482C61.4338 51.4635 61.3764 51.2736 61.2381 51.1136C61.0998 50.9535 60.8676 50.8456 60.6386 50.8456H52.0914C49.7021 50.8456 47.8118 49.0738 47.8118 46.3983C47.8118 44.1634 49.6405 41.8714 52.3447 41.8714H60.0917C60.5142 41.8714 60.8932 41.6814 61.1256 41.404C61.358 41.1267 61.4615 40.785 61.4632 40.4485C61.465 40.1121 61.3647 39.7674 61.1317 39.4881C60.8987 39.2089 60.5169 39.0195 60.0917 39.0195H51.826L51.8199 38.5558C51.8199 38.2696 51.9754 37.9817 52.2248 37.7544C52.4743 37.5272 52.8099 37.3972 53.0152 37.3972H57.6473C57.8265 37.3972 58.0039 37.3557 58.1782 37.2357C58.3526 37.1156 58.5147 36.8567 58.5147 36.5334C58.5147 36.2004 58.4156 36.032 58.1782 35.8311C58.0039 35.711 57.8265 35.6696 57.6473 35.6696H53.0152C52.8099 35.6696 52.4743 35.5396 52.2248 35.3123C51.9754 35.0851 51.8199 34.7923 51.8199 34.5061L51.8235 34.2222H57.4772C57.7902 34.2222 58.0757 34.1219 58.3006 33.9494C58.5255 33.7769 58.7092 33.5123 58.7092 33.1786V32.7589H61.4584C62.1714 32.7591 62.7911 32.4933 63.2346 32.0874ZM68.2227 37.2725C69.0308 39.7019 69.4682 42.3008 69.4682 45.0011C69.4682 53.5491 65.0847 61.0728 58.4423 65.4478C58.7016 65.0789 58.8228 64.6341 58.8228 64.195C58.8228 63.6718 58.635 63.1413 58.282 62.7121C58.2681 62.6951 58.2514 62.6799 58.2368 62.6632C59.3501 62.6094 60.1976 62.2327 60.7498 61.6428C61.3467 61.0053 61.583 60.1674 61.583 59.3562C61.583 58.1578 60.912 57.0045 59.8958 56.3685H60.2677C63.5467 56.3685 65.6375 53.8915 65.6375 51.2568C65.6375 49.023 64.1846 47.0218 61.7677 46.4253C65.2378 45.7735 68.339 42.651 68.339 38.7676C68.339 38.236 68.2977 37.7387 68.2227 37.2725ZM45.4869 37.4462C45.5642 37.6014 45.6603 37.7464 45.7732 37.8781C46.1055 38.2657 46.6361 38.5571 47.2817 38.5571C47.6485 38.5571 47.9336 38.4904 48.1553 38.4066C48.377 38.3228 48.5199 38.2433 48.7083 38.1815C48.7973 38.1523 48.8401 38.1473 48.8625 38.1472C48.8638 38.1534 48.8661 38.1577 48.8661 38.1729V38.1803L48.8857 39.4784C48.8857 39.5183 48.7927 39.6558 48.6251 39.7757L48.619 39.7794L48.6129 39.7842L47.8042 40.4033C47.0797 40.9213 47.0055 41.8255 47.3821 42.4037C47.5424 42.6497 47.7777 42.8495 48.0648 42.958C47.2809 43.9394 46.8328 45.1657 46.8328 46.3983C46.8328 49.1169 48.5958 51.1778 50.9339 51.6947C49.1827 52.2931 48.0856 54.0424 48.0856 55.6857C48.0856 57.8403 49.7921 59.8553 52.4424 59.8553H52.6345C52.5915 59.8888 52.5477 59.9209 52.506 59.9569C51.9188 60.4639 51.4783 61.2459 51.4783 62.2142C51.4783 63.2206 51.9039 64.0386 52.5134 64.5706C53.1229 65.1026 53.8993 65.3671 54.6471 65.3671H55.873C55.8477 65.4565 55.8192 65.5396 55.8192 65.5396C55.7896 65.6067 55.7755 65.6795 55.7778 65.7528C55.7802 65.8261 55.7989 65.8979 55.8328 65.963C55.8666 66.0281 55.9146 66.0847 55.9732 66.1287C56.0319 66.1727 56.0996 66.203 56.1715 66.2174C56.5219 66.2867 56.8528 66.2915 57.1527 66.2406C53.7038 68.2181 49.7275 69.3804 45.4869 69.4632V37.4462ZM19.1113 38.299L11.5001 40.7973L11.2273 43.0607L18.4482 46.9636L18.4091 44.349L17.3177 43.8437L17.4817 41.1558L18.7602 40.8365L19.1113 38.299ZM75.0791 38.5339C72.5315 38.5339 71.2545 40.6215 71.2545 42.7096C71.2545 44.7977 72.7652 46.8865 75.0791 46.8865C77.3919 46.8866 78.9428 44.9928 78.9428 42.7096C78.9428 40.4654 77.5876 38.5339 75.0791 38.5339ZM51.8368 39.9984H60.0915C60.2588 39.9984 60.3202 40.0438 60.3803 40.1158C60.4404 40.1879 60.485 40.3118 60.4843 40.4437C60.4836 40.5756 60.4374 40.7013 60.3754 40.7753C60.3135 40.8492 60.2517 40.8927 60.0915 40.8927H52.3445C52.1086 40.8927 51.8782 40.9078 51.6533 40.9356C51.772 40.6966 51.8392 40.4315 51.8392 40.1538V40.1476L51.8368 39.9984ZM75.128 40.7973C76.2509 40.7973 76.9057 41.8459 76.9057 42.7096C76.9057 43.5538 76.2267 44.6219 75.128 44.6219C74.0288 44.6219 73.3895 43.6951 73.3895 42.7096C73.3895 41.7241 74.0051 40.7973 75.128 40.7973ZM15.7688 41.584L15.6758 43.0815L13.6082 42.1235L15.7688 41.584ZM20.7594 48.3889H28.9334V63.456C24.5871 59.6707 21.5892 54.3756 20.7594 48.3889ZM36.5911 48.3889H44.5082V69.4632C41.7313 69.4085 39.0677 68.8902 36.5911 67.9841V48.3889Z" fill="url(#paint3_linear_993_12916)"/>
<path d="M48.5261 30.9993C48.6034 30.9948 48.6934 31.015 48.8161 31.096L50.5094 32.2448C50.7205 32.3987 50.8605 32.6833 50.8605 32.9128L50.841 34.4996V34.5058C50.841 35.1307 51.1571 35.6633 51.5653 36.0351C51.806 36.2543 52.0816 36.4273 52.3764 36.533C52.0816 36.6388 51.806 36.8118 51.5653 37.031C51.1571 37.4029 50.841 37.9354 50.841 38.5603V38.5664L50.8605 40.1594C50.8605 40.389 50.7058 40.6773 50.4947 40.8311L48.8112 41.9726C48.6477 42.0806 48.5476 42.079 48.4527 42.0558C48.358 42.0326 48.2649 41.9653 48.2019 41.8686C48.076 41.6753 48.0212 41.45 48.3855 41.1896L48.3916 41.1847L48.3977 41.1798L49.2077 40.5619C49.4816 40.3659 49.8646 40.0366 49.8646 39.4706V39.4632L49.8451 38.1651C49.8451 37.8882 49.7456 37.5755 49.4658 37.3637C49.186 37.152 48.7863 37.1258 48.4038 37.2512C48.1307 37.3407 47.9522 37.437 47.8092 37.491C47.6662 37.5451 47.5451 37.5779 47.2818 37.5779C46.913 37.5779 46.6866 37.4392 46.516 37.2402C46.3454 37.0412 46.2578 36.764 46.2578 36.582V36.4841C46.2578 36.3021 46.3454 36.0249 46.516 35.8259C46.6866 35.6269 46.9131 35.4882 47.2818 35.4882C47.5451 35.4882 47.6662 35.5211 47.8092 35.5751C47.9522 35.6292 48.1307 35.7254 48.4038 35.8149C48.7863 35.9403 49.186 35.9141 49.4658 35.7023C49.7456 35.4906 49.8451 35.1706 49.8451 34.8936L49.8646 33.6028V33.5955C49.8646 33.0295 49.4693 32.6916 49.1954 32.4956L48.3977 31.8863L48.3916 31.8814L48.3855 31.8765C48.0212 31.6161 48.076 31.3909 48.2019 31.1975C48.2649 31.1008 48.358 31.0335 48.4527 31.0103C48.4768 31.0044 48.5014 31.0007 48.5261 30.9993Z" fill="#9D0D16"/>
<path d="M63.2344 32.087C64.1712 32.6993 65.1428 33.3905 65.9028 34.3345C66.7559 35.3941 67.36 36.7574 67.36 38.7671C67.36 42.5429 63.8339 45.5758 60.4424 45.5758H52.2464C52.0135 45.5758 51.7753 45.6825 51.631 45.8474C51.4867 46.0123 51.4288 46.2114 51.4303 46.4016C51.4319 46.5919 51.4931 46.7864 51.6358 46.9485C51.7786 47.1107 52.0131 47.2189 52.2464 47.2189H60.2479C63.1247 47.2189 64.6585 49.0705 64.6585 51.2563C64.6585 53.3866 63.0653 55.3892 60.2675 55.3892H52.0225C51.8226 55.3892 51.6103 55.4798 51.4792 55.6253C51.3482 55.7709 51.2935 55.9479 51.2945 56.1172C51.2955 56.2864 51.3507 56.4606 51.4805 56.6041C51.6102 56.7476 51.8219 56.839 52.0225 56.839H58.1594C59.4803 56.839 60.6039 58.1263 60.6039 59.3557C60.6039 59.9791 60.4268 60.5547 60.035 60.9731C59.6433 61.3916 59.0175 61.695 57.9649 61.695H54.2847C54.138 61.695 53.9837 61.7271 53.8418 61.8296C53.6999 61.9321 53.5838 62.1279 53.5898 62.3312C53.5958 62.5345 53.7129 62.7089 53.8491 62.8059C53.9854 62.9029 54.1375 62.938 54.2847 62.938H56.7255C57.0699 62.938 57.3245 63.0886 57.5257 63.3332C57.7269 63.5778 57.8438 63.9206 57.8438 64.1945C57.8438 64.5357 57.7178 64.8511 57.4951 65.0485C57.3507 65.1766 57.1511 65.2655 56.8773 65.2871C56.8907 65.1461 56.8931 64.9864 56.799 64.7953C56.6874 64.5685 56.376 64.3879 56.1114 64.3879H54.6469C54.1369 64.3879 53.5739 64.1956 53.158 63.8324C52.742 63.4693 52.4569 62.9547 52.4569 62.2137C52.4569 61.5325 52.7417 61.0467 53.1457 60.6978C53.5498 60.349 54.0864 60.1669 54.4818 60.1669H58.0813C58.2438 60.1669 58.4021 60.1388 58.5535 60.047C58.7049 59.9551 58.8608 59.7616 58.8606 59.5209C58.8604 59.2802 58.7035 59.0865 58.5523 58.9948C58.401 58.903 58.2437 58.8761 58.0813 58.8761H52.4423C50.2726 58.8761 49.0643 57.3407 49.0643 55.6853C49.0643 54.2084 50.3292 52.4577 52.2465 52.4577H60.6383C60.8668 52.4577 61.1018 52.3512 61.2415 52.1886C61.3812 52.026 61.4362 51.8325 61.4348 51.6478C61.4335 51.4631 61.3762 51.2732 61.2379 51.1132C61.0996 50.9531 60.8673 50.8452 60.6384 50.8452H52.0912C49.7019 50.8452 47.8115 49.0734 47.8115 46.3979C47.8115 44.163 49.6402 41.871 52.3445 41.871H60.0915C60.5139 41.871 60.893 41.681 61.1253 41.4036C61.3577 41.1263 61.4612 40.7846 61.463 40.4481C61.4648 40.1117 61.3644 39.767 61.1314 39.4877C60.8985 39.2085 60.5166 39.0191 60.0915 39.0191H51.8257L51.8196 38.5554C51.8196 38.2692 51.9752 37.9813 52.2246 37.754C52.4741 37.5268 52.8096 37.3968 53.015 37.3968H57.647C57.8263 37.3968 58.0037 37.3553 58.178 37.2353C58.3523 37.1152 58.5145 36.8563 58.5145 36.533C58.5145 36.2 58.4154 36.0316 58.178 35.8307C58.0037 35.7106 57.8263 35.6692 57.647 35.6692H53.015C52.8097 35.6692 52.4741 35.5392 52.2246 35.3119C51.9752 35.0847 51.8196 34.7919 51.8196 34.5057L51.8233 34.2218H57.477C57.7899 34.2218 58.0755 34.1215 58.3003 33.949C58.5252 33.7765 58.709 33.5119 58.709 33.1782V32.7585H61.4582C62.1711 32.7587 62.7908 32.4929 63.2344 32.087Z" fill="url(#paint4_linear_993_12916)"/>
</g>
<defs>
<linearGradient id="paint0_linear_993_12916" x1="30.3061" y1="28.49" x2="46.0587" y2="71.2661" gradientUnits="userSpaceOnUse">
<stop stop-color="white"/>
<stop offset="1" stop-color="#53EEEF"/>
</linearGradient>
<linearGradient id="paint1_linear_993_12916" x1="45.7778" y1="21.6123" x2="62.2655" y2="68.8707" gradientUnits="userSpaceOnUse">
<stop stop-color="#2F7FBE"/>
<stop offset="1" stop-color="#225D8B"/>
</linearGradient>
<linearGradient id="paint2_linear_993_12916" x1="24.376" y1="27.796" x2="46.0564" y2="70.1647" gradientUnits="userSpaceOnUse">
<stop stop-color="#D50D16"/>
<stop offset="0.5" stop-color="#880D16"/>
<stop offset="1" stop-color="#520D16"/>
</linearGradient>
<linearGradient id="paint3_linear_993_12916" x1="19.6203" y1="23.3227" x2="67.509" y2="64.2254" gradientUnits="userSpaceOnUse">
<stop stop-color="#F8FFBF"/>
<stop offset="0.509" stop-color="#F8E45E"/>
<stop offset="0.75" stop-color="#F8D35E"/>
<stop offset="1" stop-color="#EE8E0A"/>
</linearGradient>
<linearGradient id="paint4_linear_993_12916" x1="54.1222" y1="34.6584" x2="63.8355" y2="63.5401" gradientUnits="userSpaceOnUse">
<stop stop-color="#157031"/>
<stop offset="1" stop-color="#0F5324"/>
</linearGradient>
<clipPath id="clip0_993_12916">
<rect width="74" height="74" fill="white" transform="translate(8 8)"/>
</clipPath>
</defs>
</svg>
