<svg width="90" height="90" viewBox="0 0 90 90" fill="none" xmlns="http://www.w3.org/2000/svg">
<rect width="90" height="90" rx="10" fill="white"/>
<path d="M5.30795 35.0006C4.76812 35.0006 4.34446 35.2362 4.15313 35.6311C3.92079 36.0261 3.95838 36.5388 4.22829 36.9719L4.80912 37.9974C5.11662 38.5517 5.54028 38.6279 5.84778 38.7076C6.12111 38.7492 6.31244 38.7873 6.50377 39.1823L7.0436 40.1281C7.47068 40.918 7.93192 40.9942 8.28042 41.0739C8.55033 41.1155 8.82025 41.1536 9.16533 41.7841C9.51383 42.4147 10.0161 43.364 11.2871 43.7555C11.4032 43.797 23.5904 47.4244 23.6314 47.4244C24.9058 47.8609 25.2508 48.3321 25.6369 48.9246C25.8693 49.2779 26.5253 50.2272 28.0662 50.6603L39.792 53.8927C40.215 54.0243 40.6655 54.0351 41.0941 53.9238C41.5227 53.8126 41.9127 53.5836 42.2213 53.2622L44.343 51.2111C44.6539 50.934 44.8077 50.8162 44.999 50.8162C45.1937 50.8162 45.3475 50.934 45.655 51.2111L47.7767 53.2622C48.1628 53.5774 48.935 54.208 50.2094 53.8927L61.9318 50.6603C63.5137 50.2272 64.1322 49.2779 64.3611 48.9246C64.7471 48.3321 65.0956 47.8194 66.3666 47.4244C66.3666 47.4244 78.5572 43.797 78.7109 43.7555C79.9443 43.364 80.4876 42.4147 80.8327 41.7841C81.1812 41.1536 81.4101 41.1155 81.68 41.0739C82.0285 40.9942 82.5307 40.918 82.9544 40.1281L83.4942 39.1823C83.7266 38.7873 83.8803 38.7492 84.1502 38.7076C84.4577 38.6279 84.8814 38.5483 85.1923 37.9974L85.7697 36.9719C86.0396 36.5007 86.0806 36.0261 85.8483 35.6311C85.7265 35.4325 85.5554 35.2697 85.3522 35.1591C85.1489 35.0484 84.9206 34.9938 84.69 35.0006H51.6341C51.0943 35.0006 50.247 35.0006 49.3586 35.9083C49.1246 36.1519 48.9298 36.4313 48.7812 36.7363C48.5113 37.249 48.3166 37.6024 47.3906 37.6024H42.5698C41.6814 37.6024 41.4525 37.249 41.1826 36.7363C41.0295 36.4333 40.8338 36.1544 40.6018 35.9083C39.7169 35.0006 38.8661 35.0006 38.3263 35.0006H5.30795ZM5.31136 35.8286H38.3673C38.8661 35.8286 39.447 35.8286 40.0654 36.4972C40.448 36.8922 40.5642 37.3287 40.9127 37.7618H6.77368C5.77261 37.7618 5.65644 37.7618 5.34895 37.2872L4.92528 36.5388C4.80912 36.3413 4.77154 36.1439 4.8467 36.0261C4.92528 35.9083 5.07903 35.8286 5.31136 35.8286ZM51.6717 35.8286H84.7276C84.96 35.8286 85.1137 35.9083 85.1923 36.0261C85.215 36.1124 85.2197 36.2025 85.2061 36.2908C85.1926 36.3791 85.1611 36.4635 85.1137 36.5388L84.69 37.2872C84.3826 37.7618 84.2664 37.7618 83.2619 37.7618H49.1263C49.4748 37.3287 49.591 36.8922 49.9736 36.4972C50.6296 35.8286 51.1729 35.8286 51.6717 35.8286ZM26.7166 38.3923H63.2814V44.3098H26.7166V38.3923ZM63.9374 38.472H82.9544C82.8758 38.5898 82.8382 38.6695 82.7631 38.7492C82.7631 38.7492 82.4556 39.2619 82.3394 39.5356C81.8747 40.2875 81.6424 40.284 80.3338 40.1662L63.9374 39.1823V38.472ZM7.08118 38.5101H26.0982V39.2204L9.70516 40.2078C8.39659 40.284 8.16426 40.3256 7.69959 39.5772L7.27593 38.7873C7.19735 38.6695 7.12218 38.5898 7.08118 38.5101ZM32.2071 39.5876C31.9346 39.5851 31.6698 39.6795 31.4589 39.8544C31.3637 39.9454 31.2875 40.0549 31.2347 40.1762C31.1819 40.2976 31.1535 40.4285 31.1514 40.5611C31.1514 40.9977 31.3803 41.313 31.845 41.5485C32.3472 41.7841 32.5761 41.8638 32.6923 42.0232C32.731 42.0632 32.761 42.111 32.7802 42.1635C32.7995 42.216 32.8076 42.272 32.804 42.3279C32.8005 42.3838 32.7854 42.4383 32.7596 42.4879C32.7339 42.5375 32.6981 42.581 32.6547 42.6156C32.5154 42.6993 32.3552 42.7402 32.1935 42.7334C31.8179 42.7175 31.4608 42.5636 31.189 42.3003L31.2265 42.9309C31.517 43.0799 31.8313 43.1734 32.1525 43.2046C32.4697 43.2112 32.7808 43.1153 33.0408 42.9309C33.4644 42.6156 33.4644 41.9435 33.1945 41.6282C33.0032 41.3511 32.6923 41.2333 32.1149 40.918C31.845 40.7621 31.7288 40.6408 31.7288 40.4434C31.7288 40.0519 32.231 39.9341 32.6923 40.09C32.8451 40.1448 32.9882 40.2244 33.1159 40.3256L33.0784 39.7331C32.9508 39.6902 32.822 39.6509 32.6923 39.6153C32.6547 39.6153 32.4531 39.5772 32.2071 39.5876ZM33.4644 39.6153L33.4269 40.1281C33.8505 40.0865 34.158 40.0484 34.4279 40.0484V43.0452H35.0839V40.0484C35.2411 40.0484 35.5486 40.0484 36.0884 40.1281L36.0508 39.6153H33.4644ZM37.7831 39.6153C36.782 39.6153 36.0884 40.3256 36.0884 41.3892C36.0884 42.4147 36.782 43.1665 37.7831 43.1665C38.7876 43.1665 39.4811 42.4147 39.4811 41.3892C39.4811 40.3256 38.7876 39.6153 37.7831 39.6153ZM54.7193 39.6153L54.6783 40.1281C55.102 40.0865 55.4129 40.0484 55.6828 40.0484V43.0868V43.0452H56.3388V40.0484C56.4926 40.0484 56.8001 40.0484 57.3399 40.1281L57.3023 39.6153H54.7193ZM52.9837 39.6534C52.6352 39.6534 52.4028 39.6534 52.2115 39.6916V43.1249H52.8675V41.6663H53.0964L54.1385 43.1249H54.9107L53.7148 41.5867C53.926 41.5254 54.1142 41.401 54.2547 41.2298C54.3707 41.0548 54.438 40.8514 54.4494 40.6408C54.4494 40.1281 54.0633 39.889 53.7524 39.7712C53.5055 39.6842 53.2449 39.6443 52.9837 39.6534ZM29.2996 39.6534L27.8714 43.0868H28.4488L28.7973 42.2172H30.0717L30.3792 43.0868H31.1138L29.6856 39.6534H29.2996ZM40.021 39.6534V43.0868H40.4856V40.7586L42.4912 43.0868H42.8397V39.6534H42.375V41.9816L40.3695 39.6534H40.021ZM45.0366 39.6534L44.6573 43.0452H45.1903L45.3851 40.9561L46.3486 42.9274H46.6561L47.582 40.9561L47.7733 43.0868H48.4703L48.0842 39.6534H47.7357L46.5809 42.0613L45.3851 39.6534H45.0366ZM44.6573 43.0452H44.6505V43.0868L44.6573 43.0452ZM50.1274 39.6534L48.7026 43.0868H49.28L49.6251 42.2172H50.8995L51.207 43.0868H51.9416L50.5135 39.6534H50.1274ZM57.7635 39.6534V43.0868H58.4195V39.6534H57.7635ZM59.0755 39.6534V43.0868H59.5402V40.7586L61.5458 43.0868H61.8943V39.6534H61.4296V41.9816L59.424 39.6534H59.0755ZM26.0982 39.9687V40.8383L12.4829 42.4147C11.0171 42.574 10.7096 42.6122 10.2484 41.94C10.123 41.7626 10.0067 41.5787 9.89991 41.3892C9.82132 41.2298 9.74616 41.0739 9.62999 40.9561C9.93749 40.9145 10.286 40.9145 10.4022 40.9145L26.0982 39.9687ZM63.8998 39.9687L79.5993 40.9145C79.7154 40.9145 80.0229 40.9561 80.3714 40.9561C80.2928 41.0739 80.1767 41.2333 80.1015 41.3892C79.9948 41.5787 79.8784 41.7626 79.753 41.94C79.2918 42.6122 78.9809 42.574 77.5151 42.4147L63.8998 40.8383V39.9687ZM37.7831 39.9687C38.0154 39.9687 38.1726 40.0068 38.3263 40.1281C38.7876 40.523 38.7876 41.2714 38.7876 41.3476C38.7876 42.2969 38.3229 42.73 37.7831 42.73C37.2842 42.73 36.8196 42.2969 36.782 41.3511C36.782 40.6408 37.0895 39.9687 37.7831 39.9687ZM52.8675 40.0484H53.0964C53.4825 40.0484 53.7934 40.2078 53.7934 40.6408C53.7934 40.918 53.6363 41.2333 53.0964 41.2333C53.0213 41.2333 52.9051 41.1917 52.8299 41.1917H52.8675V40.0484ZM29.3371 40.5196L29.8394 41.8222H28.8759L29.3371 40.5196ZM50.165 40.523L50.6672 41.8222H49.7037L50.165 40.523ZM63.9784 41.6248L77.7474 43.2011L74.9321 44.0326C74.16 44.2266 73.4664 44.1504 72.3867 43.9529L63.9784 42.5325V41.6248ZM26.0982 41.6248V42.5325L17.6898 43.9529C16.5726 44.1504 15.8756 44.2301 15.1444 44.0326L12.3291 43.2046L26.0982 41.6248ZM26.0982 43.2808V44.4276L22.9378 45.2521C21.9709 45.4912 21.3935 45.609 20.9322 45.609C20.2762 45.609 19.8901 45.4531 17.5361 44.7428L26.0982 43.2808ZM63.8998 43.2808L72.4619 44.7428C70.1113 45.4531 69.7252 45.609 69.0692 45.609C68.6079 45.609 68.0271 45.5293 67.0636 45.2556L63.8998 44.4241V43.2808ZM31.616 44.9403H34.24C32.6581 46.1217 30.2665 47.8956 29.2244 48.6474C28.7489 49.0273 28.1686 49.2477 27.5639 49.2779C26.9489 49.2779 26.679 49.0008 26.3305 48.4499C26.1392 48.2143 25.9444 47.9372 25.7155 47.6981C25.8693 47.66 26.023 47.66 26.1768 47.5803C27.1027 47.3066 28.4522 46.5964 31.616 44.9403ZM35.511 44.9403H37.7079C36.2399 46.566 34.7489 48.1702 33.2355 49.7526C32.8494 50.1441 32.3096 50.6984 31.4999 50.6984C31.1924 50.6984 31.23 50.6984 28.4147 49.9085C28.9545 49.7526 29.4157 49.4338 29.6481 49.2779C30.9225 48.4083 34.1238 46.0039 35.511 44.9403ZM38.7124 44.9403H40.718C39.6007 46.8701 38.094 49.4338 37.4414 50.5009C37.1305 51.0137 36.5907 51.8036 35.5896 51.8036C35.2035 51.8417 35.1625 51.8001 32.7333 51.1315C33.2355 50.8543 33.5806 50.5009 33.7378 50.3034C35.421 48.5398 37.0794 46.7519 38.7124 44.9403ZM41.5687 44.9403H43.3795C42.6997 47.1573 41.9924 49.3656 41.2578 51.5645C41.0289 52.1951 40.718 52.985 39.8296 52.985C39.5221 53.0231 39.6007 53.0266 36.823 52.2366C37.5166 51.8036 37.9402 51.1315 38.0564 50.8959C38.8286 49.6729 40.6018 46.6345 41.5687 44.9403ZM52.3277 44.9403H54.528C56.4562 46.4222 58.4108 47.8683 60.3909 49.2779C60.6233 49.4338 61.0845 49.711 61.6243 49.9085C58.7749 50.6984 58.8466 50.6984 58.5391 50.6984C57.767 50.6984 57.1896 50.1441 56.8035 49.7526C55.2889 48.1703 53.7968 46.5661 52.3277 44.9403ZM60.0424 44.9403H62.8988L66.9099 45.9658C67.1798 46.0421 67.4497 46.0836 67.6786 46.1598C65.4031 46.8701 65.0581 46.9498 64.672 46.9498C63.9408 46.9498 62.9739 46.437 60.0424 44.9403ZM27.1402 44.9784H29.9966C27.0651 46.4751 26.0982 46.9913 25.367 46.9913C24.9434 46.9498 24.5949 46.8701 22.3604 46.2014C22.5893 46.1633 22.8592 46.0836 23.1291 46.0039L27.1402 44.9784ZM44.1893 44.9784H45.8497C46.2734 46.3573 47.7767 51.1696 48.0466 51.8798C48.1441 52.2219 48.3015 52.5435 48.5113 52.8291C48.4703 52.7875 48.3951 52.7494 48.3541 52.7078L46.2358 50.6568C45.8873 50.3415 45.5388 50.0263 45.04 50.0263C44.5378 50.0263 44.1517 50.3415 43.8408 50.6568L41.7225 52.7078C41.6439 52.7494 41.5687 52.7875 41.5277 52.8291C41.6814 52.6316 41.7976 52.3544 41.9924 51.8798C42.2623 51.1696 43.7656 46.3192 44.1893 44.9784ZM46.6185 44.9784H48.4327C49.5807 46.9775 50.7492 48.9627 51.9416 50.934C52.0988 51.173 52.4814 51.8417 53.1784 52.2748C50.4007 53.0231 50.4759 53.0231 50.1684 53.0231C49.2835 53.0231 48.9725 52.2366 48.7402 51.6061C48.4703 50.8959 47.0456 46.2395 46.6185 44.9784ZM49.321 44.9784H51.3266C52.5976 46.3608 55.2592 49.2364 56.3012 50.3415C56.455 50.5009 56.8035 50.8543 57.3057 51.1696C54.8355 51.8001 54.8355 51.8417 54.4494 51.8417C53.4483 51.8417 52.9085 51.0518 52.5976 50.539C51.4876 48.6963 50.3954 46.8427 49.321 44.9784ZM55.799 44.9784H58.423C61.6243 46.5964 62.9739 47.3447 63.8622 47.6219L64.3235 47.7397C64.0536 47.9372 63.8998 48.2109 63.7085 48.488C63.36 49.0423 63.0901 49.316 62.4751 49.316C61.8943 49.316 61.3168 49.0423 60.8146 48.6855C59.1282 47.4702 57.4562 46.2344 55.799 44.9784Z" fill="#00665E"/>
</svg>
