<svg width="90" height="90" viewBox="0 0 90 90" fill="none" xmlns="http://www.w3.org/2000/svg">
<rect width="90" height="90" rx="10" fill="white"/>
<path fill-rule="evenodd" clip-rule="evenodd" d="M71 59.7353V70.7133H66.8439V59.7353H71ZM57.6454 62.1471C59.8987 62.1471 61.7459 63.4883 61.7459 65.1338C61.7459 66.7861 59.8987 68.1272 57.6454 68.1272C55.3921 68.1272 53.5454 66.7861 53.5454 65.1338C53.5454 63.4883 55.3921 62.1471 57.6454 62.1471ZM58.7413 59.7353L55.3364 56H60.4157L65.0947 62.1471C65.5505 62.7756 65.8952 63.8473 65.9444 64.9247C66.1113 68.2464 62.2077 70.9823 57.6454 70.9823C53.0831 70.9823 49.3464 68.2589 49.3464 64.9247C49.3459 61.5847 52.6951 58.9747 58.7413 59.7353ZM39.2126 65.8829C39.2126 67.3729 40.6344 68.1272 41.8041 68.1272C42.9739 68.1272 44.532 67.2891 44.532 65.8829V59.7353H48.4657V65.8829C48.4657 70.1442 44.5872 71 41.8041 71C39.0274 71 35.0687 70.1442 35.0687 65.8829V59.7353H39.2126V65.8829ZM26.7382 56L36.2872 70.7128H31.5216L29.8408 68.1272H20.6064L18.8636 70.7128H14L22.8903 57.4125L21.5428 56H26.7382ZM28.1423 65.4813H22.361L25.2918 61.1056L28.1423 65.4813Z" fill="#F50537"/>
<path fill-rule="evenodd" clip-rule="evenodd" d="M27.0914 41.9015C24.8463 39.6899 23.5699 36.8594 23.5699 33.5058C23.5699 30.3106 24.7847 27.4675 26.8384 25.2812C28.8556 27.4496 30.1014 30.3412 30.1014 33.5058C30.1014 35.7048 29.6698 37.5579 28.6208 39.3372C30.1818 34.4535 29.731 31.0149 27.8193 28.2875C28.1646 28.7674 29.1022 31.4584 28.9295 33.5054C28.9295 35.7714 28.2262 37.8795 27.0292 39.6287L27.0914 41.9015ZM87 33.5063C87 41.4949 80.3817 48 72.277 48C68.8847 48 65.7514 46.8638 63.1917 44.933C60.6266 46.8405 57.474 48 54.0512 48C50.6708 48 47.5499 46.8638 44.9783 44.9874C42.4063 46.8828 39.3045 48 35.9488 48C32.5565 48 29.4237 46.8638 26.8635 44.933C24.3038 46.8405 21.1458 48 17.729 48C9.61777 48 3 41.4944 3 33.5063C3 25.5182 9.61777 19 17.729 19C21.1458 19 24.3038 20.1609 26.832 22.1044C29.3675 20.1609 32.5314 19 35.9488 19C39.3657 19 42.4807 20.1541 45.0153 22.0495C47.5978 20.0693 50.7783 18.9959 54.0512 19C57.474 19 60.6266 20.1609 63.1552 22.1044C65.6957 20.1609 68.8601 19 72.277 19C80.69 19 87 25.5003 87 33.5063ZM72.277 20.5189C69.7848 20.5189 67.4909 21.2174 65.5107 22.4386C68.7486 19.8928 73.9479 19.3405 79.9191 21.3938C77.7668 20.1061 74.9911 19.274 72.277 19.274C68.829 19.274 65.634 20.5068 63.1424 22.5115L63.1794 24.1455C60.8046 21.9043 57.585 20.5194 54.0507 20.5194C51.6601 20.5154 49.3177 21.1812 47.2968 22.4391C50.5234 19.8933 55.7291 19.341 61.6929 21.3943C59.5401 20.1065 56.7707 19.2745 54.0507 19.2745C50.6146 19.2745 47.5069 20.4164 45.0148 22.4269V24.146C42.6469 21.9048 39.4826 20.5199 35.9483 20.5199C33.5558 20.5157 31.2114 21.1815 29.1885 22.4396C32.4199 19.8938 37.6197 19.3415 43.5899 21.3947C41.4371 20.107 38.6683 19.2749 35.9483 19.2749C32.5062 19.2749 29.3118 20.5078 26.8137 22.5124L26.8512 24.1465C24.4828 21.9053 21.2627 20.5204 17.729 20.5204C15.3347 20.517 12.9886 21.1827 10.9632 22.4401C14.2011 19.8943 19.4004 19.342 25.3706 21.3952C23.2183 20.1075 20.4425 19.2754 17.729 19.2754C9.77214 19.2754 3.27767 25.678 3.27767 33.5078C3.27767 36.2294 4.23941 39.2056 5.87388 41.6052C2.57437 35.1967 4.23941 30.3247 6.34341 27.2936C5.53505 29.0734 4.48059 31.4545 4.53632 33.5078C4.74001 40.573 10.4695 46.4956 17.7294 46.4956C21.4112 46.4956 24.5198 45.2079 26.9627 42.7777C29.3803 45.2623 32.2118 46.4956 35.9493 46.4956C37.646 46.496 39.3258 46.1637 40.8908 45.5182C42.4558 44.8726 43.8746 43.9267 45.0646 42.7355C47.4157 45.0559 50.4804 46.4956 54.0517 46.4956C57.7404 46.4956 60.8431 45.2079 63.2849 42.7777C65.709 45.2623 68.5341 46.4956 72.2775 46.4956C79.5374 46.4956 85.4583 40.658 85.4583 33.5078C85.4578 26.4052 79.4876 20.5189 72.277 20.5189ZM43.2758 41.8471C41.2436 43.587 38.6415 44.5449 35.9488 44.5444C33.3028 44.5012 32.1181 44.046 30.9896 43.4996C34.2216 45.9778 41.4011 45.018 43.2324 43.4626C41.2344 44.8781 38.7235 45.6927 35.9483 45.6927C32.5432 45.6927 29.6753 44.4657 27.4184 42.2726C29.7374 39.9459 30.9093 37.0241 30.9093 33.5068C30.9093 30.0867 29.5465 26.959 27.3321 24.6322C29.0282 22.9554 32.3834 21.3156 35.9488 21.3156C39.1931 21.3156 42.246 22.7675 44.4669 24.7959H42.8319C40.7412 27.2621 39.6118 30.0629 39.6118 33.5068C39.6118 36.2284 40.574 39.2046 42.2026 41.6042C38.9031 35.1957 40.574 30.3237 42.6716 27.2927C41.8632 29.0724 40.8211 31.4599 40.8704 33.5068C40.9449 36.6841 42.4063 39.6301 44.386 41.9141L43.2758 41.8471ZM45.0089 41.6406C42.9241 39.4538 41.6847 36.7016 41.6847 33.5063C41.6847 30.3111 42.9488 27.3893 45.0148 25.2083C47.1183 27.383 48.3212 30.2683 48.3212 33.5063C48.3212 35.7053 47.8892 37.5584 46.8406 39.3377C48.4011 34.454 47.9503 31.0154 46.0387 28.288C46.3844 28.7679 47.322 31.4589 47.1553 33.5058C47.1553 35.8389 46.4091 38.0194 45.1445 39.8055L45.0089 41.6406ZM45.6505 42.2837C47.8344 39.9876 49.135 36.9201 49.135 33.5058C49.135 30.0857 47.865 27.1338 45.6505 24.795C47.8709 22.645 50.7083 21.3146 54.0512 21.3146C57.2772 21.3146 60.2991 22.511 62.5012 24.522L61.0828 24.5283C58.9743 27.0592 57.8231 30.2325 57.8257 33.5063C57.8257 36.228 58.7879 39.2041 60.4224 41.6037C57.1229 35.1953 58.7884 30.3232 60.8914 27.2922C60.0831 29.0719 59.034 31.4472 59.0838 33.5063C59.1578 36.908 60.3178 39.7088 62.5501 42.0593L61.2737 41.9262C59.3245 43.5486 56.7959 44.5449 54.0507 44.5449C51.4047 44.5017 50.3251 43.9858 49.098 43.5001C52.3235 45.9783 59.5031 45.0185 61.3348 43.4631C59.3364 44.8786 56.826 45.6932 54.0507 45.6932C50.4923 45.6922 47.939 44.301 45.6505 42.2837ZM47.7723 42.1749C49.536 43.4262 51.7317 44.1553 54.0507 44.1553C56.3762 44.1553 58.6518 43.3835 60.4342 42.1507C58.6765 39.7511 57.5475 36.6836 57.5475 33.5063C57.5475 30.3174 58.6025 27.3592 60.3967 24.929C58.5666 23.5759 56.3387 22.8467 54.0502 22.852C51.7312 22.852 49.5843 23.5505 47.8206 24.7954C49.5162 27.1528 50.6639 30.366 50.6639 33.5063C50.6649 36.6836 49.5301 39.7754 47.7723 42.1749ZM45.0528 39.241C46.1716 37.5316 46.7649 35.5401 46.7612 33.5063C46.7612 31.3559 46.1561 29.3454 45.0153 27.7235C43.9174 29.4304 43.2393 31.3987 43.2393 33.5063C43.2393 35.5717 44.0037 37.5944 45.0528 39.241ZM42.2149 42.1322C40.4142 39.6661 39.3282 36.7016 39.3282 33.5063C39.3274 30.3847 40.3554 27.3471 42.2578 24.8503C40.4936 23.6413 38.2427 22.852 35.9547 22.852C33.2095 22.6999 30.2124 24.249 29.7744 24.9776C31.4029 27.2922 32.451 30.4384 32.451 33.5063C32.451 36.6773 31.4029 39.618 29.6013 42.053C31.3595 43.3898 33.5676 44.1553 35.9483 44.1553C38.2737 44.1553 40.4453 43.4262 42.2149 42.1322ZM26.2219 42.0593L24.945 41.9262C22.9958 43.5486 20.4736 44.5449 17.729 44.5449C15.0829 44.5017 14.2987 43.8823 12.7634 43.5001C15.9963 45.9783 23.1749 45.0185 25.013 43.4631C23.0087 44.8786 20.4983 45.6932 17.729 45.6932C10.9198 45.6932 5.3501 40.2198 5.3501 33.5073C5.3501 26.7948 10.9134 21.316 17.729 21.316C20.9545 21.316 23.9768 22.5124 26.179 24.5234L24.7541 24.5297C22.7251 26.9774 21.4975 30.1119 21.4975 33.5078C21.4975 36.2294 22.4657 39.2056 24.0942 41.6052C20.7947 35.1967 22.4661 30.3247 24.5632 27.2936C23.7554 29.0734 22.7127 31.4487 22.7626 33.5078C22.8356 36.908 23.9892 39.7083 26.2219 42.0593ZM26.8818 39.1497C27.9667 37.4613 28.542 35.504 28.5404 33.5058C28.5404 31.4288 27.9303 29.479 26.863 27.8139C25.8086 29.4421 25.1304 31.4288 25.1304 33.5058C25.1304 35.5411 25.8638 37.5458 26.8818 39.1497ZM24.1124 42.1507C22.3547 39.7511 21.2193 36.6836 21.2193 33.5063C21.2193 30.3174 22.2748 27.3592 24.069 24.929C22.2414 23.5759 20.0155 22.8467 17.729 22.852C11.7706 22.852 6.91059 27.6385 6.91059 33.5063C6.91059 39.3751 11.7706 44.1553 17.729 44.1553C20.0485 44.1553 22.3305 43.3835 24.1124 42.1507ZM63.4201 41.9015C61.175 39.6899 59.8981 36.8594 59.8981 33.5058C59.8981 30.3106 61.1134 27.4675 63.1606 25.2812C65.1838 27.4496 66.4232 30.3412 66.4232 33.5058C66.4232 35.7048 65.9921 37.5579 64.9431 39.3372C66.51 34.4535 66.0533 31.0149 64.1475 28.2875C64.4869 28.7674 65.4308 31.4584 65.2577 33.5054C65.2577 35.7714 64.5549 37.8795 63.3579 39.6287L63.4201 41.9015ZM63.7466 42.2721C66.0597 39.9454 67.2379 37.0236 67.2379 33.5063C67.2379 30.0862 65.8742 26.9585 63.6538 24.6317C65.3564 22.955 68.7057 21.3151 72.2765 21.3151C79.0861 21.3151 84.6425 26.7938 84.6425 33.5063C84.6425 35.7053 84.2174 37.5584 83.1688 39.3377C84.7293 34.454 84.2726 31.0154 82.3674 28.288C82.7067 28.7679 83.6502 31.4589 83.4771 33.5058C83.4771 39.5864 78.4445 44.5439 72.2765 44.5439C69.6305 44.5007 68.4463 44.0455 67.3114 43.4991C70.5439 45.9774 77.7224 45.0175 79.5546 43.4622C77.5562 44.8776 75.0458 45.6922 72.2765 45.6922C68.8724 45.6922 66.0039 44.4652 63.7466 42.2721ZM65.924 42.053C67.6877 43.3898 69.8958 44.1553 72.277 44.1553C78.2284 44.1553 83.0894 39.3746 83.0894 33.5063C83.0894 27.6385 78.2289 22.852 72.277 22.852C69.5323 22.6999 66.5346 24.249 66.0972 24.9776C67.7252 27.2922 68.7743 30.4384 68.7743 33.5063C68.7738 36.6768 67.7252 39.6175 65.924 42.053ZM63.2105 39.1497C64.2585 37.5035 64.8691 35.5717 64.8691 33.5058C64.8691 31.4288 64.2526 29.479 63.1917 27.8139C62.1308 29.4421 61.4581 31.4288 61.4581 33.5058C61.4581 35.5411 62.1866 37.5458 63.2105 39.1497Z" fill="#D0D1D3"/>
</svg>
