<svg width="90" height="90" viewBox="0 0 90 90" fill="none" xmlns="http://www.w3.org/2000/svg">
<rect width="90" height="90" rx="10" fill="white"/>
<path d="M67.89 33C64.9967 33 62.3425 34.015 60.26 35.7067C58.1775 34.015 55.5233 33 52.63 33C49.7367 33 47.0825 34.015 45 35.7067C42.9175 34.015 40.2633 33 37.37 33C34.4767 33 31.8225 34.015 29.74 35.7067C27.6575 34.015 25.0033 33 22.11 33C15.4221 33 10 38.4221 10 45.11C10 51.7979 15.4221 57.22 22.11 57.22C25.0033 57.22 27.6575 56.205 29.74 54.5133C31.8225 56.205 34.4767 57.22 37.37 57.22C40.2633 57.22 42.9175 56.205 45 54.5133C47.0825 56.205 49.7367 57.22 52.63 57.22C55.5233 57.22 58.1775 56.205 60.26 54.5133C62.3425 56.205 64.9967 57.22 67.89 57.22C74.5779 57.22 80 51.7979 80 45.11C80 38.4221 74.5779 33 67.89 33ZM60.26 50.5525C59.1633 49.0183 58.5158 47.14 58.5158 45.11C58.5158 43.08 59.1633 41.2017 60.26 39.6675C61.3567 41.2017 62.0042 43.08 62.0042 45.11C62.0042 47.14 61.3567 49.0183 60.26 50.5525ZM45 50.5525C43.9033 49.0183 43.2558 47.14 43.2558 45.11C43.2558 43.08 43.9033 41.2017 45 39.6675C46.0967 41.2017 46.7442 43.08 46.7442 45.11C46.7442 47.14 46.0967 49.0183 45 50.5525ZM29.74 50.5525C28.6433 49.0183 27.9958 47.14 27.9958 45.11C27.9958 43.08 28.6433 41.2017 29.74 39.6675C30.8367 41.2017 31.4842 43.08 31.4842 45.11C31.4842 47.14 30.8367 49.0183 29.74 50.5525ZM12.7358 45.11C12.7358 39.9329 16.9329 35.7358 22.11 35.7358C24.2567 35.7358 26.2342 36.4592 27.815 37.6754C26.2167 39.7258 25.26 42.3071 25.26 45.11C25.26 47.9129 26.2167 50.4942 27.815 52.5446C26.2342 53.7579 24.2567 54.4842 22.11 54.4842C16.9329 54.4842 12.7358 50.2871 12.7358 45.11ZM31.665 52.5446C33.2633 50.4942 34.22 47.9129 34.22 45.11C34.22 42.3071 33.2633 39.7258 31.665 37.6754C33.2458 36.4621 35.2233 35.7358 37.37 35.7358C39.5167 35.7358 41.4942 36.4592 43.075 37.6754C41.4738 39.7288 40.52 42.3071 40.52 45.11C40.52 47.9129 41.4767 50.4942 43.075 52.5446C41.4942 53.7579 39.5167 54.4842 37.37 54.4842C35.2233 54.4842 33.2458 53.7608 31.665 52.5446ZM46.925 52.5446C48.5262 50.4912 49.48 47.9129 49.48 45.11C49.48 42.3071 48.5233 39.7258 46.925 37.6725C48.5058 36.4592 50.4833 35.7329 52.63 35.7329C54.7767 35.7329 56.7542 36.4562 58.335 37.6725C56.7338 39.7258 55.78 42.3042 55.78 45.1071C55.78 47.91 56.7367 50.4913 58.335 52.5417C56.7542 53.755 54.7767 54.4813 52.63 54.4813C50.4833 54.4842 48.5058 53.7608 46.925 52.5446ZM67.89 54.4842C65.7433 54.4842 63.7658 53.7608 62.185 52.5446C63.7833 50.4912 64.74 47.9129 64.74 45.11C64.74 42.3071 63.7833 39.7258 62.185 37.6754C63.7658 36.4621 65.7433 35.7358 67.89 35.7358C73.0671 35.7358 77.2642 39.9329 77.2642 45.11C77.2642 50.2871 73.0671 54.4842 67.89 54.4842Z" fill="#BB0A30"/>
</svg>
