<svg width="90" height="90" viewBox="0 0 90 90" fill="none" xmlns="http://www.w3.org/2000/svg">
<rect width="90" height="90" rx="10" fill="white"/>
<path d="M43.3338 31C41.5053 31.1521 39.7076 31.5645 37.9946 32.2249C37.5252 32.405 37.0307 32.7113 36.5111 32.5095C34.1676 31.9583 31.7417 32.1637 29.3731 32.4195C26.295 32.7437 23.2098 32.4086 20.1317 32.2573C17.3247 32.1634 14.5148 32.2235 11.7144 32.4375C9.1595 32.596 6.59383 32.4014 4.05325 32.1276C3.73792 32.1204 3.41542 32.0556 3.10367 32.1204C2.61992 32.4375 2.31533 32.9563 2 33.4282V33.6732C2.66292 34.2424 3.44767 34.6171 4.23958 34.9629C4.01742 35.5069 3.87767 36.0798 3.77375 36.6562C4.71975 37.1029 5.70875 37.474 6.62608 37.982C6.52217 38.3242 6.36808 38.6521 6.32867 39.0087C6.30717 39.2213 6.41467 39.4447 6.62608 39.5203C7.37858 39.9166 8.23142 40.0319 9.009 40.3489C9.08425 40.385 9.18817 40.421 9.18817 40.5219C9.24908 40.983 9.25983 41.4514 9.35658 41.9089C9.41586 41.9639 9.48524 42.0067 9.56083 42.035C10.5892 42.3773 11.6678 42.5069 12.7178 42.7411C12.8396 43.1374 12.7966 43.6382 13.0976 43.9516C14.4413 44.6577 16.0359 44.3119 17.4442 44.773C17.7953 45.1189 17.7129 45.8178 18.2432 46.0124C19.3039 46.3366 20.4434 46.0484 21.5328 46.1925C21.78 46.4771 21.8087 46.8878 22.0487 47.176C22.2081 47.3422 22.425 47.4403 22.6543 47.4498C23.6828 47.4786 24.6682 47.1364 25.6858 47.0175C25.8972 47.3742 25.9976 47.9074 26.4491 48.0154C27.2697 48.1776 28.0688 47.8641 28.832 47.5975C29.1187 48.5342 29.4268 49.4745 29.9177 50.3284C31.6127 53.4195 34.5331 55.7288 37.7939 56.9609C38.2526 57.0906 38.4103 57.5914 38.6468 57.9552C39.1018 57.7823 39.5498 57.5878 40.0228 57.4725L40.7394 58.5425C41.1658 58.3263 41.5887 58.1029 42.0151 57.8796C42.3018 58.2182 42.5884 58.5533 42.8823 58.8883L43.9931 58.0957C44.3156 58.3767 44.613 58.6866 44.9032 59H45.0287C45.3727 58.6938 45.6987 58.3623 46.0392 58.0525C46.419 58.3299 46.7917 58.6145 47.1715 58.8991C47.4618 58.5569 47.7556 58.2146 48.053 57.876C48.483 58.0921 48.9058 58.3191 49.3322 58.5389C49.558 58.1858 49.7766 57.8327 49.9952 57.4761C50.4968 57.5878 50.9627 57.7967 51.4428 57.966C51.5611 57.721 51.6757 57.4689 51.8083 57.2311C51.9982 56.7195 52.5967 56.6402 53.0123 56.3953C56.4953 54.7849 59.3907 51.7622 60.5337 48.0443C61.1142 48.2604 61.77 48.527 62.3863 48.2748C62.7088 48.1091 62.8343 47.756 62.9883 47.4534C63.8483 47.6444 64.7083 48.0082 65.6042 47.8209C66.07 47.6804 66.2993 47.2409 66.5107 46.8446C67.3349 46.9527 68.1448 47.1868 68.9833 47.1148C69.3559 47.0679 69.8683 47.1148 70.1227 46.7689C70.3342 46.4231 70.3628 45.9943 70.5671 45.6449C71.6958 45.4936 72.8891 45.7962 73.9856 45.3855C74.3296 44.9964 74.3332 44.4128 74.6449 44.0057C75.53 43.9408 76.4187 44.0057 77.3037 43.9408C77.457 43.9297 77.6058 43.8842 77.7392 43.8075C77.8725 43.7308 77.987 43.6249 78.0742 43.4977C78.2748 43.1122 78.3035 42.6691 78.4325 42.2584C78.4576 42.1719 78.5042 42.0782 78.5902 42.0386C79.4538 41.6783 80.5037 41.9593 81.2956 41.4009C81.6826 40.9686 81.3708 40.2841 81.6109 39.8049C82.3527 39.3798 83.3202 39.4879 84.0082 38.9367C84.4704 38.5404 84.1228 37.9207 84.0583 37.4236C84.8646 37.1462 85.7497 36.9949 86.4126 36.4184C86.2262 35.914 86.0077 35.4277 85.8034 34.9341C86.5645 34.5875 87.2988 34.1841 88 33.7272V33.4138C87.7538 32.9481 87.4232 32.5326 87.0253 32.1889C86.7709 31.9979 86.4162 32.1529 86.1295 32.124C83.6355 32.3474 81.1272 32.5924 78.6224 32.4555C77.1282 32.3762 75.6375 32.2321 74.1432 32.2321C72.2728 32.2321 70.4023 32.1781 68.5389 32.3294C65.7798 32.4951 63.0062 32.7005 60.2507 32.3906C57.8964 32.1132 55.4669 31.9763 53.1521 32.5816C52.783 32.7365 52.396 32.614 52.0592 32.4483C50.2102 31.6052 48.1999 31.1945 46.1897 31H43.3338ZM45.2007 31.5584C46.3724 31.6089 47.5442 31.7349 48.6908 31.9979C49.8017 32.2573 50.9197 32.5347 51.9517 33.0319C51.5826 33.2661 51.1383 33.6227 50.6832 33.4282C48.7084 32.7275 46.6283 32.3741 44.5342 32.3834C43.366 32.4555 42.1978 32.5492 41.0583 32.8338C40.3273 32.9779 39.625 33.2517 38.8868 33.3706C38.5428 33.2769 38.2275 33.1076 37.9122 32.9418C40.2363 32.0336 42.7072 31.5646 45.2007 31.5584ZM86.2908 32.56C86.8999 32.5239 87.3944 33.0139 87.7062 33.4967C86.4947 34.1182 85.1495 34.43 83.7896 34.4045C77.8771 34.5018 71.9717 34.7468 66.0628 34.8981C66.0628 34.9954 66.07 35.0926 66.0772 35.1899C66.0144 35.0067 65.9571 34.8217 65.9052 34.6351C67.1987 34.455 68.4852 34.2028 69.7931 34.1235C72.1868 33.9434 74.5947 33.8785 76.9956 33.8533C77.3087 33.8672 77.6176 33.776 77.8735 33.5939C75.9636 33.3886 74.0393 33.5003 72.1258 33.5471C70.7964 33.6444 69.4598 33.666 68.134 33.8353C66.3603 34.0515 64.5901 34.3901 62.7984 34.4117C61.6804 34.4297 60.5588 34.527 59.4408 34.4478C58.0433 34.4225 56.6243 34.2964 55.2483 34.6099C54.8613 34.736 54.3919 34.8729 54.2378 35.3016C53.9046 35.9789 54.2737 36.7355 54.5783 37.3515C54.9473 38.1333 55.578 38.8827 55.4633 39.8085C55.4096 40.1364 55.1337 40.3525 54.8828 40.5399C54.6266 40.2547 54.3896 39.9526 54.1733 39.6356C54.3167 39.3474 54.5532 39.0772 54.4887 38.7277C54.3704 38.0072 53.8508 37.438 53.3635 36.9336C52.6612 36.2491 51.88 35.6114 51.4034 34.736C51.2637 34.4838 51.1669 34.1235 51.4357 33.9182C52.224 33.3561 53.1951 33.1652 54.1303 33.0103C56.6924 32.65 59.276 32.9563 61.8453 33.0643C63.1102 33.1904 64.3858 33.1724 65.6543 33.0643C68.6572 32.8698 71.6743 32.5672 74.6843 32.7689C76.0388 32.8446 77.3969 32.9058 78.7514 32.9382C81.2311 33.0391 83.6964 32.7149 86.1689 32.5744C86.2092 32.5673 86.2499 32.5625 86.2908 32.56ZM3.97083 32.5708C4.67317 32.5636 5.3755 32.668 6.07425 32.7149C8.01642 32.8878 9.96575 32.9995 11.9151 32.9166C14.3302 32.8878 16.7347 32.5996 19.1498 32.7293C21.6116 32.8085 24.059 33.0823 26.5243 33.158C28.4056 33.0932 30.2833 32.9418 32.1645 32.8554C34.0744 32.7941 36.0596 32.8157 37.862 33.5291C38.2096 33.6732 38.6396 33.8641 38.722 34.2748C38.6503 34.8441 38.2203 35.2836 37.8692 35.7123C37.2421 36.4905 36.3319 37.0093 35.8267 37.8919C35.4325 38.3963 35.3752 39.1529 35.8088 39.65C35.574 39.9651 35.3114 40.2581 35.024 40.5255C34.7266 40.2517 34.4507 39.913 34.4865 39.4735C34.6227 38.227 35.7299 37.3371 35.8589 36.087C35.97 35.6511 35.7478 35.2259 35.4719 34.9089C34.9506 34.6426 34.379 34.4903 33.7949 34.4622C31.7811 34.2892 29.7601 34.5594 27.7427 34.437C25.7467 34.4514 23.7759 34.1019 21.8051 33.8353C19.2848 33.608 16.7566 33.4806 14.2263 33.4534C13.5276 33.4426 12.8288 33.5075 12.1301 33.5687C12.3558 33.756 12.6318 33.8821 12.9363 33.8497C15.5629 33.8857 18.1895 33.929 20.8089 34.1559C21.909 34.2604 22.9947 34.4586 24.0912 34.6279L24.0088 34.9305C22.0882 34.8116 20.1603 34.8296 18.2361 34.7504C14.7782 34.6243 11.3203 34.5162 7.86233 34.4586C6.38958 34.3613 4.84875 34.5198 3.4405 33.9758C3.04633 33.8425 2.67725 33.6588 2.30458 33.4858C2.57692 33.1508 2.85283 32.7689 3.27208 32.6212C3.505 32.5852 3.73792 32.5708 3.97083 32.5708ZM45.0179 32.9815C46.9753 32.9703 48.9171 33.3322 50.7405 34.0479C50.7548 34.4225 50.6366 34.8332 50.8265 35.1755C50.9862 35.4713 51.1785 35.748 51.3998 36.0005C52.0448 36.7643 52.869 37.3803 53.5068 38.1513C53.7642 38.4321 53.9563 38.7668 54.0694 39.1312C52.7495 37.9321 51.2065 37.0077 49.5293 36.4112C47.6801 35.7616 45.7144 35.5155 43.7631 35.6894C41.8119 35.8634 39.9199 36.4533 38.2132 37.42C37.5897 37.773 37.0235 38.2126 36.4717 38.6737L35.927 39.1348C35.9703 38.948 36.0428 38.7692 36.142 38.6052C36.9411 37.4704 38.1343 36.685 38.9406 35.5574C39.3348 35.0782 39.2989 34.4406 39.238 33.8641C41.111 33.2857 43.0586 32.9882 45.0179 32.9815ZM65.6651 34.6207C65.7224 34.7792 65.7726 34.9377 65.8228 35.0962C64.7012 35.7447 63.3574 35.5826 62.1247 35.4205C61.8452 35.3953 61.6804 35.1539 61.5693 34.9197C62.931 34.772 64.3034 34.7828 65.6651 34.6207ZM24.2776 34.6783C25.6607 34.6999 27.0403 34.7684 28.4128 34.9089C28.3053 35.0926 28.2193 35.3556 27.9756 35.3845C27.2482 35.5106 26.5064 35.5322 25.7754 35.561C25.2092 35.597 24.6897 35.3376 24.1987 35.0962L24.2776 34.6783ZM28.6027 34.8765C29.1545 34.8873 29.7099 34.8945 30.2617 34.9269C31.7309 34.9882 33.2395 34.8693 34.6693 35.3052C35.024 35.4277 35.4146 35.5934 35.5973 35.9465C35.7371 36.5661 35.3823 37.1173 35.0813 37.6181C34.7839 38.1621 34.3754 38.6737 34.2393 39.2898C34.0672 39.8662 34.4184 40.3489 34.6836 40.8137C34.2822 40.8281 33.7877 40.9974 33.4724 40.6696C33.3255 40.3742 33.4975 40.0247 33.5584 39.7221L32.9851 40.2373L32.2863 40.194C32.2326 39.4627 32.7916 38.9331 33.0783 38.317C32.5838 38.7602 32.0821 39.387 31.3475 39.3294C31.0572 39.3402 30.8351 38.9547 31.0142 38.7205C31.412 38.2126 31.928 37.8055 32.3007 37.2723C31.8563 37.6181 31.4048 37.9748 30.8781 38.1765C30.4851 38.2755 30.0697 38.2268 29.7099 38.0396C29.7744 37.3047 30.5484 37.0453 30.9641 36.5373C30.509 36.7283 30.1041 37.0921 29.5773 37.0597C29.3695 37.0669 29.1652 37.0021 28.9682 36.9552C28.9323 36.332 29.5809 36.1122 29.9464 35.7411C29.6239 35.8132 29.3122 35.9645 28.9789 35.9573C28.7567 35.878 28.5847 35.6979 28.3912 35.5682C28.445 35.3304 28.5167 35.0998 28.6062 34.8765H28.6027ZM61.4117 34.8765C61.4762 35.1575 61.7234 35.5178 61.3938 35.7303C61.0354 36.1806 60.4334 35.8096 59.9963 35.7231C60.3976 36.069 61.0175 36.3248 61.0139 36.9588C60.6699 37.0201 60.2972 37.139 59.9568 36.9949C59.6415 36.8652 59.3369 36.703 59.0287 36.5553C59.1255 36.6526 59.2258 36.7463 59.3297 36.8363L59.6415 37.1101C59.8457 37.2939 60.0464 37.4848 60.2148 37.701C60.2722 37.946 60.0966 38.2054 59.835 38.2017C59.0001 38.4143 58.3479 37.7442 57.7423 37.2867C58.0612 37.7226 58.4411 38.1009 58.8066 38.4936C58.9893 38.6881 58.9714 38.9799 59.0359 39.2249C58.7349 39.2645 58.4124 39.3834 58.1186 39.2537C57.6599 39.0664 57.3123 38.6953 56.9361 38.3783C57.2622 38.9547 57.7602 39.4771 57.7101 40.1868L56.9647 40.2156C56.7996 40.0587 56.636 39.9002 56.4738 39.7401C56.5025 40.0355 56.6888 40.3742 56.4989 40.6408C56.2767 40.8929 55.9328 40.8749 55.6174 40.8677C55.5099 40.8677 55.406 40.8677 55.3092 40.8785C55.4777 40.4498 55.8109 40.0787 55.8002 39.596C55.6712 38.335 54.5173 37.4812 54.3453 36.2383C54.3095 35.7015 54.8972 35.4529 55.3236 35.298C57.3087 34.7756 59.3799 35.035 61.4117 34.8765ZM4.50117 34.8837C7.26033 34.8837 10.0195 35.0278 12.7787 35.053C16.2294 35.1287 19.6802 35.1539 23.1273 35.244C23.844 35.1935 24.4352 35.6619 25.0265 35.9897L24.962 36.6742C24.8562 36.7268 24.7498 36.7785 24.6431 36.8291L24.7362 36.5661C21.5148 36.6526 18.3006 36.8724 15.0792 36.9696C13.051 37.0129 11.03 37.1858 8.99825 37.1498C7.71514 37.1963 6.4321 37.0555 5.18917 36.7319C4.77708 36.6094 4.30408 36.5445 3.978 36.2383C3.97442 35.7519 4.24317 35.2872 4.50117 34.8837ZM85.5562 34.9629C85.7855 35.3628 86.0292 35.7627 86.1976 36.1951C84.6567 36.6994 83.0084 36.6742 81.4102 36.613C78.4432 36.6058 75.4762 36.4148 72.5093 36.3139C70.0045 36.1987 67.4997 36.0978 64.995 35.9537C65.5074 35.5862 66.0879 35.2259 66.7365 35.2476C73.0109 35.2223 79.2818 34.9701 85.5562 34.9629ZM27.9612 35.7339C28.2372 35.7519 28.4486 36.0005 28.6564 36.1662C28.7172 36.2165 28.7652 36.2807 28.7964 36.3534C28.8275 36.4261 28.841 36.5052 28.8356 36.5841C28.5561 36.8003 28.187 36.8291 27.8573 36.9156C27.1908 37.0381 26.5315 37.2398 25.8507 37.2651C25.6106 37.1714 25.349 37.0669 25.1877 36.8471C25.1304 36.5445 25.2236 36.1266 25.5604 36.0473C26.3129 35.896 27.0833 35.8528 27.8394 35.7411C27.8796 35.7337 27.9205 35.7313 27.9612 35.7339ZM61.8775 35.7627C62.7196 35.7627 63.5617 35.8708 64.3858 36.0257C64.7764 36.1014 64.7657 36.5661 64.866 36.8688C64.5435 37.0489 64.2318 37.3371 63.8268 37.2542C63.2428 37.1642 62.6694 37.0165 62.0889 36.9084C61.7772 36.8291 61.4188 36.8039 61.1644 36.5841C61.1823 36.1951 61.5801 35.9465 61.8811 35.7627H61.8775ZM44.7313 36.2599C47.9849 36.1879 51.3317 37.3047 53.6717 39.6284C54.9545 40.9434 55.8933 42.7123 55.8647 44.5893C55.9005 46.2826 55.1516 47.9254 54.0479 49.1791C52.0197 51.492 48.9775 52.7205 45.9639 52.9475C43.2419 53.1791 40.5175 52.5303 38.1881 51.0957C36.9518 50.3031 35.8231 49.2944 35.0813 48.0046C34.1888 46.5325 33.8973 44.7703 34.2679 43.087C34.6227 41.5919 35.5436 40.2985 36.6616 39.2789C38.6862 37.4416 41.3844 36.4869 44.0791 36.2887C44.2941 36.2743 44.5127 36.2671 44.7313 36.2599ZM64.9412 36.3428C65.7224 36.3248 66.5 36.4328 67.2812 36.4689C72.4412 36.7859 77.6083 36.9732 82.7683 37.2759C83.1016 37.3263 83.4778 37.2615 83.7824 37.4308C83.9867 37.7298 84.0404 38.0973 84.0942 38.4503C83.012 39.1168 81.6647 38.9547 80.4571 38.9871C78.9342 38.8863 77.4113 38.6989 75.8919 38.5512C75.3849 38.501 74.8772 38.4578 74.369 38.4215C71.2443 38.1081 68.1089 37.9207 64.9986 37.492C65.0212 37.1068 65.002 36.7202 64.9412 36.3392V36.3428ZM45.043 36.3788C44.6273 36.3788 44.2188 36.3968 43.8067 36.4364C40.9222 36.7138 37.9767 37.8415 36.0632 40.1112C34.9595 41.3649 34.207 43.0257 34.3288 44.7298C34.3933 47.158 35.9342 49.316 37.8584 50.6742C41.0261 52.9007 45.2293 53.3762 48.8915 52.2594C50.5398 51.7226 52.1273 50.8904 53.3527 49.6402C54.8864 48.1487 55.9112 45.9763 55.6282 43.7967C55.3952 42.0134 54.374 40.4066 53.0374 39.2393C50.8516 37.3083 47.9312 36.3752 45.043 36.3788ZM23.8476 37.0093C24.059 37.0093 24.2704 37.0093 24.4854 37.0165C25.0157 37.1678 25.3777 37.6181 25.7718 37.9748C25.6751 38.2522 25.5927 38.5332 25.5138 38.8178C25.7718 39.0232 26.0478 39.2069 26.338 39.3582C24.4854 39.6608 22.6472 40.0535 20.8053 40.4102L19.1427 40.7777L17.4764 41.1307C16.3656 41.3577 15.2512 41.5739 14.1296 41.7576C12.6783 42.017 11.1626 41.9377 9.75075 41.509C9.34583 41.3937 9.2455 40.9254 9.41033 40.5651C9.47125 40.2048 9.91558 40.2409 10.1807 40.1868C14.7531 39.7185 19.3111 39.124 23.8691 38.5764C24.5069 38.508 25.2308 38.4936 25.6966 37.9892C23.1847 38.2198 20.6728 38.5008 18.1644 38.7818L14.3983 39.1889C13.1442 39.3186 11.8864 39.4411 10.6287 39.5492C9.21683 39.6933 7.75483 39.5564 6.43617 38.9979C6.565 38.5864 6.73802 38.1902 6.95217 37.8163C11.9437 37.5893 16.9461 37.4848 21.9305 37.1137C22.5683 37.0849 23.2062 37.0237 23.8476 37.0093ZM28.3482 37.2398C28.4946 37.2334 28.6412 37.243 28.7854 37.2687C29.0864 37.3587 29.3659 37.51 29.6454 37.6469C29.6132 38.1225 29.1509 38.245 28.7926 38.4107C28.3447 38.5944 27.9075 38.807 27.4488 38.9619C26.8683 39.1493 26.2843 38.861 25.7503 38.6485C25.822 38.4035 25.8507 38.1297 26.0012 37.9171C26.3279 37.7113 26.6882 37.565 27.0654 37.4848C27.4847 37.3767 27.9147 37.2542 28.3482 37.2398ZM61.4869 37.2398C62.1212 37.2254 62.7411 37.4344 63.3395 37.6217C63.5688 37.7154 63.8555 37.7514 64.0275 37.9532C64.1422 38.1693 64.1708 38.4215 64.2568 38.6449C63.7337 38.8358 63.1747 39.1673 62.6013 38.9799C61.8307 38.6927 61.0749 38.3669 60.3367 38.0036C60.4012 37.5605 60.8276 37.3551 61.2146 37.2615C61.3049 37.2494 61.3958 37.2422 61.4869 37.2398ZM64.6653 37.8595C65.5218 37.8451 66.3638 38.0072 67.2131 38.0973C69.9292 38.4035 72.649 38.7025 75.3688 38.9835C77.3145 39.2285 79.2746 39.3726 81.2167 39.668C81.2633 40.0535 81.6682 40.7921 81.0985 40.929C79.771 41.1419 78.4208 41.1722 77.0852 41.019C72.8497 40.3562 68.6285 39.5996 64.3858 38.9799C64.3701 38.6104 64.3415 38.2414 64.2998 37.8739C64.4217 37.8667 64.5435 37.8595 64.6653 37.8595ZM45.3978 38.2594C46.3043 38.263 47.2038 38.3747 48.0781 38.6305C49.0886 38.9331 50.1134 39.4447 50.6939 40.367C51.0917 40.9434 51.1382 41.6927 51.0057 42.3628C50.805 43.177 50.0633 43.6778 49.4218 44.1354L49.4362 44.2867C50.3857 44.9388 51.4213 45.8502 51.3891 47.1148C51.4787 48.0299 50.9949 48.8873 50.3392 49.4817C49.8769 49.8348 49.3717 50.141 48.827 50.35C47.2862 50.8868 45.6307 50.9552 44.0182 50.8471C42.0402 50.5986 39.969 50.0401 38.5106 48.5883C38.7614 48.2496 39.0839 47.9758 39.3133 47.6227C39.3877 45.6841 39.3948 43.7435 39.3347 41.8044C39.0982 41.4478 38.7722 41.1668 38.507 40.8317C39.4888 39.4807 41.13 38.8682 42.6995 38.526C43.5846 38.3567 44.4912 38.2558 45.3978 38.2594ZM60.3152 38.4864C60.4191 38.4864 60.523 38.49 60.6233 38.5152C61.2289 38.7494 61.813 39.034 62.3935 39.3258C62.5225 39.4122 62.716 39.4555 62.7733 39.6212C62.7877 39.9094 62.6515 40.2265 62.3684 40.3309C61.9563 40.5039 61.4618 40.6119 61.0426 40.4174C60.3582 40.1148 59.7347 39.6897 59.0932 39.3114C59.1542 39.1601 59.1828 38.9691 59.2868 38.843C59.3239 38.8003 59.3705 38.7669 59.4229 38.7458C59.6982 38.5956 60.0026 38.5071 60.3152 38.4864ZM29.6311 38.4864C29.9795 38.4913 30.3206 38.5882 30.6201 38.7674C30.853 38.8791 30.9032 39.2717 30.681 39.4158C30.1005 39.8121 29.4913 40.1724 28.8392 40.4282C28.3267 40.5975 27.8107 40.403 27.3342 40.2373L27.1908 39.5383C27.7928 39.2213 28.4092 38.9151 29.0327 38.6377C29.217 38.5393 29.4224 38.4874 29.6311 38.4864ZM45.2902 39.106C44.9527 39.1051 44.6153 39.1232 44.2798 39.1601C43.7943 39.2141 43.3399 39.4267 42.9862 39.7653C42.4021 40.3742 42.3555 41.2856 42.4666 42.0746C42.495 42.4632 42.6342 42.8352 42.8674 43.1464C43.1006 43.4575 43.418 43.6946 43.7817 43.8291C44.6166 44.1137 45.5375 44.0993 46.3796 43.8652C47.2898 43.5589 47.7484 42.561 47.7269 41.6531C47.7735 40.8857 47.5836 39.9887 46.8992 39.5419C46.4166 39.2423 45.8571 39.0884 45.2902 39.106ZM64.2353 39.4122C65.2028 39.4339 66.1703 39.5996 67.1235 39.7689C70.1084 40.3093 73.0933 40.8533 76.0747 41.4189C76.8272 41.5739 77.5904 41.7036 78.3322 41.9161C78.2318 42.3664 78.1781 43.069 77.6083 43.1554C75.7701 43.3896 73.9247 42.9753 72.1617 42.4817C69.2448 41.6891 66.2957 40.9902 63.3825 40.176C63.2073 40.1368 63.0267 40.1282 62.8486 40.1508C62.8952 39.9635 62.9095 39.7653 62.9991 39.596C63.2284 39.4231 63.5473 39.4339 63.8197 39.4158L64.2353 39.4122ZM27.0152 39.6104C27.1156 40.0211 27.2016 40.4354 27.3628 40.8245C25.091 41.527 22.8228 42.2295 20.5402 42.8852C19.329 43.2347 18.1393 43.6886 16.8852 43.8579C15.7528 43.9588 14.5918 43.9048 13.4882 43.6202C13.0367 43.4977 12.9148 43.0077 12.9041 42.597C16.0932 41.9017 19.2717 41.1595 22.4716 40.5183C23.9837 40.212 25.478 39.7869 27.0152 39.6104ZM58.8962 39.7941C59.128 39.7897 59.3535 39.8704 59.5304 40.0211C60.0679 40.3778 60.5947 40.7416 61.1358 41.0875C61.1131 41.137 61.0963 41.189 61.0856 41.2424L61.0498 41.4117C61.0175 41.527 60.9745 41.6315 60.8706 41.6891C60.4048 41.7396 59.9067 41.8441 59.4516 41.6675C58.9353 41.3348 58.4591 40.9432 58.0326 40.5003C57.8677 40.3598 57.8857 40.0823 58.0254 39.931C58.0736 39.8806 58.1362 39.8466 58.2046 39.8338C58.4232 39.823 58.6632 39.7833 58.8962 39.7941ZM31.2579 39.7941C31.4407 39.7941 31.6234 39.8085 31.8026 39.8302C32.0498 39.8914 32.2183 40.2697 31.971 40.439C31.412 41.001 30.8315 41.7144 29.9751 41.754C29.6884 41.7504 29.4018 41.7612 29.1222 41.6999C28.918 41.563 28.9359 41.2676 28.8678 41.0659C29.4878 40.6696 30.079 40.2337 30.7168 39.8662C30.8925 39.8205 31.0729 39.7964 31.2543 39.7941H31.2579ZM62.9955 40.5291C63.576 40.5903 64.1278 40.7813 64.6904 40.9182C67.4352 41.7288 70.1837 42.5286 72.9249 43.3464C73.4373 43.5013 73.9605 43.631 74.4514 43.8435C74.3152 44.1858 74.1862 44.5749 73.8673 44.7874C72.5543 45.0608 71.1921 44.9711 69.9257 44.5281C68.9582 44.157 68.0372 43.6886 67.0877 43.2815C65.3677 42.543 63.6548 41.772 61.9097 41.0839C62.2788 40.9146 62.6085 40.648 62.9955 40.5291ZM57.3947 40.6732C57.771 40.6732 58.0756 40.9758 58.3479 41.2064C58.6059 41.4658 58.9463 41.6783 59.1076 42.017C59.1613 42.3232 58.9105 42.5898 58.8245 42.8636C58.4518 42.7916 57.986 42.9357 57.685 42.6258C57.2253 42.2157 56.8355 41.7325 56.5312 41.1956C56.4738 40.8857 56.8286 40.6984 57.1152 40.6876L57.2299 40.6912C57.284 40.6789 57.3393 40.6728 57.3947 40.6732ZM32.702 40.6876C32.9996 40.7025 33.2863 40.8052 33.5262 40.983C33.2276 41.6024 32.8141 42.1588 32.3078 42.6222C32.0427 42.9465 31.5912 42.8924 31.2328 42.7844C31.0071 42.615 30.9247 42.316 30.7885 42.0782C31.2292 41.6207 31.6485 41.1343 32.1824 40.7849C32.3457 40.7122 32.5236 40.6789 32.702 40.6876ZM27.9505 41.1199C28.0795 41.114 28.2088 41.1165 28.3375 41.1271C28.703 41.1812 28.7496 41.6135 28.8857 41.8909C28.2479 42.107 27.6638 42.4421 27.0654 42.7411C25.5102 43.4905 23.9945 44.3083 22.4429 45.0648C21.3858 45.6269 20.1388 45.5332 18.9814 45.544C18.6589 45.5116 18.297 45.544 18.0139 45.3567C17.8276 45.1153 17.7487 44.8091 17.6556 44.5208C18.5335 44.0741 19.5046 43.8724 20.4147 43.5013C22.0487 42.8816 23.7257 42.3845 25.3741 41.808C26.2269 41.5666 27.0618 41.1631 27.9541 41.1235L27.9505 41.1199ZM55.5135 41.1595C55.8467 41.2388 56.2553 41.2136 56.5061 41.4874C56.8573 41.9665 57.212 42.4673 57.4127 43.0293C57.3482 43.4617 56.8608 43.7499 56.438 43.7319C56.2947 42.8204 55.9077 41.9846 55.5135 41.1595ZM34.4148 41.1704C34.0178 41.9921 33.7264 42.8614 33.5477 43.7571C33.2073 43.6778 32.7808 43.5914 32.6303 43.2275C32.5228 43.0473 32.6267 42.8492 32.7092 42.6871C32.9366 42.246 33.2066 41.8284 33.5154 41.4406C33.7698 41.246 34.1138 41.246 34.4148 41.1704ZM61.3436 41.2712C61.9958 41.3901 62.5691 41.754 63.1639 42.035C65.5325 43.1482 67.8939 44.2795 70.2482 45.4287C70.2016 45.6809 70.2087 45.9835 70.0368 46.1997C69.4527 46.4267 68.8041 46.333 68.1985 46.2717C67.4603 46.1889 66.6935 46.1024 66.0449 45.6953C64.2282 44.5605 62.5332 43.2203 60.6377 42.2151C61.0498 42.0638 61.1895 41.6423 61.3436 41.2712ZM29.6956 42.1863C30.0181 42.1863 30.3406 42.2367 30.6523 42.3376C29.9572 43.1734 29.0183 43.7499 28.1619 44.3947C27.1586 45.0793 26.2341 45.8971 25.1161 46.387C24.2392 46.6855 23.3136 46.8127 22.3892 46.7617C21.9878 46.7113 21.8123 46.3366 21.7943 45.9691C23.8978 44.8163 26.0477 43.7535 28.1512 42.6078C28.617 42.3287 29.1534 42.183 29.6956 42.1863ZM59.8888 42.2512C60.3112 42.2944 60.7114 42.4623 61.039 42.7339C62.6479 43.9408 64.2497 45.1621 65.8622 46.3618C66.0772 46.4735 66.1882 46.6897 66.2778 46.9094C65.8263 47.104 65.3354 47.3417 64.8338 47.1904C64.6868 47.1544 64.5327 47.1256 64.3823 47.0932C63.92 47.029 63.476 46.8695 63.0779 46.6248C61.5478 45.6521 60.308 44.2831 58.7564 43.3392C59.0861 43.0437 59.1864 42.5826 59.4946 42.2836C59.6238 42.2545 59.7565 42.2436 59.8888 42.2512ZM30.6631 42.8852C31.0716 43.5265 31.8599 43.3067 32.4834 43.4797C31.1217 44.4632 30.0969 45.8286 28.7496 46.8302C27.9326 47.439 26.6605 47.6732 25.8328 46.9635C26.2377 46.333 26.8719 45.9187 27.4345 45.4395C28.5095 44.5893 29.5594 43.6994 30.6631 42.8852ZM57.7316 43.3356C58.1257 43.4184 58.5665 43.4508 58.8747 43.7535C59.8923 44.6181 60.8491 45.5476 61.8703 46.4122C62.2179 46.7365 62.6837 47.0139 62.7232 47.5471C62.3827 47.6732 61.9993 47.8173 61.641 47.666C61.5547 47.6431 61.4698 47.6155 61.3866 47.5831C60.8061 47.3561 60.3295 46.9238 59.8672 46.5131C58.9918 45.65 58.072 44.8335 57.1117 44.0669C57.3123 43.8183 57.5202 43.5733 57.7316 43.3356ZM32.4046 43.9696C32.7701 44.0669 33.1248 44.2038 33.4903 44.2975C33.5369 44.6577 33.562 45.018 33.5835 45.3783C32.96 46.0087 32.4834 46.841 31.6449 47.2156C31.0859 47.4318 30.4732 47.5075 29.8783 47.4318C29.6741 47.3886 29.5308 47.2265 29.3838 47.0896C30.38 46.0376 31.3188 44.9279 32.4046 43.9696ZM56.5168 44.2326C57.0579 44.2254 57.4127 44.6577 57.7495 45.018C58.4518 45.8394 59.2545 46.56 59.9783 47.3561C59.8242 47.5615 59.6558 47.8461 59.3333 47.738C58.9533 47.7593 58.5732 47.6979 58.2189 47.5579C57.4736 47.1976 56.9827 46.5023 56.3484 45.9979L56.5168 44.2326ZM45.3978 44.7082C45.0923 44.6999 44.7867 44.7168 44.484 44.7586C43.5022 44.8739 42.5597 45.6052 42.3913 46.614C42.2838 47.5903 42.3232 48.7828 43.1223 49.4817C43.6491 49.9141 44.3407 50.0582 45.0036 50.1158C45.9281 50.1446 47.0102 49.9969 47.5836 49.1647C48.2107 48.2136 48.2142 46.9202 47.7771 45.8935C47.3041 45.0288 46.3402 44.737 45.3978 44.7082ZM33.562 45.8971C33.7985 46.5095 33.9705 47.1436 34.1353 47.7777C33.7053 47.6948 33.0532 47.7416 32.8095 47.2805C32.6912 46.7005 33.2288 46.2934 33.562 45.9007V45.8971ZM56.3126 46.4375C56.6243 46.7149 57.0436 47.0896 56.9217 47.5543C56.6817 47.9758 56.1406 47.9794 55.7213 48.0226C55.9221 47.4957 56.1192 46.9673 56.3126 46.4375ZM32.3401 47.5939C32.6733 47.8713 33.0388 48.1595 33.4832 48.228C33.7698 48.3145 34.1031 48.2928 34.3611 48.455C34.9201 49.1431 35.4146 49.8924 36.1098 50.4545C37.1812 51.4524 38.4676 52.1441 39.6752 52.9475C39.4673 53.8121 38.9119 54.5219 38.4604 55.2676C35.1637 53.9959 32.3007 51.4128 30.9892 48.0803C31.4407 47.929 31.8922 47.7669 32.3365 47.5939H32.3401ZM57.3983 47.8209C57.7316 47.9542 58.0648 48.0911 58.4017 48.2172C57.7388 50.0546 56.4953 51.6397 55.0333 52.9043C53.9712 53.8486 52.7407 54.582 51.407 55.0659C51.1203 54.5615 50.8122 54.0643 50.5613 53.5383C50.4897 53.3582 50.375 53.1132 50.5255 52.9439C50.8767 52.5908 51.3389 52.3819 51.7653 52.1369C52.654 51.6037 53.471 50.9588 54.2235 50.2419C54.7252 49.7591 55.0405 49.1179 55.5027 48.5991C55.8969 48.4442 56.3556 48.5126 56.7462 48.3325C56.997 48.2028 57.1905 48.001 57.3983 47.8209ZM29.9142 48.0731L30.6452 48.0839C31.2687 49.633 32.1573 51.0993 33.3685 52.2522C34.1102 52.9259 34.8305 53.6356 35.6941 54.1508C36.5182 54.6984 37.4213 55.0947 38.3099 55.5198C38.2223 55.7679 38.1156 56.0088 37.991 56.2404C37.1211 55.8914 36.283 55.4671 35.4862 54.9722C34.4113 54.3345 33.5154 53.4555 32.6196 52.5944C31.6879 51.683 31.0787 50.5049 30.4552 49.3736C30.2223 48.9629 30.0718 48.5126 29.9142 48.0731ZM58.6776 48.282L59.4659 48.3541C58.8712 50.1825 57.8273 51.8306 56.4308 53.1456C55.0978 54.3706 53.6179 55.5414 51.8728 56.0998C51.751 55.8477 51.6292 55.5955 51.5145 55.3361C52.6074 54.8425 53.7003 54.2949 54.632 53.5203C56.352 52.1225 57.8928 50.3932 58.6776 48.282ZM53.8472 49.842C53.1664 50.8003 52.1093 51.3551 51.1741 52.0216C50.7441 52.3567 50.1349 52.562 49.9593 53.1384C49.9987 53.4771 50.2711 53.7293 50.4252 54.0211C50.8122 54.6912 51.1956 55.3685 51.5073 56.0746C51.6793 56.5214 51.5037 56.9825 51.3353 57.3968C50.7692 57.2419 50.1385 56.9825 49.8912 56.4061C49.4147 55.5378 49.4254 54.4462 48.7625 53.668C48.7016 54.8281 49.5365 55.7648 49.6763 56.8852C49.6189 57.2779 49.3753 57.613 49.1889 57.9552C48.6908 57.6742 48.0781 57.3932 47.9598 56.7699C47.6194 55.8477 47.8272 54.7416 47.2718 53.8986C47.0461 54.702 47.4367 55.4838 47.5872 56.262C47.6696 56.7447 47.881 57.3536 47.5048 57.7643C47.3831 57.9279 47.2564 58.0877 47.1249 58.2434C46.7487 57.9732 46.2649 57.721 46.1395 57.2347C45.9281 56.298 46.0822 55.3253 45.9102 54.3886C45.86 54.2697 45.7776 54.176 45.7023 54.0787C45.4515 55.1956 46.0069 56.298 45.8708 57.422C45.7202 57.8255 45.387 58.247 44.9391 58.3227C44.527 58.0345 44.1436 57.6022 44.1472 57.0618C44.0934 56.0854 44.4589 55.1343 44.4087 54.1544L44.1472 54.1472C44.0146 54.9758 44.0827 55.8224 44.0289 56.6583C44.0235 57.0428 43.8926 57.415 43.6562 57.7174C43.4412 57.912 43.2012 58.0777 42.9503 58.229C42.7246 57.9913 42.4666 57.7607 42.3304 57.4508C42.2086 56.9825 42.377 56.5142 42.4737 56.053C42.6422 55.3613 42.8858 54.6696 42.8536 53.949H42.6171C42.3197 54.8821 42.3268 55.8693 42.0652 56.8096C41.9909 57.0487 41.8646 57.2681 41.6954 57.4519C41.5262 57.6358 41.3183 57.7794 41.087 57.8724C40.8935 57.9588 40.6606 57.8219 40.5853 57.6346C40.2378 57.1915 40.4133 56.5934 40.5674 56.1107C40.8756 55.3109 41.2554 54.5291 41.4274 53.6824L41.1909 53.5852C40.6893 54.5219 40.5674 55.6171 40.0443 56.543C39.93 56.7582 39.7716 56.9467 39.5795 57.0957C39.3873 57.2448 39.1659 57.3511 38.9298 57.4076C38.7686 57.4617 38.6432 57.3284 38.5715 57.2023C38.4791 57.0158 38.4295 56.8109 38.4264 56.6027C38.4233 56.3944 38.4667 56.1881 38.5536 55.999C38.9549 55.1307 39.5211 54.3417 39.9153 53.4699C39.9869 53.2321 40.1159 52.9115 39.9188 52.7025C39.1305 51.8883 37.9623 51.6217 37.1597 50.8219C37.9946 51.3191 38.8044 51.8883 39.7253 52.2126C43.0327 53.5528 46.8562 53.5924 50.1707 52.2522C51.5682 51.7622 52.783 50.858 53.8472 49.842Z" fill="#243E36"/>
</svg>
