<svg width="90" height="90" viewBox="0 0 90 90" fill="none" xmlns="http://www.w3.org/2000/svg">
<rect width="90" height="90" rx="10" fill="white"/>
<path d="M5 14H67.7514C67.8223 14.0135 67.8931 14.0406 67.964 14.0439C69.4355 14.1082 70.8766 14.3482 72.2806 14.7809C77.2048 16.3055 80.7418 19.4021 82.8005 24.1517C84.3327 27.6878 84.488 31.7884 83.867 34.8207C83.2387 38.0327 81.6217 40.9668 79.2432 43.2112C79.196 43.2585 79.1521 43.3126 79.1083 43.3633C79.1791 43.4512 79.2838 43.4985 79.3681 43.5695C81.2829 44.969 82.8658 46.7744 84.0039 48.8569C85.1421 50.9395 85.8075 53.248 85.9528 55.6177C85.9561 55.6887 85.9865 55.7597 86 55.8307V58.5013C85.9831 58.5926 85.9595 58.6805 85.9528 58.7718C85.9392 58.9273 85.946 59.0861 85.9291 59.245C85.808 60.4451 85.5707 61.6305 85.2204 62.7845C83.8771 67.1048 81.2818 70.4312 77.3364 72.6691C74.5149 74.2715 71.4504 74.9882 68.2239 74.9915C47.1639 75.0051 26.1039 74.9983 5.04388 74.9983V58.9746H15.1284L15.1318 64.85C15.584 64.904 39.5195 64.8838 39.722 64.8297V49.0493H29.3945V53.8666C29.0503 53.9308 19.5125 53.9139 19.3168 53.8531V34.0601H29.3945V38.874C29.7421 38.9382 39.5296 38.9213 39.722 38.8638V24.1348H15.125V29.3206H5.027L5 14ZM51.4164 64.877H67.4274C68.2846 64.877 69.1318 64.7992 69.9586 64.5728C72.5574 63.8628 74.3461 62.2638 75.1764 59.6811C75.7616 57.8829 75.7534 55.9437 75.1527 54.1506C74.8625 53.2058 74.3755 52.3335 73.7239 51.5911C73.0723 50.8487 72.271 50.2532 71.3727 49.8438C70.2189 49.3051 68.9603 49.0291 67.6872 49.0358H51.4198L51.4164 64.877ZM51.4265 24.1145V38.9111H66.2664C67.0924 38.9153 67.9145 38.798 68.7065 38.5629C70.9948 37.8767 72.5776 36.4332 73.3505 34.1547C73.8399 32.7079 73.9006 31.2204 73.58 29.733C73.0366 27.2246 71.5618 25.5039 69.1486 24.6115C68.1212 24.257 67.0389 24.0888 65.9525 24.1145H51.4265Z" fill="#222222"/>
</svg>
