<svg width="90" height="90" viewBox="0 0 90 90" fill="none" xmlns="http://www.w3.org/2000/svg">
<rect width="90" height="90" rx="10" fill="white"/>
<g clip-path="url(#clip0_993_22835)">
<path d="M27.3848 39.3644C26.1346 37.4534 23.9949 37.0787 22.544 37.0463C21.2712 37.0186 15.7416 37.0093 12.5206 37.0093C6.17864 37.0046 9.80575 37.0093 4.09375 37.0093V40.0815C10.8734 40.0815 18.9261 40.0677 22.4483 40.1186C23.0779 40.1278 23.6983 40.1926 24.1956 40.6368C24.6565 41.0533 24.8207 41.7057 24.6154 42.2701C24.2824 43.1862 23.3653 43.4129 22.4528 43.4268C21.0567 43.45 17.2198 43.4592 14.3546 43.4592C7.32847 43.4731 10.3671 43.4685 4.09375 43.4685V46.5315C10.8689 46.5315 18.9352 46.5176 22.4483 46.5685C23.5432 46.5824 24.7021 46.971 24.7021 48.2065C24.7021 49.4419 23.5432 49.849 22.4483 49.8676C18.9444 49.923 10.8735 49.9092 4.09375 49.9092V52.9768C10.8963 52.9768 19.7975 53 22.544 52.9352C23.9949 52.9028 26.1346 52.528 27.3848 50.6171C28.5573 48.8218 28.2698 46.4852 26.7323 44.9908C28.2698 43.4916 28.5573 41.1597 27.3848 39.3644ZM82.7495 38.8554C80.6781 37.3517 78.4333 37.1341 76.6085 37.0926C74.8109 37.0509 72.1054 37.0323 69.7101 37.0232C63.8702 37 67.3833 37.0093 61.8171 37.0093V40.0908C67.7347 40.0908 71.8863 40.04 76.4579 40.1741C77.7992 40.2111 79.241 40.3545 80.5366 41.2707C81.764 42.1359 82.4939 43.5148 82.4939 45C82.4939 46.4852 81.7868 47.8687 80.5595 48.7293C79.2638 49.6408 77.8221 49.7843 76.4807 49.8213C71.9092 49.9508 67.7574 49.8999 61.84 49.8999L61.8217 52.9768C67.7756 52.9768 72.0552 53 76.6131 52.8935C78.4334 52.8519 80.6827 52.6391 82.7539 51.1307C84.7159 49.701 85.9066 47.4569 85.9066 44.9908C85.902 42.5245 84.7112 40.2805 82.7495 38.8554ZM37.3536 43.9034C35.7659 43.8711 35.2641 43.3482 35.2504 41.7427C35.2412 40.262 35.2458 38.5084 35.2458 37.0046H31.7511C31.7511 38.5223 31.7236 41.6039 31.7829 43.0891C31.897 45.9809 32.8323 46.8785 35.7431 46.9803C37.7596 47.0497 39.3657 47.0266 42.1533 47.022V43.9265C39.9131 43.9312 39.0052 43.9359 37.3536 43.9034ZM54.6861 41.8028C54.677 43.3621 54.1752 43.8756 52.5829 43.9034C51.8255 43.9173 49.8317 43.9266 48.1938 43.9312H48.1802C46.5058 43.9312 44.7173 43.9265 43.668 43.9265V52.9768H47.7787V47.022H48.1938V47.0266C50.3336 47.0266 53.0026 47.0173 54.0155 46.9849C57.1042 46.8877 58.0441 46.004 58.1581 43.0891C58.1718 42.7004 58.181 42.2053 58.19 41.6639V37.0094H54.6953C54.6907 38.5501 54.6953 40.2806 54.6861 41.8028Z" fill="#D4001A"/>
</g>
<defs>
<clipPath id="clip0_993_22835">
<rect width="82" height="16" fill="white" transform="translate(4 37)"/>
</clipPath>
</defs>
</svg>
