<svg width="90" height="90" viewBox="0 0 90 90" fill="none" xmlns="http://www.w3.org/2000/svg">
<rect width="90" height="90" rx="10" fill="white"/>
<g clip-path="url(#clip0_944_1434)">
<path d="M23.1016 53.7125V55.6245H13.5331C13.5331 55.6245 13.1779 55.5382 13.1779 55.978V59.8113C13.1779 59.8113 13.1288 60.1698 13.5381 60.1698H23.0823V61.9141H13.1874C13.1874 61.9141 11.2759 61.7513 11.2759 60.0121V55.6821C11.2759 55.6821 11.0543 53.737 13.2308 53.737L23.1019 53.7129L23.1016 53.7125ZM40.4707 56.9745H49.1602V58.7596H40.1087V59.8113C40.1087 59.8113 40.0584 60.1698 40.4808 60.1698H50.3267V61.9141H40.1188C40.1188 61.9141 38.1463 61.7513 38.1463 60.0121V55.6821C38.1463 55.6821 37.9181 53.737 40.1634 53.737L50.347 53.7129V55.4405C50.347 55.4405 41.2533 55.4439 40.483 55.4441C40.483 55.4441 40.1043 55.4769 40.1043 55.8209V56.9733L40.4707 56.9749V56.9745ZM24.5615 53.6553H26.4639V57.0104H34.5624V53.684H36.551V62H34.62V58.7883H26.4639V61.9426H24.5329L24.5615 53.6553ZM51.8547 53.684H62.6912C62.6912 53.684 64.017 54.1712 64.017 55.0031V56.9531C64.017 56.9531 64.1322 58.3439 62.6192 58.3439H60.962L64.4206 62.0002H61.9132L58.7141 58.3297H53.8434V61.9715H51.8836L51.8547 53.6842V53.684ZM53.8146 56.9244H61.9132C61.9132 56.9244 62.3311 56.867 62.3311 56.5086V55.9493C62.3311 55.9493 62.4175 55.555 61.9348 55.555H53.7859L53.8147 56.9242L53.8146 56.9244ZM64.4494 53.6553H67.3891L71.8275 57.5265L76.2659 53.6553H78.9461L72.9226 59.1323V61.9426H70.7034V59.1038L64.4494 53.6553Z" fill="#BC1822"/>
<path d="M43.7339 29.3859L29.9454 45.6696L25.3491 47.1937L41.5755 28L43.7339 29.3859Z" fill="url(#paint0_linear_944_1434)"/>
<path d="M43.7339 29.3859L57.5232 45.6696L62.1197 47.1937L45.8937 28L43.7339 29.3859Z" fill="url(#paint1_linear_944_1434)"/>
<path d="M43.7341 29.3859L45.8939 28H41.5757L43.7341 29.3859Z" fill="url(#paint2_linear_944_1434)"/>
<path d="M33.6885 31.3088L35.8887 28.1392L33.6948 29.867L33.6885 31.3088Z" fill="url(#paint3_linear_944_1434)"/>
<path d="M31.5469 42.5517L28.2739 43.7296C12.6401 41.3737 13.7185 36.3499 13.7185 36.3499C13.6838 29.8714 35.9001 28.1392 35.9001 28.1392L33.7066 29.8714C33.7066 29.8714 15.5911 32.4782 16.1125 36.3241C16.6353 40.1698 31.5469 42.5517 31.5469 42.5517Z" fill="url(#paint4_linear_944_1434)"/>
<path d="M33.7065 29.8713V31.3086C33.7065 31.3086 18.5248 32.4346 18.5248 36.2458C18.5248 40.057 30.5723 41.027 30.5723 41.027L31.5469 42.5513C31.5469 42.5513 16.0869 40.6806 16.0869 36.3151C16.0869 31.9496 33.7067 29.8711 33.7067 29.8711L33.7065 29.8713Z" fill="url(#paint5_linear_944_1434)"/>
<path d="M25.3491 47.1936H31.5145L29.9454 45.6694L25.3491 47.1936Z" fill="url(#paint6_linear_944_1434)"/>
<path d="M43.7338 29.3857V32.3739L31.5075 47.1858L29.9453 45.6695L43.7338 29.3857Z" fill="url(#paint7_linear_944_1434)"/>
<path d="M43.7378 29.3857V32.3739L55.964 47.1858L57.5266 45.6695L43.7378 29.3857Z" fill="url(#paint8_linear_944_1434)"/>
<path d="M62.1237 47.1936H55.958L57.5269 45.6694L62.1237 47.1936Z" fill="url(#paint9_linear_944_1434)"/>
<path d="M53.7881 31.3088L51.5879 28.1392L53.7818 29.867L53.7881 31.3088Z" fill="url(#paint10_linear_944_1434)"/>
<path d="M55.9299 42.5517L59.2028 43.7296C74.8368 41.3737 73.7582 36.3499 73.7582 36.3499C73.7929 29.8714 51.5767 28.1392 51.5767 28.1392L53.7701 29.8714C53.7701 29.8714 71.8856 32.4782 71.3642 36.3241C70.8414 40.1698 55.9299 42.5517 55.9299 42.5517Z" fill="url(#paint11_linear_944_1434)"/>
<path d="M53.7702 29.8713V31.3086C53.7702 31.3086 68.9518 32.4346 68.9518 36.2458C68.9518 40.057 56.9044 41.027 56.9044 41.027L55.9298 42.5513C55.9298 42.5513 71.3903 40.6806 71.3903 36.3151C71.3903 31.9496 53.77 29.8711 53.77 29.8711L53.7702 29.8713Z" fill="url(#paint12_linear_944_1434)"/>
<path d="M48.6123 41.8057L50.7193 44.6713L48.9256 43.1572L48.6123 41.8057Z" fill="url(#paint13_linear_944_1434)"/>
<path d="M33.2915 42.7757L36.0772 41.6499C36.0772 41.6499 46.5234 42.0828 48.6123 41.8057L48.9258 43.1572C48.9258 43.1572 44.5558 43.9713 33.2915 42.7757Z" fill="url(#paint14_linear_944_1434)"/>
<path d="M48.9258 43.1574L50.7195 44.6714C50.7195 44.6714 40.8912 45.3312 33.7878 44.4303L33.2915 42.7759C33.2915 42.7759 42.9537 43.6598 48.9258 43.1574Z" fill="url(#paint15_linear_944_1434)"/>
</g>
<defs>
<linearGradient id="paint0_linear_944_1434" x1="34.9295" y1="38.5136" x2="30.4505" y2="35.687" gradientUnits="userSpaceOnUse">
<stop stop-color="#E8E8E8"/>
<stop offset="1" stop-color="#495153"/>
</linearGradient>
<linearGradient id="paint1_linear_944_1434" x1="53.6006" y1="28.5681" x2="52.463" y2="45.1468" gradientUnits="userSpaceOnUse">
<stop offset="0.03" stop-color="#E8E8E8"/>
<stop offset="0.1" stop-color="#D6D7D7"/>
<stop offset="0.3" stop-color="#A4A7A8"/>
<stop offset="0.49" stop-color="#7C8283"/>
<stop offset="0.67" stop-color="#606768"/>
<stop offset="0.82" stop-color="#4F5658"/>
<stop offset="0.93" stop-color="#495153"/>
</linearGradient>
<linearGradient id="paint2_linear_944_1434" x1="43.7348" y1="29.5247" x2="43.7348" y2="27.2728" gradientUnits="userSpaceOnUse">
<stop stop-color="#E8E8E8"/>
<stop offset="0.12" stop-color="#C8CACA"/>
<stop offset="0.33" stop-color="#9B9FA0"/>
<stop offset="0.52" stop-color="#777D7E"/>
<stop offset="0.7" stop-color="#5D6466"/>
<stop offset="0.87" stop-color="#4E5658"/>
<stop offset="1" stop-color="#495153"/>
</linearGradient>
<linearGradient id="paint3_linear_944_1434" x1="36.4544" y1="28.9835" x2="34.0037" y2="30.0839" gradientUnits="userSpaceOnUse">
<stop stop-color="white"/>
<stop offset="1" stop-color="#495153"/>
</linearGradient>
<linearGradient id="paint4_linear_944_1434" x1="28.6871" y1="39.1376" x2="17.7478" y2="20.7965" gradientUnits="userSpaceOnUse">
<stop stop-color="#495153"/>
<stop offset="0.36" stop-color="#E8E8E8"/>
<stop offset="0.42" stop-color="#DCDDDD"/>
<stop offset="0.54" stop-color="#BFC1C1"/>
<stop offset="0.7" stop-color="#8F9394"/>
<stop offset="0.88" stop-color="#4D5557"/>
<stop offset="0.9" stop-color="#495153"/>
</linearGradient>
<linearGradient id="paint5_linear_944_1434" x1="27.7014" y1="39.8131" x2="23.317" y2="29.5076" gradientUnits="userSpaceOnUse">
<stop stop-color="#E8E8E8"/>
<stop offset="0.12" stop-color="#C8CACA"/>
<stop offset="0.33" stop-color="#9B9FA0"/>
<stop offset="0.52" stop-color="#777D7E"/>
<stop offset="0.7" stop-color="#5D6466"/>
<stop offset="0.87" stop-color="#4E5658"/>
<stop offset="1" stop-color="#495153"/>
</linearGradient>
<linearGradient id="paint6_linear_944_1434" x1="25.4271" y1="46.4093" x2="32.356" y2="46.4794" gradientUnits="userSpaceOnUse">
<stop stop-color="#E8E8E8"/>
<stop offset="0.12" stop-color="#C8CACA"/>
<stop offset="0.33" stop-color="#9B9FA0"/>
<stop offset="0.52" stop-color="#777D7E"/>
<stop offset="0.7" stop-color="#5D6466"/>
<stop offset="0.87" stop-color="#4E5658"/>
<stop offset="1" stop-color="#495153"/>
</linearGradient>
<linearGradient id="paint7_linear_944_1434" x1="44.9708" y1="30.1149" x2="28.7309" y2="48.3505" gradientUnits="userSpaceOnUse">
<stop stop-color="#495153"/>
<stop offset="0.05" stop-color="#727879"/>
<stop offset="0.09" stop-color="#949899"/>
<stop offset="0.14" stop-color="#AFB1B1"/>
<stop offset="0.19" stop-color="#C2C2C3"/>
<stop offset="0.24" stop-color="#CDCDCD"/>
<stop offset="0.3" stop-color="#D1D1D1"/>
<stop offset="0.63" stop-color="#888C8D"/>
<stop offset="0.88" stop-color="#5A6163"/>
<stop offset="1" stop-color="#495153"/>
</linearGradient>
<linearGradient id="paint8_linear_944_1434" x1="42.5008" y1="30.1149" x2="58.7407" y2="48.3505" gradientUnits="userSpaceOnUse">
<stop/>
<stop offset="0.02" stop-color="#202020"/>
<stop offset="0.06" stop-color="#505050"/>
<stop offset="0.1" stop-color="#7A7A7A"/>
<stop offset="0.13" stop-color="#9C9C9C"/>
<stop offset="0.17" stop-color="#B7B7B7"/>
<stop offset="0.21" stop-color="#CACACA"/>
<stop offset="0.25" stop-color="#D5D5D5"/>
<stop offset="0.3" stop-color="#D9D9D9"/>
<stop offset="0.33" stop-color="#D1D1D2"/>
<stop offset="0.65" stop-color="#888C8D"/>
<stop offset="0.88" stop-color="#5A6163"/>
<stop offset="1" stop-color="#495153"/>
</linearGradient>
<linearGradient id="paint9_linear_944_1434" x1="62.0457" y1="46.4093" x2="55.1161" y2="46.4794" gradientUnits="userSpaceOnUse">
<stop stop-color="#E3E3E3"/>
<stop offset="0.09" stop-color="#BABCBD"/>
<stop offset="0.17" stop-color="#979B9C"/>
<stop offset="0.26" stop-color="#7A8081"/>
<stop offset="0.35" stop-color="#646B6C"/>
<stop offset="0.45" stop-color="#555C5E"/>
<stop offset="0.57" stop-color="#4B5355"/>
<stop offset="0.73" stop-color="#495153"/>
</linearGradient>
<linearGradient id="paint10_linear_944_1434" x1="51.0222" y1="28.9835" x2="53.4728" y2="30.0839" gradientUnits="userSpaceOnUse">
<stop stop-color="white"/>
<stop offset="1" stop-color="#495153"/>
</linearGradient>
<linearGradient id="paint11_linear_944_1434" x1="58.7898" y1="39.1376" x2="69.7289" y2="20.7965" gradientUnits="userSpaceOnUse">
<stop stop-color="#495153"/>
<stop offset="0.36" stop-color="#E8E8E8"/>
<stop offset="0.42" stop-color="#DCDDDD"/>
<stop offset="0.54" stop-color="#BFC1C1"/>
<stop offset="0.7" stop-color="#8F9394"/>
<stop offset="0.88" stop-color="#4D5557"/>
<stop offset="0.9" stop-color="#495153"/>
</linearGradient>
<linearGradient id="paint12_linear_944_1434" x1="59.7754" y1="39.8131" x2="64.16" y2="29.5076" gradientUnits="userSpaceOnUse">
<stop stop-color="#E8E8E8"/>
<stop offset="0.1" stop-color="#C0C2C3"/>
<stop offset="0.22" stop-color="#969A9B"/>
<stop offset="0.34" stop-color="#747A7B"/>
<stop offset="0.46" stop-color="#5C6365"/>
<stop offset="0.56" stop-color="#4E5557"/>
<stop offset="0.65" stop-color="#495153"/>
</linearGradient>
<linearGradient id="paint13_linear_944_1434" x1="50.2414" y1="42.9202" x2="49.3029" y2="43.4442" gradientUnits="userSpaceOnUse">
<stop stop-color="#E8E8E8"/>
<stop offset="0.07" stop-color="#D6D7D7"/>
<stop offset="0.28" stop-color="#A4A7A8"/>
<stop offset="0.47" stop-color="#7C8283"/>
<stop offset="0.66" stop-color="#606768"/>
<stop offset="0.81" stop-color="#4F5658"/>
<stop offset="0.93" stop-color="#495153"/>
</linearGradient>
<linearGradient id="paint14_linear_944_1434" x1="41.0942" y1="42.8148" x2="40.7839" y2="39.5399" gradientUnits="userSpaceOnUse">
<stop stop-color="#E8E8E8"/>
<stop offset="0.12" stop-color="#C8CACA"/>
<stop offset="0.33" stop-color="#9B9FA0"/>
<stop offset="0.52" stop-color="#777D7E"/>
<stop offset="0.7" stop-color="#5D6466"/>
<stop offset="0.87" stop-color="#4E5658"/>
<stop offset="1" stop-color="#495153"/>
</linearGradient>
<linearGradient id="paint15_linear_944_1434" x1="41.8294" y1="39.5156" x2="41.9844" y2="43.257" gradientUnits="userSpaceOnUse">
<stop stop-color="#E8E8E8"/>
<stop offset="0.07" stop-color="#D6D7D7"/>
<stop offset="0.28" stop-color="#A4A7A8"/>
<stop offset="0.47" stop-color="#7C8283"/>
<stop offset="0.66" stop-color="#606768"/>
<stop offset="0.81" stop-color="#4F5658"/>
<stop offset="0.93" stop-color="#495153"/>
</linearGradient>
<clipPath id="clip0_944_1434">
<rect width="84" height="34" fill="white" transform="translate(3 28)"/>
</clipPath>
</defs>
</svg>
