<svg width="90" height="90" viewBox="0 0 90 90" fill="none" xmlns="http://www.w3.org/2000/svg">
<rect width="90" height="90" rx="10" fill="white"/>
<g filter="url(#filter0_i_319_2017)">
<path d="M80.715 38.3519H56.76V33.7379C56.7604 33.6758 56.7485 33.6142 56.725 33.5568C56.7015 33.4993 56.6669 33.447 56.6231 33.4029C56.5794 33.3589 56.5273 33.3239 56.47 33.3001C56.4126 33.2762 56.3511 33.2639 56.289 33.2639H33.714C33.6519 33.2639 33.5904 33.2762 33.5331 33.3001C33.4757 33.3239 33.4237 33.3589 33.3799 33.4029C33.3361 33.447 33.3015 33.4993 33.278 33.5568C33.2545 33.6142 33.2426 33.6758 33.243 33.7379V38.3519H16.074C15.813 38.3519 15.495 38.5619 15.363 38.8259L9.06002 51.1739C8.92502 51.4379 9.02702 51.6449 9.29102 51.6449H33.24V56.2649C33.24 56.5229 33.45 56.7359 33.711 56.7359H56.286C56.547 56.7359 56.757 56.5259 56.757 56.2649V51.6449H73.926C74.187 51.6449 74.505 51.4349 74.64 51.1739L80.94 38.8259C81.075 38.5649 80.973 38.3519 80.712 38.3519M73.23 41.3399L69.498 48.6509H53.802V53.7749H36.21V48.6509H16.785L20.52 41.3399H36.216V36.2189H53.808V41.3399H73.23Z" fill="#DAA520"/>
</g>
<defs>
<filter id="filter0_i_319_2017" x="9.00049" y="33.2639" width="71.999" height="27.4719" filterUnits="userSpaceOnUse" color-interpolation-filters="sRGB">
<feFlood flood-opacity="0" result="BackgroundImageFix"/>
<feBlend mode="normal" in="SourceGraphic" in2="BackgroundImageFix" result="shape"/>
<feColorMatrix in="SourceAlpha" type="matrix" values="0 0 0 0 0 0 0 0 0 0 0 0 0 0 0 0 0 0 127 0" result="hardAlpha"/>
<feOffset dy="4"/>
<feGaussianBlur stdDeviation="2"/>
<feComposite in2="hardAlpha" operator="arithmetic" k2="-1" k3="1"/>
<feColorMatrix type="matrix" values="0 0 0 0 0 0 0 0 0 0 0 0 0 0 0 0 0 0 0.25 0"/>
<feBlend mode="normal" in2="shape" result="effect1_innerShadow_319_2017"/>
</filter>
</defs>
</svg>
