<svg width="90" height="90" viewBox="0 0 90 90" fill="none" xmlns="http://www.w3.org/2000/svg">
<rect width="90" height="90" rx="10" fill="white"/>
<path d="M18.0033 80.8674H11.9352C10.9597 80.8674 9.96759 80.4695 9.22354 79.7897C8.42989 79.0768 8 78.1317 8 77.1204C8 76.109 8.42989 75.1806 9.22354 74.4511C9.96759 73.7713 10.9597 73.3734 11.9352 73.3734H18.0033V74.849H12.0179C10.7116 74.849 9.68651 75.9101 9.68651 77.1038C9.68651 78.3141 10.6951 79.3586 12.0179 79.3586H18.0033V80.8674ZM34.3724 73.39H24.2698V74.8655H28.5192V80.8674H30.123V74.8655H34.3724V73.39ZM20.7149 73.39H22.3188V80.8508H20.7149V73.39ZM55.7017 81H52.4444C50.3611 81 48.5093 79.5244 48.5093 77.2033C48.5093 74.8655 50.4107 73.2573 52.5767 73.2573H55.5529C57.7189 73.2573 59.6204 74.7329 59.6204 77.2033C59.6369 79.5244 57.8016 81 55.7017 81ZM52.5933 74.7163C51.2374 74.7163 50.1958 75.8272 50.1958 77.1867C50.1958 78.4633 51.1713 79.5244 52.4444 79.5244H55.7017C56.9749 79.5244 57.9504 78.4799 57.9504 77.1867C57.9504 75.8272 56.9087 74.7163 55.5529 74.7163H52.5933ZM65.4074 72.5278H63.0926C62.7784 72.5278 62.5304 72.2791 62.5304 71.9641C62.5304 71.6491 62.7784 71.4004 63.0926 71.4004H65.4074C65.7216 71.4004 65.9696 71.6491 65.9696 71.9641C65.953 72.2791 65.705 72.5278 65.4074 72.5278ZM69.6071 72.5278H67.2923C66.9782 72.5278 66.7302 72.2791 66.7302 71.9641C66.7302 71.6491 66.9782 71.4004 67.2923 71.4004H69.6071C69.9213 71.4004 70.1693 71.6491 70.1693 71.9641C70.1693 72.2791 69.9048 72.5278 69.6071 72.5278ZM70.8803 74.8655V73.39H61.8194V80.8674H70.8803V79.3918H63.4233V77.8665H69.9378V76.3909H63.4233V74.8655H70.8803ZM42.5899 77.8996H44.0284C45.2685 77.8996 46.4755 77.3359 46.4755 75.7111C46.4755 74.2521 45.2685 73.39 44.0284 73.39H36.2903V80.8508H37.8942V74.8655H43.9458C44.4418 74.8655 44.789 75.3629 44.789 75.7774C44.789 76.1919 44.4253 76.6893 43.9458 76.6893H39.3327V77.2033L44.4418 80.8342H46.8062L42.5899 77.8996ZM79.7262 73.39H73.162V80.8508H74.7659V74.8655H79.4616C80.5694 74.8655 81.4623 75.7608 81.4623 76.8717V80.8674H83V76.6893C83 74.8655 81.5284 73.39 79.7262 73.39ZM61.2738 16.2235C57.0741 10.918 51.4855 8 45.5 8C39.5145 8 33.9259 10.918 29.7262 16.2235C25.6091 21.4461 23.3274 28.3763 23.3274 35.7211C23.3274 43.0659 25.5926 49.9961 29.7262 55.2187C33.9259 60.5242 39.5145 63.4422 45.5 63.4422C51.4855 63.4422 57.0741 60.5242 61.2738 55.2187C65.3909 49.9961 67.6726 43.0659 67.6726 35.7211C67.6726 28.3763 65.3909 21.4461 61.2738 16.2235ZM45.5 10.4869C56.1481 10.4869 64.8452 21.3963 65.1594 34.9584L45.5 20.2192L25.8406 34.9584C26.1548 21.3963 34.8519 10.4869 45.5 10.4869ZM64.746 41.01C64.498 42.5353 64.1343 44.0109 63.6713 45.4367L45.5 31.8249L27.3287 45.4367C26.8657 44.0275 26.502 42.5353 26.254 41.01L45.5 26.5857L64.746 41.01ZM45.5 60.9718C38.8532 60.9718 32.9669 56.7275 29.412 50.2283L45.5 38.1583L61.588 50.2283C58.0331 56.7275 52.1468 60.9718 45.5 60.9718Z" fill="#DA291C"/>
</svg>
