<svg width="90" height="90" viewBox="0 0 90 90" fill="none" xmlns="http://www.w3.org/2000/svg">
<rect width="90" height="90" rx="10" fill="white"/>
<path d="M44.2498 8.2875C35.9936 8.29688 26.5686 8.77188 23.4373 9.0375C20.0217 9.32813 19.4092 9.55 19.4061 12.4344L19.378 15.0531C19.353 17.1094 19.3155 20.0125 19.3155 23.2812C19.3155 28.6063 19.6311 34.8969 20.0217 40.0719C20.4405 45.575 20.7717 49.9219 27.703 54.0562C33.028 57.2312 42.2905 61.8187 42.3811 61.8625C42.9155 62.1281 44.1467 62.7219 44.5655 62.8844C44.6962 62.9 44.8284 62.9 44.9592 62.8844C45.3873 62.7156 46.7467 62.0406 47.4155 61.7406C47.4811 61.7125 53.9061 58.7719 61.8155 54.0562C68.7467 49.9219 69.078 45.575 69.4998 40.0687C69.8905 34.8937 70.2061 28.6 70.2061 23.275C70.2061 20.0094 70.1686 17.1063 70.1436 15.05L70.1186 12.4313C70.1061 9.89062 69.6248 9.32813 66.0842 9.03438C62.953 8.775 53.528 8.29062 45.2717 8.28125H44.2498V8.2875ZM45.278 7C53.503 7.00938 62.9248 7.43437 66.2155 7.75937C70.3936 8.16875 71.4092 8.36562 71.4092 12.4344C71.4092 15.6437 71.5561 29.9938 70.7873 40.1688C70.3561 45.8125 69.9842 50.6844 62.4811 55.1625C57.7138 58.0082 52.8008 60.6023 47.7623 62.9344C46.7905 63.3656 45.5092 64.0906 45.2498 64.1437C44.9274 64.2016 44.5973 64.2016 44.2748 64.1437C43.9873 64.0844 42.4217 63.3156 41.8186 63.0188C41.2155 62.725 32.2342 58.2531 27.0498 55.1625C19.5467 50.6875 19.1748 45.8156 18.7436 40.1688C17.9717 29.9938 18.1186 15.6406 18.1186 12.4344C18.1186 8.36562 19.1342 8.16875 23.3123 7.75937C26.603 7.43437 36.0248 7.00938 44.2498 7H45.278ZM33.1092 14.225C39.203 14.225 42.3436 19.425 44.1467 23.2125L43.5811 26.3094C40.4248 19.7469 36.6592 15.5719 32.0998 15.5719C27.1717 15.5719 24.3967 21.8594 23.6842 22.9187C24.9561 19.6875 28.6561 14.225 33.1092 14.225ZM65.4311 22.9219C64.7155 21.8625 61.9436 15.575 57.0155 15.575C52.4561 15.575 48.6936 19.75 45.5342 26.3125L44.9655 23.2125C46.7655 19.425 49.9061 14.225 56.003 14.225C60.4592 14.225 64.1623 19.6875 65.4311 22.9219ZM54.6686 35.7969C54.1592 36.0187 53.7686 36.1625 53.7686 36.1625L54.0748 33.5187L55.7061 31.3813C56.2092 33.7844 56.1717 35.1406 54.6686 35.7969ZM34.7498 35.7969C33.2467 35.1406 33.2092 33.7844 33.7123 31.3781L35.3436 33.5156L35.6498 36.1594C35.6498 36.1594 35.2561 36.0187 34.7498 35.7969ZM60.8967 22.0156C56.9092 21.9375 53.4561 25.0187 51.1248 32.4906L52.4342 33.3156L51.8936 36.4344L48.9186 37.4906L48.3342 41.5281L49.778 39.6937L51.8061 39.2812L50.903 41.7125L48.1061 43.2719L47.1123 49.7844L47.4873 52.2313L44.6123 53.3438V53.3469L41.9748 52.2313L42.3498 49.7844L41.3561 43.2719L38.5592 41.7125L37.6592 39.2812L39.6873 39.6937L41.1311 41.5281L40.5436 37.4906L37.5686 36.4344L37.028 33.3156L38.3342 32.4906C36.0061 25.0219 32.553 21.9406 28.5623 22.0156C25.3748 22.0781 23.0061 25.7937 23.2717 29.7219L26.0373 30.05C27.028 35.5906 27.9498 42.6281 30.0373 42.6281C30.6717 42.6281 30.6998 41.6313 30.6998 40.825C30.6998 38.8656 29.5186 36.5125 29.5186 32.7781C29.5186 31.0531 30.078 29.5688 31.353 29.5688C32.2186 29.5688 32.6092 29.8 33.0155 30.5531C32.6717 33.1094 32.6592 35.3031 34.6561 36.6562C35.0967 36.9531 36.0498 37.85 36.0498 37.85C36.0498 37.85 37.6905 44.3094 37.7905 44.7406C37.8842 45.1344 38.1155 45.6719 38.2936 46L40.3748 49.6344C40.3748 49.6344 40.9967 53.5375 41.128 54.2125C41.4561 55.8781 43.153 56.0219 44.5373 56.0344H44.9217C46.3092 56.025 48.003 55.8812 48.3311 54.2125C48.4623 53.5406 49.0842 49.6344 49.0842 49.6344L51.1655 46C51.3436 45.6719 51.578 45.1344 51.6686 44.7406C51.7686 44.3094 53.4123 37.85 53.4123 37.85C53.4123 37.85 54.3655 36.9531 54.8061 36.6562C56.7998 35.3031 56.7905 33.1094 56.4436 30.5531C56.853 29.8 57.2405 29.5688 58.1061 29.5688C59.3811 29.5688 59.9405 31.0531 59.9405 32.7781C59.9405 36.5156 58.7592 38.8656 58.7592 40.825C58.7592 41.6344 58.7842 42.6281 59.4217 42.6281C61.5061 42.6281 62.4311 35.5906 63.4186 30.05L66.1842 29.7219C66.453 25.7937 64.0842 22.0781 60.8967 22.0156ZM45.4186 11.6094C51.4436 11.6094 63.6936 12.225 64.4811 12.3031C65.4998 12.3937 66.1717 12.5344 66.3998 12.7812C66.628 13.0125 66.6967 13.275 66.7342 13.8562C66.7717 14.3969 66.8061 16.5375 66.8061 16.5406C66.828 18.4531 66.8623 21.15 66.8623 24.1844C66.8623 25.9656 66.8498 27.8594 66.8186 29.7812L67.2311 30.05C67.2655 28.0375 67.278 26.0469 67.278 24.1844C67.278 21.1469 67.2436 18.4469 67.2217 16.5344C67.2217 16.5312 67.1873 14.3969 67.1498 13.8281C67.1123 13.2375 67.0311 12.8187 66.6936 12.4844C66.2686 12.0781 65.5498 11.9938 64.5217 11.8844C63.6936 11.8031 51.4748 11.1906 45.4186 11.1875C44.5498 11.1937 43.6342 11.1781 42.7498 11.1781C35.4905 11.1781 25.8155 11.8344 25.0155 11.8844C23.8311 11.9625 23.203 11.9875 22.7748 12.475C22.4436 12.8812 22.3467 13.4844 22.3248 14.0781C22.3092 14.6563 22.303 16.5344 22.303 16.5375C22.2811 18.4469 22.2467 21.15 22.2467 24.1875C22.2467 26.0219 22.2592 27.9812 22.2936 29.9625L22.7061 29.6938C22.6748 27.8062 22.6655 25.9406 22.6655 24.1875C22.6655 21.1531 22.6998 18.4531 22.7217 16.5406C22.7217 16.5375 22.728 14.6562 22.7467 14.0906C22.7592 13.5406 22.8748 13.0031 23.0998 12.7438C23.3311 12.4437 23.8373 12.3688 25.0405 12.3031C25.8436 12.2531 35.5061 11.5969 42.7436 11.5969L45.4186 11.6094ZM67.6717 30.5812L67.2155 31.4469C67.2155 31.4469 65.3967 31.6375 65.3342 31.6375C64.4561 38.6344 61.6155 46.1063 58.5123 46.1063C57.4905 46.1063 57.4623 44.5219 57.4623 42.6344C57.4623 41.8313 57.5748 41.1156 57.6998 40.4875C57.3686 41.1031 56.7967 43.3563 56.7967 45.2812C56.7967 47.5312 58.0623 48.7687 60.2248 48.7687C62.4186 48.7687 64.253 47.6969 65.453 45.7031C64.678 47.8469 63.1655 49.7063 59.9311 51.65C55.5822 54.2496 51.0988 56.6175 46.4998 58.7438C45.9342 58.9969 45.1998 59.3281 44.6217 59.575C44.0905 59.3281 43.5811 59.0719 43.153 58.8625C43.0748 58.825 34.4998 54.5781 29.5905 51.65C26.5623 49.8344 25.0436 48.0875 24.228 46.1125C25.4217 47.8344 27.0873 48.7687 29.1186 48.7687C31.2811 48.7687 32.5467 47.5312 32.5467 45.2812C32.5467 43.3563 31.978 41.1031 31.6436 40.4875C31.7717 41.1156 31.8811 41.8313 31.8811 42.6344C31.8811 44.5188 31.853 46.1063 30.8311 46.1063C27.728 46.1063 24.878 38.6 24.003 31.6031L22.2405 31.4219L21.678 30.3719C21.678 30.3719 21.5748 33.7312 21.6873 35.9344C21.7998 38.1406 22.0311 40.0344 22.7405 42.7156C22.8748 43.2281 23.0311 43.7094 23.2092 44.1594C23.828 47.1156 25.2655 49.5625 29.378 52C34.3155 54.9437 42.8842 59.1875 42.9686 59.2281C43.4342 59.4562 44.0592 59.7687 44.6155 60.0219C45.2217 59.7687 46.0498 59.3937 46.6717 59.1156C46.7373 59.0844 52.8311 56.3563 60.1467 51.9969C64.703 49.2969 65.9748 46.5875 66.4873 43.1844C66.528 43.0281 66.5717 42.8719 66.6092 42.7094C67.2155 39.9969 67.4655 38.5781 67.578 36.3719C67.678 34.4781 67.6748 31.4 67.6717 30.5812Z" fill="#C8102E"/>
<path fill-rule="evenodd" clip-rule="evenodd" d="M71.5812 71.0004C71.4356 71.0002 71.2971 71.0634 71.2019 71.1736L63.0295 80.6358C62.7497 80.9598 62.9799 81.4626 63.4079 81.4626H66.5139C66.6593 81.4626 66.7975 81.3993 66.8925 81.2892L75.0499 71.833C75.3291 71.5093 75.0997 71.0072 74.6723 71.0064L71.5812 71.0004ZM77.8202 71.0004C77.6746 71.0002 77.5361 71.0634 77.4409 71.1736L69.2685 80.6358C68.9887 80.9598 69.2189 81.4626 69.6469 81.4626H72.7529C72.8983 81.4626 73.0365 81.3993 73.1315 81.2892L81.2889 71.833C81.5681 71.5093 81.3387 71.0072 80.9113 71.0064L77.8202 71.0004Z" fill="#C8102E"/>
<path fill-rule="evenodd" clip-rule="evenodd" d="M25.7073 73.5153C24.4238 73.5113 19.9207 73.6247 19.9207 75.6839C19.9207 77.1328 22.0274 77.5502 23.7666 77.7377C24.9978 77.8705 26.0415 77.8641 26.0415 77.8641C26.0415 77.8641 27.0201 77.9031 28.2053 77.836C30.044 77.7313 32.3848 77.317 32.3848 75.6833C32.3848 73.5264 26.2728 73.5186 26.0372 73.5186C26.0079 73.5186 25.8906 73.5156 25.7073 73.5153ZM13.6185 73.5754L7.64809 73.5779C7.64809 73.5779 7.36835 73.5537 7.20141 73.684C7.04597 73.8056 7.04415 74.0799 7.04415 74.0799L7 77.3225C7 77.8248 7.57007 77.7852 7.57007 77.7852L13.8272 77.7803C13.8272 77.7803 15.8837 77.8314 17.286 77.3563C18.2054 77.0451 18.6781 76.4485 18.6781 75.6906C18.6781 74.8426 17.8615 74.2571 16.7547 73.9498C15.3638 73.5643 13.6185 73.5754 13.6185 73.5754ZM40.2384 73.5754L34.2692 73.5779C34.2692 73.5779 33.9894 73.5537 33.8228 73.684C33.6668 73.8056 33.6655 74.0799 33.6655 74.0799L33.6205 77.3225C33.6205 77.8248 34.1906 77.7852 34.1906 77.7852L40.4495 77.7803C40.4495 77.7803 42.503 77.8314 43.9062 77.3563C44.8256 77.0451 45.3004 76.4485 45.3004 75.6906C45.3004 74.8426 44.4838 74.2571 43.3739 73.9498C41.9858 73.5643 40.2378 73.5754 40.2378 73.5754H40.2384ZM58.1025 73.58L51.177 73.5854C51.177 73.5854 50.6629 73.5824 49.9795 73.6438C48.6095 73.7666 46.553 74.1845 46.553 75.6839C46.553 76.3816 46.931 76.8758 47.5843 77.1879C49.0056 77.8308 51.4795 77.7828 51.4795 77.7828H57.661C58.2023 77.7828 58.2568 77.4628 58.2568 77.2469C58.2568 77.0312 58.2719 76.176 58.2719 75.6839C58.2719 75.1922 57.7396 75.2339 57.7396 75.2339H52.2386C51.9966 75.2339 51.9966 75.4308 51.9966 75.4308C51.9966 75.4308 51.9845 75.6842 51.9845 75.9092C51.9845 76.1348 52.2144 76.1288 52.2144 76.1288H55.3868C55.5954 76.1288 55.6196 76.2972 55.6196 76.2972V76.6783C55.6196 76.8743 55.411 76.8873 55.411 76.8873H51.7698C51.2073 76.8873 49.2355 76.8873 49.2355 75.6839C49.2355 74.4809 51.5641 74.4697 51.5641 74.4697H58.0693C58.3324 74.4697 58.2961 74.1531 58.2961 74.1531V73.7569C58.2961 73.5845 58.157 73.58 58.1025 73.58ZM60.2376 73.583C59.7507 73.583 59.5935 73.6625 59.5784 74.1122C59.5663 74.4679 59.5269 76.6898 59.5269 77.2039C59.5269 77.7174 59.8112 77.7828 60.1499 77.7828H70.1178C70.3416 77.7828 70.3325 77.6092 70.3325 77.5695V77.0745C70.3325 76.8861 70.0573 76.8873 70.0573 76.8873H62.5179C62.2246 76.8873 62.2336 76.7052 62.2336 76.7052C62.2336 76.7052 62.2367 76.5328 62.2367 76.3402C62.2367 76.1482 62.4121 76.117 62.4967 76.117H69.5916C69.8003 76.117 69.7972 75.921 69.7972 75.921V75.4308C69.7972 75.2188 69.5402 75.227 69.5402 75.227H62.4725C62.2367 75.227 62.2336 74.9878 62.2336 74.9878L62.2397 74.7207C62.2397 74.4891 62.4725 74.4697 62.4725 74.4697H69.9484C70.1692 74.4697 70.1995 74.3103 70.1995 74.1531V73.7569C70.1995 73.5658 69.9363 73.583 69.9363 73.583H60.2376ZM26.0578 74.4083C26.6826 74.4083 29.7035 74.4628 29.7035 75.6988C29.7065 77.0267 26.8846 76.9499 26.0578 76.9499C25.2304 76.9499 22.6235 76.8991 22.6235 75.6988C22.6235 74.3705 25.4324 74.4083 26.0575 74.4083H26.0578ZM13.6745 74.4697C13.6745 74.4697 14.514 74.5021 15.1557 74.7455C15.6587 74.9363 15.9983 75.2805 15.9983 75.6857C15.9983 76.0269 15.7772 76.3707 15.3774 76.554C14.6936 76.867 13.6715 76.8861 13.6715 76.8861L9.81919 76.8885C9.81919 76.8885 9.60144 76.8939 9.60144 76.6922C9.60144 76.6922 9.63592 74.6971 9.63592 74.6711C9.63592 74.6448 9.6335 74.4721 9.86334 74.4721L13.6745 74.4697ZM40.2944 74.4697C40.2944 74.4697 41.1351 74.5021 41.7762 74.7455C42.2813 74.9363 42.62 75.2805 42.62 75.6857C42.62 76.0269 42.3992 76.3707 41.997 76.554C41.3135 76.867 40.2913 76.8861 40.2913 76.8861L36.44 76.8885C36.44 76.8885 36.2234 76.8939 36.2234 76.6922C36.2234 76.6922 36.2567 74.6971 36.2567 74.6711C36.2567 74.6448 36.2546 74.4721 36.4844 74.4721L40.2944 74.4697Z" fill="#3B3B3B"/>
</svg>
