<svg width="90" height="90" viewBox="0 0 90 90" fill="none" xmlns="http://www.w3.org/2000/svg">
<rect width="90" height="90" rx="10" fill="white"/>
<g clip-path="url(#clip0_945_1615)">
<path d="M10.0981 69.0569C11.7529 69.0569 12.5553 69.9144 12.5553 71.478C12.5553 72.9408 11.7529 73.8991 10.048 73.8991H8.59375V69.0569H10.0981ZM11.8532 71.478C11.8532 70.1666 11.2013 69.6118 9.94769 69.6118H9.1955V73.3947H9.8474C11.3016 73.3947 11.8532 72.7895 11.8532 71.478ZM17.269 69.864C17.0684 69.6622 16.6673 69.5613 16.2661 69.5613C15.564 69.5613 15.213 69.864 15.213 70.2675C15.213 70.671 15.4638 70.8223 16.1157 71.125C17.269 71.6294 17.7203 71.8311 17.7203 72.6381C17.7203 73.2939 17.2189 74 15.9652 74C15.3133 74 14.6614 73.7983 14.2602 73.4956L14.5611 72.9912C14.9121 73.2434 15.4638 73.4452 16.0154 73.4452C16.7676 73.4452 17.1186 73.0921 17.1186 72.6381C17.1186 72.2346 16.7676 72.0833 15.9652 71.7302C14.9623 71.3267 14.5611 71.0241 14.5611 70.2675C14.5611 69.5613 15.0626 68.9561 16.2661 68.9561C16.7174 68.9561 17.2189 69.1074 17.5197 69.3596L17.269 69.864ZM26.2451 73.9496H25.6434L25.1921 72.5877H22.9355L22.4842 73.9496H21.8323C22.3338 72.3355 22.9355 70.6206 23.7378 69.0569H24.2895C24.8912 70.1162 25.7938 72.4364 26.2451 73.9496ZM24.9915 72.0329C24.7408 71.3267 24.3897 70.4188 24.0387 69.7631C23.7378 70.2675 23.3367 71.3772 23.0859 72.0329H24.9915ZM31.3099 69.0569H31.9618V72.0329C31.9618 73.0417 31.6609 73.9496 30.1565 73.9496C29.5046 73.9496 28.953 73.7478 28.6522 73.3443C28.3513 72.9408 28.3011 72.4868 28.3011 71.9824V69.0065H28.953V71.8816C28.953 72.739 29.1035 73.3947 30.1064 73.3947C31.1093 73.3947 31.3099 72.739 31.3099 71.8816V69.0569ZM36.2242 73.9496H35.6225V69.6622H34.1682V69.1074H37.7286V69.6622H36.2242V73.9496ZM39.4335 71.478C39.4335 70.0153 40.3863 69.0065 41.7904 69.0065C43.1945 69.0065 44.1473 70.0153 44.1473 71.478C44.1473 72.8399 43.3449 74 41.7904 74C40.3863 74 39.4335 72.9912 39.4335 71.478ZM40.0854 71.478C40.0854 72.5373 40.6872 73.4452 41.7904 73.4452C42.9438 73.4452 43.4954 72.4868 43.4954 71.478C43.4954 70.4188 42.8435 69.5613 41.7904 69.5613C40.7875 69.5613 40.0854 70.3179 40.0854 71.478ZM51.6692 69.0569V73.8991H51.0173V69.7126C50.8167 70.0153 50.3654 70.7719 50.1648 71.125C49.9642 71.478 49.7135 72.0833 49.5129 72.4868H48.8109C48.4097 71.5789 47.8581 70.5701 47.3065 69.7126V73.8991H46.6546V69.0569H47.5572C48.1088 69.8135 48.3094 70.1162 48.5601 70.5701C48.861 71.0745 48.9613 71.2763 49.1619 71.7807C49.563 70.8728 50.1648 69.864 50.7665 69.0569H51.6692ZM54.1263 71.478C54.1263 70.0153 55.0791 69.0065 56.4832 69.0065C57.8873 69.0065 58.8401 70.0153 58.8401 71.478C58.8401 72.8399 58.0377 74 56.4832 74C55.0791 74 54.1263 72.9912 54.1263 71.478ZM54.8284 71.478C54.8284 72.5373 55.4301 73.4452 56.5333 73.4452C57.6867 73.4452 58.2383 72.4868 58.2383 71.478C58.2383 70.4188 57.5864 69.5613 56.5333 69.5613C55.4803 69.5613 54.8284 70.3179 54.8284 71.478ZM64.657 72.5877C64.657 73.0417 64.4564 73.3947 64.1054 73.6469C63.7544 73.8991 63.3532 73.9496 62.8016 73.9496H61.3474V69.1074H62.7514C63.7042 69.1074 64.2057 69.6118 64.2057 70.3684C64.2057 70.8223 64.0051 71.1754 63.5538 71.3772C64.2558 71.478 64.657 71.9824 64.657 72.5877ZM61.9993 71.2258H62.6512C63.2529 71.2258 63.6039 71.0241 63.6039 70.4188C63.6039 69.864 63.2529 69.6118 62.6512 69.6118H61.9993V71.2258ZM64.0051 72.5373C64.0051 71.8816 63.5036 71.6798 62.7514 71.6798H61.9993V73.4452H62.8016C63.6541 73.4452 64.0051 73.1425 64.0051 72.5373ZM67.3147 69.0569H67.9666V73.8991H67.3147V69.0569ZM71.6774 73.3947H73.7836V73.9496H71.0255V69.0569H71.6774V73.3947ZM76.6419 69.6622V71.0745H78.3469V71.6294H76.6419V73.3947H78.8985V73.9496H75.99V69.0569H78.748V69.6622H76.6419ZM84.0134 69.864C83.8128 69.6622 83.4116 69.5613 83.0104 69.5613C82.3084 69.5613 81.9574 69.864 81.9574 70.2675C81.9574 70.671 82.2081 70.8223 82.86 71.125C84.0134 71.6294 84.4647 71.8311 84.4647 72.6381C84.4647 73.2939 83.9632 74 82.7096 74C82.0577 74 81.4058 73.7983 81.0046 73.4956L81.3055 72.9912C81.6565 73.2434 82.2081 73.4452 82.7597 73.4452C83.5119 73.4452 83.8629 73.0921 83.8629 72.6381C83.8629 72.2346 83.5119 72.0833 82.7096 71.7302C81.7066 71.3267 81.3055 71.0241 81.3055 70.2675C81.3055 69.5613 81.8069 68.9561 83.0104 68.9561C83.4617 68.9561 83.9632 69.1074 84.2641 69.3596L84.0134 69.864Z" fill="black"/>
<path d="M64.8387 46.2135C64.6883 46.0622 63.8859 45.356 63.8859 45.356L47.9395 32.8975C50.6975 35.6212 54.7593 40.0599 56.013 43.9942C56.364 45.0534 56.5145 46.0622 56.5145 46.9701C56.5145 47.7771 56.3139 48.6851 56.013 49.593C55.3611 51.2575 54.0072 53.1742 51.9512 55.3431C51.2491 56.0997 48.1902 59.1261 47.1873 60.1348C46.9867 60.3366 46.8363 60.6392 46.7861 60.9923V61.9002L64.6883 47.878C64.8888 47.7267 65.29 47.4241 65.29 46.9197C65.2399 46.617 64.939 46.3144 64.8387 46.2135Z" fill="url(#paint0_linear_945_1615)"/>
<path d="M53.3053 56.1501C53.205 56.0492 56.7153 53.5273 58.6709 49.2399C59.2226 48.0293 59.4733 47.525 60.6266 47.4241C61.8301 47.3232 63.2844 47.2223 63.9864 47.1719C64.2873 47.1719 64.3876 47.2223 64.4377 47.3736C64.4879 47.4745 64.3876 47.6258 64.1369 47.7772C62.2815 49.0886 59.5234 51.3584 55.7625 54.3343C55.612 54.5361 53.3555 56.2006 53.3053 56.1501Z" fill="url(#paint1_linear_945_1615)"/>
<path d="M55.9126 34.3095C55.5616 33.2503 55.4111 32.2415 55.4111 31.3336C55.4111 30.5266 55.6117 29.6186 55.9126 28.7107C56.5645 27.0462 57.9184 25.1295 59.9744 22.9606C60.6263 22.2545 63.3342 19.5307 64.7383 18.1689C64.989 17.9167 65.0893 17.6645 65.1896 17.3114C65.2397 17.0087 65.2397 16.7565 65.2397 16.6557V16.353L47.2875 30.3752C47.1872 30.4761 46.8863 30.7283 46.7359 31.031C46.6857 31.1318 46.6857 31.384 46.7359 31.5858C46.8361 31.838 46.9866 31.9893 47.0869 32.0902C47.2373 32.1911 47.9895 32.8468 47.9895 32.8468L63.9359 45.3054C61.1278 42.5816 57.1662 38.1429 55.9126 34.3095Z" fill="url(#paint2_linear_945_1615)"/>
<path d="M55.0101 34.0572C54.7092 33.1493 54.5086 32.1909 54.5086 31.283C54.5086 30.4255 54.7594 29.6185 55.0602 28.761C56.5145 25.1798 63.3845 19.0766 64.7886 17.9165C63.6352 18.8244 58.5705 23.1622 57.2667 24.5241C55.1104 26.6426 53.4556 29.0132 53.4556 31.3334C53.4556 33.8554 55.2107 36.4278 57.2165 38.7985C58.4702 40.3117 59.6737 41.6231 60.8772 42.6824C62.1308 43.8425 62.9833 44.5991 63.8859 45.3052C62.883 44.3469 56.6649 38.7985 55.0101 34.0572Z" fill="black"/>
<path d="M54.709 39.505C53.4554 37.9918 52.2519 36.6804 51.0484 35.6211C49.7947 34.461 48.8419 33.6036 47.9393 32.8974C48.9924 33.8053 55.2606 39.505 56.8653 44.1959C57.1662 45.1038 57.3668 46.0621 57.3668 46.9701C57.3668 47.8275 57.116 48.6346 56.8152 49.492C55.3108 53.0733 48.4909 59.1764 47.0367 60.3366V60.387C48.2402 59.4791 53.3049 55.1413 54.6087 53.7794C56.765 51.6609 58.4198 49.2903 58.4198 46.9701C58.4198 44.4481 56.6647 41.8757 54.709 39.505ZM39.9661 31.2833C39.9661 33.8053 38.2611 36.3273 36.0046 38.6475C34.5503 40.1103 33.0961 41.4217 31.7422 42.4809C30.3381 43.641 29.2349 44.3976 28.2319 45.1038C29.3853 44.1959 36.4559 38.698 38.3113 34.0071C38.6623 33.0992 38.8629 32.1913 38.8629 31.2833C38.8629 30.3754 38.6623 29.4675 38.3113 28.5596C36.4559 23.8687 29.3853 18.3708 28.2319 17.4629C29.2349 18.169 30.3381 18.9256 31.7422 20.0858C33.0961 21.145 34.5503 22.4564 36.0046 23.9192C38.2611 26.2394 39.9661 28.8118 39.9661 31.2833Z" fill="black"/>
<path d="M28.232 45.1039L27.9312 45.3057V17.2612L28.232 17.463C29.2851 18.3709 35.8542 23.8688 37.5592 28.5597C37.9102 29.4676 38.1108 30.3755 38.1108 31.2834C38.1108 32.1914 37.9102 33.0993 37.5592 34.0072C35.8041 38.6981 29.2851 44.196 28.232 45.1039Z" fill="url(#paint3_linear_945_1615)"/>
<path d="M28.2319 45.1038C29.3853 44.1959 36.4559 38.698 38.3113 34.0071C38.6623 33.0992 38.8629 32.1913 38.8629 31.2833C38.8629 30.3754 38.6623 29.4675 38.3113 28.5596C36.4559 23.8687 29.3853 18.3708 28.2319 17.4629C29.285 18.3708 35.8541 23.8687 37.5591 28.5596C37.9101 29.4675 38.1107 30.3754 38.1107 31.2833C38.1107 32.1913 37.9101 33.0992 37.5591 34.0071C35.804 38.698 29.285 44.1959 28.2319 45.1038Z" fill="url(#paint4_linear_945_1615)"/>
<path d="M64.939 46.1124C63.6352 44.8515 57.6678 39.1518 56.0631 34.2591C55.7121 33.2503 55.5617 32.292 55.5617 31.3336C55.5617 30.4762 55.7622 29.6691 56.0631 28.8117C56.8153 26.895 58.42 24.8269 60.0748 23.112C60.7768 22.3554 63.8357 19.329 64.8387 18.2698C65.0894 18.0176 65.2398 17.7149 65.29 17.4123C65.3401 17.1097 65.3903 16.807 65.3903 16.6053V16.0504L47.1873 30.224C46.9867 30.3753 46.6858 30.6275 46.5855 31.031C46.4852 30.6779 46.1843 30.3753 45.9838 30.224L27.7808 16V46.6168L45.9838 32.3929C46.1843 32.2416 46.4852 31.9894 46.5855 31.5858C46.6858 31.8885 46.8864 32.1407 46.9867 32.1911C48.2905 33.4521 54.308 39.1518 55.9127 44.0444C56.2637 45.0532 56.4141 46.0116 56.4141 46.9699C56.4141 47.8274 56.2136 48.6344 55.9127 49.4919C55.1605 51.4086 53.5558 53.4766 51.901 55.1916C51.1989 55.9482 48.14 59.025 47.1371 60.0338C46.9365 60.2355 46.736 60.5886 46.6858 60.8913C46.6357 61.1434 46.5855 61.3956 46.5855 61.6983V62.2531L64.7885 48.0292C65.0392 47.8274 65.4404 47.4743 65.4404 46.9699C65.3903 46.516 65.0392 46.2133 64.939 46.1124ZM45.8835 32.2416L27.9312 46.2638V16.3531L45.8333 30.3753C46.0339 30.5266 46.4351 30.8797 46.4351 31.3336C46.4351 31.7372 46.0841 32.0902 45.8835 32.2416ZM46.736 31.5858C46.6858 31.3841 46.6858 31.1823 46.736 31.031C46.8362 30.7284 47.1371 30.4762 47.2876 30.3753L65.1897 16.3531V16.6053C65.1897 16.7062 65.1897 16.9584 65.1395 17.261C65.0894 17.6141 64.939 17.9167 64.6882 18.1185C63.3343 19.4803 60.5763 22.2041 59.9244 22.9102C57.8684 25.0791 56.5144 26.9958 55.8625 28.6603C55.5115 29.5683 55.3611 30.4257 55.3611 31.2832C55.3611 32.2416 55.5617 33.2503 55.8625 34.2591C57.1162 38.143 61.0777 42.5312 63.8357 45.255L47.9896 32.8468C47.9896 32.8468 47.2374 32.1911 47.087 32.0902C46.9867 31.9894 46.8362 31.7876 46.736 31.5858ZM64.6381 47.9283L46.736 61.9505V61.6983C46.736 61.4461 46.7861 61.2443 46.7861 61.0426C46.8362 60.6895 46.9867 60.3869 47.2374 60.1851L52.0013 55.3933C54.0573 53.2244 55.4112 51.3077 56.0631 49.6432C56.4141 48.7353 56.5646 47.8778 56.5646 47.0204C56.5646 46.062 56.364 45.0532 56.0631 44.0444C54.7593 40.1101 50.7476 35.6714 47.9896 32.9477L63.9862 45.4567C63.9862 45.4567 64.7885 46.1629 64.939 46.3142C65.0392 46.4151 65.3401 46.7177 65.3401 47.0708C65.2398 47.4239 64.8387 47.777 64.6381 47.9283Z" fill="black"/>
<path d="M58.2697 40.463C58.3199 40.4125 56.4645 38.5967 56.2137 38.3949C54.1577 36.4782 52.5029 33.5023 52.5029 33.5023C51.9012 32.2918 51.7006 31.7874 50.5472 31.6865C49.3437 31.5856 48.5414 31.5352 47.8393 31.5352C47.5385 31.5352 47.4382 31.5856 47.388 31.7369C47.3379 31.8378 47.4382 31.9891 47.6889 32.1404C49.5443 33.4519 52.3023 35.6712 56.0633 38.6976C56.314 38.8489 58.2196 40.5134 58.2697 40.463Z" fill="url(#paint5_linear_945_1615)"/>
<path d="M27.9312 45.3558L28.232 45.154C29.2349 44.4479 30.3382 43.6913 31.7422 42.5312C33.0962 41.472 34.5504 40.1605 36.0047 38.6978C38.2612 36.3776 39.9662 33.8556 39.9662 31.3336C39.9662 28.8116 38.2612 26.2896 36.0047 23.9694C34.5504 22.5067 33.0962 21.1952 31.7422 20.136C30.3382 18.9759 29.2349 18.2193 28.232 17.5131L27.9312 17.3114V16.353L45.8333 30.3752C46.0339 30.5266 46.435 30.8796 46.435 31.3336C46.435 31.7875 46.084 32.0902 45.8333 32.2919L27.9312 46.2637V45.3558Z" fill="url(#paint6_linear_945_1615)"/>
<path d="M34.6509 40.463C34.6509 40.463 35.1022 40.009 36.1553 39.0507C36.406 38.8489 36.6567 38.5967 36.8573 38.3949C38.9133 36.4782 40.5681 33.5023 40.5681 33.5023C41.1699 32.2918 41.3704 31.7874 42.5238 31.6865C43.7273 31.5856 44.5296 31.5352 45.2317 31.5352C45.5326 31.5352 45.6329 31.5856 45.683 31.7369C45.7331 31.8378 45.6329 31.9891 45.3821 32.1404C43.5267 33.4519 40.8188 35.7216 37.0077 38.6976C36.757 38.8993 36.5063 39.1011 36.2556 39.2524C35.2526 40.009 34.701 40.5134 34.6509 40.463Z" fill="url(#paint7_linear_945_1615)"/>
</g>
<defs>
<linearGradient id="paint0_linear_945_1615" x1="56.0321" y1="32.8897" x2="56.0321" y2="61.9225" gradientUnits="userSpaceOnUse">
<stop offset="0.04" stop-color="#8C8C8C"/>
<stop offset="0.194" stop-color="#B6B6B6"/>
<stop offset="0.403" stop-color="#EBEBEB"/>
<stop offset="0.506" stop-color="white"/>
<stop offset="0.564" stop-color="#FAFAFA"/>
<stop offset="0.633" stop-color="#EBEBEB"/>
<stop offset="0.707" stop-color="#D3D3D3"/>
<stop offset="0.786" stop-color="#B2B2B2"/>
<stop offset="0.868" stop-color="#878787"/>
<stop offset="0.952" stop-color="#535353"/>
<stop offset="0.96" stop-color="#4D4D4D"/>
</linearGradient>
<linearGradient id="paint1_linear_945_1615" x1="58.5164" y1="47.6021" x2="58.9625" y2="55.6453" gradientUnits="userSpaceOnUse">
<stop stop-color="#BFBFBF"/>
<stop offset="0.212" stop-color="#666666"/>
<stop offset="0.274" stop-color="#595959"/>
<stop offset="0.516" stop-color="#292929"/>
<stop offset="0.701" stop-color="#0B0B0B"/>
<stop offset="0.806"/>
</linearGradient>
<linearGradient id="paint2_linear_945_1615" x1="55.9806" y1="16.3499" x2="55.9806" y2="45.294" gradientUnits="userSpaceOnUse">
<stop offset="0.04" stop-color="#8C8C8C"/>
<stop offset="0.194" stop-color="#B6B6B6"/>
<stop offset="0.403" stop-color="#EBEBEB"/>
<stop offset="0.506" stop-color="white"/>
<stop offset="0.564" stop-color="#FAFAFA"/>
<stop offset="0.633" stop-color="#EBEBEB"/>
<stop offset="0.707" stop-color="#D3D3D3"/>
<stop offset="0.786" stop-color="#B2B2B2"/>
<stop offset="0.868" stop-color="#878787"/>
<stop offset="0.952" stop-color="#535353"/>
<stop offset="0.96" stop-color="#4D4D4D"/>
</linearGradient>
<linearGradient id="paint3_linear_945_1615" x1="23.116" y1="20.0441" x2="39.1671" y2="23.6744" gradientUnits="userSpaceOnUse">
<stop offset="0.018" stop-color="#F5F5F5"/>
<stop offset="0.327" stop-color="#F0F0F0"/>
<stop offset="0.687" stop-color="#E2E2E2"/>
<stop offset="0.727" stop-color="#E0E0E0"/>
<stop offset="0.96" stop-color="#B3B3B3"/>
</linearGradient>
<linearGradient id="paint4_linear_945_1615" x1="33.5451" y1="45.108" x2="33.5451" y2="17.4771" gradientUnits="userSpaceOnUse">
<stop offset="0.04" stop-color="#4D4D4D"/>
<stop offset="0.048" stop-color="#5A5A5A"/>
<stop offset="0.077" stop-color="#808080"/>
<stop offset="0.109" stop-color="#A3A3A3"/>
<stop offset="0.144" stop-color="#C0C0C0"/>
<stop offset="0.182" stop-color="#D7D7D7"/>
<stop offset="0.226" stop-color="#E9E9E9"/>
<stop offset="0.279" stop-color="#F6F6F6"/>
<stop offset="0.348" stop-color="#FDFDFD"/>
<stop offset="0.506" stop-color="white"/>
<stop offset="0.631" stop-color="#FDFDFD"/>
<stop offset="0.701" stop-color="#F5F5F5"/>
<stop offset="0.756" stop-color="#E7E7E7"/>
<stop offset="0.805" stop-color="#D3D3D3"/>
<stop offset="0.848" stop-color="#BABABA"/>
<stop offset="0.888" stop-color="#9B9B9B"/>
<stop offset="0.925" stop-color="#777777"/>
<stop offset="0.96" stop-color="#4D4D4D"/>
</linearGradient>
<linearGradient id="paint5_linear_945_1615" x1="53.1944" y1="31.8918" x2="52.7193" y2="39.9676" gradientUnits="userSpaceOnUse">
<stop stop-color="#BFBFBF"/>
<stop offset="0.212" stop-color="#666666"/>
<stop offset="0.274" stop-color="#595959"/>
<stop offset="0.516" stop-color="#292929"/>
<stop offset="0.701" stop-color="#0B0B0B"/>
<stop offset="0.806"/>
</linearGradient>
<linearGradient id="paint6_linear_945_1615" x1="37.1819" y1="16.353" x2="37.1819" y2="46.2642" gradientUnits="userSpaceOnUse">
<stop offset="0.04" stop-color="#8C8C8C"/>
<stop offset="0.194" stop-color="#B6B6B6"/>
<stop offset="0.403" stop-color="#EBEBEB"/>
<stop offset="0.506" stop-color="white"/>
<stop offset="0.564" stop-color="#FAFAFA"/>
<stop offset="0.633" stop-color="#EBEBEB"/>
<stop offset="0.707" stop-color="#D3D3D3"/>
<stop offset="0.786" stop-color="#B2B2B2"/>
<stop offset="0.868" stop-color="#878787"/>
<stop offset="0.952" stop-color="#535353"/>
<stop offset="0.96" stop-color="#4D4D4D"/>
</linearGradient>
<linearGradient id="paint7_linear_945_1615" x1="39.8091" y1="31.9047" x2="40.2673" y2="39.9625" gradientUnits="userSpaceOnUse">
<stop stop-color="#BFBFBF"/>
<stop offset="0.212" stop-color="#666666"/>
<stop offset="0.274" stop-color="#595959"/>
<stop offset="0.516" stop-color="#292929"/>
<stop offset="0.701" stop-color="#0B0B0B"/>
<stop offset="0.806"/>
</linearGradient>
<clipPath id="clip0_945_1615">
<rect width="82" height="58" fill="white" transform="translate(4 16)"/>
</clipPath>
</defs>
</svg>
