<svg width="90" height="90" viewBox="0 0 90 90" fill="none" xmlns="http://www.w3.org/2000/svg">
<rect width="90" height="90" rx="10" fill="white"/>
<path d="M42.1362 37.5753L42.0667 37.7465L42.2729 38.7671L42.5509 39.6954L43.3108 41.3738L44.0482 42.6693L44.6333 43.4691L44.6445 43.6628L44.6086 43.825L44.4607 43.8836L43.2323 43.8611L42.0196 43.6763L40.7532 43.2235L40.1906 43.1897L40.0292 43.2596L39.2895 43.1784L38.9936 43.0748L37.0457 43.0275L36.8036 43.1289L36.631 43.1784L36.5728 43.2596L36.584 43.4195L37.0569 44.1179L37.2407 44.1968L37.8639 44.5888L38.2225 44.706L39.1998 44.6722L39.9238 44.4739L40.065 44.5437L40.13 44.6834L40.2488 44.7172L40.8944 44.7285L41.0782 44.7871L41.2956 44.7285L42.4926 44.8907L43.8644 45.2377L44.9403 45.6657L45.1376 45.8077L45.6576 45.8302L45.9356 45.7603L46.2427 45.0867L46.1956 44.7871L45.7383 43.8724L45.5321 43.3069L45.3124 42.1241L45.3685 40.966L45.438 40.6551L45.355 40.3848L44.5974 39.8193L44.436 39.1276L43.9922 38.481L42.9207 37.6114L42.4814 37.4379L42.2976 37.4672L42.1362 37.5753ZM42.5486 13.9553L42.5173 13.6196L42.0443 13.0428L41.8986 13L41.7977 13.1442L41.8112 13.3177L41.652 13.4619L41.6363 13.6624L42.0869 13.9553H42.5486Z" fill="#EF1A2D"/>
<path d="M58.8873 28.5641L58.725 28.4888V28.7373L58.5965 28.8831L58.3644 29.2341L58.2336 29.3207L57.7265 29.9976L57.5529 30.3919L57.3635 30.4238L57.19 30.319L57.0886 29.8518L57.1156 29.3093L57.2328 28.8079L58.1029 27.461L58.4478 26.7453L58.4928 26.2439L58.4387 26.0867L58.335 26.1892L58.1615 26.6268L57.8978 27.0667L57.0592 27.8256L56.392 28.6188L56.2613 28.6051L56.2162 28.4706L56.2455 27.5476L56.4484 26.8752L56.8113 26.1277L57.2914 25.526L57.8865 25.0132L57.9406 24.8924L57.8685 24.8377L57.3185 25.1613L56.3763 25.9955L56.0021 26.5106L55.6369 27.1829L55.4363 27.7253L55.3484 28.9994L55.6955 30.4238L56.0291 31.4608L56.3763 33.6556L56.3199 34.7108L56.072 35.6475L55.4611 36.4247L54.8412 36.9968L54.0433 37.4503L53.2769 37.4959L53.1732 37.1176L52.8982 36.5729L51.9425 35.2852L51.2302 34.5969L50.1889 33.7468L49.1903 33.0607L47.7545 31.846L46.9746 30.8614L46.1158 29.4415L45.8836 28.5914L45.9422 28.0627L46.0594 27.9601L46.8438 28.4L47.2315 28.384L48.1602 28.8854L48.7282 29.3116L49.0573 29.3572L49.134 29.2113L49.046 29.1954L48.9446 29.241L48.7823 29.1361L48.4352 28.58L48.043 28.2154L47.4366 28.0239L47.4795 27.9077H47.7838L48.1332 28.0239L48.8725 28.4638L48.9604 28.3453L48.8161 28.1401L48.4239 27.7869L47.8131 27.4655L47.076 27.1738L46.9317 27.0553L47.076 26.9504L47.4051 27.1145L48.0159 27.2171L49.0145 27.6547L49.6253 27.7413L50.0604 27.682L50.6397 27.3584L50.7839 27.2171L50.7997 27.1145L50.6667 27.1237L50.536 27.2604L49.7268 27.4632L49.4067 27.4177L49.1001 27.1715L48.8229 26.8456L48.4961 26.5995L47.5246 26.3328L47.3194 26.2006L47.3352 26.0867L47.5246 26.114L49.0303 26.0434L49.2196 26.2006L49.7696 26.2758L49.8846 26.1892L49.6839 26.13L49.1745 25.7197L48.753 25.4964L48.0881 25.4098L47.9731 25.3391L48.2053 25.2069H48.5817L49.6253 25.6422L50.0897 25.6582L50.3354 25.5397L50.4075 25.3801L50.2204 25.2935L49.8305 25.2776L49.4969 25.1613L49.2061 24.9106L48.886 24.7488L48.4645 24.6782L48.1016 24.546L47.9438 24.3386L47.9709 24.236L48.4938 24.3728L48.6674 24.5027L48.9153 24.5323L48.9424 24.4001L48.6831 24.1927L48.6088 24.0058L48.9581 24.0605L49.2872 24.236L49.7087 24.2839L49.871 24.5916L50.3038 24.8537L50.3286 24.8491L50.4233 24.8081L50.536 24.7374L50.4819 24.6508L50.3196 24.6622L49.8846 24.0058L49.3774 23.55L48.8567 23.313L48.3946 22.7569L48.1038 22.5996L48.0588 22.4515L48.1895 22.3626L49.3932 22.7113L49.5803 22.978L49.8846 23.1375H50.1167L50.4255 23.2241L50.7591 23.1648L50.8876 23.0486L50.7005 22.8868L50.1055 22.7706L49.9161 22.6087L49.6682 22.2441L49.6096 22.0071L48.5502 21.2481L48.1196 20.8379L48.0903 20.7194H48.1895L48.7553 21.1752L49.6411 21.7472L50.0311 22.1142L50.5811 22.3626L50.6825 22.2008L50.5382 22.1461L50.2362 21.868L50.1483 21.5581L49.5667 20.9837L49.436 20.651L48.9874 19.9718L48.3766 19.4317L48.3495 19.2584L48.5659 19.2858L49.3639 19.6527L49.871 19.6801L50.2475 19.8601L50.6532 19.9308L50.9981 19.8259L50.971 19.6801L50.5766 19.5935L49.1565 18.8892L48.9604 18.6408L49.0303 18.5542L49.134 18.6248L49.2895 18.6818L49.4946 18.7001L50.5518 18.6408L50.8854 18.773L51.2325 19.0214L51.379 19.067L51.3948 18.9348L51.2776 18.8163L50.9304 18.4927L50.3917 18.2146L49.2624 18.1257L48.7124 17.54L48.1354 17.1024L48.2661 16.9998L49.2376 17.426L49.7876 17.5582H50.2632L50.6554 18.0004L50.9755 18.1895L51.0905 18.071L50.6554 17.4238L49.9747 16.9269L49.409 16.7902L48.9288 16.2819L48.5073 16.0335L47.9303 15.8854L48.2504 15.6073L49.2376 15.2837L49.3368 15.1515L49.2827 15.0489L48.8251 14.9464L47.191 14.9783L46.9002 14.6524L46.1473 14.2444L45.5973 14.1555H45.1217L44.5447 13.4946L44.006 13L43.6746 13.5561L43.6588 13.7293L43.8144 13.9367L43.8301 14.1122L43.7174 14.2148L43.35 14.2444L42.0336 13.9094L41.2357 14.0256L41.2943 14.1988L41.5716 14.1874L41.6843 14.2079L41.6798 14.3629L41.5197 14.3994L41.3101 14.3697L40.7601 14.5133L40.5708 14.527L40.5122 14.6091L40.5798 14.7253L40.7218 14.7572L40.8548 14.7185L41.008 14.6501L41.1658 14.6432L41.4994 14.6569L42.0562 14.8096L42.5002 15.0125L42.5408 15.1105L42.4957 15.1857L42.2861 15.2609L42.1599 15.3201L41.1771 15.9537L39.9802 16.5736L38.9862 16.6694L38.8374 16.7104L38.7517 16.8927L38.6841 17.091L38.6097 17.2278L38.2378 17.8294L38.1161 17.9844L38.1048 18.1645L38.1161 18.6818L38.2784 18.8277L38.4204 18.9029L38.5894 18.8892L39.597 18.5496L39.7661 18.5565L39.8044 18.6659L39.7661 18.7684L39.6241 18.8436L38.8712 19.1012L38.8081 19.2083L38.7968 19.3245L38.9028 19.4203L39.1282 19.4499H39.3085L39.7841 19.3815L40.1402 19.1901L40.3769 19.1422L40.5798 19.1012L40.7331 19.1513L41.1794 19.1696L41.3597 19.2767L42.0134 19.418L42.214 19.4476L42.525 19.3929L42.9195 19.4203L43.0931 19.4886L43.1877 19.6504L43.0254 20.4208L42.5205 21.8361L41.4589 23.3289L40.3454 24.4092L40.2079 24.8651L40.0163 25.0952L39.0267 25.7949L38.6458 25.9909L38.2288 26.4992L38.0552 26.6086L37.8118 26.7317L37.654 26.6952L35.9206 25.7949L34.8567 24.9357L34.4239 24.7785L34.043 24.7078L33.5561 24.8126L32.9114 25.2183L32.2533 27.0644L32.233 27.5749L31.852 28.8193L31.6266 29.2592L31.5049 29.6968L31.4328 30.2415L31.1172 30.9594L31.0857 32.434L31 32.7531L31.0496 33.0311L31.0293 33.4869L31.1871 33.8539L31.3088 33.9405L31.5342 33.8698L32.0414 33.3137L32.3006 32.8898L32.4043 32.5411L31.9873 30.711L32.0572 30.0432L32.2307 29.5031L32.6838 28.8854L32.9069 28.8649L33.0129 28.7988L33.4998 28.2883L33.6237 27.8325L33.6891 27.3037L33.8108 27.1487L33.9325 27.1123L34.0881 27.1647L34.3135 27.2878L35.1114 28.3042L35.7042 28.8148L35.9815 28.9378L36.0671 29.1133L35.9815 29.1999L34.212 28.8854H33.2203L32.6455 29.323L32.402 29.7446L32.2172 30.2233L32.1969 30.5742L32.3028 31.2056L32.5463 32.0124L33.1166 34.5581L33.2225 35.2578L33.3239 35.504L33.8311 35.9621L34.1061 36.3837L34.2977 36.8783L34.593 37.3136L35.0258 37.7375L35.3413 37.9312L35.5487 37.9472L35.7223 37.897L35.9454 37.4389L36.0175 37.1426V36.4566L35.9341 36.2629C35.9184 36.2629 35.9184 36.1376 35.9184 36.1216L35.8823 35.9985L35.4811 35.5245L34.9965 35.3125L34.8206 35.2578L34.7891 34.9592L34.8049 34.7701L34.4758 34.3826L34.2661 33.8926L33.9506 32.5434L33.7116 32.0329L33.626 31.4175L33.7635 31.046L34.0069 30.907H34.1963L34.4758 31.1531L34.877 31.397L36.2993 32.0465L36.7862 32.3292V32.5935L37.2347 32.8556L37.8095 33.0516H39.0087L38.923 33.2795L38.8712 33.4026L39.3198 34.1388L40.3611 35.2419L41.7609 36.3883L43.0547 37.0879L44.423 38.052L44.9887 38.5375L45.5793 39.3443L45.6063 39.6816L45.7393 40.0303L46.1022 40.2924L46.4313 40.4246L46.6342 40.3972L47.0287 39.987L47.0828 39.6497L47.3578 39.1688L47.4885 38.068L47.5809 37.8651L47.7657 37.774H47.9416L47.9528 37.9084L47.8221 38.052L47.6215 38.5534L47.5899 39.2827L47.52 39.5334L46.7221 40.9237L46.553 41.612L46.4674 42.3322L46.553 43.1367L46.6658 43.6062L47.5674 45.5275L47.9438 46.1269L48.3924 46.6853L48.478 46.8744V47.0066L48.4194 47.1707L47.5065 48.4425L46.535 49.5137L45.9242 49.7917L45.6807 50.0287L45.55 50.2931L44.5244 51.4509L44.2764 51.8862L44.0443 52.693L44.0601 52.987L44.2336 53.1739L45.1465 53.1466L45.8115 52.7979L45.8723 52.6497H46.0031L46.2037 52.5608L46.393 52.3831L46.4944 51.6811L46.4358 51.5352L46.4088 51.3894L46.5102 51.419L46.6229 51.4509L46.7424 51.3643L46.9295 51.2435L47.378 50.6259L47.5065 50.3045L47.5358 50.0424L47.6959 49.9216L48.1174 49.6755L48.2729 49.3518L49.2331 48.4151L50.1889 47.8248L50.3038 47.7109L50.3489 47.5901L50.4503 47.4579L50.3805 47.2824L50.3016 46.6602L50.2272 46.4847L49.6682 45.6141L49.6411 44.9965L49.8575 44.2489L50.0198 43.9868L50.1911 43.8843L51.3948 42.9179L52.4542 41.7282L53.1327 40.4132L53.2792 39.9118L53.3491 39.0936L53.4663 38.9773L53.597 38.9454L53.712 39.0206L53.8134 39.2645L53.8878 39.9254L53.8292 41.2017L53.9148 41.7715L54.0185 41.9174L54.1042 41.906L54.147 41.8011L54.0884 41.5664V41.1676L54.2079 40.8348L54.3206 40.012L54.3949 39.8548H54.4829L54.5527 39.9254L54.6835 40.4701L54.5708 41.4638L54.0591 42.5533L53.9148 43.0068V43.6085L54.0185 43.9184H54.2079L54.3048 43.7817L54.2507 43.6358L54.2079 43.3737L55.2921 41.6165L55.5085 40.4291V39.7568L55.3777 39.2873L55.1185 38.9226L55.0869 38.7471L55.2042 38.6902L55.3484 38.7608L55.7722 39.4218L55.93 40.5704L56.0742 41.0285L56.09 41.0399L56.2906 41.4935L56.4213 41.5413L56.48 41.4228L56.4642 41.3499L56.365 41.0148V40.1784L56.4529 39.3443L56.4213 39.1095L55.9886 38.3027L56.0584 38.1705L56.3334 38.1135L57.1156 37.7193L57.4785 37.3956L57.9428 36.7643L58.423 35.7387L58.5086 34.2163L58.0758 31.3309L58.2494 30.3486L58.4928 29.8085L58.8422 29.2523L58.9729 28.8991L59 28.7236L58.8873 28.5641ZM39.1777 17.9593L39.065 18.0733L38.9028 18.1645L38.6864 18.2123L38.612 18.1645L38.5849 18.0095L38.648 17.7907L38.8013 17.5742L38.9275 17.5104L39.0425 17.5218L39.18 17.638L39.2431 17.7406L39.1777 17.9593ZM39.7458 17.8135L39.7052 17.834L39.6286 17.8386L39.5632 17.8066L39.5136 17.7474L39.5204 17.6745L39.579 17.5787L39.6263 17.5468H39.6894L39.7458 17.5605L39.7661 17.6198L39.7728 17.7223L39.7458 17.8135ZM40.4445 18.4653L40.3859 18.4949H40.3115L40.2687 18.4699L40.2462 18.4061L40.2529 18.3286L40.298 18.2807L40.3521 18.2784L40.4107 18.2944L40.4378 18.3377L40.4558 18.4083L40.4445 18.4653ZM41.7857 16.4141L41.6955 16.4392L41.5851 16.4665L41.4634 16.5691L41.1906 16.7355L40.3611 16.9155L40.2484 16.9018L40.4288 16.7469L41.416 16.2796L41.5603 16.209L41.6707 16.193L41.7609 16.2135L41.833 16.3298L41.7857 16.4141ZM31.6582 32.8967L31.541 32.8693L31.4824 32.7531L31.5996 32.6938L31.701 32.7052L31.7281 32.81L31.6582 32.8967ZM33.1819 26.7499L32.9926 27.4108L32.8033 27.7048L32.7018 27.7322L32.6658 27.6547V27.4997L32.7604 26.8889L32.9272 26.5995L33.0129 26.4969L33.1391 26.4582L33.1864 26.5311L33.1819 26.7499ZM34.0182 25.583L33.8289 25.6559L33.6485 25.6741L33.5381 25.6308L33.511 25.5511L33.5426 25.444L33.6373 25.3779L33.8334 25.3528L33.9348 25.3437L34.0047 25.3642L34.0678 25.4234L34.0723 25.4895L34.0182 25.583ZM35.5555 27.6798L35.5149 27.6843L35.4225 27.6251L35.2872 27.5499L35.1723 27.4541L35.0663 27.347L35.019 27.2878L35.0077 27.2011L35.0303 27.1556L35.0708 27.1601L35.1385 27.1715L35.2128 27.2399L35.3008 27.3174L35.4383 27.4017L35.5217 27.502L35.5712 27.5772L35.5758 27.6433L35.5555 27.6798ZM32.9723 29.7674L32.9024 29.8677L32.8326 29.8951L32.7852 29.854L32.7875 29.7127L32.9069 29.5053L32.943 29.4461L33.0016 29.4187L33.058 29.4552V29.5737L33.0219 29.658L32.9723 29.7674ZM33.4637 33.4619L33.4389 33.4983H33.4118L33.3623 33.4528L33.3217 33.3775L33.2586 33.2385L33.1684 33.0539L33.0309 32.4978L33.067 31.8756L33.0918 31.8391H33.1346L33.1797 31.8802L33.2225 32.0671L33.227 32.2585L33.4862 33.3548L33.4637 33.4619ZM35.2196 36.8464L35.2669 36.835L35.3796 36.86L35.4315 36.9147L35.4428 36.9808L35.4315 37.0606L35.3639 37.1107L35.2805 37.0948L35.2219 37.0401L35.1993 36.9147L35.2196 36.8464ZM36.3534 31.4904L36.2362 31.4973L36.0829 31.4722L35.977 31.4243L35.2106 30.9184L35.1159 30.8477L35.2422 30.8432L35.3796 30.8933L36.0829 31.1714L36.2632 31.2557L36.3579 31.3423L36.3737 31.4221L36.3534 31.4904ZM37.6653 28.0604L37.3542 28.9789L37.0972 29.3025L36.9688 29.4028L36.8313 29.4529L36.7524 29.3982L36.7456 29.2934L36.8538 29.1749L37.113 28.6598L37.2776 28.0513L37.4308 27.7618L37.5345 27.6137L37.6202 27.5909L37.6991 27.6228L37.7216 27.7185L37.6653 28.0604ZM43.9721 18.7593L44.1029 18.5929L44.2516 18.4516L44.3846 18.3605L44.4838 18.3491L44.5514 18.3947V18.5177L44.5154 18.6545L44.1885 18.9097L44.0082 18.9576L43.9203 18.928L43.9113 18.855L43.9721 18.7593ZM43.4447 15.6757L43.5709 15.6324L43.6588 15.5914L43.767 15.6301L43.8031 15.7099L43.7219 15.8056L43.6092 15.8512L43.4695 15.858L43.4176 15.7623L43.4447 15.6757ZM42.3515 16.7058L42.3019 16.5645L42.3763 16.4118L42.5408 16.2705L42.8045 16.2591L42.9961 16.2956L43.1472 16.3982L43.2215 16.5782L43.2847 16.7697L43.2734 16.9337L43.1088 16.9998H42.9308L42.5295 16.8084L42.3515 16.7058ZM42.773 18.7981H42.5724L42.5363 18.7297L42.5859 18.659L42.6468 18.6226L43.2801 18.1895L43.4244 18.0984H43.4763L43.483 18.2055L43.3861 18.283L43.341 18.4448L43.217 18.6362L42.773 18.7981ZM40.3792 26.0137L40.3521 25.9704L40.3589 25.8633L40.4288 25.7835L41.1906 25.5169L42.0201 25.4531L42.2793 25.5078L42.5228 25.6331L42.7144 25.8246L42.7256 25.9317L42.7054 26.0069L42.622 26.0228L42.498 26.0069L42.3064 25.9522L42.1261 25.8975L40.9472 25.9294L40.7601 25.9773L40.5798 26.0183L40.4626 26.0274L40.3792 26.0137ZM43.6408 36.8076L41.6707 35.4447L40.6429 34.4875L40.5279 34.3074L40.4851 34.0932L40.4919 33.8949L40.5663 33.8197L40.697 33.8265L41.1208 34.1638L42.0359 35.21L43.6543 36.6709L43.7039 36.7529L43.74 36.8122L43.6408 36.8076ZM43.8211 27.7162L43.7377 27.7641L43.5371 27.7664L43.4041 27.7345L43.3297 27.6342L43.2644 27.5567V27.4268L43.3613 27.2992L43.5101 27.1806L43.6521 27.1601L43.7828 27.1966L43.8211 27.2672L43.8369 27.4245L43.8572 27.5909L43.8211 27.7162ZM44.2178 21.1638L43.9496 21.9592L43.4267 22.8891L42.9871 23.5135L42.6535 23.8668L42.4213 23.958L42.347 23.9534L42.3334 23.8942L42.4056 23.7278L43.4988 21.6606L43.8482 21.0931L44.0285 20.9199L44.166 20.8948L44.2246 20.9928L44.2178 21.1638ZM45.0225 19.0396L44.9797 19.1468L44.8264 19.3291L44.4004 19.5205L44.1818 19.5251H44.0443L43.9969 19.4613L44.0488 19.3701L44.1705 19.3154L44.6258 19.0602L44.7408 18.9781L44.9143 18.8938L45.0225 18.9189V19.0396ZM46.1744 25.7471L46.0955 25.7699L45.994 25.763L45.9264 25.6947L45.9422 25.6377L46.0098 25.5898L46.1113 25.583L46.1992 25.6536L46.2014 25.7129L46.1744 25.7471ZM46.2938 25.3596H46.1744L46.1135 25.3232V25.2343L46.1406 25.175L46.2037 25.1545H46.2871L46.366 25.2069L46.3727 25.2685L46.2938 25.3596ZM46.5102 24.7579L46.4313 24.799L46.3479 24.8104L46.2623 24.7898L46.2352 24.7306V24.6599L46.3051 24.6098L46.393 24.5938H46.4764L46.526 24.6371L46.5373 24.7055L46.5102 24.7579ZM46.6207 24.252L46.5147 24.2839L46.3953 24.2793L46.3322 24.236L46.3276 24.1882L46.3479 24.1175L46.4426 24.0742L46.544 24.056L46.6319 24.1016L46.6635 24.1836L46.6207 24.252ZM46.8754 23.5455L46.8168 23.6252L46.7627 23.6959L46.6522 23.7187H46.5418L46.4471 23.6708L46.4381 23.5956L46.5057 23.5249L46.5576 23.4657L46.6319 23.4383L46.7537 23.4019H46.8483L46.8912 23.4543L46.8754 23.5455ZM47.0332 22.9529L46.9813 23.0349L46.8912 23.0509L46.7965 23.076L46.6793 23.0714L46.6274 23.0121L46.6342 22.9255L46.6748 22.8663L46.7537 22.8116L46.8754 22.7933L46.9858 22.8184L47.0332 22.8845V22.9529ZM47.2 22.5153L47.076 22.5654L46.9813 22.5996H46.8641L46.8168 22.5905L46.7582 22.57L46.7266 22.5107L46.7424 22.4355L46.8213 22.3649L46.8889 22.3284L46.9633 22.2965L47.0692 22.2919L47.1707 22.3284L47.2135 22.4127L47.2 22.5153ZM47.2135 21.8361L47.1707 21.9068L47.0963 21.9683L46.9858 22.0093L46.8551 22.023L46.7492 22.0048L46.7221 21.9432L46.7379 21.8931L46.7807 21.8589L46.9701 21.7609L47.0602 21.7404L47.1707 21.7518L47.2135 21.7928V21.8361ZM46.916 20.2248L46.952 20.1997L46.9678 20.1291L46.9813 20.0721L47.0129 20.0311L47.0715 20.0288L47.1414 20.0493L47.2045 20.0858L47.2112 20.161L47.2045 20.284L47.1098 20.3661L46.9903 20.4276L46.9385 20.4208L46.8867 20.4003L46.8348 20.3342L46.828 20.2635L46.8483 20.2225L46.916 20.2248ZM46.8483 19.7143V19.6573L46.9002 19.6026L46.9813 19.573L47.0805 19.5684L47.1391 19.5866L47.1549 19.6368L47.1233 19.6915L47.0715 19.7485L46.9903 19.7667H46.9024L46.8483 19.7143ZM46.8528 21.3256L46.9227 21.28L47.0061 21.2595L47.0895 21.2527L47.1481 21.2572L47.1707 21.2937V21.3507L47.1436 21.4168L47.0895 21.4806L46.9498 21.5398L46.8821 21.533L46.819 21.5125L46.8033 21.4464L46.8145 21.3712L46.8528 21.3256ZM47.2045 20.8356L47.1864 20.888L47.1008 20.9473L46.9813 20.9928L46.916 20.9769L46.8528 20.9381L46.8393 20.8766L46.8461 20.7968L46.8934 20.749L46.961 20.7011L47.058 20.6806L47.1414 20.6783L47.1977 20.6943L47.2157 20.749L47.2045 20.8356ZM47.2383 19.1536L47.227 19.222L47.1819 19.2835L47.1098 19.3086L47.0444 19.3245L46.9858 19.3337L46.9069 19.3245L46.8867 19.279L46.9069 19.2151L46.9543 19.1718L47.0039 19.1422L47.0895 19.083L47.1819 19.0875L47.2383 19.1536ZM47.1143 18.5701L47.1616 18.5975L47.1684 18.6659L47.1662 18.7274L47.0895 18.7958L47.0196 18.8231L46.9746 18.8163L46.9385 18.7981V18.732L46.943 18.6659L46.9948 18.6112L47.0422 18.5815L47.1143 18.5701ZM47.0242 18.2397L47.0061 18.3126L46.9543 18.3491L46.9069 18.3787L46.8438 18.3878L46.792 18.3536L46.7807 18.2989L46.8055 18.2511L46.8528 18.1873L46.9002 18.1645L46.9633 18.1599L47.0129 18.1918L47.0242 18.2397ZM46.3795 16.9565L46.4944 16.9497L46.6545 16.8859L46.801 16.8517L46.9227 16.8426L46.9858 16.9018L46.9002 17.034L46.8123 17.0591L46.6658 17.1092L46.4787 17.2164L46.2983 17.3121L46.0887 17.401L46.0188 17.4078L45.9602 17.3896L45.967 17.3007L45.9354 17.2164V17.0659L46.0031 16.895L46.0977 16.7924L46.1563 16.7127L46.2194 16.6352H46.3141L46.3817 16.7013L46.3637 16.8677L46.3795 16.9565ZM46.3119 15.3726L46.3547 15.4022L46.3412 15.4432L46.2781 15.5184L46.1901 15.5275L46.0887 15.5116L46.0301 15.4842L45.985 15.4318L46.0369 15.3885L46.1113 15.3566L46.224 15.352L46.3119 15.3726ZM45.7709 14.7549L45.967 14.7344L46.0729 14.7709L46.1563 14.8165L46.1608 14.8871L46.0887 14.9213L45.9805 14.9258L45.8723 14.9213L45.7912 14.9031L45.719 14.8506L45.7709 14.7549ZM47.2924 35.4082L47.1977 35.4948L47.1098 35.5951L47.0242 35.7775L46.9971 35.9051L46.9385 35.9529L46.8258 35.937L46.7717 35.8709L46.8551 35.3262L46.8867 35.1598L46.961 34.9478L47.0151 34.8863L47.0985 34.8681H47.209L47.2563 34.9137L47.3397 35.039L47.3555 35.2738L47.2924 35.4082ZM46.9858 32.2699L46.2938 31.5816L45.8994 31.0802L45.5522 30.5104L45.2772 29.8062L45.1623 29.3207L45.2164 29.0427L45.3719 28.9971L45.5342 29.0723L45.8813 30.2301L46.8416 31.6956L47.4772 32.5297L46.9858 32.2699ZM47.4051 41.3955L47.351 41.5459L47.1684 42.0564L47.1459 42.1362L47.1188 42.1863H47.0444L46.9858 42.0063L46.9813 41.8034L47.1233 41.1448L47.4299 40.7254L47.5606 40.7094L47.5967 40.828L47.4051 41.3955ZM48.0903 45.2449L48.0633 45.2494L48.0137 45.2244L47.919 45.0831L47.777 44.8483L47.7094 44.6956L47.6688 44.4814V44.2808L47.6756 44.1623L47.7049 44.1258H47.768L47.8334 44.1532L47.9213 44.258L47.9844 44.4358L48.0272 44.6728L48.0317 44.8643L48.034 44.9304L48.07 45.0238L48.1061 45.2061L48.0903 45.2449ZM45.1826 52.121L45.124 52.2372L45.0541 52.3443L44.9391 52.4195L44.8287 52.4446H44.7836L44.734 52.4036L44.7182 52.3192L44.7385 52.2167L44.7971 52.0959L44.9572 51.9341L45.0789 51.8589L45.1668 51.8543L45.2096 51.8908L45.2209 51.9751L45.1826 52.121ZM46.2623 50.3615L46.2037 50.4458L46.1293 50.4891L46.0391 50.5233L45.9715 50.5028L45.9309 50.4321L45.9399 50.3592L46.0053 50.2772L46.1406 50.1951L46.2375 50.1769L46.2848 50.2065L46.2961 50.2772L46.2623 50.3615ZM48.6696 47.9365L48.2639 48.4698L47.2563 49.4476L47.1414 49.5228L47.067 49.5182L47.0309 49.4612L47.0467 49.361L48.3586 47.9616L48.46 47.8499L48.6133 47.7496L48.6674 47.7633L48.7147 47.8226L48.6696 47.9365ZM49.6727 47.1525L49.7403 47.1297L49.826 47.132L49.8665 47.1525L49.871 47.1981L49.835 47.2528L49.7561 47.3234L49.6862 47.4032H49.6389L49.5848 47.3713L49.5735 47.3029L49.596 47.2368L49.6727 47.1525ZM52.5737 39.1483L52.5579 39.2804L52.5173 39.4035L52.4925 39.5152L52.4136 39.5631L52.3392 39.5425L52.2987 39.4696L52.2739 39.2212L52.1093 38.9887L52.0935 38.7996L52.1882 38.6788L52.2851 38.6469L52.3798 38.6537L52.4587 38.7243L52.5489 38.8406L52.5737 38.9728V39.1483ZM57.4695 34.6037L57.4627 34.7906L57.1674 35.8549L56.7888 36.4749L56.1396 37.1677L55.9615 37.2133L55.8668 37.1677L55.8511 37.0401L55.9255 36.8691L56.7865 35.5564L57.0119 34.9524L57.1133 33.8607L57.0232 32.867L57.0029 32.6801L57.1043 32.5753L57.1697 32.6118L57.2215 32.7736L57.4627 33.8539V34.6037H57.4695Z" fill="#EF1A2D"/>
<path fill-rule="evenodd" clip-rule="evenodd" d="M7 74V72.4349H7.88151C8.32206 72.4349 9.20398 72.3479 9.20398 71.3044V61.9131C9.20398 61.3478 9.15968 60 8.05789 60H7.0443L8.19038 58H76V60H13.6119C13.0389 60 12.2895 60.1303 12.2895 61.2609V64.2174C12.422 64.565 12.9507 64.6953 13.2153 64.6953C13.4798 64.6953 14.4053 64.652 14.4053 63.2172H15.7277V68.0435H14.4053C14.4053 67.6086 13.9184 66.8802 13.2596 66.826C12.7304 66.7827 12.2895 66.9563 12.2895 67.6523V71.3044C12.2895 71.6961 12.7743 72.4349 13.9204 72.4349H14.7141V74H7Z" fill="#EF1A2D"/>
<path fill-rule="evenodd" clip-rule="evenodd" d="M46.4761 62.5343C46.4761 62.8971 46.9121 63.2595 47.1736 63.3502C47.4793 63.1236 49.0935 62.172 50.3586 62.172C51.6237 62.172 52.2777 62.8516 52.2777 63.8943V68.8805H49.2239V65.0278C49.2239 64.5292 49.0935 64.1664 48.6567 64.1213C48.2207 64.0761 47.0863 65.0278 46.7814 65.4813V72.3712C46.7814 73.006 47.392 73.4591 47.9157 73.4591V74.774H42.5936V73.414C43.1169 73.414 43.6841 73.2326 43.7279 72.4167V64.7553C43.7279 64.5288 43.3788 63.8939 42.5936 63.8939V62.5343H46.4761ZM83 62.5343H77.6782V63.8943C78.463 63.8943 78.8118 64.5288 78.8118 64.7557V72.4163C78.7687 73.2322 78.2012 73.4135 77.6782 73.4135V74.7736H83V73.4587C82.4767 73.4587 81.8657 73.0056 81.8657 72.3708V64.846C81.8657 64.3023 82.4328 63.8943 83 63.8943V62.5343ZM34.697 62.5343C34.697 62.8971 35.133 63.2595 35.3949 63.3502C35.7002 63.1236 37.3144 62.172 38.5795 62.172C39.8446 62.172 40.4991 62.8516 40.4991 63.8943V68.8805H37.4456V65.0278C37.4456 64.5292 37.3144 64.1664 36.8784 64.1213C36.442 64.0761 35.3076 65.0278 35.0023 65.4813V72.3712C35.0023 73.006 35.6133 73.4591 36.1367 73.4591V74.774H30.8145V73.414C31.3378 73.414 31.905 73.2326 31.9488 72.4167V64.7553C31.9488 64.5288 31.5997 63.8939 30.8145 63.8939V62.5343H34.697ZM70.0862 62.5343C70.0862 62.8971 70.523 63.2595 70.7845 63.3502C71.0902 63.1236 72.7036 62.172 73.9695 62.172C75.2346 62.172 75.8886 62.8516 75.8886 63.8943V68.8805H72.8347V65.0278C72.8347 64.5292 72.7036 64.1664 72.2676 64.1213C71.8315 64.0761 70.6972 65.0278 70.3915 65.4813V72.3712C70.3915 73.006 71.0021 73.4591 71.5258 73.4591V74.774H66.2032V73.414C66.7274 73.414 67.2946 73.2326 67.3376 72.4167V64.7553C67.3376 64.5288 66.9888 63.8939 66.2032 63.8939V62.5343H70.0862ZM28.5108 70.9656H25.4569V72.1898C25.4569 72.688 25.3696 73.7312 23.93 73.7312C22.4903 73.7312 22.0543 72.7335 22.0543 72.0084V69.4246C22.0543 69.1981 22.2289 68.8805 22.5342 68.8805H28.5108V65.5716C28.5108 64.0757 28.2055 63.6223 27.5945 62.9878C26.9839 62.3529 24.8459 62.172 23.8861 62.172C21.4433 62.172 20.6577 62.5343 19.9598 63.1236C19.2619 63.7129 19 64.9367 19 65.8432V70.9652C19 72.3248 19.2619 73.2769 20.0905 74.1383C20.9191 74.9997 23.4497 74.9997 23.9734 74.9997C24.4967 74.9997 26.2417 75.0448 27.5072 74.0931C28.7727 73.1415 28.5108 70.9656 28.5108 70.9656ZM22.0543 65.345C22.0543 64.6199 22.2723 63.532 23.7992 63.532C25.3262 63.532 25.4569 64.7106 25.4569 65.345V66.9767C25.4569 67.2484 25.2389 67.5205 24.9336 67.5205H22.5776C22.3161 67.5205 22.0543 67.2939 22.0543 67.0223V65.345ZM63.4993 72.3708V65.5716C63.4993 64.5288 63.4555 63.4413 62.408 62.6706C61.3614 61.8999 59.6598 61.9454 59.0054 61.9454C58.3509 61.9454 56.1699 61.9454 55.1659 63.1241C54.1627 64.3027 54.3369 65.4357 54.3369 65.8888H57.1949C57.1949 65.8888 57.3904 64.3478 57.7833 63.9399C58.1784 63.5295 59.2234 63.0785 60.0303 63.8036C60.3272 64.0711 60.4442 64.4155 60.4442 64.8009V66.7498C60.4442 66.9316 60.2697 67.2032 60.052 67.2032C60.052 67.2032 56.0814 67.2939 55.3839 67.8381C54.6864 68.3819 54.075 68.7446 54.075 70.7391C54.075 72.7331 54.5549 73.5038 55.1225 73.9122C55.6896 74.3201 55.9515 74.7736 58.5251 74.7736H64.6329V73.4587C64.1099 73.4587 63.4993 73.0056 63.4993 72.3708ZM60.445 73.1415C60.445 73.2547 60.2705 73.4131 60.1401 73.4131H58.6349C57.5657 73.4131 57.2608 72.4615 57.2608 71.8717V70.1264C57.2608 68.427 58.9619 68.4721 59.6381 68.4721C60.3143 68.4721 60.445 69.061 60.445 69.4464V73.1415ZM80.1388 60.1549C81.6661 60.1549 82.9035 59.6726 82.9035 59.0775C82.9035 58.4827 81.6661 58 80.1388 58C78.6115 58 77.3733 58.4823 77.3733 59.0775C77.3733 59.6722 78.6115 60.1549 80.1388 60.1549Z" fill="#EF1A2D"/>
</svg>
