<svg width="90" height="90" viewBox="0 0 90 90" fill="none" xmlns="http://www.w3.org/2000/svg">
<rect width="90" height="90" rx="10" fill="white"/>
<g filter="url(#filter0_i_319_2013)">
<path d="M65.6437 32.0625C66.7439 34.6455 67.2772 37.557 67.2772 40.9635C67.2772 42.804 67.1242 44.766 66.8137 46.962C66.1702 51.4845 64.4557 56.2095 62.8762 59.3235C62.6197 59.8252 62.4149 60.1582 62.0032 60.5228C61.2831 61.1572 60.6487 61.3148 60.4147 61.1775C60.2257 61.065 60.1199 60.498 60.1582 59.6632C60.1897 58.9523 60.3584 58.4258 60.6172 57.5843C61.827 53.5972 62.7296 49.5232 63.3172 45.3983C64.1834 39.4042 64.1497 34.0133 62.8649 30.7283C62.7351 30.3911 62.5691 30.0689 62.3699 29.7675C62.2304 29.565 62.1314 29.4615 62.1314 29.4615C59.4742 26.7997 52.2989 25.4655 45.1214 25.4655C37.9439 25.4655 30.7709 26.7997 28.1159 29.4615C28.1159 29.4615 28.0147 29.5627 27.8774 29.7675C27.6759 30.0672 27.5091 30.3887 27.3802 30.726C26.0932 34.011 26.0617 39.4042 26.9279 45.3983C27.5129 49.464 28.4399 53.7682 29.6887 57.7822C29.9047 58.473 30.0442 58.9432 30.0779 59.6722C30.1139 60.5025 30.0104 61.0672 29.8214 61.1797C29.5874 61.3148 28.9462 61.1572 28.2239 60.516C27.7064 60.0547 27.4477 59.6047 27.1214 58.9388C25.5914 55.8225 23.9872 51.2955 23.3707 46.962C23.0746 44.976 22.9197 42.9714 22.9072 40.9635C22.9072 37.557 23.4427 34.6477 24.5407 32.067C25.3664 30.132 26.7524 28.512 28.5502 27.3802C32.9684 24.5859 38.0169 22.9443 43.2337 22.6058C43.8442 22.5683 44.4557 22.5488 45.0674 22.5472H45.1124C45.7289 22.5472 46.3454 22.5697 46.9529 22.6058C52.0874 22.9162 57.1657 24.57 61.6342 27.3802C63.4172 28.4963 64.8162 30.1286 65.6437 32.0625ZM54.9269 64.746C54.7289 64.7887 54.1147 64.9328 53.5049 65.0993C52.9582 65.25 52.4182 65.3693 52.1617 65.421C49.851 65.8561 47.5042 66.0708 45.1529 66.0622H45.0899C42.5767 66.0622 40.1917 65.8305 38.0834 65.421C37.6604 65.3344 37.2402 65.2346 36.8234 65.1217C36.3728 65.0014 35.9197 64.8903 35.4644 64.7887C34.5239 64.575 33.6734 64.422 33.6262 64.602C33.5699 64.8112 33.9907 65.25 34.5284 65.664C34.6544 65.7585 34.9672 65.979 35.3317 66.159C35.6692 66.3232 36.0517 66.447 36.2002 66.4965C38.6707 67.2953 41.4787 67.626 45.0674 67.626H45.1169C48.6337 67.626 51.4034 67.3065 53.8402 66.5392C54.6749 66.276 55.1677 66.0645 55.7594 65.5942C56.2544 65.2028 56.6257 64.8 56.5717 64.6042C56.5267 64.4355 55.7887 64.557 54.9269 64.746ZM49.2839 41.5417C48.9577 39.7192 48.5639 38.3197 48.1184 37.3792L48.1139 37.3703H48.0667L46.5322 37.3567H46.5097L46.4489 44.1022H49.6574L49.6552 44.0798C49.6552 44.0685 49.5292 42.9053 49.2839 41.5417ZM62.2439 45.3375C61.5194 50.3505 60.2639 55.7393 58.5089 60.4147C58.2164 61.2023 57.9509 61.4948 57.3164 61.9897C55.6793 63.1426 53.8142 63.9313 51.8467 64.3027C49.8284 64.6965 47.5537 64.9147 45.1552 64.9147H45.0899C42.8458 64.9242 40.6058 64.7193 38.4007 64.3027C36.4316 63.9319 34.5649 63.1431 32.9264 61.9897C32.2919 61.4948 32.0287 61.2023 31.7407 60.4147C29.9812 55.7393 28.7257 50.3505 28.0034 45.3375C27.1642 39.5392 27.2159 34.4317 28.4084 31.383C28.5592 31.0005 28.7189 30.726 28.8359 30.5527C28.9394 30.4065 29.0114 30.3278 29.0114 30.3278C31.4144 27.9202 38.1464 26.6108 45.1214 26.6108C52.0987 26.6108 58.8307 27.9202 61.2314 30.33C61.2314 30.33 61.3034 30.4043 61.4069 30.555C61.5239 30.726 61.6859 30.9983 61.8344 31.383C63.0292 34.4317 63.0809 39.5392 62.2439 45.3375ZM38.0339 35.0212L31.9994 34.9875L32.6002 55.9957L35.1247 56.0228L35.0887 46.4603H37.3702V43.992H35.0887V37.485H38.0362V35.019L38.0339 35.0212ZM42.2549 34.9762L39.1837 34.983L39.5909 56.0205H42.1942L42.2549 34.9762ZM50.0129 35.0077H43.8659L44.1089 56.0093H46.5659L46.5862 46.5097H49.7767L49.7812 46.5255C50.0692 48.3188 50.0917 55.9102 50.0917 55.9867V56.0205H52.4834L52.5037 54.9428C52.6117 49.4978 52.7962 40.3875 50.0129 35.0077ZM59.7329 34.9785L52.2089 35.0077V37.431H54.4544V37.4535L54.3599 56.0205H56.9069L57.5257 37.431H59.7329V34.9785ZM71.9437 45C71.9437 59.8882 59.8567 72 44.9977 72C30.1432 72 18.0562 59.8882 18.0562 45C18.0562 30.1117 30.1432 18 44.9999 18C59.8589 18 71.9437 30.1117 71.9437 45ZM71.2012 44.982C71.1899 30.5122 59.4404 18.7425 44.9954 18.7425C30.6944 18.7425 19.0349 30.2917 18.8054 44.5747C19.1243 43.8445 19.662 43.2313 20.3444 42.8197C21.8182 41.9468 22.2209 39.7035 22.3537 38.3625L22.3807 38.223C22.2929 39.1117 22.2232 40.0005 22.2232 40.9635C22.2232 42.8355 22.3807 44.829 22.6957 47.0565C23.6227 53.5815 26.7749 60.5723 28.6289 62.712L28.7324 62.8245L29.1644 63.279L29.1802 63.2925C33.7027 66.9982 37.8584 68.31 45.0674 68.31H45.1169C52.3237 68.31 56.4794 66.9982 61.0019 63.2925L61.0222 63.279L61.4384 62.8358L61.5554 62.7098C63.4139 60.5633 66.5639 53.5815 67.4909 47.0565C67.8059 44.829 67.9612 42.8355 67.9612 40.9635C67.9612 39.942 67.9139 38.961 67.8172 38.0183L67.8307 38.0317C67.9657 39.375 68.6834 42.849 70.0694 43.8503C70.5419 44.1923 70.9132 44.5635 71.2012 44.982Z" fill="#981E32"/>
</g>
<defs>
<filter id="filter0_i_319_2013" x="18.0562" y="18" width="53.8877" height="58" filterUnits="userSpaceOnUse" color-interpolation-filters="sRGB">
<feFlood flood-opacity="0" result="BackgroundImageFix"/>
<feBlend mode="normal" in="SourceGraphic" in2="BackgroundImageFix" result="shape"/>
<feColorMatrix in="SourceAlpha" type="matrix" values="0 0 0 0 0 0 0 0 0 0 0 0 0 0 0 0 0 0 127 0" result="hardAlpha"/>
<feOffset dy="4"/>
<feGaussianBlur stdDeviation="2"/>
<feComposite in2="hardAlpha" operator="arithmetic" k2="-1" k3="1"/>
<feColorMatrix type="matrix" values="0 0 0 0 0 0 0 0 0 0 0 0 0 0 0 0 0 0 0.25 0"/>
<feBlend mode="normal" in2="shape" result="effect1_innerShadow_319_2013"/>
</filter>
</defs>
</svg>
