<svg width="90" height="90" viewBox="0 0 90 90" fill="none" xmlns="http://www.w3.org/2000/svg">
<rect width="90" height="90" rx="10" fill="white"/>
<path fill-rule="evenodd" clip-rule="evenodd" d="M45.5136 61.153C68.9767 61.153 88 53.971 88 45.0902C88 36.2093 68.9767 29 45.5136 29C22.0233 29 3 36.2093 3 45.0902C3 53.9714 22.0233 61.153 45.5136 61.153Z" fill="#425E99"/>
<path fill-rule="evenodd" clip-rule="evenodd" d="M45.5141 59.5084C22.9829 59.5084 4.67285 53.0941 4.67285 45.0902C4.67285 37.1139 22.9829 30.6174 45.5141 30.6174C68.1003 30.6174 86.3826 37.1139 86.3826 45.0902C86.3826 53.0941 68.1003 59.5084 45.5141 59.5084Z" fill="white"/>
<path fill-rule="evenodd" clip-rule="evenodd" d="M45.5132 58.3848C67.3592 58.3848 85.0932 52.4367 85.0932 45.0902C85.0932 37.7718 67.3592 31.8237 45.5132 31.8237C23.6398 31.8237 5.95996 37.7718 5.95996 45.0902C5.96042 52.4367 23.6398 58.3848 45.5132 58.3848Z" fill="#425E99"/>
<path fill-rule="evenodd" clip-rule="evenodd" d="M55.8748 47.7489C57.7385 45.9947 58.7794 44.1583 61.4663 44.1856C63.0832 44.2128 63.4939 45.5013 63.7679 46.0497L67.304 40.0743H69.4693L63.6039 50.4631C63.494 50.6821 63.2195 51.0932 63.2472 51.4222C63.3031 51.9428 63.9606 51.8061 63.7139 51.8061C64.8924 51.7511 67.0573 49.5035 67.5784 48.9556C67.6874 48.8179 67.8801 48.5717 67.9891 48.5717C68.0991 48.5717 68.3185 48.6812 68.3185 48.8456C68.3185 48.9556 68.0718 49.3663 67.8801 49.613C66.7833 50.9837 64.9746 53.0941 62.9188 53.1491C61.9047 53.1491 61.5203 52.7379 61.3836 51.9433C60.9179 52.354 59.3277 53.0668 57.7108 53.0668C56.3673 53.0396 55.8189 52.2445 55.5454 51.6143C55.2987 51.0937 55.1888 50.3263 55.3805 49.5589C54.6404 49.9429 53.9553 49.9974 52.9685 49.9701C51.8167 49.9424 51.1039 49.4217 50.7481 48.0783C49.4324 50.4908 49.377 50.5726 48.0344 53.0946H45.7046L48.6923 48.0238C49.0766 47.3382 49.2684 46.7902 49.4047 46.2151C49.4874 45.8857 49.2407 45.584 48.884 45.5572C48.5006 45.5572 47.8709 45.9411 47.267 46.5163C47.267 46.5163 45.7323 48.161 44.6083 49.8329C43.5388 51.4231 41.7028 53.2318 39.702 53.2318C38.249 53.2318 36.9333 52.4371 36.6593 50.902C36.6593 50.902 36.5221 51.2581 35.2336 51.9983C35.1241 52.0528 34.8502 52.2172 34.7684 52.1627C34.5212 51.9437 34.3845 51.6693 34.3568 51.4771C34.439 51.5048 34.6035 51.3676 35.1241 50.9565C36.1382 50.1891 36.3576 49.5853 36.3576 49.5853C36.6039 49.0646 37.0432 48.2423 37.3444 47.6667C38.1672 46.022 39.592 44.35 41.9218 44.2678C42.3057 44.2678 42.4152 44.4323 42.4975 44.5695C42.7165 44.7339 42.6347 45.0629 42.6347 45.0629C40.99 45.3096 39.8664 46.2687 39.1808 47.201C38.7701 47.8039 38.3312 48.7907 38.249 49.5031C38.0845 50.7366 38.6602 51.5585 39.5098 51.7506C41.0995 51.9973 42.4152 50.8461 43.457 49.0646C43.7314 48.5985 43.9232 47.3922 43.9232 46.7344C43.9232 46.0765 43.5665 45.3914 43.2926 45.1169C43.2926 44.6513 43.5938 44.3496 43.95 44.3496C44.0595 44.3496 44.1694 44.3496 44.2789 44.4591C44.8273 45.0075 45.129 46.0492 45.129 46.8439C45.129 47.1183 45.129 47.3922 45.074 47.6667C46.2253 46.2687 47.6778 44.4595 48.8022 44.1033C49.0212 43.9938 49.2407 43.9938 49.4596 43.9938C51.5155 43.9389 51.2415 45.803 51.2415 45.803C52.3374 44.5422 53.1052 44.0761 54.1193 44.1306C55.216 44.1856 55.5995 44.9534 55.5995 45.5563C55.5718 46.2687 55.052 47.091 54.1479 47.1183C53.3519 47.1183 52.8862 46.7344 52.6395 46.022C52.1189 46.2142 51.8726 46.5704 51.7627 47.2827C51.5977 48.1873 52.2833 48.9002 53.1602 48.9002C54.6681 48.9006 55.3264 48.2423 55.8748 47.7489ZM57.519 35.9354C57.519 36.8127 54.4487 38.4846 51.8444 38.4846C47.7882 38.4846 43.567 36.5383 41.6215 36.0998C39.5107 35.6064 37.592 35.1953 36.0841 35.1953C30.7939 35.1953 28.4364 37.4705 28.5463 39.5537C28.6013 40.4033 29.286 40.9516 30.3005 40.7595C31.3972 40.5677 32.932 39.5259 33.3159 38.6214C33.3981 38.4296 33.6176 38.4019 33.6998 38.4569C33.8643 38.5941 33.8093 38.7858 33.8093 38.7858C33.6721 39.8549 32.0274 42.8153 29.1769 42.8153C27.5872 42.8153 26.5182 41.3351 26.5454 39.8821C26.5727 37.1684 29.3414 34.4274 36.1664 34.4274C37.4544 34.4274 38.9073 34.5369 40.4975 34.8113C42.3335 35.1403 46.9108 35.9076 50.6386 35.9626C52.0098 35.9626 53.764 36.0176 55.1892 35.7982C56.6967 35.5514 56.3678 35.4965 56.9711 35.4965C57.519 35.4965 57.519 35.7159 57.519 35.9354Z" fill="white"/>
<path fill-rule="evenodd" clip-rule="evenodd" d="M61.5766 45.4741C60.6166 45.3646 59.4103 46.1869 58.424 47.3932C57.9306 47.9961 57.4099 49.1474 57.3272 49.8325C57.2182 50.5181 57.4099 51.2032 57.6566 51.3949C57.9033 51.5867 59.0001 52.1623 60.6993 50.4358C61.6583 49.4763 62.5902 47.9139 62.5902 47.9139L62.2885 47.8312C62.8641 46.7626 62.7537 45.6108 61.5766 45.4741Z" fill="#425E99"/>
<path fill-rule="evenodd" clip-rule="evenodd" d="M41.5401 42.2397C41.5401 42.5414 41.9508 42.7881 42.3074 42.8158C42.2252 43.117 42.2525 43.2542 42.1157 43.227C41.2934 43.227 40.9644 42.4319 40.9644 42.4319C39.8686 42.6236 38.7995 42.7608 36.6337 42.9803C31.179 51.8066 29.4798 53.2595 26.1355 53.2595C23.7507 53.2595 21.6403 51.6971 21.5854 48.9011C21.5577 47.2019 22.9284 45.1183 25.4776 44.4877C25.7793 44.4877 25.8888 44.5977 25.8888 44.7621C25.8888 44.8721 25.7793 45.0088 25.5322 45.1183C24.792 45.3928 23.504 46.8453 23.504 48.1887C23.504 49.2028 24.1346 50.3268 25.2032 50.573C25.5049 50.6557 25.7793 50.628 26.0533 50.628C28.712 50.628 31.6997 47.6403 34.9341 43.0902C34.4134 43.1175 32.1931 43.3646 31.6447 43.9948C31.3985 44.1865 31.234 44.077 31.179 43.8576C31.179 43.8026 31.2613 43.6109 31.344 43.5009C32.2208 42.5141 34.8523 42.2951 35.4825 42.2129C37.9495 38.4301 41.1289 36.0726 41.7868 36.1003C41.8963 36.1003 42.1434 36.2648 42.0335 36.5387C42.0058 36.5937 41.7318 36.8949 41.6228 36.9772C41.0744 37.4706 39.2103 38.6768 37.1821 42.1029C38.8268 42.0207 40.7454 41.6918 40.7454 41.6918C40.7454 41.6918 40.636 41.3356 40.636 41.0339C40.7182 39.8554 41.4033 39.1425 42.2806 39.2797C42.7745 39.362 43.103 39.7731 43.103 40.2116C43.103 40.6777 42.7468 41.3628 42.3901 41.6918C42.143 41.883 41.8686 42.0752 41.5401 42.2397Z" fill="white"/>
<path fill-rule="evenodd" clip-rule="evenodd" d="M41.4016 41.6363C41.4016 41.6363 41.676 41.664 42.0867 41.1979C42.2512 41.0334 42.5256 40.54 42.4706 40.2111C42.4429 40.0466 42.3611 39.8549 42.1694 39.8821C41.7578 39.9648 41.5111 40.1565 41.4016 40.5677C41.2648 41.0061 41.3198 41.3078 41.4016 41.6363Z" fill="#425E99"/>
</svg>
