<svg width="90" height="90" viewBox="0 0 90 90" fill="none" xmlns="http://www.w3.org/2000/svg">
<rect width="90" height="90" rx="10" fill="white"/>
<path d="M18.1837 61.2805C22.2869 61.2805 29.8065 61.264 29.8065 61.264V64.9787C29.8065 64.9787 17.6619 64.9736 12.9062 64.9812C11.1174 64.985 11.2329 65.1869 11.2215 66.9871C11.21 68.8534 11.2418 70.7209 11.2126 72.5872C11.1961 73.6434 11.3141 74.1309 12.4021 74.1221C15.736 74.0954 19.0699 74.1119 22.4037 74.1119C22.9611 74.1119 23.5387 74.0472 23.6974 73.4187C23.8802 72.6938 23.9335 71.9181 23.6746 71.2059C23.5641 70.905 23.1071 71.0726 22.8113 71.0713C20.7673 71.0586 15.7982 71.0865 15.7982 71.0865L15.783 68.079C15.783 68.079 24.3817 68.0586 27.8933 68.051C29.592 68.0472 29.6935 68.1462 29.6542 69.864C29.6161 71.5068 29.6897 73.1521 29.4549 74.7886C29.1705 76.7627 28.1612 77.7771 26.2124 77.7974C20.9234 77.8507 15.6332 77.913 10.3455 77.8495C6.73611 77.8063 5.23803 76.1927 5.07552 72.5922C4.97523 70.3692 4.96507 68.15 5.10472 65.9296C5.2723 63.247 6.76658 61.7083 9.44915 61.4569C12.6853 61.156 15.9328 61.3439 18.1837 61.2805ZM66.6783 69.054C66.6783 71.6159 66.6123 74.0776 66.7075 76.5342C66.752 77.6832 66.7075 77.899 66.7075 77.899L60.5832 77.8469C60.5832 77.8469 60.5844 77.5448 60.5832 76.8821C60.5768 71.946 60.5679 66.3651 60.5514 61.429C60.5514 61.429 64.388 61.415 65.9432 61.4227C66.771 61.4265 67.0503 62.0346 67.3474 62.6452C68.8417 65.7163 70.341 68.7848 71.8416 71.8521C72.1298 72.4412 72.4294 73.0239 72.8484 73.8554C73.6279 72.2914 74.3236 70.9291 74.9901 69.5516C76.0934 67.2766 77.1966 65.0028 78.2618 62.71C78.7264 61.7108 79.393 61.1992 80.5419 61.2614C81.7835 61.3287 85.1821 61.2563 85.1821 61.2563C85.1821 61.2563 85.1631 71.7848 85.1885 76.5875C85.1936 77.5778 85.1885 77.9282 85.1885 77.9282L79.0718 77.918C79.0718 77.918 79.0591 77.5968 79.0718 76.8262C79.1136 74.2541 79.0883 71.6807 79.0883 69.0692C78.4548 69.1555 78.4167 69.6722 78.2465 70.0277C77.2271 72.1454 76.1861 74.2541 75.258 76.4123C74.7895 77.5016 74.0849 78.0221 72.9322 77.9993C71.7451 77.9764 70.8958 77.4394 70.4426 76.3324C69.5863 74.2388 68.6288 72.1882 67.5734 70.1877C67.3778 69.8195 67.3207 69.3409 66.6783 69.054ZM58.9899 61.2728C57.2836 66.5098 55.6116 71.7213 53.9358 76.8554C53.8812 77.023 53.8317 77.2261 53.7098 77.3315C52.9747 78.0463 50.9155 77.8546 49.3793 77.8406C48.6988 77.8203 48.3675 77.2706 48.1631 76.6739C47.4153 74.4953 46.6802 72.3117 45.9287 70.1344C45.7331 69.5681 45.4945 69.0172 45.2507 68.3963C45.2507 68.3963 42.7763 74.4775 42.0324 76.7513C41.7721 77.5486 41.3379 77.8965 40.4848 77.8749C35.9106 77.7619 37.0443 78.4411 35.6427 74.4648C34.1129 70.1255 32.7113 65.7417 31.2195 61.2741H36.9287L40.5483 71.4179C40.5483 71.4179 42.7408 65.2186 43.533 62.6808C43.7882 61.867 44.0662 61.2386 45.1149 61.2145C46.1724 61.1891 46.4733 61.8035 46.7323 62.6224C47.5321 65.1564 49.3438 71.0929 49.8757 71.4903C50.7885 68.6795 53.0763 61.2741 53.0763 61.2741C53.0763 61.2741 58.769 61.2259 58.9899 61.2728ZM45.0654 49.3314C38.2986 49.2958 31.8162 48.1126 25.9775 44.4652C22.1308 42.0606 19.113 38.8918 17.9641 34.3976C16.3098 27.9279 18.6077 22.6986 23.5514 18.5281C27.6762 15.0482 32.6097 13.3457 37.8682 12.5789C45.5452 11.4592 53.1017 11.8426 60.3864 14.8032C62.7452 15.7617 64.9149 17.044 66.851 18.7083C74.7527 25.503 74.6778 36.0543 66.6491 42.7132C62.1282 46.4622 56.7643 48.1685 51.05 48.9696C49.0645 49.2489 47.0674 49.3212 45.0654 49.3314ZM45.1301 46.9751C47.932 46.9459 50.725 46.8024 53.4851 46.2895C58.1228 45.4262 62.5091 43.9637 66.1197 40.7593C72.2517 35.3167 72.5881 26.6901 66.9183 20.7777C64.6064 18.3668 61.854 16.6085 58.7766 15.3631C52.1292 12.6741 45.2456 12.2361 38.2389 13.4143C32.4663 14.3855 27.2433 16.5539 23.1337 20.8983C17.7533 26.5847 17.9425 34.7327 23.5527 40.2121C25.1574 41.78 27.0148 42.976 29.0461 43.9129C34.1522 46.2667 39.5809 46.9344 45.1301 46.9751Z" fill="#C8102E"/>
<path d="M45.9285 21.7286L54.9526 27.1522C54.9475 28.6642 54.9183 32.2139 54.9183 32.2139C54.5857 37.1652 57.9309 38.1339 61.4349 37.056C65.3985 35.8372 67.5504 31.3506 66.3278 26.9897C65.4328 23.7993 63.2745 21.6397 60.5704 19.9385C56.3415 17.2788 51.6111 16.4092 46.7258 16.1616C41.0839 15.876 35.6375 16.7088 30.5961 19.3774C27.087 21.2348 24.4209 23.8602 23.6427 27.966C22.6296 33.3184 26.9093 38.1427 31.9482 37.334C34.0759 36.9925 35.2096 35.7128 35.2503 33.5127C35.2858 31.5563 35.2807 28.7988 35.2465 26.8424L44.2857 21.6855C44.2146 26.4412 44.3797 32.417 44.1169 37.1703C43.9264 40.6082 41.8685 42.7093 38.4521 43.127C34.1991 43.6476 30.2228 42.9277 26.5944 40.5943C20.2123 36.4885 18.845 28.39 23.5157 22.3812C26.4345 18.6258 30.4298 16.6529 34.9367 15.5268C43.232 13.4562 51.3953 13.6745 59.3681 16.9576C63.9778 18.8569 67.4933 21.9102 68.9266 26.8424C70.3206 31.6401 69.1297 35.9071 65.3972 39.1787C61.162 42.8922 56.1091 44.0564 50.5916 42.8604C47.9129 42.2802 46.3488 40.4838 46.1405 37.739C45.7406 32.5034 46.0542 27.255 45.9285 21.7286Z" fill="#C8102E"/>
</svg>
