<svg width="90" height="90" viewBox="0 0 90 90" fill="none" xmlns="http://www.w3.org/2000/svg">
<rect width="90" height="90" rx="10" fill="white"/>
<path d="M45.0022 55.5943C44.1413 55.5943 43.2747 55.6402 42.5918 55.732C39.3492 56.1682 38.1325 57.0119 36.9904 59.164C36.25 60.5529 34.7636 64.7597 33.5756 70.12C31.2497 70.0387 28.9251 69.9239 26.6026 69.7757C25.7933 62.2459 23.9281 30.9046 23.8765 20.1494C25.1907 20.0633 26.5853 19.9486 28.1234 19.8854C29.0532 24.8555 32.1523 42.1762 34.689 47.6226C35.8139 50.0503 37.7766 50.8767 40.1813 51.0604C43.395 51.2268 46.6151 51.2268 49.8288 51.0604C52.2278 50.8767 54.1905 50.0503 55.3154 47.6226C57.8464 42.1762 60.9455 24.8613 61.881 19.8854C63.4191 19.9543 64.8194 20.0633 66.1279 20.1494C66.0763 30.9103 64.2168 62.2459 63.3961 69.7757C61.3185 69.9134 58.9196 70.0282 56.4231 70.12C55.2351 64.7539 53.7486 60.5529 53.0083 59.164C51.8719 57.0119 50.6552 56.1682 47.4069 55.732C46.6091 55.635 45.8059 55.589 45.0022 55.5943Z" fill="#DA251D"/>
<path d="M45.0032 78.264C38.5352 78.264 23.7512 77.868 18.8844 76.9555C13.7135 75.9855 10.2241 73.0184 8.51384 68.1401C7.05036 63.9793 5.97141 56.2544 5.30567 45.1779C4.89245 38.2393 4.89819 32.0066 5.32289 26.6692C6.05749 17.5842 10.2528 13.9628 19.0279 12.9699C24.8933 12.3157 38.0015 12 45.0032 12C52.0049 12 65.1131 12.3157 70.967 12.9757C79.7421 13.9685 83.9432 17.5899 84.6721 26.675C85.1025 32.0123 85.1082 38.245 84.695 45.1836C84.035 56.2602 82.9561 63.985 81.4926 68.1459C79.7766 73.0242 76.2929 75.9855 71.1105 76.9612C66.2609 77.868 51.4712 78.264 45.0032 78.264ZM70.3759 73.0069C72.0292 72.6957 73.5735 71.961 74.858 70.8747C76.1426 69.7883 77.1234 68.3874 77.7048 66.8087C78.623 64.1859 79.8914 58.2688 80.6891 44.9311C81.0966 38.1762 81.0908 32.1386 80.6719 26.9849C80.1783 20.821 77.0677 17.699 70.5194 16.9586C64.8147 16.3158 51.9189 16.0174 45.0032 16.0174C38.0876 16.0174 25.1917 16.3158 19.4813 16.9643C12.9387 17.7047 9.8281 20.8268 9.3288 26.9906C8.91558 32.1443 8.91557 38.1819 9.31731 44.9369C10.1151 58.2746 11.3834 64.1859 12.3017 66.8144C13.1855 69.3281 15.6533 72.2608 19.6248 73.0127C23.7168 73.776 37.1636 74.2523 45.0032 74.2523C52.8429 74.2523 66.2839 73.776 70.3759 73.0069Z" fill="#DA251D"/>
</svg>
