<svg width="90" height="90" viewBox="0 0 90 90" fill="none" xmlns="http://www.w3.org/2000/svg">
<rect width="90" height="90" rx="10" fill="white"/>
<path d="M16.5335 43.9885C16.5335 48.2669 21.7185 51.6102 29.5697 53.4632L43.2858 37.8147H45L33.1283 60.6514C20.2083 58.4414 11 52.6784 11 45.6602C11 36.6389 26.232 29.3487 45 29.3487C63.768 29.3487 79 36.6389 79 45.6602C79 52.6784 69.7917 58.4414 56.8717 60.657L45 37.8147H46.7142L60.4275 53.4632C68.2815 51.6102 73.4637 48.2669 73.4637 43.9885C73.4637 36.4405 60.759 30.1619 44.9972 30.1619C29.2382 30.1619 16.5335 36.4405 16.5335 43.9885Z" fill="#222222"/>
</svg>
