<svg width="90" height="90" viewBox="0 0 90 90" fill="none" xmlns="http://www.w3.org/2000/svg">
<rect width="90" height="90" rx="10" fill="white"/>
<path d="M16.5335 43.9885C16.5335 48.2668 21.7185 51.6101 29.5697 53.4631L43.2858 37.8146H45L33.1283 60.6513C20.2083 58.4413 11 52.6783 11 45.6601C11 36.6388 26.232 29.3486 45 29.3486C63.768 29.3486 79 36.6388 79 45.6601C79 52.6783 69.7917 58.4413 56.8717 60.657L45 37.8146H46.7142L60.4275 53.4631C68.2815 51.6101 73.4637 48.2668 73.4637 43.9885C73.4637 36.4405 60.759 30.1618 44.9972 30.1618C29.2382 30.1618 16.5335 36.4405 16.5335 43.9885Z" fill="#020B24"/>
</svg>
