<svg width="90" height="90" viewBox="0 0 90 90" fill="none" xmlns="http://www.w3.org/2000/svg">
<rect width="90" height="90" rx="10" fill="white"/>
<path d="M55.8684 61.118C55.3576 63.2413 53.7598 64.1357 51.0849 64.1357C49.2695 64.1357 47.6726 63.7703 46.8511 62.9446C45.9603 62.0689 45.8262 60.8607 45.8262 59.5696V53.238H47.8587V59.4613C47.8587 60.8672 47.9741 61.7057 48.5221 62.3233C49.1443 63.0473 50.2192 63.2591 51.1258 63.2591C53.0432 63.2591 54.3205 62.6366 54.6673 60.9454C54.7474 60.5558 54.8097 60.0784 54.8097 59.3416V53.2379H56.0608V58.915C56.0609 59.9751 55.9997 60.5738 55.8684 61.118Z" fill="#01422D"/>
<path d="M66.1676 55.2593L63.8134 60.1801H68.4057L66.1676 55.2593ZM70.0818 63.8995L68.7415 60.905H63.4659L62.0303 63.8995H60.7402L66.0459 53.2377H67.3101L72.5015 63.8995H70.0818Z" fill="#01422D"/>
<path d="M17.7462 55.2593L15.3939 60.1801H19.9873L17.7462 55.2593ZM21.6623 63.8995L20.324 60.905H15.0472L13.6097 63.8995H12.3203L17.626 53.2377H18.8893L24.0829 63.8995H21.6623Z" fill="#01422D"/>
<path d="M35.1557 64.1347C31.6433 64.1347 28.3052 62.9235 28.3052 58.8292C28.3052 57.4986 28.8943 56.1348 29.784 55.1586C31.1786 53.6412 33.2962 53.036 35.2959 53.036C36.5051 53.036 37.9058 53.311 38.9957 53.8663V55.1326C38.008 54.3943 36.7076 53.8851 35.4394 53.8851C32.5501 53.8851 30.5574 55.697 30.5574 58.6946C30.5574 61.4078 32.3158 63.2649 35.0206 63.2649C35.709 63.2649 36.6616 63.1422 37.3169 62.8904V58.9979H39.3494V63.3443C38.1571 63.8825 36.4649 64.1347 35.1557 64.1347Z" fill="#01422D"/>
<path d="M81.2047 53.978H79.71V59.0785H81.0173C82.1133 59.0785 82.7688 58.8735 83.2796 58.4608C83.8187 58.0269 84.1412 57.3613 84.1412 56.4616C84.141 54.6598 82.8347 53.978 81.2047 53.978ZM84.6591 63.8995L81.8407 59.8054H79.71V63.8995H77.6763V53.2379H81.5232C83.084 53.2379 84.646 53.4648 85.5156 54.4279C85.9704 54.9312 86.2178 55.6311 86.2178 56.5318C86.2178 58.1796 84.9785 59.1778 83.8746 59.5705L87.0002 63.8996L84.6591 63.8995Z" fill="#01422D"/>
<path d="M3.73013 66.0911C3.19331 66.3441 2.60517 66.5117 2 66.5117C3.39352 65.5017 3.98261 64.4743 4.18398 62.7731C4.30218 61.8291 4.30218 60.8851 4.30218 59.9421V53.238H6.3359V61.3069C6.33611 63.2771 5.57962 65.1822 3.73013 66.0911Z" fill="#01422D"/>
<path d="M3.73013 66.0911C3.19331 66.3441 2.60517 66.5117 2 66.5117C3.39352 65.5017 3.98261 64.4743 4.18398 62.7731C4.30218 61.8291 4.30218 60.8851 4.30218 59.9421V53.238H6.3359V61.3069C6.33611 63.2771 5.57962 65.1822 3.73013 66.0911Z" stroke="#1E421D" stroke-width="0.575339"/>
<path d="M11.5515 26.0362C11.5515 26.0362 11.5956 25.8805 11.6146 25.8464C11.6337 25.8112 11.7399 25.4517 12.2527 25.4126C12.2527 25.4126 12.5111 25.3895 12.8088 25.4818C12.8088 25.4818 12.6375 25.9247 11.9363 25.998C11.9363 25.998 11.6606 26.0393 11.5515 26.0362ZM80.2094 46.0014C80.0352 46.4329 79.2888 46.9826 78.4122 47.2765C77.4866 47.5867 75.5538 47.5947 74.5652 47.2655C74.5652 47.2655 74.3569 47.0384 73.6615 46.8337C72.0446 46.3569 71.5217 46.0244 70.7011 45.2582C70.1212 44.717 69.4827 44.0381 68.8639 43.3983C68.5883 43.1131 67.9181 42.4402 66.74 42.2354C65.5109 42.0225 62.4942 41.7915 61.3834 41.3978C60.636 41.1318 59.7502 40.6267 58.6384 38.9597C58.1054 38.1593 57.7016 37.9263 56.9322 37.4342C56.9322 37.4342 57.5194 37.8991 57.8281 38.4636C58.2738 39.2831 58.4872 39.8726 58.7306 40.3083C58.9758 40.7472 59.2596 41.138 59.7023 41.4944C60.2513 41.9363 60.606 42.0336 61.2261 42.1591C61.8191 42.2797 63.8439 42.3692 65.5811 42.4374C67.2891 42.5037 68.0194 43.0339 68.5534 43.4829C69.0443 43.8985 69.8267 45.0858 70.3758 45.5716C71.11 46.2184 71.1291 46.2274 71.9817 46.7636C72.4124 47.0347 72.7922 47.2122 73.1419 47.3381C73.9243 47.7989 73.6007 48.6034 73.6007 48.6034C73.3764 49.2443 72.569 49.4739 71.6263 49.3403C70.2015 49.214 68.9753 48.0228 67.9394 47.1682C67.3694 46.6971 67.1679 46.4621 66.0689 45.6968C64.3969 44.5341 60.4678 44.6304 60.4678 44.6304L57.5885 44.6123C51.9803 44.6947 49.9283 40.1716 49.3685 39.2225C49.1751 38.8922 48.9959 38.6261 48.8254 38.4081C48.5639 38.0545 47.1565 36.2129 45.6486 35.5551C45.6486 35.5551 47.0962 36.8104 46.951 37.4973C46.6405 37.4933 46.2878 37.5134 45.8669 37.5254C40.2168 37.6912 39.0426 37.3778 38.15 37.1991C37.2563 37.0193 35.7586 36.5734 34.3031 35.9016C34.3031 35.9016 34.4654 34.5058 33.8874 33.3459C33.8874 33.3459 38.551 34.9968 42.2615 34.5289C42.2615 34.5289 36.2727 34.2356 32.537 31.2512C32.537 31.2512 33.4588 34.4055 32.7303 35.7301C32.7303 35.7301 31.7487 38.1352 26.7144 36.5304C26.7144 36.5304 24.3991 35.6276 22.5988 35.6276C22.5988 35.6276 21.2434 35.6838 21.0812 36.3919C21.0812 36.3919 20.9929 36.7302 21.3466 36.8909C21.3466 36.8909 21.7393 37.0035 21.5539 37.2956C21.2484 37.7786 20.8244 38.1522 20.4038 38.363C18.9993 38.2937 19.1034 37.1379 19.1034 37.1379C19.1285 36.7281 19.2607 36.4419 19.3859 36.1598C20.2685 34.1804 23.3701 33.8932 23.3701 33.8932C26.6701 33.5629 30.1294 34.3572 30.1294 34.3572C27.6549 33.7656 26.8134 33.3318 26.106 32.7403C25.1532 31.9429 24.2628 29.2638 24.2628 29.2638C23.8831 30.5773 24.353 31.9049 24.6706 32.5867C24.2016 31.8366 23.5335 31.203 22.9374 30.7239C21.4136 29.4996 19.2015 29.104 19.2015 29.104C18.5622 28.9944 18.3088 28.3307 18.3088 28.3307C17.4892 26.8184 16.5616 26.7471 16.5616 26.7471C17.0184 27.3747 16.9703 28.2334 16.9703 28.2334C16.9703 29.8161 14.9398 30.3414 14.9398 30.3414C13.4209 31.8547 13.1575 31.8224 12.8609 31.8446C12.5643 31.8657 12.345 31.5574 12.345 31.5574C12.2487 31.4127 12.409 31.2832 12.409 31.2832C12.6654 31.1225 12.908 30.9127 12.908 30.9127C14.3887 29.7206 14.597 29.1111 14.4768 28.2795C14.2353 26.6184 12.899 26.741 12.899 26.741C12.2707 26.741 11.9602 27.221 11.9602 27.221C11.7178 27.5103 11.1878 28.415 11.1878 28.415C10.7209 29.1883 10.3032 29.0747 10.3032 29.0747C9.78833 29.1079 9.41563 28.6499 9.41563 28.6499C9.39553 28.632 9.3805 28.6108 9.36357 28.5927C8.98199 28.1819 9.31045 27.6859 9.31045 27.6859C9.9388 26.5732 11.0226 26.4639 11.1699 26.4547C11.318 26.4457 11.818 26.4085 11.818 26.4085C13.042 26.3192 13.8416 25.1462 13.8416 25.1462C13.3257 24.8962 12.4042 25.0288 12.4042 25.0288C11.5065 25.0891 11.2681 26.044 11.2681 26.044C10.4906 26.1586 10.5297 25.56 10.696 25.4024C10.8272 25.2477 11.29 24.4965 14.2664 24.0487C14.2664 24.0487 15.8454 23.7354 18.6494 24.0437C18.7526 24.0547 18.8527 24.1452 18.7205 24.3018C18.3679 24.7166 17.2649 25.6364 15.4956 25.1915C15.4956 25.1915 15.4637 25.9005 17.3932 26.255C17.3932 26.255 19.1333 26.6265 21.9745 28.9141C21.9745 28.9141 20.597 26.3604 18.2157 25.5821C18.2157 25.5821 18.0393 25.4696 18.1996 25.308C18.1996 25.308 19.3266 24.2956 21.3152 24.4021C21.3152 24.4021 27.8912 24.7406 31.5879 28.6078C31.5879 28.6078 31.4598 27.9631 30.8967 27.0282C30.8967 27.0282 30.7835 26.9167 30.8486 26.8354C30.8486 26.8354 30.8967 26.6737 31.5399 26.8032C31.5399 26.8032 33.8871 27.1899 39.3359 29.1882C39.3359 29.1882 43.4204 30.6233 45.6476 31.5492C48.9957 32.94 57.3837 36.3505 62.6815 39.2899C63.6274 39.8141 67.5675 41.7653 67.5675 41.7653C70.5128 43.5979 73.2228 44.9246 73.2228 44.9246C75.8917 46.1608 77.8322 45.5944 77.8322 45.5944C78.4522 45.3603 79.6366 44.7158 80.0983 45.1735C80.3335 45.4078 80.3475 45.7129 80.2094 46.0014ZM80.8735 44.9639C80.5246 44.1496 79.4017 44.3493 79.4017 44.3493C78.888 44.3805 78.2399 44.9196 77.3391 45.1053C75.4015 45.506 73.9199 44.8454 73.9199 44.8454C71.0649 43.5641 69.1322 42.1681 67.8749 41.4471C66.6178 40.7261 61.9643 38.2757 57.3098 35.9309C57.3098 35.9309 51.978 33.1913 44.0896 29.9225C44.0896 29.9225 28.8699 23.0003 17.9231 23.0003C17.9231 23.0003 12.2528 22.9289 10.3324 25.1162C10.3324 25.1162 9.99383 25.3974 10.159 25.7438C10.159 25.7438 10.1821 25.8393 10.111 25.9005C10.111 25.9005 9.26643 26.4569 8.57904 27.2552C8.57904 27.2552 8.21058 27.6328 8.50687 28.1961C8.50687 28.1961 8.87353 28.8368 9.10506 29.1121C9.33849 29.3862 9.80526 29.8663 10.5185 29.795C10.834 29.7628 10.843 29.6836 10.843 29.6836C11.1706 30.015 11.7427 30.035 11.7427 30.035C11.6855 29.8312 11.4671 29.4274 11.4481 29.1925C11.427 28.9294 11.5291 28.6853 11.5291 28.6853C11.6484 28.3961 11.8719 28.0376 12.0994 27.8588C12.3017 27.7001 12.8035 27.5355 13.1782 27.7986C13.4789 28.0096 13.7983 28.6853 13.4378 29.5751C13.4378 29.5751 13.0321 30.278 12.6574 30.3563L12.5534 30.3613C12.3389 30.3573 11.8611 30.0932 11.8611 30.0932C11.8611 30.0932 11.8411 30.1505 11.8941 30.3926C11.9251 30.5301 11.9692 30.6828 12.0064 30.8002L11.9071 30.8805C11.9071 30.8805 11.6055 31.1236 11.7389 31.4741C11.7389 31.4741 12.0324 32.5808 12.8519 32.5808C13.5763 32.6049 14.1793 31.916 14.1793 31.916C15.7332 30.2359 17.9231 30.01 17.9231 30.01C20.3504 29.8442 23.819 32.3357 24.7636 33.0548C21.1691 33.0157 19.7184 34.3984 19.7184 34.3984C17.6938 35.9782 18.482 37.8842 18.482 37.8842C18.6294 38.2988 19.0441 38.6011 19.3087 38.7176C19.6902 38.8842 20.0039 38.8912 20.2995 38.8581C20.5129 38.835 20.7471 38.7557 20.8663 38.6734C21.1419 38.5105 21.6337 38.1883 21.8712 37.8458C22.0296 37.6741 22.1887 37.2534 22.0836 36.8526C22.0836 36.8526 22.0196 36.5303 22.3091 36.4649C22.3091 36.4649 23.2616 36.223 25.1853 37.0746C25.1853 37.0746 27.2751 38.2957 29.9859 38.5378C29.9859 38.5378 33.0686 38.8511 33.8131 37.1781C33.8131 37.1781 35.5842 37.9041 38.176 38.2015C38.176 38.2015 40.7014 38.4634 44.7981 38.1542C45.6043 38.0929 46.551 38.1603 46.551 38.1603C47.8624 38.3179 48.696 39.0019 49.0245 39.5371C50.3672 41.7222 51.9689 46.0094 58.528 45.8398L61.4964 45.7581C63.3008 45.7581 64.7702 45.7732 66.2129 46.5464C66.8429 46.8849 68.5073 48.5407 69.5319 49.1C72.5664 51.1499 74.3195 50.1969 74.3195 50.1969C75.3524 49.5935 75.2713 48.5197 75.0197 47.9185C74.7092 47.8197 78.7796 48.5167 80.515 46.2323C80.9256 45.7231 80.9975 45.2562 80.8735 44.9639Z" fill="#241F20"/>
</svg>
