<svg width="90" height="90" viewBox="0 0 90 90" fill="none" xmlns="http://www.w3.org/2000/svg">
<rect width="90" height="90" rx="10" fill="white"/>
<path d="M20.0159 30V46.2534C20.0159 48.3666 18.6284 49.6213 16.3822 49.6213C14.1369 49.6213 12.9472 47.9703 12.9472 46.1863V43.2803H7V46.2534C7 49.2909 7.925 54.7122 16.4484 54.7122C24.9709 54.7122 26.1616 48.8953 26.1616 46.1222V30H20.0159ZM35.3837 36.7381C29.7672 36.7381 27.2578 41.8897 27.2578 46.3184C27.2578 50.7459 30.0997 55.0409 35.9125 55.0409C41.0016 55.1066 44.3719 51.8031 44.3719 49.3575H38.7541C38.7541 49.3575 38.0938 50.9444 36.1109 50.9444C34.1288 50.9444 33.0066 49.8206 33.0066 47.1116H44.4366C44.4366 38.5875 40.21 36.7381 35.3837 36.7381ZM53.6559 36.7381C48.0409 36.7381 45.5287 41.8897 45.5287 46.3184C45.5287 50.7459 48.3706 55.0409 54.1866 55.0409C59.2741 55.1066 62.645 51.8031 62.645 49.3575H57.0269C57.0269 49.3575 56.3656 50.9444 54.385 50.9444C52.4013 50.9444 51.2781 49.8206 51.2781 47.1116H62.7075C62.7075 38.5875 58.4816 36.7381 53.6559 36.7381ZM74.7294 36.9366C71.8756 36.9366 70.6087 38.4872 70.5416 38.5678C70.1406 39.0484 69.6431 39.5569 69.6431 38.3234V37.3987H63.9578V60.1956H69.7072V53.9166C69.7072 53.4541 70.1691 53.5228 70.5019 53.9166C70.8341 54.3156 72.2866 55.305 74.7994 55.305C79.3594 55.305 82 51.3409 82 45.9228C82 38.9181 77.5744 36.9362 74.7294 36.9366ZM35.9762 40.4375C38.0906 40.4375 39.0137 42.0228 39.0137 43.6766H33.2009C33.2009 41.8897 33.9278 40.4375 35.9762 40.4375ZM54.2475 40.4375C56.3622 40.4375 57.2863 42.0228 57.2863 43.6766H51.4719C51.4719 41.8897 52.2003 40.4375 54.2475 40.4375ZM72.7487 41.3625C75.6606 41.3625 76.1862 43.6091 76.1862 45.9228C76.1862 48.2353 75.7887 51.2741 73.0172 51.2741C70.2409 51.2741 69.5134 49.49 69.5744 46.1222C69.6431 42.7509 70.9622 41.3625 72.7487 41.3625Z" fill="#4C6A41"/>
</svg>
