<svg width="90" height="90" viewBox="0 0 90 90" fill="none" xmlns="http://www.w3.org/2000/svg">
<rect width="90" height="90" rx="10" fill="white"/>
<path d="M21.0159 29.4021V45.6555C21.0159 47.7687 19.6284 49.0233 17.3822 49.0233C15.1369 49.0233 13.9472 47.3724 13.9472 45.5883V42.6824H8V45.6555C8 48.693 8.925 54.1143 17.4484 54.1143C25.9709 54.1143 27.1616 48.2974 27.1616 45.5243V29.4021H21.0159ZM36.3837 36.1402C30.7672 36.1402 28.2578 41.2918 28.2578 45.7205C28.2578 50.148 31.0997 54.443 36.9125 54.443C42.0016 54.5087 45.3719 51.2052 45.3719 48.7596H39.7541C39.7541 48.7596 39.0938 50.3465 37.1109 50.3465C35.1288 50.3465 34.0066 49.2227 34.0066 46.5137H45.4366C45.4366 37.9896 41.21 36.1402 36.3837 36.1402ZM54.6559 36.1402C49.0409 36.1402 46.5287 41.2918 46.5287 45.7205C46.5287 50.148 49.3706 54.443 55.1866 54.443C60.2741 54.5087 63.645 51.2052 63.645 48.7596H58.0269C58.0269 48.7596 57.3656 50.3465 55.385 50.3465C53.4013 50.3465 52.2781 49.2227 52.2781 46.5137H63.7075C63.7075 37.9896 59.4816 36.1402 54.6559 36.1402ZM75.7294 36.3387C72.8756 36.3387 71.6087 37.8893 71.5416 37.9699C71.1406 38.4505 70.6431 38.959 70.6431 37.7255V36.8008H64.9578V59.5977H70.7072V53.3187C70.7072 52.8562 71.1691 52.9249 71.5019 53.3187C71.8341 53.7177 73.2866 54.7071 75.7994 54.7071C80.3594 54.7071 83 50.743 83 45.3249C83 38.3202 78.5744 36.3383 75.7294 36.3387ZM36.9762 39.8396C39.0906 39.8396 40.0137 41.4249 40.0137 43.0787H34.2009C34.2009 41.2918 34.9278 39.8396 36.9762 39.8396ZM55.2475 39.8396C57.3622 39.8396 58.2863 41.4249 58.2863 43.0787H52.4719C52.4719 41.2918 53.2003 39.8396 55.2475 39.8396ZM73.7487 40.7646C76.6606 40.7646 77.1862 43.0112 77.1862 45.3249C77.1862 47.6374 76.7887 50.6762 74.0172 50.6762C71.2409 50.6762 70.5134 48.8921 70.5744 45.5243C70.6431 42.153 71.9622 40.7646 73.7487 40.7646ZM80.8778 55.0346C80.6375 55.0346 80.3994 55.0819 80.1774 55.1738C79.9553 55.2658 79.7535 55.4006 79.5836 55.5706C79.4137 55.7406 79.2789 55.9424 79.1869 56.1645C79.095 56.3865 79.0477 56.6246 79.0478 56.8649C79.0478 57.8752 79.8656 58.6949 80.8778 58.6949C81.8834 58.6949 82.7059 57.8752 82.7059 56.8649C82.7059 55.8546 81.8834 55.0346 80.8778 55.0346ZM80.8778 55.2283C81.3117 55.2287 81.7278 55.4012 82.0346 55.7081C82.3414 56.0149 82.5138 56.431 82.5141 56.8649C82.5141 57.7662 81.7809 58.5043 80.8778 58.5043C80.4431 58.5036 80.0264 58.3307 79.7189 58.0235C79.4114 57.7162 79.2382 57.2996 79.2372 56.8649C79.2372 55.9618 79.9722 55.2283 80.8778 55.2283ZM80.2191 55.8608V57.8008H80.4456V56.9605H80.9969L81.3591 57.8012H81.6109L81.2309 56.9033C81.3516 56.8618 81.3916 56.8324 81.4559 56.7637C81.5391 56.674 81.5916 56.5327 81.5916 56.4043C81.5916 56.0812 81.3428 55.8605 80.9822 55.8605L80.2191 55.8608ZM80.4394 56.0721H80.9775C81.2025 56.0721 81.3453 56.2002 81.3453 56.3987C81.3453 56.6237 81.1937 56.7637 80.9459 56.7637H80.4394V56.0721Z" fill="black"/>
</svg>
