<svg width="90" height="90" viewBox="0 0 90 90" fill="none" xmlns="http://www.w3.org/2000/svg">
<rect width="90" height="90" rx="10" fill="white"/>
<path d="M51.5108 51.9345C51.5108 52.0799 51.5558 52.164 51.6382 52.164C51.7058 52.1564 51.7657 52.1258 51.8183 52.0875L75.1933 36.612C75.5883 36.3304 76.0615 36.1856 76.5432 36.1989H81.6802C82.4675 36.1989 83 36.7344 83 37.5376V47.5436C83 48.7522 82.7375 49.456 81.6877 50.0986L75.4557 53.9235C75.3936 53.9675 75.3211 53.9939 75.2458 54C75.1708 54 75.0958 53.9387 75.0958 53.7168V42.0433C75.0958 41.9055 75.0583 41.8138 74.9683 41.8138C74.9025 41.8215 74.8401 41.848 74.7883 41.8903L57.705 53.2121C57.315 53.4797 56.8576 53.6251 56.3926 53.6175H45.0688C44.2738 53.6175 43.7488 53.0819 43.7488 52.2712V37.8511C43.7488 37.7441 43.7038 37.6446 43.6137 37.6446C43.5481 37.6531 43.486 37.6795 43.4339 37.7211L32.1624 44.6211C32.0501 44.6976 32.02 44.7513 32.02 44.8048C32.02 44.8507 32.0424 44.8965 32.1174 44.9807L40.1717 53.1889C40.2766 53.2959 40.3517 53.3802 40.3517 53.4719C40.3517 53.5484 40.2317 53.6097 40.0892 53.6097H32.8148C32.245 53.6097 31.8025 53.5256 31.495 53.2119L26.6129 48.2396C26.5944 48.217 26.5716 48.1986 26.5458 48.1854C26.52 48.1722 26.4918 48.1646 26.463 48.1631C26.4101 48.1656 26.3586 48.1813 26.313 48.2089L18.1541 53.2121C17.6591 53.518 17.3216 53.6022 16.8341 53.6022H9.32757C8.52499 53.6099 8 53.0667 8 52.2634V42.4488C8 41.2324 8.2625 40.5362 9.31981 39.8937L15.5893 36.0535C15.6385 36.0207 15.6955 36.0022 15.7542 36C15.8518 36 15.9042 36.0995 15.9042 36.3213V49.4637C15.9042 49.6014 15.9343 49.6625 16.0317 49.6625C16.0992 49.6549 16.1593 49.6243 16.2192 49.586L37.3971 36.589C37.802 36.306 38.297 36.1684 38.7919 36.1913H50.1908C50.9782 36.1913 51.5108 36.7268 51.5108 37.5299L51.5032 51.9345H51.5108Z" fill="#BD0A28"/>
</svg>
