<svg width="90" height="90" viewBox="0 0 90 90" fill="none" xmlns="http://www.w3.org/2000/svg">
<rect width="90" height="90" rx="10" fill="white"/>
<g filter="url(#filter0_i_319_2035)">
<path d="M50.769 51.997C50.769 52.135 50.814 52.213 50.892 52.213C50.9552 52.2045 51.0152 52.1796 51.066 52.141L73.506 37.579C73.8851 37.3135 74.3394 37.1768 74.802 37.189H79.734C80.49 37.189 81 37.693 81 38.449V47.866C81 49.006 80.748 49.666 79.74 50.269L73.758 53.869C73.6985 53.9103 73.6292 53.9351 73.557 53.941C73.485 53.941 73.413 53.884 73.413 53.677V42.688C73.413 42.559 73.377 42.475 73.29 42.475C73.2264 42.4821 73.166 42.507 73.116 42.547L56.718 53.2C56.3468 53.4527 55.9071 53.5856 55.458 53.581H44.586C43.824 53.581 43.32 53.077 43.32 52.315V38.743C43.32 38.644 43.275 38.551 43.188 38.551C43.1256 38.5594 43.0666 38.5842 43.017 38.623L32.196 45.112C32.088 45.184 32.058 45.235 32.058 45.286C32.058 45.328 32.082 45.373 32.154 45.451L39.885 53.176C39.987 53.278 40.059 53.356 40.059 53.443C40.059 53.515 39.942 53.572 39.807 53.572H32.82C32.271 53.572 31.848 53.494 31.551 53.197L26.865 48.517C26.8473 48.4957 26.8253 48.4783 26.8005 48.466C26.7757 48.4536 26.7487 48.4464 26.721 48.445C26.67 48.4479 26.6205 48.4633 26.577 48.49L18.747 53.2C18.3726 53.4515 17.9288 53.5795 17.478 53.566H10.275C9.504 53.572 9 53.062 9 52.309V43.069C9 41.929 9.252 41.269 10.266 40.669L16.29 37.048C16.3368 37.0183 16.3906 37.0017 16.446 37C16.542 37 16.59 37.09 16.59 37.3V49.672C16.59 49.801 16.62 49.861 16.713 49.861C16.7777 49.8509 16.8392 49.8263 16.893 49.789L37.221 37.552C37.6151 37.2867 38.0845 37.1562 38.559 37.18H49.503C50.259 37.18 50.769 37.684 50.769 38.44L50.763 51.994L50.769 51.997Z" fill="#05141F"/>
</g>
<defs>
<filter id="filter0_i_319_2035" x="9" y="37" width="72" height="20.9409" filterUnits="userSpaceOnUse" color-interpolation-filters="sRGB">
<feFlood flood-opacity="0" result="BackgroundImageFix"/>
<feBlend mode="normal" in="SourceGraphic" in2="BackgroundImageFix" result="shape"/>
<feColorMatrix in="SourceAlpha" type="matrix" values="0 0 0 0 0 0 0 0 0 0 0 0 0 0 0 0 0 0 127 0" result="hardAlpha"/>
<feOffset dy="4"/>
<feGaussianBlur stdDeviation="2"/>
<feComposite in2="hardAlpha" operator="arithmetic" k2="-1" k3="1"/>
<feColorMatrix type="matrix" values="0 0 0 0 0 0 0 0 0 0 0 0 0 0 0 0 0 0 0.5 0"/>
<feBlend mode="normal" in2="shape" result="effect1_innerShadow_319_2035"/>
</filter>
</defs>
</svg>
