<svg width="90" height="90" viewBox="0 0 90 90" fill="none" xmlns="http://www.w3.org/2000/svg">
<rect width="90" height="90" rx="10" fill="white"/>
<path fill-rule="evenodd" clip-rule="evenodd" d="M45.4823 24.7031C45.2778 24.7918 45.1417 24.6621 45.312 24.5187C45.4074 24.4437 45.4892 24.2592 45.5777 24.1705C45.7207 24.0338 45.9661 24.2185 45.8501 24.3959C45.7613 24.5391 45.6456 24.6281 45.4823 24.7031ZM52.0074 32.7834C52.0074 32.7834 52.4839 33.0498 52.5109 33.3026C52.5379 33.5554 52.5857 33.9789 52.1907 33.9379C51.7959 33.8969 50.7535 34.0062 50.379 34.218C49.9979 34.4297 49.6776 34.3204 49.5344 34.1633C49.3916 34.0062 49.126 33.9379 48.9281 34.0062C48.7309 34.0813 48.1725 34.4161 48.0704 34.293C47.9747 34.1633 47.8184 33.9379 48.2677 33.7945C48.7176 33.6578 48.3698 33.528 48.0562 33.528H47.7496C47.7496 33.528 47.3955 33.6307 47.2597 33.7535C47.1164 33.8832 46.8235 33.9652 46.6535 33.7535C46.483 33.5414 46.4693 33.0088 47.0077 33.0362C47.5391 33.0635 47.9884 32.7287 47.8863 32.5853C47.7905 32.4419 47.9747 32.3052 48.111 32.5033C48.2538 32.7016 48.281 32.681 48.8057 32.8107C49.3235 32.9405 49.126 32.64 49.3916 32.8928C49.6573 33.1525 49.8273 33.0772 49.9164 32.8107C49.9979 32.5443 49.7322 32.0387 49.4053 32.2165C49.0851 32.4009 48.8603 32.2778 48.8194 32.1344C48.7718 31.991 48.5673 31.8407 48.4382 31.8817C48.3086 31.9227 48.2268 31.5879 48.4928 31.4995C48.7585 31.4174 48.8333 31.0486 48.7312 30.9256C48.6355 30.7958 48.4382 30.6251 48.0977 30.8642C47.7636 31.1033 47.3279 30.9256 47.1164 30.9122C46.9056 30.8915 45.8634 30.9802 45.6317 31.1786C45.3935 31.3767 44.9303 31.1376 45.482 30.7824C46.02 30.4273 47.3821 29.6009 47.3958 29.3278C47.4094 29.0613 47.2328 28.1736 46.9192 28.1049C46.6126 28.0369 45.761 27.8798 45.5501 27.7771C45.339 27.6814 44.5352 27.586 44.3241 28.1323C44.1196 28.6855 44.0039 28.0502 44.0039 28.0502C44.0039 28.0502 43.2343 27.3603 42.526 27.9612C41.8244 28.5692 42.2194 27.6677 42.3761 27.5107C42.526 27.3603 42.8802 27.0188 43.3567 26.9778C43.8336 26.9368 43.6633 26.4722 44.5692 26.4722C45.4684 26.4722 45.223 26.0624 45.2436 25.8916C45.2572 25.7209 45.0597 25.2564 45.4684 25.0312C45.8634 24.8058 45.9658 24.7648 45.9519 25.1883C45.9382 25.6118 45.9519 25.9737 46.1358 25.9737C46.313 25.9737 46.2994 26.4245 46.3472 26.5132C46.3881 26.5953 46.7217 26.5269 46.9331 26.3835C47.144 26.2468 47.3279 26.2468 47.4573 26.4586C47.5802 26.6703 47.5121 26.848 47.4845 26.9778C47.4573 27.1005 47.4097 27.3123 47.5666 27.4694C47.723 27.6264 47.805 28.0089 47.7093 28.1867C47.6072 28.3711 47.5121 28.6512 47.7093 28.8219C47.9071 28.9927 47.9071 29.4706 48.3086 29.5256C48.7176 29.5869 48.8739 29.7237 49.1532 30.0241C49.4325 30.3179 49.6437 30.1198 49.4189 29.8534C49.1941 29.5869 48.6355 29.2044 48.969 28.8356C49.3101 28.4738 49.378 28.979 49.5889 29.2728C49.8 29.5733 51.5302 32.3872 52.0074 32.7834ZM46.579 49.6199C46.579 49.6199 46.5172 50.2892 46.2651 49.8864C46.0137 49.4905 45.4005 49.0393 45.4617 48.4314C45.5232 47.8235 45.2372 47.7484 45.2372 47.7484C45.2372 47.7484 45.9249 47.9119 46 48.7182C46 48.7182 46.4154 48.6091 46.4154 49.1624C46.4151 49.7086 46.579 49.6199 46.579 49.6199ZM48.969 35.2698C48.969 35.2698 49.7934 34.9007 50.3111 35.2698C50.8289 35.6386 50.4538 36.2122 50.4538 36.2122C50.4538 36.2122 49.3371 36.7582 49.5683 37.3871C49.7931 38.0154 51.1421 38.507 53.0287 38.5887C54.9152 38.678 53.1992 39.1897 52.6815 39.1897C52.1704 39.1897 49.2553 39.8799 47.9681 38.2472C46.6808 36.6151 48.6558 35.4743 48.969 35.2698Z" fill="#222222"/>
<path fill-rule="evenodd" clip-rule="evenodd" d="M33.0965 37.5752C33.0965 37.5752 32.2536 40.4837 32.2536 40.9107C32.2536 41.3377 32.2199 42.3819 32.2199 42.3819C32.2199 42.3819 31.7583 41.2158 31.986 40.5584C32.2199 39.9011 32.2937 37.5348 32.2937 37.1075C32.2937 36.6805 32.5613 34.6332 33.0968 33.8944C33.6323 33.1553 33.2105 31.8402 33.4448 31.4877C33.6722 31.1418 33.7124 29.786 33.8999 29.3998C34.094 29.0065 33.8999 28.0033 34.4756 27.1827C35.0512 26.3692 35.5129 25.4811 35.5129 25.1286C35.5129 24.783 36.9649 22.3015 38.2299 21.4813C39.4947 20.6677 39.99 20.0914 39.99 20.0914C39.99 20.0914 42.7067 17.5288 44.0116 17.5695C45.31 17.6033 46.6816 18.3828 47.2171 18.3828C47.7526 18.3828 49.365 18.7694 50.5494 18.5387C51.7338 18.3017 52.0017 18.3017 52.236 17.7592C52.4637 17.217 52.6173 15.1221 50.7438 14.6948C48.8635 14.2678 46.7623 13.8812 42.7067 14.3489C38.6517 14.81 38.1162 14.9659 36.8916 14.62C35.6671 14.2675 35.2789 12.4507 37.1191 11.6304C38.9595 10.8169 39.7959 10.8576 40.2978 10.5458C40.7928 10.2339 41.636 10.2339 41.9039 10.044C42.1715 9.84736 42.3254 10.3898 42.7469 10.1185C43.1684 9.84736 43.0547 10.4303 43.5098 10.2337C43.9718 10.0437 44.0116 10.3148 44.2394 10.6269C44.4668 10.932 45.0823 10.898 46.0729 10.8166C47.0638 10.7421 47.4115 10.5048 47.9464 10.6269C47.9464 10.6269 46.9897 11.2031 46.3739 11.2031C45.7649 11.2031 43.8179 11.3998 43.7777 11.6711C43.7441 11.9422 44.1992 12.0574 44.9287 12.0237C45.6583 11.983 45.5044 12.2133 45.0091 12.2948C44.5069 12.3693 41.6363 12.7558 41.0273 12.7558C40.4115 12.7558 37.7683 12.5254 37.5408 13.1828C37.3134 13.8405 37.6146 13.9964 38.3841 14.0778C39.147 14.1523 42.7472 13.5694 43.4767 13.4202C44.1995 13.2643 49.6332 12.4847 51.815 13.9964C53.9963 15.5081 53.8022 16.559 53.4608 17.9148C53.1128 19.2706 52.9587 19.3113 53.5748 20.0097C54.1904 20.7078 57.3619 25.169 57.3286 27.8806C57.2884 30.5991 57.1348 31.7245 57.7504 32.538C58.3594 33.3516 58.2451 34.7074 58.1317 35.1006C58.0182 35.4869 57.9373 36.0973 58.7806 36.4495C59.6238 36.7951 61.2702 37.4938 61.8792 37.1814C62.4948 36.8768 63.1439 36.6057 63.2975 36.9513C63.4517 37.3038 61.7652 38.5782 61.2297 38.6593C60.6948 38.7344 58.8541 39.0055 57.8239 38.7748C56.7931 38.5441 57.7099 39.1611 57.7837 39.2422C57.8638 39.3173 58.3993 40.4421 58.7404 40.5983C59.0884 40.7539 59.2425 41.5271 59.2425 42.3407C59.2425 43.1537 59.4295 45.0999 59.4295 45.0999C59.4295 45.0999 59.6637 45.9475 59.9316 46.1031C60.1992 46.2593 60.2328 46.9574 60.1992 47.2692C60.159 47.5811 60.5805 47.9679 60.8481 48.198C61.1157 48.4354 61.4637 49.3641 61.3434 49.6759C61.2294 49.9811 60.8481 50.0628 60.9216 50.4491C61.0023 50.8354 60.4668 50.9916 60.1992 50.9509C59.9316 50.9165 59.5435 50.5236 59.9316 50.5236C60.3129 50.5236 60.1593 49.71 59.8515 49.7917C59.5438 49.8662 59.4702 50.1373 59.2425 50.0218C59.0083 49.9069 59.2023 50.7612 58.8541 50.2929C58.513 49.8255 58.6672 48.8967 58.8541 48.856C58.8541 48.856 58.513 47.8522 58.2451 47.6148C57.9775 47.3847 57.9775 46.2998 58.0915 45.7169C58.2049 45.1337 57.5962 43.3509 57.1348 43.1202C56.6728 42.8834 56.0638 42.1103 56.0638 42.1103C56.0638 42.1103 56.5258 41.5271 56.4853 41.1815C56.4451 40.829 56.2177 40.5983 56.1374 41.0666C56.0638 41.5274 55.1072 43.1202 53.6882 44.0083C53.6882 44.0083 51.587 47.3437 52.6574 48.5849C52.6574 48.5849 52.925 49.3237 52.5774 49.5948C52.2362 49.8659 52.1961 50.4491 52.1225 50.6454C52.0419 50.8354 51.5469 51.1879 50.8974 51.1879C50.2416 51.1879 48.6358 51.4186 48.2946 51.5335C47.9461 51.649 47.3306 51.649 46.9492 50.6454C46.9492 50.6454 47.9461 51.3034 47.605 50.4491C47.257 49.5948 47.1034 49.283 47.9062 49.4048C48.7093 49.5203 48.7495 49.4799 48.4819 49.2085C48.2143 48.9371 47.6053 48.9778 47.6053 48.9778C47.6053 48.9778 47.2573 48.7067 47.7928 48.5506C48.3283 48.3949 47.6053 48.0086 47.6053 48.0086C47.6053 48.0086 47.3716 47.8862 47.6053 47.4254C47.833 46.9574 47.7193 46.2593 47.7193 46.2593C47.7193 46.2593 47.6053 45.4457 47.8327 44.7476C48.0604 44.049 47.9869 43.9341 47.9869 43.9341C47.9869 43.9341 47.9062 43.1205 47.257 44.0897C46.6081 45.0595 46.6814 45.4053 46.3736 45.5609C46.0724 45.7171 45.7646 46.1034 45.8783 46.3003C45.9923 46.4903 45.4235 46.5714 45.4235 46.2596C45.4235 45.9478 44.5067 44.7884 45.4235 45.0597C45.4235 45.0597 45.4235 44.131 45.8384 44.3611C45.8384 44.3611 45.9589 43.8191 45.691 43.5818C45.4235 43.3512 45.4636 42.7682 45.8384 42.3075C46.2268 41.8395 47.5648 38.8496 47.0632 38.2329C46.5679 37.6093 46.4537 37.7311 46.4944 38.0767C46.5278 38.4298 46.1459 38.3891 45.9589 38.1922C45.7646 38.0022 44.8546 37.4597 44.8546 37.1072C44.8546 36.7616 44.4665 36.7616 44.4331 36.9923C44.393 37.223 43.9313 36.606 43.9313 36.606C43.9313 36.606 43.6637 36.0228 44.1655 36.0635C44.6606 36.0973 44.8147 35.7924 45.3901 35.6766C45.9589 35.5617 47.0632 35.9411 47.4511 36.2942C47.4511 36.2942 48.3277 34.5922 49.8601 34.8229C51.3924 35.0602 50.8971 35.8262 50.8167 36.0231C50.7432 36.2125 50.0875 37.46 51.8544 37.3044C53.6144 37.1482 52.4634 36.7957 52.2357 36.7957C52.0014 36.7957 50.931 36.9519 51.1248 36.4501C51.3123 35.9414 51.3123 35.562 51.888 35.6431C52.4637 35.7113 53.039 35.2906 53.3468 36.0976C53.3468 36.0976 53.5745 35.4468 54.1901 35.7113C54.7991 35.9821 55.1069 35.752 55.5614 36.0638C56.0234 36.369 56.599 36.2532 56.599 36.2532C56.599 36.2532 57.0604 36.4094 57.0205 36.9112C56.9803 37.4193 56.7529 37.7649 56.3716 37.6904C55.9838 37.6093 55.6825 38.2329 56.4451 38.2329C57.2083 38.2329 57.2482 37.7649 58.3993 38.1517C59.5438 38.5447 61.0761 38.6192 61.5381 38.2329C61.9995 37.8466 62.8761 37.4193 62.8761 37.4193C62.8761 37.4193 63.1437 36.7957 62.5683 37.1482C61.9995 37.4944 61.116 37.6907 59.7774 37.3044C58.4395 36.9114 57.8971 36.4839 57.7096 36.4839C57.5158 36.4839 57.3616 36.4094 57.3616 36.0638C57.3616 35.7113 56.7928 35.1754 56.599 35.0602C56.4047 34.945 55.7558 34.6332 55.3745 34.6332C54.9926 34.6332 53.1525 33.7789 52.8447 33.3923C52.5435 33.006 51.7737 32.2672 51.5067 30.8704C51.2391 29.474 50.6634 29.0467 50.3556 28.7011C50.0544 28.3486 49.3984 27.8808 49.3984 26.4841C49.3984 25.0945 48.7495 24.3961 48.4816 24.125C48.214 23.847 46.9894 21.5217 46.8757 21.2503C46.7623 20.9792 46.648 20.0097 47.3306 20.7488C48.0202 21.481 48.2946 21.7928 48.214 22.2201C48.214 22.2201 48.5625 22.4574 48.4084 22.8437C48.4084 22.8437 49.0174 23.3452 48.9037 23.7318C48.9037 23.7318 49.5526 24.4706 49.5927 24.701C49.6329 24.9383 50.0547 25.0128 50.1684 24.7417C50.2818 24.4706 51.1251 24.4706 50.8173 24.1995C50.5095 23.9284 50.6235 23.5759 50.8575 23.8877C51.0852 24.1995 51.393 24.8979 51.7341 24.6268C52.0821 24.3557 52.2362 23.9284 51.9285 23.9284C51.6207 23.9284 51.5472 23.698 51.5472 23.4607C51.5472 23.2303 51.1254 22.8775 51.4665 22.4915C51.815 22.1049 51.2796 21.5627 51.2394 21.1761C51.1992 20.7895 51.0117 20.6336 50.8176 20.5522C50.6238 20.4777 50.664 20.1252 51.1254 19.8541C51.5873 19.583 51.6609 19.3526 52.1562 19.5423C52.6577 19.7389 52.9994 19.5423 52.8119 19.393C52.6175 19.2371 52.6577 19.1219 52.8119 18.8439C52.959 18.5728 53.8421 16.2068 52.6175 14.9321C51.393 13.6508 48.2143 13.2645 46.4141 13.3797C44.6209 13.4949 40.6793 14.193 40.298 14.193C39.9165 14.193 38.1498 14.3897 37.7685 14.193C37.3869 13.9964 37.0792 14.3082 37.5408 14.4641C38.0025 14.62 40.4118 14.3897 40.9469 14.3082C41.4824 14.2338 47.3713 13.4202 49.1715 13.9217C50.9715 14.4234 52.5774 14.7759 52.7717 16.2472C52.9587 17.7251 51.9285 18.8843 51.9285 18.8843C51.9285 18.8843 51.6609 19.1961 51.1254 19.1554C50.5899 19.1216 47.2975 18.8098 46.4542 18.5384C45.6181 18.2673 43.5503 17.4875 42.2519 18.7284C40.9469 19.969 38.6115 21.5214 38.2701 21.7928C37.9221 22.0639 36.7779 23.4266 36.4702 24.274C36.1624 25.128 35.8546 25.2842 35.8144 25.7926C35.7808 26.2944 34.6702 26.7621 34.5562 28.0027C34.4422 29.2433 34.2886 29.9754 34.1347 30.2875C33.9808 30.5993 33.6731 31.3384 33.9808 31.3722C34.2886 31.4129 34.2886 31.8399 34.021 31.8399C33.7534 31.8399 33.5593 32.0366 33.8269 32.694C34.0945 33.3516 33.178 34.0093 33.1379 34.7074C32.7554 35.7921 33.3311 36.6395 33.0965 37.5752Z" fill="#222222"/>
<path fill-rule="evenodd" clip-rule="evenodd" d="M37.3282 31.2907C37.3282 31.2907 36.9578 32.6446 37.2785 33.3073C37.6061 33.9772 37.7202 34.9645 38.1404 35.2183C38.5609 35.4723 38.5609 35.5636 38.7887 35.3522C39.0238 35.1477 39.0666 35.3522 39.2517 35.5143C39.4368 35.6762 39.7432 35.6972 39.7644 35.8738C39.786 36.0572 39.7432 36.1771 39.4865 36.1771C39.2298 36.1771 38.9735 36.3818 38.881 36.2194C38.7884 36.0575 38.489 35.7402 38.2326 36.0146C37.976 36.2897 37.9335 36.868 37.442 36.614C36.9575 36.3605 36.2379 36.3818 36.9293 35.923C36.9293 35.923 36.3522 35.4228 36.2096 35.3306C36.0743 35.239 35.8392 35.2603 35.889 34.6679C35.9317 34.0685 35.5825 33.5608 36.3519 33.011C37.1143 32.4608 36.6511 32.5527 36.6511 32.3479C36.6514 32.1372 37.0006 30.8042 37.3282 31.2907Z" fill="#222222"/>
<path fill-rule="evenodd" clip-rule="evenodd" d="M36.6791 45.6212C36.6791 45.6212 36.1914 44.7465 35.7431 44.9015C35.2948 45.0499 35.4464 45.2444 35.2948 45.433C35.1496 45.6209 34.3257 47.4917 34.3257 47.8347C34.3257 48.1776 34.0289 50.6197 34.1016 51.1176C34.1741 51.6156 33.6864 52.6446 33.205 52.9876C32.717 53.3305 31.8931 54.5481 31.7482 55.6583C31.5966 56.7619 31.669 57.0309 31.7086 57.7572C31.7482 58.484 31.7482 60.0044 31.3726 60.3878C30.997 60.7711 30.2519 61 29.4675 61C28.6831 61 27.3712 60.6972 28.3468 59.4326C29.3159 58.1746 30.3642 56.6476 30.0607 55.8468C29.764 55.0461 30.621 54.8982 30.7726 54.6292L30.9245 54.3602L31.1486 52.9137C31.1486 52.9137 31.1486 52.2613 31.5969 52.2613C32.0452 52.2613 32.678 51.5749 32.678 51.1176C32.678 50.6598 32.7176 50.2429 32.5329 50.2429C32.3417 50.2429 32.2297 49.8192 32.2297 49.8192C32.2297 49.8192 32.0449 49.4757 31.7813 49.9332C31.5242 50.3905 31.4122 50.2023 31.5966 49.7848C31.7813 49.3611 31.7813 49.0987 31.7813 49.0987C31.7813 49.0987 31.9725 48.9033 32.157 48.7489C32.3417 48.6005 32.157 47.5313 32.1174 47.3427C32.0845 47.1479 31.7086 46.919 31.7813 47.5717C31.8605 48.2174 31.9329 48.5604 31.9329 48.5604C31.9329 48.5604 31.5242 48.7893 31.557 48.3724C31.5966 47.9484 31.557 47.1482 31.5966 46.8858C31.6362 46.6168 31.2603 45.9641 31.4846 45.5467C31.7086 45.1298 31.669 44.403 31.669 44.403C31.669 44.403 32.0447 43.9057 31.9722 44.403C31.8931 44.9009 31.669 45.8896 31.7811 46.085C31.8931 46.2735 32.1567 46.3475 32.2294 46.1185C32.3086 45.8896 31.9327 45.5467 32.2294 45.2774C32.5326 45.015 32.3086 44.2887 32.3086 44.2887C32.3086 44.2887 32.4534 43.5283 32.6446 43.3C32.8293 43.0645 32.8293 41.4295 32.7566 41.2006C32.6775 40.9722 32.6775 40.9318 32.9806 40.6293C33.2774 40.3199 33.0927 39.707 33.4618 39.3641C33.8377 39.0212 33.7254 39.1023 33.6861 39.4787C33.653 39.862 33.653 41.3487 34.3981 40.8573C35.1496 40.36 35.822 40.4001 35.8551 39.5592C35.8947 38.7181 36.0463 37.5343 36.3823 36.9624C36.3823 36.9624 36.5668 38.0322 36.8703 38.1465C37.1667 38.2611 37.8458 38.0256 38.327 38.4894C38.8015 38.9473 39.8102 38.3754 39.7113 38.1866C39.6061 37.9918 39.3357 37.077 39.9354 37.5744C40.5288 38.0723 40.7925 38.3012 41.0165 38.3012C41.2405 38.3012 41.5373 38.0723 41.2801 37.9918C41.0165 37.9173 41.1285 37.5744 41.1681 37.3053C41.2009 37.0363 41.5768 37.0025 41.8407 36.7742C42.0979 36.5453 42.3615 36.5788 42.4011 36.3502C42.4407 36.1281 42.8494 35.5566 42.889 36.1622C42.9219 36.7745 43.0735 37.2652 43.2978 37.4603C43.5218 37.6489 43.6734 37.8437 43.4494 38.1061C43.2253 38.3751 43.7065 38.7183 43.7065 39.2498C43.7065 39.7881 43.8185 39.7881 43.4098 39.707C43.001 39.6331 42.6978 39.862 43.001 40.2454C43.2978 40.6293 43.2582 40.9722 42.9614 41.12C42.6647 41.275 42.5858 41.5441 42.4407 42.1497C42.2891 42.762 42.0255 43.5621 42.1372 43.8721C42.2495 44.175 42.5855 44.7058 42.8494 44.7058C43.113 44.7058 43.1855 45.0153 43.2582 45.4327C43.3373 45.8495 43.9305 46.0449 44.0097 46.5019C44.0821 46.9597 44.7548 47.4912 44.346 47.4576C43.9308 47.4167 43.8581 47.7605 43.8581 48.1773C43.8581 48.601 44.0428 49.3614 44.0428 49.3614C44.0428 49.3614 44.1944 49.8997 43.9701 50.3166C43.7461 50.734 43.5614 51.5007 43.6341 51.9582C43.7065 52.4154 42.8893 53.1758 42.5861 53.1758C42.2894 53.1758 42.1378 52.873 42.6981 52.7584C43.2585 52.6444 43.2585 52.1126 42.777 52.0722C42.2894 52.0318 41.8739 51.9178 41.8739 52.4152C41.8739 52.9131 41.8739 53.2563 41.3135 53.142C40.7532 53.0274 40.8191 52.8191 40.8323 52.4897C40.8388 52.1662 41.1423 51.4399 41.2411 51.2311C41.3466 51.0228 41.5378 50.5048 41.729 50.3163C41.9134 50.1284 42.5134 48.9443 42.5134 48.9443C42.5134 48.9443 43.0737 47.6456 42.553 48.1031C42.0257 48.5604 41.0566 49.4012 40.9775 49.8187C40.905 50.2424 40.384 51.6886 40.384 52.1863C40.384 52.6842 39.8961 52.9131 39.8961 53.7474C39.8961 54.5885 39.6325 56.5324 39.9356 57.0303C40.2324 57.5283 39.7445 58.0995 39.5204 58.174C39.2961 58.2545 38.2877 59.0553 37.7998 59.0146C37.3186 58.9742 37.0943 58.8267 37.167 58.4834C37.2397 58.1402 36.943 57.9451 36.831 58.2881C36.719 58.631 36.1914 58.631 36.3037 57.9852C36.4158 57.3329 36.943 55.5434 37.6881 54.7023C38.4396 53.8611 37.8397 53.7136 38.512 53.7471C38.512 53.7471 38.9208 52.9128 38.5516 52.7985C38.176 52.6839 38.2156 52.4146 38.2156 52.0717C38.2156 51.7287 37.8397 51.2709 38.1036 50.6587C38.3607 50.0464 39.0727 48.9437 38.8484 48.2905C38.6243 47.6447 37.952 47.4903 37.952 47.4903C37.5432 47.4903 37.0556 47.1875 37.0556 46.6895C37.0547 46.1999 36.4155 46.0856 36.6791 45.6212Z" fill="#222222"/>
<path fill-rule="evenodd" clip-rule="evenodd" d="M41.9474 51.1814C41.9474 51.1814 41.4735 50.9096 41.9134 50.5054C42.3533 50.108 42.888 49.0605 42.922 48.9211C42.9561 48.7822 43.3147 48.4573 43.3147 48.9078C43.3147 49.3521 43.2671 50.4591 43.3147 50.7038C43.3147 50.7038 42.9356 50.7705 42.7932 51.0157C42.6583 51.261 42.1708 51.4005 41.9474 51.1814ZM41.2434 51.8176C41.257 51.7448 41.3518 51.6853 41.4262 51.692C41.4939 51.6985 41.5683 51.7846 41.5548 51.8442C41.5277 51.9506 41.4398 52.0894 41.3314 52.0762C41.2434 52.0697 41.2163 51.9043 41.2434 51.8176ZM38.2108 57.6237C38.3325 57.6237 38.4342 57.7236 38.4342 57.8424C38.4342 57.9613 38.3325 58.0612 38.2108 58.0612C38.0889 58.0612 37.994 57.9613 37.994 57.8424C37.994 57.7236 38.0892 57.6237 38.2108 57.6237ZM36.9992 56.7027C37.1347 56.7027 37.2428 56.7622 37.2428 56.8416C37.2428 56.9149 37.1347 56.9745 36.9992 56.9745C36.8568 56.9745 36.7487 56.9149 36.7487 56.8416C36.7487 56.7622 36.8571 56.7027 36.9992 56.7027ZM38.6034 50.3132C38.6034 50.3132 39.3209 49.445 39.5103 50.2073C39.7067 50.9627 39.2668 51.9901 39.0975 52.1027C38.9352 52.2091 38.6034 52.3678 38.6034 51.8845C38.6034 51.3937 38.5155 50.6378 38.6034 50.3132ZM38.0214 54.5084C38.0214 54.5084 38.4613 53.8855 38.7389 54.4553C39.0165 55.0255 39.2941 55.1847 39.2941 55.5426C39.2941 55.8937 39.5106 56.4901 39.0707 56.5167C38.6308 56.5432 38.1569 57.0007 37.8522 56.9477C37.5475 56.8946 37.2699 56.3247 37.2699 56.3247C37.2699 56.3247 36.9381 56.1655 37.412 55.6747C37.8793 55.185 37.412 54.8338 38.0214 54.5084ZM31.3537 50.353C31.3537 50.353 31.2588 51.1154 31.3537 51.3674C31.4485 51.626 30.9138 51.9573 30.8662 51.4998C30.8189 51.0361 31.0288 50.6378 31.3537 50.353ZM29.3433 59.9041C29.4649 59.9041 29.5598 59.9769 29.5598 60.0627C29.5598 60.1426 29.4649 60.2154 29.3433 60.2154C29.2282 60.2154 29.1268 60.1426 29.1268 60.0627C29.1268 59.9766 29.2282 59.9041 29.3433 59.9041ZM28.6462 59.6322C28.6462 59.6322 28.3686 60.0164 28.1994 59.8843C28.0302 59.7581 27.861 59.4869 28.1792 59.2481C28.4975 59.0093 29.6684 57.2463 29.7633 57.1004C29.8581 56.9547 30.6569 56.7888 30.7313 57.4052C30.8057 58.0287 30.5621 58.4857 29.9662 58.5187C29.3704 58.5583 28.8154 58.6449 28.6462 59.6322ZM50.7334 42.3069C50.7198 42.2208 50.8556 42.1144 50.93 42.1477C51.0588 42.194 51.1401 42.3335 51.1603 42.4593C51.1669 42.5195 51.0456 42.546 50.9842 42.526C50.8827 42.4856 50.7475 42.4128 50.7334 42.3069ZM49.4137 43.5991C49.2854 43.6124 49.2785 43.3008 49.373 43.2082C49.4745 43.0958 49.806 43.0224 49.8262 43.1684C49.8466 43.3609 49.6169 43.5793 49.4137 43.5991ZM49.0349 42.3665C48.9196 42.3202 48.906 42.0882 48.9942 42.0021C49.1023 41.9022 49.3056 41.9425 49.4338 42.0021C49.5082 42.0351 49.5486 42.174 49.488 42.2276C49.3733 42.3335 49.1833 42.4325 49.0349 42.3665ZM53.8274 37.7532C53.5904 37.7335 53.5904 37.4549 53.8274 37.4617C54.2806 37.4749 54.802 37.5283 55.2215 37.7335C55.5876 37.9192 55.3368 38.4298 55.0661 38.1512C54.7141 37.7936 54.2399 37.7995 53.8274 37.7532ZM57.9154 41.6707C57.9154 41.6707 58.2544 41.9022 58.43 41.9022C58.5995 41.9022 58.7076 42.3002 58.43 42.3002C58.1457 42.3002 57.6585 42.0681 57.6585 41.9422C57.6588 41.8164 57.6992 41.2727 57.9154 41.6707ZM56.5689 40.0997C56.5689 40.0997 56.2913 40.4581 56.2913 40.0997C56.2913 39.7485 56.3521 39.0528 56.6499 39.0528C56.9546 39.0528 56.9949 39.1188 57.2322 39.5764C57.4625 40.0401 57.7874 40.5174 58.2345 40.7291C58.681 40.9414 57.8684 41.3591 57.7199 41.0876C57.5706 40.8157 57.0359 40.146 56.9278 40.0401C56.826 39.9343 56.589 39.7683 56.5689 40.0997Z" fill="#222222"/>
<path d="M24.0199 63.0002C22.1691 62.9843 20.4211 63.8847 20.4211 63.8847C20.4211 63.8847 18.66 64.9115 18.0167 66.45C17.9835 66.5995 14.4946 73.1135 14.4946 73.1135C10.0722 71.8824 7.93415 74.3769 8.00154 75.3397C9.06996 77.92 14.2945 76.0845 14.8162 75.4871C15.1049 75.338 15.291 75.5165 15.291 75.5165C15.291 75.5165 16.5705 76.3366 16.7151 76.4011C16.8596 76.4657 17.5881 76.3717 17.5881 76.3717C18.1546 76.3302 19.1654 75.2614 19.2879 75.2512C19.4768 75.2518 19.7047 76.4352 20.4824 76.4159C21.4156 76.5895 22.4272 75.5756 22.4272 75.5756C22.5604 75.3941 22.611 75.5313 22.611 75.5313C22.5895 76.6434 23.5277 76.4472 23.8054 76.4159C24.7274 76.0547 26.9856 73.9128 26.7305 74.5436C26.6417 74.7145 25.9494 75.9588 25.9494 75.9588C25.8719 76.2903 26.1179 76.2684 26.1179 76.2684L27.7411 76.2537C28.0186 76.0939 29.4389 73.1497 29.2726 73.5559C29.7844 72.6641 30.9418 72.347 30.9418 72.347C31.0529 72.3151 31.003 72.4649 31.003 72.4649L29.1041 76.0915C29.071 76.1875 29.2571 76.2832 29.2571 76.2832L30.911 76.2537C31.1333 76.233 32.519 73.4968 32.519 73.4968C32.8962 72.8025 34.2343 72.4059 34.2343 72.4059C34.4785 72.3637 34.3108 72.5976 34.3108 72.5976L33.0092 75.2217C32.8113 76.4131 33.8512 76.483 34.2955 76.4306C34.7398 76.3677 35.4624 76.1268 36.8835 75.1037C37.1725 74.8909 37.2358 75.1051 37.2358 75.1481C37.248 76.6131 38.9203 76.4453 38.9203 76.4453C39.4202 76.5643 41.4496 76.5182 43.1469 73.261C42.5263 75.473 43.7916 76.0753 43.8361 76.1505C43.8806 76.2253 44.5608 76.454 44.8161 76.4011C47.4048 76.6221 48.4915 72.745 48.4915 72.745C49.074 72.3243 49.2219 72.2036 49.4563 72.0815C50.0341 72.1363 50.1893 72.152 50.467 72.1848C50.6891 72.2603 50.4878 72.4599 50.421 72.5238C47.7785 74.5061 48.9384 76.0348 49.0275 76.0031C50.1839 77.514 52.5843 74.8802 53.0397 74.8384C53.6191 77.0646 55.3815 76.0955 55.4594 76.1062C55.304 76.5443 54.8521 77.6276 54.464 78.3323C53.6537 79.4319 52.3813 78.1997 52.3813 78.1997L52.0596 78.185C51.9043 78.377 51.9984 78.5978 51.9984 78.5978C52.3319 79.1121 52.759 79.8237 54.0811 79.9983C55.4142 80.0554 56.1791 78.642 56.1791 78.642C56.1791 78.642 58.048 75.3223 58.1699 74.9268C58.7361 74.4364 59.7188 73.7283 60.4517 73.2168C60.9292 73.1219 59.2566 75.7471 59.1348 76.121C59.1015 76.3349 59.1807 76.3422 59.1807 76.3422C59.1807 76.3422 60.4524 76.403 60.6967 76.3717C60.941 76.3402 62.1279 73.6258 62.5497 73.1136C62.9159 72.5263 64.0964 71.9784 64.0964 71.9784C64.3519 71.9256 64.2649 72.2143 64.2649 72.2143L62.7029 75.2513C62.3261 76.5226 63.3868 76.5292 63.5758 76.5191C64.0867 76.4881 65.9953 75.4281 65.9953 75.4281C66.2618 75.2362 66.2557 75.5461 66.2557 75.5461C66.2337 75.9525 66.6896 76.6183 67.0672 76.5338C68.4227 76.6549 70.4726 74.4874 70.5282 74.691C70.5395 74.7338 69.7625 76.2095 69.7625 76.2095C69.796 76.3271 69.931 76.3864 69.931 76.3864C69.931 76.3864 71.2434 76.4003 71.5543 76.4011C71.8653 76.402 73.2801 73.1472 73.591 72.9661C74.2238 72.3369 74.9164 72.2772 74.9386 72.2879C75.172 72.278 73.6182 74.6671 73.5298 75.148C73.1865 76.5268 74.2036 76.5043 74.2036 76.5043C75.0146 76.6242 77.0032 75.2662 77.0366 75.3838C77.2696 75.16 77.297 75.4281 77.297 75.4281V75.5313C77.4314 76.644 78.1087 76.519 78.1087 76.519C78.8864 76.7136 81.9218 74.2634 81.9218 74.2634L81.4624 73.777L79.5635 75.1037C79.4081 75.1784 79.3184 75.0153 79.3184 75.0153L81.4471 71.0643C81.547 70.9684 81.4011 70.8579 81.4011 70.8579H79.487C79.3537 70.9965 79.2726 71.0938 79.2726 71.0938L77.5422 74.3372L75.6432 75.2365C75.4434 75.2892 75.4901 75.0891 75.4901 75.0891C75.4901 75.0891 77.0721 72.1002 77.2052 71.6835C77.294 71.4913 77.2511 71.1823 77.2511 71.1823C76.7281 70.015 74.6152 71.5261 74.3262 71.5362C74.315 71.5468 74.5866 71.0054 74.5866 71.0054C74.6643 70.8451 74.5101 70.8432 74.5101 70.8432L72.7336 70.8285C72.7336 70.8285 72.7389 70.707 72.6723 70.8137C72.6057 70.9205 71.4626 72.9809 71.4626 72.9809L68.5988 75.0595C68.3544 75.1019 68.415 74.9417 68.415 74.9417L70.513 71.0349L70.5284 70.8727L68.5069 70.8285L66.8377 73.9243C66.7489 74.0204 65.0001 74.9711 65.0001 74.9711C64.7334 75.0455 64.7244 74.8237 64.7244 74.8237L66.2711 71.9342C66.6214 70.8069 65.3422 70.4755 64.7091 70.6957C64.2811 70.8442 63.8821 70.9759 63.8821 70.9759C63.8821 70.9759 63.7557 71.0076 63.8668 70.8579C64.0553 70.6017 66.0107 66.8774 66.0107 66.8774C66.0553 66.7705 65.9495 66.7005 65.9495 66.7005L64.1731 66.6858C64.0286 66.7493 64.0047 66.848 64.0047 66.848L61.4778 71.4624L59.3951 72.9662C59.2618 73.0514 59.2572 72.9071 59.2572 72.9071L60.2986 71.0054V70.8136L58.4303 70.7989L58.1239 71.0347C57.9126 70.6063 56.8404 70.6114 56.807 70.622C54.5629 70.5516 53.3 73.6147 53.3 73.6147C52.0514 74.6568 51.4745 74.981 51.0643 75.0447C50.723 75.0632 50.6201 74.794 50.6201 74.794C50.1447 73.3918 53.1316 72.0667 53.1316 72.0667C53.2316 72.0134 53.662 70.7695 53.6064 70.7694C53.5508 70.7693 49.9337 70.7653 49.9004 70.7547C49.7003 70.6794 48.7342 71.5546 48.4456 71.7572C47.5995 69.37 44.3215 71.1755 43.8667 72.2436C43.6714 72.2938 43.5838 72.2588 43.4838 72.2584C43.5167 71.4458 43.4047 70.9391 42.8713 70.6809C42.5823 70.5305 41.4013 70.6809 41.4013 70.6809L43.4073 66.8331C43.5071 66.7157 43.3154 66.5973 43.3154 66.5973H41.5084C41.4306 66.6399 41.3399 66.7446 41.3399 66.7446C41.3399 66.7446 37.9255 73.111 37.7258 73.4526C37.5261 73.7943 35.0305 75.0743 35.0305 75.0743C35.0524 74.8392 36.6599 72.1485 36.7151 71.6246C36.7806 70.2666 35.1684 70.6957 35.1684 70.6957C35.1684 70.6957 34.2554 71.2792 33.4226 71.6835C33.2437 70.1963 31.8912 70.7105 31.8912 70.7105L30.3598 71.6688L30.6354 70.9759L30.6968 70.7105L28.859 70.6663C28.6482 70.8155 28.2771 71.6246 28.2771 71.6246L27.6952 72.6565L25.0766 74.5584C24.8212 74.6966 24.954 74.3667 24.954 74.3667C24.954 74.3667 26.722 71.0284 26.761 71.0053C26.9053 70.9201 26.7917 70.7106 26.7917 70.7106L25.0152 70.6957C25.0152 70.6957 24.7144 71.1878 24.6478 71.2412C23.8025 70.0944 21.0134 70.5598 19.5176 73.9539C19.3264 74.1808 19.1785 74.3395 19.0735 74.3814C17.3196 76.3552 16.3169 74.3962 16.3169 74.3962L19.4564 68.6318C19.4564 68.6318 20.8847 65.5554 21.784 64.6808C24.0603 63.2004 24.709 64.5924 24.709 64.5924C24.9057 65.0311 25.5055 66.615 22.4119 67.3787C22.0061 67.4173 22.1362 67.5998 22.1362 67.5998C23.0366 68.3402 24.1424 68.2632 24.1424 68.2632C25.2312 68.4693 28.1818 66.9063 27.1132 64.4007C26.2794 63.3517 25.1304 63.0098 24.0199 63.0002ZM70.7426 66.907C69.1208 66.9667 69.0259 69.0622 70.6814 69.2805C72.2921 69.3278 72.5983 66.9763 70.7426 66.9069V66.907ZM81.784 66.907C80.0287 66.913 80.1595 69.2974 81.8146 69.2805C83.4698 69.1568 83.3283 66.9645 81.784 66.9069V66.907ZM23.8361 71.3739C24.3553 71.3853 24.2645 71.9841 24.1731 72.0963C24.2287 72.2782 23.2695 73.8358 23.2695 73.8358C22.1596 75.1697 21.6309 74.9267 21.6309 74.9267C21.6309 74.9267 21.2505 74.8759 21.539 74.1602C21.8497 73.6583 22.453 72.3525 23.0857 71.5949C23.4189 71.43 23.663 71.37 23.8361 71.3739ZM41.248 71.5212C41.7925 71.587 41.5237 72.0667 41.5237 72.0667L40.0229 74.912C39.5456 75.4777 39.1041 75.2806 39.1041 75.2806C38.8596 75.1086 39.2725 74.455 39.2725 74.455L40.6814 71.8014C40.9588 71.5239 41.248 71.5212 41.248 71.5212ZM56.8682 71.536C57.2931 71.4635 57.4655 71.8014 57.4655 71.8014C57.4655 71.8014 57.4902 71.8557 57.4348 72.1552C57.3131 72.6148 55.9953 74.8088 55.9953 74.8088C55.4404 75.3421 54.954 75.2364 54.954 75.2364C54.6763 75.1607 54.7855 74.7646 54.7855 74.7646C54.7855 74.7646 55.8525 72.6582 56.3629 71.7719C56.5628 71.6307 56.7265 71.5601 56.8682 71.536ZM46.6538 71.5508C46.8885 71.5126 47.1114 71.6058 47.0673 72.0814C46.7902 72.6475 45.6966 74.727 45.4747 75.0151C45.4304 75.2612 44.3137 75.6621 44.6017 74.7646C44.6017 74.7646 46.1681 71.9443 46.1791 71.8161C46.1846 71.7519 46.4192 71.5888 46.6538 71.5508ZM11.3859 73.8655C12.3015 73.8444 13.1316 74.1307 13.1316 74.1307C13.1316 74.1307 12.9175 74.818 10.8958 75.1332C9.94043 75.0775 9.44129 75.0815 9.44095 74.75C9.90708 74.0822 10.6737 73.8819 11.3859 73.8655Z" fill="#222222"/>
</svg>
