<svg width="90" height="90" viewBox="0 0 90 90" fill="none" xmlns="http://www.w3.org/2000/svg">
<rect width="90" height="90" rx="10" fill="white"/>
<g filter="url(#filter0_i_319_2187)">
<path d="M68.0737 49.1096C68.0017 49.1546 67.5517 49.3661 67.4257 49.4156C66.5122 49.8206 65.6887 49.7576 64.7707 49.2176C64.1092 48.8306 63.4972 47.9756 63.2587 47.6786C63.0697 47.4401 62.8402 47.1296 62.5117 46.8371C61.8997 46.2881 61.0762 45.9281 59.6497 45.9551C59.5351 45.9564 59.4221 45.9286 59.3212 45.8741C57.8812 45.1136 55.3927 44.1821 53.0212 44.2991C52.5487 44.3351 52.4812 43.9931 52.3237 43.6106C52.0754 42.8651 51.7273 42.1566 51.2887 41.5046C50.9107 40.9691 50.7487 40.9646 50.4382 40.8791C50.0962 40.7846 49.7182 40.7441 49.4932 40.3481C49.4662 40.2986 49.3537 40.0871 49.4797 39.9386C49.7947 39.5696 50.6677 39.0656 49.3537 38.3231C48.5527 37.8731 48.9127 37.5806 49.0432 37.5131C49.3188 37.3855 49.6288 37.3523 49.9252 37.4186C50.4254 37.5368 50.8701 37.8226 51.1852 38.2286C51.6127 38.7281 53.0572 41.0726 53.9347 42.8501C53.9482 42.8726 53.9662 42.9986 54.1282 43.0166C54.3712 43.0391 54.7942 43.0391 54.8797 43.0481C55.0147 43.0571 55.0147 42.9491 55.0012 42.9041C53.7592 38.7731 52.3237 33.6251 49.8352 30.0476C49.7902 29.9441 49.8307 29.8361 49.9882 29.8496C52.2112 30.0746 52.8592 33.2471 54.1642 35.3261C55.8382 38.0036 56.8192 36.9551 56.9812 35.1461C57.0892 33.8861 56.7562 32.2841 55.8787 31.3841C55.6717 31.1276 55.2982 30.8081 55.1452 30.6191C55.0912 30.5471 55.0822 30.4346 55.2307 30.3941C55.3182 30.3779 55.4075 30.3733 55.4962 30.3806C56.5267 30.4571 57.9532 31.2896 58.5562 32.2166C59.7847 34.1201 59.6947 35.1416 59.5237 35.8166C59.2357 36.9686 58.6957 37.6301 59.3662 39.4571C60.6892 43.0661 60.3427 42.3101 59.5912 44.5826C59.5237 44.7536 59.6317 44.8841 59.7802 44.8706C61.5127 44.7086 62.0392 45.1046 62.4127 45.3026C62.4532 45.3251 62.4847 45.3566 62.5117 45.3476C62.5792 45.3251 62.6017 45.2396 62.6107 45.1271C62.7547 44.1551 62.5522 43.7411 62.3317 43.1696C62.1967 42.8321 62.0527 42.4496 62.0032 42.0806C61.9388 41.7072 61.9939 41.3229 62.1607 40.9826C62.4555 40.3661 62.5207 39.6619 62.3497 38.9981C61.9132 37.0721 60.3337 33.9041 59.3257 32.0771C59.0332 31.5259 58.7407 30.9746 58.4437 30.4256C58.3717 30.2906 58.3987 30.1376 58.4572 30.0116L58.5787 29.7056C58.8217 29.0891 58.9477 28.6256 59.0197 28.0856C59.2537 26.3621 58.7992 25.1336 57.5527 24.1076C56.3917 23.1536 54.3307 22.7306 51.5812 22.8836L50.9962 22.9196C48.4132 23.0681 45.4792 23.2346 43.2697 23.0546C41.1322 22.8746 39.8857 22.5371 39.4537 22.0196C39.3851 21.9391 39.3344 21.8449 39.3049 21.7432C39.2754 21.6416 39.2678 21.5349 39.2827 21.4301C39.3198 21.1774 39.4074 20.9348 39.5404 20.7167C39.6734 20.4987 39.849 20.3097 40.0567 20.1611C40.4392 19.8686 40.8892 19.7111 41.2132 19.7561C41.7847 19.7831 42.4192 20.1071 43.1482 20.4806C43.8007 20.8181 44.5432 21.2006 45.4072 21.4436C46.1016 21.651 46.8249 21.7452 47.5492 21.7226C48.2017 21.6956 48.8452 21.5606 49.4527 21.3176C49.6406 21.2453 49.8166 21.1452 49.9747 21.0206C50.0197 20.9846 50.0332 20.9126 49.9837 20.8406C49.9522 20.8046 49.9162 20.8046 49.7812 20.8046C49.0235 20.7991 48.2688 20.7085 47.5312 20.5346C46.9552 20.3906 46.9012 20.2556 46.9102 20.2016C46.9237 20.0756 47.2252 19.9586 47.5717 19.9451C49.2637 19.8686 50.5597 19.9586 51.4192 20.0216C51.7815 20.0599 52.146 20.0711 52.5127 20.0576C52.5622 20.0531 52.5802 20.0216 52.5847 20.0081C52.5889 19.9921 52.5887 19.9752 52.5839 19.9593C52.5791 19.9434 52.5701 19.9292 52.5577 19.9181C51.9637 19.4231 50.0242 18.6806 47.8102 18.2891C44.2507 17.6591 41.8657 18.1766 40.4932 18.7211C39.9203 18.9489 39.3801 19.2515 38.8867 19.6211C38.1982 20.1566 37.8157 20.7371 37.7437 21.3536C37.6537 22.1726 38.2477 23.2346 41.6137 23.6261C45.1822 24.0401 48.5167 23.9816 51.4552 23.9321L52.3597 23.9141C54.2227 23.8871 55.7977 24.3371 56.4772 25.0886C57.1275 25.8536 57.3615 26.8841 57.1072 27.8516C57.0397 28.1104 56.9317 28.3556 56.7922 28.5806C56.5807 28.8731 56.3422 28.9586 55.9147 28.8461C54.5377 28.4816 52.0807 27.6761 50.8927 27.2711C49.8307 26.9111 48.9937 26.6321 48.2827 26.4566C46.1767 25.9391 45.5197 26.2811 44.1022 27.1766C43.7602 27.3926 43.4137 27.6266 43.0132 27.9011C42.4282 28.2971 41.7757 28.7471 40.8982 29.2961C40.257 29.6831 39.6045 30.0544 38.9452 30.4076C38.1982 30.8126 37.4287 31.2401 36.6727 31.6946C34.2517 33.1166 33.8647 35.0246 33.4147 37.2296C33.0997 38.7956 32.7397 40.5686 31.5427 42.3686C31.4122 42.5621 30.3727 43.8221 30.1567 44.1776C29.3332 45.4961 28.8967 46.6346 29.0677 48.5426C29.2027 49.9736 28.7077 51.2156 28.2352 52.4171C27.8662 53.3621 27.5152 54.2621 27.4567 55.2161C27.4117 55.8101 27.4342 56.3636 27.4567 56.8991C27.4882 57.7856 27.5017 58.6721 27.2317 59.4371C27.0247 60.0221 26.4937 60.6071 26.2867 61.1741C25.9942 62.0536 25.8438 62.9742 25.8412 63.9011C25.8277 64.7111 25.2292 65.3006 24.5947 65.9261C24.0367 66.4796 23.4517 67.0601 23.2402 67.8161C23.2087 67.9151 23.1952 67.9916 23.1547 68.0501C23.1007 68.1401 23.0197 68.1941 22.9072 68.2751C22.5745 68.5045 22.3126 68.8225 22.1512 69.1931C21.9352 69.7624 21.951 70.3924 22.1962 70.9481C22.2322 71.0111 22.3267 71.1641 22.4707 71.1821C22.5697 71.1911 22.6687 71.1371 22.7632 71.0246C22.7632 71.0246 23.3842 70.3091 23.6227 70.0976C23.655 70.0672 23.6968 70.0488 23.741 70.0456C23.7853 70.0423 23.8293 70.0543 23.8657 70.0796C23.9377 70.1291 23.9512 70.2146 23.9107 70.3046C23.8837 70.3586 23.5102 71.0246 23.2942 71.5826L23.2897 71.6006C23.2582 71.6771 23.2222 71.7806 23.2762 71.8571C23.3257 71.9381 23.4472 71.9831 23.6587 71.9921C23.7487 72.0011 23.8387 72.0011 23.9287 72.0011C25.0717 72.0011 25.6747 71.6951 25.9852 71.4296C26.0648 71.3508 26.1262 71.2556 26.1652 71.1506L26.2102 71.0606C26.4352 70.4486 26.5882 69.7376 26.6107 69.2066C26.6107 68.9816 26.6737 68.9186 26.8267 68.7656C27.4297 68.1536 27.4297 67.3526 27.4297 66.5741C27.4297 65.8541 27.4297 65.1161 27.9022 64.5356C29.1847 63.0956 29.8507 61.4216 30.4942 59.8016C31.1602 58.1276 31.8442 56.3951 33.2122 54.9551C33.5587 54.5996 33.8917 54.4061 34.1122 54.4421C34.2247 54.4601 34.3102 54.5321 34.3732 54.6536C34.6657 55.1936 34.5757 55.9181 34.4902 56.6201C34.3957 57.4166 34.3057 58.1636 34.7242 58.6541C35.0077 59.0186 35.0842 59.4056 34.9447 59.7656C34.7647 60.3416 34.2157 62.0876 32.9152 62.8616C32.7465 62.9755 32.5843 63.0987 32.4292 63.2306C32.3715 63.294 32.323 63.3652 32.2852 63.4421C32.2195 63.5865 32.1224 63.7143 32.0009 63.8163C31.8795 63.9183 31.7368 63.9919 31.5832 64.0316C31.1045 64.1467 30.6792 64.4213 30.3772 64.8101C29.8822 65.5549 29.6707 66.4526 29.7832 67.3391C29.8057 67.4741 29.8507 67.6496 29.9812 67.8206C30.0577 67.9286 30.1477 67.9916 30.2422 68.0051C30.282 68.0104 30.3225 68.0075 30.3612 67.9967C30.3998 67.9858 30.4359 67.9673 30.4672 67.9421C30.5707 67.8521 30.6652 67.7531 30.7507 67.6451C30.9307 67.4426 31.1512 67.1861 31.4257 66.9791C31.5157 66.9116 31.6057 66.9296 31.6597 66.9656C31.7047 67.0016 31.7317 67.0556 31.7137 67.1006C31.6587 67.2389 31.5877 67.3703 31.5022 67.4921C31.3672 67.7036 31.2007 67.9646 31.0702 68.2751C31.0342 68.3426 31.0297 68.4101 31.0567 68.4641C31.0927 68.5541 31.1917 68.5901 31.2142 68.5991C32.0467 68.8646 33.2842 68.5496 33.9817 67.8971C34.1573 67.7255 34.294 67.5181 34.3825 67.2891C34.471 67.0601 34.5093 66.8147 34.4947 66.5696C34.5051 66.3779 34.5832 66.1961 34.7152 66.0566C35.2012 65.6381 35.4037 64.9856 35.6152 64.2926L35.7772 63.7931C35.9977 63.0799 36.423 62.4431 36.9967 61.9661C37.9102 61.1111 38.3242 60.3011 38.5852 59.8061C38.8507 59.2706 38.9092 58.9736 39.1027 58.6631C39.4852 58.0601 40.7722 57.9431 41.2492 58.2266C41.4472 58.3436 41.4877 58.5056 41.3797 58.7081C41.3077 58.8386 40.6282 59.9366 40.3087 60.6881C40.1512 61.0571 39.7957 61.1966 39.5887 61.3181C38.3107 62.0651 38.0767 63.4691 38.0407 64.0451C38.0272 64.2251 38.0452 64.4636 38.1397 64.5986C38.1628 64.6334 38.1926 64.6633 38.2274 64.6865C38.2622 64.7096 38.3012 64.7257 38.3422 64.7336C38.3842 64.7402 38.427 64.738 38.4681 64.7272C38.5092 64.7164 38.5475 64.6971 38.5807 64.6706C38.6527 64.6121 39.3457 63.9146 39.4267 63.8426C39.5437 63.7436 39.6427 63.7616 39.6967 63.8066C39.7462 63.8516 39.7687 63.9461 39.6967 64.0541C39.6067 64.1936 39.1252 64.9136 39.1837 65.0711C39.2737 65.3366 39.5482 65.3321 39.8182 65.3321C42.0097 65.1521 42.7837 63.5906 42.7837 63.5906C42.8377 63.5006 42.9007 63.3791 42.8647 63.0551C42.8017 62.4701 42.6667 60.4451 43.8367 59.1851C44.1832 58.7981 44.3902 59.0591 44.4667 59.2301C44.6107 59.5451 44.8177 60.0806 44.9392 60.3506C45.1912 60.9221 45.3622 61.3406 45.6592 61.9076C46.1452 62.8616 46.8877 62.9921 47.8012 62.8796C48.9847 62.7311 49.7992 62.8256 50.5912 62.9021C51.2662 62.9606 51.6397 63.0056 52.1392 62.5511C52.4092 62.3036 52.9267 61.8536 53.2732 61.3586C53.4982 61.0481 53.5612 60.8501 53.5072 60.3686C53.3452 57.9341 54.6097 55.8191 56.8912 54.7121C57.2332 54.5726 57.6112 54.6131 57.8452 54.9281C58.3582 55.6841 59.5462 57.6281 59.5462 59.2796C59.5316 59.461 59.4875 59.6388 59.4157 59.8061C59.2537 60.2561 59.0557 60.8186 59.4247 61.5836C59.4517 62.2451 59.2042 62.7626 58.9882 63.2216C58.6777 63.8696 58.4347 64.3826 59.2807 64.8866C59.598 65.0666 59.94 65.2016 60.2932 65.2916C60.3252 65.2914 60.3564 65.2821 60.3832 65.2646C60.3974 65.2567 60.4096 65.2458 60.4189 65.2325C60.4283 65.2193 60.4345 65.2041 60.4372 65.1881C60.4597 64.9946 60.4822 64.3331 60.5182 64.1801C60.5317 64.1171 60.5632 64.0451 60.6352 64.0361C60.7027 64.0361 60.7702 64.0856 60.7882 64.1396C60.8557 64.3016 61.0267 64.9496 61.0762 65.0486C61.1167 65.1386 61.1662 65.1971 61.2292 65.2196C61.5667 65.3141 62.0302 64.7336 62.2012 64.4321C62.4982 63.8156 62.3767 62.9021 61.8907 62.1011C61.8321 61.9921 61.8041 61.8693 61.8097 61.7456C61.9538 61.2553 61.922 60.73 61.7197 60.2606C61.6223 60.0117 61.5558 59.7517 61.5217 59.4866C61.3867 58.3436 62.0932 54.7166 62.1562 54.3476C62.2777 53.6726 62.3767 53.1911 62.4172 52.6961C62.432 52.443 62.3967 52.1895 62.3133 51.9502C62.2299 51.7108 62.1 51.4902 61.9312 51.3011C61.6252 50.9726 61.2562 50.6711 60.8962 50.3831C60.5994 50.1513 60.3155 49.9034 60.0457 49.6406C59.7523 49.3237 59.572 48.9187 59.5327 48.4886C59.5327 48.4436 59.5417 48.4121 59.5597 48.3986C59.5774 48.3883 59.5978 48.3836 59.6182 48.3851C60.1582 48.4256 60.5947 48.7811 61.1392 49.2401C61.6342 49.6451 62.1877 50.1041 62.9617 50.4461C64.5007 51.1301 65.9587 51.0311 67.4257 50.1401C68.0467 49.6991 68.2402 49.3166 68.2717 49.2671C68.3122 49.1996 68.2537 49.0061 68.0737 49.1096ZM34.0132 43.0301C34.1032 42.3191 34.6252 41.5676 34.8547 40.6811C35.1832 39.6821 35.2732 37.9361 35.4532 36.5501C35.5432 35.8571 35.8042 35.5691 36.3037 35.5061C36.6322 35.4746 36.9787 35.7626 37.1542 36.7391C37.7662 40.7306 38.9632 41.2841 39.6607 42.3416C39.6736 42.3605 39.6856 42.3801 39.6967 42.4001C39.8767 42.7331 39.9307 43.0391 39.6517 43.2641C39.4897 43.3991 38.9407 43.5926 38.0137 43.0301C36.8977 42.3596 36.7312 41.6351 34.8817 43.1156C34.8817 43.1156 34.6342 43.3046 34.4002 43.3586C34.1977 43.4036 33.9772 43.3271 34.0132 43.0301ZM43.6882 57.6776C43.6207 57.7226 43.5442 57.6911 43.4362 57.6236C42.7027 57.1511 40.6687 56.7821 38.9542 57.4706C37.1857 58.1771 35.5702 59.1806 35.4622 57.4301C35.4397 55.8821 35.7682 55.2071 35.2282 54.2891L35.1832 54.2171C35.1382 54.1451 35.1922 54.1271 35.2102 54.1271C37.6897 53.9336 38.3557 53.1596 38.5087 52.8896C38.5402 52.8266 38.4997 52.7636 38.4367 52.7546C37.8652 52.6916 35.0212 52.6061 33.8827 52.7726C31.8712 53.0651 30.5212 56.0891 30.2602 56.3771C29.9587 56.7056 29.5762 56.4536 29.5762 56.1521C29.5762 55.6481 29.8777 53.1956 30.0712 52.3451C30.3862 50.9996 30.8182 50.0051 32.1322 49.7981C33.0502 49.6586 35.3092 49.4201 35.1562 48.8081C35.0504 48.4412 34.9841 48.0641 34.9582 47.6831C34.9582 47.3861 35.1112 47.3231 35.4127 47.3951C35.6377 47.4401 35.9347 47.5751 36.3217 47.6651C39.1567 48.3356 40.6147 47.8001 42.3067 47.0486L43.0222 46.7246C43.0927 46.687 43.1733 46.6727 43.2524 46.6838C43.3316 46.6948 43.4051 46.7307 43.4626 46.7862C43.5201 46.8416 43.5585 46.9139 43.5724 46.9926C43.5862 47.0713 43.5748 47.1523 43.5397 47.2241C43.4497 47.4176 43.3282 47.5076 43.0672 47.7551C42.5092 48.2951 40.4257 50.0051 41.6812 52.8941C42.6577 55.1441 42.9412 55.7291 43.6387 57.2636C43.7512 57.5156 43.7692 57.6236 43.6837 57.6776H43.6882ZM48.9667 61.5746C48.8272 61.7906 48.6112 61.9436 48.2017 61.9436C47.6887 61.9436 47.3287 61.7906 47.1127 61.5611C46.9261 61.3546 46.7929 61.1056 46.7246 60.8358C46.6564 60.5659 46.6552 60.2835 46.7212 60.0131C46.7887 59.7431 46.9462 59.5676 47.1262 59.5181C47.1982 59.4911 47.2387 59.5001 47.2792 59.5496C47.3557 59.6711 47.6302 60.1076 47.6932 60.1976C47.7763 60.3054 47.8866 60.3893 48.0127 60.4406C48.2197 60.5261 48.4852 60.5981 48.6247 60.6611C49.0522 60.8456 49.1512 61.2866 48.9667 61.5746ZM57.1522 53.6096C57.0982 53.6996 57.0487 53.7131 56.9767 53.7446C54.4072 54.7166 52.3597 57.3446 52.7332 60.4946C52.738 60.5957 52.7225 60.6967 52.6878 60.7918C52.653 60.8868 52.5996 60.974 52.5307 61.0481C52.5307 61.0481 51.9907 61.5971 51.6532 61.8311C51.5362 61.9121 51.4057 61.9751 51.1042 61.9571L49.9567 61.8851C49.7767 61.8536 49.8532 61.6961 49.8667 61.6601C49.8816 61.6236 49.8936 61.586 49.9027 61.5476C50.0017 61.0751 49.9297 60.4136 49.2637 60.1661C49.1692 60.1121 49.2277 60.0221 49.2412 59.9951C49.5247 59.2886 49.8847 58.4201 50.1682 57.2006C50.3707 56.4964 50.22 55.7381 49.7632 55.1621L49.3582 54.6221C49.2412 54.4916 49.2727 54.3521 49.4347 54.2981L50.0062 54.1496C50.1412 54.1046 50.1322 53.8931 49.9972 53.8571L49.7047 53.7671C49.4676 53.6547 49.2677 53.4767 49.1287 53.2541C49.0174 53.1031 48.9406 52.9295 48.9037 52.7456L48.8722 52.5791C48.8677 52.4936 48.7372 52.4891 48.6742 52.5521C48.4486 52.7659 48.3008 53.0489 48.2543 53.3563C48.2078 53.6636 48.2654 53.9777 48.4177 54.2486C48.8812 55.0226 48.8632 54.9461 49.2727 55.5311C49.4077 55.7201 49.4932 55.8776 49.5382 56.0711C49.6035 56.5436 49.5562 57.0274 49.4032 57.4796L48.9352 58.9016C48.6517 59.5316 48.3367 59.3831 48.1612 59.2616C47.9272 59.1086 47.7112 58.7126 47.5987 58.2896C47.5987 58.2896 47.2747 57.1061 47.2837 55.5266C47.2657 55.3376 47.1352 55.0271 46.7212 55.3016L45.6187 56.2106C45.4657 56.2961 45.1957 56.2511 45.2497 55.8911C45.2497 55.8911 46.0417 52.3586 46.8922 50.3696C47.5312 48.7496 46.8202 47.8361 45.9742 46.8326C44.5837 45.0596 44.2732 42.6791 47.5042 43.9841C48.3727 44.3801 48.6832 43.8671 49.7542 43.7726C50.5192 43.7096 50.7712 44.0201 50.8342 44.1506C50.8822 44.2496 50.9127 44.3562 50.9242 44.4656C50.9242 44.4926 50.9152 44.5106 50.8792 44.5106C49.0702 44.6186 46.9102 46.1216 48.5842 48.4841C50.2177 50.7971 54.7267 51.5711 56.7427 49.3661C56.7697 49.3391 56.7742 49.2716 56.7337 49.2401C56.7199 49.2277 56.7029 49.2194 56.6846 49.2162C56.6662 49.2131 56.6474 49.2151 56.6302 49.2221C56.2263 49.3835 55.8072 49.5041 55.3792 49.5821C54.4162 49.7396 52.3777 49.6271 51.4192 48.5246C50.8657 47.8946 50.8792 47.1701 51.8107 47.0576C52.3282 47.0171 52.5847 47.1116 52.8097 47.1161C53.3902 47.1071 53.5072 46.5311 53.3902 46.2611C53.2407 45.939 53.0152 45.658 52.7332 45.4421C52.4317 45.2306 52.5982 45.0056 52.7917 45.0101C54.6547 45.1181 56.4367 45.4421 57.1117 47.6786C57.1387 47.7641 57.1837 48.0476 57.2557 48.1511C57.3997 48.3671 57.6472 48.5291 57.9262 48.7676C58.6012 49.3571 59.2087 50.4101 57.1522 53.6096ZM59.5732 52.2236C59.9017 51.5396 60.3472 51.9986 60.5632 52.7501C60.8332 53.7086 60.8692 55.2431 60.7522 56.0351C60.6082 57.0701 60.1222 56.8631 59.8612 56.4941C59.4472 55.9136 59.0062 55.1441 58.6912 54.6131C58.683 54.5969 58.6755 54.5804 58.6687 54.5636C58.5247 54.2621 58.5022 54.0236 58.6552 53.8076C58.8082 53.5691 59.4202 52.5386 59.5732 52.2236Z" fill="#B6A272"/>
</g>
<defs>
<filter id="filter0_i_319_2187" x="22" y="18" width="46.2842" height="58.001" filterUnits="userSpaceOnUse" color-interpolation-filters="sRGB">
<feFlood flood-opacity="0" result="BackgroundImageFix"/>
<feBlend mode="normal" in="SourceGraphic" in2="BackgroundImageFix" result="shape"/>
<feColorMatrix in="SourceAlpha" type="matrix" values="0 0 0 0 0 0 0 0 0 0 0 0 0 0 0 0 0 0 127 0" result="hardAlpha"/>
<feOffset dy="4"/>
<feGaussianBlur stdDeviation="2"/>
<feComposite in2="hardAlpha" operator="arithmetic" k2="-1" k3="1"/>
<feColorMatrix type="matrix" values="0 0 0 0 0 0 0 0 0 0 0 0 0 0 0 0 0 0 0.5 0"/>
<feBlend mode="normal" in2="shape" result="effect1_innerShadow_319_2187"/>
</filter>
</defs>
</svg>
