<svg width="90" height="90" viewBox="0 0 90 90" fill="none" xmlns="http://www.w3.org/2000/svg">
<rect width="90" height="90" rx="10" fill="white"/>
<path fill-rule="evenodd" clip-rule="evenodd" d="M87 45C87 57.15 68.1933 67 45.0019 67C21.8038 67 3 57.15 3 45C3 32.85 21.8038 23 45.0019 23C68.1933 23 87 32.85 87 45Z" fill="#DDD8A7"/>
<path fill-rule="evenodd" clip-rule="evenodd" d="M85 45C85 56.0462 66.8665 65 44.5002 65C22.133 65 4 56.0462 4 45C4 33.9542 22.133 25 44.5002 25C66.8665 25 85 33.9542 85 45ZM44.5002 26.5745C23.0101 26.5745 5.58794 34.8239 5.58794 45C5.58794 55.1756 23.0101 63.4251 44.5002 63.4251C65.9894 63.4251 83.4106 55.1756 83.4106 45C83.4111 34.8239 65.9894 26.5745 44.5002 26.5745Z" fill="#2B6352"/>
<path fill-rule="evenodd" clip-rule="evenodd" d="M83 44.4995C83 54.7173 65.7625 63 44.5 63C23.2366 63 6 54.7173 6 44.4995C6 34.2827 23.2371 26 44.5 26C65.7625 25.9995 83 34.2827 83 44.4995ZM69.1742 35.8381H62.5718L61.7673 38.2004H66.0417L61.1669 39.9348L60.8447 40.8928L68.3453 38.3654L69.1742 35.8381ZM27.0745 39.9845H24.3852C24.3852 39.9845 26.8778 33.1577 27.0779 32.6416C27.4338 31.7268 27.6457 31.79 27.6457 31.79H23.9307C24.3906 32.0157 23.983 32.9075 23.983 32.9075C23.983 32.9075 21.0076 41.4209 20.8001 41.8463C20.5927 42.2721 20.4374 42.3257 20.4374 42.3257H26.8714L27.7711 39.8044C27.6935 40.0442 27.0745 39.9845 27.0745 39.9845ZM38.3599 42.3152H41.3904C41.3904 42.3152 41.1829 41.9992 41.3123 41.6537C41.4915 41.1737 43.099 36.6787 43.099 36.6787L43.798 42.3152H46.543L50.1412 32.2885C50.1412 32.2885 50.2882 31.8181 50.4893 31.8181L47.5725 31.8091C47.5725 31.8091 47.6565 32.1551 47.5515 32.4215C47.4495 32.6873 45.7917 37.2369 45.7917 37.2369L45.1444 31.8091H42.0113C42.0113 31.8091 42.1734 32.0749 42.0699 32.3678L38.7485 41.7329C38.7485 41.7329 38.5415 42.3152 38.3599 42.3152ZM52.214 31.8121C52.214 31.8121 52.4722 32.2379 52.1359 33.2219C51.7985 34.207 49.1581 41.5227 49.1581 41.5227C49.1581 41.5227 48.9501 42.2109 48.665 42.3448L52.8085 42.3403C52.8085 42.3403 57.8313 42.5309 59.3856 37.1065C59.3856 37.1065 61.3534 31.7589 55.6565 31.8126L52.214 31.8121ZM52.6538 39.9173C52.6538 39.9173 52.667 39.9132 53.1322 39.9132C53.8366 39.9132 55.142 39.7537 56.0202 37.5589C57.4617 33.9522 55.45 34.0741 55.45 34.0741H54.6728L52.6538 39.9173ZM15.8072 50.8096H22.4096L23.2131 48.4468H18.9398L23.8146 46.7129L24.1372 45.7559L16.6356 48.2833L15.8072 50.8096ZM27.3786 55.1666C27.2742 55.1666 27.2742 54.8236 27.2742 54.8236L28.4882 51.5123C28.4882 51.5123 30.0015 54.5628 30.105 54.7754C30.2085 54.9891 30.1563 55.1661 30.1563 55.1661H33.7755C33.4299 55.1661 33.074 54.4921 33.074 54.4921L31.2727 51.1692C33.7931 51.1692 34.5986 48.6038 34.5986 48.6038C35.8414 44.5241 31.6589 44.6304 31.6589 44.6304H27.3782C27.6886 44.985 27.4465 45.7303 27.4465 45.7303C27.4465 45.7303 24.7884 53.5386 24.5815 54.142C24.374 54.7453 23.9942 55.1656 23.9942 55.1656L27.3786 55.1666ZM29.9439 47.0539L29.2424 49.172H29.8985C29.8985 49.172 31.1766 49.2884 31.6476 48.2441C31.6476 48.2441 32.1993 47.0479 30.6576 47.0479C30.3198 47.0479 29.9439 47.0539 29.9439 47.0539ZM64.8281 55.2058C64.5699 55.2118 64.75 54.5603 64.75 54.5603L65.8342 51.5509C65.8342 51.5509 67.2938 54.6024 67.3968 54.8161C67.5008 55.0287 67.4491 55.2058 67.4491 55.2058H71.1972C70.8511 55.2058 70.4718 54.5307 70.4718 54.5307L68.67 51.2088C71.1908 51.2088 71.9499 48.7342 71.9499 48.7342C73.2733 44.4629 69.0571 44.6695 69.0571 44.6695H64.8105C65.1215 45.0241 64.8803 45.7694 64.8803 45.7694C64.8803 45.7694 62.1105 53.6083 61.9035 54.2107C61.7732 54.5811 61.5667 54.9182 61.2982 55.1993L64.8281 55.2058ZM67.2968 49.2106C67.2968 49.2106 68.565 49.3084 68.9531 48.2878C69.4115 47.086 68.2687 47.1171 68.2687 47.1171H67.3314L66.6402 49.2106H67.2968ZM39.075 55.4285C42.811 55.4285 45.0345 51.6628 45.0345 48.9619C45.0345 46.1281 43.9005 44.3596 41.3123 44.3596C38.0094 44.3596 35.8546 46.9351 35.2986 50.1365C34.7875 53.0802 36.4058 55.4285 39.075 55.4285ZM39.3103 52.9382C40.2422 53.1158 41.2669 52.4261 41.8019 50.2248C42.6133 46.8929 41.118 46.8659 40.8451 46.8312C40.0182 46.7274 38.9144 47.706 38.4658 49.7458C38.2603 50.6772 38.0426 52.6965 39.3103 52.9382ZM45.9215 44.6705C45.9215 44.6705 46.1778 44.8125 46.1778 45.4856V54.6029C46.1778 54.6029 46.1427 55.1014 45.9596 55.2063H48.7353C48.7353 55.2063 48.7353 54.9926 49.0106 54.638C49.2869 54.2834 55.0526 46.3377 55.0526 46.3377C55.0526 46.3377 56.3673 44.6705 56.7124 44.6705H52.7392C52.7392 44.6705 53.0512 44.8832 52.809 45.2729C52.5679 45.6636 49.0355 51.091 49.0355 51.091L49.0804 45.617C49.0804 45.617 49.0736 44.7392 49.4168 44.666L45.9215 44.6705ZM62.7041 47.1558L63.6023 44.6675L56.8701 44.6685C56.8701 44.6685 57.1122 44.8882 56.8012 45.7745C56.4903 46.6622 53.7624 54.2157 53.7624 54.2157C53.7624 54.2157 53.2801 55.2083 53.1425 55.2083H60.0807L60.9091 52.6905C60.9091 52.6905 60.8061 52.8314 60.15 52.8314H57.2152L57.8366 51.1286H60.1144C60.1144 51.1286 60.5977 51.0935 60.7017 51.2354L61.6331 48.5446C61.6331 48.5446 61.5652 48.7873 60.9428 48.7873H58.7339L59.39 46.9085H62.1867C62.1867 46.9085 62.5674 46.8548 62.7041 47.1558ZM27.6091 42.3242H30.9305C30.9305 42.3242 30.9203 42.0624 31.0067 41.8924C31.1643 41.5849 31.5764 40.8431 31.5764 40.8431H34.9193L34.9256 41.768C34.9256 41.768 34.9427 42.087 34.6967 42.3328H38.0113C38.0113 42.3328 37.7653 42.1908 37.7199 41.772L37.3035 32.5147C37.3035 32.5147 37.2854 31.9229 37.5598 31.798H34.2715C34.2715 31.798 34.5019 32.0904 34.0616 32.756C33.6218 33.4211 28.0045 41.9787 28.0045 41.9787C28.0045 41.9787 27.8932 42.1978 27.6091 42.3242ZM34.8549 35.3817L33.0091 38.4667H34.8807L34.8549 35.3817Z" fill="#043F2E"/>
</svg>
