<svg width="90" height="90" viewBox="0 0 90 90" fill="none" xmlns="http://www.w3.org/2000/svg">
<rect width="90" height="90" rx="10" fill="white"/>
<path fill-rule="evenodd" clip-rule="evenodd" d="M46.2695 28.846C44.619 30.8629 39.9115 37.3742 39.375 38.2173C38.3421 39.8327 38.2509 40.6155 38.2205 41.1371C38.1905 41.6491 38.1905 42.5721 39.0307 43.3248C40.4383 44.5689 42.4123 44.3679 44.1641 44.3679H58.5923C59.2099 44.3679 59.3924 44.187 59.7265 43.7459C60.8806 41.9998 61.3972 40.1036 61.3972 38.4078C61.3972 34.7755 59.0181 30.2006 52.9934 28.1336L52.3145 29.0968C57.0934 31.3438 59.0684 34.2837 59.0684 38.3973C59.0988 39.5012 58.8047 40.695 58.0756 41.7989H44.042C43.2018 41.7989 43.0801 40.8558 43.3838 40.3237C44.587 38.2019 45.9297 36.1609 47.4032 34.2138C48.8209 32.3376 50.2179 30.5815 51.6863 28.7456C52.0813 28.234 51.8176 27.7422 51.0281 27.5819C49.3878 27.2407 47.677 27 45.6012 27C34.0895 27 29.877 33.5516 29.877 38.4078C29.877 43.6755 34.1195 49.7859 45.6316 49.7859C52.0204 49.7859 56.2025 47.7485 58.6222 45.1302H56.1818C54.0654 47.0666 50.4304 48.4418 45.6316 48.4418C35.881 48.4418 32.287 43.0133 32.287 38.3375C32.3575 34.1636 36.2151 28.4044 45.8749 28.2139C46.2395 28.2039 46.5234 28.535 46.2695 28.846ZM80.8975 58.9156C81.4745 58.996 81.9202 59.4472 81.9202 59.9797C81.9202 60.5808 81.3736 61.0626 80.7048 61.0626H68.3327V53.0459H64.6871V61.0832H57.9843C56.1721 61.0832 55.7979 59.9893 55.7979 58.9859V52.9961H49.7533C49.1555 53.3976 48.5785 53.8392 47.9609 54.2101L44.3766 56.3973L39.7193 53.0263H32.4695V55.0431H35.0915V53.9388L41.2577 58.3242L37.0457 60.942H32.469V62.9589H37.7642C38.3311 62.578 38.868 62.1765 39.4552 61.8253L43.1405 59.608L47.818 62.9192H53.1445L46.1068 57.6715L49.722 55.3345C50.4917 54.8321 51.3019 54.4115 52.0914 53.9502V59.2275C52.0914 61.4549 52.6684 63 57.1944 63L82.7604 62.9402C84.7344 62.9694 86 61.6157 86 59.9807C86 58.3543 84.5417 57.0202 82.7604 57.0202H73.5265C73.6481 55.9068 74.6192 54.9742 75.6014 54.9742H84.9469L84.9174 53.0377H75.0045C71.8654 53.0377 69.355 55.6163 69.284 58.6165C69.2743 58.827 69.4153 58.9572 69.6485 58.9572L80.8975 58.9156ZM32.4695 58.8859V56.8289H34.2716V58.8859H32.4695ZM32.4695 53.0263H25.6248C23.772 53.0263 22.3442 53.5081 21.2915 54.3302C19.3982 55.8154 18.7907 57.3801 18.811 58.083H21.2814C20.1978 58.8859 19.4687 59.8482 19.0843 60.9626H10.9837C9.52594 60.9626 8.58388 59.9396 8.58388 58.9457V52.9559H5V59.1768C5 61.4138 7.14682 62.9589 10.5887 62.9589H32.469V60.942H23.7822C23.8227 59.919 24.9261 58.8859 25.9285 58.8859H32.4695V56.8289H23.6808C23.5596 56.2269 24.6934 55.0431 25.564 55.0431H32.4695V53.0263Z" fill="#333333"/>
</svg>
