<svg width="90" height="90" viewBox="0 0 90 90" fill="none" xmlns="http://www.w3.org/2000/svg">
<rect width="90" height="90" rx="10" fill="white"/>
<g clip-path="url(#clip0_944_1431)">
<path fill-rule="evenodd" clip-rule="evenodd" d="M7 6H84V83H7V6Z" fill="white"/>
<path fill-rule="evenodd" clip-rule="evenodd" d="M46.1666 28.5868C44.7361 30.3509 40.6559 36.0461 40.191 36.7835C39.2957 38.1964 39.2166 38.8811 39.1903 39.3373C39.1643 39.7851 39.1643 40.5925 39.8925 41.2508C41.1125 42.3389 42.8234 42.1632 44.3418 42.1632H56.8472C57.3825 42.1632 57.5407 42.005 57.8303 41.6191C58.8306 40.0919 59.2784 38.4333 59.2784 36.9501C59.2784 33.7731 57.2163 29.7716 51.9945 27.9636L51.406 28.8061C55.5481 30.7715 57.2599 33.3429 57.2599 36.9409C57.2862 37.9064 57.0314 38.9506 56.3994 39.9162H44.236C43.5077 39.9162 43.4023 39.0913 43.6655 38.6259C44.7083 36.77 45.8721 34.9848 47.1493 33.2818C48.3781 31.6408 49.5889 30.1048 50.8616 28.4989C51.2039 28.0515 50.9754 27.6213 50.2911 27.4811C48.8694 27.1827 47.3866 26.9722 45.5874 26.9722C35.6098 26.9722 31.9587 32.7025 31.9587 36.9501C31.9587 41.5576 35.6358 46.9021 45.6137 46.9021C51.1512 46.9021 54.776 45.12 56.8732 42.8299H54.758C52.9236 44.5236 49.773 45.7264 45.6137 45.7264C37.1626 45.7264 34.0475 40.9783 34.0475 36.8886C34.1086 33.2378 37.4522 28.2005 45.8247 28.034C46.1406 28.0252 46.3867 28.3148 46.1666 28.5868ZM76.1799 54.8874C76.68 54.9578 77.0663 55.3524 77.0663 55.8182C77.0663 56.3439 76.5925 56.7653 76.0129 56.7653H65.2896V49.7535H62.1298V56.7833H56.3203C54.7496 56.7833 54.4252 55.8266 54.4252 54.949V49.7099H49.1862C48.6681 50.0611 48.1679 50.4474 47.6327 50.7717L44.526 52.6848L40.4894 49.7363H34.2057V51.5004H36.4783V50.5344L41.8228 54.3701L38.172 56.6599H34.2053V58.4239H38.7948C39.2862 58.0908 39.7515 57.7397 40.2605 57.4325L43.4546 55.493L47.5088 58.3892H52.1255L46.0256 53.7993L49.159 51.7552C49.8261 51.3158 50.5284 50.9479 51.2127 50.5444V55.1603C51.2127 57.1085 51.7128 58.4599 55.6356 58.4599L77.7945 58.4076C79.5055 58.4331 80.6024 57.2491 80.6024 55.819C80.6024 54.3965 79.3385 53.2297 77.7945 53.2297H69.7912C69.8966 52.2557 70.7383 51.44 71.5896 51.44H79.6896L79.6641 49.7463H71.0723C68.3515 49.7463 66.1756 52.0017 66.1141 54.6258C66.1057 54.8099 66.2279 54.9238 66.4301 54.9238L76.1799 54.8874ZM34.2057 54.8615V53.0623H35.7676V54.8615H34.2057ZM34.2057 49.7363H28.2732C26.6673 49.7363 25.4298 50.1577 24.5174 50.8768C22.8764 52.1759 22.3499 53.5444 22.3675 54.1592H24.5086C23.5695 54.8615 22.9375 55.7032 22.6043 56.6779H15.5833C14.3198 56.6779 13.5032 55.7831 13.5032 54.9138V49.6748H10.397V55.1159C10.397 57.0725 12.2577 58.4239 15.2409 58.4239H34.2057V56.6599H26.6761C26.7113 55.7651 27.6676 54.8615 28.5364 54.8615H34.2057V53.0623H26.5882C26.4832 52.5358 27.4659 51.5004 28.2205 51.5004H34.2057V49.7363Z" fill="black"/>
</g>
<defs>
<clipPath id="clip0_944_1431">
<rect width="77" height="77" fill="white" transform="translate(7 6)"/>
</clipPath>
</defs>
</svg>
