<svg width="90" height="90" viewBox="0 0 90 90" fill="none" xmlns="http://www.w3.org/2000/svg">
<rect width="90" height="90" rx="10" fill="white"/>
<path d="M46.5322 24.0082C46.569 24.0287 46.6141 24.0287 46.6551 24.0287C46.8968 24.0328 47.1426 24.041 47.3843 24.0533C47.8514 24.0778 48.3184 24.1147 48.7855 24.1639C49.2976 24.213 49.8097 24.2827 50.3177 24.3605C51.5673 24.5572 52.8004 24.8399 54.009 25.2127C55.4306 25.6511 56.8031 26.2123 58.1223 26.9047C59.3104 27.5315 60.4288 28.2567 61.4695 29.1047C61.9611 29.5062 62.4363 29.9282 62.8788 30.383C64.0013 31.5301 64.9477 32.8042 65.6483 34.2586C66.1768 35.3566 66.5373 36.5037 66.7094 37.7123C66.7709 38.1261 66.8036 38.544 66.82 38.9619C66.8774 40.3261 66.6684 41.6576 66.2464 42.9523C65.7794 44.3739 65.0665 45.6603 64.157 46.8443C63.8498 47.2458 63.522 47.6309 63.1738 47.9996C62.2684 48.9706 61.2564 49.8105 60.1666 50.5561C59.0769 51.3058 57.9174 51.9327 56.7089 52.4694C55.3323 53.0798 53.9066 53.555 52.444 53.9074C51.4812 54.1409 50.5103 54.3212 49.5311 54.44C48.9739 54.5096 48.4167 54.567 47.8596 54.6038C47.454 54.6284 47.0525 54.6448 46.6469 54.6612C46.2577 54.6776 45.8644 54.6817 45.4752 54.6735C44.9467 54.6612 44.4182 54.6448 43.8938 54.6038C43.2546 54.5588 42.6237 54.4932 41.9887 54.4072C41.1939 54.3007 40.4114 54.1573 39.6289 53.977C38.2687 53.6698 36.9413 53.2519 35.6467 52.7234C34.1841 52.1252 32.7912 51.3878 31.4883 50.4906C30.7591 49.9866 30.0667 49.4336 29.4112 48.8313C28.473 47.9628 27.6414 47 26.9408 45.9307C26.1706 44.7508 25.597 43.4849 25.2529 42.1165C25.1054 41.5347 25.007 40.9489 24.9579 40.3507C24.9251 39.9615 24.9046 39.5723 24.9087 39.179C24.9292 38.0933 25.0972 37.0281 25.4126 35.9916C25.6093 35.3525 25.851 34.7339 26.1501 34.1357C26.6581 33.1156 27.289 32.1733 28.0224 31.3007C28.3583 30.9033 28.7106 30.5223 29.0835 30.1617C29.7717 29.4898 30.5133 28.8794 31.2999 28.3222C32.361 27.5684 33.4876 26.9334 34.6634 26.3844C35.9499 25.7862 37.2814 25.311 38.6538 24.9423C39.4814 24.7211 40.3131 24.5367 41.157 24.3974C41.8371 24.2827 42.5213 24.1926 43.2055 24.1311C43.8241 24.0778 44.4427 24.0287 45.0614 24.0205C45.1023 24.0205 45.1433 24.0205 45.1843 24C45.6308 24.0082 46.0815 24.0082 46.5322 24.0082ZM42.2099 44.8C42.2427 44.8 42.2755 44.8 42.3042 44.8C44.6107 44.8 46.9214 44.8 49.2279 44.8041C49.3426 44.8041 49.4082 44.7672 49.4614 44.6607C49.8138 43.9396 50.1702 43.2186 50.5307 42.4975C51.1617 41.2275 51.7885 39.9615 52.4194 38.6915C53.0135 37.4993 53.6034 36.303 54.1975 35.1108C54.9513 33.5949 55.7051 32.0832 56.4549 30.5632C56.5122 30.4485 56.5819 30.4035 56.7089 30.4035C57.2005 30.4076 57.6921 30.4076 58.1838 30.4076C58.6959 30.4076 59.2039 30.4076 59.716 30.4076C59.7611 30.4076 59.8143 30.4239 59.8594 30.3789C59.8348 30.3338 59.7979 30.301 59.7692 30.2724C59.6177 30.1249 59.4661 29.9774 59.3063 29.8381C58.7286 29.3178 58.1141 28.8425 57.4709 28.4083C56.545 27.7855 55.5699 27.2529 54.5498 26.8023C53.206 26.2082 51.8172 25.774 50.3792 25.4749C49.4492 25.2823 48.5151 25.1553 47.5687 25.0816C46.9664 25.0365 46.3683 25.0283 45.766 25.0119C45.6431 25.0078 45.5202 25.0283 45.3932 25.0283C44.9712 25.0324 44.5493 25.0529 44.1273 25.0857C43.4677 25.1348 42.8081 25.2127 42.1567 25.3192C41.0833 25.4954 40.0304 25.7494 38.998 26.0894C37.6337 26.536 36.3309 27.1177 35.0977 27.8511C34.0817 28.4533 33.1312 29.1457 32.2668 29.9446C31.7669 30.4076 31.2917 30.8951 30.8574 31.4195C30.2019 32.2102 29.6365 33.0542 29.1736 33.9678C28.8458 34.6192 28.5754 35.2911 28.3706 35.9875C28.0715 36.9995 27.9158 38.0319 27.8954 39.0848C27.8913 39.347 27.8995 39.6092 27.9158 39.8714C27.9363 40.2811 27.9773 40.6867 28.0429 41.0923C28.2354 42.2804 28.6082 43.4111 29.1449 44.4886C29.5423 45.2875 30.0258 46.0413 30.5747 46.746C30.6157 46.7993 30.6526 46.8607 30.7099 46.9017C30.7632 46.8648 30.7796 46.8115 30.8001 46.7624C31.345 45.6644 31.8898 44.5623 32.4347 43.4644C33.0452 42.2353 33.6556 41.0021 34.266 39.7731C34.8601 38.5809 35.45 37.3846 36.0441 36.1924C36.9782 34.316 37.9123 32.4396 38.8382 30.5591C38.8996 30.4362 38.9734 30.3994 39.1045 30.3994C41.4725 30.4035 43.8405 30.4035 46.2085 30.4035C46.397 30.4035 46.4011 30.4035 46.3355 30.5878C46.1102 31.2146 45.8767 31.8374 45.6227 32.456C45.1802 33.5335 44.6927 34.5864 44.1478 35.6147C43.5537 36.7332 42.8982 37.8107 42.169 38.8472C41.493 39.8017 40.7596 40.7072 39.9525 41.5552C39.3544 42.1861 38.7194 42.7802 38.0475 43.3292C36.9741 44.2059 35.827 44.9638 34.5774 45.5661C33.8891 45.8979 33.1804 46.1765 32.4388 46.3732C32.3856 46.3855 32.3323 46.4059 32.279 46.4223C32.279 46.4264 32.2831 46.4346 32.2831 46.4387C32.32 46.4387 32.3569 46.4387 32.3938 46.4387C34.9502 46.4387 37.5067 46.4387 40.0632 46.4428C40.1861 46.4428 40.2516 46.406 40.309 46.2953C40.7637 45.3653 41.2267 44.4394 41.6896 43.5176C43.2178 40.4573 44.7459 37.3969 46.2741 34.3406C46.524 33.8408 46.7739 33.3368 47.0238 32.8329C47.4048 32.0627 47.7899 31.2925 48.1709 30.5223C48.2078 30.4485 48.257 30.4076 48.343 30.4117C48.3799 30.4157 48.4167 30.4117 48.4536 30.4117C50.5471 30.4117 52.6365 30.4117 54.7301 30.4117C54.7587 30.4117 54.7833 30.4117 54.812 30.4117C54.9554 30.4157 54.9677 30.4321 54.9226 30.5632C54.8612 30.7394 54.7956 30.9197 54.7301 31.0958C54.222 32.4519 53.6444 33.7793 52.9602 35.0575C52.4399 36.0326 51.8704 36.9749 51.2354 37.8803C50.625 38.7447 49.9613 39.5682 49.2361 40.3384C48.8346 40.7686 48.4085 41.1742 47.9661 41.5634C47.4294 42.0346 46.8722 42.4729 46.2823 42.8785C45.5817 43.3579 44.8524 43.7798 44.0781 44.1322C43.4677 44.3944 42.8531 44.6238 42.2099 44.8ZM32.0332 48.3233C32.0332 48.3807 32.0742 48.4011 32.1029 48.4257C32.2053 48.524 32.3118 48.6183 32.4183 48.7166C32.9346 49.1877 33.4876 49.6138 34.0653 50.0112C34.983 50.6462 35.954 51.187 36.97 51.6459C38.3957 52.2932 39.8788 52.7602 41.411 53.0716C42.1854 53.2273 42.9679 53.342 43.7545 53.4116C44.4223 53.4731 45.0942 53.5059 45.7619 53.51C46.0241 53.5141 46.2863 53.5018 46.5485 53.4936C47.118 53.4772 47.6875 53.4362 48.2529 53.3789C48.8674 53.3174 49.4737 53.2273 50.0801 53.1085C51.2477 52.8831 52.3866 52.5677 53.501 52.1539C54.7833 51.6746 56.0083 51.0723 57.1595 50.3267C58.3312 49.5688 59.4005 48.6961 60.3469 47.6678C60.8508 47.1188 61.3179 46.5371 61.7317 45.9184C62.4118 44.8942 62.9443 43.8003 63.3049 42.6204C63.5917 41.6822 63.7555 40.7235 63.7965 39.7485C63.8293 38.966 63.7842 38.1876 63.6572 37.4133C63.3745 35.7007 62.7313 34.1316 61.7808 32.6813C61.7644 32.6568 61.7522 32.6199 61.7153 32.6199C61.6825 32.6363 61.6784 32.669 61.662 32.6977C61.3998 33.2836 61.1294 33.8694 60.8303 34.4389C60.1789 35.6885 59.4333 36.8807 58.5648 37.9909C57.8765 38.8717 57.1227 39.6952 56.2787 40.4327C55.529 41.0923 54.726 41.6863 53.8574 42.182C53.0503 42.6409 52.2146 43.026 51.3173 43.2677C51.2969 43.2718 51.2641 43.2677 51.2559 43.3128C51.3173 43.3128 51.3706 43.3128 51.4239 43.3128C53.3945 43.3128 55.3692 43.3128 57.3398 43.3128C57.3849 43.3128 57.4299 43.3128 57.4791 43.3128C57.5774 43.321 57.5897 43.3415 57.5487 43.4357C57.5405 43.4562 57.5282 43.4767 57.5201 43.4972C57.3316 43.8905 57.1349 44.2797 56.9506 44.6771C56.8973 44.7877 56.8359 44.8491 56.7089 44.8286C56.6679 44.8245 56.6269 44.8286 56.586 44.8286C54.3736 44.8286 52.1654 44.8286 49.9531 44.8286C49.8179 44.8286 49.6868 44.8327 49.5516 44.8286C49.4451 44.8245 49.3836 44.8573 49.3344 44.9597C49.1255 45.4022 48.9125 45.8365 48.7035 46.2789C48.5888 46.5166 48.6093 46.4879 48.3758 46.4879C45.7415 46.4879 43.1072 46.4879 40.4728 46.4879C40.4278 46.4879 40.3827 46.492 40.3336 46.4879C40.2557 46.4838 40.2065 46.5125 40.1738 46.5862C39.9362 47.086 39.6944 47.5818 39.4568 48.0775C39.3339 48.3315 39.3585 48.3069 39.0963 48.3069C36.7979 48.3069 34.4996 48.3069 32.2012 48.3069C32.1479 48.3069 32.0906 48.2946 32.0332 48.3233Z" fill="#C60C30"/>
<path d="M60.3799 66.6487C60.4905 66.3497 60.6257 66.0629 60.7486 65.772C61.2116 64.6863 61.6786 63.6006 62.1456 62.515C62.6946 61.2367 63.2436 59.9544 63.7967 58.6762C63.9442 58.332 64.231 58.1641 64.5833 58.0944C64.8701 58.0371 65.1405 58.1067 65.4068 58.2091C65.6608 58.3074 65.8902 58.4508 66.1155 58.6065C67.2627 59.4136 68.4057 60.2248 69.5487 61.0319C70.5935 61.7734 71.6423 62.515 72.687 63.2606C72.8713 63.3917 73.0516 63.3917 73.2401 63.2893C73.4449 63.1828 73.5719 63.0025 73.6784 62.8058C73.7972 62.5846 73.8956 62.347 73.9939 62.1176C74.506 60.8967 74.9935 59.6676 75.477 58.4345C75.5794 58.1682 75.5343 58.2009 75.8211 58.2009C77.1444 58.2009 78.4677 58.2009 79.7951 58.2009C79.8647 58.2009 79.9344 58.205 79.9999 58.205C79.9999 58.2214 79.9999 58.2419 79.9999 58.2583C79.9508 58.3689 79.9016 58.4754 79.8525 58.586C79.5657 59.2088 79.2789 59.8274 78.9962 60.4501C78.6234 61.2654 78.2506 62.0766 77.8777 62.8919C77.5787 63.5433 77.2796 64.1947 76.9805 64.8461C76.8371 65.1657 76.6896 65.4811 76.4725 65.7597C76.2267 66.0793 75.944 66.3456 75.5753 66.5135C75.4442 66.575 75.3049 66.5996 75.1697 66.6446C75.0058 66.6446 74.8378 66.6446 74.674 66.6446C74.2848 66.5545 73.9365 66.3742 73.6047 66.1489C72.4616 65.3746 71.3309 64.5921 70.1961 63.8096C69.516 63.3384 68.84 62.8632 68.1599 62.3921C67.6969 62.0684 67.234 61.7447 66.7669 61.4252C66.6768 61.3637 66.6768 61.3637 66.6277 61.4621C66.6154 61.4866 66.6072 61.5112 66.5949 61.5358C66.4515 61.8636 66.3081 62.1913 66.1647 62.5191C65.6895 63.6047 65.2142 64.6904 64.739 65.7761C64.612 66.067 64.4973 66.362 64.3498 66.6446C63.0306 66.6487 61.7073 66.6487 60.3799 66.6487Z" fill="#C60C30"/>
<path d="M31.9678 66.6488C32.2505 65.9318 32.5331 65.2108 32.8158 64.4938C33.4345 62.9165 34.0572 61.3392 34.6758 59.7578C34.6963 59.7128 34.7127 59.6636 34.725 59.6144C34.8397 59.1474 35.1429 58.8401 35.5526 58.6189C35.9172 58.4222 36.3146 58.3362 36.7243 58.2829C36.9824 58.2502 37.2364 58.2543 37.4945 58.2543C42.0011 58.2543 46.5036 58.2543 51.0102 58.2543C51.0634 58.2543 51.1208 58.2543 51.174 58.2584C51.2232 58.2624 51.2355 58.2911 51.215 58.3362C51.2068 58.3526 51.1986 58.369 51.1863 58.3854C50.9323 58.7582 50.6619 59.1187 50.326 59.4219C50.2604 59.4792 50.1908 59.5325 50.117 59.5776C50.0433 59.6226 49.9655 59.6472 49.8835 59.6431C49.8466 59.6431 49.8098 59.6431 49.7729 59.6431C46.5323 59.6431 43.2916 59.6431 40.051 59.6431C39.8297 59.6431 39.6085 59.6267 39.3914 59.68C39.2275 59.7168 39.0759 59.7783 38.9407 59.8766C38.8219 59.9627 38.7318 60.0733 38.6826 60.2085C38.49 60.7165 38.2852 61.2163 38.0558 61.7079C38.0476 61.7284 38.0394 61.7489 38.0312 61.7735C38.0189 61.8104 38.0353 61.839 38.0763 61.8431C38.1254 61.8472 38.1787 61.8472 38.2278 61.8472C41.3947 61.8472 44.5616 61.8472 47.7286 61.8472C47.7818 61.8472 47.8392 61.8472 47.8924 61.8513C47.9457 61.8554 47.9662 61.8841 47.9498 61.9333C47.9416 61.9538 47.9375 61.9783 47.9252 61.9988C47.7408 62.388 47.5278 62.7567 47.2123 63.0558C47.1181 63.146 47.0116 63.2197 46.901 63.2812C46.7535 63.3631 46.5937 63.3959 46.4257 63.3959C43.4637 63.3918 40.5057 63.3959 37.5437 63.3959C37.2733 63.3959 37.306 63.3713 37.2077 63.6212C36.8267 64.5676 36.4457 65.514 36.0647 66.4603C35.9991 66.6242 35.9991 66.6242 35.823 66.6242C35.36 66.6283 34.893 66.6283 34.43 66.6324C34.3727 66.6324 34.3112 66.6242 34.2538 66.6529C33.4959 66.6488 32.7339 66.6488 31.9678 66.6488Z" fill="#C60C30"/>
<path d="M43.8037 66.6488C43.8283 66.5956 43.8775 66.5669 43.9184 66.5341C45.6186 65.2231 47.3148 63.9121 49.015 62.6011C50.1047 61.7571 51.1945 60.9173 52.2884 60.0733C52.8783 59.6185 53.4683 59.1638 54.0542 58.7049C54.1771 58.6066 54.3082 58.5288 54.4557 58.4673C54.8162 58.3157 55.189 58.1969 55.5782 58.1355C55.8363 58.0986 56.0903 58.0904 56.3443 58.1478C56.7581 58.242 57.0531 58.4796 57.2252 58.8688C57.3645 59.1843 57.4915 59.5038 57.6103 59.8275C57.9585 60.7575 58.2822 61.6957 58.5935 62.638C58.9336 63.6622 59.2695 64.6905 59.6055 65.7147C59.6382 65.809 59.6628 65.9073 59.6833 66.0056C59.7079 66.1203 59.7038 66.235 59.6628 66.3457C59.6259 66.4522 59.5604 66.5382 59.4539 66.5915C59.4211 66.6079 59.3924 66.6283 59.3596 66.6488C56.7008 66.6488 54.046 66.6488 51.3871 66.6488C51.3789 66.6038 51.3748 66.5587 51.3666 66.5136C51.2847 66.108 51.1986 65.7024 51.1126 65.3009C51.0798 65.1412 51.0839 65.1412 51.2396 65.1248C51.4772 65.1002 51.7189 65.1084 51.9565 65.0961C52.4809 65.0715 53.0013 65.0469 53.5257 65.0224C53.8821 65.006 54.2426 64.9978 54.599 64.9855C54.6441 64.9855 54.6892 64.9773 54.7342 64.9732C54.8571 64.9527 54.8694 64.9445 54.8326 64.8216C54.5458 63.8384 54.2631 62.8551 53.9763 61.8718C53.9149 61.6547 53.751 61.5687 53.5298 61.6301C53.4068 61.6629 53.3003 61.7244 53.1979 61.7981C52.821 62.0767 52.44 62.3512 52.0631 62.6298C50.7971 63.568 49.5312 64.5061 48.2652 65.4443C47.7244 65.8458 47.1796 66.2514 46.6388 66.6529C45.6965 66.6488 44.7501 66.6488 43.8037 66.6488Z" fill="#C60C30"/>
<path d="M11.0041 64.9649C11.0246 64.928 11.041 64.8911 11.0451 64.8502C11.086 64.5224 11.2048 64.2192 11.3155 63.912C11.9177 62.265 12.5814 60.6467 13.2615 59.0367C13.3516 58.8236 13.4458 58.6147 13.5278 58.4016C13.5688 58.2951 13.6302 58.2582 13.7449 58.2582C15.0191 58.2623 16.2891 58.2582 17.5632 58.2623C17.7271 58.2623 17.7312 58.2705 17.6657 58.4221C17.3256 59.2169 16.9856 60.0117 16.6455 60.8024C16.2317 61.7652 15.8221 62.728 15.4083 63.6907C15.3345 63.8669 15.2936 64.0472 15.3017 64.2397C15.314 64.5101 15.4697 64.6904 15.7442 64.7354C15.863 64.7559 15.9818 64.7641 16.1006 64.7641C17.7722 64.7641 19.4478 64.7559 21.1193 64.7764C22.9793 64.801 24.8434 64.7887 26.7034 64.801C26.7567 64.801 26.814 64.8051 26.8673 64.8133C26.9124 64.8174 26.9287 64.8461 26.9124 64.8911C26.9083 64.9075 26.9001 64.9239 26.8919 64.9444C26.6788 65.4073 26.4535 65.8662 26.134 66.2677C26.011 66.4193 25.8717 66.5463 25.6997 66.6446C21.2668 66.6446 16.834 66.6446 12.4052 66.6446C12.225 66.5831 12.0365 66.5381 11.8644 66.452C11.4343 66.239 11.1393 65.9194 11.0451 65.436C11.0369 65.3868 11.0246 65.3377 11 65.2926C11.0041 65.1861 11.0041 65.0755 11.0041 64.9649Z" fill="#C60C30"/>
<path d="M27.1421 66.6487C27.2527 66.3127 27.392 65.985 27.519 65.6572C28.3466 63.5227 29.1742 61.3882 30.0017 59.2579C30.1164 58.9588 30.2353 58.6597 30.35 58.3565C30.4073 58.205 30.4114 58.205 30.5671 58.205C31.7839 58.205 33.0048 58.205 34.2215 58.205C34.3895 58.205 34.3936 58.2131 34.3321 58.3647C33.4759 60.5074 32.6155 62.6501 31.7593 64.7928C31.5299 65.3663 31.3004 65.9358 31.071 66.5053C31.0505 66.5503 31.03 66.5995 31.026 66.6487C29.7354 66.6487 28.4367 66.6487 27.1421 66.6487Z" fill="#C60C30"/>
</svg>
