<svg width="90" height="90" viewBox="0 0 90 90" fill="none" xmlns="http://www.w3.org/2000/svg">
<rect width="90" height="90" rx="10" fill="white"/>
<path d="M38.9821 68.8002H51.0827V71.1485H38.9821V68.8002ZM41.2364 76H48.8284V72.3601H41.2364V76ZM39.0495 62.2747C40.5394 63.6258 41.3323 65.5814 41.2001 67.5861H48.8284C48.7635 66.5994 48.9201 65.6106 49.2868 64.6919C49.6534 63.7731 50.2209 62.9473 50.9479 62.2747H39.0495ZM31.1413 56.6689V58.4333H58.8561V56.6689H31.1413ZM32.3799 64.6437C34.0638 64.2584 35.6179 63.4419 36.8885 62.2747H32.0664L32.3799 64.6437ZM57.6175 64.6437L57.931 62.2747H53.1115C54.3812 63.4398 55.9333 64.2587 57.6175 64.6437ZM35.1628 52.874C33.4417 47.259 31.4608 41.7265 29.2265 36.2942C30.8952 36.5577 32.5509 36.9064 34.1833 37.3404C30.9144 33.8372 27.1462 30.8325 23 28.4228C26.1767 34.5659 29.1617 43.8892 30.6827 52.874H35.1628ZM59.3277 52.874C60.8487 43.8892 63.8362 34.5659 67 28.4228C62.8609 30.8339 59.0999 33.8386 55.8374 37.3404C57.4698 36.9038 59.123 36.5551 60.7942 36.2942C58.5294 41.7151 56.5471 47.2491 54.8554 52.874H59.3277ZM29.6773 55.7725H60.3304V54.0184H29.6773V55.7725ZM42.9828 52.8172C43.7912 50.9055 44.4572 48.9422 44.978 46.9323C45.504 48.9396 46.1751 50.9055 46.9809 52.8172H52.2979C47.7816 45.403 46.5093 35.5992 46.2269 26.9838C46.2036 26.0977 46.5637 25.873 47.4188 26.2527L50.1473 27.4772C47.619 23.3341 45.8666 18.7676 44.9754 14C44.0886 18.7668 42.3406 23.3334 39.8164 27.4772L42.5423 26.2527C43.3974 25.8601 43.7265 26.0977 43.7265 26.9838C43.444 35.5424 42.1718 45.3487 37.6632 52.8172H42.9828ZM29.6773 61.0606H60.3304V59.3091H29.6773V61.0606Z" fill="#0C2340"/>
</svg>
