<svg width="90" height="90" viewBox="0 0 90 90" fill="none" xmlns="http://www.w3.org/2000/svg">
<rect width="90" height="90" rx="10" fill="white"/>
<path fill-rule="evenodd" clip-rule="evenodd" d="M41.7893 50.555H48.2107V52.1219H41.7893V50.555ZM42.5821 52.7486H47.4576V56H42.5821V52.7486ZM35.4472 43.2688H54.5924V44.0522H35.4472V43.2688ZM34.4167 44.7573H55.5833V45.5408H34.4167V44.7573ZM34.377 41.8194H55.5437V42.6028H34.377V41.8194ZM48.3296 47.2252C47.2594 48.1654 47.2594 49.889 47.2594 49.889H42.701C42.701 49.889 42.701 48.1654 41.6308 47.2252C40.8777 46.5593 39.966 46.4026 39.966 46.4026C39.3714 46.2851 39.3714 46.2067 39.3714 46.1676H50.5097C50.5097 46.1676 50.5097 46.2851 49.9151 46.4026C49.9944 46.4418 49.0827 46.5593 48.3296 47.2252ZM35.5265 46.2067H37.8255C37.8255 47.5386 36.9535 48.1654 35.5265 47.852V46.2067ZM43.6523 24.5049C44.564 22.7029 44.7622 20.0392 45 20C45.2378 20.0392 45.3964 22.7421 46.3081 24.5049C47.1801 26.1893 49.0431 27.6387 48.9242 27.7954C48.8052 27.9913 47.7747 27.482 47.2594 27.247C46.427 26.8553 45.7531 26.5811 45.7531 26.5811C45.7531 26.5811 45.436 30.8509 46.4666 34.8074C47.3386 38.0196 49.3998 40.9967 49.598 41.2318H46.9423L46.7044 40.84C45.991 39.5865 45.4757 38.5288 45 36.6485C44.4847 38.4897 43.9694 39.5865 43.2559 40.84L43.0181 41.2318H40.3624C40.5605 40.9576 42.6217 38.0196 43.4938 34.8074C44.564 30.8509 44.2072 26.5811 44.2072 26.5811C44.2072 26.5811 43.5334 26.8945 42.701 27.247C42.1857 27.482 41.1551 27.9913 41.0362 27.7954C40.9569 27.6387 42.8199 26.1893 43.6523 24.5049ZM35.4472 41.2318C35.4472 40.9184 35.2491 36.5702 34.2581 33.1621C33.1482 29.4407 30.8492 27.2078 31.0078 26.9728C31.1664 26.7769 33.0293 27.1295 34.4167 28.1088C35.9229 29.1273 37.3895 30.8118 37.2706 30.9293C37.1913 31.0076 36.7157 30.5767 35.7644 30.2633C34.813 29.9108 34.377 29.9891 34.377 29.9891C34.377 29.9891 36.0022 32.6137 36.7949 35.4733C37.4688 37.8629 37.8255 40.9576 37.8255 41.2318H35.4472ZM54.5527 41.2318C54.5527 40.9184 54.7113 36.5702 55.7419 33.1621C56.8517 29.4407 59.1508 27.2078 58.9922 26.9728C58.8733 26.7769 56.9707 27.1295 55.5833 28.1088C54.0771 29.1273 52.6105 30.8118 52.7294 30.9293C52.8087 31.0076 53.2843 30.5767 54.196 30.2633C55.187 29.9108 55.5833 29.9891 55.5833 29.9891C55.5833 29.9891 53.9582 32.6137 53.1654 35.4733C52.4916 37.8629 52.1348 40.9576 52.1348 41.2318H54.5527ZM54.4735 46.2067H52.1745C52.1745 47.5386 53.0465 48.1654 54.4735 47.852V46.2067Z" fill="#0C2340"/>
<path d="M63.1568 63.3639L62.1048 66.0709H64.1262L63.1568 63.3639ZM61.5272 67.5381C61.3622 67.9308 61.1766 68.4474 61.1766 68.8607C61.1766 69.274 61.5685 69.3566 61.8779 69.4186L62.3729 69.4599V69.8526H59.2995V69.4806C59.9183 69.3566 60.1658 69.212 60.434 68.654C60.5165 68.4887 60.599 68.282 60.6815 68.0341L60.8878 67.5175L62.8474 62.5579L62.6617 62.0207H64.0025L66.0446 67.5175L66.3952 68.468C66.4777 68.6747 66.6015 69.088 66.7871 69.2533C66.9315 69.3979 67.1584 69.4393 67.6328 69.4599V69.8526H63.92V69.4599C64.58 69.4393 65.0751 69.4186 65.0751 68.9846C65.0751 68.7367 64.9719 68.3647 64.8276 68.0547L64.6419 67.5175L64.3325 66.6082H61.8573L61.5272 67.5381ZM53.4208 62.6199C53.1526 62.6199 52.8639 62.6613 52.6988 62.6613V66.1949H53.4414C53.8127 66.1949 54.1634 66.1536 54.514 65.9883C54.9059 65.7816 55.236 65.3477 55.236 64.4591C55.236 63.0126 54.184 62.6199 53.4208 62.6199ZM52.6988 67.5381V68.3027C52.6988 69.2946 52.802 69.4806 53.5033 69.4806H54.0602V69.8732H50.1205V69.4806C51.2756 69.5219 51.3581 69.212 51.3581 68.53V63.6118C51.3581 62.8266 51.2343 62.8266 50.1205 62.7646V62.372C50.8837 62.2893 51.8944 62.186 53.2145 62.186C53.8127 62.186 56.618 62.186 56.618 64.3971C56.618 65.2857 56.2054 65.8436 55.4422 66.2156C55.2772 66.2982 55.1122 66.3396 54.9884 66.4016C55.1328 66.5462 55.2566 66.6702 55.3804 66.8355C55.4835 67.0008 55.6073 67.2075 55.7723 67.5588L56.0198 68.0961C56.5974 69.274 56.9068 69.5013 57.5462 69.6253V70.0179C56.4323 70.0592 55.5454 69.6459 54.8234 68.53C54.7203 68.3854 54.4934 67.9721 54.2665 67.5588C54.0602 67.1662 53.8333 66.7942 53.7508 66.6495H52.6988V67.5381ZM25.368 63.3639L24.316 66.0709H26.3375L25.368 63.3639ZM23.7384 67.5381C23.5941 67.9308 23.4084 68.4474 23.4084 68.8607C23.4084 69.274 23.7797 69.3566 24.1097 69.4186L24.5842 69.4599V69.8526H21.5314V69.4806C22.1708 69.3566 22.3977 69.212 22.6658 68.654L22.9134 68.0341L23.1196 67.5175L25.0998 62.5579L24.9142 62.0207H26.2549L28.297 67.5175L28.6477 68.468C28.7302 68.6747 28.854 69.088 29.0396 69.2533C29.2046 69.3979 29.4109 69.4393 29.9059 69.4599V69.8526H26.1518V69.4599C26.7913 69.4393 27.3069 69.4186 27.3069 68.9846C27.3069 68.7367 27.1832 68.3647 27.0594 68.0547L26.8738 67.5175L26.5437 66.6082H24.0891L23.7384 67.5381ZM81.6592 67.5381V68.344C81.6592 69.274 81.9068 69.4186 83 69.4806V69.8732H79.1015V69.4806C80.0297 69.4186 80.0503 69.3979 80.1535 69.212C80.3391 68.9227 80.3391 67.9927 80.3391 67.6208V63.7978C80.3391 62.8679 80.1535 62.7439 79.0396 62.6613V62.2686H82.9381V62.6613C81.6592 62.7026 81.6386 62.8886 81.6386 64.1491V67.5381H81.6592ZM73.2228 67.5381V68.4267C73.2228 68.9433 73.264 69.1706 73.4497 69.2946C73.5528 69.3566 73.6766 69.3979 73.8622 69.4186C74.0479 69.4393 74.2954 69.4599 74.6254 69.4599V69.8526H70.4381V69.4599C70.8094 69.4393 71.0569 69.4186 71.2426 69.4186C71.4282 69.3773 71.5726 69.3566 71.6551 69.2946C71.8201 69.1913 71.8614 68.964 71.8614 68.5094V62.7646H70.6031C70.1081 62.7646 69.9018 62.8059 69.778 62.8886C69.6749 62.9506 69.613 63.0332 69.5512 63.1985C69.4893 63.3639 69.4274 63.6118 69.283 64.0458H68.9117L69.0767 62.0413H69.3861C69.5099 62.248 69.613 62.2686 69.8193 62.2893H74.9761C75.533 62.2893 75.5949 62.248 75.6774 62.0413H75.9868L76.1724 64.0458H75.7805C75.5124 62.7853 75.2648 62.7646 74.6254 62.7646H73.2228V67.5381ZM43.1691 67.5381V68.6747C43.1691 69.3773 43.2104 69.3773 43.9117 69.3773H45.2318C45.995 69.3773 46.387 69.2533 46.717 67.9307H47.1295L46.9439 69.8319H40.5908V69.4393C41.7252 69.4806 41.8078 69.1706 41.8078 68.4887V63.5912C41.8078 62.7439 41.5809 62.5993 40.5908 62.6199V62.2686H46.6139L46.6964 64.0045H46.3045C46.0982 62.8472 45.83 62.7646 45.0049 62.7646H43.1485V65.7816H44.9843C45.6031 65.7816 45.7682 65.7816 45.8713 64.8517H46.2838V67.2282H45.8713C45.83 66.2776 45.7063 66.2363 44.8606 66.2363H43.1485V67.5381H43.1691ZM37.3523 67.5381C37.3729 67.6621 37.3936 67.8068 37.3936 67.9307C37.3936 69.088 36.4653 70.1212 35.0215 70.1212C34.7946 70.1212 34.6502 70.1005 34.4439 70.0799C34.2376 70.0385 33.9695 69.9559 33.5157 69.8319C33.4332 69.7906 33.3713 69.7906 33.3094 69.7906C33.165 69.7906 33.1238 69.8319 33.1238 69.9559H32.7525L32.5256 67.9927H32.9381C33.4538 69.4806 34.5264 69.6666 34.8771 69.6666C35.3515 69.6666 36.3003 69.3566 36.3003 68.3647C36.3003 68.0341 36.1972 67.7654 36.0116 67.5175C35.7021 67.1042 35.1452 66.7735 34.382 66.2982C32.835 65.3477 32.5462 64.6451 32.5462 63.9631C32.5462 62.8266 33.5776 62 34.6295 62C35.0421 62 35.4134 62.062 35.7434 62.186C35.8465 62.2273 36.1972 62.372 36.2591 62.372C36.3003 62.372 36.3622 62.3306 36.4653 62.2066H36.8366L37.0223 64.0251H36.6097C36.2384 63.0539 35.6403 62.4546 34.7946 62.4546C34.1345 62.4546 33.6394 62.9506 33.6394 63.5085C33.6394 63.8598 33.7426 64.0871 34.052 64.3764C34.217 64.5211 34.4439 64.7071 34.7327 64.893L35.8259 65.6163C36.1766 65.8436 36.5066 66.0709 36.7748 66.3809C37.0429 66.7115 37.2698 67.0835 37.3523 67.5381ZM10.0421 67.5381L9.95957 68.468C9.93894 68.5507 9.93894 68.7987 9.93894 68.9846C9.93894 69.4599 10.599 69.4599 11.0116 69.4599V69.8526H8V69.4599C9.2995 69.3979 9.2995 69.3359 9.40264 68.0134L9.44389 67.5175L9.77393 63.4465C9.81518 62.7233 9.69142 62.7233 8.70132 62.6613V62.2686H11.2591L13.5281 67.5175L13.6931 67.9101L13.8787 67.5175L16.1683 62.2686H18.6848V62.6613C18.3754 62.6613 18.1898 62.6613 18.0248 62.6819C17.8804 62.7233 17.7772 62.7439 17.7153 62.8059C17.5916 62.9299 17.571 63.1986 17.6122 63.7772L17.8597 67.5381L17.901 68.2201C17.9629 69.212 17.9835 69.5219 19.118 69.4806V69.8732H15.4257V69.4806C15.6939 69.4599 16.0858 69.4393 16.3333 69.3566C16.5396 69.274 16.6634 69.15 16.6634 68.8813C16.6634 68.778 16.6221 68.4267 16.6221 68.3234L16.5809 67.5588L16.3333 63.4259L14.5182 67.5588L13.5074 69.8939H13.1361L12.146 67.5588L10.3927 63.4259L10.0421 67.5381Z" fill="#0C2340"/>
</svg>
