<svg width="90" height="90" viewBox="0 0 90 90" fill="none" xmlns="http://www.w3.org/2000/svg">
<rect width="90" height="90" rx="10" fill="white"/>
<path d="M24.0804 41.1786V51.9996H19.3699V42.5336C19.3699 42.5336 19.1816 41.1604 17.7966 41.1604H15.3443V51.9996H10.7657V41.1604H6.62929V51.9996H2V37H19.1816C23.9848 37 24.0804 41.1786 24.0804 41.1786ZM41.0856 37H52.2741L47.1511 41.1599H41.0856V37ZM28.5904 42.6411H35.4182V41.9536C35.4182 41.9536 35.4182 40.9721 33.7764 40.9721H25.0822V37.0004H35.2147C40.4993 37.0004 39.9972 41.8821 39.9972 41.8821V48.6379L54.2396 37.0008H66.7737C72.4648 37.0008 73.1827 40.4348 73.1827 44.5825C73.1827 47.5498 72.7931 52 67.0994 52H56.727L56.7185 40.3405L42.3954 52L28.59 51.9962C27.9051 51.9962 24.0829 52.2416 24.0829 47.1665C24.0834 42.3386 27.9055 42.6411 28.5904 42.6411ZM61.479 47.8392H65.4657C68.0119 47.8392 68.5492 46.9715 68.5492 44.6151C68.5492 42.2519 68.0115 41.1604 65.4657 41.1604H61.479V47.8392ZM29.9928 48.2458H35.337L35.34 46.048H29.9962C29.5562 46.048 28.7008 46.048 28.7008 47.1187C28.7008 48.2047 29.5532 48.2458 29.9928 48.2458ZM55.375 47.8392V51.9996H44.3456L49.3577 47.8392H55.375ZM77.5806 42.6411H84.4118V41.9536C84.4118 41.9536 84.4118 40.9721 82.7666 40.9721H74.0728V37.0004H84.2083C89.4866 37.0004 88.9874 41.8821 88.9874 41.8821V51.9962H77.5802C76.8966 51.9962 73.0744 52.2416 73.0744 47.1665C73.0744 42.3386 76.897 42.6411 77.5806 42.6411ZM78.9838 48.2458H84.3255L84.3314 46.048H78.9872C78.5477 46.048 77.6898 46.048 77.6898 47.1187C77.6893 48.2047 78.5443 48.2458 78.9838 48.2458Z" fill="#A6192E"/>
</svg>
