<svg width="90" height="90" viewBox="0 0 90 90" fill="none" xmlns="http://www.w3.org/2000/svg">
<rect width="90" height="90" rx="10" fill="white"/>
<path d="M18.6313 50.9824H22.1982V44H20.1285C19.2539 44 18.665 44.3813 18.0589 44.8837C17.4029 45.4728 15.0304 47.5867 15.0304 47.5867V44.017H12.9274C11.7327 44.017 11.1269 44.4504 10.4707 44.9871C9.99963 45.3343 3 50.9829 3 50.9829H7.24003L11.4469 47.4133V50.9824H14.8626L18.6316 47.465L18.6313 50.9824ZM26.4217 50.9824H32.1929V49.1803H27.4645C27.0271 49.1803 26.5558 48.9034 26.5558 48.0197V47.8983C26.5558 47.1187 26.9429 46.7895 27.4476 46.7895H32.1926V44.9698H26.3035C23.8973 44.9698 22.9384 46.0443 22.9384 47.7078V48.2623C22.9384 50.2028 23.9815 50.9827 26.4211 50.9827L26.4217 50.9824ZM39.3102 50.9824V49.1459H36.5509V44.017H32.9668V51H39.3102V50.9824ZM46.2424 48.6435C46.2424 48.9898 46.1077 49.198 45.704 49.198H43.7691C43.4323 49.198 43.2136 49.0939 43.2136 48.834C43.2136 48.5568 43.3484 48.4007 43.7691 48.4007H46.2424V48.6435ZM49.8096 48.6435V47.3266C49.8096 45.8191 48.8505 44.9701 46.7977 44.9701H40.4038V46.7028H45.5356C46.0574 46.7028 46.2424 46.8762 46.2424 47.2919V47.3612H42.1537C40.4375 47.3612 39.8317 48.1062 39.8317 49.0766V49.2671C39.8243 49.4583 39.8549 49.6492 39.9214 49.8279C39.988 50.0067 40.0891 50.1696 40.2188 50.3068C40.7235 50.7919 41.6827 50.9477 42.9781 50.9477H46.5285C48.8505 50.9827 49.8096 50.4453 49.8096 48.6435ZM54.1673 46.7895H56.4053V44.9698H51.8287C51.0882 44.9698 50.6172 45.3687 50.6172 46.0443V50.9827H54.2009V46.7895H54.1673ZM63.4049 47.1187C63.4049 47.3786 63.2871 47.5344 62.8831 47.5344H60.3425V47.2919C60.3425 46.9453 60.4772 46.7374 60.8977 46.7374H62.8494C63.1692 46.7374 63.4049 46.8415 63.4049 47.1187ZM66.7869 46.98V46.7374C66.7869 45.7497 66.2482 44.9874 63.7412 44.9874H60.0564C57.7345 44.9874 56.7753 45.8017 56.7753 47.5691V48.6089C56.7753 50.1163 57.7344 50.9827 59.8041 50.9827H66.3492V49.2327H61.0496C60.5277 49.2327 60.3428 49.0769 60.3428 48.6609V48.6089H64.4483C65.8954 48.5912 66.7872 48.1062 66.7872 46.9803L66.7869 46.98ZM77 50.9827V47.6211C77 45.5245 76.0243 44.9701 73.1302 44.9701H67.4597V50.9824H71.0437V46.9279H72.0029C73.0797 46.9279 73.4331 47.5691 73.4331 48.2623V51H77V50.9827Z" fill="#FF6A13"/>
<path d="M84.2908 39C82.4897 39 79.9051 39.5755 77.1037 40.6728C74.6198 41.6528 72.2388 42.9127 70 44.4315C72.1471 43.5714 74.4136 43.1092 76.7036 43.0644C79.8717 43.0644 82.1729 44.3778 78.8212 49C88.7096 42.0398 88.4261 39 84.2908 39Z" fill="#FF6A13"/>
</svg>
