<svg width="90" height="90" viewBox="0 0 90 90" fill="none" xmlns="http://www.w3.org/2000/svg">
<rect width="90" height="90" rx="10" fill="white"/>
<g filter="url(#filter0_i_947_1742)">
<path d="M68.7458 43.5552C79.6247 36.5143 94.2496 36.2872 77.1856 47.6632L77.4555 47.3011C82.2844 40.6651 72.4456 42.1562 68.9696 43.463L68.7458 43.5552ZM28.933 48.5684H33.5381V50.3755H28.2089C25.9508 50.3755 24.96 49.6974 24.96 47.8936V47.4887C24.96 45.9548 25.8619 44.9607 28.12 44.9607H33.5381V46.7679H28.933C28.7177 46.7687 28.5114 46.8547 28.3591 47.007C28.2068 47.1592 28.1209 47.3655 28.12 47.5809V47.808C28.1326 48.0147 28.2239 48.2087 28.3751 48.3501C28.5264 48.4915 28.726 48.5696 28.933 48.5684ZM37.6 44.0522V48.5651H40.309V50.3722H33.989V44.0522H37.6ZM20.4899 44.8653C21.1186 44.3584 21.8955 44.072 22.7019 44.0522H24.509V50.3722H20.8948V47.2122L17.4188 50.3722H14.1238V47.2122L10.1047 50.3722H6L13.1758 44.9542C13.8539 44.4571 14.3049 44.0522 15.4767 44.0522H17.7348V47.2122L20.4899 44.8653ZM51.1419 45.5434C51.1414 45.399 51.1709 45.256 51.2287 45.1237C51.2864 44.9913 51.3711 44.8724 51.4773 44.7746C51.5835 44.6767 51.7089 44.6021 51.8456 44.5553C51.9822 44.5086 52.1271 44.4909 52.271 44.5032H56.56V46.3103H54.3019V50.3722H51.1419V45.5434ZM72.3106 44.5032C75.0197 44.5032 75.9677 45.0891 75.9677 47.0773V50.3722H72.8077V48.1142C72.8077 47.9365 72.7727 47.7606 72.7047 47.5964C72.6367 47.4323 72.537 47.2832 72.4114 47.1575C72.2858 47.0319 72.1367 46.9323 71.9725 46.8643C71.8084 46.7963 71.6325 46.7613 71.4548 46.7613H70.1019V50.3722H66.9419V44.5032H72.3106ZM47.6659 44.5032C49.743 44.5032 50.691 45.3623 50.691 46.8041V48.1569C50.691 49.8258 49.743 50.3689 47.4421 50.3689H43.8772C42.5671 50.3689 41.6191 50.234 41.1221 49.783C40.885 49.4897 40.7571 49.1233 40.76 48.7462V48.519C40.76 47.6171 41.3031 46.758 43.0181 46.758H47.08C47.08 46.3531 47.1261 46.307 46.629 46.307H41.211V44.4999H47.6659V44.5032ZM47.0767 48.3413V48.1142H44.5948C44.5412 48.1233 44.4925 48.1511 44.4575 48.1927C44.4224 48.2343 44.4032 48.2869 44.4032 48.3413C44.4032 48.3957 44.4224 48.4483 44.4575 48.4899C44.4925 48.5314 44.5412 48.5592 44.5948 48.5684H46.8529C46.8826 48.5684 46.9119 48.5625 46.9393 48.5511C46.9667 48.5396 46.9915 48.5228 47.0123 48.5017C47.0332 48.4806 47.0496 48.4555 47.0606 48.428C47.0717 48.4004 47.0771 48.371 47.0767 48.3413ZM63.6009 44.5032C65.9939 44.5032 66.491 45.2241 66.491 46.2182V46.4453C66.491 47.5282 65.6318 48.1142 64.2329 48.1142H60.171C60.171 48.519 60.5758 48.5651 61.0729 48.5651H66.0367V50.3722H59.8517C57.9096 50.3722 57.0077 49.5592 57.0077 48.0714V47.0345C57.0077 45.3195 57.9557 44.5065 60.1216 44.5065L63.6009 44.5032ZM63.1038 46.7613C63.1574 46.7521 63.2061 46.7243 63.2411 46.6827C63.2762 46.6412 63.2954 46.5885 63.2954 46.5342C63.2954 46.4798 63.2762 46.4271 63.2411 46.3856C63.2061 46.344 63.1574 46.3162 63.1038 46.307H60.3948C60.3348 46.3079 60.2775 46.3321 60.2351 46.3745C60.1927 46.4169 60.1685 46.4742 60.1677 46.5342V46.7613H63.1038Z" fill="#FF0000"/>
</g>
<defs>
<filter id="filter0_i_947_1742" x="6" y="5" width="79" height="83" filterUnits="userSpaceOnUse" color-interpolation-filters="sRGB">
<feFlood flood-opacity="0" result="BackgroundImageFix"/>
<feBlend mode="normal" in="SourceGraphic" in2="BackgroundImageFix" result="shape"/>
<feColorMatrix in="SourceAlpha" type="matrix" values="0 0 0 0 0 0 0 0 0 0 0 0 0 0 0 0 0 0 127 0" result="hardAlpha"/>
<feOffset dy="4"/>
<feGaussianBlur stdDeviation="2"/>
<feComposite in2="hardAlpha" operator="arithmetic" k2="-1" k3="1"/>
<feColorMatrix type="matrix" values="0 0 0 0 0 0 0 0 0 0 0 0 0 0 0 0 0 0 0.4 0"/>
<feBlend mode="normal" in2="shape" result="effect1_innerShadow_947_1742"/>
</filter>
</defs>
</svg>
