<svg width="90" height="90" viewBox="0 0 90 90" fill="none" xmlns="http://www.w3.org/2000/svg">
<rect width="90" height="90" rx="10" fill="white"/>
<path d="M6 35.8099H30.558C32.118 33.3756 34.1681 31.4458 36.7118 30.0158C39.254 28.588 42.0139 27.874 44.9942 27.874C47.9721 27.874 50.7379 28.59 53.2901 30.0239C55.842 31.4578 57.8902 33.3876 59.43 35.8099H84L81.568 38.2418H60.77C61.1987 39.166 61.5246 40.1345 61.7417 41.1298H78.7499L76.318 43.564H62.1181C62.16 44.1919 62.1798 44.6677 62.1798 44.9918C62.1798 45.3158 62.16 45.7939 62.1181 46.4218H73.4619L71.028 48.8537H61.7421C61.5296 49.846 61.2035 50.8104 60.7703 51.728H68.1283L65.6642 54.16H59.43C57.8902 56.5858 55.842 58.5218 53.2901 59.9639C50.7379 61.4059 47.9721 62.1258 44.9942 62.1258C42.0139 62.1258 39.254 61.4078 36.7118 59.972C34.1681 58.5339 32.118 56.5959 30.558 54.16H24.3358L21.9178 51.728H29.2619C28.8327 50.8097 28.51 49.8454 28.2999 48.8537H19.0201L16.556 46.4218H27.8979C27.8559 45.7939 27.8361 45.3158 27.8361 44.9918C27.8361 44.6677 27.8559 44.1919 27.8979 43.564H13.7278L11.264 41.1298H28.2999C28.5146 40.135 28.8372 39.1667 29.2619 38.2418H8.43198L6 35.8099ZM31.492 39.2919C30.7179 41.1057 30.3301 43.006 30.3301 44.9918C30.3301 46.9778 30.7179 48.8797 31.492 50.6939C32.2659 52.5058 33.3101 54.0719 34.6218 55.3879C35.9341 56.7041 37.4941 57.75 39.3018 58.528C41.1101 59.3057 43.0081 59.6938 44.9942 59.6938C46.978 59.6938 48.8779 59.3057 50.6921 58.528C52.5039 57.75 54.0681 56.7038 55.3798 55.3879C56.6919 54.0716 57.7361 52.5058 58.5181 50.6939C59.2981 48.8797 59.688 46.9778 59.688 44.9918C59.688 43.006 59.2981 41.1057 58.5181 39.2919C57.7361 37.4778 56.6919 35.9158 55.3798 34.6038C54.0681 33.294 52.5039 32.2498 50.6921 31.4718C48.8779 30.694 46.978 30.306 44.9942 30.306C43.0081 30.306 41.1101 30.694 39.3021 31.4718C37.4941 32.2498 35.9341 33.294 34.6221 34.6038C33.3101 35.9158 32.2659 37.4778 31.492 39.2919ZM33.2919 48.8537H34.8119L34.768 43.0918L36.6078 48.8541L38.2979 48.8437L40.1039 43.1217V48.8537H41.726V41.1298L39.4418 41.1278L37.4821 47.2879L35.484 41.1356L33.2919 41.1298V48.8537ZM43.4741 48.8537H45.0839V41.1298H43.4741V48.8537ZM46.832 48.8537H48.3823V43.2897L51.4659 48.8537H53.3359V41.1298H51.8159V46.726L48.732 41.1298H46.832V48.8537ZM55.114 48.8537H56.6941V41.1298H55.114V48.8537Z" fill="black"/>
</svg>
