<svg width="90" height="90" viewBox="0 0 90 90" fill="none" xmlns="http://www.w3.org/2000/svg">
<rect width="90" height="90" rx="10" fill="white"/>
<path d="M6 35.81H30.558C32.118 33.3757 34.1681 31.4459 36.7118 30.0159C39.254 28.5882 42.0139 27.8741 44.9942 27.8741C47.9721 27.8741 50.7379 28.5901 53.2901 30.024C55.842 31.4579 57.8902 33.3878 59.43 35.81H84L81.568 38.242H60.77C61.1987 39.1661 61.5246 40.1346 61.7417 41.1299H78.7499L76.318 43.5642H62.1181C62.16 44.1921 62.1798 44.6679 62.1798 44.9919C62.1798 45.3159 62.16 45.794 62.1181 46.4219H73.4619L71.028 48.8539H61.7421C61.5296 49.8461 61.2035 50.8106 60.7703 51.7282H68.1283L65.6642 54.1601H59.43C57.8902 56.5859 55.842 58.522 53.2901 59.964C50.7379 61.406 47.9721 62.1259 44.9942 62.1259C42.0139 62.1259 39.254 61.408 36.7118 59.9721C34.1681 58.534 32.118 56.596 30.558 54.1601H24.3358L21.9178 51.7282H29.2619C28.8327 50.8099 28.51 49.8455 28.2999 48.8539H19.0201L16.556 46.4219H27.8979C27.8559 45.794 27.8361 45.3159 27.8361 44.9919C27.8361 44.6679 27.8559 44.1921 27.8979 43.5642H13.7278L11.264 41.1299H28.2999C28.5146 40.1352 28.8372 39.1668 29.2619 38.242H8.43198L6 35.81ZM31.492 39.292C30.7179 41.1059 30.3301 43.0061 30.3301 44.9919C30.3301 46.978 30.7179 48.8799 31.492 50.694C32.2659 52.5059 33.3101 54.0721 34.6218 55.388C35.9341 56.7042 37.4941 57.7501 39.3018 58.5281C41.1101 59.3059 43.0081 59.6939 44.9942 59.6939C46.978 59.6939 48.8779 59.3059 50.6921 58.5281C52.5039 57.7501 54.0681 56.7039 55.3798 55.388C56.6919 54.0717 57.7361 52.5059 58.5181 50.694C59.2981 48.8799 59.688 46.978 59.688 44.9919C59.688 43.0061 59.2981 41.1059 58.5181 39.292C57.7361 37.4779 56.6919 35.9159 55.3798 34.6039C54.0681 33.2942 52.5039 32.2499 50.6921 31.4719C48.8779 30.6942 46.978 30.3061 44.9942 30.3061C43.0081 30.3061 41.1101 30.6942 39.3021 31.4719C37.4941 32.2499 35.9341 33.2942 34.6221 34.6039C33.3101 35.9159 32.2659 37.4779 31.492 39.292ZM33.2919 48.8539H34.8119L34.768 43.0919L36.6078 48.8542L38.2979 48.8438L40.1039 43.1218V48.8539H41.726V41.1299L39.4418 41.128L37.4821 47.288L35.484 41.1358L33.2919 41.1299V48.8539ZM43.4741 48.8539H45.0839V41.1299H43.4741V48.8539ZM46.832 48.8539H48.3823V43.2899L51.4659 48.8539H53.3359V41.1299H51.8159V46.7261L48.732 41.1299H46.832V48.8539ZM55.114 48.8539H56.6941V41.1299H55.114V48.8539Z" fill="black"/>
</svg>
