<svg width="90" height="90" viewBox="0 0 90 90" fill="none" xmlns="http://www.w3.org/2000/svg">
<rect width="90" height="90" rx="10" fill="white"/>
<path d="M68.7267 52.9467L68.6996 53.022C65.3223 62.8189 56.011 69.3887 45.5135 69.3887C35.016 69.3887 25.6885 62.8055 22.3248 53.0113L22.2977 52.9333H14.9229V53.818L17.9915 54.1757C19.8873 54.3908 20.2854 55.2245 20.8027 56.2733L20.9327 56.5315C25.369 65.9304 35.0269 72 45.5244 72C56.0246 72 65.6825 65.9304 70.1187 56.5449L70.2487 56.2894C70.7633 55.2406 71.1642 54.407 73.06 54.1891L76.1312 53.8288V52.9467H68.7267ZM22.3248 36.9645C25.7021 27.1676 35.016 20.5871 45.5135 20.5871C56.011 20.5871 65.3358 27.1676 68.7023 36.9645L68.7294 37.0398H76.1177V36.1578L73.0465 35.8001C71.1506 35.5823 70.7525 34.7513 70.2352 33.6998L70.1079 33.4416C65.6717 24.0696 56.0083 18 45.5135 18C35.0025 18 25.3554 24.0696 20.9192 33.4685L20.7892 33.724C20.2746 34.7728 19.8737 35.6065 17.9779 35.8243L14.9094 36.182V37.0667H22.2869L22.3248 36.9645ZM59.8677 41.2297L55.1471 48.7461H57.1837L58.0233 47.4015H63.5294L64.369 48.7461H66.3921L61.6715 41.2297H59.8677ZM62.6654 45.9789H58.8873L60.7831 42.9562L62.6654 45.9789ZM70.2758 43.1122L75.8848 48.7461H78V41.2297H76.3371V46.8368L70.7525 41.2297H68.5994V48.7461H70.2758V43.1122ZM13 48.7461H14.6765V43.1122L20.299 48.7461H22.4142V41.2297H20.7377V46.8368L15.1531 41.2297H13V48.7461ZM26.1165 41.2297H27.7929V48.7461H26.1137L26.1165 41.2297ZM38.266 47.1568C38.2119 47.1702 38.006 47.1702 37.9302 47.1702H31.2623V48.7085H38.0331C38.0846 48.7085 38.4854 48.7085 38.5612 48.695C39.9425 48.5659 40.5735 47.4257 40.5735 46.428C40.5735 45.4034 39.9154 44.3035 38.6642 44.1878C38.4204 44.161 38.2146 44.161 38.1225 44.161H33.6998C33.5355 44.1662 33.3711 44.1536 33.2096 44.1233C32.8602 44.0319 32.7329 43.7253 32.7329 43.4698C32.7329 43.2385 32.8602 42.932 33.2204 42.8298C33.3735 42.7976 33.53 42.785 33.6862 42.7921H40.0698V41.2808H33.5833C33.3125 41.2808 33.1067 41.2915 32.9387 41.3184C32.4104 41.383 31.9251 41.6404 31.5772 42.0405C31.2294 42.4406 31.0437 42.9548 31.0565 43.4833C31.0565 44.4057 31.636 45.4814 32.9117 45.6616C33.1446 45.6858 33.4669 45.6858 33.6104 45.6858H37.9167C37.9952 45.6858 38.1875 45.6858 38.2254 45.6992C38.7156 45.7611 38.8835 46.1214 38.8835 46.4414C38.8877 46.6153 38.8269 46.7846 38.7129 46.9167C38.5989 47.0487 38.4397 47.1342 38.266 47.1568ZM50.8787 47.1568C50.8246 47.1702 50.6188 47.1702 50.5294 47.1702H43.875V48.7085H50.6458C50.6973 48.7085 51.0981 48.7085 51.174 48.695C52.5552 48.5659 53.1862 47.4257 53.1862 46.428C53.1862 45.4034 52.5281 44.3035 51.2769 44.1878C51.0331 44.161 50.8273 44.161 50.7352 44.161H46.3125C46.1482 44.1662 45.9838 44.1536 45.8223 44.1233C45.4729 44.0319 45.3456 43.7253 45.3456 43.4698C45.3456 43.2385 45.4729 42.932 45.8331 42.8298C45.9862 42.7976 46.1427 42.785 46.299 42.7921H52.6825V41.2808H46.196C45.9252 41.2808 45.7194 41.2915 45.5515 41.3184C45.0231 41.383 44.5378 41.6404 44.1899 42.0405C43.8421 42.4406 43.6564 42.9548 43.6692 43.4833C43.6692 44.4057 44.2487 45.4814 45.5271 45.6616C45.7573 45.6858 46.0796 45.6858 46.2231 45.6858H50.5294C50.6079 45.6858 50.8002 45.6858 50.8381 45.6992C51.3283 45.7611 51.4962 46.1214 51.4962 46.4414C51.4975 46.6146 51.4356 46.7823 51.3222 46.9137C51.2087 47.0452 51.0512 47.1315 50.8787 47.1568Z" fill="#C3002F"/>
</svg>
