<svg width="90" height="90" viewBox="0 0 90 90" fill="none" xmlns="http://www.w3.org/2000/svg">
<rect width="90" height="90" rx="10" fill="white"/>
<path d="M73.5867 54.7126L73.5533 54.8047C69.3967 66.7787 57.9367 74.8085 45.0167 74.8085C32.0967 74.8085 20.6167 66.7622 16.4767 54.7915L16.4433 54.6962H7.36667V55.7776L11.1433 56.2147C13.4767 56.4777 13.9667 57.4966 14.6033 58.7785L14.7633 59.094C20.2233 70.5816 32.11 78 45.03 78C57.9533 78 69.84 70.5816 75.3 59.1105L75.46 58.7982C76.0933 57.5163 76.5867 56.4974 78.92 56.2312L82.7 55.7907V54.7126H73.5867ZM16.4767 35.1789C20.6333 23.2049 32.0967 15.162 45.0167 15.162C57.9367 15.162 69.4133 23.2049 73.5567 35.1789L73.59 35.2709H82.6833V34.1928L78.9033 33.7557C76.57 33.4894 76.08 32.4738 75.4433 31.1886L75.2867 30.8731C69.8267 19.4184 57.9333 12 45.0167 12C32.08 12 20.2067 19.4184 14.7467 30.906L14.5867 31.2182C13.9533 32.5001 13.46 33.519 11.1267 33.7853L7.35 34.2224V35.3038H16.43L16.4767 35.1789ZM62.6833 40.3918L56.8733 49.5786H59.38L60.4133 47.9352H67.19L68.2233 49.5786H70.7133L64.9033 40.3918H62.6833ZM66.1267 46.1964H61.4767L63.81 42.502L66.1267 46.1964ZM75.4933 42.6926L82.3967 49.5786H85V40.3918H82.9533V47.2449L76.08 40.3918H73.43V49.5786H75.4933V42.6926ZM5 49.5786H7.06333V42.6926L13.9833 49.5786H16.5867V40.3918H14.5233V47.2449L7.65 40.3918H5V49.5786ZM21.1433 40.3918H23.2067V49.5786H21.14L21.1433 40.3918ZM36.0967 47.6361C36.03 47.6525 35.7767 47.6525 35.6833 47.6525H27.4767V49.5326H35.81C35.8733 49.5326 36.3667 49.5326 36.46 49.5161C38.16 49.3584 38.9367 47.9647 38.9367 46.7453C38.9367 45.493 38.1267 44.1487 36.5867 44.0074C36.2867 43.9745 36.0333 43.9745 35.92 43.9745H30.4767C30.2745 43.981 30.0721 43.9655 29.8733 43.9285C29.4433 43.8167 29.2867 43.442 29.2867 43.1298C29.2867 42.8471 29.4433 42.4724 29.8867 42.3475C30.075 42.3082 30.2677 42.2928 30.46 42.3015H38.3167V40.4543H30.3333C30 40.4543 29.7467 40.4674 29.54 40.5003C28.8897 40.5792 28.2925 40.8938 27.8643 41.3828C27.4361 41.8718 27.2077 42.5003 27.2233 43.1462C27.2233 44.2736 27.9367 45.5883 29.5067 45.8086C29.7933 45.8381 30.19 45.8381 30.3667 45.8381H35.6667C35.7633 45.8381 36 45.8381 36.0467 45.8546C36.65 45.9302 36.8567 46.3706 36.8567 46.7617C36.8618 46.9743 36.787 47.1812 36.6467 47.3426C36.5064 47.504 36.3105 47.6085 36.0967 47.6361ZM51.62 47.6361C51.5533 47.6525 51.3 47.6525 51.19 47.6525H43V49.5326H51.3333C51.3967 49.5326 51.89 49.5326 51.9833 49.5161C53.6833 49.3584 54.46 47.9647 54.46 46.7453C54.46 45.493 53.65 44.1487 52.11 44.0074C51.81 43.9745 51.5567 43.9745 51.4433 43.9745H46C45.7978 43.981 45.5955 43.9655 45.3967 43.9285C44.9667 43.8167 44.81 43.442 44.81 43.1298C44.81 42.8471 44.9667 42.4724 45.41 42.3475C45.5984 42.3082 45.791 42.2928 45.9833 42.3015H53.84V40.4543H45.8567C45.5233 40.4543 45.27 40.4674 45.0633 40.5003C44.4131 40.5792 43.8158 40.8938 43.3876 41.3828C42.9595 41.8718 42.731 42.5003 42.7467 43.1462C42.7467 44.2736 43.46 45.5883 45.0333 45.8086C45.3167 45.8381 45.7133 45.8381 45.89 45.8381H51.19C51.2867 45.8381 51.5233 45.8381 51.57 45.8546C52.1733 45.9302 52.38 46.3706 52.38 46.7617C52.3815 46.9733 52.3054 47.1783 52.1658 47.339C52.0261 47.4997 51.8323 47.6052 51.62 47.6361Z" fill="#C3002F"/>
</svg>
