<svg width="90" height="90" viewBox="0 0 90 90" fill="none" xmlns="http://www.w3.org/2000/svg">
<rect width="90" height="90" rx="10" fill="white"/>
<g filter="url(#filter0_i_950_1498)">
<path d="M45.9943 19.6142C40.5338 19.4009 35.1494 20.9481 30.6353 24.0277C26.1211 27.1073 22.7162 31.5561 20.9228 36.718H22.8634C24.5545 32.2088 27.5811 28.3228 31.539 25.5792C35.497 22.8356 40.1978 21.3649 45.0137 21.3635C48.12 21.3635 51.196 21.9754 54.0658 23.1644C56.9356 24.3534 59.5431 26.096 61.7393 28.2929C63.9355 30.4897 65.6774 33.0977 66.8655 35.9679C68.0537 38.838 68.6647 41.9141 68.6638 45.0205C68.6638 45.4168 68.6638 45.82 68.6297 46.2197L70.4507 46.4213C70.4507 45.9635 70.4849 45.4886 70.4849 45.0547C70.4776 38.4724 67.9241 32.1481 63.3591 27.406C58.7941 22.664 52.5715 19.8718 45.9943 19.6142ZM6.96908 38.5527L4 40.1005L49.2708 45.0205L61.6733 38.5527H6.96908ZM19.5493 43.6197V45.0205C19.5753 51.0277 21.7222 56.8327 25.6113 61.4112C29.5004 65.9896 34.8816 69.0473 40.8055 70.0447C46.7294 71.0421 52.8152 69.9151 57.9891 66.8626C63.163 63.81 67.0924 59.0281 69.0841 53.3606H67.1366C65.4441 57.8615 62.4202 61.7398 58.4679 64.4787C54.5155 67.2176 49.8223 68.687 45.0137 68.6912C38.7406 68.6839 32.7268 66.1869 28.2936 61.7485C23.8604 57.3102 21.3703 51.2936 21.3703 45.0205V43.8178L19.5493 43.6197ZM40.7087 45.0342L28.3062 51.519H83.0104L85.9932 49.9712V49.9507L40.7087 45.0307V45.0342ZM85.9932 49.9507L86 49.9542L85.9932 49.9302V49.9507Z" fill="#F7FF14"/>
</g>
<defs>
<filter id="filter0_i_950_1498" x="4" y="4" width="82" height="86" filterUnits="userSpaceOnUse" color-interpolation-filters="sRGB">
<feFlood flood-opacity="0" result="BackgroundImageFix"/>
<feBlend mode="normal" in="SourceGraphic" in2="BackgroundImageFix" result="shape"/>
<feColorMatrix in="SourceAlpha" type="matrix" values="0 0 0 0 0 0 0 0 0 0 0 0 0 0 0 0 0 0 127 0" result="hardAlpha"/>
<feOffset dy="4"/>
<feGaussianBlur stdDeviation="2"/>
<feComposite in2="hardAlpha" operator="arithmetic" k2="-1" k3="1"/>
<feColorMatrix type="matrix" values="0 0 0 0 0 0 0 0 0 0 0 0 0 0 0 0 0 0 0.4 0"/>
<feBlend mode="normal" in2="shape" result="effect1_innerShadow_950_1498"/>
</filter>
</defs>
</svg>
