<svg width="90" height="90" viewBox="0 0 90 90" fill="none" xmlns="http://www.w3.org/2000/svg">
<rect width="90" height="90" rx="10" fill="white"/>
<path d="M87.9414 44.6726C87.8945 44.5436 87.8268 44.4239 87.7412 44.3186C87.6424 44.1977 87.5294 44.09 87.405 43.9981C87.2797 43.9038 87.1484 43.8184 87.0121 43.7424C86.7677 43.6093 86.5161 43.4911 86.2584 43.3884C85.9128 43.2508 85.5596 43.1347 85.2044 43.0285C84.7445 42.8917 84.2809 42.7685 83.8142 42.6588C83.2475 42.527 82.6782 42.4077 82.1067 42.3009C81.2254 42.1367 80.3413 41.9898 79.4547 41.8604C77.8382 41.6261 76.2171 41.4267 74.5927 41.2625C72.6377 41.058 70.6827 40.8967 68.7239 40.7551C66.6224 40.6063 64.5192 40.4824 62.415 40.3835C60.1869 40.2786 57.9579 40.1966 55.7283 40.1376C49.1121 39.9595 42.4926 39.9543 35.8761 40.1219C33.6472 40.1789 31.4183 40.2556 29.1932 40.3579C27.0701 40.4523 24.9489 40.5703 22.8277 40.7178C20.901 40.8495 18.9781 41.0069 17.0552 41.1957C16.1807 41.2842 15.308 41.3766 14.4353 41.4789C13.642 41.5733 12.8487 41.6755 12.0553 41.7856C11.3316 41.887 10.6094 41.9991 9.88878 42.1219C9.27867 42.2262 8.66856 42.3383 8.06222 42.4661C7.556 42.5723 7.05167 42.6883 6.55111 42.8161C6.12044 42.9282 5.69544 43.0521 5.27422 43.1937C4.94556 43.3058 4.62067 43.4297 4.30711 43.5792C4.13436 43.6594 3.96655 43.7507 3.80467 43.8525C3.68945 43.9245 3.57958 44.0053 3.476 44.0944C3.3543 44.1969 3.24853 44.3183 3.16244 44.4543C3.05986 44.6162 3.00353 44.8051 3 44.9991C3 45.1112 3.02267 45.2233 3.05856 45.3295C3.10389 45.4573 3.17189 45.5753 3.25689 45.6834C3.35642 45.8039 3.47001 45.9109 3.595 46.002C3.71967 46.0984 3.85189 46.181 3.986 46.2577C4.22926 46.3946 4.48178 46.5129 4.74156 46.6117C5.08533 46.7493 5.44044 46.8654 5.79556 46.9716C6.25456 47.1092 6.71733 47.2312 7.18389 47.3413C7.75056 47.475 8.321 47.591 8.89144 47.6992C9.77356 47.8644 10.6576 48.0099 11.5434 48.1397C13.1603 48.3796 14.7829 48.5724 16.4054 48.7376C18.3604 48.9401 20.3154 49.1053 22.2761 49.2449C24.3766 49.3944 26.4808 49.5163 28.585 49.6186C30.8139 49.7228 33.0409 49.8035 35.2698 49.8644C41.886 50.0405 48.5055 50.0451 55.122 49.8782C57.3528 49.8231 59.5798 49.7464 61.8087 49.6442C63.9299 49.5478 66.0511 49.4298 68.1704 49.2843C70.0971 49.1506 72.0238 48.9952 73.9448 48.8044C74.8193 48.7179 75.692 48.6235 76.5647 48.5212C77.358 48.4268 78.1513 48.3265 78.9447 48.2144C79.6681 48.1122 80.3916 48.0021 81.1112 47.8801C81.7213 47.7739 82.3314 47.6618 82.9378 47.534C83.444 47.4298 83.9483 47.3137 84.4489 47.184C84.8796 47.0719 85.3064 46.948 85.7258 46.8064C86.0544 46.6962 86.3793 46.5704 86.6929 46.4229C86.8648 46.3403 87.0348 46.2518 87.1953 46.1476C87.3106 46.0768 87.422 45.9961 87.524 45.9057C87.6461 45.8031 87.7525 45.6818 87.8394 45.5458C87.9409 45.3834 87.9965 45.1947 88 45.001C87.9995 44.889 87.9785 44.7778 87.9414 44.6726ZM86.3472 46.0886C85.0741 46.6471 83.7557 46.9165 82.4146 47.182C80.2008 47.6205 77.9757 47.9136 75.7373 48.1653C72.785 48.4937 69.8289 48.7297 66.8671 48.9185C59.746 49.3728 52.6306 49.5498 45.5 49.5498C38.3638 49.5498 31.2427 49.3728 24.1178 48.9185C21.1541 48.7277 18.1999 48.4917 15.2532 48.1633C13.0163 47.9293 10.7894 47.6012 8.57789 47.18C7.24056 46.9165 5.92211 46.6471 4.649 46.0886C4.28822 45.9293 3.43067 45.591 3.43067 45.001C3.43067 44.4111 4.28822 44.0708 4.65089 43.9135C5.924 43.353 7.24433 43.0836 8.58356 42.8181C10.7963 42.3973 13.0245 42.0699 15.2627 41.8368C18.2131 41.5103 21.1711 41.2704 24.131 41.0816C31.2502 40.6293 38.3657 40.4523 45.4962 40.4523C52.6324 40.4523 59.7554 40.6293 66.8784 41.0816C69.8402 41.2724 72.7944 41.5084 75.743 41.8387C77.9794 42.0885 80.2046 42.3815 82.4164 42.8201C83.7557 43.0856 85.0722 43.355 86.3453 43.9135C86.708 44.0708 87.5637 44.4111 87.5637 45.001C87.5637 45.591 86.7061 45.9293 86.3434 46.0886" fill="#98AFC7"/>
<path d="M74 43.0009H72.9862V47H74V43.0009ZM23.7185 43.0009H18V47H19.0138V46.137H23.7185C23.9498 46.144 24.1803 46.1086 24.3963 46.0329C24.6122 45.9573 24.8093 45.8429 24.9756 45.6966C25.142 45.5503 25.2743 45.3751 25.3646 45.1813C25.4549 44.9876 25.5015 44.7793 25.5015 44.5689C25.5015 44.3585 25.4549 44.1503 25.3646 43.9565C25.2743 43.7628 25.142 43.5876 24.9756 43.4413C24.8093 43.295 24.6122 43.1806 24.3963 43.1049C24.1803 43.0293 23.9498 42.9939 23.7185 43.0009ZM23.7185 45.2153H19.0138V43.9243H23.7185C23.9068 43.9243 24.0874 43.9923 24.2206 44.1133C24.3537 44.2344 24.4285 44.3986 24.4285 44.5698C24.4285 44.741 24.3537 44.9052 24.2206 45.0262C24.0874 45.1473 23.9068 45.2153 23.7185 45.2153ZM63.3244 43.9674L67.4291 46.7411C67.6155 46.8677 67.837 46.9446 68.0688 46.9632C68.3007 46.9818 68.5336 46.9414 68.7415 46.8464C68.9495 46.7514 69.1242 46.6057 69.2462 46.4255C69.3681 46.2454 69.4325 46.0379 69.4321 45.8263V43.0009H68.4182V45.8971C68.4182 45.9782 68.386 46.0231 68.3062 46.0593C68.2265 46.0956 68.1676 46.0921 68.0974 46.0421L63.9927 43.2667C63.8058 43.1408 63.5841 43.0646 63.3523 43.0465C63.1206 43.0283 62.8878 43.0691 62.68 43.1641C62.4722 43.2591 62.2975 43.4046 62.1752 43.5845C62.053 43.7645 61.9881 43.9717 61.9878 44.1832V47H63.0035V44.1124C63.0035 44.0313 63.0339 43.9864 63.1136 43.9502C63.1934 43.9122 63.2541 43.9174 63.3244 43.9674ZM36.4407 47V44.4455C36.439 44.2295 36.3859 44.0163 36.2851 43.8207C36.1062 43.4886 35.7965 43.2298 35.4174 43.0958C35.2559 43.0393 35.0853 43.0073 34.9124 43.0009H30.5039L30.428 43.0078L30.3141 43.0216C30.0867 43.0587 29.8705 43.1393 29.68 43.258C29.332 43.4802 29.0946 43.8183 29.0193 44.1987C29.0038 44.2785 28.9962 44.3593 28.9965 44.4403V46.9983H30.0103V46.1353H35.4288V46.9983L36.4407 47ZM30.0103 45.217V44.449V44.4179C30.0173 44.2827 30.0828 44.1555 30.1926 44.0641C30.2954 43.9792 30.4278 43.9297 30.5666 43.9243H34.8497C35.1687 43.9225 35.4288 44.159 35.4288 44.449V45.217H30.0103ZM47.0708 44.5387H44.0521C43.9453 44.5387 43.843 44.5773 43.7675 44.6459C43.692 44.7145 43.6496 44.8076 43.6496 44.9046V45.4621H46.467C46.6284 45.4621 46.6949 45.5208 46.6949 45.6658V45.8712C46.6958 45.8983 46.6904 45.9252 46.6789 45.9502C46.6675 45.9752 46.6502 45.9977 46.6284 46.0162C46.6083 46.0363 46.5836 46.0523 46.5561 46.063C46.5286 46.0737 46.4989 46.079 46.4689 46.0783H41.6846C41.5957 46.0783 41.5076 46.0624 41.4255 46.0314C41.3434 46.0004 41.2688 45.955 41.206 45.8977C41.1432 45.8405 41.0934 45.7726 41.0596 45.6978C41.0257 45.6231 41.0084 45.543 41.0087 45.4621V44.5387C41.0087 44.1987 41.3125 43.9243 41.6846 43.9243H47.4372V43.3668C47.4375 43.3188 47.4273 43.2713 47.4073 43.2269C47.3872 43.1825 47.3578 43.1421 47.3206 43.1081C47.2833 43.0741 47.2391 43.0472 47.1904 43.0287C47.1416 43.0103 47.0894 43.0009 47.0366 43.0009H41.6846C41.4625 43.0009 41.2426 43.0407 41.0375 43.118C40.8324 43.1953 40.646 43.3086 40.4891 43.4514C40.3322 43.5942 40.2077 43.7638 40.1229 43.9503C40.0381 44.1369 39.9946 44.3369 39.9949 44.5387V45.4621C39.9949 46.3113 40.7505 47 41.6846 47H46.5696C46.8359 47 47.0914 46.9038 47.2797 46.7326C47.4681 46.5613 47.5739 46.3291 47.5739 46.0869V44.9961C47.5764 44.9358 47.5644 44.8757 47.5388 44.82C47.5132 44.7642 47.4747 44.7142 47.4258 44.6734C47.3809 44.6289 47.3258 44.5939 47.2646 44.5706C47.2033 44.5474 47.1372 44.5365 47.0708 44.5387ZM58.4356 47V44.4455C58.434 44.0952 58.2938 43.757 58.0407 43.4928C57.7614 43.2058 57.3695 43.0298 56.949 43.0026C56.9351 43.002 56.9212 43.002 56.9072 43.0026L56.8313 43.0009H52.4969L52.4209 43.0078L52.307 43.0216C52.0796 43.0587 51.8635 43.1393 51.6729 43.258C51.464 43.3913 51.293 43.5679 51.1742 43.7732C51.0553 43.9785 50.992 44.2066 50.9894 44.4386V47H52.0014V46.137H57.4218V47H58.4356ZM52.0033 45.217V44.449V44.4179C52.0107 44.2825 52.077 44.1552 52.1874 44.0641C52.2903 43.9792 52.4226 43.9297 52.5614 43.9243H56.8446C57.1636 43.9225 57.4237 44.159 57.4218 44.449V45.217H52.0033Z" fill="#98AFC7"/>
</svg>
