<svg width="90" height="90" viewBox="0 0 90 90" fill="none" xmlns="http://www.w3.org/2000/svg">
<rect width="90" height="90" rx="10" fill="white"/>
<g filter="url(#filter0_i_326_1363)">
<path d="M44.9812 18C43.4476 18.0072 41.9149 18.0756 40.3867 18.2048C37.1658 18.4713 33.9703 18.9866 30.8288 19.746C28.5518 20.3215 26.3157 21.0476 24.135 21.9195L24 21.969C24 21.969 24.2655 38.2658 24.4725 46.3388C24.5258 48.7156 24.958 51.0686 25.7528 53.3092C26.6725 55.8584 27.8979 58.2866 29.4022 60.5407C30.9761 62.8685 32.88 64.9551 35.0543 66.735C35.9042 67.4479 36.8001 68.1041 37.7362 68.6993C39.2045 69.5863 40.7373 70.3617 42.3217 71.019C42.846 71.2395 43.3027 71.451 43.7167 71.5928C44.1496 71.7582 44.5931 71.8943 45.0442 72C45.4955 71.8935 45.939 71.7567 46.3717 71.5905C46.7812 71.4488 47.2425 71.2395 47.7668 71.0168C49.3504 70.3593 50.8825 69.5839 52.35 68.697C53.2876 68.1019 54.1851 67.4457 55.0365 66.7327C57.2099 64.9535 59.113 62.8676 60.6862 60.5407C62.1908 58.2867 63.4162 55.8585 64.3358 53.3092C65.1313 51.0687 65.5642 48.7157 65.6182 46.3388C65.823 38.2658 66.0908 21.978 66.0908 21.978C66.049 21.9564 66.0062 21.9369 65.9625 21.9195C63.7811 21.0475 61.5442 20.3214 59.2665 19.746C56.1249 18.9873 52.9294 18.4728 49.7085 18.207C48.1803 18.078 46.6476 18.0089 45.114 18L44.9812 18ZM44.9812 18.8123H45.1095C46.6373 18.8303 48.0075 18.8798 49.5262 19.0148C52.6234 19.2725 55.6957 19.7713 58.7152 20.5065C60.9056 21.0649 63.0562 21.7693 65.1525 22.6148C65.1962 22.6313 65.239 22.6501 65.2808 22.671L65.1953 27.7875C65.1817 27.7787 65.1674 27.7711 65.1525 27.765C63.0568 26.9197 60.9071 26.2154 58.7175 25.6568C55.6971 24.9224 52.624 24.4244 49.5262 24.1672C48.0075 24.0322 46.644 23.9422 45.1162 23.9242H44.9857C43.458 23.9445 42.0832 24.0322 40.5645 24.1672C37.4673 24.4267 34.395 24.927 31.3755 25.6635C29.1851 26.2228 27.0346 26.9279 24.9382 27.774C24.9226 27.78 24.9075 27.7876 24.8932 27.7965L24.8077 22.6642L24.9382 22.6148C27.0339 21.7693 29.1837 21.065 31.3732 20.5065C34.3943 19.7703 37.4681 19.2708 40.5667 19.0125C42.0855 18.8775 43.4535 18.8325 44.9812 18.8123ZM45.6292 19.2983C44.9527 19.2859 44.276 19.2919 43.5997 19.3162C43.3275 19.3275 42.9517 19.5615 42.9472 19.8338L42.9315 21.2918C42.927 21.5888 43.3185 21.8228 43.6178 21.8295C44.6572 21.852 45.5752 21.834 46.5833 21.897C46.6575 21.9037 46.7227 21.9488 46.7227 22.023L46.716 22.3155C46.7174 22.3292 46.7157 22.3431 46.7111 22.3561C46.7065 22.3691 46.6992 22.381 46.6895 22.3909C46.6799 22.4007 46.6682 22.4084 46.6552 22.4132C46.6423 22.4181 46.6285 22.4201 46.6147 22.419C45.4425 22.419 44.2162 22.3628 43.0305 22.4572C42.9675 22.4618 42.9697 22.446 42.9675 22.509L42.9135 23.373L42.909 23.4405C44.3193 23.359 45.7332 23.359 47.1435 23.4405C47.308 23.4355 47.4659 23.3743 47.5908 23.267C47.7156 23.1597 47.8 23.0129 47.8298 22.851L47.8433 21.4403C47.8433 21.15 47.4877 20.9362 47.256 20.9227C46.2615 20.8598 45.1297 20.8935 44.1195 20.8665C44.1055 20.8659 44.0918 20.8626 44.0791 20.8565C44.0665 20.8505 44.0552 20.842 44.0459 20.8315C44.0366 20.8209 44.0296 20.8086 44.0253 20.7953C44.0209 20.782 44.0193 20.768 44.0205 20.754L44.0407 20.4278C44.0407 20.3647 44.0835 20.3468 44.1465 20.3445C45.1455 20.3085 46.6372 20.3558 47.661 20.3872C47.6984 20.3809 47.7323 20.3617 47.757 20.3329C47.7817 20.3042 47.7955 20.2676 47.796 20.2297V19.5165C47.796 19.4783 47.724 19.3657 47.6542 19.3635C46.9796 19.3333 46.3045 19.3101 45.6292 19.2983ZM41.3993 19.4422C40.4475 19.4602 38.382 19.7235 37.2097 19.8697L37.203 23.94V23.9918L38.2605 23.8568C38.265 23.8562 38.2693 23.8548 38.2732 23.8525C38.2771 23.8501 38.2804 23.847 38.283 23.8432C38.2881 23.8369 38.2905 23.8288 38.2897 23.8207V22.644L40.4205 22.4145C40.6072 22.3808 40.8255 22.518 40.9965 22.7948C41.1333 23.0288 41.2206 23.2884 41.253 23.5575L42.3037 23.4787C42.3262 23.4787 42.3713 23.4787 42.3668 23.4562C42.3356 22.889 42.0884 22.3552 41.676 21.9645C41.8133 21.9089 41.9299 21.8118 42.0094 21.6868C42.0888 21.5617 42.1273 21.415 42.1192 21.267C42.1303 20.8434 42.1138 20.4195 42.0697 19.998C42.0338 19.8441 41.9482 19.7064 41.8263 19.6059C41.7043 19.5055 41.5527 19.448 41.3948 19.4422H41.3993ZM49.4767 19.485C49.2578 19.4766 49.0433 19.5476 48.8725 19.6849C48.7018 19.8221 48.5864 20.0164 48.5475 20.232L48.525 22.9208C48.5322 23.0731 48.5887 23.2189 48.6862 23.3363C48.7836 23.4536 48.9166 23.536 49.065 23.571C50.4375 23.6993 51.7875 23.823 53.3175 24.0547C53.3422 24.0547 53.3895 24.039 53.3895 24.0165V23.0805C53.3895 23.0602 53.3445 23.0175 53.3288 23.013C52.3072 22.8847 50.9595 22.7048 49.7535 22.5788C49.7177 22.5701 49.6856 22.55 49.6621 22.5217C49.6386 22.4933 49.6249 22.4581 49.623 22.4212V20.5942C49.623 20.5178 49.7355 20.4773 49.812 20.4818C51.0023 20.5807 52.188 20.7967 53.376 20.925C53.4075 20.9295 53.457 20.9093 53.4592 20.8778L53.4817 20.0182C53.4802 20.0005 53.4731 19.9838 53.4613 19.9704C53.4496 19.957 53.4339 19.9478 53.4165 19.944C52.1079 19.7592 50.7928 19.6062 49.4767 19.485ZM53.9317 20.0182C53.9047 20.0182 53.8822 20.0498 53.8822 20.0745C53.8687 20.691 53.781 23.3527 53.763 24.0615V24.1223C54.1117 24.183 54.4965 24.2303 54.7822 24.2888C54.8137 24.2933 54.861 24.2708 54.861 24.2393C54.8565 23.7735 54.861 23.2313 54.852 22.8083C54.852 22.779 54.8655 22.7768 54.897 22.7812C55.7264 22.9314 56.553 23.0965 57.3765 23.2762C57.3945 23.2762 57.4935 23.292 57.4935 23.3438C57.4868 23.832 57.4777 24.2438 57.4642 24.732C57.4636 24.7515 57.4691 24.7707 57.48 24.7869C57.4909 24.8031 57.5067 24.8154 57.525 24.822C57.8512 24.8963 58.1617 24.9727 58.47 25.047C58.5532 25.065 58.5667 25.0492 58.569 25.02C58.6185 24.0052 58.6365 22.3785 58.65 21.006C58.65 20.988 58.6432 20.961 58.6275 20.9565C58.2832 20.8777 57.9592 20.7945 57.6082 20.7202C57.5767 20.7135 57.5588 20.7652 57.5565 20.799C57.5228 21.3008 57.5362 21.7665 57.498 22.266C57.498 22.284 57.498 22.293 57.4777 22.2885C56.6452 22.1175 55.7565 21.933 54.9307 21.7778C54.9082 21.7733 54.9172 21.7327 54.9195 21.708L54.9263 20.2387C54.9251 20.2227 54.9188 20.2074 54.9083 20.1952C54.8977 20.183 54.8835 20.1746 54.8677 20.1712C54.5555 20.1174 54.245 20.0664 53.9317 20.0182ZM35.8957 20.07C35.868 20.0683 35.8402 20.0683 35.8125 20.07C34.5907 20.2635 33.3622 20.5222 32.1225 20.79C31.9237 20.8476 31.7446 20.9589 31.605 21.1118C31.4746 21.2322 31.3929 21.3963 31.3755 21.573L31.3845 24.0885C31.394 24.3092 31.4781 24.5202 31.623 24.687C31.6724 24.7637 31.7404 24.8266 31.8206 24.8698C31.9009 24.9131 31.9908 24.9354 32.082 24.9345C33.3014 24.6658 34.5264 24.4235 35.7563 24.2078C35.9925 24.152 36.2041 24.0209 36.3593 23.8342C36.4919 23.6934 36.57 23.51 36.5797 23.3167L36.5752 20.7C36.5673 20.6126 36.5412 20.5278 36.4986 20.4511C36.4559 20.3744 36.3978 20.3074 36.3278 20.2545C36.2101 20.1459 36.0579 20.0822 35.898 20.0745L35.8957 20.07ZM40.749 20.5132C40.7933 20.5107 40.8368 20.5255 40.8704 20.5545C40.904 20.5835 40.925 20.6243 40.929 20.6685L40.9357 21.0938C40.9342 21.1827 40.902 21.2685 40.8446 21.3365C40.7873 21.4045 40.7082 21.4507 40.6208 21.4673L38.2312 21.7013L38.211 21.6832V20.7675L38.2312 20.7585L40.731 20.5155C40.737 20.5152 40.743 20.5152 40.749 20.5155V20.5132ZM35.079 21.1657C35.1407 21.1676 35.201 21.1846 35.2545 21.2153C35.2942 21.2405 35.3265 21.276 35.3478 21.3179C35.3692 21.3599 35.3789 21.4068 35.376 21.4537L35.3558 23.0378C35.3578 23.0831 35.3489 23.1283 35.3297 23.1694C35.3105 23.2106 35.2816 23.2464 35.2455 23.274C35.1645 23.329 35.0723 23.3651 34.9755 23.3798C34.2289 23.5285 33.4812 23.671 32.7322 23.8073C32.6985 23.8157 32.6632 23.8167 32.629 23.8101C32.5948 23.8035 32.5625 23.7895 32.5343 23.769C32.5084 23.738 32.4891 23.7021 32.4775 23.6634C32.4659 23.6247 32.4622 23.5841 32.4667 23.544V21.9105C32.468 21.829 32.5002 21.751 32.5567 21.6923C32.6323 21.6228 32.7259 21.576 32.8267 21.5573C33.4792 21.4358 34.3342 21.267 35.0047 21.1703C35.0293 21.1663 35.0542 21.1648 35.079 21.1657ZM59.4015 21.1657L59.3992 21.168C59.3812 21.168 59.3812 21.195 59.3812 21.2108C59.3498 22.5743 59.3137 23.8365 59.3025 25.2C59.3025 25.2292 59.316 25.2675 59.343 25.2743C60.9872 25.7163 62.6078 26.242 64.1985 26.8492C64.2705 26.874 64.2683 26.82 64.2683 26.7998C64.275 26.4893 64.2908 26.1742 64.275 25.8637C64.2731 25.8475 64.2668 25.8321 64.2569 25.819C64.2471 25.806 64.2339 25.7958 64.2188 25.7895C62.996 25.3185 61.7492 24.9122 60.4837 24.5722C60.4715 24.5681 60.4608 24.5602 60.4531 24.5498C60.4455 24.5393 60.4412 24.5267 60.441 24.5138L60.459 24.1087C60.459 24.0907 60.4905 24.0862 60.5085 24.0908C61.7768 24.4467 63.0303 24.8536 64.266 25.3103C64.2885 25.317 64.2885 25.2878 64.2885 25.2675C64.3045 24.9167 64.3045 24.5653 64.2885 24.2145C64.2878 24.2013 64.2831 24.1887 64.2751 24.1783C64.267 24.1678 64.256 24.1601 64.2435 24.156C63.0312 23.7147 61.8017 23.3221 60.558 22.9792C60.54 22.9748 60.5175 22.9567 60.5175 22.9387V22.5068C60.5175 22.4887 60.5468 22.4775 60.5648 22.4843C61.8338 22.8082 63.2288 23.2943 64.1985 23.652C64.284 23.6835 64.3335 23.67 64.3335 23.5912C64.3335 23.238 64.347 23.2133 64.329 22.8622C64.3245 22.8173 64.32 22.7723 64.2795 22.7565C62.6822 22.1398 61.0531 21.6088 59.3992 21.1657H59.4015ZM30.219 21.3097C30.1554 21.3092 30.092 21.316 30.03 21.33C28.5675 21.7035 27.0982 22.2615 25.629 22.797C25.6089 22.8093 25.5922 22.8265 25.5804 22.8469C25.5686 22.8674 25.5621 22.8904 25.5615 22.914V26.2125L25.5683 26.955C25.5683 26.955 26.628 26.5568 26.8575 26.4825C26.8867 26.4735 26.8867 26.4443 26.8867 26.4128L26.8642 25.2428C26.8642 25.209 26.8688 25.1595 26.9002 25.1528L30.5565 24.0233C30.6795 23.9785 30.7872 23.8997 30.867 23.796C30.9466 23.6967 30.9881 23.5722 30.984 23.445L30.9458 21.9082C30.9362 21.8193 30.9073 21.7335 30.8611 21.6569C30.8148 21.5803 30.7523 21.5148 30.678 21.465C30.5438 21.3691 30.3839 21.3158 30.219 21.312V21.3097ZM29.5755 22.4257C29.6565 22.4033 29.733 22.4955 29.7375 22.5675C29.7591 22.7542 29.7681 22.9421 29.7645 23.13C29.7622 23.2312 29.616 23.3483 29.517 23.3775L26.853 24.246C26.8282 24.255 26.7832 24.246 26.7832 24.219L26.7877 23.4135C26.7877 23.3752 26.8327 23.3437 26.8687 23.3325C27.7524 22.9775 28.6563 22.6747 29.5755 22.4257ZM45.2512 24.633C46.7205 24.6555 48.0547 24.7005 49.5262 24.831C52.6226 25.089 55.6941 25.5877 58.713 26.3228C60.9034 26.881 63.054 27.5853 65.1503 28.431C65.1611 28.4355 65.1716 28.4407 65.1818 28.4468C65.1757 28.7827 65.1704 29.1187 65.166 29.4548H45.2512V24.633ZM44.538 24.6375L44.5357 35.028H37.905C37.8082 35.019 37.8712 34.9762 37.9387 34.911C38.4137 34.5562 38.9643 34.3159 39.5475 34.209C39.597 34.2045 39.6105 34.1775 39.5407 34.0875C39.272 33.8195 38.9331 33.6326 38.5631 33.5482C38.193 33.4638 37.8066 33.4854 37.4482 33.6105C37.1262 33.7144 36.8322 33.8908 36.5888 34.1259C36.3454 34.3611 36.1591 34.6489 36.0442 34.9672C36.0396 34.9875 36.0281 35.0055 36.0117 35.0182C35.9953 35.0309 35.975 35.0375 35.9542 35.037C35.6022 35.0591 35.2495 35.0688 34.8967 35.0662C34.8405 35.0662 34.8135 34.9942 34.818 34.9403C34.8642 34.7152 34.9566 34.5021 35.0895 34.3147C35.2223 34.1272 35.3927 33.9694 35.5898 33.8512C35.9389 33.6213 36.3407 33.4835 36.7575 33.4508C36.7715 33.4465 36.7843 33.439 36.7948 33.4287C36.8052 33.4184 36.813 33.4057 36.8175 33.3918C36.8219 33.3778 36.8228 33.363 36.8202 33.3485C36.8176 33.3341 36.8115 33.3205 36.8025 33.309C36.7337 33.2288 36.6542 33.1584 36.5662 33.0997C36.2196 32.9128 35.8189 32.8516 35.4323 32.9265C34.8787 32.9802 34.3616 33.2269 33.9717 33.6235C33.5817 34.02 33.3437 34.5411 33.2993 35.0955C33.2768 35.2305 33.3127 35.262 33.18 35.307C32.928 35.3925 32.4555 35.451 32.2035 35.505C32.1585 35.5118 32.091 35.4083 32.1023 35.3633C32.1957 34.9358 32.3833 34.5346 32.6512 34.1888C32.8551 33.9153 33.1182 33.6915 33.4208 33.534C33.4793 33.5047 33.5333 33.435 33.4793 33.39C32.91 32.895 31.7445 33.417 31.2743 33.9323C30.8302 34.519 30.6108 35.2453 30.6555 35.9797C30.6555 36.0158 30.687 36.072 30.6555 36.0855C30.3605 36.2109 30.0602 36.3235 29.7555 36.423C29.7285 36.4297 29.724 36.36 29.7195 36.333C29.6295 35.8016 29.7479 35.256 30.0502 34.8097C30.1824 34.5838 30.3717 34.3968 30.5992 34.2675C30.6217 34.254 30.6172 34.227 30.5992 34.2045C30.3405 33.8693 29.319 34.11 29.0063 34.416C28.2863 35.118 28.338 35.7997 28.3042 36.8842C28.302 36.936 28.2368 37.134 28.1783 37.161C28.0504 37.2371 27.9103 37.2904 27.7643 37.3185C27.717 37.332 27.7125 37.35 27.7012 37.3028C27.6624 37.1762 27.5954 37.06 27.5053 36.9631C27.4151 36.8661 27.3042 36.7907 27.1809 36.7427C27.0575 36.6946 26.9248 36.6751 26.7929 36.6856C26.6609 36.6961 26.533 36.7363 26.4187 36.8033C26.3223 36.8653 26.2403 36.9473 26.1783 37.0437C26.1162 37.1401 26.0756 37.2488 26.0592 37.3623C26.0428 37.4757 26.0509 37.5914 26.0831 37.7015C26.1152 37.8115 26.1706 37.9134 26.2455 38.0002C26.2792 38.0385 26.2905 38.0767 26.2387 38.0925C26.1184 38.1295 26.0067 38.1902 25.9102 38.271C25.8136 38.3518 25.7342 38.4511 25.6765 38.563C25.6189 38.675 25.5842 38.7973 25.5745 38.9228C25.5648 39.0483 25.5803 39.1745 25.62 39.294C25.6741 39.4283 25.7657 39.5441 25.8837 39.6279C26.0018 39.7117 26.1414 39.7598 26.286 39.7665C26.5821 39.7748 26.8733 39.6898 27.1185 39.5235C27.1288 39.5161 27.1405 39.5108 27.1529 39.508C27.1653 39.5051 27.1781 39.5047 27.1907 39.5068C27.2032 39.5089 27.2152 39.5134 27.226 39.5201C27.2368 39.5269 27.2461 39.5357 27.2535 39.546C27.3751 39.7412 27.5692 39.8803 27.7932 39.9326C28.0172 39.9849 28.2528 39.9462 28.4482 39.825C28.8127 39.5842 28.9747 39.2107 28.7047 38.5672C28.689 38.5312 28.7497 38.4637 28.7812 38.4457C30.9368 37.2051 33.3689 36.5243 35.8553 36.4657C36.2057 36.4961 36.5507 36.5725 36.8812 36.693C36.8992 36.6967 36.9166 36.7028 36.933 36.711L36.9375 38.8283C36.9142 38.8498 36.8885 38.8686 36.861 38.8845C36.3993 39.1673 36.0544 39.6064 35.889 40.122C35.88 40.1602 35.8755 40.1693 35.8102 40.176C35.376 40.2188 34.9125 40.2817 34.4805 40.3155C34.4557 40.32 34.4085 40.2727 34.4175 40.248C34.7305 39.4111 35.3019 38.6955 36.0487 38.205C36.0681 38.1856 36.0808 38.1605 36.0848 38.1333C36.0889 38.1062 36.0841 38.0785 36.0712 38.0543C35.9655 37.9529 35.8353 37.8808 35.6932 37.845C35.3175 37.8165 34.9403 37.8751 34.591 38.0164C34.2417 38.1577 33.9297 38.3778 33.6795 38.6595C33.2311 39.2183 32.9838 39.9118 32.9775 40.6283C32.9753 40.6777 32.9843 40.7587 32.9347 40.7745C32.6558 40.8622 32.3475 40.941 32.0573 41.022C32.0235 41.031 31.9785 40.9972 31.9717 40.9613C31.8985 40.5097 31.9638 40.0466 32.159 39.6329C32.3542 39.2192 32.6701 38.8743 33.0653 38.6438C33.18 38.5538 32.9797 38.4142 32.8357 38.4142C32.4144 38.3914 31.9956 38.4921 31.6307 38.7039C31.2657 38.9158 30.9706 39.2295 30.7815 39.6067C30.5737 40.18 30.5501 40.8037 30.714 41.391C30.7207 41.4427 30.7567 41.5328 30.7005 41.5462C30.5227 41.589 30.1042 41.7488 29.9738 41.7892C29.9265 41.805 29.895 41.7825 29.868 41.7218C29.7654 41.3647 29.7492 40.9883 29.8208 40.6238C29.9227 40.2082 30.1304 39.826 30.4237 39.5145C30.4417 39.492 30.4485 39.4425 30.4237 39.4312C30.1563 39.3104 29.8542 39.2904 29.5732 39.375C29.3439 39.4331 29.1295 39.5394 28.9445 39.6868C28.7594 39.8342 28.6079 40.0194 28.5 40.23C28.1422 40.8983 28.2345 41.5417 28.6147 42.4913C28.6327 42.5363 28.6552 42.6217 28.6147 42.6488L28.3065 42.8288C28.2682 42.858 28.2345 42.8333 28.2075 42.795C28.0838 42.6195 27.9285 42.3405 27.735 42.255C27.5826 42.1791 27.4123 42.1463 27.2425 42.1601C27.0728 42.174 26.9101 42.2341 26.772 42.3337C26.637 42.4512 26.5394 42.6057 26.4914 42.7781C26.4434 42.9505 26.4471 43.1332 26.502 43.3035C26.5649 43.425 26.6403 43.5396 26.727 43.6455C26.7495 43.677 26.7247 43.7265 26.6977 43.7512C26.565 43.8682 26.3827 43.9538 26.2747 44.0662C26.1577 44.217 26.0923 44.4015 26.0882 44.5924C26.0842 44.7833 26.1417 44.9704 26.2522 45.126C26.3622 45.2831 26.5236 45.3967 26.7085 45.4472C26.8934 45.4978 27.0902 45.482 27.2648 45.4028C27.4459 45.3255 27.6204 45.2337 27.7867 45.1283C27.8475 45.0877 27.888 45.0135 27.9443 45.072C28.0806 45.2273 28.254 45.3457 28.4482 45.4163C28.5832 45.4523 28.7243 45.4585 28.8619 45.4344C28.9994 45.4103 29.1301 45.3565 29.2448 45.2768C29.384 45.2108 29.497 45.0999 29.5655 44.962C29.6341 44.824 29.6542 44.667 29.6227 44.5163C29.552 44.2964 29.443 44.0908 29.301 43.9088C29.2267 43.83 29.2222 43.8345 29.301 43.7873C30.475 43.0941 31.7293 42.547 33.036 42.1583C34.2678 41.7878 35.5537 41.6303 36.8385 41.6925H36.942L36.9488 46.0778H25.2578C25.1363 41.2785 24.9967 33.6803 24.9067 28.4468C24.9169 28.4408 24.9274 28.4355 24.9382 28.431C27.0338 27.5854 29.1836 26.8811 31.3732 26.3228C34.3929 25.5876 37.4652 25.0888 40.5623 24.831C41.8853 24.7163 43.2123 24.6518 44.5402 24.6375H44.538ZM37.59 26.4735C37.0295 26.4865 36.4861 26.6684 36.0308 26.9955C35.3872 27.4185 35.0048 28.7347 34.9283 29.205C34.9243 29.2266 34.9134 29.2462 34.8971 29.2609C34.8808 29.2755 34.8601 29.2844 34.8383 29.286C34.3263 29.3506 33.8185 29.4445 33.3172 29.5672C33.3015 29.5695 33.2902 29.5448 33.2902 29.529C33.3292 29.0339 33.5337 28.5663 33.8708 28.2015C34.2129 27.8717 34.5842 27.5735 34.98 27.3105C35.0093 27.2858 34.989 27.2092 34.953 27.1957C34.6671 27.0815 34.3615 27.0251 34.0537 27.0297C33.7459 27.0343 33.442 27.0999 33.1597 27.2227C32.7614 27.3917 32.4128 27.6595 32.1471 28.0009C31.8813 28.3423 31.7071 28.7459 31.641 29.1735C31.5886 29.4781 31.5667 29.7871 31.5757 30.096C31.5802 30.1342 31.5082 30.1365 31.4745 30.1478C30.921 30.321 30.3405 30.5235 29.877 30.6788C29.8545 30.6878 29.7892 30.6833 29.7892 30.6562C29.7719 30.1369 29.9089 29.624 30.183 29.1825C30.453 28.7437 30.9548 28.4963 31.3193 28.1272C31.344 28.1003 31.3822 28.0282 31.344 28.0125C30.4215 27.6412 29.5508 28.0215 28.815 28.8562C28.5659 29.2222 28.397 29.6367 28.3194 30.0726C28.2419 30.5085 28.2574 30.9558 28.365 31.3853C28.3852 31.4662 28.365 31.554 28.3222 31.572C28.1545 31.6505 27.9816 31.7174 27.8047 31.7722C27.7969 31.775 27.7886 31.776 27.7803 31.7751C27.7721 31.7742 27.7641 31.7716 27.757 31.7673C27.7499 31.763 27.7439 31.7571 27.7393 31.7502C27.7347 31.7433 27.7317 31.7355 27.7305 31.7272C27.5212 31.0612 26.7405 31.1918 26.3872 31.3942C26.2006 31.4993 26.0629 31.6739 26.0044 31.88C25.9458 32.0861 25.971 32.3069 26.0745 32.4945C26.0798 32.5024 26.0834 32.5113 26.0852 32.5206C26.0869 32.53 26.0867 32.5396 26.0846 32.5489C26.0825 32.5581 26.0785 32.5669 26.0729 32.5745C26.0673 32.5822 26.0602 32.5887 26.052 32.5935C25.9329 32.6504 25.8263 32.7305 25.7385 32.829C25.6506 32.9275 25.5833 33.0425 25.5404 33.1673C25.4974 33.2922 25.4798 33.4243 25.4884 33.556C25.4971 33.6877 25.5319 33.8164 25.5907 33.9345C25.6902 34.0901 25.8408 34.206 26.0167 34.2623C26.1925 34.3186 26.3825 34.3117 26.5538 34.2428C26.7488 34.1676 26.9345 34.0702 27.1072 33.9525C27.1181 33.9471 27.1303 33.945 27.1424 33.9467C27.1544 33.9483 27.1657 33.9534 27.1748 33.9615C27.2443 34.0598 27.3333 34.1428 27.4361 34.2055C27.5389 34.2682 27.6534 34.3092 27.7727 34.3261C27.8919 34.343 28.0134 34.3353 28.1295 34.3035C28.2457 34.2718 28.3541 34.2167 28.4482 34.1415C28.707 33.957 28.8082 33.9255 28.9072 33.5925C28.922 33.4721 28.9116 33.35 28.8767 33.2338C28.8419 33.1176 28.7833 33.0099 28.7047 32.9175C28.6777 32.895 28.7025 32.8275 28.734 32.8118C31.6586 31.3052 34.8862 30.4798 38.175 30.3975C39.3689 30.4329 40.5157 30.8714 41.4285 31.6418C41.444 31.6642 41.4649 31.6823 41.4893 31.6945C41.5137 31.7067 41.5408 31.7126 41.568 31.7115C41.5958 31.6999 41.6209 31.6827 41.6418 31.6611C41.6627 31.6394 41.6789 31.6137 41.6895 31.5855C41.7658 31.3139 41.7632 31.0262 41.6819 30.756C41.6006 30.4858 41.444 30.2444 41.2305 30.06C40.8581 29.6716 40.3789 29.4022 39.8535 29.286C39.8265 29.2792 39.8085 29.2207 39.831 29.2028C40.045 28.987 40.3017 28.8184 40.5847 28.7077C41.0345 28.6319 41.4899 28.5942 41.946 28.5953C41.9775 28.593 42.0247 28.5615 42.0135 28.5323C41.9243 28.2835 41.7648 28.0659 41.5543 27.9062C41.3438 27.7464 41.0914 27.6512 40.8278 27.6322C40.2972 27.5661 39.7587 27.6438 39.2685 27.8573C38.7622 28.1311 38.3651 28.5703 38.1435 29.1015C38.1368 29.1149 38.1266 29.1262 38.1139 29.1342C38.1012 29.1421 38.0865 29.1464 38.0715 29.1465C37.6262 29.1303 37.1806 29.1251 36.735 29.1307C36.7035 29.1307 36.6562 29.1308 36.6562 29.0992C36.7214 28.6611 36.922 28.2544 37.23 27.936C37.6775 27.5481 38.1976 27.2529 38.76 27.0675C38.8027 27.054 38.85 26.9865 38.8252 26.9528C38.7078 26.7905 38.5525 26.6592 38.373 26.5702C38.1184 26.5027 37.8556 26.4717 37.5922 26.478L37.59 26.4735ZM45.2512 30.0893H65.1525C65.1255 31.6328 65.0962 33.3135 65.0625 35.028H45.2512V30.0893ZM37.5765 35.5522L52.575 35.559C52.5839 35.5583 52.5927 35.5609 52.5997 35.5663C52.6068 35.5717 52.6116 35.5795 52.6133 35.5882L52.6087 47.1488C52.5975 47.7356 52.4888 48.3165 52.287 48.8678C51.6898 50.4981 50.5444 51.8702 49.047 52.749C47.8626 53.4569 46.5117 53.8381 45.132 53.8538C43.2614 53.831 41.4595 53.1453 40.047 51.9188C39.2838 51.2816 38.6667 50.4877 38.2377 49.5908C37.8087 48.694 37.5778 47.7153 37.5607 46.7213L37.545 35.595C37.545 35.5658 37.5472 35.5522 37.5765 35.5522ZM53.313 35.7458H65.0513C65.0243 37.197 64.995 38.6617 64.9748 40.0793H53.313V36.7155V35.7458ZM37.9253 35.9055C37.896 35.9055 37.8937 35.9167 37.8937 35.946L37.9095 46.6403C37.9239 47.5958 38.143 48.5371 38.5521 49.4007C38.9612 50.2643 39.5507 51.0301 40.281 51.6465C41.6229 52.8235 43.3405 53.4833 45.1252 53.5073C46.4429 53.4919 47.7324 53.1244 48.8602 52.443C50.2924 51.5938 51.3852 50.2736 51.9517 48.708C52.1438 48.178 52.2472 47.6201 52.2577 47.0565L52.2622 35.9415C52.262 35.9371 52.2608 35.9327 52.2588 35.9287C52.2569 35.9248 52.2541 35.9212 52.2508 35.9183C52.2474 35.9153 52.2436 35.9131 52.2393 35.9117C52.2351 35.9103 52.2307 35.9097 52.2262 35.91L37.9253 35.9055ZM47.9062 36.5895C47.9055 36.5895 47.907 36.5895 47.9062 36.5895C47.9502 36.5961 47.9938 36.6144 48.0283 36.6425C48.0627 36.6706 48.089 36.7075 48.1042 36.7493L48.6488 38.358C48.6598 38.383 48.665 38.4102 48.6638 38.4375C48.6626 38.4649 48.6552 38.4915 48.642 38.5155C48.6273 38.5333 48.6087 38.5475 48.5876 38.5569C48.5665 38.5662 48.5436 38.5706 48.5205 38.5695C48.4894 38.5702 48.4589 38.561 48.4334 38.5432C48.4079 38.5254 48.3888 38.4999 48.3787 38.4705L48.2932 38.1892H47.5508L47.4697 38.4772C47.4473 38.5672 47.3797 38.5763 47.31 38.5763C47.29 38.5734 47.2708 38.5663 47.2537 38.5555C47.2366 38.5446 47.222 38.5302 47.211 38.5132C47.1981 38.497 47.1893 38.4779 47.1853 38.4575C47.1814 38.4371 47.1825 38.4161 47.1885 38.3962L47.7105 36.7582C47.7221 36.7136 47.7471 36.6735 47.782 36.6433C47.817 36.6132 47.8603 36.5944 47.9062 36.5895ZM46.1895 36.6052C46.2067 36.6044 46.224 36.6044 46.2412 36.6052C46.356 36.5977 46.47 36.6282 46.5656 36.6921C46.6612 36.7559 46.7331 36.8496 46.77 36.9585C46.7745 36.9718 46.7762 36.9858 46.7751 36.9998C46.774 37.0138 46.7701 37.0274 46.7636 37.0398C46.7571 37.0522 46.7481 37.0632 46.7372 37.072C46.7263 37.0809 46.7137 37.0874 46.7002 37.0912C46.6732 37.1053 46.6418 37.1084 46.6125 37.1001C46.5833 37.0917 46.5583 37.0724 46.5427 37.0462C46.5143 36.9902 46.4721 36.9423 46.4202 36.9069C46.3683 36.8715 46.3083 36.8498 46.2458 36.8438C46.1793 36.8478 46.1155 36.8713 46.0623 36.9113C46.0091 36.9513 45.9689 37.0061 45.9465 37.0688C45.8671 37.2234 45.8247 37.3944 45.8227 37.5682C45.8184 37.7448 45.8538 37.9202 45.9263 38.0813C45.9529 38.1508 46.0006 38.2103 46.0628 38.2515C46.1249 38.2926 46.1983 38.3133 46.2727 38.3108C46.3884 38.2765 46.4887 38.2034 46.5567 38.1038C46.6248 38.0042 46.6564 37.8842 46.6462 37.764V37.6763H46.3425C46.3241 37.677 46.3057 37.6738 46.2887 37.6668C46.2716 37.6598 46.2563 37.6492 46.2437 37.6358C46.2311 37.6223 46.2215 37.6063 46.2157 37.5888C46.2098 37.5714 46.2078 37.5528 46.2097 37.5345C46.2097 37.4827 46.2255 37.422 46.3425 37.422H46.7745C46.9185 37.422 46.9387 37.53 46.9387 37.6245C46.9415 37.739 46.9332 37.8536 46.914 37.9665C46.8692 38.1784 46.7494 38.367 46.5765 38.4975C46.4745 38.5589 46.358 38.5922 46.239 38.5942C46.132 38.5924 46.0276 38.561 45.9375 38.5034C45.8473 38.4458 45.7749 38.3643 45.7282 38.268C45.6135 38.0538 45.5569 37.8134 45.564 37.5705C45.5595 37.3302 45.6219 37.0934 45.744 36.8865C45.7855 36.8034 45.8489 36.7333 45.9275 36.6837C46.006 36.6341 46.0966 36.607 46.1895 36.6052ZM39.4665 36.6097C39.4695 36.6097 39.4725 36.6097 39.4755 36.6097C39.8872 36.6143 40.0222 36.8595 40.0222 36.9472C40.0222 37.026 39.885 37.1273 39.8085 37.035C39.7646 36.985 39.7101 36.9453 39.6491 36.9188C39.588 36.8924 39.5218 36.8798 39.4552 36.882C39.3829 36.8745 39.3101 36.8918 39.2488 36.931C39.1875 36.9703 39.1413 37.0291 39.1178 37.098C39.111 37.1319 39.1111 37.1668 39.1181 37.2007C39.1252 37.2345 39.139 37.2666 39.1588 37.295C39.1785 37.3233 39.2038 37.3474 39.2331 37.3658C39.2624 37.3841 39.2951 37.3964 39.3292 37.4018C39.5407 37.4146 39.7463 37.4762 39.93 37.5818H39.9277C39.9902 37.628 40.0398 37.6896 40.0717 37.7605C40.1036 37.8314 40.1168 37.9093 40.11 37.9868C40.1134 38.1327 40.0593 38.2741 39.9592 38.3805C39.8853 38.4501 39.7977 38.5036 39.7021 38.5376C39.6064 38.5717 39.5048 38.5856 39.4035 38.5785C39.2859 38.5828 39.1692 38.5559 39.0653 38.5006C38.9614 38.4453 38.8739 38.3635 38.8117 38.2635C38.8027 38.241 38.7892 38.1218 38.8882 38.088C38.9214 38.0802 38.9561 38.0815 38.9886 38.0918C39.021 38.1021 39.0501 38.121 39.0727 38.1465C39.1687 38.2347 39.2934 38.2851 39.4237 38.2882C39.5447 38.2921 39.6629 38.2522 39.7567 38.1758C39.791 38.1427 39.8144 38.1002 39.8241 38.0536C39.8337 38.007 39.8291 37.9586 39.8107 37.9147C39.7637 37.8435 39.6989 37.7858 39.6228 37.7471C39.5466 37.7084 39.4618 37.6902 39.3765 37.6943C39.2321 37.6934 39.0935 37.637 38.9895 37.5367C38.9335 37.4787 38.8907 37.4092 38.8639 37.3331C38.8371 37.2571 38.827 37.1761 38.8342 37.0958C38.8416 37.0216 38.8656 36.95 38.9046 36.8865C38.9436 36.823 38.9965 36.7691 39.0592 36.729C39.1798 36.649 39.3218 36.6074 39.4665 36.6097ZM43.1768 36.6097C43.176 36.6097 43.1775 36.6097 43.1768 36.6097C43.1812 36.6095 43.188 36.6095 43.1925 36.6097H43.9912C44.0271 36.6097 44.0614 36.624 44.0867 36.6493C44.112 36.6746 44.1262 36.7089 44.1262 36.7448C44.1262 36.7806 44.112 36.8149 44.0867 36.8402C44.0614 36.8655 44.0271 36.8797 43.9912 36.8797L43.7347 36.8842V38.4187C43.7304 38.453 43.7137 38.4845 43.6878 38.5073C43.662 38.5301 43.6286 38.5427 43.5941 38.5427C43.5596 38.5427 43.5263 38.5301 43.5004 38.5073C43.4745 38.4845 43.4578 38.453 43.4535 38.4187V36.882H43.1925C43.1567 36.8841 43.1215 36.8719 43.0947 36.848C43.0679 36.8242 43.0517 36.7907 43.0496 36.7549C43.0475 36.7191 43.0598 36.6839 43.0836 36.6571C43.1074 36.6303 43.1409 36.6141 43.1768 36.612V36.6097ZM44.4367 36.6097C44.4375 36.6097 44.4382 36.6097 44.439 36.6097C44.4435 36.6095 44.448 36.6095 44.4525 36.6097H45.249C45.2848 36.6097 45.3191 36.624 45.3445 36.6493C45.3698 36.6746 45.384 36.7089 45.384 36.7448C45.384 36.7806 45.3698 36.8149 45.3445 36.8402C45.3191 36.8655 45.2848 36.8797 45.249 36.8797L44.9925 36.8842V38.4187C44.9882 38.453 44.9715 38.4845 44.9456 38.5073C44.9197 38.5301 44.8864 38.5427 44.8519 38.5427C44.8174 38.5427 44.784 38.5301 44.7582 38.5073C44.7323 38.4845 44.7156 38.453 44.7113 38.4187V36.882H44.4525C44.4167 36.8841 44.3815 36.8719 44.3547 36.848C44.3279 36.8242 44.3117 36.7907 44.3096 36.7549C44.3075 36.7191 44.3198 36.6839 44.3436 36.6571C44.3674 36.6303 44.4009 36.6141 44.4367 36.612V36.6097ZM50.6017 36.6097C50.6033 36.6097 50.6047 36.6097 50.6062 36.6097C50.6107 36.6095 50.6153 36.6095 50.6197 36.6097H51.414C51.4498 36.6097 51.4841 36.624 51.5095 36.6493C51.5348 36.6746 51.549 36.7089 51.549 36.7448C51.549 36.7806 51.5348 36.8149 51.5095 36.8402C51.4841 36.8655 51.4498 36.8797 51.414 36.8797L51.162 36.8842V38.4187C51.1577 38.453 51.141 38.4845 51.1151 38.5073C51.0892 38.5301 51.0559 38.5427 51.0214 38.5427C50.9869 38.5427 50.9535 38.5301 50.9277 38.5073C50.9018 38.4845 50.8851 38.453 50.8807 38.4187V36.882H50.6197C50.5839 36.8841 50.5488 36.8719 50.522 36.848C50.4952 36.8242 50.479 36.7907 50.4769 36.7549C50.4748 36.7191 50.487 36.6839 50.5108 36.6571C50.5347 36.6303 50.5682 36.6141 50.604 36.612L50.6017 36.6097ZM49.0785 36.6187C49.0875 36.6179 49.0965 36.6179 49.1055 36.6187H49.533C49.6986 36.6139 49.8618 36.6594 50.001 36.7493C50.0726 36.8044 50.1314 36.8744 50.1733 36.9544C50.2153 37.0344 50.2394 37.1225 50.244 37.2127C50.2538 37.2943 50.2445 37.377 50.2168 37.4544C50.189 37.5317 50.1437 37.6015 50.0842 37.6583C50.0107 37.734 49.9206 37.7918 49.821 37.827L49.776 37.8428L50.1315 38.2927C50.1635 38.3271 50.1818 38.3719 50.1833 38.4187C50.1788 38.4907 50.1315 38.5312 50.0482 38.5312C50.0239 38.5323 49.9996 38.5272 49.9776 38.5166C49.9557 38.506 49.9366 38.4902 49.9222 38.4705L49.5015 37.89H49.2383V38.4075C49.241 38.4272 49.2393 38.4472 49.2333 38.4661C49.2273 38.485 49.2171 38.5024 49.2035 38.5168C49.1899 38.5313 49.1732 38.5425 49.1547 38.5497C49.1362 38.5569 49.1163 38.5598 49.0965 38.5583C49.077 38.559 49.0575 38.5556 49.0395 38.5481C49.0215 38.5407 49.0052 38.5294 48.992 38.515C48.9787 38.5007 48.9687 38.4837 48.9627 38.4651C48.9566 38.4465 48.9547 38.4269 48.957 38.4075V36.774C48.9546 36.7333 48.9675 36.6932 48.993 36.6615C49.0157 36.6378 49.0459 36.6227 49.0785 36.6187ZM40.371 36.6233C40.3732 36.6232 40.3755 36.6232 40.3777 36.6233H41.181C41.2171 36.6233 41.2517 36.6376 41.2773 36.6631C41.3028 36.6886 41.3171 36.7233 41.3171 36.7594C41.3171 36.7955 41.3028 36.8301 41.2773 36.8556C41.2517 36.8812 41.2171 36.8955 41.181 36.8955H40.92V38.4345C40.9157 38.4687 40.899 38.5002 40.8731 38.523C40.8472 38.5458 40.8139 38.5584 40.7794 38.5584C40.7449 38.5584 40.7115 38.5458 40.6857 38.523C40.6598 38.5002 40.6431 38.4687 40.6387 38.4345V36.8955H40.3777C40.3419 36.8964 40.3073 36.883 40.2813 36.8583C40.2554 36.8337 40.2403 36.7997 40.2394 36.7639C40.2385 36.7281 40.2518 36.6934 40.2765 36.6674C40.3012 36.6415 40.3352 36.6241 40.371 36.6233ZM41.6827 36.6233C41.6842 36.6232 41.6858 36.6232 41.6873 36.6233C41.7064 36.6226 41.7255 36.6259 41.7434 36.6329C41.7613 36.6399 41.7775 36.6505 41.7912 36.6639C41.8049 36.6774 41.8157 36.6935 41.823 36.7112C41.8302 36.729 41.8338 36.7481 41.8335 36.7673V37.827C41.8257 37.9461 41.8547 38.0648 41.9167 38.1667C41.9502 38.2098 41.9938 38.2439 42.0437 38.2659C42.0936 38.2879 42.1482 38.2971 42.2025 38.2927C42.2563 38.298 42.3105 38.2892 42.3599 38.2671C42.4092 38.245 42.4519 38.2104 42.4837 38.1667C42.5428 38.0645 42.5702 37.9471 42.5625 37.8293V36.765C42.5668 36.7308 42.5858 36.6993 42.6117 36.6765C42.6375 36.6537 42.6709 36.6411 42.7054 36.6411C42.7399 36.6411 42.7732 36.6537 42.7991 36.6765C42.825 36.6993 42.8417 36.7308 42.846 36.765V37.737C42.8616 37.9415 42.8178 38.1462 42.72 38.3265C42.6626 38.4072 42.585 38.4713 42.4949 38.5124C42.4049 38.5535 42.3055 38.5701 42.207 38.5605C42.108 38.5687 42.0085 38.5515 41.9179 38.5105C41.8274 38.4696 41.7488 38.4062 41.6895 38.3265C41.5855 38.1483 41.5377 37.9428 41.5522 37.737V36.765C41.5521 36.7293 41.5655 36.6948 41.5897 36.6685C41.6139 36.6423 41.6471 36.6261 41.6827 36.6233ZM49.2292 36.882V37.62H49.5217C49.5775 37.6263 49.6339 37.6209 49.6874 37.6042C49.7409 37.5875 49.7904 37.5599 49.8327 37.5231C49.875 37.4863 49.9092 37.4411 49.9332 37.3904C49.9571 37.3397 49.9702 37.2845 49.9717 37.2285C49.9706 37.1819 49.9598 37.1361 49.94 37.0939C49.9203 37.0517 49.892 37.014 49.857 36.9832C49.8174 36.9478 49.7711 36.9206 49.7209 36.9032C49.6707 36.8858 49.6175 36.8786 49.5645 36.882H49.2292ZM47.9152 36.9157L47.6092 37.971H48.2347L47.9152 36.9157ZM45.3502 39.177C45.375 39.177 45.3975 39.1815 45.3997 39.2018C45.4042 39.2423 45.3638 39.267 45.3053 39.2962C45.218 39.3332 45.1442 39.396 45.0938 39.4762C45.0314 39.5881 45.001 39.715 45.006 39.843C45.0145 39.8815 45.0317 39.9175 45.0563 39.9483C45.0809 39.9791 45.1121 40.0039 45.1477 40.0208C45.2475 40.0677 45.3572 40.0893 45.4672 40.0837C45.6371 40.0735 45.8025 40.0251 45.951 39.942C46.1514 39.8772 46.3644 39.8618 46.572 39.897C46.7286 39.8986 46.8809 39.9481 47.0085 40.0387C47.0625 40.077 47.0535 40.1243 47.0332 40.1287C47.0017 40.14 46.968 40.1017 46.9342 40.1062C46.8256 40.1172 46.7185 40.1398 46.6147 40.1737C46.4797 40.2345 46.419 40.257 46.3537 40.3762C46.3277 40.427 46.322 40.4858 46.338 40.5405C46.3605 40.5945 46.4167 40.6305 46.428 40.6687C46.4608 40.7695 46.5094 40.8644 46.572 40.95C46.5929 40.9693 46.6155 40.9866 46.6395 41.0017C46.8635 41.169 47.0755 41.3517 47.274 41.5485C47.3174 41.6117 47.348 41.6828 47.364 41.7577C47.3708 41.7847 47.3482 41.8252 47.3235 41.814C47.2946 41.7947 47.2675 41.7729 47.2425 41.7488C47.2085 41.7123 47.1681 41.6826 47.1232 41.661C46.9978 41.6102 46.8619 41.5909 46.7272 41.6047C46.6665 41.6047 46.545 41.6588 46.6147 41.6858C46.7339 41.7466 46.836 41.8364 46.9117 41.9467C47.081 42.1383 47.1675 42.3891 47.1525 42.6443C47.1525 42.6578 47.1255 42.6667 47.1187 42.6577C47.0603 42.5608 46.9821 42.4773 46.8892 42.4125C46.7527 42.3126 46.5857 42.2633 46.4167 42.273C46.383 42.2752 46.2817 42.273 46.293 42.3045C46.3987 42.4386 46.4914 42.5825 46.5697 42.7342C46.6507 42.9306 46.6809 43.1442 46.6575 43.3552C46.6552 43.3665 46.6125 43.3778 46.6057 43.3665C46.5532 43.3045 46.4952 43.2473 46.4325 43.1955C46.3697 43.1395 46.2983 43.0939 46.221 43.0605C46.0654 43.0246 45.9021 43.0471 45.762 43.1235C45.6377 43.192 45.5361 43.2952 45.4695 43.4205C45.3897 43.5621 45.3421 43.7196 45.33 43.8818C45.3051 44.0796 45.338 44.2804 45.4245 44.46C45.5194 44.6293 45.6707 44.7599 45.852 44.829C46.0947 44.9063 46.3491 44.9398 46.6035 44.928C46.9162 44.9393 47.229 44.892 47.5417 44.883C47.8382 44.8549 48.1368 44.8572 48.4327 44.8898C48.6725 44.9373 48.9013 45.0289 49.1077 45.1597C49.2762 45.2883 49.4377 45.4257 49.5915 45.5715C49.6095 45.585 49.65 45.5648 49.6702 45.5513C49.818 45.4094 49.9206 45.227 49.965 45.027C49.9942 44.8332 49.9492 44.6356 49.839 44.4735C49.7332 44.2822 49.578 44.0685 49.4565 43.866C49.2917 43.6534 49.1399 43.431 49.002 43.2C48.9273 43.0449 48.9137 42.8674 48.9637 42.7028C49.0066 42.5808 49.0921 42.4786 49.2045 42.4147C49.2292 42.399 49.254 42.4282 49.2428 42.462C49.2106 42.5421 49.2043 42.6302 49.2247 42.714C49.2626 42.8348 49.3317 42.9434 49.425 43.029C49.4542 43.0515 49.5307 43.0177 49.5487 42.9817C49.5892 42.885 49.5645 42.7343 49.6005 42.6353C49.646 42.451 49.7287 42.2779 49.8435 42.1267C50.0916 41.9426 50.3642 41.7942 50.6535 41.6858C50.7277 41.643 50.775 41.4495 50.8582 41.481C50.9415 41.5103 50.8965 41.706 50.8335 41.8005C50.7435 41.94 50.6378 42.0255 50.5387 42.1515C50.4036 42.3251 50.2853 42.5112 50.1855 42.7073C50.1311 42.8003 50.1082 42.9084 50.1202 43.0155C50.1304 43.0607 50.1504 43.103 50.1788 43.1396C50.2072 43.1761 50.2433 43.206 50.2845 43.227C50.334 43.2495 50.397 43.2045 50.442 43.1707C50.5284 43.1076 50.6024 43.0291 50.6602 42.939C50.712 42.8535 50.6827 42.7388 50.7322 42.651C50.7457 42.6308 50.7997 42.6353 50.8155 42.651C50.8696 42.7004 50.9047 42.7673 50.9145 42.84C50.9193 42.9254 50.9118 43.011 50.892 43.0942C50.8853 43.1122 50.838 43.155 50.8222 43.1955C50.81 43.2268 50.795 43.2569 50.7773 43.2855C50.6963 43.4272 50.6017 43.5465 50.496 43.569C50.4735 43.5713 50.4578 43.6163 50.4735 43.6365C50.5349 43.7533 50.6218 43.8548 50.7277 43.9335C50.7804 43.9596 50.8378 43.9751 50.8965 43.979C50.9552 43.9828 51.0141 43.975 51.0697 43.956C51.1305 43.938 51.1777 43.8952 51.2475 43.8727C51.2767 43.8637 51.2587 43.8818 51.2587 43.911C51.2581 43.9769 51.2467 44.0423 51.225 44.1045C51.1888 44.1823 51.13 44.2473 51.0562 44.2913C50.9416 44.3559 50.814 44.3944 50.6827 44.4037C50.622 44.415 50.5297 44.46 50.5522 44.5185C50.5716 44.5876 50.6036 44.6524 50.6467 44.7098C50.6936 44.7606 50.7578 44.792 50.8267 44.7975C50.9268 44.8017 51.0255 44.7733 51.108 44.7165C51.198 44.658 51.2453 44.55 51.324 44.4735C51.3398 44.46 51.3825 44.4735 51.3825 44.496C51.3794 44.62 51.3478 44.7416 51.2902 44.8515C51.2149 44.9724 51.1171 45.0778 51.0022 45.162C50.9685 45.1912 50.928 45.2273 50.928 45.2723C50.9454 45.3423 50.9793 45.4071 51.027 45.4613C51.0715 45.5241 51.1383 45.5676 51.2137 45.5828C51.2881 45.5968 51.3644 45.5968 51.4387 45.5828C51.468 45.5828 51.4612 45.6345 51.4365 45.6525C51.3643 45.7265 51.2733 45.7793 51.1732 45.8055C51.0804 45.8364 50.9812 45.8426 50.8852 45.8235C50.703 45.7785 50.5837 45.711 50.4037 45.6593C50.3068 45.6222 50.201 45.6151 50.1 45.639C50.0034 45.6757 49.9203 45.7408 49.8615 45.8257C49.8264 45.8668 49.8031 45.9165 49.794 45.9697C49.7805 46.1115 49.8503 46.2623 49.8053 46.4018C49.76 46.5822 49.699 46.7584 49.623 46.9283C49.5464 47.0584 49.4599 47.1825 49.3643 47.2995C49.2743 47.421 49.155 47.466 49.0942 47.5987C49.0685 47.6476 49.04 47.6949 49.0087 47.7405C48.9259 47.8998 48.8812 48.0762 48.8783 48.2557C48.9012 48.4261 48.967 48.5879 49.0695 48.726L49.4137 49.2592C49.4382 49.3183 49.4452 49.3831 49.434 49.446C49.4317 49.4784 49.4214 49.5096 49.4041 49.5371C49.3869 49.5646 49.3631 49.5874 49.335 49.6035C48.8781 49.8606 48.5398 50.2861 48.3923 50.7892L48.3877 50.8185V50.8275C48.3793 50.8621 48.3631 50.8944 48.3405 50.922C48.2254 51.0387 48.0752 51.1146 47.913 51.138C47.7892 51.1717 47.6655 51.2033 47.5417 51.2415C47.5014 51.2521 47.4663 51.2768 47.4427 51.3112C47.4216 51.3448 47.4122 51.3843 47.4158 51.4238C47.4195 51.4633 47.4361 51.5004 47.463 51.5295C47.5003 51.5752 47.5238 51.6306 47.5305 51.6892C47.5324 51.7232 47.522 51.7568 47.5012 51.7838C47.4831 51.8036 47.4618 51.8204 47.4382 51.8332C47.2858 51.9201 47.1223 51.986 46.9522 52.029C46.8397 52.0537 46.7587 52.0245 46.7947 51.8962C46.8572 51.6729 46.9307 51.4529 47.0153 51.237C47.0892 51.1102 47.1916 51.0023 47.3145 50.922C47.4663 50.7913 47.6255 50.6696 47.7915 50.5575C47.8999 50.4831 47.9912 50.3865 48.0592 50.274C48.1912 50.0607 48.3339 49.8541 48.4867 49.6553C48.5173 49.6141 48.5389 49.567 48.5501 49.517C48.5614 49.467 48.562 49.4153 48.552 49.365C48.5373 49.2746 48.5005 49.1893 48.4447 49.1166C48.389 49.044 48.316 48.9863 48.2325 48.9487C48.1699 48.9205 48.1061 48.895 48.0412 48.8722C47.8227 48.797 47.6305 48.6603 47.4878 48.4785C47.4722 48.4545 47.4517 48.4341 47.4276 48.4185C47.4036 48.403 47.3765 48.3928 47.3482 48.3885C47.2065 48.393 47.166 48.591 47.1615 48.699C47.1501 48.8579 47.1531 49.0176 47.1705 49.176C47.1844 49.2288 47.1875 49.2839 47.1795 49.338C47.1723 49.357 47.1605 49.3739 47.1452 49.3872C47.1299 49.4006 47.1115 49.4099 47.0917 49.4145C46.6453 49.5742 46.2187 49.7848 45.8205 50.0423C45.7633 50.0849 45.7151 50.1384 45.6787 50.1997L45.6405 50.265C45.5905 50.3483 45.5132 50.4118 45.4218 50.4446C45.3303 50.4774 45.2303 50.4776 45.1387 50.445C45.1061 50.4353 45.0731 50.427 45.0397 50.4202C44.9887 50.4151 44.9375 50.4287 44.8958 50.4585C44.8606 50.4801 44.8294 50.5075 44.8035 50.5395C44.7935 50.5523 44.7859 50.5668 44.781 50.5822V50.5958C44.7806 50.6017 44.7806 50.6078 44.781 50.6138C44.7824 50.6268 44.7854 50.6397 44.79 50.652L44.8395 50.787C44.8506 50.8064 44.8572 50.828 44.8588 50.8502C44.8604 50.8725 44.857 50.8948 44.8488 50.9156C44.8406 50.9364 44.8278 50.955 44.8114 50.9701C44.795 50.9853 44.7754 50.9965 44.754 51.003C44.6072 51.0623 44.4539 51.1039 44.2972 51.1267C44.2073 51.138 44.1285 51.1043 44.151 50.9985C44.1833 50.8154 44.2361 50.6365 44.3085 50.4652C44.3182 50.4345 44.3347 50.4063 44.357 50.3829C44.3792 50.3595 44.4065 50.3415 44.4367 50.3302C44.5855 50.2452 44.7211 50.1391 44.8395 50.0153C44.9427 49.917 45.0775 49.8587 45.2197 49.851C45.4334 49.8323 45.6375 49.7544 45.8092 49.626C45.9895 49.501 46.1588 49.361 46.3155 49.2075C46.4304 49.0588 46.4916 48.8756 46.4892 48.6876C46.4867 48.4997 46.4207 48.3182 46.302 48.1725L46.257 48.0938C46.2142 48.0263 46.1895 47.9295 46.1535 47.8597C46.1064 47.7897 46.0763 47.7095 46.0658 47.6257C46.0658 47.4727 46.1265 47.3265 46.1355 47.1735C46.1367 47.1614 46.1338 47.1493 46.1272 47.1391C46.1207 47.1289 46.1109 47.1212 46.0995 47.1173C46.0005 47.08 45.8967 47.0573 45.7912 47.0498C45.3729 47.0983 44.9506 47.1028 44.5312 47.0632C44.2199 46.9734 43.9241 46.8369 43.6537 46.6583C43.5345 46.584 43.4625 46.5007 43.341 46.431C43.3095 46.413 43.3072 46.4198 43.278 46.4445C42.9796 46.661 42.6123 46.7611 42.2452 46.7257H42.2407C42.0157 46.6871 41.7944 46.6292 41.5793 46.5525C41.415 46.4917 41.1517 46.386 40.9942 46.5188C40.929 46.575 40.9447 46.6537 40.9447 46.728C40.9654 46.9568 40.9579 47.1873 40.9222 47.4142C40.918 47.426 40.9165 47.4386 40.9176 47.451C40.9188 47.4634 40.9227 47.4755 40.929 47.4862C40.9331 47.4912 40.9376 47.4957 40.9425 47.4998C40.9671 47.5188 40.9944 47.5339 41.0235 47.5447L41.046 47.5538C41.109 47.5763 41.1202 47.6055 41.1585 47.6842C41.1781 47.7285 41.1902 47.7756 41.1945 47.8237C41.2014 47.8702 41.1991 47.9176 41.1877 47.9633C41.1821 47.9927 41.1753 48.022 41.1675 48.051C41.1393 48.1514 41.1457 48.2584 41.1855 48.3547C41.2043 48.4031 41.2373 48.4446 41.28 48.474C41.2873 48.4775 41.2948 48.4806 41.3025 48.483C41.3098 48.4859 41.3173 48.4881 41.325 48.4897C41.3325 48.4903 41.34 48.4903 41.3475 48.4897H41.37C41.3858 48.486 41.401 48.4799 41.415 48.4718L41.424 48.4673C41.4458 48.4485 41.474 48.4389 41.5027 48.4403C41.5105 48.4416 41.518 48.4439 41.5252 48.447C41.5639 48.4553 41.5987 48.4762 41.6243 48.5063C41.6499 48.5364 41.6649 48.574 41.667 48.6135C41.6722 48.7851 41.6367 48.9555 41.5635 49.1107C41.5567 49.1266 41.5467 49.141 41.5343 49.153C41.5218 49.1651 41.5071 49.1745 41.491 49.1808C41.4749 49.187 41.4577 49.1901 41.4404 49.1896C41.4231 49.1892 41.406 49.1853 41.3903 49.1783L41.3497 49.1625C41.2277 49.0974 41.1204 49.0078 41.0347 48.8993C40.9712 48.8297 40.9325 48.7411 40.9245 48.6473C40.9272 48.5801 40.9047 48.5143 40.8615 48.4627C40.8401 48.4461 40.8157 48.4338 40.7895 48.4268C40.7279 48.4086 40.6731 48.3726 40.632 48.3232C40.5779 48.2545 40.5395 48.1748 40.5193 48.0898C40.4991 48.0047 40.4976 47.9162 40.515 47.8305C40.5848 47.3487 40.5495 46.8574 40.4115 46.3905C40.3826 46.3118 40.3842 46.2251 40.416 46.1475L40.452 46.0508C40.4565 46.0385 40.4618 46.0264 40.4677 46.0148C40.477 45.9963 40.4903 45.9803 40.5067 45.9678C40.523 45.9553 40.5421 45.9467 40.5623 45.9427C40.5838 45.9386 40.6056 45.9363 40.6275 45.936C40.971 45.9348 41.3124 45.8817 41.64 45.7785C41.6844 45.7614 41.7319 45.7537 41.7795 45.756C41.8342 45.7597 41.889 45.7612 41.9437 45.7605C42.0112 45.7605 42.0787 45.6998 41.9977 45.648C41.9302 45.5873 41.867 45.5219 41.8088 45.4523C41.7975 45.4322 41.7799 45.4164 41.7587 45.4074C41.7375 45.3985 41.714 45.3968 41.6917 45.4028C41.684 45.4059 41.6764 45.4097 41.6692 45.414L41.649 45.4253C41.6238 45.4474 41.5938 45.4636 41.5614 45.4724C41.529 45.4813 41.495 45.4826 41.462 45.4763C41.429 45.47 41.3979 45.4562 41.3711 45.4361C41.3442 45.4159 41.3223 45.3899 41.307 45.36C41.2217 45.2179 41.1559 45.0651 41.1112 44.9055C41.0734 44.71 40.9893 44.5264 40.866 44.37C40.8096 44.3164 40.742 44.2758 40.6681 44.2513C40.5942 44.2268 40.5158 44.2189 40.4385 44.2282C40.316 44.2608 40.211 44.3399 40.146 44.4487L40.0042 44.6468C39.9683 44.6901 39.9443 44.742 39.9345 44.7975C39.9336 44.8095 39.9336 44.8215 39.9345 44.8335C39.9376 44.8581 39.9437 44.8823 39.9525 44.9055C39.9771 44.965 39.9818 45.0309 39.966 45.0933C39.9502 45.1557 39.9147 45.2114 39.8647 45.252L39.6532 45.4207C39.6336 45.4377 39.6176 45.4583 39.606 45.4815C39.5944 45.5047 39.5875 45.5299 39.5858 45.5557C39.5794 45.6012 39.5704 45.6463 39.5588 45.6908C39.5506 45.7239 39.5483 45.7581 39.552 45.792C39.5529 45.8011 39.5544 45.8101 39.5565 45.819C39.5695 45.8557 39.594 45.8872 39.6262 45.909C39.6365 45.9174 39.6463 45.9265 39.6555 45.936C39.6663 45.9474 39.6753 45.9603 39.6825 45.9742C39.6953 46 39.6997 46.0291 39.6948 46.0574C39.6899 46.0858 39.6762 46.1118 39.6555 46.1318C39.6387 46.1488 39.6206 46.1646 39.6015 46.179C39.4716 46.2804 39.3276 46.3622 39.174 46.422C39.1552 46.4291 39.1355 46.4337 39.1155 46.4355C39.03 46.4422 39.003 46.377 38.9985 46.3005C38.9917 46.2015 38.9918 46.1003 38.9918 45.999C38.9949 45.8839 39.0406 45.7741 39.12 45.6908C39.2294 45.545 39.2865 45.3667 39.282 45.1845C39.2763 45.0794 39.3082 44.9757 39.372 44.892C39.4263 44.8325 39.4697 44.764 39.5002 44.6895C39.5219 44.6359 39.5515 44.5858 39.588 44.541C39.8163 44.2663 40.0275 43.9777 40.2202 43.677C40.3417 43.4835 40.569 43.245 40.7535 43.5127C40.8014 43.5848 40.8607 43.6486 40.929 43.7018C41.1152 43.8371 41.3098 43.9603 41.5117 44.0707C41.7232 44.19 41.757 43.9762 41.793 43.7985V43.7917C41.8109 43.7188 41.8397 43.649 41.8785 43.5848C42.0058 43.381 42.1586 43.1942 42.333 43.029C42.4297 42.9435 42.5692 42.858 42.6705 42.7747C42.711 42.7387 42.7222 42.7342 42.738 42.6847C42.7582 42.6353 42.792 42.5722 42.8145 42.5092C42.837 42.4485 42.8482 42.3855 42.8685 42.3383C42.9128 42.2704 42.9462 42.196 42.9675 42.1178V42.111C42.9679 42.1073 42.9679 42.1035 42.9675 42.0998V42.084L42.9608 42.0682C42.9513 42.0456 42.9347 42.0266 42.9135 42.0143C42.8445 41.9723 42.7646 41.9519 42.684 41.9558H42.6772C42.5627 41.9567 42.4495 41.9804 42.3442 42.0255C42.2901 42.0495 42.2467 42.0928 42.2227 42.147C42.1994 42.1992 42.1675 42.2472 42.1283 42.2887C42.0896 42.3264 42.0385 42.3486 41.9846 42.3511C41.9307 42.3535 41.8777 42.3362 41.8358 42.3022C41.7817 42.2662 41.8043 42.2055 41.8358 42.1605C41.8647 42.125 41.8911 42.0874 41.9145 42.048C41.924 42.0309 41.9279 42.0112 41.9258 41.9918V41.9827L41.9212 41.9715C41.9181 41.9665 41.9143 41.962 41.91 41.958C41.8959 41.9468 41.8792 41.9395 41.8615 41.9367C41.8437 41.934 41.8255 41.9359 41.8088 41.9422C41.7456 41.9597 41.6833 41.98 41.622 42.003C41.6016 42.0141 41.5788 42.0202 41.5556 42.0206C41.5324 42.021 41.5094 42.0158 41.4886 42.0054C41.4678 41.995 41.4499 41.9797 41.4363 41.9609C41.4227 41.9421 41.4138 41.9202 41.4105 41.8973C41.4017 41.8566 41.3994 41.8148 41.4037 41.7735C41.4051 41.7477 41.4145 41.723 41.4307 41.7028C41.4468 41.6826 41.4689 41.668 41.4937 41.661C41.5387 41.6475 41.6063 41.6227 41.5972 41.5665C41.5947 41.5493 41.5947 41.5319 41.5972 41.5148C41.6014 41.4947 41.6107 41.4761 41.6242 41.4608C41.644 41.4389 41.6667 41.42 41.6917 41.4045C41.9406 41.2414 42.1809 41.0657 42.4117 40.878C42.4292 40.8578 42.4532 40.8444 42.4796 40.8403C42.506 40.8362 42.533 40.8416 42.5557 40.8555L42.5783 40.869C42.6827 40.9234 42.803 40.9393 42.918 40.914C42.9383 40.9131 42.9579 40.9061 42.9743 40.8941C42.9907 40.8821 43.0032 40.8656 43.0102 40.8465C43.0106 40.8428 43.0106 40.839 43.0102 40.8353V40.824L43.0057 40.8105L42.999 40.8015C42.9779 40.7784 42.9506 40.762 42.9202 40.7542L42.7897 40.707C42.7488 40.6925 42.7096 40.6736 42.6727 40.6508C42.6502 40.6378 42.6324 40.6178 42.6223 40.5938C42.6121 40.5699 42.6101 40.5432 42.6165 40.518C42.6682 40.2638 42.9472 40.2615 43.1587 40.2817H43.1677C43.2746 40.2801 43.3806 40.2635 43.4827 40.2322C43.6177 40.185 43.7212 40.0815 43.8495 40.0208C43.9777 39.96 44.1128 39.8925 44.2455 39.8407C44.286 39.8272 44.3197 39.8363 44.3557 39.8205C44.3861 39.8083 44.4131 39.789 44.4345 39.7643C44.5269 39.6304 44.6341 39.5074 44.754 39.3975C44.9192 39.3015 45.0984 39.2317 45.285 39.1905C45.3067 39.1828 45.3295 39.1782 45.3525 39.177H45.3502ZM44.394 40.4303C44.3116 40.4297 44.2304 40.4498 44.1577 40.4888C44.1375 40.5 44.124 40.5247 44.1397 40.5427C44.1802 40.59 44.25 40.6103 44.2972 40.6553C44.3296 40.6847 44.3563 40.7198 44.376 40.7587C44.3962 40.8015 44.43 40.8488 44.4502 40.8938C44.4886 40.9842 44.5224 41.0766 44.5515 41.1705C44.6027 41.3237 44.6403 41.481 44.664 41.6408C44.6865 41.769 44.6797 41.904 44.6865 42.0345V42.2167C44.6842 42.2685 44.6842 42.3225 44.6798 42.3743C44.6736 42.4476 44.6706 42.5212 44.6707 42.5947V42.7747C44.6752 42.9322 44.7 43.0447 44.7698 43.0447C44.8353 43.046 44.9001 43.0313 44.9587 43.002C45.0164 42.9674 45.0642 42.9187 45.0977 42.8604C45.1312 42.8021 45.1492 42.7362 45.15 42.669C45.2095 42.2389 45.2072 41.8025 45.1432 41.373C45.1326 41.2154 45.0895 41.0618 45.0167 40.9216C44.9439 40.7815 44.843 40.6578 44.7202 40.5585C44.6315 40.4777 44.514 40.4321 44.394 40.4303ZM53.304 40.7925H64.9523C64.914 42.6488 64.8758 44.3925 64.8398 45.8842H53.2972L53.3062 41.6947L53.304 40.7925ZM53.2905 46.5165H64.8173C64.7463 48.7497 64.3327 50.9587 63.591 53.0662C62.7075 55.5375 61.529 57.893 60.081 60.0817C58.5702 62.3361 56.7398 64.359 54.6472 66.087C53.8299 66.7791 52.9678 67.4165 52.0665 67.995C50.6552 68.8541 49.181 69.6055 47.6565 70.2427C47.1525 70.4587 46.716 70.6612 46.3155 70.7985C45.8812 70.9447 45.51 71.0798 45.249 71.1495V70.8908L45.2557 54.477C45.4934 54.4703 45.7306 54.4531 45.9667 54.4252C45.978 54.459 46.0027 54.5535 46.0365 54.6502C46.0873 54.744 46.1576 54.8258 46.2425 54.8902C46.3275 54.9546 46.4253 55.0001 46.5292 55.0238C46.6551 55.0493 46.7854 55.0404 46.9066 54.998C47.0278 54.9557 47.1353 54.8814 47.2177 54.783C47.3347 54.8871 47.4785 54.9563 47.6327 54.9829C47.787 55.0096 47.9457 54.9925 48.0907 54.9338C48.2035 54.904 48.3033 54.8377 48.3745 54.7454C48.4457 54.653 48.4844 54.5396 48.4845 54.423C48.4989 54.2633 48.4734 54.1024 48.4102 53.955L48.3293 53.8065C48.919 53.5605 49.4803 53.2512 50.0033 52.884L50.0482 52.8705C50.8875 52.659 54.2602 51.4507 56.328 51.4237C57.6036 51.3949 58.8649 51.6972 59.9888 52.3013C60.5638 52.6372 61.0818 53.0626 61.5233 53.5612C61.5368 53.5815 61.5525 53.6242 61.6065 53.6333C61.6227 53.6336 61.6387 53.6291 61.6524 53.6203C61.666 53.6115 61.6767 53.5987 61.683 53.5837C61.8313 53.2157 61.8922 52.8183 61.8608 52.4227C61.8158 51.7882 61.1857 51.3293 60.999 51.1403C60.9923 51.1335 60.9765 51.093 61.044 51.048C61.1161 50.9765 61.1953 50.9124 61.2803 50.8568C61.6417 50.5697 62.0838 50.4029 62.5448 50.3797C62.6123 50.3865 62.5898 50.2897 62.5718 50.2087C62.4413 49.6462 61.638 49.2818 60.7943 49.4123C60.5138 49.4698 60.2475 49.5823 60.0107 49.7433C59.774 49.9044 59.5715 50.1107 59.415 50.3505C59.3992 50.3753 59.3205 50.4113 59.289 50.3797C59.0178 50.2814 58.7405 50.201 58.4587 50.139C58.3575 50.1165 58.4115 50.04 58.416 50.0265C58.5831 49.7248 58.8171 49.4654 59.1 49.2683C59.4238 49.0121 59.8054 48.8391 60.2115 48.7643C60.261 48.7643 60.261 48.6968 60.2475 48.6743C60.1676 48.5044 60.0501 48.355 59.9039 48.2373C59.7578 48.1195 59.5867 48.0366 59.4037 47.9948C59.1078 47.8996 58.793 47.8785 58.487 47.9335C58.181 47.9884 57.8931 48.1176 57.6487 48.3097C57.1733 48.705 56.8251 49.2318 56.6475 49.824C56.616 49.869 56.607 49.905 56.5665 49.896C56.3438 49.851 55.7902 49.8803 55.7407 49.8465C55.707 49.8308 55.7138 49.779 55.7205 49.7453C55.8145 49.4237 55.9861 49.1301 56.22 48.8903C56.4308 48.6067 56.7136 48.3845 57.039 48.2467C57.0585 48.2378 57.0753 48.2239 57.0878 48.2065C57.1003 48.1891 57.1081 48.1687 57.1104 48.1474C57.1126 48.1261 57.1093 48.1045 57.1008 48.0849C57.0922 48.0652 57.0787 48.0481 57.0615 48.0352C56.6065 47.7995 56.0836 47.7297 55.5826 47.8377C55.0817 47.9457 54.634 48.2248 54.3165 48.627C53.9991 49.1052 53.7676 49.6352 53.6325 50.193C53.628 50.2132 53.5942 50.274 53.5515 50.274L52.4085 50.526L52.2217 50.5688L52.1722 50.6205C52.8682 49.5043 53.2542 48.2229 53.2905 46.908V46.5165ZM25.278 46.7078H36.9555V46.9102C36.977 48.6627 37.6481 50.3447 38.8387 51.6307H26.0452C25.6024 50.0243 25.3465 48.3727 25.278 46.7078ZM26.2118 52.2045H39.4035C39.4853 52.2819 39.5693 52.357 39.6555 52.4295C41.0365 53.589 42.7415 54.2946 44.538 54.45V57.1725H28.293C27.5946 55.8475 26.993 54.4737 26.493 53.0618C26.3938 52.7786 26.3 52.4935 26.2118 52.2067V52.2045ZM50.0257 52.857L50.0033 52.884H49.9987L49.9942 52.8795C50.0055 52.872 50.0168 52.8645 50.028 52.857H50.0257ZM53.9362 53.2733C53.5298 53.2738 53.1328 53.3952 52.7955 53.622C52.413 53.8306 52.1048 54.153 51.9135 54.5445C51.6977 55.103 51.5672 55.6909 51.5265 56.2882C51.5186 56.3067 51.5069 56.3232 51.4922 56.3368C51.4775 56.3504 51.46 56.3607 51.441 56.367C51.1861 56.4172 50.9344 56.4825 50.6873 56.5628C50.675 56.5616 50.6634 56.5567 50.6541 56.5486C50.6448 56.5405 50.6383 56.5297 50.6355 56.5177C50.556 55.9499 50.6752 55.372 50.973 54.882C51.0966 54.6548 51.2632 54.4538 51.4635 54.2902C51.4781 54.2808 51.4895 54.2671 51.4959 54.2509C51.5023 54.2347 51.5035 54.2169 51.4992 54.2C51.495 54.1831 51.4856 54.168 51.4723 54.1567C51.4591 54.1455 51.4426 54.1387 51.4253 54.1373C50.9242 54.0522 50.4092 54.1428 49.9672 54.3937C49.6914 54.546 49.4555 54.7613 49.2787 55.0221C49.102 55.283 48.9894 55.5819 48.9502 55.8945C48.8972 56.342 48.9293 56.7954 49.0447 57.231C49.0447 57.2445 49.0583 57.2917 49.0087 57.3007C48.8377 57.384 48.3742 57.627 48.21 57.7057C48.1987 57.7102 48.1672 57.717 48.1605 57.6923C48.1183 57.5248 48.0433 57.3673 47.9398 57.229C47.8362 57.0908 47.7063 56.9744 47.5575 56.8868C47.3968 56.8209 47.2237 56.7912 47.0502 56.7997C46.8768 56.8083 46.7074 56.8549 46.554 56.9362C46.3467 57.0538 46.1779 57.2288 46.068 57.4402C45.991 57.6178 45.9774 57.8164 46.0294 58.0028C46.0814 58.1892 46.1959 58.352 46.3537 58.464C46.3672 58.4775 46.392 58.509 46.3537 58.5203C46.1512 58.6305 46.1467 58.6553 45.9937 58.8825C45.9166 59.0453 45.8866 59.2265 45.9073 59.4055C45.928 59.5845 45.9985 59.7541 46.1107 59.895C46.195 60.0197 46.3052 60.1248 46.4338 60.2031C46.5624 60.2813 46.7064 60.3309 46.8559 60.3484C47.0055 60.3659 47.157 60.351 47.3002 60.3046C47.4434 60.2581 47.5749 60.1814 47.6857 60.0795C47.6947 60.0728 47.7262 60.0908 47.742 60.1245C47.8266 60.2572 47.9358 60.3726 48.0637 60.4642C48.22 60.5524 48.3963 60.5987 48.5756 60.5987C48.755 60.5987 48.9313 60.5524 49.0875 60.4642C49.2509 60.3741 49.3834 60.2368 49.4677 60.0702C49.552 59.9037 49.5841 59.7156 49.56 59.5305C49.5567 59.309 49.4671 59.0975 49.3102 58.941C49.281 58.905 49.3102 58.887 49.3867 58.8375C50.7465 58.0585 52.2439 57.5497 53.7967 57.339C54.6005 57.2152 55.4197 57.2319 56.2177 57.3885C56.7383 57.5076 57.2232 57.7481 57.633 58.0905C57.9671 58.3605 58.2732 58.6636 58.5465 58.995C58.6382 59.0101 58.7322 58.99 58.8097 58.9388C58.893 58.757 58.9388 58.5602 58.9442 58.3603C58.9496 58.1605 58.9146 57.9615 58.8412 57.7755C58.6551 57.2745 58.36 56.8211 57.9772 56.448C57.9705 56.4435 57.9705 56.4188 57.9705 56.403C57.9615 56.3355 58.0042 56.3018 58.0875 56.2253C58.442 55.8939 58.8785 55.6632 59.352 55.557C59.4127 55.5525 59.4375 55.5075 59.397 55.4378C59.2258 55.1255 58.9475 54.8856 58.6134 54.7624C58.2793 54.6392 57.9119 54.6409 57.579 54.7673C57.1407 54.952 56.7775 55.2827 56.5552 55.7033C56.5417 55.728 56.5057 55.8158 56.472 55.7887C56.2695 55.7708 55.9275 55.7167 55.7272 55.6987C55.635 55.6942 55.671 55.611 55.6733 55.5975C55.7564 55.3275 55.9066 55.0829 56.1097 54.8865C56.382 54.5729 56.7242 54.3278 57.1087 54.171C57.1165 54.1701 57.1238 54.1673 57.1302 54.1629C57.1366 54.1585 57.1418 54.1526 57.1454 54.1457C57.1489 54.1388 57.1507 54.1312 57.1506 54.1234C57.1505 54.1157 57.1485 54.108 57.1447 54.1012C57.0172 53.9457 56.8578 53.8193 56.6774 53.7304C56.4969 53.6416 56.2995 53.5923 56.0985 53.586C55.8425 53.5726 55.5865 53.6133 55.3472 53.7056C55.108 53.7979 54.891 53.9396 54.7102 54.1215C54.2797 54.577 54.013 55.1627 53.952 55.7865C53.9317 55.8383 53.907 55.8652 53.8687 55.8652C53.6618 55.8985 53.4528 55.9173 53.2432 55.9215C53.2095 55.9125 53.2118 55.8765 53.2118 55.8405C53.2155 55.5225 53.2933 55.2097 53.439 54.927C53.7244 54.3858 54.1523 53.933 54.6765 53.6175C54.7575 53.5612 54.762 53.4465 54.735 53.433C54.4821 53.3269 54.2105 53.2725 53.9362 53.2733ZM28.635 57.807H44.5402V62.7345H32.0235C31.2922 61.8942 30.6172 61.0065 30.003 60.0773C29.5192 59.3364 29.0622 58.5784 28.6327 57.8047L28.635 57.807ZM51.306 60.453C51.0906 60.4445 50.8773 60.4984 50.6917 60.6082C50.186 60.8742 49.8029 61.3258 49.623 61.8682C49.5177 62.2913 49.527 62.7348 49.65 63.153C49.6567 63.1688 49.677 63.207 49.6455 63.2205C49.47 63.288 49.3395 63.3667 49.1662 63.4365C49.1572 63.4365 49.1122 63.4477 49.1032 63.4252C48.9573 63.1636 48.8979 62.8626 48.9335 62.5651C48.969 62.2677 49.0978 61.9891 49.3013 61.7692C49.3395 61.7355 49.362 61.6905 49.2832 61.6635C49.0637 61.6297 48.8391 61.6518 48.6303 61.7277C48.4215 61.8036 48.2352 61.9309 48.0885 62.0978C47.9199 62.3009 47.807 62.5444 47.7608 62.8043C47.7147 63.0643 47.7369 63.3317 47.8252 63.5805C47.8693 63.7864 47.9444 63.9844 48.048 64.1677C48.0547 64.179 48.1155 64.215 48.0795 64.2308L47.742 64.4895C47.7353 64.4963 47.7105 64.5075 47.6992 64.4895C47.6314 64.3615 47.5388 64.2482 47.4268 64.1562C47.3147 64.0643 47.1856 63.9956 47.0467 63.954C46.9208 63.9242 46.7894 63.9267 46.6647 63.9613C46.54 63.9959 46.426 64.0615 46.3335 64.152C46.2335 64.2506 46.1607 64.3735 46.1224 64.5087C46.084 64.6438 46.0814 64.7866 46.1147 64.9231C46.148 65.0595 46.2162 65.185 46.3125 65.2873C46.4088 65.3895 46.53 65.4651 46.6642 65.5065C46.68 65.5133 46.7025 65.5335 46.6755 65.5515C46.496 65.673 46.3492 65.8368 46.248 66.0285C46.1871 66.1828 46.1727 66.3516 46.2067 66.5139C46.2407 66.6763 46.3215 66.8251 46.4392 66.942C46.5277 67.0196 46.6316 67.0775 46.744 67.1121C46.8565 67.1466 46.975 67.1569 47.0917 67.1423C47.2662 67.0851 47.4273 66.9932 47.5653 66.8722C47.7034 66.7512 47.8155 66.6035 47.895 66.438C47.8995 66.4313 47.9422 66.3997 47.9648 66.4245C48.1097 66.634 48.3178 66.7917 48.5588 66.8745C48.6819 66.9173 48.8143 66.9264 48.9421 66.9007C49.0699 66.8749 49.1885 66.8154 49.2855 66.7282C49.4177 66.6245 49.5133 66.4812 49.5582 66.3193C49.6031 66.1573 49.5951 65.9853 49.5352 65.8283C49.4265 65.6317 49.2712 65.4648 49.083 65.3423C49.0537 65.3198 49.0762 65.2635 49.1347 65.2185C50.0462 64.4856 51.1339 64.0046 52.2892 63.8235C53.078 63.7189 53.8801 63.8488 54.5955 64.197C54.875 64.361 55.1302 64.5632 55.3538 64.7977C55.383 64.8135 55.4662 64.8427 55.4955 64.8158C55.665 64.66 55.7678 64.4448 55.7824 64.2151C55.7971 63.9853 55.7225 63.7588 55.5742 63.5828C55.4466 63.4288 55.2889 63.3025 55.1108 63.2115C55.1034 63.2014 55.098 63.1899 55.095 63.1777C55.2343 62.8258 55.4688 62.5197 55.7722 62.2935C55.9799 62.1603 56.2028 62.0523 56.436 61.9717C56.4855 61.9582 56.4765 61.9268 56.4517 61.866C56.1637 61.2067 55.023 61.182 54.4852 61.5285C54.1568 61.7574 53.8895 62.0633 53.7068 62.4195C53.6955 62.442 53.6797 62.5095 53.6505 62.4893L53.1712 62.3452C53.1623 62.3452 53.1622 62.2912 53.1667 62.2822C53.3256 61.9735 53.5468 61.7011 53.8164 61.4823C54.0859 61.2635 54.398 61.103 54.7327 61.011C54.7665 60.9975 54.7552 60.966 54.7485 60.948C54.501 60.345 53.2612 60.3968 52.656 60.7815C52.0935 61.1545 51.6963 61.7298 51.5467 62.388C51.54 62.433 51.5602 62.4712 51.531 62.478C51.3628 62.5357 51.1896 62.5771 51.0135 62.6017C51.0004 62.6007 50.9881 62.5948 50.9789 62.5853C50.9698 62.5757 50.9645 62.5632 50.964 62.55C50.9196 62.2475 50.9724 61.9386 51.1147 61.668C51.3167 61.3315 51.5618 61.0229 51.8438 60.75C51.8531 60.7405 51.8603 60.7292 51.8651 60.7167C51.8698 60.7043 51.872 60.691 51.8713 60.6777C51.8707 60.6643 51.8673 60.6513 51.8614 60.6394C51.8555 60.6274 51.8472 60.6168 51.837 60.6082C51.676 60.5121 51.4934 60.4601 51.306 60.453ZM44.5425 63.369V71.0572C44.322 70.9852 44.061 70.8908 43.773 70.794C43.3725 70.659 42.9338 70.4542 42.4298 70.2382C40.9052 69.6003 39.431 68.8482 38.0197 67.9882C37.1185 67.4105 36.2564 66.7738 35.439 66.0825C34.429 65.2437 33.4773 64.3371 32.5905 63.369H44.538H44.5425Z" fill="#D5001C"/>
</g>
<defs>
<filter id="filter0_i_326_1363" x="24" y="18" width="42.0908" height="58" filterUnits="userSpaceOnUse" color-interpolation-filters="sRGB">
<feFlood flood-opacity="0" result="BackgroundImageFix"/>
<feBlend mode="normal" in="SourceGraphic" in2="BackgroundImageFix" result="shape"/>
<feColorMatrix in="SourceAlpha" type="matrix" values="0 0 0 0 0 0 0 0 0 0 0 0 0 0 0 0 0 0 127 0" result="hardAlpha"/>
<feOffset dy="4"/>
<feGaussianBlur stdDeviation="2"/>
<feComposite in2="hardAlpha" operator="arithmetic" k2="-1" k3="1"/>
<feColorMatrix type="matrix" values="0 0 0 0 0 0 0 0 0 0 0 0 0 0 0 0 0 0 0.5 0"/>
<feBlend mode="normal" in2="shape" result="effect1_innerShadow_326_1363"/>
</filter>
</defs>
</svg>
