<svg width="90" height="90" viewBox="0 0 90 90" fill="none" xmlns="http://www.w3.org/2000/svg">
<rect width="90" height="90" rx="10" fill="white"/>
<path d="M43.05 77.1L41.4406 73.5375H41.3656L39.5562 77.1H43.05ZM43.7438 79.4594H38.8813L37.8375 82H30.1875L35.7844 71.5031H47.1188L52.5312 82H44.8812L43.7438 79.4594ZM73.4813 75.9531H73.1531L69.8875 82H65.225L61.9688 75.9812L61.6594 75.9844L61.6313 82H54.6344V71.5031H65.6406L67.6 74.8031H67.6938L69.8375 71.5031H80.4719V82H73.475L73.4813 75.9531ZM16.2344 76.2656H17.6938C19.2594 76.2656 19.7156 75.7625 19.725 75.2594C19.7469 74.2875 19.5625 73.5312 17.7719 73.5312H16.2344V76.2656ZM17.8344 78.4625H16.275V82H9V71.5031H19.4937C24.9969 71.5031 27.2437 72.4094 27.5125 74.7438C27.6469 75.9062 27.0094 78.0031 24.4594 78.2125L28.2625 82H20.5656L17.8344 78.4625ZM44.25 8.2875C35.9938 8.29688 26.5688 8.77188 23.4375 9.0375C20.0219 9.32813 19.4094 9.55 19.4062 12.4344L19.3781 15.0531C19.3531 17.1094 19.3156 20.0125 19.3156 23.2812C19.3156 28.6063 19.6312 34.8969 20.0219 40.0719C20.4406 45.575 20.7719 49.9219 27.7031 54.0562C33.0281 57.2312 42.2906 61.8187 42.3813 61.8625C42.9156 62.1281 44.1469 62.7219 44.5656 62.8844C44.6964 62.9 44.8286 62.9 44.9594 62.8844C45.3875 62.7156 46.7469 62.0406 47.4156 61.7406C47.4813 61.7125 53.9063 58.7719 61.8156 54.0562C68.7469 49.9219 69.0781 45.575 69.5 40.0687C69.8906 34.8937 70.2063 28.6 70.2063 23.275C70.2063 20.0094 70.1688 17.1063 70.1437 15.05L70.1188 12.4313C70.1063 9.89062 69.625 9.32813 66.0844 9.03438C62.9531 8.775 53.5281 8.29062 45.2719 8.28125H44.25V8.2875ZM45.2781 7C53.5031 7.00938 62.925 7.43437 66.2156 7.75937C70.3937 8.16875 71.4094 8.36562 71.4094 12.4344C71.4094 15.6437 71.5563 29.9938 70.7875 40.1688C70.3563 45.8125 69.9844 50.6844 62.4813 55.1625C57.714 58.0082 52.801 60.6023 47.7625 62.9344C46.7906 63.3656 45.5094 64.0906 45.25 64.1437C44.9276 64.2016 44.5974 64.2016 44.275 64.1437C43.9875 64.0844 42.4219 63.3156 41.8187 63.0188C41.2156 62.725 32.2344 58.2531 27.05 55.1625C19.5469 50.6875 19.175 45.8156 18.7437 40.1688C17.9719 29.9938 18.1188 15.6406 18.1188 12.4344C18.1188 8.36562 19.1344 8.16875 23.3125 7.75937C26.6031 7.43437 36.025 7.00938 44.25 7H45.2781ZM33.1094 14.225C39.2031 14.225 42.3438 19.425 44.1469 23.2125L43.5812 26.3094C40.425 19.7469 36.6594 15.5719 32.1 15.5719C27.1719 15.5719 24.3969 21.8594 23.6844 22.9187C24.9563 19.6875 28.6562 14.225 33.1094 14.225ZM65.4313 22.9219C64.7156 21.8625 61.9437 15.575 57.0156 15.575C52.4562 15.575 48.6937 19.75 45.5344 26.3125L44.9656 23.2125C46.7656 19.425 49.9062 14.225 56.0031 14.225C60.4594 14.225 64.1625 19.6875 65.4313 22.9219ZM54.6688 35.7969C54.1594 36.0187 53.7687 36.1625 53.7687 36.1625L54.075 33.5187L55.7062 31.3813C56.2094 33.7844 56.1719 35.1406 54.6688 35.7969ZM34.75 35.7969C33.2469 35.1406 33.2094 33.7844 33.7125 31.3781L35.3438 33.5156L35.65 36.1594C35.65 36.1594 35.2563 36.0187 34.75 35.7969ZM60.8969 22.0156C56.9094 21.9375 53.4562 25.0187 51.125 32.4906L52.4344 33.3156L51.8937 36.4344L48.9188 37.4906L48.3344 41.5281L49.7781 39.6937L51.8063 39.2812L50.9031 41.7125L48.1063 43.2719L47.1125 49.7844L47.4875 52.2313L44.6125 53.3438V53.3469L41.975 52.2313L42.35 49.7844L41.3563 43.2719L38.5594 41.7125L37.6594 39.2812L39.6875 39.6937L41.1312 41.5281L40.5437 37.4906L37.5688 36.4344L37.0281 33.3156L38.3344 32.4906C36.0063 25.0219 32.5531 21.9406 28.5625 22.0156C25.375 22.0781 23.0062 25.7937 23.2719 29.7219L26.0375 30.05C27.0281 35.5906 27.95 42.6281 30.0375 42.6281C30.6719 42.6281 30.7 41.6313 30.7 40.825C30.7 38.8656 29.5187 36.5125 29.5187 32.7781C29.5187 31.0531 30.0781 29.5688 31.3531 29.5688C32.2188 29.5688 32.6094 29.8 33.0156 30.5531C32.6719 33.1094 32.6594 35.3031 34.6562 36.6562C35.0969 36.9531 36.05 37.85 36.05 37.85C36.05 37.85 37.6906 44.3094 37.7906 44.7406C37.8844 45.1344 38.1156 45.6719 38.2937 46L40.375 49.6344C40.375 49.6344 40.9969 53.5375 41.1281 54.2125C41.4562 55.8781 43.1531 56.0219 44.5375 56.0344H44.9219C46.3094 56.025 48.0031 55.8812 48.3312 54.2125C48.4625 53.5406 49.0844 49.6344 49.0844 49.6344L51.1656 46C51.3438 45.6719 51.5781 45.1344 51.6688 44.7406C51.7687 44.3094 53.4125 37.85 53.4125 37.85C53.4125 37.85 54.3656 36.9531 54.8063 36.6562C56.8 35.3031 56.7906 33.1094 56.4438 30.5531C56.8531 29.8 57.2406 29.5688 58.1063 29.5688C59.3813 29.5688 59.9406 31.0531 59.9406 32.7781C59.9406 36.5156 58.7594 38.8656 58.7594 40.825C58.7594 41.6344 58.7844 42.6281 59.4219 42.6281C61.5062 42.6281 62.4313 35.5906 63.4188 30.05L66.1844 29.7219C66.4531 25.7937 64.0844 22.0781 60.8969 22.0156ZM45.4188 11.6094C51.4438 11.6094 63.6938 12.225 64.4813 12.3031C65.5 12.3937 66.1719 12.5344 66.4 12.7812C66.6281 13.0125 66.6969 13.275 66.7344 13.8562C66.7719 14.3969 66.8063 16.5375 66.8063 16.5406C66.8281 18.4531 66.8625 21.15 66.8625 24.1844C66.8625 25.9656 66.85 27.8594 66.8188 29.7812L67.2313 30.05C67.2656 28.0375 67.2781 26.0469 67.2781 24.1844C67.2781 21.1469 67.2438 18.4469 67.2219 16.5344C67.2219 16.5312 67.1875 14.3969 67.15 13.8281C67.1125 13.2375 67.0312 12.8187 66.6937 12.4844C66.2687 12.0781 65.55 11.9938 64.5219 11.8844C63.6938 11.8031 51.475 11.1906 45.4188 11.1875C44.55 11.1937 43.6344 11.1781 42.75 11.1781C35.4906 11.1781 25.8156 11.8344 25.0156 11.8844C23.8313 11.9625 23.2031 11.9875 22.775 12.475C22.4437 12.8812 22.3469 13.4844 22.325 14.0781C22.3094 14.6563 22.3031 16.5344 22.3031 16.5375C22.2812 18.4469 22.2469 21.15 22.2469 24.1875C22.2469 26.0219 22.2594 27.9812 22.2937 29.9625L22.7062 29.6938C22.675 27.8062 22.6656 25.9406 22.6656 24.1875C22.6656 21.1531 22.7 18.4531 22.7219 16.5406C22.7219 16.5375 22.7281 14.6562 22.7469 14.0906C22.7594 13.5406 22.875 13.0031 23.1 12.7438C23.3313 12.4437 23.8375 12.3688 25.0406 12.3031C25.8438 12.2531 35.5063 11.5969 42.7438 11.5969L45.4188 11.6094ZM67.6719 30.5812L67.2156 31.4469C67.2156 31.4469 65.3969 31.6375 65.3344 31.6375C64.4563 38.6344 61.6156 46.1063 58.5125 46.1063C57.4906 46.1063 57.4625 44.5219 57.4625 42.6344C57.4625 41.8313 57.575 41.1156 57.7 40.4875C57.3688 41.1031 56.7969 43.3563 56.7969 45.2812C56.7969 47.5312 58.0625 48.7687 60.225 48.7687C62.4188 48.7687 64.2531 47.6969 65.4531 45.7031C64.6781 47.8469 63.1656 49.7063 59.9313 51.65C55.5823 54.2496 51.099 56.6175 46.5 58.7438C45.9344 58.9969 45.2 59.3281 44.6219 59.575C44.0906 59.3281 43.5812 59.0719 43.1531 58.8625C43.075 58.825 34.5 54.5781 29.5906 51.65C26.5625 49.8344 25.0437 48.0875 24.2281 46.1125C25.4219 47.8344 27.0875 48.7687 29.1187 48.7687C31.2812 48.7687 32.5469 47.5312 32.5469 45.2812C32.5469 43.3563 31.9781 41.1031 31.6437 40.4875C31.7719 41.1156 31.8813 41.8313 31.8813 42.6344C31.8813 44.5188 31.8531 46.1063 30.8312 46.1063C27.7281 46.1063 24.8781 38.6 24.0031 31.6031L22.2406 31.4219L21.6781 30.3719C21.6781 30.3719 21.575 33.7312 21.6875 35.9344C21.8 38.1406 22.0312 40.0344 22.7406 42.7156C22.875 43.2281 23.0312 43.7094 23.2094 44.1594C23.8281 47.1156 25.2656 49.5625 29.3781 52C34.3156 54.9437 42.8844 59.1875 42.9688 59.2281C43.4344 59.4562 44.0594 59.7687 44.6156 60.0219C45.2219 59.7687 46.05 59.3937 46.6719 59.1156C46.7375 59.0844 52.8313 56.3563 60.1469 51.9969C64.7031 49.2969 65.975 46.5875 66.4875 43.1844C66.5281 43.0281 66.5719 42.8719 66.6094 42.7094C67.2156 39.9969 67.4656 38.5781 67.5781 36.3719C67.6781 34.4781 67.675 31.4 67.6719 30.5812Z" fill="#3B3B3B"/>
</svg>
