<svg width="90" height="90" viewBox="0 0 90 90" fill="none" xmlns="http://www.w3.org/2000/svg">
<rect width="90" height="90" rx="10" fill="white"/>
<path d="M49.1921 19.2943H38.725V40.4613C37.4635 41.0657 36.0882 41.596 34.599 42.0369C33.8131 42.2639 33.0162 42.4512 32.2115 42.5981V20.2347C32.2115 20.2347 32.3961 17.0249 30.6146 15.9396V15.5387H47.3337C48.0844 16.4545 48.7583 17.6878 49.1921 19.2943ZM52.1396 48.2498C59.7238 44.6053 63.3759 38.192 63.4436 30.8413C63.4898 25.8402 61.7299 22.7692 59.7607 21.135C59.6443 21.0389 59.5243 20.9473 59.4007 20.8606C58.9993 19.1205 58.366 17.4425 57.5178 15.8717C57.8808 15.9242 58.2162 15.9827 58.5146 16.0475C64.0159 17.2192 68.4372 20.4752 70.5294 26.759C72.2339 31.8835 71.4062 38.2413 67.748 43.3381C66.8834 44.5437 64.5789 47.1183 61.9329 49.0176C61.4529 49.3629 61.1637 49.5541 60.6591 49.8717C63.9728 55.1935 65.6066 58.2491 67.7203 64.055C69.5663 69.124 70.9663 75.8642 71.157 77.449C71.6185 81.2199 72.7416 81.519 73 81.5961V82H59.7853V81.5992C60.1915 81.3833 63.7636 79.9157 63.782 74.3009C63.8005 70.1785 62.7975 65.6429 60.9699 60.5492C59.8584 57.5561 58.5457 54.6418 57.0409 51.8265L56.9978 51.7617C56.1225 52.1413 55.2268 52.4717 54.3149 52.7515C53.6288 51.1605 52.9303 49.7206 52.1396 48.2529V48.2498ZM38.725 47.8058V51.2468C39.7249 51.2037 42.8478 50.9508 45.66 50.402C46.2969 51.845 46.8507 53.214 47.2322 54.2777L47.2845 54.4258C46.0272 54.6262 44.7654 54.7968 43.5001 54.9376C41.9117 55.1096 40.3196 55.2443 38.725 55.3415V77.5723C38.725 78.0626 38.8388 80.6803 40.5402 81.5992V82H30.3962V81.5992C32.0515 80.7266 32.2115 78.0626 32.2115 77.5754V48.9929C34.4043 48.7212 36.577 48.3249 38.725 47.8058ZM40.131 11.8542L38.7096 11.8326H25.498V44.4388C26.8087 44.3802 31.6915 43.9702 34.8882 43.0205C45.5492 39.8601 50.6412 32.3923 50.7212 23.6171C50.7674 18.5142 48.9736 15.3784 46.9614 13.7134C45.7092 12.6743 44.0508 12.1841 42.8447 12.0052C42.1678 11.8696 40.6602 11.8511 40.131 11.8511V11.8542ZM18.8522 71.3841V12.7915C18.8522 12.7915 19.043 9.517 17.2215 8.41008V8H39.8234C41.7094 8.00308 44.177 8.19425 45.6907 8.52417C51.3027 9.71742 55.8163 13.0382 57.9516 19.4515C59.69 24.6808 58.8469 31.1682 55.1148 36.3698C54.2318 37.6031 51.8842 40.2239 49.1767 42.1664C48.7545 42.4708 48.3214 42.7598 47.8783 43.0328C51.2627 48.4657 52.9273 51.5829 55.0871 57.5091C56.9701 62.6798 58.3977 69.5618 58.5946 71.1744C59.0592 75.0224 60.2099 75.4109 60.4715 75.4911V75.8981H46.9891L46.986 75.488C47.4045 75.266 51.0474 73.6904 51.0658 67.9585C51.0874 63.7559 50.0628 59.1247 48.1983 53.9293C47.0625 50.8745 45.721 47.9005 44.1831 45.0278L44.14 44.9599C42.3494 45.777 38.565 46.8839 36.1097 47.3495C34.3529 47.6825 32.5715 47.9569 30.3716 48.2036C28.4548 48.4194 26.5964 48.5458 25.498 48.6168V71.3841C25.498 71.8805 25.6149 74.5538 27.3533 75.4911V75.8981H17V75.4911C18.6891 74.5969 18.8522 71.8836 18.8522 71.3841Z" fill="#3E2A51"/>
</svg>
