<svg width="90" height="90" viewBox="0 0 90 90" fill="none" xmlns="http://www.w3.org/2000/svg">
<rect width="90" height="90" rx="10" fill="white"/>
<path d="M38.0656 15.1151C46.2964 14.8253 54.5355 15.113 62.752 15.6401C63.6171 15.7151 64.4934 15.709 65.3451 15.8908C65.8059 16.0018 66.3038 16.1775 66.5733 16.5957C66.8191 17.0508 66.8243 17.582 66.888 18.0835C67.0835 20.5463 67.1411 23.0195 67.3252 25.4823C66.9693 25.5255 66.6134 25.471 66.2575 25.4597C59.9203 25.1319 53.5779 24.8597 47.2304 24.8514C43.943 24.8607 40.6515 24.8288 37.3671 24.9881C36.571 25.1052 35.6699 25.3713 35.2102 26.0803C37.6953 26.5211 40.1752 26.9968 42.6593 27.4458C50.8922 28.985 59.1313 30.4902 67.3643 32.0273C67.3571 33.587 67.3602 35.1468 67.3632 36.7065C62.7335 35.941 58.112 35.1149 53.4853 34.3248C43.5316 32.6109 33.5808 30.8735 23.624 29.1761C23.6435 27.4448 23.7176 25.7145 23.7536 23.9822C23.8163 22.6105 23.7772 21.2203 24.0879 19.8733C24.2967 18.9229 24.6834 17.9673 25.4045 17.2882C26.6491 16.0573 28.4491 15.711 30.1247 15.5374C32.7652 15.2928 35.4169 15.2127 38.0656 15.1151ZM23.5767 31.454C37.8372 34.0823 52.0926 36.7548 66.3511 39.3985C66.6628 39.4745 66.996 39.4807 67.2954 39.5947L67.3314 39.6769C67.2532 42.0134 67.2079 44.3519 67.1236 46.6884C67.0691 48.13 66.9168 49.6383 66.1742 50.9083C65.378 52.2214 63.8948 52.9478 62.427 53.2221C60.2638 53.628 58.0544 53.6547 55.8635 53.7749C46.4363 54.2023 36.9896 53.966 27.5779 53.3187C26.826 53.2663 26.0607 53.253 25.3304 53.0444C24.9519 52.9252 24.561 52.7331 24.3471 52.3837C24.1177 51.9255 24.1033 51.4025 24.0467 50.9031C23.8451 48.1772 23.7382 45.4462 23.5952 42.7172C28.4502 43.0255 33.3134 43.1981 38.1777 43.306C42.8743 43.382 47.5709 43.381 52.2675 43.4272C53.2806 43.4693 54.3761 43.2762 55.1445 42.5651C55.2566 42.4367 55.4387 42.3175 55.4201 42.1254C53.3033 41.8079 51.1988 41.4133 49.086 41.0661C40.5856 39.6142 32.0811 38.1758 23.5818 36.7157C23.5715 34.9618 23.5839 33.2079 23.5767 31.454ZM49.2753 65.2693C50.0159 64.4997 51.1298 64.2541 52.1626 64.2315C56.1535 64.2305 60.1445 64.2254 64.1355 64.2346C64.1417 67.6664 64.1489 71.0982 64.1324 74.5299H61.4138C61.3943 73.5323 61.3994 72.5336 61.4097 71.5359C57.9783 71.4701 54.5397 71.5379 51.1062 71.502C51.0146 72.5038 51.099 73.522 51.063 74.5299H48.3464C48.3094 72.3733 48.3464 70.2135 48.3279 68.0558C48.3248 67.0633 48.5501 65.9947 49.2753 65.2693ZM51.3201 67.0037C50.956 67.7722 51.1021 68.6497 51.063 69.4706C54.5088 69.4912 57.9567 69.4819 61.4025 69.4758C61.3953 68.3969 61.419 67.3171 61.3922 66.2392C58.5224 66.2608 55.6526 66.2403 52.7838 66.2505C52.2191 66.2577 51.5824 66.4601 51.3201 67.0037ZM67.4702 64.2408C72.6379 64.2141 77.8066 64.2418 82.9754 64.2274C83.0155 64.8994 82.997 65.5755 82.9846 66.2485C80.8523 66.2464 78.7211 66.2485 76.5888 66.2475C76.597 69.0083 76.5991 71.7691 76.5878 74.5299H73.8784C73.8218 72.0291 73.8702 69.5261 73.8527 67.0242C73.8229 66.7591 73.9463 66.4529 73.7889 66.2187C73.3374 66.2762 72.8827 66.2362 72.4301 66.2475C70.7772 66.2433 69.1242 66.2557 67.4712 66.2423C67.464 65.5755 67.461 64.9076 67.4702 64.2408Z" fill="#AB2328"/>
<path d="M9.19489 64.5881C9.91388 64.2244 10.7429 64.2234 11.5298 64.2305C15.6432 64.2367 19.7576 64.2182 23.871 64.2388C23.872 64.8933 23.8761 65.5478 23.8679 66.2023C19.6866 66.2393 15.5023 66.1982 11.321 66.2218C10.9826 66.2054 10.5506 66.3441 10.4776 66.7191C10.4426 67.0088 10.421 67.3767 10.6802 67.577C10.9137 67.7764 11.2408 67.7774 11.5308 67.8103C14.9355 68.0939 18.3412 68.3692 21.7459 68.6538C22.5369 68.7494 23.404 68.8943 23.9903 69.483C24.5571 70.043 24.6682 70.8896 24.6466 71.6489C24.6383 72.4236 24.4614 73.2631 23.8751 73.8148C23.3382 74.271 22.6161 74.4991 21.9156 74.457C17.4289 74.4457 12.94 74.4704 8.45327 74.4426C8.43475 73.7933 8.41624 73.1408 8.46458 72.4925C12.6767 72.5171 16.8899 72.4966 21.102 72.5028C21.389 72.511 21.7068 72.4812 21.9249 72.2747C22.182 71.9644 22.1944 71.502 22.0288 71.1465C21.8344 70.8372 21.4445 70.7766 21.1102 70.7571C18.1252 70.5023 15.1392 70.2577 12.1531 70.007C11.2274 69.9166 10.2718 69.9207 9.38929 69.5909C8.84311 69.3844 8.36995 68.9693 8.16423 68.4165C7.91325 67.8483 8.04285 67.2184 8.00377 66.6205C7.95234 65.7892 8.43166 64.9375 9.19489 64.5881ZM28.1572 64.2336C33.4185 64.2254 38.6798 64.2326 43.9411 64.2305C43.9884 64.2357 44.082 64.248 44.1293 64.2542C44.1283 64.9066 44.1149 65.5611 44.1334 66.2146C43.9709 66.2711 43.7961 66.2423 43.6294 66.2485C39.3864 66.2434 35.1445 66.2537 30.9025 66.2434C30.884 66.9102 30.8974 67.5781 30.8963 68.2459C34.0099 68.2644 37.1245 68.248 40.2381 68.2541C41.3583 68.2726 42.4836 68.2151 43.5996 68.2839C43.5903 68.922 43.5883 69.5611 43.6006 70.2002C43.3394 70.2433 43.0729 70.2341 42.8096 70.2331C38.8372 70.232 34.8647 70.2341 30.8922 70.232C30.9107 70.7941 30.8429 71.4054 31.1329 71.914C31.4333 72.4226 32.0885 72.4894 32.6223 72.5007C36.4549 72.5038 40.2875 72.5079 44.1211 72.4987C44.1334 73.1419 44.1221 73.7861 44.1252 74.4293C42.5586 74.4868 40.9839 74.4385 39.4142 74.457C36.708 74.4519 34.0027 74.4591 31.2975 74.4581C30.3481 74.3892 29.3555 74.0203 28.7743 73.2333C28.2662 72.548 28.1253 71.6684 28.1469 70.8352C28.1561 68.6343 28.1356 66.4335 28.1572 64.2336Z" fill="#AB2328"/>
</svg>
