<svg width="90" height="90" viewBox="0 0 90 90" fill="none" xmlns="http://www.w3.org/2000/svg">
<rect width="90" height="90" rx="10" fill="white"/>
<path d="M16 40.3822L74.9508 51.3463C74.8992 52.9615 74.7984 58.0133 74.6976 60.9412C74.5968 64.4271 73.8372 66.5487 72.4237 67.8614C70.4545 69.6314 68.129 70.0346 62.5731 70.337C49.7431 71.045 36.6623 70.9442 20.2431 69.7814C18.5247 69.6831 17.8683 69.3266 17.566 69.125C16.858 68.6211 16.7572 68.0655 16.5556 65.1843C16.4032 63.2152 16.1524 57.5069 16.0516 55.587C23.6774 56.0934 35.3471 56.4966 44.8436 56.4966C47.2184 56.4966 53.4306 56.5457 55.0973 56.5457C56.4101 56.5457 58.1285 56.1942 58.9864 54.8298L16 47.504V40.3822ZM16.0492 37.3019C16.1008 35.4336 16.2016 30.7873 16.3024 28.0586C16.4032 24.5726 17.1628 22.4511 18.5763 21.1383C20.5455 19.3683 22.871 18.9652 28.4269 18.6628C41.2569 17.9548 54.3377 18.0556 70.7569 19.2184C72.4753 19.3167 73.1317 19.6732 73.434 19.8748C74.142 20.3787 74.2428 20.9343 74.4444 23.8155C74.5452 25.4822 74.7984 29.9269 74.8992 32.3508C69.2426 32.0484 59.6428 31.5936 51.309 31.4904C42.9753 31.3921 35.4479 31.542 34.5383 31.6453C32.7191 31.896 31.8612 32.7564 31.608 33.108L75 41.1418V47.4548L16.0492 37.3019Z" fill="#33302E"/>
</svg>
