<svg width="90" height="90" viewBox="0 0 90 90" fill="none" xmlns="http://www.w3.org/2000/svg">
<rect width="90" height="90" rx="10" fill="white"/>
<g clip-path="url(#clip0_947_1759)" filter="url(#filter0_i_947_1759)">
<path d="M45.5 13C28.1031 13 14 27.1031 14 44.5C14 61.8969 28.1031 76 45.5 76C62.8969 76 77 61.8969 77 44.5C77 27.1031 62.8969 13 45.5 13ZM45.5 73.2794C29.6056 73.2794 16.7205 60.3944 16.7205 44.5C16.7205 28.6056 29.6056 15.7205 45.5 15.7205C61.3944 15.7205 74.2794 28.6056 74.2794 44.5C74.2794 60.3944 61.3944 73.2794 45.5 73.2794ZM59.1211 54.2941L58.415 56.2007H55.832C56.5224 54.3398 65.225 33.5792 48.1245 19.4982C44.5346 19.1178 40.905 19.5193 37.4851 20.675C38.0552 21.1343 43.9793 25.9974 46.7705 32.0019L45.9515 32.2224C44.413 30.5458 38.823 24.3912 33.4964 22.4104C30.6302 23.9729 28.0942 26.0765 26.0288 28.6046C28.5304 29.8843 35.0672 33.7884 37.5515 36.8213C37.4092 36.8854 36.8506 37.1862 36.8506 37.1862C32.2936 33.7225 24.1984 31.9249 23.7847 31.8357C22.0829 34.7446 20.9875 37.9679 20.5646 41.3114C33.1013 43.8348 36.4768 49.6366 37.0543 56.2007H34.6797L30.5992 54.422C30.3866 54.3423 30.1633 54.2953 29.9366 54.2826H22.3388C23.5416 57.122 25.2559 59.7161 27.3964 61.9358H30.6341C30.9131 61.9358 31.1573 61.9009 31.4014 61.7615L34.6797 60.0872H58.415L59.1211 61.994C62.0701 61.654 64.8068 60.2918 66.8559 58.144C64.8066 55.9963 62.0701 54.6341 59.1211 54.2941ZM48.2536 52.7753C47.7426 52.4332 47.3443 51.9475 47.1089 51.3793C46.8736 50.8112 46.8117 50.1861 46.9312 49.5828C47.0516 48.9796 47.348 48.4257 47.783 47.9908C48.2179 47.5559 48.7719 47.2596 49.375 47.1392C49.9782 47.0198 50.6033 47.0817 51.1714 47.317C51.7395 47.5524 52.2252 47.9507 52.5673 48.4617C53.3805 49.6786 53.2401 51.3292 52.1806 52.3887C51.1222 53.4471 49.4721 53.5893 48.2536 52.7753Z" fill="#0E3A2F"/>
</g>
<defs>
<filter id="filter0_i_947_1759" x="14" y="13" width="63" height="67" filterUnits="userSpaceOnUse" color-interpolation-filters="sRGB">
<feFlood flood-opacity="0" result="BackgroundImageFix"/>
<feBlend mode="normal" in="SourceGraphic" in2="BackgroundImageFix" result="shape"/>
<feColorMatrix in="SourceAlpha" type="matrix" values="0 0 0 0 0 0 0 0 0 0 0 0 0 0 0 0 0 0 127 0" result="hardAlpha"/>
<feOffset dy="4"/>
<feGaussianBlur stdDeviation="2"/>
<feComposite in2="hardAlpha" operator="arithmetic" k2="-1" k3="1"/>
<feColorMatrix type="matrix" values="0 0 0 0 0 0 0 0 0 0 0 0 0 0 0 0 0 0 0.4 0"/>
<feBlend mode="normal" in2="shape" result="effect1_innerShadow_947_1759"/>
</filter>
<clipPath id="clip0_947_1759">
<rect width="63" height="63" fill="white" transform="translate(14 13)"/>
</clipPath>
</defs>
</svg>
