<svg width="90" height="90" viewBox="0 0 90 90" fill="none" xmlns="http://www.w3.org/2000/svg">
<rect width="90" height="90" rx="10" fill="white"/>
<path d="M45.4996 9.00089H45.5004C55.2767 9.00089 64.1521 12.9882 70.5822 19.4186C77.0131 25.8491 81 34.7232 81 44.4989V44.5015C81 54.2773 77.0131 63.1527 70.5822 69.5827C64.1512 76.0127 55.2776 79.9996 45.5018 80H45.4996C35.7233 79.9996 26.8483 76.0127 20.4174 69.5822C13.9873 63.1518 10.0009 54.2777 10 44.502V44.4993C10.0004 34.7232 13.9873 25.8478 20.4183 19.4173C26.8483 12.9873 35.7229 9.00044 45.4987 9H45.4996V9.00089ZM45.5004 9.85205H45.4978C35.9573 9.85249 27.2954 13.7436 21.0191 20.0199C14.7423 26.2966 10.8507 34.9589 10.8507 44.5002V44.5029C10.8512 54.0433 14.7423 62.7052 21.0186 68.981C27.2954 75.2577 35.9573 79.1493 45.4991 79.1493H45.5013C55.0418 79.1488 63.7037 75.2577 69.9805 68.9819C76.2563 62.7052 80.1479 54.0433 80.1488 44.502V44.4993C80.1479 34.9584 76.2572 26.2966 69.9805 20.0203C63.7042 13.7436 55.0423 9.85249 45.5004 9.85205Z" fill="#00822D"/>
<path fill-rule="evenodd" clip-rule="evenodd" d="M18.9308 23.6279L19.3933 23.1074L20.5199 23.0683L20.3975 21.9782L20.8568 21.4616L21.5196 23.1044L20.6899 24.0375L18.9308 23.6279ZM32.0131 23.5236L29.0736 17.6317L30.6995 16.8569L32.0344 19.5323L32.606 15.9477L34.5199 15.035L33.7267 18.9701L37.6531 20.8342L35.6033 21.8117L32.3198 20.1037L33.6391 22.7483L32.0131 23.5236ZM44.9239 18.3644C45.4305 18.3644 45.8493 18.1827 46.1805 17.8187C46.5116 17.4535 46.6777 16.9934 46.6777 16.439C46.6777 15.8903 46.5099 15.4315 46.1742 15.0632C45.8382 14.6967 45.4207 14.5132 44.9235 14.5132C44.4169 14.5132 43.9977 14.6967 43.6665 15.0619C43.3349 15.4268 43.1693 15.8868 43.1693 16.439C43.1693 16.9999 43.3318 17.4613 43.6585 17.8222C43.9856 18.184 44.4076 18.3644 44.9239 18.3644ZM48.5048 16.4386C48.508 16.8932 48.4174 17.3438 48.2387 17.7635C48.0594 18.1793 47.7963 18.5557 47.4651 18.8701C47.1269 19.1897 46.7291 19.4429 46.2931 19.6158C45.8533 19.7897 45.3971 19.8776 44.9235 19.8776C44.4519 19.8791 43.9846 19.7901 43.5481 19.6158C43.1156 19.4445 42.7222 19.1911 42.3908 18.8701C42.0541 18.5558 41.7866 18.1776 41.6047 17.7587C41.4267 17.3448 41.3377 16.9047 41.3377 16.4386C41.3377 15.9694 41.4267 15.5289 41.6047 15.115C41.7846 14.7023 42.0458 14.3323 42.3908 14.0075C42.722 13.6862 43.1154 13.4325 43.5481 13.2613C43.9846 13.0872 44.4519 12.9984 44.9235 13C45.3997 13 45.8582 13.087 46.2993 13.2613C46.7345 13.4325 47.1307 13.6861 47.4651 14.0075C47.7973 14.3232 48.0608 14.7014 48.2395 15.1192C48.4182 15.537 48.5084 15.9858 48.5048 16.4386ZM55.6658 20.0485L55.9475 20.1659C56.6081 20.4398 57.1489 20.5085 57.5682 20.3685C57.9861 20.2302 58.32 19.8719 58.5714 19.2936C58.8216 18.717 58.855 18.2309 58.6671 17.8361C58.4802 17.4413 58.056 17.1052 57.3955 16.8312L57.1137 16.7138L55.6658 20.0485ZM53.4144 20.7094L56.0339 14.6758L57.3189 15.2093C58.2768 15.6068 58.9369 15.9325 59.2956 16.1855C59.6366 16.42 59.9275 16.7172 60.152 17.0604C60.4227 17.4789 60.5762 17.9594 60.5971 18.454C60.6189 18.9545 60.5135 19.4719 60.2824 20.0037C60.051 20.5372 59.7434 20.9707 59.3602 21.3029C58.9822 21.6323 58.5218 21.8582 58.0257 21.9578C57.6274 22.0371 57.2171 22.041 56.8173 21.9691C56.3966 21.8965 55.7855 21.6938 54.983 21.3603L54.6985 21.2429L53.4144 20.7094ZM62.3313 25.2411L68.955 22.7604L70.4269 24.4758L66.7802 30.4242L65.6117 29.0632L66.3132 28.054L64.6441 26.1099L63.5001 26.603L62.3313 25.2411ZM65.8966 25.5846L67.0659 26.946L68.3211 25.0441C68.3585 24.9867 68.4222 24.8967 68.5143 24.775L68.8646 24.3058C68.7124 24.381 68.5682 24.4497 68.4275 24.5149C68.2891 24.581 68.1556 24.641 68.0242 24.6984L65.8966 25.5846ZM23.9441 28.2035C24.355 28.2005 24.7061 28.1505 24.9937 28.0531C25.2826 27.9566 25.5127 27.8118 25.6849 27.6183C25.8447 27.4382 25.9275 27.2469 25.9311 27.0478C25.9358 26.9543 25.9183 26.861 25.8798 26.7753C25.8413 26.6896 25.783 26.6138 25.7094 26.5538C25.5412 26.4103 25.3671 26.3499 25.1873 26.3729C25.007 26.396 24.7106 26.543 24.2998 26.8138C23.7363 27.1847 23.2569 27.3791 22.8643 27.3987C22.4717 27.4169 22.0889 27.2674 21.7159 26.9504C21.2325 26.5395 20.9775 26.0455 20.9539 25.4685C20.9289 24.8928 21.1422 24.3532 21.5908 23.8488C21.8226 23.5847 22.0929 23.3553 22.3929 23.1679C22.6894 22.9862 23.0126 22.8498 23.3512 22.7635L23.9677 24.0288C23.717 24.0631 23.4733 24.1352 23.2453 24.2427C23.0455 24.3384 22.8667 24.4713 22.7192 24.6341C22.5745 24.7967 22.4975 24.9624 22.4864 25.1311C22.4753 25.2994 22.5327 25.4376 22.6564 25.5424C22.7837 25.6507 22.9253 25.692 23.0797 25.6677C23.2355 25.6437 23.4603 25.5333 23.7558 25.3389L23.8275 25.2933C24.4676 24.8715 24.9563 24.6524 25.2919 24.6341C25.5264 24.6235 25.7604 24.6622 25.9783 24.7476C26.2199 24.8429 26.443 24.9782 26.6375 25.1476C27.1743 25.6042 27.4534 26.1429 27.4721 26.7643C27.4925 27.3869 27.2473 27.9844 26.7363 28.5583C26.4296 28.9036 26.0904 29.1658 25.7206 29.3475C25.3489 29.5271 24.9189 29.6406 24.4306 29.6841L23.9441 28.2035ZM45.5008 73.0827C47.5114 73.9949 48.8307 75.2264 49.9443 77C50.0009 75.0924 48.8271 73.8215 47.3066 72.7288C47.8283 72.7179 48.349 72.7061 48.8689 72.6957C50.1059 73.4301 51.4239 74.1071 53.3111 74.3902C55.6253 74.1184 57.4293 73.3492 58.7254 72.0843C57.638 71.4512 56.4349 71.2704 54.9767 72.0843C53.3832 72.6805 52.1748 72.6861 51.2289 72.2883C52.6052 71.87 53.9824 71.4512 55.3582 71.0338C56.0753 70.8299 56.7937 70.6264 57.5099 70.4238C58.3662 70.7177 59.2217 71.0112 60.0781 71.3043C60.5642 71.8469 61.004 71.9826 61.397 71.7117C61.8831 71.5078 61.9525 71.0782 61.6058 70.4238C61.1891 70.1059 60.773 70.0607 60.3563 70.2877L58.5514 69.6776L60.1129 69.0336C62.0108 69.4632 63.838 69.4415 65.7359 68.4236C67.0833 67.4905 68.3091 66.3834 69.3796 64.9998C68.2374 64.6685 67.26 64.8776 66.3951 65.542C65.0451 66.9713 63.3261 67.5287 61.8831 67.7796C63.4681 66.4573 65.2962 65.0337 66.8812 63.7114L68.9643 63.9828C69.5189 64.1184 69.9823 64.0728 70.3517 63.8475C71.1427 62.5544 70.3891 62.4552 69.4148 62.5244C69.1949 62.7166 69.0444 62.9762 68.8254 63.1683C68.5009 63.0557 67.7955 63.1796 67.4719 63.0675C67.9343 62.6379 68.7097 61.9026 69.1722 61.4738C71.562 60.9034 73.2267 59.3437 74.6898 57.5074C74.2273 57.3939 73.7639 57.2809 73.3015 57.1683C73.4172 56.8743 73.6709 56.626 74.0657 56.423L74.9332 55.9812C75.1647 55.0315 74.7944 54.6706 73.8222 54.8963L73.2667 55.9812C72.965 56.366 72.746 56.5134 72.5381 56.6256C72.527 56.1164 72.5145 55.6081 72.5034 55.0994L71.254 55.7781C71.1008 55.0428 71.4373 54.625 71.8442 54.2519C71.6928 53.2244 71.2651 53.0101 70.56 53.6079C70.739 54.4054 70.5939 54.8859 70.1261 55.0489L69.449 54.3537C68.16 56.2573 67.9512 58.4723 68.2343 60.8294L66.7414 62.5587L66.3947 60.5925L66.8113 60.1172C66.6262 58.7588 65.4698 58.758 65.2846 59.7111C65.1671 59.9802 65.1324 60.2842 65.666 60.8294C65.7591 61.6204 65.8512 62.4118 65.9434 63.2027C64.4046 64.4576 62.9006 65.9477 61.3627 67.2035C61.3391 67.09 61.2817 66.7395 61.2586 66.6269C61.9783 65.4368 62.6669 64.2445 64.0352 63.5079C64.4638 62.5683 64.73 61.7434 64.4518 60.9312C62.581 62.21 61.0476 63.6736 60.0096 65.4064C59.8591 66.2082 59.7078 67.0109 59.5583 67.8135C58.9792 68.1749 58.401 68.5358 57.8232 68.898C57.8343 68.4123 58.1241 67.9257 58.1352 67.4405C59.5097 65.7277 57.4867 65.0407 56.9895 66.5921C57.1644 67.5983 57.1636 68.4123 56.7817 69.2376C54.7568 70.0163 52.9408 70.7968 50.916 71.5765C50.9049 71.4065 51.1359 70.9325 51.1248 70.7625C52.282 69.6776 53.312 69.2376 55.1161 68.9658C55.8905 68.344 56.2035 67.7 56.053 66.8978C54.3959 67.1891 52.7476 67.6353 51.3673 68.5584C50.0721 69.3385 49.2286 70.3894 49.0425 71.7117C48.2556 71.7791 47.4691 71.8474 46.6821 71.9156C47.1793 71.3839 47.6765 70.8534 48.175 70.322C48.4412 70.1972 48.7069 70.0733 48.9731 69.9494C49.3123 68.4649 48.593 68.4888 47.7237 68.7284C47.4566 69.0154 47.3542 69.3663 47.376 69.7454C46.8214 70.3338 46.2659 70.9208 45.5003 71.2865L43.6242 69.3002C43.6999 68.9145 43.5846 68.5762 43.277 68.2831C42.4073 68.0431 41.6889 68.0196 42.0276 69.5046C42.3147 69.772 42.5867 69.9381 42.8257 69.8768C43.3229 70.409 43.8205 70.9395 44.3181 71.4704C43.5314 71.403 42.7448 71.3351 41.9582 71.2664C41.7721 69.9442 40.9286 68.8932 39.6329 68.114C38.2526 67.19 36.6044 66.7439 34.9477 66.453C34.7972 67.2548 35.1097 67.8988 35.8846 68.5205C37.6882 68.7919 38.7187 69.2328 39.8759 70.3172C39.8639 70.4873 40.0958 70.9616 40.0842 71.1317C38.059 70.3516 36.2434 69.572 34.219 68.7919C33.8371 67.967 33.8367 67.153 34.0107 66.1477C33.514 64.5959 31.4905 65.2833 32.8655 66.9952C32.877 67.4813 33.1659 67.9666 33.1779 68.4527C32.5993 68.0918 32.0206 67.7296 31.4424 67.3683L30.9911 64.9611C29.9527 63.2292 28.4197 61.7647 26.5489 60.4859C26.2703 61.2982 26.536 62.123 26.9655 63.0627C28.3333 63.7988 29.0215 64.992 29.7417 66.1817C29.7185 66.2951 29.6607 66.6447 29.6375 66.7582C28.0988 65.5038 26.5952 64.0119 25.0564 62.7574L25.3342 60.3842C25.8679 59.8394 25.8332 59.535 25.7157 59.2658C25.53 58.3136 24.3736 58.3144 24.1885 59.6724L24.6051 60.1472L24.2584 62.1135L22.7655 60.3842C23.049 58.027 22.8402 55.8125 21.5508 53.9088C21.3246 54.1402 21.099 54.3719 20.8737 54.6037C20.4059 54.4406 20.2613 53.9601 20.4402 53.1636C19.7352 52.5648 19.307 52.7792 19.1561 53.8071C19.5629 54.1793 19.8985 54.5972 19.7458 55.3333C19.3297 55.1068 18.913 54.8811 18.4964 54.655L18.4617 56.1799C18.2547 56.0677 18.0348 55.9207 17.7326 55.5359C17.5479 55.1746 17.3627 54.8128 17.1771 54.4515C16.2059 54.2254 15.8356 54.5872 16.0666 55.5359C16.3559 55.6838 16.6452 55.8307 16.9341 55.9777C17.3284 56.1803 17.5822 56.4295 17.6979 56.723L16.3096 57.0622C17.7727 58.8984 19.4378 60.459 21.8276 61.0286C22.2905 61.4582 23.0659 62.1926 23.5284 62.6222C23.2043 62.7353 22.4988 62.6113 22.1748 62.7235C21.9554 62.5318 21.8049 62.2717 21.5846 62.08C20.6107 62.01 19.8567 62.11 20.6476 63.4023C21.0175 63.6275 21.4804 63.6732 22.0359 63.5379C22.7303 63.4475 23.4242 63.3566 24.1182 63.267C25.7032 64.5885 27.5313 66.0125 29.1159 67.3352C27.6728 67.0839 25.9538 66.5265 24.6042 65.0972C23.7398 64.4328 22.7624 64.2237 21.6193 64.555C22.6894 65.9395 23.9156 67.0461 25.2634 67.9792C27.1609 68.9971 28.9885 69.0189 30.8856 68.5897L32.4475 69.2332C31.8457 69.4363 31.2444 69.6402 30.643 69.8437C30.226 69.6172 29.8102 69.662 29.3932 69.9794C29.0464 70.6334 29.1154 71.063 29.6015 71.2669C29.9949 71.5378 30.4347 71.4025 30.9203 70.8608C31.7763 70.566 32.6327 70.2725 33.4886 69.9794L35.6403 70.589C37.017 71.0069 38.3933 71.426 39.77 71.8435C38.8241 72.2417 37.6157 72.2357 36.0222 71.6404C34.5649 70.8255 33.3613 71.0069 32.2739 71.6404C33.5696 72.9044 35.3741 73.6736 37.6882 73.9454C39.5755 73.6636 40.8935 72.9862 42.1309 72.2509C42.6508 72.2622 43.1715 72.2726 43.6923 72.2844C42.1727 73.3771 40.9989 74.6481 41.055 76.5565C42.17 74.7811 43.4898 73.5493 45.5008 73.0827Z" fill="#00822D"/>
<path fill-rule="evenodd" clip-rule="evenodd" d="M63 56.1303C62.3395 54.5549 56.6918 50.6496 55.9571 54.6307L53.924 54.25C58.2977 45.0649 56.9724 27.7258 46.7344 26.0254C45.1742 25.7732 38.8152 27.4308 41.7228 29.553C43.686 30.9858 44.766 31.8983 45.7543 34.1224L44.8932 34.6166C43.2674 32.5029 41.3368 30.3221 39.11 29.0828C36.7274 27.8269 31.1627 34.0184 31.8548 34.304C34.0816 35.3334 36.9593 36.663 38.599 37.8294L37.8911 38.9432C35.6318 37.6496 32.0224 35.8777 30.2069 35.9856C29.2759 36.1183 27.2641 42.5513 28.2789 42.8014C30.3767 42.9731 34.3061 45.0563 36.1112 45.9616C37.3761 46.9524 41.2408 53.3696 39.6824 54.2847C39.1821 54.5788 37.6232 54.2393 36.0461 53.4672C28.7961 50.5627 28.2463 53.7931 29.6085 54.7861C30.7015 55.458 30.3267 56.645 30.3802 56.9477C30.3228 58.7423 32.2721 60.1571 36.0322 57.6328C43.7416 57.733 48.1261 57.8919 55.8464 58.0054C56.5559 60.2389 61.4259 57.9797 63 56.1303ZM51.0459 47.6089C51.9057 48.4563 51.9222 49.8244 51.0806 50.6539C50.24 51.4829 48.8534 51.4675 47.9928 50.6192C47.133 49.7713 47.1174 48.4032 47.9589 47.5746C48.7992 46.7452 50.1857 46.7606 51.0459 47.6089Z" fill="#00822D"/>
<path d="M45.5 21H45.5009C51.9728 21 57.8476 23.6393 62.104 27.8965C66.3603 32.1529 68.9991 38.0273 69 44.498V44.5007C68.9991 50.9722 66.3603 56.8475 62.1031 61.1039C57.8467 65.3603 51.9724 67.9996 45.5018 68H45.4991C39.0276 67.9996 33.1524 65.3603 28.896 61.1035C24.6397 56.8471 22.0009 50.9722 22 44.502V44.4989C22.0004 38.0273 24.6397 32.1525 28.8965 27.8957C33.1528 23.6393 39.0272 21.0004 45.4982 21H45.5ZM45.5009 21.8504H45.4982C39.2622 21.8508 33.6004 24.3945 29.4972 28.4968C25.3945 32.5996 22.8504 38.2619 22.8504 44.4989V44.502C22.8504 50.7381 25.394 56.4 29.4968 60.5027C33.5999 64.606 39.2622 67.1501 45.4987 67.1501H45.5013C51.7378 67.1496 57.3992 64.606 61.5019 60.5032C65.6047 56.4 68.1492 50.7376 68.1492 44.5011V44.498C68.1483 38.2619 65.6055 32.6 61.5028 28.4973C57.4001 24.3945 51.7378 21.8504 45.5009 21.8504Z" fill="#00822D"/>
</svg>
