<svg width="90" height="90" viewBox="0 0 90 90" fill="none" xmlns="http://www.w3.org/2000/svg">
<rect width="90" height="90" rx="10" fill="white"/>
<path fill-rule="evenodd" clip-rule="evenodd" d="M13.5793 57C16.2754 57 15.9389 59.9557 15.9867 60.08H13.1941C13.1941 60.0548 13.1941 59.1855 12.4241 59.1855H6.79146C5.68405 59.1855 5.68405 61.1732 6.69491 61.2225C8.52451 61.3216 11.5093 61.2965 13.9645 61.4207C15.1197 61.4957 16.1311 62.2654 16.1311 63.5569C16.1311 63.6062 16.1794 65.7922 16.1794 65.7922C16.2032 67.2819 14.952 67.9776 13.7241 67.9776H5.68405C4.33623 67.9776 3.22882 66.9599 3.03621 65.593C2.98793 65.2638 2.98793 64.929 3.03621 64.5998H5.82839C5.82839 64.5998 5.78012 65.8415 6.9836 65.8415C9.10187 65.8415 10.3053 65.8918 12.231 65.8415C13.6754 65.8163 13.9158 63.656 12.231 63.5569C10.2093 63.4578 8.66837 63.3833 6.11707 63.3084C4.38403 63.2591 3.1318 62.5638 3.1318 61.1229V58.8876C3.1318 57.8447 4.09487 57 5.44268 57H13.5793ZM20.2238 57.3476C20.1755 57.4226 20.2238 61.7191 20.2238 64.9978C20.2238 65.4697 20.5124 65.8415 21.0898 65.8415H26.482C27.0599 65.8415 27.2042 65.3454 27.2042 64.948C27.2525 62.0174 27.2525 57.4724 27.2042 57.3979H30.2851C30.2851 57.3979 30.3095 62.8616 30.3334 65.7922C30.3577 67.1088 29.2742 67.9525 27.7338 67.9776C24.8451 68.0279 23.4007 67.9776 20.7046 67.9776C18.8267 67.9776 17.2141 67.4066 17.1897 65.7922C17.1658 62.4637 17.0937 57.4226 17.1415 57.3476H20.2238ZM41.0213 57.3979C43.8617 57.3979 44.1504 59.5341 44.1504 60.1796C44.1504 61.9178 42.7304 62.6382 42.6578 62.6634C42.6822 62.6634 44.343 63.3089 44.343 64.9978C44.343 65.9416 44.1987 67.9525 41.0208 67.9776C37.3621 68.0279 31.4642 67.9776 31.4403 67.9776V57.3979H41.0213ZM40.2513 61.7684C40.8287 61.7684 41.3104 61.4207 41.3104 60.6263C41.3104 59.9311 40.757 59.5341 40.1552 59.5341C38.1335 59.5341 34.5948 59.4838 34.5226 59.5341V61.7684C34.5943 61.8182 38.0365 61.7684 40.2513 61.7684ZM40.2991 65.8415C40.9008 65.8415 41.5026 65.4948 41.5026 64.6994C41.5026 63.9539 40.9008 63.4829 40.2508 63.5071C38.373 63.5322 34.5938 63.5071 34.5216 63.5574V65.842C34.5943 65.8913 37.8439 65.8415 40.2991 65.8415ZM49.784 57.3979H53.5383L59.0758 67.9776H56.0418L54.9349 65.8415H48.4835L47.3278 67.9776H44.247L49.784 57.3979ZM51.6126 59.7323L49.5909 63.5569H53.7319L51.6126 59.7323ZM68.6563 59.5341C69.4263 59.5341 69.9081 60.4769 69.9081 61.2225C69.9081 61.9681 69.4019 62.7625 68.6563 62.7625C66.441 62.7625 63.071 62.7876 63.0237 62.7625V59.5341C63.0954 59.4838 66.6337 59.5341 68.6563 59.5341ZM63.0237 64.6989C63.0471 64.6989 66.7307 64.7241 68.5603 64.6989C69.3537 64.6738 70.0037 65.5436 70.0037 66.2892V67.9776H72.7481V66.3385C72.7481 64.7986 71.1837 63.9045 71.1594 63.9045C71.232 63.8794 72.7008 62.8616 72.7008 61.1732C72.7008 59.1855 71.9308 57.3979 69.0898 57.3979H59.9424V67.9776H63.0237V64.6989ZM76.889 57.3476C76.8164 57.4468 76.9368 61.7191 76.9368 64.9978C76.9368 65.4697 77.1777 65.8415 77.8038 65.8415H83.1473C83.7252 65.8415 83.87 65.3454 83.87 64.948C83.9178 62.0174 83.966 57.4724 83.9178 57.3979H86.9518C86.9518 57.3979 86.9752 62.8616 86.9996 65.7922C87.024 67.1088 85.9887 67.9525 84.4483 67.9776C81.5113 68.0279 80.0664 67.9776 77.4191 67.9776C75.5417 67.9776 73.8803 67.4318 73.8569 65.7922C73.8082 62.4637 73.8082 57.4226 73.8569 57.3476H76.889Z" fill="#002B7F"/>
<path d="M45.9333 21.7863C38.9405 21.7863 32.4874 23.6372 27.7314 26.4455C22.8602 29.3221 19.7866 33.1898 19.7866 37.067C19.7866 40.9355 22.8464 44.7609 27.6985 47.602C32.4563 50.3878 38.9232 52.2154 45.9324 52.2154C52.998 52.2154 59.4918 50.3913 64.2668 47.6098C69.145 44.7669 72.2108 40.9381 72.2108 37.067C72.2108 33.1855 69.1311 29.3143 64.2348 26.4369C59.4658 23.6338 52.9858 21.7863 45.9333 21.7863ZM27.3321 25.7698C32.1998 22.895 38.7958 21 45.9333 21C53.1279 21 59.7482 22.8906 64.6333 25.7603C69.7687 28.7786 73 32.8925 73 37.0652C73 41.231 69.7817 45.3044 64.6636 48.2864C59.7785 51.1327 53.1426 53 45.9333 53C38.7828 53 32.1738 51.1284 27.3026 48.276C22.2105 45.294 19 41.2267 19 37.0652C18.9991 32.8977 22.2226 28.7872 27.3321 25.7698Z" fill="#002B7F"/>
<path fill-rule="evenodd" clip-rule="evenodd" d="M38.1479 30.9674L50.2276 33.5626L38.2788 36.0267L35.6534 42.5134L33.028 35.8973L22 33.5626L33.028 31.227L35.5225 25L38.1479 30.9674ZM51.4085 37.0643L56.5275 38.1027L51.4085 39.2705L50.3568 41.9942L49.1758 39.1402L44.4496 38.1027L49.1758 37.0643L50.2276 34.4699L51.4085 37.0643ZM63.881 37.0643L69 38.1027L63.881 39.2705L62.8292 41.9942L61.6483 39.1402L57.0521 38.1027L61.6483 37.0643L62.8292 34.4699L63.881 37.0643ZM60.5992 29.4107L65.7182 30.4482L60.5992 31.4858L59.5475 34.3406L58.3665 31.4858L53.6403 30.4482L58.3665 29.4107L59.4165 26.8155L60.5992 29.4107ZM55.7403 43.1619L60.9928 44.3297L55.8712 45.3673L54.6903 48.0918L53.5076 45.3673L48.9131 44.3297L53.5076 43.2922L54.6903 40.697L55.7403 43.1619ZM42.2178 44.0701L47.3386 45.2379L42.2178 46.2755L41.1669 49L39.986 46.1461L35.2597 45.2379L39.986 44.1995L41.036 41.4758L42.2178 44.0701Z" fill="#002B7F"/>
</svg>
