<svg width="90" height="90" viewBox="0 0 90 90" fill="none" xmlns="http://www.w3.org/2000/svg">
<rect width="90" height="90" rx="10" fill="white"/>
<path d="M45.0225 82L55.446 23.3524C65.3729 23.3524 68.5315 24.436 68.9828 28.9057C68.9828 28.9057 75.6609 26.4225 79 21.3659C65.8693 15.2709 52.6935 15.0001 52.6935 15.0001L45.0225 24.3909L37.3066 15C37.3066 15 24.1307 15.2709 11 21.3659C14.3391 26.4225 21.0172 28.9057 21.0172 28.9057C21.4685 24.436 24.5819 23.3525 34.4639 23.3525L45.0225 82H45.0225Z" fill="#CC0000"/>
<path d="M45 12.6875C55.5394 12.5937 67.6037 14.375 79.937 20C81.5963 16.9062 82 15.5469 82 15.5469C68.5455 9.96878 55.8982 8.04681 45.0001 8C34.1467 8.04688 21.4994 9.96871 8 15.5469C8 15.5469 8.58301 17.2344 10.063 20C22.4412 14.375 34.5054 12.5937 45 12.6875Z" fill="#CC0000"/>
</svg>
