<svg width="90" height="90" viewBox="0 0 90 90" fill="none" xmlns="http://www.w3.org/2000/svg">
<rect width="90" height="90" rx="10" fill="white"/>
<path fill-rule="evenodd" clip-rule="evenodd" d="M43.5282 53.4829C40.1733 51.3858 37.7005 44.1491 37.7005 35.549C37.7005 35.2334 37.7018 34.9218 37.7099 34.6116L37.7125 34.6156C28.3792 33.1523 21.6361 29.1431 21.4626 24.4003L21.436 24.4563C19.1527 27.2884 17.8489 30.5625 17.8489 34.051C17.8489 44.3169 29.1425 52.728 43.4681 53.4723L43.5282 53.4829ZM13.5332 34.7993C13.5332 23.3138 27.8601 14 45.5325 14C63.2063 14 77.5332 23.3138 77.5332 34.7993C77.5332 46.2862 63.2063 55.6 45.5325 55.6C27.8601 55.6 13.5332 46.2862 13.5332 34.7993ZM45.5339 17.0012C48.9461 17.0012 51.8486 22.1661 52.9242 29.3721L52.9268 29.3602C59.5659 28.3296 64.2125 25.9515 64.2125 23.1833C64.2125 19.4698 55.8494 16.4619 45.5339 16.4619C35.2197 16.4619 26.8566 19.4698 26.8566 23.1833C26.8566 25.9515 31.5032 28.3282 38.1409 29.3602L38.1449 29.3721C39.2205 22.1661 42.123 17.0012 45.5339 17.0012ZM47.5996 53.4709C61.9252 52.7266 73.2202 44.3156 73.2202 34.0497C73.2202 30.5612 71.9151 27.287 69.6331 24.4549L69.6051 24.399C69.4329 29.1418 62.6899 33.1509 53.3552 34.6143L53.3592 34.6103C53.3659 34.9205 53.3686 35.2321 53.3686 35.5476C53.3686 44.1478 50.8945 51.3845 47.5409 53.4816L47.5996 53.4709ZM45.5339 29.9061C47.015 29.9078 48.4954 29.8447 49.971 29.717C49.2637 25.0994 47.5436 21.8399 45.5352 21.8399C43.5268 21.8399 41.8094 25.1007 41.1008 29.7183C42.5755 29.8454 44.0537 29.9072 45.5339 29.9061ZM45.5339 47.0105C48.1027 47.0105 50.1992 41.6765 50.3099 34.9884L50.3233 34.9924C47.1375 35.2853 43.9315 35.2853 40.7458 34.9924L40.7591 34.9884C40.8699 41.6765 42.965 47.0105 45.5339 47.0105Z" fill="#EB0A1E"/>
<path fill-rule="evenodd" clip-rule="evenodd" d="M44.9395 69.1531C44.9395 65.203 48.1096 62 52.0191 62C55.9304 62 59.0999 65.203 59.0999 69.1531C59.0999 73.1043 55.9298 76.3061 52.0191 76.3061C48.1096 76.3061 44.9395 73.1043 44.9395 69.1531ZM52.0191 73.6831C54.2024 73.6831 55.9731 71.6544 55.9731 69.1525C55.9731 66.6511 54.2024 64.6224 52.0191 64.6224C49.8357 64.6224 48.0663 66.6511 48.0663 69.1525C48.0663 71.655 49.8363 73.6831 52.0191 73.6831ZM67.1335 64.9801V75.9814H64.1497V64.9801H64.1603H59.9887V62.4931H71.2945V64.9801H67.1335ZM74.9034 72.9468L74.901 72.9498L73.7565 75.982H70.2716L75.7798 62.4931H79.493L85 75.982H81.5163L80.3718 72.9498L80.3682 72.9468H74.9034ZM77.6364 70.6701H79.5138L79.5126 70.6707L77.6488 65.7338H77.6233L75.7596 70.6707L75.7584 70.6701H77.6364ZM12.1448 64.9801V75.9814H9.16153V64.9801H9.1722H5V62.4931H16.3063V64.9801H12.1448ZM17.0695 69.1531C17.0695 65.203 20.2396 62 24.1503 62C28.0604 62 31.2304 65.203 31.2304 69.1531C31.2304 73.1043 28.0604 76.3061 24.1503 76.3061C20.2396 76.3061 17.0695 73.1043 17.0695 69.1531ZM24.1503 73.6831C26.333 73.6831 28.1037 71.6544 28.1037 69.1525C28.1037 66.6511 26.333 64.6224 24.1503 64.6224C21.9669 64.6224 20.1969 66.6511 20.1969 69.1525C20.1969 71.655 21.9669 73.6831 24.1503 73.6831ZM38.0841 75.9814H39.5968V70.86L44.8014 62.4931H41.3176L38.0841 68.1627L34.8518 62.4931H31.368L36.572 70.86V75.9814H38.0841Z" fill="#EB0A1E"/>
</svg>
