<svg width="90" height="90" viewBox="0 0 90 90" fill="none" xmlns="http://www.w3.org/2000/svg">
<rect width="90" height="90" rx="10" fill="white"/>
<path d="M66.7546 41.1054C64.4644 41.1054 62.6013 42.5074 62.6013 44.231C62.6013 45.9545 64.4644 47.3565 66.7546 47.3565C69.0947 47.3565 70.9974 45.9545 70.9974 44.231C70.9974 42.5074 69.0947 41.1054 66.7546 41.1054ZM66.7546 46.3419C65.9455 46.3419 65.3315 45.4353 65.3315 44.2336C65.3315 42.9581 65.9323 42.0357 66.7546 42.0357C67.5768 42.0357 68.1803 43.0187 68.1776 44.2336C68.1724 45.3747 67.5241 46.3419 66.7546 46.3419ZM35.3044 41.1054C33.0143 41.1054 31.1485 42.5074 31.1485 44.231C31.1485 45.9545 33.0143 47.3565 35.3044 47.3565C37.6446 47.3565 39.5473 45.9545 39.5473 44.231C39.5473 42.5074 37.6446 41.1054 35.3044 41.1054ZM35.3044 46.3419C34.4927 46.3419 33.8813 45.4353 33.8813 44.2336C33.8813 42.9581 34.4795 42.0357 35.3044 42.0357C36.095 42.0357 36.7301 43.0187 36.7275 44.2336C36.7275 45.3747 36.0739 46.3419 35.3044 46.3419ZM57.5335 42.1701H58.5639L56.7587 45.6883L54.6979 42.1701H56.1579V41.398H50.3206V42.1701H51.6936L54.3526 47.1483H57.5309L60.1926 42.1701H61.5629V41.398H57.5335V42.1701ZM25.7434 42.2439H26.7975L25.0345 45.5354L23.1081 42.2439H24.5153V41.3189H18.5278V42.236H19.9298L22.5652 47.1773L22.5836 47.2142H25.8462L25.8673 47.1773L28.5026 42.236H29.9046V41.3189H25.7434V42.2439ZM25.0635 45.654L25.804 44.2705L25.0767 45.6751L25.0635 45.654ZM23.7089 43.4272L22.9789 42.2176H23L23.7089 43.4272ZM47.3295 46.2048H45.8668V42.1701H47.2425V41.398H41.8321V42.1701H43.2078V46.2048H41.8321V47.1483H49.9885V44.4813H49.132C49.1123 44.9458 48.9136 45.3846 48.5776 45.7058C48.2416 46.0271 47.7943 46.2059 47.3295 46.2048ZM67.7639 18.4152L64.2194 21.9676C65.9857 23.4441 67.5773 25.1179 68.963 26.9563L72.5286 23.3986L74.036 21.8912C75.6012 23.7863 76.9723 25.8337 78.1287 28.0025H79.0431V11.8374H62.9017V12.7518C65.1385 13.9466 67.2465 15.3684 69.1922 16.9947L67.7639 18.4152Z" fill="#003057"/>
<path d="M74.1465 25.6229L70.5229 29.2465C74.4164 35.5555 75.8374 43.0821 74.5121 50.3763C73.1869 57.6706 69.2091 64.2163 63.3451 68.7525C57.4812 73.2886 50.146 75.4942 42.7528 74.9443C35.3595 74.3945 28.4313 71.128 23.303 65.7743C18.1746 60.4206 15.2089 53.3584 14.9773 45.9484C14.7456 38.5384 17.2644 31.3047 22.0484 25.6412C26.8323 19.9776 33.543 16.2848 40.8874 15.2742C48.2319 14.2636 55.6905 16.0067 61.8263 20.1678L65.4183 16.5731C58.3228 11.4766 49.5778 9.21791 40.9017 10.2409C32.2256 11.2638 24.2457 15.4945 18.5301 22.1015C12.8145 28.7085 9.77641 37.2142 10.0128 45.9472C10.2493 54.6802 13.7431 63.0091 19.8078 69.2972C25.8725 75.5853 34.0696 79.378 42.7883 79.93C51.5071 80.482 60.117 77.7535 66.9264 72.2805C73.7358 66.8075 78.2522 58.9859 79.5882 50.3524C80.9242 41.719 78.9832 32.8981 74.1465 25.6229Z" fill="#003057"/>
</svg>
