<svg width="90" height="90" viewBox="0 0 90 90" fill="none" xmlns="http://www.w3.org/2000/svg">
<rect width="90" height="90" rx="10" fill="white"/>
<path d="M2 45V66H44.9393H87.8785V45V24H44.9393H2V45ZM53.6613 34.7348V36.3451H51.8498H50.0383V34.7348V33.1246H51.8498H53.6613V34.7348ZM58.492 43.1214V53.1182H56.6805H54.869V43.1214V33.1246H56.6805H58.492V43.1214ZM63.4568 34.7348V36.3451H61.6453H59.8338V34.7348V33.1246H61.6453H63.4568V34.7348ZM35.6134 38.1566C36.4722 38.3981 37.7872 39.2435 38.3374 39.901C39.5316 41.3636 40.1086 43.2154 40.1086 45.5904C40.1086 48.0997 39.4108 50.0722 38.0556 51.4275C36.7942 52.7022 35.4658 53.1853 33.5067 53.0914C32.0575 53.0243 31.0645 52.6352 30.1521 51.7629C29.8434 51.4812 29.5751 51.2396 29.5482 51.2396C29.5348 51.2396 29.508 52.5412 29.508 54.1246V57.0096H27.6965H25.885V47.8179V38.6262H27.5623H29.2396V39.3642V40.0888L29.8568 39.4313C31.2121 37.9821 33.3188 37.5259 35.6134 38.1566ZM73.0913 38.2237C74.4198 38.3981 75.6945 38.8275 76.3789 39.3508C76.6607 39.5655 77.0364 40.0486 77.2376 40.478L77.6134 41.2428L77.6805 46.8786C77.7207 49.9783 77.8012 52.6217 77.8683 52.7425C77.9757 52.9706 77.8549 52.984 76.2313 52.984H74.5003L74.3258 52.3802C74.2319 52.0447 74.1245 51.7764 74.0977 51.7764C74.0709 51.7764 73.7757 51.9642 73.4402 52.1923C72.3667 52.9304 71.4945 53.1585 69.7635 53.1719C67.9386 53.1719 67.0932 52.9169 66.1003 52.0313C64.8658 50.9578 64.3424 48.9316 64.8524 47.2007C65.4159 45.2147 66.9456 44.3828 70.4747 44.1278C73.561 43.8997 73.9233 43.7253 73.9233 42.5578C73.9233 41.9406 73.8696 41.7662 73.5476 41.4441C72.8364 40.7463 70.9175 40.5853 69.7904 41.1355C69.3341 41.3636 68.9718 41.8601 68.7706 42.5444C68.7035 42.7591 68.5022 42.786 66.9456 42.786C64.9463 42.786 65 42.8262 65.4025 41.4844C66.1539 38.9483 69.0523 37.7272 73.0913 38.2237ZM21.7521 38.6128C22.9329 38.9885 23.6977 39.5924 24.1674 40.4914L24.5431 41.2026V46.4761C24.5431 50.609 24.5834 51.8703 24.731 52.3668L24.9188 52.9975L23.161 52.9572L21.4166 52.9169L21.2287 52.3534L21.0409 51.7898L20.37 52.2326C19.2696 52.9975 18.5316 53.1853 16.6262 53.1853C15.0965 53.1853 14.8818 53.1585 14.184 52.823C13.1776 52.3534 12.292 51.4409 11.9163 50.4614C11.4869 49.361 11.5003 47.7911 11.9565 46.7981C12.7751 45 14.0767 44.3962 17.7131 44.1278C18.7061 44.0607 19.7393 43.94 20.0211 43.8594C20.692 43.6582 20.9738 43.2154 20.8799 42.4371C20.7591 41.3368 20.0613 40.9074 18.3706 40.9074C16.814 40.9074 16.0089 41.377 15.7406 42.4371L15.6601 42.786H13.9291H12.1981V42.3834C12.1981 41.7527 12.7214 40.5182 13.2447 39.9412C13.862 39.2569 14.7476 38.747 15.8211 38.4652C17.1093 38.1163 20.4907 38.1968 21.7521 38.6128ZM48.5623 40.0217C48.5623 41.9406 48.5488 41.9808 47.8511 41.9808C47.368 41.9943 46.375 42.5042 45.8383 43.0275C45.5699 43.2959 45.2076 43.846 45.0466 44.262C44.7648 44.9463 44.738 45.2684 44.6709 49.0256L44.6038 53.0511L42.7655 53.0914L40.9137 53.1316V45.8722V38.6262H42.6581H44.4025V39.6594V40.6793L44.8185 40.0486C45.5297 38.9885 46.8044 38.2908 48.1329 38.2371L48.5623 38.2237V40.0217ZM53.6613 45.8051V52.984H51.8498H50.0383V45.8051V38.6262H51.8498H53.6613V45.8051ZM63.4568 45.8051V52.984H61.6453H59.8338V45.8051V38.6262H61.6453H63.4568V45.8051Z" fill="#D7141A"/>
<path d="M31.7755 41.0819C30.9704 41.3905 30.4874 41.8199 30.1251 42.5579C29.1455 44.5573 29.3602 47.9119 30.5679 49.2806C31.1717 49.9649 32.5404 50.3004 33.6407 50.032C35.0228 49.71 35.8145 48.5828 36.1097 46.5432C36.4318 44.2084 35.6132 41.9675 34.1506 41.2161C33.6005 40.9343 32.366 40.8672 31.7755 41.0819Z" fill="#D7141A"/>
<path d="M73.3192 46.0736C73.0911 46.1675 72.3397 46.3419 71.6419 46.4627C70.1659 46.7176 69.079 47.1739 68.7569 47.6704C68.4483 48.14 68.341 49.1196 68.5557 49.616C68.7972 50.2065 69.401 50.4346 70.7295 50.4346C72.3799 50.4212 73.2253 49.9649 73.7218 48.7975C73.9365 48.2742 74.017 45.8589 73.8291 45.8857C73.762 45.8857 73.5339 45.9796 73.3192 46.0736Z" fill="#D7141A"/>
<path d="M20.3703 46.0734C20.1691 46.1807 19.4847 46.3551 18.8272 46.4759C16.6668 46.8516 15.9959 47.1468 15.6068 47.9117C15.3384 48.4216 15.2981 49.2938 15.5397 49.7366C15.8617 50.327 16.3179 50.5015 17.633 50.5015C18.6125 50.488 18.948 50.4344 19.4042 50.1928C20.0751 49.844 20.5716 49.2267 20.7729 48.4887C20.9339 47.8849 20.9742 45.8721 20.8266 45.8721C20.7595 45.8855 20.5582 45.966 20.3703 46.0734Z" fill="#D7141A"/>
</svg>
