<svg width="90" height="90" viewBox="0 0 90 90" fill="none" xmlns="http://www.w3.org/2000/svg">
<rect width="90" height="90" rx="10" fill="white"/>
<path d="M42.067 8.8788C41.364 9.0275 24.3578 16.2329 24.3578 16.3816C24.3578 16.4221 28.6837 18.3012 33.9694 20.5588C43.6622 24.709 44.0948 24.9253 44.0948 25.5741C44.0948 26.0743 43.527 26.4258 40.6611 27.6695L37.714 28.9403L30.6574 25.8986C26.7911 24.2223 22.7355 22.4649 21.6541 21.9917C17.3552 20.1262 16.5035 19.7612 16.4494 19.7612C16.4089 19.7612 16.3818 22.0864 16.3818 24.9388V30.1028L20.9241 31.9954C23.425 33.0364 25.4528 33.9421 25.4257 34.0232C25.4122 34.0908 23.3844 35.0236 20.9511 36.0645C18.5042 37.1189 16.4765 38.0112 16.4359 38.0382C16.4089 38.0788 16.3954 40.4175 16.4089 43.2428L16.4494 48.3934L18.9504 47.3119C22.0055 45.9871 30.3194 42.3912 34.5913 40.5526L37.7276 39.2008L40.5394 40.3769C44.1488 41.891 44.3922 42.0938 43.7568 43.013C43.3512 43.5943 44.622 43.0265 31.117 48.7584C27.5211 50.286 24.52 51.5837 24.4524 51.6513C24.3983 51.7054 25.1824 52.111 26.2098 52.5436C27.2372 52.9762 29.319 53.8684 30.8466 54.5173C43.0133 59.6813 42.6753 59.5597 43.5946 59.2217C43.9055 59.1 47.5961 57.5454 51.8003 55.761C56.0046 53.963 61.9527 51.435 65.0214 50.1373C68.1171 48.8125 70.8749 47.5688 71.2399 47.3119C72.1321 46.663 72.6864 45.7438 72.5647 45.0949C72.4431 44.4595 71.5103 43.4726 70.564 42.9725C70.172 42.7697 65.3864 40.6878 59.9384 38.3627C54.4905 36.0375 50.0159 34.0773 50.0023 34.0097C49.9888 33.9556 54.6662 31.8873 60.3846 29.4269C66.1164 26.9801 70.9831 24.8306 71.2129 24.6684C72.3484 23.8573 72.8216 22.8569 72.4431 22.0999C72.1457 21.5321 71.267 20.7751 70.3612 20.329C68.6579 19.4773 43.9866 8.95991 43.4188 8.85176C43.0133 8.77065 42.5537 8.78417 42.067 8.8788Z" fill="#14086C"/>
<path d="M8 74.5652V81H13.11C16.0165 81 18.585 80.9324 19.0852 80.8513C21.3833 80.4863 22.8704 79.1344 22.8704 77.4176C22.8704 76.3767 22.1539 75.3087 21.0724 74.768C20.5992 74.5246 20.5046 74.2407 20.8967 74.2407C21.2887 74.2407 22.1674 73.4296 22.5189 72.7402C23.4246 70.9152 22.6135 69.3741 20.2883 68.5359C19.4502 68.2385 19.2744 68.225 13.7183 68.1845L8 68.1439V74.5652ZM18.612 71.0639C19.1122 71.5641 19.1122 72.1183 18.5985 72.578C18.2741 72.8754 18.1524 72.8889 15.8542 72.8889C13.0289 72.8889 13.0424 72.8754 12.2313 74.3759C11.9609 74.9032 11.677 75.3222 11.623 75.3222C11.5689 75.3222 11.5148 74.2813 11.5148 73.0241V70.7259H14.8944H18.2876L18.612 71.0639ZM18.5309 75.7819C19.1122 76.3091 19.1257 77.377 18.5444 77.9583C18.2876 78.2017 18.0713 78.2287 15.8002 78.2693C12.9207 78.3233 12.9748 78.2963 12.1907 79.9185C11.9339 80.4457 11.6906 80.8648 11.623 80.8648C11.5689 80.8648 11.5148 79.6481 11.5148 78.1611V75.4439L14.8809 75.4845C17.9767 75.525 18.2741 75.552 18.5309 75.7819Z" fill="#14086C"/>
<path d="M26.9262 72.6456C25.6419 75.1195 24.1414 78.0124 23.5871 79.0669L22.5732 81H24.6821C25.8447 81 26.791 80.9459 26.791 80.8783C26.791 80.6891 31.4279 71.2667 31.509 71.2667C31.5766 71.2667 33.5367 75.2006 33.7666 75.7819C33.8342 75.9711 33.6854 75.9982 32.3066 75.9982C31.1305 75.9982 30.6979 76.0522 30.468 76.2144C30.0895 76.4848 29.0216 78.5667 29.2514 78.5667C29.346 78.5802 30.7249 78.5667 32.3066 78.5667L35.186 78.5532L35.7538 79.7833L36.308 81H38.3899H40.4717L39.8093 79.7428C39.4308 79.0669 37.9303 76.1739 36.4567 73.3215L33.7666 68.1574H31.509H29.2649L26.9262 72.6456Z" fill="#14086C"/>
<path d="M48.4203 72.7535V77.3498L48.0283 77.7824L47.6363 78.2285L43.9863 78.2961L40.3228 78.3637L40.9446 79.4857C41.3502 80.2428 41.6881 80.6618 41.9585 80.8105C42.2965 80.9863 42.9183 81.0133 45.8248 80.9728C49.2585 80.9322 49.3126 80.9322 49.975 80.5807C50.3535 80.3915 50.8401 79.9859 51.0835 79.675C51.8811 78.6205 51.9351 78.2285 51.9351 72.9292V68.1572H50.1777H48.4203V72.7535Z" fill="#14086C"/>
<path d="M57.9782 68.7252C57.505 69.5769 51.665 80.8513 51.665 80.9324C51.665 80.973 52.5708 81 53.6928 81H55.7206L56.3965 79.5941C57.7889 76.6741 60.4791 71.3343 60.5602 71.2937C60.6684 71.2667 62.8854 75.6332 62.8854 75.863C62.8854 75.9441 62.2771 75.9982 61.3578 75.9982C60.1952 75.9982 59.7626 76.0522 59.5328 76.2144C59.303 76.3767 58.1539 78.3639 58.1539 78.5937C58.1539 78.6207 59.5058 78.6207 61.1685 78.5937L64.1832 78.5532L64.778 79.7833L65.3728 81H67.3735C68.4685 81 69.3743 80.9594 69.3743 80.9189C69.3743 80.8783 67.9008 77.9854 66.1163 74.4976L62.8448 68.1574H60.5737H58.3026L57.9782 68.7252Z" fill="#14086C"/>
<path d="M77.4853 72.7537V77.35L77.0932 77.7826L76.7012 78.2287L73.0242 78.2692C71.0099 78.2963 69.3742 78.3503 69.4012 78.4044C69.4282 78.472 69.6851 78.9857 69.9825 79.5535C70.7531 81.027 70.6719 81 74.6058 81C76.4714 81 78.0531 80.9324 78.364 80.8513C79.148 80.635 79.8916 80.0942 80.2836 79.4048C80.919 78.3233 81.0001 77.6474 81.0001 72.7131V68.1574H79.2427H77.4853V72.7537Z" fill="#14086C"/>
</svg>
