<svg width="90" height="90" viewBox="0 0 90 90" fill="none" xmlns="http://www.w3.org/2000/svg">
<rect width="90" height="90" rx="10" fill="white"/>
<g clip-path="url(#clip0_993_22892)">
<path d="M45.0001 8.00098C24.5663 8.00098 8 24.5657 8 45.0002C8 65.4344 24.5663 81.9994 45.0001 81.9994C65.4353 81.9994 81.9999 65.4344 81.9999 45.0002C82 24.5657 65.4354 8.00098 45.0001 8.00098ZM45.0001 80.1493C25.5869 80.1493 9.85161 64.4127 9.85161 45.0002C9.85161 25.5879 25.5869 9.85047 45.0001 9.85047C64.4131 9.85047 80.1497 25.5878 80.1497 45.0002C80.1497 64.4127 64.4131 80.1493 45.0001 80.1493Z" fill="url(#paint0_linear_993_22892)"/>
<path d="M80.415 45C80.415 64.5573 64.5577 80.414 45.0002 80.414C25.4425 80.414 9.58691 64.5573 9.58691 45C9.58691 25.4415 25.4425 9.58594 45.0002 9.58594C64.5577 9.58594 80.415 25.4415 80.415 45Z" fill="#333333"/>
<path d="M80.1497 44.9998C80.1497 64.4123 64.4131 80.1489 45 80.1489C25.5868 80.1489 9.85156 64.4123 9.85156 44.9998C9.85156 25.5875 25.5868 9.8501 45 9.8501C64.4131 9.8501 80.1497 25.5875 80.1497 44.9998Z" fill="url(#paint1_radial_993_22892)"/>
<path d="M68.565 45.0002C68.565 58.0144 58.0145 68.5644 44.9999 68.5644C31.9851 68.5644 21.4346 58.0144 21.4346 45.0002C21.4346 31.9853 31.9851 21.4351 44.9999 21.4351C58.0145 21.4351 68.565 31.9854 68.565 45.0002Z" fill="url(#paint2_linear_993_22892)"/>
<path d="M45.9439 20.7981L48.3918 14.3102V20.7981H50.251V11.5063H47.457L44.9157 18.1592H44.9398L42.3986 11.5063H39.6045V20.7981H41.4637V14.3102L43.9116 20.7981H45.9439ZM71.4586 24.9646L68.2821 29.5961L73.2714 27.1423L74.6246 28.7651L66.7722 32.7079L65.1855 30.787L68.2294 26.1976L68.2114 26.175L63.1484 28.342L61.5436 26.434L66.8384 19.4229L68.1919 21.0466L64.8765 25.5111L70.0074 23.2227L71.4586 24.9646Z" fill="black"/>
<path d="M28.5437 23.1894C27.7954 22.463 26.6407 22.244 25.5552 22.9169C25.7631 22.3794 25.6787 21.8323 25.5688 21.5288C25.1006 20.6775 24.9365 20.5698 24.5542 20.2469C23.3061 19.2013 21.9933 20.0941 21.0554 21.2119L16.521 26.6158L23.6494 32.5962L28.4308 26.8989C29.5237 25.5967 29.6924 24.3058 28.5437 23.1894ZM19.3225 25.7954L22.0461 22.5496C22.3622 22.174 23.0758 22.189 23.5335 22.5745C24.0377 22.9975 24.0392 23.5966 23.7006 24.0009L21.0072 27.2092L19.3225 25.7954ZM26.8365 26.3351L23.9971 29.7188L22.2193 28.2245L25.0797 24.8147C25.4034 24.4292 26.1245 24.3171 26.6108 24.725C27.1586 25.1858 27.2128 25.8865 26.8365 26.3351Z" fill="#333333"/>
<path d="M45.9638 20.4392L48.4116 13.9515V20.4392H50.2709V11.1475H47.4766L44.9355 17.8H44.9596L42.4183 11.1475H39.624V20.4392H41.4834V13.9515L43.9314 20.4392H45.9638Z" fill="url(#paint3_radial_993_22892)"/>
<path d="M71.477 24.3409L68.3018 28.9726L73.291 26.518L74.643 28.1416L66.7917 32.0844L65.2051 30.1627L68.2491 25.574L68.2312 25.5507L63.1666 27.7186L61.5635 25.8096L66.8582 18.7993L68.2115 20.4224L64.8966 24.8868L70.0255 22.5993L71.477 24.3409Z" fill="url(#paint4_radial_993_22892)"/>
<path d="M28.2108 23.0066C27.464 22.2802 26.3078 22.061 25.224 22.7333C25.4301 22.1958 25.3459 21.6486 25.2361 21.3467C24.7678 20.4939 24.6052 20.3877 24.2197 20.0641C22.9717 19.0178 21.6605 19.9111 20.724 21.0299L16.188 26.433L23.3165 32.4135L28.0979 26.7153C29.1894 25.4131 29.3594 24.1229 28.2108 23.0066ZM18.9898 25.6125L21.7132 22.3675C22.0279 21.9912 22.7414 22.0062 23.2006 22.3908C23.7049 22.8146 23.7065 23.4144 23.3662 23.8172L20.6745 27.0261L18.9898 25.6125ZM26.5052 26.1522L23.6658 29.5358L21.8848 28.0415L24.7469 24.6309C25.0705 24.2463 25.7901 24.1341 26.2764 24.5422C26.8273 25.0035 26.8816 25.7029 26.5052 26.1522Z" fill="url(#paint5_radial_993_22892)"/>
<path d="M22.2192 45.0003C22.2192 32.4184 32.4189 22.2188 45.0001 22.2188C57.5827 22.2188 67.781 32.4184 67.781 45.0003C67.781 57.5817 57.5827 67.7811 45.0001 67.7811C32.4188 67.7811 22.2192 57.5817 22.2192 45.0003Z" fill="url(#paint6_radial_993_22892)"/>
<path d="M22.874 45.0003C22.874 32.7804 32.7801 22.8735 45 22.8735C57.22 22.8735 67.1274 32.7803 67.1274 45.0003C67.1274 57.2203 57.2199 67.1271 45 67.1271C32.7802 67.1271 22.874 57.2203 22.874 45.0003Z" fill="url(#paint7_radial_993_22892)"/>
<path d="M22.8394 45.0004H45V22.8398C32.7604 22.8398 22.8394 32.7609 22.8394 45.0004Z" fill="url(#paint8_radial_993_22892)"/>
<path d="M45 45.0005V67.1613C57.2395 67.1613 67.1606 57.2384 67.1606 45.0005H45Z" fill="url(#paint9_radial_993_22892)"/>
<path d="M67.3442 44.6065H45.3929V22.6553H44.607V44.6065H22.6558V45.3925H44.607V67.3444H45.3929V45.3925H67.3442V44.6065Z" fill="url(#paint10_radial_993_22892)"/>
<path d="M45.3931 23.2769C57.0832 23.4848 66.5165 32.9173 66.7257 44.6064H67.1169C66.9079 32.7004 57.2999 23.0911 45.3931 22.8833L45.3931 23.2769Z" fill="url(#paint11_linear_993_22892)"/>
<path d="M23.2367 44.6037C23.4444 32.8986 32.8912 23.4526 44.5964 23.244V22.8511C32.6731 23.0596 23.053 32.6817 22.8438 44.6036H23.2367V44.6037Z" fill="#C2D7E8"/>
<path d="M44.6071 66.7234C32.9172 66.5157 23.4839 57.0825 23.2761 45.3926H22.8833C23.0925 57.2992 32.7004 66.9089 44.6072 67.1165L44.6071 66.7234Z" fill="url(#paint12_linear_993_22892)"/>
<path d="M66.7256 45.3926C66.5164 57.0825 57.0831 66.5157 45.3931 66.7234V67.1165C57.2999 66.9089 66.9092 57.2993 67.1169 45.3926H66.7256Z" fill="#12404F"/>
<path d="M44.1874 22.8511V44.1754H22.8638V44.5961H44.6073V22.8511H44.1874Z" fill="url(#paint13_linear_993_22892)"/>
<path d="M44.1512 66.9104V45.8427H23.04V45.4272H44.5667V66.9104H44.1512Z" fill="url(#paint14_linear_993_22892)"/>
<path d="M45.8432 66.9104V45.8427H66.9108V45.4272H45.4292V66.9104H45.8432Z" fill="url(#paint15_linear_993_22892)"/>
<path d="M45.8432 23.0396V44.1071H66.9108V44.5219H45.4292V23.0396H45.8432Z" fill="url(#paint16_linear_993_22892)"/>
</g>
<defs>
<linearGradient id="paint0_linear_993_22892" x1="2.58372" y1="4.01175" x2="81.0899" y2="79.8745" gradientUnits="userSpaceOnUse">
<stop stop-color="#DFF4FF"/>
<stop offset="0.098" stop-color="#D6EAF5"/>
<stop offset="0.268" stop-color="#BFD0D9"/>
<stop offset="0.488" stop-color="#98A5AC"/>
<stop offset="0.747" stop-color="#646B6E"/>
<stop offset="1" stop-color="#2B2B2B"/>
</linearGradient>
<radialGradient id="paint1_radial_993_22892" cx="0" cy="0" r="1" gradientUnits="userSpaceOnUse" gradientTransform="translate(7.53882 10.4477) scale(52.5669)">
<stop stop-color="white"/>
<stop offset="0.306" stop-color="#A8A8A8"/>
<stop offset="0.646" stop-color="#4F4F4F"/>
<stop offset="0.885" stop-color="#161616"/>
<stop offset="1"/>
</radialGradient>
<linearGradient id="paint2_linear_993_22892" x1="72.0148" y1="71.1053" x2="22.0145" y2="22.7885" gradientUnits="userSpaceOnUse">
<stop stop-color="#DFF4FF"/>
<stop offset="0.086" stop-color="#D6EAF5"/>
<stop offset="0.233" stop-color="#BED0D9"/>
<stop offset="0.424" stop-color="#96A4AC"/>
<stop offset="0.652" stop-color="#5F686D"/>
<stop offset="0.907" stop-color="#1A1D1E"/>
<stop offset="1"/>
</linearGradient>
<radialGradient id="paint3_radial_993_22892" cx="0" cy="0" r="1" gradientUnits="userSpaceOnUse" gradientTransform="translate(-1.90188 5.09479) scale(126.31 126.31)">
<stop stop-color="white"/>
<stop offset="0.31" stop-color="#FDFDFD"/>
<stop offset="0.451" stop-color="#F6F6F6"/>
<stop offset="0.557" stop-color="#E9E9E9"/>
<stop offset="0.646" stop-color="#D7D7D7"/>
<stop offset="0.724" stop-color="#BFBFBF"/>
<stop offset="0.794" stop-color="#A2A2A2"/>
<stop offset="0.859" stop-color="#808080"/>
<stop offset="0.92" stop-color="#575757"/>
<stop offset="0.975" stop-color="#2B2B2B"/>
<stop offset="1" stop-color="#141414"/>
</radialGradient>
<radialGradient id="paint4_radial_993_22892" cx="0" cy="0" r="1" gradientUnits="userSpaceOnUse" gradientTransform="translate(-1.90752 5.09441) scale(126.321 126.321)">
<stop stop-color="white"/>
<stop offset="0.31" stop-color="#FDFDFD"/>
<stop offset="0.451" stop-color="#F6F6F6"/>
<stop offset="0.557" stop-color="#E9E9E9"/>
<stop offset="0.646" stop-color="#D7D7D7"/>
<stop offset="0.724" stop-color="#BFBFBF"/>
<stop offset="0.794" stop-color="#A2A2A2"/>
<stop offset="0.859" stop-color="#808080"/>
<stop offset="0.92" stop-color="#575757"/>
<stop offset="0.975" stop-color="#2B2B2B"/>
<stop offset="1" stop-color="#141414"/>
</radialGradient>
<radialGradient id="paint5_radial_993_22892" cx="0" cy="0" r="1" gradientUnits="userSpaceOnUse" gradientTransform="translate(-1.91464 5.05746) scale(126.418 126.418)">
<stop stop-color="white"/>
<stop offset="0.31" stop-color="#FDFDFD"/>
<stop offset="0.451" stop-color="#F6F6F6"/>
<stop offset="0.557" stop-color="#E9E9E9"/>
<stop offset="0.646" stop-color="#D7D7D7"/>
<stop offset="0.724" stop-color="#BFBFBF"/>
<stop offset="0.794" stop-color="#A2A2A2"/>
<stop offset="0.859" stop-color="#808080"/>
<stop offset="0.92" stop-color="#575757"/>
<stop offset="0.975" stop-color="#2B2B2B"/>
<stop offset="1" stop-color="#141414"/>
</radialGradient>
<radialGradient id="paint6_radial_993_22892" cx="0" cy="0" r="1" gradientUnits="userSpaceOnUse" gradientTransform="translate(20.7202 22.606) scale(34.0698 34.0698)">
<stop stop-color="#E6E6E6"/>
<stop offset="0.104" stop-color="#D6D6D6"/>
<stop offset="0.307" stop-color="#ADADAD"/>
<stop offset="0.588" stop-color="#6C6C6C"/>
<stop offset="0.933" stop-color="#121212"/>
<stop offset="1"/>
</radialGradient>
<radialGradient id="paint7_radial_993_22892" cx="0" cy="0" r="1" gradientUnits="userSpaceOnUse" gradientTransform="translate(30.0386 27.1883) scale(49.5472 49.5472)">
<stop stop-color="white"/>
<stop offset="0.344" stop-color="#FDFDFD"/>
<stop offset="0.481" stop-color="#F6F6F6"/>
<stop offset="0.582" stop-color="#EAEAEA"/>
<stop offset="0.665" stop-color="#D8D8D8"/>
<stop offset="0.737" stop-color="#C2C2C2"/>
<stop offset="0.802" stop-color="#A6A6A6"/>
<stop offset="0.86" stop-color="#848484"/>
<stop offset="0.913" stop-color="#5F5F5F"/>
<stop offset="0.949" stop-color="#404040"/>
<stop offset="0.957" stop-color="#404040"/>
<stop offset="1"/>
</radialGradient>
<radialGradient id="paint8_radial_993_22892" cx="0" cy="0" r="1" gradientUnits="userSpaceOnUse" gradientTransform="translate(15.4909 8.40678) scale(87.7487 87.7487)">
<stop offset="0.169" stop-color="white"/>
<stop offset="0.196" stop-color="#E0EFF7"/>
<stop offset="0.241" stop-color="#B2D9EC"/>
<stop offset="0.287" stop-color="#8BC5E2"/>
<stop offset="0.335" stop-color="#6BB5DA"/>
<stop offset="0.384" stop-color="#52A9D4"/>
<stop offset="0.436" stop-color="#41A0CF"/>
<stop offset="0.491" stop-color="#369BCD"/>
<stop offset="0.556" stop-color="#3399CC"/>
<stop offset="0.606" stop-color="#3396C8"/>
<stop offset="0.655" stop-color="#328EBC"/>
<stop offset="0.705" stop-color="#3180A8"/>
<stop offset="0.754" stop-color="#2F6D8C"/>
<stop offset="0.803" stop-color="#2D5468"/>
<stop offset="0.851" stop-color="#2A373D"/>
<stop offset="0.871" stop-color="#292929"/>
</radialGradient>
<radialGradient id="paint9_radial_993_22892" cx="0" cy="0" r="1" gradientUnits="userSpaceOnUse" gradientTransform="translate(15.4909 8.40621) scale(87.747 87.747)">
<stop offset="0.169" stop-color="white"/>
<stop offset="0.196" stop-color="#E0EFF7"/>
<stop offset="0.241" stop-color="#B2D9EC"/>
<stop offset="0.287" stop-color="#8BC5E2"/>
<stop offset="0.335" stop-color="#6BB5DA"/>
<stop offset="0.384" stop-color="#52A9D4"/>
<stop offset="0.436" stop-color="#41A0CF"/>
<stop offset="0.491" stop-color="#369BCD"/>
<stop offset="0.556" stop-color="#3399CC"/>
<stop offset="0.606" stop-color="#3396C8"/>
<stop offset="0.655" stop-color="#328EBC"/>
<stop offset="0.705" stop-color="#3180A8"/>
<stop offset="0.754" stop-color="#2F6D8C"/>
<stop offset="0.803" stop-color="#2D5468"/>
<stop offset="0.851" stop-color="#2A373D"/>
<stop offset="0.871" stop-color="#292929"/>
</radialGradient>
<radialGradient id="paint10_radial_993_22892" cx="0" cy="0" r="1" gradientUnits="userSpaceOnUse" gradientTransform="translate(21.1855 23.0352) scale(33.4168 33.4168)">
<stop stop-color="#E6E6E6"/>
<stop offset="0.104" stop-color="#D6D6D6"/>
<stop offset="0.307" stop-color="#ADADAD"/>
<stop offset="0.588" stop-color="#6C6C6C"/>
<stop offset="0.933" stop-color="#121212"/>
<stop offset="1"/>
</radialGradient>
<linearGradient id="paint11_linear_993_22892" x1="40.6185" y1="14.6914" x2="73.2065" y2="46.182" gradientUnits="userSpaceOnUse">
<stop stop-color="#F0F4FF"/>
<stop offset="0.109" stop-color="#EBEFF9"/>
<stop offset="0.247" stop-color="#DCE0EA"/>
<stop offset="0.403" stop-color="#C4C7CF"/>
<stop offset="0.57" stop-color="#A2A4AB"/>
<stop offset="0.747" stop-color="#76777C"/>
<stop offset="0.929" stop-color="#414243"/>
<stop offset="1" stop-color="#2B2B2B"/>
</linearGradient>
<linearGradient id="paint12_linear_993_22892" x1="14.1676" y1="41.2787" x2="46.756" y2="72.77" gradientUnits="userSpaceOnUse">
<stop stop-color="#F0F4FF"/>
<stop offset="0.109" stop-color="#EBEFF9"/>
<stop offset="0.247" stop-color="#DCE0EA"/>
<stop offset="0.403" stop-color="#C4C7CF"/>
<stop offset="0.57" stop-color="#A2A4AB"/>
<stop offset="0.747" stop-color="#76777C"/>
<stop offset="0.929" stop-color="#414243"/>
<stop offset="1" stop-color="#2B2B2B"/>
</linearGradient>
<linearGradient id="paint13_linear_993_22892" x1="29.9333" y1="30.0494" x2="46.8317" y2="46.3788" gradientUnits="userSpaceOnUse">
<stop stop-color="#C2D7E8"/>
<stop offset="0.134" stop-color="#BACFE1"/>
<stop offset="0.343" stop-color="#A4BACD"/>
<stop offset="0.6" stop-color="#8098AC"/>
<stop offset="0.894" stop-color="#4E697F"/>
<stop offset="1" stop-color="#3A566D"/>
</linearGradient>
<linearGradient id="paint14_linear_993_22892" x1="21.4702" y1="34.0507" x2="53.7307" y2="65.2251" gradientUnits="userSpaceOnUse">
<stop stop-color="#F0F4FF"/>
<stop offset="0.097" stop-color="#E8EBF6"/>
<stop offset="0.257" stop-color="#D1D4DD"/>
<stop offset="0.459" stop-color="#ABAEB5"/>
<stop offset="0.695" stop-color="#78797D"/>
<stop offset="0.958" stop-color="#363637"/>
<stop offset="1" stop-color="#2B2B2B"/>
</linearGradient>
<linearGradient id="paint15_linear_993_22892" x1="45.2482" y1="45.6146" x2="56.5643" y2="56.5497" gradientUnits="userSpaceOnUse">
<stop stop-color="#D9DEF0"/>
<stop offset="0.123" stop-color="#D4DAEC"/>
<stop offset="0.263" stop-color="#C7CFE2"/>
<stop offset="0.411" stop-color="#B0BCD1"/>
<stop offset="0.566" stop-color="#90A1B8"/>
<stop offset="0.725" stop-color="#677F99"/>
<stop offset="0.885" stop-color="#355674"/>
<stop offset="0.972" stop-color="#173D5D"/>
</linearGradient>
<linearGradient id="paint16_linear_993_22892" x1="33.6721" y1="22.2194" x2="65.8976" y2="53.3599" gradientUnits="userSpaceOnUse">
<stop stop-color="#F0F4FF"/>
<stop offset="0.109" stop-color="#EBEFF9"/>
<stop offset="0.247" stop-color="#DCE0EA"/>
<stop offset="0.403" stop-color="#C4C7CF"/>
<stop offset="0.57" stop-color="#A2A4AB"/>
<stop offset="0.747" stop-color="#76777C"/>
<stop offset="0.929" stop-color="#414243"/>
<stop offset="1" stop-color="#2B2B2B"/>
</linearGradient>
<clipPath id="clip0_993_22892">
<rect width="74" height="74" fill="white" transform="translate(8 8)"/>
</clipPath>
</defs>
</svg>
