<svg width="90" height="90" viewBox="0 0 90 90" fill="none" xmlns="http://www.w3.org/2000/svg">
<g clip-path="url(#clip0_993_22911)">
<rect width="90" height="90" rx="10" fill="white"/>
<path d="M45.5824 14.0215C40.8632 14.3517 36.5279 15.976 32.7917 18.806C30.6567 20.4264 28.6677 22.5768 27.2239 24.8308C25.5842 27.3882 24.4322 30.2719 23.8908 33.1711C23.8294 33.4975 23.7641 33.7816 23.7449 33.797C23.7295 33.8162 23.2726 34.0005 22.735 34.2117C20.9187 34.9297 19.2061 35.644 17.5127 36.4004C16.3224 36.9303 14.8978 37.5946 14.8286 37.6484C14.7518 37.7137 14.6328 37.9825 14.6328 38.0938C14.6328 38.3473 14.8862 38.6353 15.109 38.6353C15.3048 38.6353 16.6564 38.2282 20.0663 37.1377C27.3429 34.8107 32.9722 33.2747 38.5746 32.0844C45.0986 30.6982 50.9583 29.9263 56.7566 29.6883C57.97 29.6384 61.2416 29.6384 62.4012 29.6883C68.211 29.934 73.2259 30.8326 77.6687 32.4146C78.5826 32.741 78.8783 32.7948 79.3774 32.7256C80.0149 32.6412 80.5141 32.3916 80.9748 31.9269C81.3012 31.5967 81.5585 31.1244 81.6583 30.6636C81.7467 30.2796 81.7198 29.7036 81.6008 29.3235C81.3627 28.5593 80.7291 27.9181 79.9227 27.6262C79.4082 27.4381 77.3692 26.9543 75.9369 26.6778C73.4986 26.2055 70.4919 25.8369 68.0382 25.7101C67.6581 25.6871 67.5352 25.6679 67.4968 25.6218C67.4661 25.5873 67.3009 25.33 67.1243 25.0497C66.2296 23.6097 65.2351 22.3541 63.9564 21.0523C59.9667 16.9935 54.8597 14.5898 49.096 14.0599C48.4931 14.0023 46.1968 13.9792 45.5824 14.0215ZM48.808 16.6748C53.293 17.0319 57.5898 18.8597 60.9805 21.8433C61.5833 22.3733 62.6892 23.5022 63.1769 24.082C63.3804 24.3239 63.7222 24.7578 63.9333 25.042L64.325 25.5604L63.0463 25.5873C61.76 25.6103 59.7171 25.6833 59.2525 25.714C59.1143 25.7255 58.6074 25.7601 58.1197 25.7908C51.0236 26.2592 42.86 27.7683 34.8307 30.0915C32.3655 30.8057 29.1976 31.8233 27.0357 32.5989C26.8591 32.6642 26.7055 32.7103 26.694 32.7026C26.6517 32.6565 27.0549 31.2895 27.3621 30.4371C29.4817 24.5735 34.1933 19.9004 40.0952 17.8076C42.0997 17.0972 43.9927 16.7363 46.3312 16.6172C46.7421 16.598 48.2704 16.6326 48.808 16.6748Z" fill="black"/>
<path d="M57.5901 34.1043C51.0584 34.3117 44.1619 35.2832 36.9122 37.0073C28.2954 39.0578 19.2218 42.2219 11.4037 45.9043C10.9276 46.127 10.8085 46.2384 10.7663 46.4842C10.7202 46.7645 10.9698 47.1216 11.2117 47.1216C11.3922 47.1216 12.859 46.6877 14.9787 46.008C22.8581 43.4775 28.042 42.0337 33.775 40.7665C40.3873 39.3074 47.0265 38.3973 52.6097 38.1861C53.6311 38.1477 57.8704 38.1477 58.8112 38.1861C61.1574 38.2821 64.1525 38.5893 66.1646 38.9426C68.8448 39.4149 70.953 39.941 73.134 40.6821C74.8082 41.2504 74.6892 41.2196 75.1692 41.2196C75.6568 41.2235 75.9487 41.1582 76.3596 40.9509C77.2773 40.4939 77.8379 39.603 77.8379 38.6085C77.8379 37.6217 77.3502 36.7999 76.4709 36.3084C76.1445 36.1279 75.9487 36.0588 74.9887 35.8169C71.3715 34.8953 67.593 34.3577 63.2079 34.1427C62.0943 34.0889 58.8112 34.0659 57.5901 34.1043Z" fill="black"/>
<path d="M54.296 42.479C48.206 42.621 41.6128 43.4773 34.6972 45.0248C26.1303 46.9409 17.0221 50.0013 9.0274 53.6416C7.23801 54.4595 7.20345 54.4748 7.10745 54.6092C6.98073 54.7858 6.96537 55.0201 7.06521 55.2159C7.16505 55.4079 7.27641 55.4924 7.44536 55.4924C7.66808 55.4924 8.94676 55.1122 12.0609 54.1177C16.4807 52.7046 19.8214 51.7101 22.9739 50.8691C24.5099 50.4583 26.7678 49.8861 26.8522 49.8861C26.883 49.8861 27.0788 50.1472 27.2862 50.4698C29.9818 54.5977 33.8869 57.7925 38.4142 59.5781C40.6721 60.4689 42.9914 60.995 45.4489 61.1755C46.1478 61.2254 48.0408 61.2254 48.7627 61.1755C50.8747 61.0257 53.0558 60.5726 54.9719 59.8891C55.6055 59.6625 55.7475 59.6088 56.4694 59.3016C59.7564 57.9077 62.8936 55.5653 65.2436 52.7469C66.2074 51.5949 67.3748 49.8746 67.8893 48.857C67.9546 48.7265 68.016 48.619 68.0237 48.619C68.0583 48.619 70.1318 49.314 70.5043 49.4484C70.896 49.5905 70.9228 49.5981 71.4067 49.5943C71.8521 49.5943 71.9404 49.5828 72.213 49.4868C73.3996 49.0759 74.1292 48.0353 74.0639 46.8526C74.0255 46.1653 73.8028 45.6584 73.3266 45.1784C72.8351 44.6792 72.501 44.5218 71.2531 44.2069C68.2195 43.4312 64.9287 42.9052 61.5189 42.6517C60.2249 42.5519 59.3916 42.5135 57.7942 42.4751C56.1584 42.4367 56.1085 42.4367 54.296 42.479ZM55.7398 46.5992C59.2073 46.8065 62.4059 47.2366 65.0401 47.851C65.4548 47.947 65.451 47.8702 65.0593 48.5038C62.9896 51.8637 60.1596 54.4979 56.6998 56.2834C49.5499 59.9736 40.7873 59.2056 34.4092 54.3251C33.3071 53.4841 31.848 52.0979 31.0454 51.1341C30.3158 50.2548 29.617 49.2871 29.6707 49.2333C29.6899 49.218 29.8858 49.1681 30.1085 49.122C30.3312 49.0759 30.7113 48.9953 30.9533 48.9415C32.4969 48.6074 35.0236 48.1313 36.8283 47.8356C41.3402 47.0945 45.2377 46.699 49.7112 46.5301C50.6289 46.4955 54.8068 46.5454 55.7398 46.5992Z" fill="black"/>
<path d="M53.1865 71.6394V76.9577H54.2924C54.903 76.9577 55.8169 76.9461 56.3276 76.9308L57.2568 76.9077V75.8057C57.2568 74.9148 57.2683 74.6691 57.3183 74.5001C57.3951 74.239 57.5256 74.0355 57.6984 73.9049C57.9365 73.7206 58.0632 73.6976 58.8312 73.6937H59.5454L59.699 73.855C59.7873 73.9472 60.1137 74.3235 60.4324 74.6921C61.5767 76.0246 62.1565 76.47 63.1012 76.7426C63.2778 76.7925 63.5773 76.854 63.7655 76.8732C63.9575 76.8962 65.3283 76.9269 66.8643 76.9423L69.6136 76.9653L70.4085 75.629C70.8462 74.8918 71.2878 74.1545 71.3838 73.9894L71.5605 73.6937H74.6516H77.7427L78.3571 74.7535C78.695 75.3334 79.0483 75.9017 79.1443 76.0169C79.4899 76.4354 79.9852 76.7234 80.6034 76.8617C80.8377 76.9154 81.1602 76.9308 82.3237 76.9461C83.1071 76.9577 83.7522 76.9538 83.7522 76.9385C83.7522 76.9116 83.5832 76.6274 79.8662 70.4183L77.4086 66.3173L75.1162 66.3288L72.8276 66.3403L72.5704 66.467C72.0673 66.7128 72.1403 66.6053 69.2373 71.4474C67.7782 73.8896 66.5532 75.8978 66.5225 75.9094C66.4304 75.9478 66.1308 75.8556 65.8966 75.7174C65.624 75.5599 64.76 74.6998 64.2301 74.0624C64.0035 73.7897 63.8231 73.5632 63.8307 73.5593C63.8384 73.5555 63.9651 73.4979 64.1187 73.4365C65.1133 73.0217 65.839 72.0887 66.1155 70.8714C66.1923 70.5335 66.2038 69.5466 66.1347 69.2202C66.0003 68.6097 65.7699 68.0913 65.4089 67.6075C64.9674 67.0123 64.4029 66.6091 63.7616 66.4248L63.4583 66.3403L58.3243 66.3288L53.1865 66.3173V71.6394ZM75.4503 69.9076C75.8765 70.6141 76.226 71.2016 76.226 71.2132C76.226 71.2247 75.5156 71.2362 74.6478 71.2362C73.7799 71.2362 73.0772 71.2208 73.0849 71.2016C73.1233 71.098 74.6286 68.6251 74.6478 68.6251C74.6631 68.6251 75.0241 69.201 75.4503 69.9076ZM61.0276 68.9054C61.2657 69.0206 61.4692 69.2241 61.6036 69.4775C61.6766 69.6158 61.6919 69.7002 61.6919 70.0074C61.6919 70.3146 61.6766 70.3991 61.6036 70.5373C61.4769 70.7716 61.2388 70.9981 60.9854 71.1172L60.7703 71.217H59.0232H57.276L57.2645 69.9959L57.2568 68.7748L59.0309 68.7863L60.8087 68.7979L61.0276 68.9054Z" fill="black"/>
<path d="M10.5014 66.4095C10.4937 66.4364 10.4899 66.6246 10.4937 66.8243L10.5052 67.1852L10.678 67.1929C11.3462 67.2313 11.7762 67.3734 11.8876 67.5922C12.0565 67.9148 12.0604 68.0607 12.0604 72.6455V77L15.3358 76.9846C17.4862 76.9731 18.7188 76.9539 18.9338 76.9232C21.4029 76.5891 23.3843 75.5063 23.9986 74.147C24.2406 73.6132 24.2444 73.5902 24.2598 71.8584C24.2713 70.8062 24.2636 70.1803 24.2329 69.996C24.133 69.3394 23.8566 68.8172 23.3343 68.2988C22.432 67.4002 20.9766 66.759 19.1527 66.4633C18.6612 66.3865 18.5076 66.3827 14.5832 66.3711C11.158 66.3558 10.5206 66.3635 10.5014 66.4095ZM18.1082 68.8594C18.546 68.9132 19.0375 69.0552 19.3332 69.2127C19.6135 69.3624 19.9283 69.6619 20.0512 69.8923C20.1434 70.0651 20.1434 70.069 20.1549 71.6049C20.1664 73.1025 20.1626 73.1524 20.0819 73.3674C19.9322 73.7745 19.4023 74.1892 18.8186 74.362C18.3924 74.4887 17.897 74.5386 17.0062 74.5386H16.1307V71.6779V68.8172H16.9486C17.394 68.8172 17.9201 68.8364 18.1082 68.8594Z" fill="black"/>
<path d="M29.9468 66.4518C29.7088 66.5363 29.4784 66.6899 29.2979 66.8857C29.1827 67.0086 28.0998 68.7749 26.1569 72.0196C24.5287 74.7421 23.1963 76.9731 23.1963 76.9808C23.1963 76.9885 24.0219 76.9962 25.0318 76.9962H26.8634L27.8234 75.3719L28.7872 73.7514L31.863 73.7399C34.2936 73.7322 34.9464 73.7438 34.9771 73.7783C34.9963 73.8052 35.2766 74.2775 35.5992 74.8266C35.9179 75.3757 36.252 75.9171 36.3364 76.0285C36.6436 76.4279 37.1121 76.7158 37.7303 76.8886C38.0375 76.977 38.0452 76.977 41.5779 76.9885L45.1183 77L45.1298 75.5101L45.1413 74.0202L45.2681 73.763C45.4101 73.475 45.5829 73.3099 45.8479 73.2062C46.0092 73.1447 46.2472 73.1371 48.3208 73.1255L50.6132 73.114V71.9044V70.6987H47.8677H45.1222V69.7771V68.8556L48.7816 68.8479L52.4372 68.8364L52.4487 67.6153L52.4564 66.398H47.0536C41.8928 66.398 41.6394 66.4019 41.4934 66.471C41.4051 66.5094 41.2899 66.5977 41.2323 66.663C41.0058 66.9318 41.0135 66.782 41.0135 71.4513C41.0135 75.2836 41.0058 75.729 40.952 75.7828C40.9098 75.8288 40.8176 75.8442 40.5987 75.8442L40.3031 75.8403L39.7501 74.9111C39.4468 74.4004 38.1758 72.2769 36.9278 70.188L34.6584 66.398H32.3737C30.5958 66.4019 30.0582 66.4134 29.9468 66.4518ZM32.1509 69.0744C32.2892 69.3048 32.6386 69.8847 32.9304 70.3646C33.2184 70.8446 33.4488 71.2478 33.4412 71.2593C33.4296 71.267 32.7231 71.2709 31.8668 71.267L30.3078 71.2555L31.0796 69.9615C31.5058 69.2472 31.8668 68.6674 31.8783 68.6636C31.8937 68.6636 32.0166 68.8479 32.1509 69.0744Z" fill="black"/>
</g>
<defs>
<clipPath id="clip0_993_22911">
<rect width="90" height="90" rx="10" fill="white"/>
</clipPath>
</defs>
</svg>
