<svg width="90" height="90" viewBox="0 0 90 90" fill="none" xmlns="http://www.w3.org/2000/svg">
<rect width="90" height="90" rx="10" fill="white"/>
<path d="M70.3436 26.7651C69.6101 23.8243 65.9336 22.2628 63.3619 21.2526C57.2081 18.8631 48.3881 17.5738 41.6809 18.1273C35.0659 18.6786 26.5204 20.5168 22.3871 23.6398C21.1924 24.5601 20.3644 25.3858 20.0899 27.4986C19.5386 32.0008 21.6514 38.7081 22.9361 42.7513C23.3029 42.5668 23.7619 42.0156 24.8644 41.4643C27.0694 40.3618 29.7334 39.6261 32.2151 39.1693C41.1251 37.3311 53.5294 37.1443 62.8084 37.1443C63.9109 37.1443 65.0134 37.1443 66.0259 37.2388C67.0361 37.2388 68.2309 37.3288 69.2411 37.3288L69.7924 34.8493C70.2514 32.5543 70.8949 29.0601 70.3436 26.7651ZM31.6661 30.4393C30.4714 34.2058 26.9794 33.6568 23.4896 33.6568L25.1411 26.3038C25.8746 26.2138 27.1616 26.3038 27.9874 26.3038C28.9999 26.3038 29.7334 26.3038 30.5614 26.5806C31.9384 27.1318 32.2174 28.7856 31.6661 30.4393ZM35.7994 33.8368C33.7789 33.9313 31.9406 33.4723 32.3096 31.2673C32.3996 30.7161 33.3199 26.4883 33.4121 26.3038H36.3506C36.2606 27.1318 35.8916 28.4188 35.7071 29.2446C35.6171 29.7958 35.5249 30.1626 35.4326 30.7161C35.3426 31.1751 35.1559 32.0008 35.8916 31.8186C36.3506 31.7263 36.4429 31.1751 36.5351 30.7161C36.8096 29.4291 37.2709 27.4086 37.4531 26.3061H40.3961C40.3061 27.0396 40.0294 28.1421 39.8449 28.8778C39.3859 31.2673 39.3859 33.6546 35.8016 33.8391L35.7994 33.8368ZM43.2424 33.8368C40.7606 33.8368 39.8426 32.2776 40.3939 29.8881C41.2196 25.9371 45.3551 25.5681 47.0089 26.4906C47.9269 27.0396 48.1114 27.6831 47.9269 28.9701H45.1706C45.1706 28.6011 45.2629 28.2343 44.9884 28.0498C44.7116 27.8676 44.2526 28.0498 44.0681 28.2343C43.6091 28.6933 42.8756 31.4518 43.4246 31.8186C44.0681 32.2776 44.5271 31.3573 44.6194 30.8983H47.3756C47.1934 32.7366 45.5396 33.9291 43.2424 33.8368ZM52.6136 33.6568V32.5543H50.4986L49.9496 33.7468H47.1011C47.1911 33.4723 48.7549 30.5293 49.0294 30.0726L51.0521 26.3961H54.9109L55.7366 33.7468C55.0931 33.6568 52.9804 33.7468 52.6136 33.6568ZM61.0669 28.2343C60.8824 28.6011 60.5156 30.4393 60.4234 30.8983C60.2389 31.6341 60.0544 32.8288 59.7799 33.5623H56.8391C56.7491 33.1033 57.9416 28.7856 57.9416 28.1421H56.1056L56.5646 26.1216H63.2696C63.2696 26.3961 62.9029 27.9576 62.8106 28.1421L61.0669 28.2343ZM65.2001 33.6568H62.1694L63.7286 26.3038H66.6671L65.1979 33.6546L65.2001 33.6568ZM59.9644 40.2718C57.1159 40.5463 54.4519 40.8208 51.7856 41.1898C46.7344 41.9233 41.4964 43.2103 37.2709 44.9563C33.6866 46.5178 28.5409 49.6408 28.5409 54.3276C28.5409 55.0611 28.6331 55.0611 29.1844 55.8891C30.0124 57.0816 31.1149 58.7376 31.9406 59.8401C34.6046 63.2376 39.3836 69.1191 43.1501 71.2318C44.2526 71.8753 45.1706 72.3343 46.5476 71.6908C47.5601 71.2318 48.5726 70.4983 49.3061 69.9448C54.1751 65.9961 60.5156 57.9096 63.4541 52.4893C65.4769 48.7228 67.3129 44.1283 68.5999 39.7183C67.7719 39.6283 60.7924 40.1796 59.9644 40.2718ZM52.5214 30.6238V27.9576C52.3369 28.1421 51.4189 30.2548 51.3289 30.6238H52.5214ZM27.7151 27.9576L26.7971 32.0008C28.0819 32.0931 28.4509 31.2651 28.6331 30.2548C28.9099 29.1523 29.2766 27.8653 27.7151 27.9576Z" fill="#CC0000"/>
</svg>
