<svg width="90" height="90" viewBox="0 0 90 90" fill="none" xmlns="http://www.w3.org/2000/svg">
<rect width="90" height="90" rx="10" fill="white"/>
<path d="M37.9503 21.1857C35.7335 21.6412 33.5775 22.5522 31.8466 23.7669C30.8141 24.5109 29.3262 26.0444 28.9466 26.7732C28.6125 27.4261 23.3136 43.9304 23.3895 44.067C23.4198 44.1429 24.8471 44.1885 26.5476 44.1885H29.6298L29.9487 43.2319C30.1157 42.7157 31.1178 39.5879 32.1806 36.2931C34.1089 30.2502 34.3822 29.5973 35.3843 28.6863C36.1131 28.003 37.5403 27.168 38.8309 26.6669L40.0608 26.1962L54.8342 26.1507C62.9421 26.1355 69.5924 26.0899 69.5924 26.0444C69.5924 25.8166 68.8787 24.1313 68.5903 23.6758C68.074 22.8407 66.7834 21.7627 65.8269 21.3831L64.9614 21.0339L51.9797 21.0035C41.4728 20.9883 38.8006 21.0187 37.9503 21.1857Z" fill="#D20A11"/>
<path d="M42.0043 31.6622C41.5488 31.8899 41.0781 32.2847 40.8504 32.6187C40.6378 32.9224 39.8027 35.1847 38.998 37.6444C37.3734 42.579 37.343 42.8067 38.1933 43.6115L38.6488 44.0366H44.2818C49.6719 44.0366 49.9452 44.0214 50.5677 43.7177C51.4635 43.2926 51.8886 42.7308 52.329 41.3947L52.7237 40.2408H48.3206C44.2362 40.2408 43.9326 40.2256 43.9478 39.9675C43.9478 39.8308 44.3122 38.6465 44.7373 37.3559L45.5268 35.0025L53.5436 34.957C57.9468 34.9418 61.5452 34.9721 61.5452 35.0329C61.5452 35.4428 58.5389 44.4617 58.1594 45.1753C57.8861 45.6764 57.2332 46.5418 56.7018 47.1036C55.563 48.3183 54.3332 48.9864 52.8756 49.1989C52.329 49.29 45.5117 49.3508 37.4189 49.3508H22.9492L23.0555 49.7607C23.5566 51.8408 25.2571 53.6021 27.2613 54.1487C28.5063 54.4675 55.2745 54.4524 56.6714 54.1335C59.4196 53.4806 62.107 51.0968 63.7165 47.8932C64.0505 47.2403 69.1369 31.7381 69.1369 31.3889C69.1369 31.3281 63.2002 31.2826 55.9578 31.2826H42.7787L42.0043 31.6622Z" fill="#D20A11"/>
<path d="M8.25133 59.9638C7.61363 60.1612 6.8241 60.6015 6.38378 61.0115C6.04975 61.3303 5.76127 62.0591 4.98692 64.4581C4.44032 66.1434 4 67.677 4 67.8743C4 68.0869 4.13665 68.5424 4.30367 68.9068C4.77435 69.9545 4.98692 70 9.95187 70C13.8084 70 14.3095 69.9696 14.8713 69.7115C15.8734 69.256 16.3744 68.4969 17.1336 66.2042C17.5132 65.0806 17.8168 64.0633 17.8168 63.957C17.8168 63.8204 17.0273 63.7748 14.355 63.7748H10.8932L10.6199 64.6403C10.4681 65.1262 10.3011 65.612 10.2707 65.7031C10.21 65.855 10.6351 65.9005 12.1231 65.9005H14.0665L13.9603 66.3864C13.9147 66.6597 13.6566 67.0696 13.4137 67.2974L12.9582 67.7225H10.3922C8.11468 67.7225 7.81102 67.6921 7.59845 67.4492C7.44662 67.2974 7.34033 67.0696 7.34033 66.9482C7.34033 66.6597 8.49427 63.2131 8.7372 62.7272C9.11678 62.0288 9.60265 61.9528 14.021 61.9528H18.1205V61.4973C18.1205 61.2544 18.0446 60.8748 17.9383 60.6623C17.5891 59.8727 17.2854 59.8272 12.776 59.8424C10.4985 59.8424 8.4639 59.9031 8.25133 59.9638Z" fill="#D20A11"/>
<path d="M20.1703 64.7921C17.9991 67.5251 16.2074 69.8026 16.1771 69.8785C16.1467 69.9393 16.9818 70 18.0294 70H19.9274L20.5802 69.089L21.2179 68.178L23.9509 68.2084L26.6839 68.2539L26.8965 69.1194L27.1091 70H29.007C30.7531 70 30.9049 69.9696 30.8442 69.7267C30.7986 69.5901 30.1609 67.2974 29.4321 64.6403L28.0808 59.8272H26.107H24.118L20.1703 64.7921ZM25.6515 64.2607C25.8489 65.0351 26.0159 65.7183 26.0159 65.779C26.0159 65.855 25.3326 65.9005 24.4975 65.9005C23.6625 65.9005 22.9792 65.855 22.9792 65.8094C22.9792 65.5817 25.1049 62.6665 25.2112 62.7576C25.2415 62.8031 25.4389 63.4712 25.6515 64.2607Z" fill="#D20A11"/>
<path d="M34.7769 60.0398C33.6229 60.4498 33.1978 60.9356 32.7727 62.3021C32.135 64.3367 32.1198 64.7011 32.6664 65.3084L33.1219 65.8247L36.8418 65.8702C39.8329 65.9158 40.6073 65.9613 40.7439 66.1435C40.9565 66.3864 40.8654 66.9027 40.5313 67.343C40.3188 67.6315 40.091 67.6467 35.8549 67.7226L31.4062 67.7985L31.3606 68.2844C31.2999 68.9221 31.6643 69.6053 32.2109 69.8331C32.5297 69.9697 33.881 70.0001 37.0392 69.9697C41.2298 69.9242 41.4575 69.909 42.0497 69.5901C42.8696 69.1498 43.3858 68.5273 43.7654 67.4948C44.4183 65.7639 44.312 64.3671 43.4921 63.9267C43.3099 63.8356 41.8067 63.7749 39.6962 63.7749C36.7355 63.7749 36.1737 63.7445 35.9763 63.532C35.6879 63.2587 35.6727 63.1524 35.9004 62.6665C36.2041 62.0136 36.5685 61.9529 40.8198 61.9529H44.8434V61.4974C44.8434 60.8597 44.5397 60.2979 44.069 60.0398C43.4769 59.7361 35.6271 59.7361 34.7769 60.0398Z" fill="#D20A11"/>
<path d="M48.9884 60.0853C48.624 60.2068 48.0318 60.5863 47.6674 60.9356C47.0145 61.5429 46.9538 61.6947 46.0732 64.4733C45.5569 66.0827 45.147 67.601 45.147 67.8592C45.147 68.6031 45.5417 69.3623 46.0883 69.6963C46.559 69.9848 46.8475 70 51.0077 70C55.3198 70 55.4413 69.9848 56.0942 69.6508C57.0507 69.1497 57.6277 68.1932 58.3413 65.9157C58.6905 64.8377 58.9638 63.9115 58.9638 63.8659C58.9638 63.8204 57.3999 63.7748 55.4868 63.7748H52.0098L51.691 64.7162C51.5088 65.2324 51.3721 65.7183 51.3721 65.779C51.3721 65.8398 52.192 65.9005 53.179 65.9005C54.1811 65.9005 55.0313 65.9612 55.0921 66.0523C55.2287 66.2801 54.7732 67.2063 54.3936 67.4796C54.1051 67.677 53.6041 67.7225 51.4936 67.7225C48.0166 67.7225 48.0774 67.8136 49.2161 64.534C50.1727 61.7858 49.7779 61.9528 55.1376 61.9528H59.2675V61.4062C59.2675 60.9811 59.146 60.7382 58.7512 60.3434L58.235 59.8272L53.9381 59.8424C50.5067 59.8424 49.4894 59.9031 48.9884 60.0853Z" fill="#D20A11"/>
<path d="M61.272 64.8225C59.0856 67.5707 57.2939 69.8634 57.2939 69.9089C57.2939 69.9545 58.1442 70 59.1767 70H61.0746L61.7123 69.089L62.35 68.178H65.0526C67.4971 68.178 67.7553 68.2084 67.8312 68.4361C67.8767 68.588 67.983 68.9979 68.0741 69.3471L68.2411 70H70.1239C71.1715 70 72.0218 69.9848 72.0218 69.9545C72.0066 69.9393 71.3841 67.6618 70.6097 64.9136L69.1977 59.9031L67.2238 59.8575L65.25 59.812L61.272 64.8225ZM66.7532 64.2607C66.9657 65.1262 67.1176 65.8398 67.1024 65.8701C67.072 65.8853 66.3584 65.8853 65.5233 65.8701L64.005 65.8246L65.083 64.2759C65.6903 63.4256 66.2217 62.7272 66.2673 62.712C66.328 62.712 66.5406 63.4104 66.7532 64.2607Z" fill="#D20A11"/>
<path d="M75.9389 60.0399C74.6179 60.5105 74.2991 60.9053 73.7676 62.7273C73.3577 64.1394 73.3121 64.7011 73.5551 65.1718C73.8891 65.7943 74.5268 65.9006 78.2315 65.9006C81.5263 65.9006 81.7389 65.9158 81.8907 66.1891C82.0729 66.5383 81.9666 66.9179 81.5415 67.3734C81.2378 67.7226 81.2075 67.7226 76.8499 67.7226H72.4771V68.3907C72.4771 68.8917 72.5682 69.1802 72.8415 69.4991L73.2059 69.9242L77.6697 69.9698C81.5263 70.0001 82.2096 69.9849 82.7713 69.7572C84.1378 69.241 84.8515 68.2237 85.231 66.2498C85.4588 65.1263 85.3525 64.6404 84.8211 64.1394C84.4263 63.775 84.4263 63.775 80.8886 63.775C77.8216 63.775 77.3205 63.7446 77.108 63.532C76.9409 63.3498 76.8954 63.1524 76.9561 62.8791C77.1687 62.0289 77.1535 62.0289 81.7692 61.9833L86.0358 61.9378L85.9447 61.3001C85.8839 60.8446 85.7169 60.5409 85.3829 60.2372L84.9274 59.8273H80.7064C77.5938 59.8425 76.3488 59.888 75.9389 60.0399Z" fill="#D20A11"/>
</svg>
