<svg width="90" height="90" viewBox="0 0 90 90" fill="none" xmlns="http://www.w3.org/2000/svg">
<rect width="90" height="90" rx="10" fill="white"/>
<g clip-path="url(#clip0_993_22858)">
<path d="M4 33.0078H86V56.9924H4V33.0078Z" fill="#FBFBFB"/>
<path d="M76.1437 33.5874C75.7925 34.2536 75.1332 34.68 74.4687 34.9698C73.8149 35.2511 73.1215 35.4248 72.4248 35.5514C72.443 35.7256 72.3715 35.9016 72.2263 35.9987C71.8555 36.2676 71.3979 36.3632 70.9613 36.4589C69.9344 36.654 68.8842 36.7087 67.8424 36.6621C67.9241 36.7839 67.9946 36.9695 67.8671 37.0875C67.6733 37.2417 67.416 37.2641 67.1807 37.2912C66.3056 37.3536 65.43 37.2479 64.5624 37.1418C64.4522 37.404 64.1785 37.5306 63.9166 37.5687C63.5 37.6305 63.076 37.601 62.6595 37.5563C62.6702 37.6748 62.7066 37.819 62.6086 37.9118C62.4708 38.0488 62.2691 38.0845 62.086 38.1059C61.7012 38.1331 61.3081 38.1021 60.9429 37.9703C60.9849 38.0826 61.0498 38.2225 60.9723 38.3353C60.8686 38.489 60.6692 38.5242 60.5011 38.5523C60.1901 38.5832 59.874 38.569 59.5686 38.5019C59.64 38.6213 59.7334 38.7555 59.6919 38.904C59.647 39.0701 59.4738 39.1443 59.3258 39.1867C58.9779 39.2714 58.6122 39.2414 58.2653 39.1672C58.3409 39.2966 58.4184 39.4589 58.347 39.6088C58.2597 39.7563 58.093 39.8277 57.9342 39.86C57.5798 39.9329 57.2071 39.9043 56.8639 39.791C56.9382 39.93 57.0348 40.079 56.9961 40.246C56.9484 40.4154 56.777 40.5058 56.6211 40.5467C56.2564 40.6391 55.8716 40.5943 55.5144 40.492C55.5891 40.6234 55.675 40.7909 55.5933 40.9398C55.4994 41.0726 55.3346 41.1207 55.1837 41.143C54.7803 41.193 54.3693 41.1135 53.9939 40.9631C54.0313 41.1221 54.0808 41.3006 53.9953 41.4533C53.9024 41.6075 53.7133 41.6575 53.5475 41.6684C53.1678 41.6841 52.7859 41.5618 52.4739 41.3434C52.473 41.4752 52.4814 41.6242 52.3861 41.7279C52.2554 41.8716 52.0452 41.8826 51.8669 41.865C51.5685 41.834 51.2883 41.7051 51.0497 41.5237C51.0048 41.6656 50.8984 41.7945 50.7461 41.814C50.373 41.8673 49.9994 41.6822 49.7473 41.4095C49.7141 41.5342 49.624 41.6565 49.4886 41.6675C49.1477 41.6955 48.8357 41.4823 48.6139 41.2373C48.5677 41.3434 48.4869 41.4481 48.3636 41.4547C48.097 41.4776 47.8406 41.321 47.6926 41.1016C47.5941 41.2544 47.4306 41.3696 47.2457 41.3624C46.9903 41.3648 46.7862 41.1882 46.6144 41.0169C46.4705 40.8661 46.2791 41.0583 46.1936 41.1844C46.3902 41.2825 46.6074 41.341 46.7844 41.4776C47.0192 41.6656 47.1575 41.9754 47.129 42.2804C47.107 42.6402 46.8838 42.9595 46.5943 43.1541C46.1824 43.4401 45.6716 43.5177 45.1836 43.5296C45.0949 43.5329 44.9725 43.6029 45.0043 43.71C45.0762 43.8242 45.2195 43.8584 45.3199 43.9422C45.4124 43.848 45.5175 43.7466 45.6566 43.7385C45.8229 43.7161 45.9756 43.8037 46.104 43.9013C46.2669 43.6747 46.5845 43.6305 46.8166 43.7713C47.0589 43.9227 47.2938 44.1107 47.447 44.3591C47.6921 44.8806 47.3106 45.5007 46.8194 45.6939C46.74 45.7315 46.6176 45.7153 46.5999 45.614C46.6046 45.435 46.6597 45.2613 46.676 45.0834C46.527 45.3475 46.3309 45.6068 46.0526 45.7353C45.9396 45.7948 45.7687 45.7139 45.793 45.5702C45.8172 45.4246 45.8602 45.2828 45.8766 45.1352C45.7379 45.3684 45.5609 45.5878 45.319 45.7134C45.2139 45.7653 45.0444 45.751 45.0136 45.6149C44.986 45.4246 45.0958 45.2376 45.0435 45.0486C45.0141 44.9711 44.9422 44.9244 44.8866 44.8687C44.8091 45.229 44.562 45.5474 44.2319 45.6996C44.1614 45.7315 44.0829 45.7206 44.0096 45.7244C43.9298 45.5207 44.0423 45.3075 44.0516 45.0991C43.9097 45.3603 43.7187 45.6068 43.4581 45.7515C43.3451 45.8134 43.1691 45.7701 43.1672 45.6178C43.1929 45.4617 43.2349 45.308 43.2475 45.15C43.1275 45.3884 42.9505 45.6007 42.7203 45.7353C42.6143 45.7981 42.4443 45.7948 42.3925 45.6635C42.3467 45.4569 42.5008 45.2385 42.3953 45.0415C42.1562 44.774 41.7822 44.6379 41.6024 44.3134C41.4067 44.5599 41.261 44.8435 41.1508 45.1395C41.0967 45.3627 40.7259 45.3537 40.6652 45.1409C40.6456 45.0634 40.6372 44.9834 40.6264 44.9049C40.4027 45.0896 40.187 45.2994 39.9049 45.3875C39.5052 45.5217 39.0228 45.6016 38.6497 45.3508C38.1823 45.4988 37.6752 45.5331 37.1979 45.4179C37.0177 45.3713 36.8071 45.2942 36.7524 45.0905C36.2014 45.2323 35.6027 45.2966 35.055 45.1062C34.8406 45.0405 34.6613 44.8568 34.6581 44.6184C34.2453 44.677 33.8119 44.6855 33.4155 44.5404C33.167 44.4438 32.9079 44.2634 32.8579 43.9784C33.7909 43.2959 34.7524 42.6549 35.7181 42.022C35.6186 41.9178 35.6298 41.7498 35.7559 41.6746C36.1972 41.3534 36.6623 41.0674 37.1148 40.7628C36.482 40.9893 35.8269 41.2411 35.1432 41.1759C35.0102 41.1587 34.8505 41.1211 34.7935 40.9817C34.7524 40.8489 34.8266 40.7181 34.8696 40.5967C34.4152 40.7471 33.9473 40.8837 33.4664 40.8932C33.2908 40.8832 33.0699 40.8723 32.9709 40.6986C32.8981 40.5191 33.019 40.3435 33.1161 40.2022C32.5721 40.3307 32.0173 40.4587 31.4551 40.4278C31.2763 40.4121 31.0283 40.3631 30.9919 40.1475C30.9811 39.9457 31.1138 39.7768 31.2198 39.6192C30.6669 39.6949 30.1084 39.7949 29.5489 39.7411C29.3864 39.7187 29.1735 39.6678 29.1361 39.4751C29.1207 39.2585 29.2758 39.0829 29.3934 38.9187C28.8891 39.0263 28.3717 39.081 27.8571 39.0415C27.6876 39.0187 27.5092 38.9973 27.363 38.9002C27.2739 38.844 27.2169 38.7293 27.2533 38.6242C27.315 38.4314 27.4821 38.3049 27.6232 38.173C27.1146 38.2601 26.5977 38.3172 26.0817 38.282C25.921 38.2582 25.7296 38.2358 25.6292 38.0888C25.5554 37.8399 25.8024 37.6572 25.9514 37.4997C25.2047 37.5725 24.4524 37.6672 23.702 37.601C23.4937 37.5701 23.2472 37.5544 23.1038 37.3764C22.995 37.2003 23.1384 37.0138 23.2327 36.8682C22.5182 36.9215 21.8019 36.9219 21.086 36.9067C20.2884 36.8724 19.4853 36.8039 18.7138 36.5817C18.3202 36.4651 17.9274 36.3076 17.609 36.0377C17.5627 35.9982 17.5137 35.9611 17.4521 35.9535C16.6797 35.7846 15.9097 35.52 15.2624 35.046C14.7945 34.7034 14.4121 34.2056 14.3154 33.6145C15.0019 34.1737 15.8751 34.4059 16.7236 34.5668C17.8252 34.7671 18.9464 34.8228 20.0634 34.8395C21.8579 34.8547 23.6511 34.7362 25.4373 34.5649C28.8952 34.2327 32.39 33.9876 35.8521 34.3964C37.0868 34.553 38.3285 34.7605 39.4935 35.2221C40.3915 35.5757 41.24 36.1144 41.8433 36.8905C42.6792 36.7011 43.537 36.645 44.3897 36.5917C44.8824 36.5712 45.3755 36.5531 45.8686 36.5779C45.8074 36.4346 45.7561 36.2876 45.7094 36.1386C46.2263 36.3513 46.7792 36.4689 47.3349 36.5027C47.8042 36.5122 48.2787 36.5231 48.734 36.6512C50.1269 36.3747 51.4643 35.8726 52.7929 35.3748C53.4191 35.1426 54.0439 34.9008 54.692 34.7376C56.0126 34.4088 57.3729 34.2803 58.7285 34.2351C62.362 34.1256 65.9787 34.5968 69.6075 34.681C70.8417 34.6967 72.0815 34.6862 73.3055 34.504C74.2903 34.3564 75.2761 34.0995 76.1437 33.5874Z" fill="#0A0A0A"/>
<path d="M30.3206 34.5658C32.578 34.4854 34.8577 34.502 37.0828 34.946C37.8869 35.1088 38.6859 35.3163 39.4499 35.6218C40.2643 35.9544 40.9689 36.5255 41.526 37.2098C41.8739 37.6234 42.1635 38.0831 42.5043 38.5018C42.6977 38.7288 42.9083 38.9568 43.1838 39.0791C43.3617 39.1657 43.562 39.18 43.7563 39.18C43.598 39.0986 43.4313 39.031 43.2926 38.9163C43.5527 38.8388 43.8287 38.8121 44.0748 38.6874C43.81 38.7136 43.542 38.726 43.2781 38.6879C42.9807 38.6779 42.8228 38.3781 42.6832 38.1516C43.4677 38.3453 44.2303 37.966 45.012 37.9574C44.6655 37.7642 44.255 37.8251 43.8768 37.8147C43.5364 37.8461 43.1931 37.8347 42.855 37.7894C42.6851 37.7642 42.5258 37.6909 42.3909 37.5848C42.5875 37.5339 42.7915 37.5225 42.99 37.4758C43.937 37.2807 44.8639 36.9447 45.8394 36.9281C46.0076 36.9276 46.1752 36.9281 46.3433 36.9309C46.3088 36.8462 46.2756 36.7611 46.2448 36.6754C47.1026 36.9262 48.0225 36.7411 48.8738 37.0256C49.0503 37.0999 49.1064 37.3031 49.1568 37.4725C49.062 37.3673 48.9607 37.2674 48.8407 37.1932C48.9238 37.344 48.9938 37.5034 49.0223 37.6752C49.1591 37.6724 49.2922 37.7357 49.4291 37.7085C49.7559 37.6438 50.0926 37.7085 50.4116 37.789C50.6268 37.8546 50.8598 37.9565 50.9654 38.1735C51.0406 38.3272 50.9883 38.5009 50.9719 38.6617C50.8202 38.429 50.526 38.3719 50.2808 38.4704C50.1146 38.5694 49.9371 38.4576 49.7615 38.4638C49.3244 38.4595 48.9144 38.6698 48.5796 38.942C48.5054 39.0115 48.3788 39.0034 48.334 39.1067C48.4367 39.2918 48.588 39.0106 48.7342 39.0529C49.2922 39.0867 49.8591 39.2028 50.412 39.0558C50.3565 39.1962 50.243 39.3037 50.101 39.347C49.394 39.6187 48.6296 39.3551 47.903 39.4874C47.4552 39.5821 47.1082 39.9062 46.7384 40.1574C46.4474 40.3692 46.1332 40.5591 45.7811 40.6419C45.846 40.5324 45.9973 40.4406 45.9753 40.3002C45.8455 40.2636 45.7185 40.3278 45.599 40.3702C45.3655 40.4596 45.1642 40.611 44.9485 40.7342C45.3501 40.2869 45.8128 39.8752 46.3606 39.6259C46.1467 39.5873 45.937 39.673 45.7489 39.7677C45.3487 39.9733 44.9905 40.2564 44.5786 40.4401C44.1126 40.6638 43.5845 40.7038 43.0778 40.6538C42.8672 40.6176 42.6248 40.5596 42.5184 40.3478C42.8751 40.4063 43.2473 40.462 43.6017 40.3587C43.8917 40.2793 44.1486 40.1003 44.3493 39.8757C43.8922 40.1179 43.3454 40.2507 42.8406 40.0961C43.1404 40.0199 43.4317 39.9062 43.697 39.7429C43.0152 39.762 42.3451 39.5221 41.7773 39.1481C41.4294 38.924 41.1193 38.6456 40.8247 38.3543C40.5169 38.0202 40.2311 37.6624 39.88 37.3735C39.1221 36.7368 38.2171 36.3109 37.2897 35.9996C35.419 35.3881 33.4433 35.2035 31.4885 35.1592C31.0486 35.1449 30.6064 35.1388 30.167 35.1621C28.3654 35.1716 26.5755 35.3953 24.7828 35.5456C23.2297 35.6703 21.67 35.7588 20.1122 35.6898C18.8374 35.6199 17.5392 35.4776 16.3507 34.9736C16.1938 34.9027 16.0285 34.8423 15.894 34.73C17.4364 35.1254 19.0386 35.1754 20.6212 35.1749C22.3051 35.1649 23.9866 35.0493 25.6645 34.9051C26.9869 34.7842 28.3084 34.6467 29.636 34.5948C29.8639 34.5805 30.0927 34.5886 30.3206 34.5658ZM55.452 34.9032C56.7773 34.6391 58.1301 34.5715 59.4769 34.5487C61.228 34.5444 62.9768 34.6457 64.7242 34.7566C65.5176 34.8085 66.3114 34.8594 67.1058 34.8994C69.0133 34.9965 70.9321 35.0598 72.8355 34.8604C73.3375 34.8123 73.832 34.7067 74.3298 34.6305C73.4187 35.0864 72.3993 35.242 71.4005 35.3524C70.2783 35.4666 69.1501 35.49 68.0238 35.4823C65.5844 35.4928 63.1468 35.2839 60.7078 35.3976C59.5413 35.4557 58.3753 35.5709 57.2284 35.8031C56.2057 35.9996 55.2087 36.3123 54.2216 36.644C53.1896 37.0333 52.1599 37.4354 51.1013 37.7457C50.6488 37.3688 50.0398 37.3307 49.4823 37.286C49.4379 37.1637 49.3847 37.0452 49.3226 36.9319C50.207 36.7154 51.055 36.3708 51.9087 36.0544C53.0723 35.6204 54.2286 35.1359 55.452 34.9032Z" fill="#FBFBFB"/>
<path d="M29.1497 35.7399C29.6157 35.6285 30.0944 35.5448 30.5744 35.5657C30.3152 35.7656 30.001 35.8674 29.6951 35.9655C29.2767 36.0844 28.813 36.1649 28.3997 35.984C28.637 35.8674 28.8966 35.8099 29.1497 35.7399ZM31.4677 35.6933C31.987 35.5134 32.538 35.6333 33.0713 35.6538C32.7393 35.7927 32.3797 35.8774 32.0202 35.8803C31.825 35.866 31.62 35.8279 31.4677 35.6933ZM25.0548 35.9369C26.042 35.8584 27.0268 35.7518 28.015 35.6861C27.8179 35.7618 27.6087 35.7956 27.4046 35.8441C26.1863 36.1092 24.9507 36.2881 23.7109 36.4061C22.5084 36.5099 21.2966 36.5627 20.0933 36.4447C19.3989 36.3704 18.6947 36.2624 18.0498 35.9793C18.6872 36.0568 19.3284 36.1111 19.9709 36.1111C21.667 36.1515 23.3649 36.0906 25.0548 35.9369ZM32.9004 36.1182C33.2828 35.9859 33.669 35.8579 34.0688 35.7922C34.511 35.7642 34.9467 35.877 35.3814 35.9426C34.8337 36.1301 34.2906 36.4052 33.6984 36.3828C33.4131 36.38 33.1362 36.2786 32.9004 36.1182ZM61.048 35.8075C61.6518 35.7742 62.271 35.7323 62.8617 35.8955C62.9836 35.9264 63.105 35.9588 63.2264 35.9964C62.9948 36.1311 62.7155 36.0892 62.461 36.0873C61.9833 36.0454 61.4963 35.9878 61.048 35.8075ZM63.4762 35.8037C64.525 35.8156 65.5748 35.8698 66.6241 35.886C67.3222 35.9303 68.0222 35.9255 68.7208 35.9588C69.7523 35.9579 70.789 35.9764 71.8135 35.8289C71.3624 36.0692 70.8464 36.1373 70.3491 36.2096C69.141 36.3514 67.9213 36.3224 66.709 36.2619C65.6261 36.1753 64.5185 36.1434 63.4762 35.8037ZM29.4845 36.5798C30.007 36.3376 30.5156 36.0597 31.061 35.8731C31.2384 36.0611 31.499 36.1187 31.7456 36.1311C31.216 36.349 30.686 36.6032 30.1102 36.6574C29.8987 36.6812 29.6858 36.6474 29.4845 36.5798ZM59.3804 35.9212C59.7741 35.8717 60.1929 35.8184 60.5707 35.9764C60.8602 36.0901 61.153 36.1996 61.4337 36.3357L61.4304 36.3633C61.1035 36.4656 60.758 36.3919 60.4316 36.3252C60.0678 36.231 59.718 36.0873 59.3804 35.9212ZM57.8385 36.1354C58.2065 36.0763 58.6001 36.0116 58.9569 36.1606C59.3771 36.3409 59.7899 36.5394 60.1934 36.7573C60.0253 36.8354 59.8348 36.8149 59.6569 36.8011C59.011 36.7245 58.3965 36.4666 57.8385 36.1354ZM23.561 37.0729C24.9624 36.9377 26.3423 36.6227 27.6811 36.1834C27.7534 36.1373 27.8118 36.2139 27.8721 36.2429C28.0785 36.3809 28.3288 36.4157 28.5674 36.4532C28.2115 36.6036 27.8366 36.6998 27.4653 36.8021C26.3418 37.0819 25.194 37.2932 24.0345 37.3013C23.837 37.2827 23.6362 37.3013 23.4405 37.2637C23.3583 37.1852 23.469 37.0629 23.561 37.0729ZM34.4563 36.7583C34.9023 36.5499 35.3679 36.3842 35.8432 36.2605C36.2178 36.2086 36.5993 36.2677 36.9612 36.3709C36.4797 36.5874 36.0067 36.8387 35.4944 36.9715C35.1451 37.0286 34.715 37.0533 34.4563 36.7583ZM30.708 37.1913C31.2973 36.8906 31.8829 36.5803 32.4787 36.2919C32.7468 36.5289 33.0867 36.6722 33.4425 36.6864C33.0125 36.9296 32.5432 37.0966 32.0683 37.2218C31.6246 37.3208 31.1329 37.4031 30.708 37.1913ZM56.5221 36.4123C56.9424 36.3171 57.4205 36.2843 57.8021 36.5237C58.1047 36.6955 58.4199 36.8516 58.6963 37.0662C58.5403 37.0976 58.3811 37.1338 58.2223 37.109C57.6041 37.0472 57.0274 36.7688 56.5221 36.4123ZM62.7482 36.4095C63.0331 36.3152 63.3375 36.3452 63.6331 36.339C64.0314 36.3276 64.4111 36.4661 64.8001 36.5308C65.4921 36.6669 66.1935 36.7469 66.8958 36.803C67.1485 36.8378 67.4095 36.8144 67.657 36.8892C67.1989 37.0276 66.7161 37.0024 66.2449 36.9862C65.4492 36.9367 64.6572 36.834 63.8731 36.6874C63.4944 36.6112 63.1129 36.5399 62.7482 36.4095ZM61.9749 36.6565C62.0482 36.6298 62.1206 36.6736 62.193 36.6893C62.8108 36.8854 63.4365 37.0519 64.0599 37.2285C63.6831 37.3627 63.2731 37.3322 62.8836 37.2875C62.2654 37.2075 61.6728 36.9924 61.0979 36.7564C61.3935 36.7916 61.6915 36.7445 61.9749 36.6565ZM55.2211 36.784C55.6409 36.6365 56.1466 36.6046 56.5286 36.8701C56.8181 37.0738 57.1156 37.2689 57.3776 37.5092C56.9606 37.6896 56.4931 37.5478 56.1126 37.3422C55.8095 37.1656 55.5186 36.9691 55.2211 36.784ZM26.2213 37.7757C27.1487 37.5445 28.0504 37.2132 28.9153 36.8011C29.1637 37.02 29.5121 37.0724 29.8301 37.0752C28.8298 37.5535 27.7558 37.8938 26.6509 37.9813C26.4184 37.9923 26.1826 38.0189 25.9533 37.9685C26.0079 37.8623 26.1064 37.7948 26.2213 37.7757ZM36.8762 36.9815C37.1022 36.8992 37.3273 36.774 37.5757 36.7968C37.8932 36.8202 38.1958 36.9406 38.477 37.0876C37.9796 37.2941 37.4837 37.5102 36.9691 37.6672C36.5638 37.7529 36.08 37.8038 35.7372 37.5164C36.0959 37.296 36.4891 37.1419 36.8762 36.9815ZM32.1897 37.9285C32.7678 37.6258 33.3417 37.3151 33.9231 37.0191C34.1939 37.2665 34.5521 37.3731 34.9079 37.4036C34.3191 37.6944 33.705 37.9613 33.0498 38.0403C32.7612 38.0613 32.4507 38.0779 32.1897 37.9285ZM59.7096 37.1338C60.037 37.1785 60.3755 37.1676 60.6898 37.0543C61.2516 37.2932 61.8231 37.5111 62.3709 37.7833C61.8012 37.9185 61.1965 37.8138 60.6627 37.5878C60.3475 37.4307 60.0197 37.3008 59.7096 37.1338ZM53.9141 37.2132C54.3409 37.1109 54.8237 37.0648 55.2183 37.2989C55.5214 37.5188 55.8198 37.7486 56.0986 38.0008C55.76 38.1203 55.3845 38.0751 55.0605 37.9318C54.6463 37.7496 54.2783 37.4797 53.9141 37.2132ZM58.1658 37.4574C58.4922 37.5278 58.8233 37.4369 59.1409 37.3708C59.676 37.6206 60.213 37.8776 60.7061 38.2074C60.1322 38.393 59.5163 38.2036 59.0017 37.9285C58.7229 37.7719 58.4329 37.6344 58.1658 37.4574Z" fill="#FBFBFB"/>
<path d="M48.6362 37.4067C48.7441 37.4662 48.8081 37.5681 48.8226 37.6908C48.7833 37.7099 48.7446 37.7289 48.7067 37.7484C48.7245 37.628 48.682 37.5148 48.6362 37.4067Z" fill="#0A0A0A"/>
<path d="M27.8238 38.4865C28.6705 38.239 29.4774 37.8745 30.2661 37.4795C30.5892 37.7341 31.024 37.7921 31.4214 37.7902C30.5439 38.2542 29.5783 38.5326 28.6037 38.6868C28.2754 38.723 27.9415 38.7806 27.6123 38.7268C27.6385 38.6145 27.7038 38.5069 27.8238 38.4865ZM38.5567 37.6199C38.9219 37.4505 39.3435 37.6013 39.6419 37.8412C39.2361 38.0501 38.8252 38.2519 38.4045 38.4275C38.0066 38.5445 37.5172 38.5664 37.1847 38.2742C37.6073 37.9911 38.0902 37.815 38.5567 37.6199Z" fill="#FBFBFB"/>
<path d="M47.1929 37.5493C47.58 37.5026 47.9746 37.5369 48.357 37.6064C48.548 37.6202 48.5728 37.8419 48.5391 37.9928C48.4817 37.9909 48.4247 37.9885 48.3687 37.9861C48.2104 38.1922 48.0344 38.4097 47.7724 38.4739C47.7738 38.403 47.8676 38.2636 47.7509 38.2369C47.6015 38.2107 47.4371 38.2283 47.2993 38.2893C47.3353 38.2169 47.424 38.1998 47.4838 38.1517C47.6099 38.0832 47.65 37.9333 47.693 37.8058C47.6239 37.5892 47.3778 37.5754 47.1929 37.5493Z" fill="#0A0A0A"/>
<path d="M52.702 37.7124C53.0737 37.6158 53.5196 37.534 53.8498 37.7876C54.1188 38.0122 54.3798 38.2492 54.6175 38.5081C54.6147 38.5923 54.4942 38.5543 54.4405 38.5738C53.7503 38.6347 53.1876 38.1445 52.702 37.7124ZM47.8263 38.164C47.7035 38.0474 47.7483 37.8457 47.8282 37.7162C47.895 37.7186 47.9627 37.7205 48.0313 37.7224C48.022 37.7928 47.9776 37.8642 48.0019 37.9356C48.0178 38.047 48.1387 38.0746 48.2158 38.1321C48.0976 38.1873 47.9431 38.2673 47.8263 38.164ZM33.7276 38.7127C34.2338 38.4077 34.7306 38.0865 35.2391 37.7843C35.5011 38.0122 35.8355 38.1417 36.1764 38.1769C35.538 38.5476 34.8203 38.8679 34.0694 38.8098C33.9494 38.8046 33.8373 38.757 33.7276 38.7127ZM56.8412 37.9394C57.1723 38.0117 57.5057 37.9389 57.8293 37.8699C58.3495 38.1593 58.8823 38.4419 59.332 38.8398C59.3306 38.8507 59.3278 38.8721 59.3269 38.8826C58.9664 38.9987 58.5807 38.9126 58.2365 38.7817C57.9446 38.6756 57.692 38.4891 57.4291 38.3268C57.2335 38.1973 57.0275 38.0831 56.8412 37.9394ZM51.4958 38.1812C51.8722 38.1431 52.3013 38.0784 52.6319 38.3125C52.8771 38.5305 53.1087 38.766 53.3296 39.0097C52.6128 39.151 51.9707 38.6723 51.4958 38.1812ZM29.6406 39.2105C30.3845 38.9345 31.0952 38.5771 31.8148 38.243C32.1735 38.4577 32.6064 38.5148 33.0164 38.5195C32.2977 38.9112 31.5085 39.1572 30.7137 39.3309C30.307 39.4137 29.8909 39.4699 29.4753 39.4451C29.4707 39.3371 29.5379 39.2391 29.6406 39.2105ZM55.4534 38.4348C55.7826 38.509 56.1221 38.4629 56.441 38.3615C56.9925 38.7089 57.5487 39.0606 58.0236 39.5146C57.5776 39.6959 57.0663 39.575 56.6586 39.348C56.2309 39.0806 55.8606 38.7318 55.4534 38.4348ZM39.6179 38.5647C39.9271 38.4143 40.3067 38.5252 40.5514 38.7513C40.105 38.9864 39.6324 39.2381 39.1159 39.2253C38.9226 39.2281 38.7353 39.1634 38.5691 39.0658C38.9067 38.874 39.263 38.7203 39.6179 38.5647ZM35.2527 39.4218C35.7183 39.1372 36.1773 38.8417 36.6508 38.57C36.9095 38.7936 37.2364 38.9145 37.5712 38.953C37.1491 39.191 36.6877 39.3528 36.217 39.4551C35.9004 39.5141 35.5534 39.5746 35.2527 39.4218ZM54.2103 38.9878C54.5026 39.0573 54.8001 38.9859 55.0868 38.9212C55.6602 39.31 56.2108 39.7444 56.7095 40.2303C56.3215 40.3217 55.9021 40.2908 55.543 40.1109C55.0223 39.8591 54.6292 39.417 54.2079 39.0297C54.2084 39.0192 54.2098 38.9983 54.2103 38.9878ZM31.4604 39.9191C32.1095 39.644 32.7338 39.3119 33.3671 39.0025C33.6851 39.2272 34.0843 39.2838 34.4626 39.2885C33.735 39.6897 32.9323 39.9386 32.1184 40.0771C31.8531 40.1142 31.5856 40.1532 31.3175 40.1313C31.3287 40.0409 31.3666 39.9472 31.4604 39.9191ZM40.6999 39.2681C40.9203 39.1548 41.1846 39.2043 41.3947 39.3185L41.391 39.358C40.9749 39.6436 40.4258 39.9148 39.9322 39.6626C40.1689 39.496 40.4417 39.3942 40.6999 39.2681ZM36.8091 40.0276C37.2186 39.7977 37.6184 39.5479 38.0405 39.3433C38.2969 39.5051 38.5827 39.6202 38.8848 39.6531C38.5112 39.8391 38.1166 39.9838 37.7094 40.0699C37.4129 40.1237 37.0916 40.1566 36.8091 40.0276ZM52.7958 39.3476C53.0994 39.4599 53.4314 39.4789 53.7475 39.4147C54.2962 39.872 54.8715 40.3122 55.3221 40.8751C54.8533 40.9537 54.3303 40.9061 53.9525 40.5853C53.5224 40.2184 53.1801 39.7611 52.7958 39.3476ZM51.6956 39.487C51.9273 39.5531 52.1654 39.5907 52.4064 39.595C52.8813 40.1642 53.38 40.7214 53.7629 41.361C53.3856 41.4196 52.9728 41.3401 52.6936 41.0598C52.2443 40.6229 52.0034 40.0252 51.6956 39.487ZM50.6459 39.5793C50.8406 39.6445 51.0414 39.6883 51.2436 39.7216C51.5658 40.3231 51.903 40.9223 52.1313 41.569C51.7834 41.5837 51.4374 41.4024 51.2562 41.0979C50.9676 40.632 50.8313 40.0918 50.6459 39.5793ZM33.3759 40.4454C33.8765 40.208 34.3673 39.9491 34.8567 39.6888C35.1056 39.8577 35.4133 39.8829 35.7014 39.9224C35.0463 40.2603 34.3398 40.5011 33.6103 40.6001C33.5053 40.6125 33.3988 40.6234 33.2942 40.6053C33.2447 40.5406 33.325 40.4754 33.3759 40.4454ZM41.7693 39.7549C41.9752 39.6945 42.1933 39.7506 42.388 39.8263C42.0765 40.0576 41.6315 40.2817 41.2682 40.0319C41.4293 39.93 41.5909 39.8234 41.7693 39.7549ZM49.7601 39.8882C49.8987 39.8672 50.0356 39.8339 50.1715 39.7954C50.326 40.3617 50.5011 40.9223 50.6571 41.4881C50.4161 41.4429 50.1747 41.3144 50.0645 41.0807C49.8843 40.7091 49.8469 40.2884 49.7601 39.8882ZM47.7731 39.989C47.9149 39.9415 48.0621 39.9127 48.2111 39.9034C48.2359 40.306 48.2625 40.7091 48.2989 41.1112C48.1056 41.0227 47.9333 40.8685 47.8548 40.6648C47.7708 40.4507 47.768 40.216 47.7731 39.989ZM48.7846 39.9086C48.919 39.9153 49.0545 39.9167 49.1899 39.92C49.2814 40.4031 49.3575 40.8894 49.4388 41.3744C49.2272 41.2749 49.0171 41.1326 48.9288 40.9023C48.8079 40.5872 48.8051 40.2417 48.7846 39.9086ZM38.3669 40.5834C38.7181 40.3564 39.073 40.1337 39.4339 39.9224C39.6782 40.0747 39.9611 40.1447 40.2437 40.1737C39.6702 40.4645 39.0165 40.7329 38.3669 40.5834ZM35.2317 40.76C35.6286 40.6067 36.012 40.4173 36.4033 40.2508C36.6064 40.364 36.8315 40.4245 37.0608 40.4507C36.4523 40.731 35.7874 40.9223 35.1154 40.9056C35.1275 40.8385 35.1593 40.7738 35.2317 40.76ZM46.7799 40.6648C46.9447 40.5477 47.1077 40.4273 47.2772 40.3165C47.2837 40.5929 47.3071 40.8685 47.308 41.1455C47.1035 41.0212 46.9143 40.8671 46.7799 40.6648ZM39.8533 41.0465C40.1666 40.8218 40.4758 40.5891 40.804 40.3878C41.0347 40.4607 41.2659 40.5582 41.5152 40.5401C41.1104 40.7966 40.6649 41.0132 40.1867 41.0707C40.0746 41.0888 39.9625 41.0665 39.8533 41.0465ZM41.4106 41.3544C41.646 41.1507 41.8939 40.9618 42.1433 40.7757C42.3222 40.8775 42.5225 40.9323 42.7265 40.9508C42.3394 41.2016 41.8823 41.4338 41.4106 41.3544ZM36.4131 41.9692C36.9506 41.6052 37.4745 41.2206 38.0087 40.8518C38.3319 40.9875 38.6816 41.0517 39.0333 41.056C38.4939 41.4538 37.9023 41.8012 37.2509 41.9611C36.9758 42.0282 36.6877 42.0444 36.4131 41.9692ZM42.7877 41.8393C43.2024 41.4662 43.7301 41.1721 44.2979 41.1926C44.5977 41.1949 44.9531 41.2601 45.1305 41.5347C45.3855 41.9183 45.2977 42.4741 44.9783 42.792C44.7546 43.0238 44.431 43.1313 44.1172 43.1408C43.6199 43.157 43.1081 43.1732 42.642 43.3707C42.6346 43.3421 42.6196 43.286 42.6121 43.2579C42.0448 43.533 41.4905 43.9165 41.1888 44.4962C41.0833 44.6746 41.0506 44.8864 40.939 45.061C40.8185 44.9126 40.904 44.7179 40.9231 44.5499C41.0258 43.9884 41.3593 43.5096 41.7305 43.0966C42.1512 42.6412 42.6476 42.2471 43.2136 41.9982C43.0735 41.9397 42.9311 41.8878 42.7877 41.8393ZM39.4979 41.3087C39.822 41.4852 40.1946 41.3896 40.5421 41.382C40.0536 41.8055 39.5124 42.1991 38.8852 42.3713C38.6223 42.4513 38.345 42.4318 38.0751 42.4232C38.5663 42.0744 39.0095 41.6613 39.4979 41.3087Z" fill="#FBFBFB"/>
<path d="M45.522 41.4987C45.8526 41.404 46.229 41.444 46.5101 41.6543C46.7245 41.808 46.8533 42.0921 46.7917 42.3572C46.7259 42.6403 46.5041 42.8588 46.258 42.9901C45.8269 43.2238 45.3235 43.2557 44.8449 43.2342C44.9911 43.1443 45.155 43.0777 45.275 42.9501C45.6341 42.5789 45.7504 41.9703 45.522 41.4987ZM39.8026 42.7612C40.2607 42.4205 40.6688 42.0165 41.1208 41.6672C41.2404 41.7128 41.3646 41.7509 41.493 41.7628C41.7008 41.7699 41.9053 41.6967 42.1122 41.709C41.6709 42.1245 41.1694 42.5028 40.5899 42.6879C40.3368 42.7764 40.0664 42.7674 39.8026 42.7612ZM33.4219 44.0447C34.269 43.4712 35.1146 42.8959 35.9547 42.3125C36.333 42.5428 36.8004 42.4605 37.2132 42.4014C36.5104 42.9668 35.7675 43.4812 35.0058 43.9604C34.5463 44.2631 33.8987 44.3554 33.4219 44.0447ZM35.0936 44.7195C36.0122 44.1327 36.8597 43.4408 37.6993 42.7446C38.0827 42.9468 38.5371 42.9149 38.9461 42.825C38.7794 43.0087 38.5772 43.1533 38.3932 43.3175C37.7778 43.8248 37.1754 44.3792 36.4352 44.6909C36.0145 44.868 35.5116 44.9427 35.0936 44.7195ZM37.1945 45.0141C37.9538 44.3906 38.7117 43.7649 39.4393 43.1029C39.81 43.2618 40.2196 43.2076 40.6043 43.1443C40.1789 43.5483 39.7447 43.9438 39.3192 44.3488C38.9438 44.7128 38.4698 44.9774 37.9576 45.0707C37.704 45.1073 37.4346 45.1202 37.1945 45.0141ZM39.0708 45.2058C39.7619 44.5448 40.4479 43.8776 41.1502 43.2285C40.9625 43.6102 40.7697 43.9952 40.6805 44.4159C40.4792 44.6053 40.2971 44.8213 40.0594 44.965C39.7652 45.1483 39.4131 45.2215 39.0708 45.2058ZM46.3962 44.334C46.2892 44.2003 46.4494 43.97 46.6096 44.0252C46.7613 44.0984 46.873 44.2322 46.9953 44.3469C47.1013 44.4654 47.2423 44.5858 47.2414 44.7614C47.2605 45.0093 47.0887 45.213 46.9019 45.3476C46.9341 45.1739 46.9584 44.9784 46.8627 44.8199C46.7417 44.6262 46.5377 44.5091 46.3962 44.334ZM43.7592 44.4159C43.6411 44.256 43.8633 44.0099 44.0258 44.137C44.2322 44.2879 44.42 44.4734 44.568 44.6847C44.6997 44.9693 44.4984 45.2834 44.2654 45.439C44.3158 45.2358 44.3149 45.0036 44.1795 44.8337C44.0534 44.6795 43.882 44.572 43.7592 44.4159ZM44.7538 44.403C44.6829 44.2955 44.7646 44.1636 44.8594 44.1061C45.0368 44.0708 45.1573 44.2336 45.2806 44.334C45.4277 44.4811 45.6416 44.6238 45.6266 44.8613C45.636 45.0945 45.4739 45.2844 45.3035 45.4171C45.3264 45.2639 45.3502 45.0997 45.2811 44.9546C45.1755 44.7104 44.9089 44.6053 44.7538 44.403ZM45.558 44.3778C45.4529 44.2184 45.6798 43.9904 45.8325 44.1118C46.0385 44.2626 46.2257 44.4482 46.3733 44.6595C46.505 44.9431 46.3089 45.2501 46.0768 45.4062C46.0969 45.2353 46.1272 45.0493 46.0389 44.8917C45.9194 44.6843 45.6976 44.5681 45.558 44.3778ZM42.9187 44.4596C42.8584 44.3269 42.9555 44.1698 43.0956 44.1584C43.2679 44.2008 43.381 44.3573 43.5094 44.4715C43.6177 44.5981 43.7788 44.7166 43.7788 44.9013C43.7942 45.1487 43.6303 45.3638 43.4361 45.4923C43.4575 45.3438 43.4954 45.1825 43.4309 45.0393C43.3333 44.7875 43.0695 44.67 42.9187 44.4596ZM42.1094 44.4758C42.0762 44.3659 42.1197 44.216 42.2429 44.1922C42.3844 44.1646 42.4862 44.2874 42.5871 44.3664C42.7221 44.4949 42.8785 44.6124 42.9663 44.7823C43.0592 45.055 42.8976 45.3462 42.6721 45.4928C42.6861 45.3381 42.7127 45.172 42.6408 45.0274C42.5269 44.7871 42.2598 44.6852 42.1094 44.4758Z" fill="#FBFBFB"/>
<path d="M17.8018 47.0826C18.8833 46.947 20.0096 47.1868 20.9399 47.7674C21.8584 48.3337 22.5794 49.2312 22.9189 50.271C23.2089 51.1471 23.1953 52.1013 23.0011 52.9964C22.7877 53.9829 22.2712 54.909 21.5082 55.56C20.853 56.1263 20.0307 56.4746 19.1826 56.596C18.336 56.715 17.4563 56.6483 16.6517 56.3452C15.7691 56.0183 14.9902 55.4015 14.4714 54.6025C13.8587 53.6769 13.5953 52.5367 13.65 51.4284C13.7032 50.33 14.1851 49.2697 14.9458 48.4941C15.7023 47.7093 16.731 47.2101 17.8018 47.0826ZM35.5033 47.084C36.4167 46.9684 37.3637 47.1154 38.1967 47.5166C38.9845 47.8921 39.6724 48.4902 40.1449 49.236C40.6133 49.965 40.8701 50.8373 40.8561 51.7101C40.8608 52.7228 40.5923 53.7454 40.0389 54.5916C39.6056 55.2526 39.0027 55.8003 38.2999 56.1487C37.4183 56.5974 36.4017 56.7312 35.429 56.6084C34.5044 56.4918 33.6092 56.0987 32.9153 55.461C32.1962 54.8114 31.7073 53.9177 31.4938 52.9664C31.3337 52.2274 31.2959 51.4512 31.4593 50.7098C31.6792 49.6895 32.2672 48.7634 33.0703 48.1176C33.7647 47.5494 34.6197 47.192 35.5033 47.084ZM49.7678 47.3034C51.2023 46.7909 52.875 47.0445 54.0896 47.9791C54.2867 48.1267 54.4674 48.2951 54.643 48.4688C54.133 48.9847 53.6329 49.511 53.1146 50.0178C52.6373 49.5115 51.949 49.216 51.2598 49.235C50.6784 49.2374 50.1054 49.4649 49.6637 49.847C49.0141 50.3971 48.6597 51.2904 48.7666 52.1455C48.8437 52.8598 49.2284 53.5318 49.7977 53.9548C50.3426 54.367 51.0548 54.5426 51.7239 54.4222C52.5444 54.2841 53.2691 53.7064 53.6138 52.9374C52.8129 52.9364 52.0121 52.9369 51.2112 52.9374C51.2103 52.2426 51.2112 51.5483 51.2107 50.8535H55.9855C55.9668 51.4422 56.0359 52.0351 55.9351 52.6186C55.7772 53.6241 55.2967 54.5759 54.5771 55.283C53.7198 56.1544 52.5159 56.6545 51.3055 56.6498C50.0933 56.6593 48.889 56.1596 48.0274 55.2911C47.4824 54.7562 47.0757 54.0805 46.8376 53.3495C46.5125 52.3278 46.5284 51.1938 46.8917 50.1849C47.3648 48.8514 48.4495 47.7593 49.7678 47.3034ZM4.58515 56.5289C4.58141 53.3957 4.58188 50.2624 4.58515 47.1297C5.29354 47.1306 6.00147 47.1287 6.70986 47.1302C7.32346 48.0824 7.93379 49.0366 8.54926 49.9869C9.16473 49.0347 9.77552 48.0796 10.3943 47.1297C11.0994 47.1302 11.8045 47.1292 12.5101 47.1302C12.5106 50.2629 12.511 53.3957 12.5101 56.5284H10.3508C10.3476 54.6806 10.3574 52.8327 10.3462 50.9848C9.74891 51.9428 9.14558 52.8969 8.55113 53.8568C7.94453 52.9065 7.35662 51.9442 6.75423 50.9915C6.73275 52.8365 6.75096 54.6825 6.74489 56.5279C6.02482 56.5294 5.30522 56.527 4.58515 56.5289ZM23.5899 49.2831C23.588 48.565 23.5871 47.8473 23.5904 47.1292C25.9248 47.1297 28.2587 47.1302 30.5926 47.1292C30.5987 47.8459 30.5903 48.5631 30.5973 49.2802C29.8025 49.2869 29.0077 49.2812 28.2129 49.2831C28.2115 51.6987 28.2162 54.1138 28.2106 56.5294C27.4644 56.5275 26.7177 56.5284 25.9715 56.5289C25.9687 54.1133 25.971 51.6982 25.9701 49.2831H23.5899ZM57.4098 47.1302C58.1574 47.1297 58.905 47.1297 59.6526 47.1302C59.6531 49.3226 59.6512 51.5154 59.6536 53.7079C59.641 54.0481 59.9408 54.3484 60.2737 54.3365C60.8948 54.3389 61.5168 54.3389 62.1383 54.337C62.4549 54.3512 62.7589 54.0828 62.7669 53.7554C62.7697 51.5469 62.765 49.3383 62.7692 47.1297C63.5205 47.1306 64.2719 47.1283 65.0233 47.1306C65.0228 49.4025 65.0223 51.6744 65.0237 53.9458C65.0429 54.702 64.702 55.4558 64.1299 55.9364C63.6938 56.3148 63.125 56.5218 62.5535 56.5265C61.9006 56.5308 61.2473 56.527 60.594 56.5284C60.043 56.5251 59.4663 56.5732 58.9489 56.3381C58.0645 55.9788 57.428 55.0608 57.4093 54.0886C57.4107 51.7691 57.4093 49.4496 57.4098 47.1302ZM66.7142 47.1302C68.9089 47.1292 71.1037 47.1297 73.2984 47.1302C73.2975 47.8725 73.2998 48.6159 73.2975 49.3587C72.0287 51.0124 70.7759 52.679 69.5122 54.337C70.7745 54.3389 72.0362 54.3379 73.2984 54.3374V56.5284C71.0883 56.5279 68.8776 56.5284 66.6675 56.5284V54.2742C67.9166 52.6109 69.1662 50.9477 70.4135 49.2831H66.7142V47.1302ZM75.0005 49.2816C75.0052 48.564 74.9991 47.8468 75.0038 47.1297C77.1981 47.1302 79.3929 47.1292 81.5876 47.1302C81.5853 47.8659 81.5932 48.6016 81.5839 49.3368C81.1566 49.935 80.6962 50.5104 80.2572 51.1005C79.441 52.1798 78.62 53.2553 77.807 54.337C79.0674 54.3394 80.3273 54.336 81.5876 54.3389C81.5867 55.0689 81.59 55.7989 81.5862 56.5289C79.3765 56.5279 77.1668 56.5279 74.9576 56.5289C74.952 55.827 74.958 55.125 74.9543 54.4231C74.9557 54.3489 74.945 54.2646 75.0029 54.2075C76.2352 52.5667 77.4652 50.9239 78.6999 49.284C77.4666 49.2807 76.2338 49.2855 75.0005 49.2816ZM83.2449 47.1297C83.9804 47.1302 84.7154 47.1292 85.4509 47.1302C85.4513 50.2629 85.4513 53.3957 85.4509 56.5279C84.7154 56.5289 83.9804 56.5279 83.2449 56.5284V47.1297Z" fill="#0A0A0A"/>
<path d="M17.9388 49.2267C18.5403 49.1101 19.1782 49.2367 19.7007 49.5598C20.3769 49.9719 20.878 50.7048 20.9452 51.5138C20.9863 52.1586 20.821 52.8172 20.4712 53.3574C20.1448 53.8551 19.6559 54.2497 19.0876 54.4157C18.4843 54.6013 17.8095 54.5347 17.2547 54.2282C16.5473 53.8532 16.057 53.1218 15.9005 52.3328C15.7969 51.8317 15.809 51.293 16.0107 50.8176C16.3418 50.0052 17.0927 49.3923 17.9388 49.2267ZM35.6412 49.23C36.2319 49.1125 36.8614 49.2234 37.3816 49.5303C38.055 49.9191 38.5565 50.6291 38.6466 51.4191C38.7186 52.1539 38.5201 52.9191 38.0774 53.5073C37.709 54.006 37.157 54.3658 36.5518 54.4757C35.87 54.6113 35.1374 54.4214 34.5952 53.9808C33.9601 53.4759 33.5926 52.6669 33.5567 51.8536C33.4675 50.6039 34.4607 49.4546 35.6412 49.23Z" fill="#FBFBFB"/>
</g>
<defs>
<clipPath id="clip0_993_22858">
<rect width="82" height="24" fill="white" transform="translate(4 33)"/>
</clipPath>
</defs>
</svg>
