<svg width="90" height="90" viewBox="0 0 90 90" fill="none" xmlns="http://www.w3.org/2000/svg">
<rect width="90" height="90" rx="10" fill="white"/>
<path d="M42.7749 21.0306C32.6868 21.2972 23.6738 23.3269 16.5012 26.9476C12.8203 28.7966 10.4208 30.5081 8.02994 32.9763C2.887 38.2827 1.62276 44.7758 4.53824 50.8648C6.6023 55.1735 10.9626 59.0866 17.0172 62.0795C24.0264 65.5454 31.7408 67.4117 41.2268 67.9363C43.5575 68.0653 49.0273 67.9879 51.1171 67.7987C60.2248 66.9817 68.008 64.7886 74.4581 61.2023C76.204 60.2391 78.483 58.691 79.8419 57.5386C87.2381 51.2776 88.8549 42.9526 84.0732 35.7972C82.422 33.3375 80.2461 31.2391 77.3048 29.2782C68.868 23.6451 56.3718 20.6608 42.7749 21.0306ZM50.1711 22.2604C63.1144 23.1549 74.1485 27.1454 80.3923 33.1827C83.1358 35.8402 84.7612 38.6095 85.4492 41.8088C85.6986 42.9784 85.7158 45.2919 85.4922 46.5131C84.5806 51.441 81.2007 55.7583 75.4558 59.3274C70.2698 62.5439 64.0691 64.7542 56.7675 65.9926C53.6198 66.5258 50.9623 66.7838 47.3932 66.8871C36.4623 67.2225 26.2022 65.296 18.1352 61.4001C10.4036 57.659 5.61327 52.7053 4.41784 47.2097C3.65242 43.7266 4.30604 40.1833 6.29269 36.984C7.77193 34.6104 10.0166 32.3227 12.7859 30.3963C15.5207 28.4956 19.5198 26.5605 23.3986 25.2791C28.7221 23.5161 35.4819 22.3722 41.9579 22.14C43.4027 22.0884 48.8466 22.1658 50.1711 22.2604Z" fill="black"/>
<path d="M17.3356 33.3118C16.4584 33.5612 15.9252 33.8794 15.2458 34.5502C14.5062 35.2899 14.0848 36.0467 13.7752 37.1819C13.5085 38.1881 13.5085 40.4844 13.7752 41.4734C14.0848 42.5915 14.5148 43.3741 15.2544 44.1137C16.3208 45.1887 17.3872 45.5929 19.1245 45.5843C20.6725 45.5757 21.8852 45.1715 23.2354 44.2169L23.7686 43.8385V41.3874V38.945H21.3606H18.9525V39.934V40.923H20.2425H21.5326V41.7314C21.5326 42.5313 21.5326 42.5485 21.2832 42.7291C21.137 42.8237 20.7671 43.0301 20.4403 43.1849C19.8985 43.4429 19.7953 43.4601 18.9525 43.4601C17.8947 43.4601 17.4991 43.3139 16.897 42.7033C16.1574 41.9636 15.822 40.8972 15.8306 39.289C15.8306 37.2593 16.3724 36.0897 17.6023 35.4447C17.9979 35.2297 18.1441 35.2039 18.8235 35.2039C19.4943 35.2125 19.6577 35.2469 20.0361 35.4447C20.5521 35.7113 21.0251 36.2273 21.2488 36.7605C21.3434 37.0013 21.4552 37.1389 21.5498 37.1389C21.6358 37.1389 22.1346 37.0357 22.6592 36.9153L23.6138 36.6917L23.5708 36.3907C23.4848 35.8833 23.029 35.0147 22.6076 34.5674C22.1174 34.0428 21.5584 33.673 20.8789 33.4322C20.2081 33.1828 18.0409 33.114 17.3356 33.3118Z" fill="black"/>
<path d="M42.8606 33.3034C42.2844 33.4582 41.8802 33.6732 41.4501 34.0516C40.0741 35.2643 40.0483 37.5089 41.3813 38.8506C41.949 39.4182 42.7488 39.8052 44.3398 40.2868C45.0622 40.5018 45.8191 40.7684 46.0083 40.8802C47.0489 41.4822 46.7135 42.9787 45.4493 43.4087C45.0364 43.5463 44.0646 43.5291 43.626 43.3743C43.4282 43.2969 43.1272 43.1421 42.9638 43.0131C42.6628 42.7809 42.2586 42.0499 42.2586 41.723C42.2586 41.3102 42.2414 41.3016 41.1405 41.3962C40.5815 41.4478 40.0913 41.5166 40.0569 41.551C39.9537 41.6542 40.2461 42.9271 40.5041 43.4689C40.7965 44.0881 41.5447 44.8535 42.1124 45.1201C43.4884 45.7652 45.7503 45.7652 46.9973 45.1287C47.8229 44.7159 48.4593 43.8903 48.7517 42.8669C48.9496 42.1789 48.898 40.9834 48.6313 40.304C48.2013 39.2032 47.3671 38.627 45.2257 37.9905C43.1358 37.3713 42.6026 37.0187 42.6026 36.2619C42.6026 35.8491 42.981 35.4019 43.4454 35.2643C43.9614 35.1095 44.9074 35.1353 45.3117 35.3245C45.7761 35.5309 46.1545 35.9867 46.3007 36.4855C46.3953 36.8295 46.4383 36.8897 46.5931 36.8467C46.6963 36.8209 47.1693 36.7951 47.6595 36.7865L48.5367 36.7607V36.5371C48.5367 36.4167 48.4765 36.0899 48.4077 35.8233C48.0551 34.4644 47.2037 33.6302 45.8621 33.312C45.1912 33.1572 43.411 33.1486 42.8606 33.3034Z" fill="black"/>
<path d="M24.9124 33.5444C24.9726 33.7766 27.0366 43.5379 27.2602 44.6387L27.415 45.3955H28.6707H29.9263L30.2531 43.9937C30.6057 42.4886 31.999 36.7781 32.085 36.4943C32.128 36.3653 32.1624 36.4341 32.2398 36.7523C32.6698 38.5755 33.8824 43.7271 34.0544 44.4667L34.278 45.3955H35.5164C36.1959 45.3955 36.7549 45.3697 36.7549 45.3353C36.7549 45.2321 39.2231 33.7852 39.3006 33.5014C39.3436 33.3638 39.2575 33.3552 38.2427 33.3552H37.1419L36.3335 37.3801C35.6111 40.9406 35.4046 41.8952 35.3874 41.6802C35.3788 41.6458 34.9574 39.771 34.4328 37.5177C33.9168 35.2644 33.4868 33.4068 33.4868 33.3896C33.4868 33.3724 32.8848 33.3552 32.1538 33.3552H30.8293L30.7433 33.6734C30.7003 33.854 30.2703 35.6858 29.7887 37.7413C28.8255 41.8522 28.8341 41.8178 28.7739 41.5684C28.7567 41.4738 28.4127 39.7882 28.0084 37.8273C27.6128 35.8664 27.243 34.0518 27.1914 33.8024L27.0968 33.3552H25.9874C24.8694 33.3552 24.8694 33.3552 24.9124 33.5444Z" fill="black"/>
<path d="M51.5724 33.6472L51.3316 33.8536L51.3058 35.1608C51.2886 35.8832 51.2972 36.5627 51.323 36.6745L51.3746 36.8809H64.1546H76.9259L77.1323 36.6659C77.3387 36.468 77.3473 36.425 77.3473 35.2038V33.9396L77.0979 33.6902L76.8485 33.4408H64.3266H51.8132L51.5724 33.6472Z" fill="black"/>
<path d="M51.4606 37.913C51.3058 38.0678 51.2886 38.1968 51.2886 39.504C51.2886 40.8113 51.3058 40.9403 51.4606 41.0951C51.6326 41.2671 51.7444 41.2671 60.8004 41.2671H69.9683L70.2177 41.0177L70.4671 40.7683V39.461C70.4671 38.1968 70.4585 38.1538 70.2521 37.956L70.0457 37.741H60.8348C51.7444 37.741 51.6326 37.741 51.4606 37.913Z" fill="black"/>
<path d="M51.4526 42.3076C51.2892 42.471 51.2806 42.5657 51.3064 43.8471C51.3322 45.1371 51.3408 45.2317 51.53 45.4123L51.7279 45.6101L58.6252 45.6359C62.4179 45.6445 65.6086 45.6359 65.7118 45.6101C65.815 45.5843 65.987 45.4811 66.0816 45.3779C66.2364 45.2059 66.2536 45.0769 66.2536 43.8299C66.2536 42.5829 66.2364 42.4538 66.0816 42.299C65.9096 42.127 65.7978 42.127 58.7714 42.127C51.6677 42.127 51.6333 42.127 51.4526 42.3076Z" fill="black"/>
<path d="M58.3932 47.8119C58.3674 47.9581 58.3416 48.3709 58.3416 48.7149C58.3416 49.2223 58.3158 49.3513 58.2126 49.3513C58.032 49.3513 58.0492 49.4803 58.2642 49.618C58.3932 49.704 58.4448 49.8588 58.4706 50.1942C58.5136 50.693 58.6082 50.8994 59.1672 51.7766L59.5456 52.3614L59.1672 53.2042C58.7286 54.1761 58.8146 54.1417 57.3267 54.0385L56.4495 53.9783L56.5011 52.6538L56.5613 51.338L56.3549 51.2606C56.1227 51.1746 53.8178 50.8994 53.0782 50.8736C52.4418 50.8478 52.2354 51.0198 52.3816 51.4154C52.459 51.6304 52.4504 51.768 52.3042 52.198C52.072 52.8774 52.1666 52.9806 52.6998 52.671C52.9062 52.5506 53.104 52.4474 53.1212 52.4474C53.1384 52.4474 53.577 52.9376 54.093 53.5311C55.7873 55.4833 55.5551 55.2855 56.2345 55.3715C56.5699 55.4145 57.2665 55.4489 57.7997 55.4575C58.72 55.4575 58.7716 55.4489 59.0382 55.2253C59.1844 55.0963 59.3822 54.8727 59.4682 54.7265C59.5628 54.5889 59.6316 54.5287 59.6316 54.5975C59.6316 55.1565 60.1304 55.9047 60.6378 56.1111C61.5666 56.5067 62.6073 55.8273 62.7105 54.7695C62.8309 53.5053 61.6699 52.6022 60.5604 53.0838C60.4486 53.1354 60.5346 52.9032 60.8528 52.3012C61.2828 51.4584 61.2914 51.4326 61.3602 50.4178C61.3946 49.8588 61.429 49.3083 61.429 49.2051C61.4376 49.0761 61.4806 49.0245 61.558 49.0589C61.7387 49.1277 62.2289 49.8588 62.2891 50.1598C62.3407 50.4006 62.3837 50.4264 62.6589 50.435C62.8911 50.4436 63.0287 50.5124 63.1921 50.693L63.4071 50.9424L63.6049 50.7532C63.7167 50.65 63.8887 50.4866 64.0005 50.3834C64.2757 50.134 64.2413 49.8416 63.8715 49.4373C63.6995 49.2481 63.5189 49.0933 63.4759 49.0933C63.4329 49.0933 63.2179 49.2481 62.9943 49.4373C62.7707 49.6266 62.5643 49.7814 62.5299 49.7814C62.4095 49.7814 61.6096 48.5343 61.6096 48.3451C61.6096 48.2161 61.5666 48.1473 61.5064 48.1645C61.3 48.2333 61.1796 48.6203 61.171 49.2223C61.171 49.5491 61.1366 50.1512 61.1108 50.5554L61.0506 51.2864L60.7238 51.338L60.397 51.3896L59.9498 50.6242C59.5112 49.8846 59.494 49.8674 59.236 49.9104C59.0382 49.9448 58.9522 49.919 58.9092 49.8244C58.8834 49.747 58.9092 49.6954 58.9866 49.6954C59.0554 49.6954 59.1156 49.6266 59.1156 49.5491C59.1156 49.4717 59.1758 49.3341 59.2618 49.2481C59.3392 49.1621 59.3736 49.0675 59.3478 49.0417C59.2618 48.9471 58.9092 48.9471 58.7974 49.0331C58.7114 49.0933 58.6856 48.9385 58.6856 48.3279C58.6856 47.7173 58.6598 47.5453 58.5652 47.5453C58.505 47.5453 58.4276 47.6657 58.3932 47.8119Z" fill="black"/>
<path d="M64.757 47.9839L64.5334 48.1559V51.209V54.2535H64.1808C63.8884 54.2535 63.7766 54.3051 63.5272 54.5545C63.2434 54.8383 63.2262 54.8899 63.2692 55.2511C63.295 55.5263 63.381 55.7241 63.5358 55.8789L63.7594 56.1025H66.5201H69.2808L69.5302 55.8187C70.0892 55.1909 69.6936 54.2621 68.8594 54.2535H68.4895V51.2778V48.3021L68.2401 48.0527L67.9907 47.8033H66.4857C65.1011 47.8033 64.972 47.8205 64.757 47.9839Z" fill="black"/>
<path d="M22.5215 48.3452C21.7217 48.6118 21.2659 49.0074 20.8961 49.7385C20.6037 50.3233 20.5091 50.8135 20.5005 51.6305C20.5005 53.213 21.0853 54.3052 22.2205 54.847C22.6161 55.0276 22.814 55.062 23.4246 55.062C24.233 55.062 24.749 54.8986 25.4886 54.4256L25.9186 54.1504V52.7829V51.4155H24.6716H23.4246V51.9745V52.5335H24.0696H24.7146V52.998C24.7146 53.4366 24.6974 53.4796 24.4394 53.6344C23.6482 54.1246 22.7968 54.0558 22.2721 53.4796C21.8593 53.0152 21.7475 52.6281 21.7475 51.5875C21.7475 50.8135 21.7733 50.6243 21.9539 50.2717C22.2377 49.6869 22.6935 49.3945 23.3472 49.3945C23.9492 49.3945 24.2502 49.5837 24.4996 50.1083C24.6114 50.3319 24.7146 50.4523 24.8006 50.4265C24.8694 50.4093 25.1188 50.3663 25.3424 50.3319C25.5746 50.3061 25.781 50.2287 25.7982 50.1685C25.8842 49.9621 25.4714 49.1881 25.1274 48.8698C24.9382 48.6978 24.6372 48.5 24.4738 48.4312C24.0438 48.2506 22.9516 48.2076 22.5215 48.3452Z" fill="black"/>
<path d="M27.6127 50.2975C27.3031 50.4695 26.9333 50.934 26.8301 51.2952C26.7785 51.4586 26.8215 51.4844 27.3031 51.5618C27.8019 51.6392 27.8277 51.6392 27.9137 51.45C28.0341 51.192 28.4211 51.0372 28.7909 51.106C29.1435 51.1748 29.2467 51.2866 29.2897 51.6306C29.3155 51.9144 29.4015 51.8714 27.8793 52.31C27.0021 52.568 26.6237 53.0754 26.7183 53.8838C26.7699 54.3741 26.9849 54.6751 27.4751 54.9245C27.9653 55.1825 28.4469 55.1395 29.0059 54.7955L29.4187 54.5375L29.5047 54.7783C29.5993 55.0191 29.6251 55.0277 30.1326 55.0277C30.6056 55.0277 30.6572 55.0105 30.6056 54.8729C30.4938 54.5805 30.468 54.2709 30.4508 52.7056C30.4336 51.2952 30.4164 51.0802 30.2616 50.8222C29.9434 50.2803 29.7025 50.1685 28.7737 50.1427C28.0685 50.1255 27.8879 50.1513 27.6127 50.2975ZM29.2725 53.2732C29.2295 53.6602 29.1693 53.8064 28.9801 53.9612C28.6533 54.2451 28.2233 54.2365 27.9911 53.944C27.6213 53.471 27.8535 53.1184 28.6705 52.8948C28.9801 52.8088 29.2553 52.7486 29.2811 52.7572C29.3069 52.7744 29.2983 52.998 29.2725 53.2732Z" fill="black"/>
<path d="M32.8591 50.3404C32.7301 50.4608 32.6269 50.5984 32.6269 50.6414C32.6269 50.693 32.5925 50.7274 32.5409 50.7274C32.4979 50.7274 32.4549 50.607 32.4549 50.4694V50.2114H31.9389H31.4229L31.4401 52.5937L31.4659 54.9845L31.9905 55.0103L32.5237 55.0361L32.5581 53.5053C32.5839 52.3443 32.6269 51.897 32.7301 51.6562C32.9193 51.2348 33.2203 51.1488 33.7535 51.3638C33.8567 51.4068 33.9169 51.3122 34.0373 50.8908C34.1147 50.5984 34.1663 50.349 34.1577 50.3404C33.8051 50.0566 33.1773 50.0566 32.8591 50.3404Z" fill="black"/>
<path d="M35.3099 50.3059C35.0777 50.4263 34.8713 50.6155 34.7337 50.8563C34.5187 51.2089 34.4585 51.5013 34.5875 51.5013C34.6219 51.5099 34.8197 51.5443 35.0261 51.5787C35.3873 51.6561 35.4217 51.6389 35.6797 51.3637C35.8947 51.1315 36.0237 51.0713 36.2731 51.0713C36.6602 51.0713 36.9268 51.3207 36.9268 51.6733C36.9268 51.9056 36.8924 51.9314 36.4366 52.0604C34.9573 52.456 34.7165 52.5764 34.4757 53.0494C34.3123 53.359 34.3123 53.918 34.4671 54.2792C34.6305 54.6662 34.9315 54.9156 35.3959 55.036C35.8775 55.165 36.3506 55.0532 36.7376 54.7264C36.8838 54.606 37.0128 54.5114 37.0386 54.5114C37.0558 54.5114 37.0988 54.6232 37.1332 54.7694C37.1762 55.0274 37.1848 55.0274 37.7524 55.0274C38.2512 55.0274 38.3114 55.0102 38.2684 54.8812C38.105 54.4684 38.062 53.9094 38.0706 52.6624C38.0878 51.0799 38.0104 50.7531 37.5546 50.4091C37.288 50.2027 37.159 50.1683 36.4624 50.1425C35.7915 50.1167 35.6281 50.1425 35.3099 50.3059ZM36.8838 53.6256C36.8236 53.875 36.3678 54.1674 36.0495 54.1674C35.9033 54.1674 35.7571 54.0814 35.6453 53.9438C35.2755 53.4794 35.4991 53.1354 36.3248 52.9032L36.8838 52.7398L36.9096 53.0838C36.9268 53.2644 36.9182 53.5138 36.8838 53.6256Z" fill="black"/>
<path d="M40.057 50.2454C38.5864 50.8904 38.5175 54.1155 39.9624 54.7777C40.6332 55.0788 41.2352 54.9583 41.691 54.4251L41.9146 54.1499V54.7261C41.9146 55.6464 41.691 55.913 40.9342 55.9044C40.659 55.8958 40.5386 55.8442 40.4096 55.6722C40.2634 55.4916 40.1258 55.44 39.6528 55.3884C39.0938 55.3196 39.0766 55.3196 39.0766 55.5088C39.0766 56.0764 39.5152 56.6096 40.143 56.7902C41.304 57.1342 42.4049 56.773 42.8091 55.8958C42.9811 55.526 42.9897 55.3368 43.0155 52.8513L43.0499 50.211H42.4737H41.8974L41.949 50.469C42.0092 50.77 41.9232 50.7958 41.691 50.5464C41.3126 50.1336 40.616 50.0046 40.057 50.2454ZM41.5276 51.3635C42.2673 52.1031 41.8716 53.9091 40.96 53.9091C40.3408 53.9091 40.0828 53.4963 40.0914 52.5245C40.0914 51.5269 40.3322 51.1656 40.9944 51.157C41.2266 51.157 41.3814 51.2172 41.5276 51.3635Z" fill="black"/>
<path d="M44.968 50.2457C44.5638 50.4177 44.0908 51.0111 43.9446 51.5099C43.7725 52.0775 43.7725 53.144 43.936 53.703C44.2542 54.7694 45.2518 55.3198 46.344 55.0188C46.8256 54.8898 47.1782 54.5974 47.419 54.133C47.6685 53.6686 47.6255 53.5998 46.989 53.531C46.5246 53.4794 46.516 53.488 46.344 53.7632C46.1462 54.0728 45.7334 54.176 45.3894 53.9868C45.1744 53.875 44.925 53.4278 44.925 53.144C44.925 52.972 44.9594 52.9634 46.3096 52.9634H47.7029L47.6513 52.3269C47.5481 50.9079 46.8514 50.1253 45.7248 50.1253C45.4496 50.1339 45.1142 50.1855 44.968 50.2457ZM46.1204 51.2003C46.3612 51.3207 46.559 51.6991 46.559 52.0259C46.559 52.1721 46.4816 52.1893 45.7334 52.1893H44.8992L44.9508 51.8625C45.011 51.5013 45.4238 51.0713 45.7076 51.0713C45.8022 51.0713 45.9914 51.1315 46.1204 51.2003Z" fill="black"/>
<path d="M52.5788 53.1528C51.1856 53.5484 51.2286 55.9307 52.6304 56.1973C53.3012 56.3263 53.929 55.9823 54.2215 55.3287C54.4451 54.8557 54.4279 54.4515 54.1612 53.9268C53.8344 53.2646 53.2238 52.9636 52.5788 53.1528Z" fill="black"/>
</svg>
