<svg width="90" height="90" viewBox="0 0 90 90" fill="none" xmlns="http://www.w3.org/2000/svg">
<rect width="90" height="90" rx="10" fill="white"/>
<path d="M27.0356 19.9982C27.1422 20.3455 28.4575 26.3195 29.9506 33.3007C31.4081 40.2819 32.6523 45.978 32.6878 46.0127C32.9722 46.2211 41.4683 46.3948 41.4683 46.2211C41.4328 46.0822 41.2195 44.9708 40.9351 43.7204C40.6507 42.47 40.4374 40.4555 40.4374 39.2052C40.4374 36.7044 41.4328 32.5366 42.0371 32.3629C42.2859 32.2587 42.9258 34.6552 43.779 39.101C45.0587 45.7349 45.4142 46.9505 45.8764 46.2211C45.983 46.0475 46.9428 41.7754 48.0448 36.7392L50 27.6046L49.1113 23.6798C48.6136 21.5264 48.2226 19.6856 48.2226 19.5814C48.2226 19.4772 46.2318 19.4077 43.8145 19.4077H39.4065L39.9042 21.9084C40.1886 23.2977 40.4019 25.4512 40.4019 26.7015C40.4019 29.0633 39.6553 32.7797 39.0866 33.3354C38.8733 33.5438 38.1623 30.9389 37.2025 26.5279L35.6383 19.4077H31.2303C27.2133 19.4077 26.8578 19.4424 27.0356 19.9982Z" fill="#DA2A21"/>
<path d="M51.9696 19.6566C51.5257 20.0833 51.7306 21.221 52.2428 21.3988C52.516 21.541 52.755 22.0744 52.755 22.6077C52.755 23.1766 51.594 29.1855 50.1938 35.9766C48.7937 42.7677 47.6326 48.4566 47.6326 48.6344C47.6326 48.7766 44.5591 48.9188 40.8026 48.9188C33.5628 48.9188 33.7336 48.8833 34.1775 50.5899L34.3824 51.4077H44.9347C50.7402 51.4077 55.487 51.3366 55.487 51.2655C55.487 50.981 60.9852 24.5277 61.3267 23.2477C61.4974 22.501 61.9755 21.7544 62.317 21.541C62.7268 21.3277 63 20.7944 63 20.2966V19.4077H57.6043C54.6333 19.4077 52.0721 19.5144 51.9696 19.6566Z" fill="#DA2A21"/>
<path d="M49.3857 59.1041V59.8008H51.8241H54.2625V59.1041V58.4074H51.8241H49.3857V59.1041Z" fill="#00458F"/>
<path d="M11.0552 59.0745C9.9231 59.1093 9 59.179 9 59.2312C9 59.2835 9.15675 59.6144 9.34834 59.9976C9.66185 60.6246 9.69668 61.0252 9.69668 64.4215C9.69668 67.7656 9.66185 68.2358 9.34834 68.9674C9.15675 69.4202 9 69.8208 9 69.8556C9 69.8905 10.2192 69.9253 11.6996 69.9253H14.3993L14.1032 69.1938C13.9116 68.7235 13.8071 67.9397 13.8071 66.8947L13.7897 65.3098L16.1062 65.2575L18.4052 65.2053V66.9121C18.4052 68.3229 18.3355 68.7061 18.0569 69.1415C17.8653 69.4202 17.7085 69.7163 17.7085 69.786C17.7085 69.873 18.9277 69.9253 20.4082 69.9253C21.8886 69.9253 23.1078 69.873 23.1078 69.786C23.0904 69.7163 22.9859 69.4724 22.8466 69.2286C22.655 68.8803 22.6027 67.9049 22.6027 64.526C22.6027 61.1471 22.655 60.1717 22.8466 59.8234C23.3342 58.97 23.2994 58.9525 20.4082 58.9525C18.6491 58.9525 17.7085 59.0222 17.7085 59.1267C17.7085 59.2312 17.8653 59.6144 18.0569 59.9976C18.2833 60.433 18.4052 61.0252 18.4052 61.6522V62.6101H16.0365H13.6504L13.7549 61.478C13.8071 60.8684 13.9813 60.1195 14.138 59.8408C14.5212 59.0745 14.469 58.9525 13.7549 58.9874C13.3891 59.0048 12.1699 59.057 11.0552 59.0745Z" fill="#00458F"/>
<path d="M26.6053 60.2015C26.1872 60.7414 24.6545 63.3366 24.7242 63.4062C24.759 63.4411 25.1074 63.3191 25.4906 63.1276C26.6923 62.518 28.765 61.8909 29.601 61.8909C30.5067 61.8909 31.0989 62.3264 31.0989 62.9882C31.0989 63.9636 30.4544 64.2248 27.5458 64.4164C26.5008 64.4861 25.4906 64.6603 25.09 64.8518C22.878 65.7924 22.6516 68.5965 24.7068 69.6764C26.2569 70.495 28.3295 70.1815 30.3673 68.8229L31.0989 68.3178V68.7184C31.0989 68.9449 31.2208 69.3106 31.3775 69.5196C31.6214 69.8854 31.7607 69.9028 33.8159 69.9028H35.9756L35.6273 69.2061C35.3138 68.5965 35.2789 68.1959 35.2789 65.2176C35.2789 63.0231 35.2093 61.7516 35.0699 61.4555C34.948 61.1943 34.5474 60.8285 34.1643 60.6195C33.5721 60.3234 33.1889 60.2712 31.9349 60.306C28.6953 60.4105 27.8593 60.3931 27.3194 60.2015C26.9013 60.0447 26.7272 60.0622 26.6053 60.2015ZM31.0989 65.5485C31.0989 66.7329 28.4863 68.4746 27.7025 67.8127C27.0233 67.2554 27.6154 66.3497 28.8346 66.1407C29.1656 66.071 29.7577 65.8795 30.1409 65.7053C30.9769 65.3395 31.0989 65.3221 31.0989 65.5485Z" fill="#00458F"/>
<path d="M40.329 60.55C37.5597 61.3512 36.3579 62.9362 36.5321 65.5313C36.6366 66.855 37.072 67.8304 37.9255 68.6141C39.1969 69.7811 40.2419 70.112 42.5932 70.0946C45.1361 70.0772 46.9127 69.276 47.888 67.7084C48.306 67.0466 48.4105 66.6634 48.4802 65.5487C48.5499 64.3818 48.4976 64.0683 48.1319 63.2671C47.5745 62.0479 46.6166 61.1422 45.5019 60.759C44.335 60.3584 41.4089 60.2365 40.329 60.55ZM43.4989 62.1872C44.1956 62.9362 44.335 63.3542 44.4395 64.7998C44.6485 67.6213 43.1506 69.485 41.6353 68.3006C40.9038 67.7433 40.6774 66.9769 40.6774 65.2004C40.6774 63.9638 40.747 63.4761 41.0257 62.9362C41.6701 61.6647 42.7152 61.3512 43.4989 62.1872Z" fill="#00458F"/>
<path d="M71.9068 60.6716C69.6251 61.4205 68.3885 62.9707 68.3711 65.0955C68.3711 66.8198 69.12 68.2655 70.4611 69.1189C73.4395 70.9999 78.5252 70.0942 79.8664 67.4469C80.3714 66.4541 80.3018 66.3322 79.4658 66.8198C77.6892 67.8649 75.5992 68.0564 74.1187 67.2901C73.544 66.994 72.7254 66.1406 72.7254 65.8271C72.7254 65.7748 74.4496 65.7226 76.5571 65.7226H80.3889V65.113C80.3889 64.1899 79.7619 62.7094 79.0478 61.9779C78.0027 60.898 76.7835 60.4452 74.7283 60.3755C73.335 60.3407 72.7776 60.3929 71.9068 60.6716ZM75.4598 62.274C75.7908 62.5875 76.2088 63.5454 76.2088 64.0157C76.2088 64.1028 75.3902 64.155 74.38 64.155C72.3422 64.155 72.3248 64.1376 72.7428 62.9533C73.1608 61.7863 74.5716 61.438 75.4598 62.274Z" fill="#00458F"/>
<path d="M49.3859 61.1942C49.6994 61.8038 49.7343 62.2044 49.7343 65.322V68.7706L48.5673 69.8853L47.4004 71L49.2292 70.9129C50.7967 70.8432 51.1973 70.7562 52.0856 70.3207C52.8519 69.9376 53.2177 69.6241 53.5138 69.119C53.8795 68.4571 53.9144 68.2307 53.9144 65.1479C53.9144 62.2218 53.9492 61.8038 54.2627 61.1942L54.6111 60.4975H51.8243H49.0376L49.3859 61.1942Z" fill="#00458F"/>
<path d="M56.0046 61.1945C56.3181 61.8041 56.3529 62.2047 56.3529 65.0785C56.3529 66.9421 56.44 68.5096 56.5445 68.8232C56.8058 69.5895 57.7463 70.1294 58.7739 70.0946C59.8015 70.0772 60.864 69.6418 61.9786 68.7883C62.4315 68.44 62.8321 68.1613 62.8843 68.1613C62.9366 68.1613 62.9714 68.3877 62.9714 68.6838C62.9714 68.9799 63.1282 69.3631 63.3198 69.5547C63.6333 69.8682 63.8945 69.903 65.6711 69.903C66.7683 69.903 67.674 69.8508 67.674 69.7637C67.6566 69.694 67.5521 69.4502 67.4128 69.2063C67.2212 68.8754 67.1689 67.9871 67.1515 65.3223C67.1515 62.2047 67.1863 61.8041 67.4999 61.1945L67.8482 60.4978H65.0615C63.5288 60.4978 62.2747 60.55 62.2747 60.6197C62.2747 60.7068 62.4315 61.0203 62.6231 61.3338C62.9192 61.8041 62.9714 62.2047 62.9714 63.9115V65.9319L62.4315 66.437C61.8567 66.9769 61.2123 67.2208 60.7943 67.0466C60.5853 66.9769 60.533 66.5067 60.533 64.3818C60.533 62.1176 60.5679 61.7344 60.8814 61.2293C61.073 60.9158 61.2297 60.6197 61.2297 60.5849C61.2297 60.5326 59.9757 60.4978 58.443 60.4978H55.6562L56.0046 61.1945Z" fill="#00458F"/>
</svg>
