<svg width="90" height="90" viewBox="0 0 90 90" fill="none" xmlns="http://www.w3.org/2000/svg">
<g clip-path="url(#clip0_993_22890)">
<rect width="90" height="90" rx="10" fill="white"/>
<path fill-rule="evenodd" clip-rule="evenodd" d="M44.9531 13C52.3659 18.7483 62.4412 21.2202 72.0083 21.9636V29.8054C69.9806 29.7002 68.3369 31.825 68.3331 33.115L85.4306 33.1127V55.2961H69.5776C69.9536 57.3499 72.6971 58.2559 74.6693 58.1506C64.1308 67.5058 52.5124 75.6776 44.9995 76C38.1537 75.7729 26.5808 68.3084 15.1211 58.2663C19.8734 58.3436 20.2939 55.2943 20.2939 55.2943L4 55.3061V33.1127H21.0453C20.96 31.4899 19.4709 29.978 17.6954 29.8054V21.9759C27.8546 21.5009 36.6352 19.065 44.9531 13Z" fill="black"/>
<path fill-rule="evenodd" clip-rule="evenodd" d="M70.0332 23.6686C70.0313 25.0662 70.0313 26.9863 70.0332 28.5745C68.162 28.9627 66.2727 31.5039 66.2765 33.1153C65.1932 33.1129 64.7367 33.1153 64.7367 33.1153C64.8874 30.0498 66.5875 28.5607 68.5014 27.5448C68.5014 26.5776 68.5014 26.0514 68.5109 25.1023C60.3523 24.9012 50.9161 21.3973 45.0123 17.4092C39.6404 21.0275 29.5334 24.8956 21.2932 25.1023C21.2909 25.9171 21.2909 26.7319 21.2932 27.5466C23.4466 28.6432 24.71 30.7894 24.8423 33.1129H23.2214C22.872 30.6875 21.4838 29.3875 19.7795 28.4346C19.7795 26.8843 19.7795 25.373 19.7695 23.7639C29.0858 23.2377 39.5347 19.6337 44.9085 15.4707C50.0571 19.7048 60.8786 22.9693 70.0332 23.6686Z" fill="#DB812E"/>
<path fill-rule="evenodd" clip-rule="evenodd" d="M61.1987 27.7351C61.3822 27.9688 61.5358 29.2569 60.8839 29.247C60.0709 29.1977 59.7746 29.1882 58.6145 29.1294L58.6026 27.2482C59.5754 27.3577 61.0503 27.5464 61.1987 27.7351ZM62.6651 26.521C63.5649 27.5104 63.3539 30.0847 62.5759 30.3525C63.3999 30.9703 63.2212 33.1155 63.2212 33.1155H61.4552C61.4514 30.9703 61.0375 30.9357 60.005 30.9376C59.2559 30.9238 59.4792 30.9361 58.5893 30.9399V33.1155H56.803V24.9906C59.2687 25.5273 62.1801 25.9862 62.6651 26.521ZM53.491 26.3825C53.4929 28.231 53.4929 28.8796 53.4882 30.6057C53.4929 31.4434 52.7021 31.3173 52.1602 31.3173C51.3799 31.3187 50.6583 31.4553 50.6612 30.0657C50.6612 30.0657 50.6545 27.3795 50.6564 25.7586C50.6583 24.8057 51.2381 24.9608 52.1067 25.2139C52.6623 25.377 53.4929 25.3851 53.491 26.3825ZM39.3367 30.8973C39.3343 31.2178 39.1797 31.3074 38.9564 31.3154C38.4686 31.3377 37.5996 31.3192 37.0084 31.3216C36.6429 31.3239 36.494 30.984 36.4902 30.6896C36.4765 29.3811 36.3608 26.2683 36.834 25.7895C36.9885 25.6311 39.3343 24.28 39.3367 25.3912C39.3367 25.3907 39.3381 30.5488 39.3367 30.8973ZM31.6835 33.1127C31.6835 32.0806 31.7299 30.3563 31.4844 30.0676C30.9747 30.9945 30.5362 32.138 30.109 32.997C29.6743 32.128 29.2277 31.112 28.6744 30.399L28.6176 33.115L26.7463 33.1127V26.2854C27.7623 26.1047 28.0652 26.0251 28.5934 25.9298L30.0626 29.1052L31.6062 25.3267C32.1078 25.1845 32.0836 25.1845 33.5296 24.8882V33.1136H31.6835V33.1127ZM41.124 24.5601C41.1301 27.5464 41.1197 30.3744 41.124 31.5221C41.106 33.1378 40.5574 33.0966 37.8087 33.115C35.5492 33.1312 34.8115 33.1658 34.7859 30.8982V26.1384C34.8243 24.3345 35.2955 24.4274 37.3417 23.4076C40.539 21.8541 41.0348 22.3741 41.124 24.5601ZM55.3001 25.5842V31.3187C55.3001 33.1127 54.662 33.1127 52.1678 33.115C49.8092 33.1127 48.7686 33.1127 48.7686 31.3187C48.7686 31.3187 48.7677 26.1256 48.7686 24.196C48.7686 21.6056 50.866 22.715 52.4584 23.3465C53.966 23.9448 55.3001 24.1923 55.3001 25.5842ZM48.5785 21.6085L48.5638 23.6869L45.9312 22.3926V33.1155H43.8727C43.8685 29.6006 43.8727 22.3926 43.8727 22.3926L41.3089 23.6622L41.3231 21.6227C41.3231 21.6227 44.2221 20.1293 44.8603 19.6543C45.5453 20.1535 48.5785 21.6085 48.5785 21.6085ZM6.0752 35.1934H83.4462V53.1391H6.0752V35.1934Z" fill="#DB812E"/>
<path fill-rule="evenodd" clip-rule="evenodd" d="M7.77441 36.709H81.9363V51.7266H7.77441V36.709Z" fill="black"/>
<path fill-rule="evenodd" clip-rule="evenodd" d="M74.1883 40.6485C74.1902 41.727 74.1883 47.9214 74.1883 47.9214C74.1883 49.1086 73.0363 50.1406 71.8587 50.1179C70.8745 50.1022 69.6475 49.5694 69.6494 47.8973C69.6513 46.2868 69.6475 43.6537 69.6494 40.6058C69.6475 38.4222 71.0413 38.2207 72.0104 38.215C72.8936 38.2069 74.1883 38.5521 74.1883 40.6485ZM68.9928 40.2521V42.4685L67.2994 42.4585C67.2975 41.0671 67.2975 40.1568 66.629 40.2014C66.0577 40.2057 66.1511 40.8651 66.1492 41.3691C66.1511 42.8506 66.913 43.1246 67.6891 43.7035C68.7254 44.4796 69.081 44.9755 69.0928 47.1714C69.0928 48.7781 68.5486 50.0292 66.7893 50.0292C64.7237 50.0292 64.4383 49.0953 64.443 45.5723C64.7113 45.5761 65.7975 45.5761 66.154 45.5785C66.1511 46.1559 66.1511 46.9946 66.1492 47.2994C66.1511 47.6327 66.0928 48.3088 66.7935 48.313C67.2178 48.3154 67.3795 47.9617 67.3795 46.9581C67.3795 45.8146 67.0443 45.4609 66.6598 45.1708C65.9032 44.5976 64.4624 44.0311 64.4643 42.2689C64.4624 40.676 64.2145 38.2667 66.8106 38.2956C68.3495 38.3079 68.9957 39.1636 68.9928 40.2521ZM11.7364 42.9156H12.9695V38.5924H14.6643V49.9344H12.9576V45.1978C12.4925 45.1992 12.2565 45.1992 11.7468 45.1978L11.7487 49.923H10.042V38.5805H11.7364V42.9156ZM18.9084 38.5924C19.3535 42.2599 19.7432 45.9445 20.1519 49.9226H18.5775C18.4457 48.9194 18.3153 47.857 18.2281 47.2065H17.0618L16.7451 49.9349H15.1337C15.5286 46.2029 15.9302 42.4732 16.2961 38.5928L18.9084 38.5924ZM23.4876 38.5862C25.1393 38.5862 25.3285 40.5247 25.3256 41.7171C25.3256 42.2599 25.3645 43.2749 24.4784 44.1629C25.0355 44.6626 25.328 45.0589 25.3398 46.2982C25.3398 47.4782 25.3398 48.4818 25.3356 49.9344H24.2324C24.0295 49.9226 23.5459 49.7699 23.5502 49.439C23.545 48.4088 23.5443 47.3786 23.5483 46.3484C23.5459 45.6472 23.1315 45.5761 22.7352 45.5747H22.4327V49.9339H20.598L20.6227 38.5919C21.3603 38.5862 21.5983 38.5862 23.4876 38.5862ZM27.8046 48.0291C28.4228 48.0328 28.8832 48.0328 29.4971 48.0291V49.9226H25.9922V38.5924H27.8041L27.8046 48.0291ZM33.3879 40.3787H31.6727V43.0236C32.3549 43.0279 32.7802 43.0279 33.3751 43.0236V45.0091H31.6727V48.0177C32.3084 48.0238 32.7209 48.0238 33.3628 48.0177V49.9235H29.8726V38.5924H33.3879V40.3787ZM35.3559 38.5862C35.5796 39.7908 35.7788 40.9713 36.1381 42.2917C36.524 40.9609 36.6179 39.8501 36.9957 38.5924H38.6655C38.2004 40.9832 37.5741 43.0497 36.9668 45.2703C36.973 47.0885 36.973 48.0693 36.973 49.8287H35.2667C35.2724 47.9617 35.2606 46.6514 35.2629 45.2357C34.694 43.0033 34.0479 40.8248 33.5889 38.5924C34.4214 38.5862 34.8111 38.5862 35.3559 38.5862ZM45.2069 38.5862C46.0892 38.5862 46.7022 39.212 46.7041 40.5366C46.7022 42.9435 46.715 45.8611 46.7188 47.9091C46.7088 48.8355 46.0764 49.9226 44.685 49.9183C44.0696 49.9226 43.2361 49.9226 42.2505 49.9226V38.5924C43.5618 38.5862 44.0573 38.5862 45.2069 38.5862ZM52.1717 49.8292H50.5726C50.384 48.9128 50.292 48.0229 50.1374 47.0889H48.9271L48.5938 49.8292H46.9743C47.3038 46.0791 47.9505 42.2291 48.3278 38.4971H50.7613L52.1717 49.8292ZM53.4053 38.4971C53.6101 40.7016 53.8358 43.0156 54.0757 45.2097C54.0757 45.2097 54.6256 40.4759 54.8977 38.4971H56.5803L55.0035 49.8292H53.1934L51.6886 38.4971H53.4053ZM58.6075 49.8415H56.8955V38.4971H58.6022L58.6075 49.8415ZM62.0436 38.4971C62.9046 38.4994 63.8845 39.001 63.8798 40.4982V47.9902C63.8845 49.2119 63.1464 49.841 61.6999 49.8391C60.885 49.841 59.961 49.841 59.3518 49.841V38.4971C60.0705 38.4994 61.0741 38.4994 62.0436 38.4971ZM77.0262 38.4971C77.3993 40.228 77.7473 41.9996 78.1252 43.694L78.054 38.4971H79.7607V49.74H77.7596C77.3853 47.6623 76.9958 45.5873 76.591 43.5153L76.6436 49.74H74.8502V38.4971H77.0262ZM72.4593 40.675C72.4565 41.3269 72.4565 44.9759 72.4593 47.5806C72.4565 48.6591 71.2642 48.3889 71.2665 47.4156C71.2637 44.8332 71.2499 42.1257 71.2599 40.675C71.2642 39.8989 72.4631 39.9193 72.4593 40.675ZM44.9779 40.8495C44.9779 41.2904 44.9898 46.0976 44.996 47.4886C44.9898 47.7972 44.813 48.011 44.5778 48.0191C44.199 48.0229 44.2218 48.0229 43.9677 48.0167L43.9662 40.3066C43.9662 40.3071 44.9779 40.0753 44.9779 40.8495ZM62.2835 40.9049C62.2911 42.8506 62.2816 47.4649 62.2816 47.4649C62.2788 47.9741 62.1612 48.0234 61.1576 48.0172V40.2948C61.1576 40.2948 61.4093 40.301 61.7142 40.2948C61.9721 40.2991 62.2788 40.5712 62.2835 40.9049ZM23.4672 41.0244C23.4658 41.5099 23.4757 42.2945 23.4591 42.8141C23.4634 43.2626 23.2619 43.393 23.0893 43.3968H22.4214V40.3877C23.0851 40.3944 23.4629 40.3944 23.4672 41.0244ZM49.8904 44.9859H49.1267L49.5045 40.9287C49.7254 42.0584 49.8312 43.877 49.8904 44.9859ZM17.9877 44.9859H17.3292L17.5302 40.8945C17.7706 42.3552 17.8658 43.5475 17.9877 44.9859ZM38.3829 43.5982H41.5015V45.0086H38.3829V43.5982Z" fill="white"/>
<path fill-rule="evenodd" clip-rule="evenodd" d="M24.2895 55.2944C24.2654 57.1614 23.4627 58.4836 22.2908 59.4673C29.8402 66.2307 40.043 71.9941 45.0593 72.3274C50.1491 71.9941 60.0698 65.8528 67.6505 59.4204C66.1282 58.0835 65.6911 56.9258 65.6873 55.2944C66.4103 55.2963 66.717 55.2963 67.1902 55.2982C67.3205 57.2572 69.3985 58.8397 70.2622 59.2094C59.125 68.4044 52.0876 72.8916 44.9526 73.8327C37.5389 72.7968 30.3593 68.3574 19.5762 59.2919C21.0776 58.6263 22.5885 57.0685 22.5847 55.2944H24.2895Z" fill="#DB812E"/>
<path fill-rule="evenodd" clip-rule="evenodd" d="M51.8066 63.4182C51.3557 63.5856 51.0613 63.6681 50.4678 63.7942C50.4678 63.7942 51.0158 59.2491 51.1855 59.2335C51.3557 59.2173 51.8066 63.4182 51.8066 63.4182ZM46.2953 56.9275C46.585 56.9261 46.786 57.102 46.7822 57.5509C46.786 58.638 46.786 60.6695 46.7889 61.9234C46.786 62.3823 46.539 62.618 45.4638 62.6891V56.9275H46.2953ZM33.851 57.5457C33.8486 59.6075 33.8486 61.1658 33.8486 63.0736C33.8486 64.0767 33.1783 63.6117 32.9493 63.4533C32.762 63.3272 32.149 63.139 32.149 62.4236C32.1448 61.0516 32.149 58.6442 32.1505 57.4637C32.1505 56.9906 32.6743 56.9299 32.8777 56.9275C33.4774 56.9261 33.8491 56.8379 33.851 57.5457ZM29.6013 55.2943C29.8796 55.2962 29.9711 55.4137 29.9687 55.6759C29.9687 55.6759 29.9725 56.5046 29.9711 56.7383C29.9711 57.0233 29.7535 57.0209 29.7535 57.0209H27.9946C27.9946 57.6083 28.0051 58.5086 28.0027 59.8877C27.9984 60.3855 29.0793 60.8226 29.872 61.383C29.8696 62.2624 29.8824 62.5872 29.8801 63.258C28.7081 62.5872 26.3813 61.0231 26.3837 60.377C26.3813 59.2226 26.3813 57.5391 26.3799 56.332C26.3813 55.7797 26.9711 55.2962 27.4561 55.2947L29.6013 55.2943ZM60.8635 55.2943C61.121 56.2287 61.286 57.6813 61.5865 58.6219L62.4949 55.2943C62.9766 55.2962 63.5189 55.2962 63.9736 55.2943C63.5308 56.6895 62.7163 58.3901 62.2839 59.3449C62.2792 60.1494 62.2792 61.3194 62.282 61.84C61.8771 62.1448 61.2855 62.618 60.7664 62.9716C60.7683 61.5655 60.7683 60.9179 60.7701 59.9019C60.2477 58.3536 59.6812 56.7729 59.1777 55.2943C59.5427 55.2943 60.4023 55.2962 60.8635 55.2943ZM55.8615 55.2943C56.3635 57.0678 57.0253 60.1029 57.0253 60.1029H57.168V55.2943H58.779C58.7828 58.2943 58.7828 61.2583 58.779 64.1801C58.2755 64.566 57.8028 64.841 57.3226 65.1226C56.8224 63.5036 56.5038 62.3108 55.8856 60.5841L55.933 66.0641L54.2505 67.0512V55.2943H55.8615ZM52.0669 55.2943C52.8207 59.3472 53.4929 63.2196 54.0651 67.1664C53.7058 67.402 53.1985 67.7196 52.5135 67.9666C52.3717 66.9976 52.2413 66.0186 52.091 65.1325C51.3918 65.2847 50.8134 65.4388 50.1994 65.6607C50.0458 66.6434 49.8216 68.06 49.641 69.3457C49.2551 69.5368 48.853 69.7013 47.7389 70.0464L50.2075 55.2938L52.0669 55.2943ZM47.1036 55.2943C48.2149 55.2962 48.5909 56.1656 48.588 56.8825L48.5946 62.3439C48.4994 64.071 47.7901 64.1298 45.4638 64.3939L45.4619 70.566C44.9617 70.9211 44.6754 70.8747 43.6675 70.4361V55.2947C44.8963 55.2943 46.2313 55.2962 47.1036 55.2943ZM37.4939 55.2962C37.9286 55.2962 38.0263 55.9139 38.0263 55.9139C38.0263 55.9139 39.1579 59.9261 39.5604 61.3706C40.2204 59.0874 40.6575 57.34 41.1814 55.2947H42.817V70.2811L41.2145 69.6695L41.2122 61.6655L41.0391 61.6537C40.574 63.1727 40.1227 64.8286 39.6415 66.3116C39.1703 64.9709 38.3861 62.5535 37.8661 60.7956H37.7158C37.7177 63.0551 37.7177 65.499 37.7158 68.0728C37.0677 67.849 36.7851 67.6831 36.1921 67.2726V55.2943C36.6505 55.2905 37.1625 55.2962 37.4939 55.2962ZM35.462 56.6857C35.462 56.6838 35.462 62.3515 35.4582 65.0254C35.4582 65.9883 34.9362 66.3135 34.6029 66.2708C34.1013 66.204 33.7477 65.9517 32.5492 65.1311C31.3526 64.3128 30.6372 64.0767 30.6372 62.8152C30.6372 61.9339 30.6372 58.1018 30.6391 56.3121C30.6372 55.2654 32.0613 55.2962 32.9697 55.2947C34.5764 55.2962 35.462 55.2369 35.462 56.6857Z" fill="#DB812E"/>
</g>
<defs>
<clipPath id="clip0_993_22890">
<rect width="90" height="90" rx="10" fill="white"/>
</clipPath>
</defs>
</svg>
