<svg width="90" height="90" viewBox="0 0 90 90" fill="none" xmlns="http://www.w3.org/2000/svg">
<rect width="90" height="90" rx="10" fill="white"/>
<path fill-rule="evenodd" clip-rule="evenodd" d="M13.7221 69.8126L14.9371 69.9408C15.5128 70.0054 15.5128 70.4529 15.5128 70.7728V72.2436H9.88438V70.7728C9.88438 70.4534 9.94846 70.0054 10.5242 69.9408L11.7391 69.8126V68.5977H4.44824V69.8126L5.66372 69.9408C6.17535 70.0054 6.23893 70.4529 6.23893 70.7728V75.5056C6.23893 75.826 6.17535 76.274 5.66372 76.3376L4.44824 76.4657V77.6807H11.7396V76.4657L10.5247 76.3376C9.94895 76.274 9.88488 75.8265 9.88488 75.5056V74.0989H15.5132V75.5056C15.5132 75.826 15.5132 76.274 14.9375 76.3376L13.7226 76.4657V77.6807H21.0135V76.4657L19.7985 76.3376C19.2869 76.274 19.2228 75.8265 19.2228 75.5056V70.7728C19.2228 70.4534 19.2869 70.0054 19.7985 69.9408L21.0135 69.8126V68.5977H13.7221V69.8126ZM62.5231 68.5977H53.5046V69.8126L54.5924 69.9408C54.9754 70.0054 55.2317 70.1335 55.2317 70.7092V75.5051C55.2317 75.8255 55.1681 76.2735 54.5924 76.3371L53.3765 76.4653V77.6802H62.5231C65.7846 77.6802 68.4714 76.4017 68.4714 73.1392C68.4719 69.8772 65.7846 68.5977 62.5231 68.5977ZM61.8838 75.9526H58.8136V70.3248H61.8838C63.6745 70.3248 64.2502 71.1568 64.2502 73.1387C64.2502 75.1216 63.6745 75.9526 61.8838 75.9526Z" fill="#E60012"/>
<path fill-rule="evenodd" clip-rule="evenodd" d="M83.8863 76.3367C83.3106 76.2731 83.1179 75.8891 82.9267 75.6328L78.7055 69.1734C78.3861 68.7259 78.1934 68.5977 77.7458 68.5977H70.8384V69.8127L72.4374 70.0054C72.6937 70.0054 73.0131 70.3248 72.7568 70.7729L69.6234 75.826C69.4953 76.0178 69.3671 76.2736 68.9832 76.3372L67.7682 76.4653V77.6803H73.5888V76.4653L72.6291 76.4017C72.1815 76.3372 71.9253 76.0178 72.1816 75.6979L72.6291 74.9295H78.258L78.6419 75.5697C79.0249 76.0809 78.5774 76.3372 78.1298 76.3372L77.1066 76.4653V77.6803H85.0372V76.4653L83.8863 76.3367ZM73.5883 73.2669L75.3154 70.5166L77.1697 73.2669H73.5883ZM46.9172 69.8127L48.1968 69.9409C48.7079 70.0054 48.7725 70.453 48.7725 70.7729V75.3139L43.9751 68.9822C43.7193 68.6618 43.5276 68.5982 43.016 68.5982H36.7478V69.8132L37.9628 69.9414C38.5385 70.0059 38.6026 70.4535 38.6026 70.7734V75.5062C38.6026 75.8265 38.5385 76.2746 37.9628 76.3382L36.7478 76.4663V77.6813H42.5679V76.4663L41.3524 76.3382C40.8408 76.2746 40.7767 75.827 40.7767 75.5062V70.9651L45.5741 77.2978C45.8304 77.6172 46.0216 77.6808 46.5328 77.6808H50.9466V70.7734C50.9466 70.454 51.0102 70.0059 51.5859 69.9414L52.8009 69.8132V68.5982H46.9167V69.8127H46.9172ZM28.8807 68.2783C22.9325 68.2783 21.3976 70.9005 21.3976 73.1388C21.3976 75.4416 22.9325 78.0002 28.8807 78.0002C34.829 78.0002 36.3643 75.4416 36.3643 73.1388C36.3638 70.9005 34.829 68.2783 28.8807 68.2783ZM28.8807 76.2731C26.5784 76.2731 25.6187 75.3134 25.6187 73.1388C25.6187 70.9641 26.5779 70.0054 28.8807 70.0054C31.1835 70.0054 32.1427 70.9641 32.1427 73.1388C32.1427 75.3134 31.1835 76.2731 28.8807 76.2731ZM25.6828 66.8706L21.2694 62.7771L43.5276 60.2195L54.2732 66.8706H25.6828ZM63.1626 49.4093L16.3444 58.1725L20.3738 61.9451L41.9922 59.2593C41.6083 59.0676 41.5447 58.8754 41.5447 58.6201C41.5447 58.3638 41.7364 58.1079 42.1199 58.0444C42.3121 58.0444 54.0805 56.3172 54.912 56.1891C55.295 56.1245 56.2551 55.9328 57.2784 55.4217C58.3016 54.9741 58.9409 54.462 59.3249 54.0775C59.6443 53.8222 60.5399 52.8625 61.1801 52.1587C61.5432 51.795 61.8848 51.4105 62.2034 51.0073C62.4597 50.6879 63.0354 49.984 63.2902 49.6641C63.3553 49.5375 63.2907 49.4093 63.1626 49.4093ZM70.5185 39.1763L11.9956 54.2067L15.5134 57.4691L33.5499 54.0149C33.2305 53.8232 33.0383 53.6955 33.0383 53.3757C33.0408 53.2344 33.0937 53.0987 33.1876 52.9931C33.2814 52.8875 33.4099 52.819 33.5499 52.7999L62.8432 47.1075C63.2271 47.0434 64.2504 46.8512 65.2096 46.2119C66.1692 45.6362 66.6813 44.9969 67.0012 44.6765C67.3842 44.229 68.0881 43.3334 68.6002 42.6941C68.9832 42.1825 69.304 41.6709 69.5589 41.2874C69.8152 40.9039 70.3909 39.8802 70.7103 39.4326C70.7743 39.304 70.6467 39.1122 70.5185 39.1763Z" fill="#E60012"/>
<path fill-rule="evenodd" clip-rule="evenodd" d="M62.7797 22.1628C63.5472 21.8429 67.4489 20.1799 68.2794 19.7319C69.1755 19.3484 71.7337 18.197 72.6933 17.7494C73.7802 17.3019 76.8504 15.8306 77.2979 15.6389C79.4726 14.6156 82.1594 13.3366 82.6705 13.0167C82.7987 12.9526 83.0545 13.0807 82.9899 13.2725C82.5321 14.7488 81.9984 16.2005 81.3909 17.6218C81.008 18.5174 80.4323 19.7964 79.9201 20.628C79.2809 21.6517 78.6416 22.3546 78.1295 22.8026C77.0426 23.8264 76.1465 24.338 75.1874 24.7219C74.6117 24.9137 73.3967 25.4253 72.5652 25.7452C72.3734 25.8093 69.111 27.0243 68.4071 27.216L10.7162 47.6189C9.37305 48.0664 7.83817 48.9615 7.83817 50.6886C7.83817 51.4571 8.28622 52.4803 9.18131 53.3108L23.7641 66.8704H16.9843C16.8567 66.4874 16.6644 65.9117 16.4086 65.5273C16.1528 65.1428 16.0252 64.7598 15.2572 64.0565C14.682 63.4162 14.1063 62.8415 13.9141 62.6492L6.23873 54.9749C4.76793 53.5676 4 51.7124 4 50.0499C4 47.747 5.27906 45.5088 9.11674 43.9734L62.7797 22.1628Z" fill="#E60012"/>
<path fill-rule="evenodd" clip-rule="evenodd" d="M69.1111 29.9016C69.8785 29.6458 71.3503 29.1342 71.7333 29.0065C72.1172 28.8789 73.6521 28.3032 73.9079 28.2391C74.9312 27.7915 75.9544 27.4076 77.0422 26.96C77.1694 26.896 77.3616 27.0241 77.2976 27.2158C77.1694 27.5357 76.4665 28.9425 76.2743 29.2623C75.8268 30.1579 75.3792 30.9894 74.9312 31.6928C74.4836 32.3967 73.9079 33.3558 73.5244 33.8039C72.8842 34.5713 72.3085 35.0829 71.4134 35.7227C70.262 36.4902 69.2387 36.746 68.7912 36.9382L26.2588 48.3221C25.9394 48.3857 25.8112 48.7697 25.8112 48.8978C25.8112 49.1541 26.0029 49.4089 26.2588 49.5371L11.1643 53.4388L9.94935 52.2874C9.5018 51.9045 9.30957 51.3288 9.30957 50.8807C9.30957 49.7929 10.1411 49.2818 11.4847 48.8342L69.1111 29.9016Z" fill="#E60012"/>
</svg>
