<svg width="90" height="90" viewBox="0 0 90 90" fill="none" xmlns="http://www.w3.org/2000/svg">
<rect width="90" height="90" rx="10" fill="white"/>
<path fill-rule="evenodd" clip-rule="evenodd" d="M27.3771 58.2249C25.0084 55.7442 24.3164 54.0676 23.1467 50.4903C22.3327 47.3711 22.3327 45.5142 22.1086 42.0733C22.0647 39.5438 21.8844 36.5075 22.6495 32.165C23.595 27.3253 24.3164 24.6984 26.5242 22.4857C23.595 20.9894 23.1467 16.6031 23.595 13.6154C23.595 13.6154 25.7346 12.5676 27.1529 12.0315C28.9026 11.3735 31.7488 10.6717 31.7488 10.6717C31.7488 13.0257 31.2956 16.6031 33.2353 17.7776C34.9899 18.8157 39.3568 17.7776 40.122 15.5162C40.351 14.8388 40.4387 12.4847 40.122 9.54099C40.7555 9.40452 42.242 9 44.5376 9C46.6528 9 48.4073 9.40452 49.0361 9.54099C48.5877 12.4847 48.8119 14.8388 49.0361 15.5162C49.7574 17.7776 54.173 18.8157 55.9714 17.7776C57.7308 16.6031 57.4579 13.0257 57.4579 10.6717C57.4579 10.6717 60.1092 11.3297 61.7371 11.9389C63.2333 12.4994 65.4752 13.6154 65.4752 13.6154C65.8798 16.6031 65.4752 20.9894 62.551 22.4857C64.7539 24.6984 65.4752 27.3253 66.4207 32.165C67.2785 36.5075 67.1421 39.5438 67.0543 42.0733C66.7375 45.5142 66.874 47.3711 65.8797 50.4903C64.7539 54.0676 64.1788 55.7101 61.9174 58.2249C57.2678 63.396 49.0945 62.9963 44.6058 62.9768C40.0878 62.9817 32.1924 63.2741 27.3771 58.2249ZM54.173 55.7832C55.0746 55.4713 56.6489 55.018 57.7308 53.1611C60.0702 49.4522 60.0702 42.7995 60.0702 39.5438C60.0702 36.1907 60.0702 29.8597 57.7308 26.1946C56.6489 24.2938 55.0746 23.8406 54.173 23.5238C51.5168 22.8463 49.7574 22.8463 44.6253 22.8463C39.3568 22.8463 37.6022 22.8463 34.9899 23.5238C34.0882 23.8406 32.4702 24.2938 31.2956 26.1946C29.1365 29.8597 29.1365 35.7862 29.1365 39.1344C29.1365 42.4827 29.1365 49.4522 31.2956 53.1611C32.4702 55.018 34.0882 55.4713 34.9899 55.7832C37.6022 56.5094 39.3568 56.5094 44.6253 56.5094C49.7574 56.5094 51.5168 56.5094 54.173 55.7832ZM40.1414 42.9701V52.0889H34.02V26.8331H40.1414V34.4166C40.1414 35.908 40.122 35.908 44.6253 35.908C49.0361 35.908 48.9727 35.908 48.9727 34.4166V26.8331H55.1867V52.0889H48.9727V42.9701C48.9727 41.5226 49.0361 41.5226 44.6253 41.5226C40.122 41.5226 40.1414 41.5226 40.1414 42.9701Z" fill="#002F6C"/>
<path fill-rule="evenodd" clip-rule="evenodd" d="M25.4325 69.6395H23.2783V74.8739C23.2783 76.3506 22.6837 77.1012 21.4702 77.1012C21.0023 77.1012 20.6514 76.916 20.4077 76.6674C20.0958 76.3555 19.9447 75.8389 19.9447 75.0835V69.6395H17.8051V75.2638C17.8051 76.5017 18.0829 77.3839 18.6629 77.9687C19.2185 78.5243 19.896 78.7973 21.0169 78.7973C21.7967 78.7973 22.7568 78.2612 23.3076 77.5593V78.5585H25.4325V69.6395ZM58.9737 72.0422C58.9737 71.3794 58.7544 70.8141 58.3158 70.3803C57.6968 69.7565 56.8195 69.3958 55.5475 69.4007C54.2754 69.4055 52.1212 69.6687 51.8775 72.1007H54.0317C54.0025 70.9651 55.4354 71.0675 55.4354 71.0675C55.8935 71.0675 56.3127 71.2088 56.6148 71.4574C56.8049 71.6085 56.9267 71.8376 56.9414 72.2128C56.9657 72.8172 56.6782 73.1047 54.6604 73.3046C53.1008 73.4556 51.2488 73.8797 51.2488 76.1265C51.2488 76.8429 51.4925 77.4667 51.9506 77.9249C52.5063 78.4853 53.3494 78.7924 54.3193 78.7924C55.606 78.7924 56.3468 78.4707 57.0047 77.7299L57.1119 78.5585H59.1833V78.227C58.9152 78.0126 58.9737 77.1256 58.9737 77.1256V72.0422ZM53.3884 76.0534C53.3299 75.3856 53.7198 74.9031 54.7384 74.7277C55.0016 74.6741 55.2745 74.6497 55.5377 74.6107C55.9422 74.5474 56.4199 74.4353 56.8341 74.1575V75.527C56.8341 76.6285 55.7375 77.0427 54.9383 77.033C54.139 77.0184 53.4469 76.7259 53.3884 76.0534ZM14.2327 66.6616V71.2137H9.33453V66.6616H7V78.5585H9.33453V73.2656H14.2327V78.5585H16.5721V66.6616H14.2327Z" fill="#002F6C"/>
<path fill-rule="evenodd" clip-rule="evenodd" d="M31.7491 76.0188C31.7296 75.278 30.8865 75.0538 29.7704 74.8199C29.5705 74.776 29.3707 74.7322 29.166 74.6834C27.6698 74.3618 26.4221 73.811 26.4221 72.0029C26.4221 70.0826 28.3862 69.4295 30.0384 69.4052C31.7199 69.3808 33.299 70.1265 33.5232 71.8567H31.2861C30.9498 71.1695 30.4722 71.0769 29.902 71.0963C29.3268 71.111 28.6007 71.2572 28.547 71.9346C28.4886 72.6121 29.4438 72.846 30.6086 73.0702L31.0765 73.1823C32.5728 73.5381 33.8887 74.1083 33.8887 75.8483C33.8887 76.5793 33.6401 77.2032 33.1527 77.6905C32.4558 78.3924 31.7491 78.7628 30.1895 78.7969C28.6299 78.8261 26.3782 78.1535 26.2759 75.897H28.4447C28.5763 76.7012 29.2976 77.1008 30.2187 77.0764C31.1399 77.0521 31.7637 76.7597 31.7491 76.0188ZM48.7634 78.5581H46.4581L43.3779 69.6391H45.7027L47.6765 76.5013L49.587 69.6391H51.8192L48.7634 78.5581ZM65.2805 69.3905V71.3157C65.2805 71.3157 64.9394 71.1938 64.3497 71.1792C63.7599 71.1646 63.1653 71.5935 62.829 72.0272C62.3855 72.5975 62.3222 73.3334 62.3222 74.2984V78.5581H60.168V69.6391H62.2003V71.1987C62.5561 70.2483 63.3895 69.4539 64.0865 69.3467C64.7103 69.2541 65.2805 69.3905 65.2805 69.3905ZM73.7073 78.5581H71.5677V72.9825C71.5287 71.7056 71.1924 71.1353 70.203 71.1158C69.5889 71.1061 69.0821 71.3059 68.7263 71.6617C68.3266 72.0614 68.1902 72.656 68.1902 73.2993V78.5581H66.0506V69.6391H68.0781V70.9745C68.7214 69.9608 69.511 69.4003 70.5637 69.4003C71.5726 69.4003 72.3572 69.6976 72.908 70.2483C73.4392 70.7796 73.7073 71.5252 73.7073 72.461V78.5581ZM82.1194 77.1301C82.1194 77.1301 82.0609 78.0171 82.3289 78.2267V78.5581H80.2576L80.1552 77.7295C79.4924 78.4752 78.7516 78.7969 77.4649 78.7969C76.4951 78.7969 75.6519 78.4898 75.0963 77.9294C74.6333 77.4664 74.3945 76.8425 74.3945 76.1261C74.3945 73.8793 76.2514 73.4552 77.8061 73.3042C79.8238 73.1092 80.1114 72.8217 80.087 72.2124C80.0724 71.842 79.9505 71.6081 79.7605 71.457C79.4583 71.2133 78.8929 71.072 78.4348 71.072C78.4348 71.072 77.0019 70.9696 77.0312 72.1003H74.877C75.1255 69.6732 77.2748 69.41 78.5469 69.4052C79.819 69.4003 80.8424 69.7609 81.4614 70.3799C81.9 70.8185 82.1194 71.379 82.1194 72.0467V77.1301ZM78.0839 77.0326C78.8832 77.0472 79.9798 76.6329 79.9798 75.5266V74.1619C79.5704 74.4397 79.0879 74.5518 78.6882 74.6103C78.4202 74.6493 78.1473 74.6786 77.8792 74.7273C76.8655 74.9076 76.4756 75.3853 76.534 76.0578C76.5925 76.7255 77.2797 77.0228 78.0839 77.0326Z" fill="#002F6C"/>
<path fill-rule="evenodd" clip-rule="evenodd" d="M40.8094 81V77.4811C40.1612 78.2804 39.3132 78.8165 38.1483 78.8165C37.12 78.8165 36.3694 78.4802 35.7066 77.8174C34.8829 76.9937 34.415 75.6632 34.415 74.1718C34.415 71.2427 35.9015 69.4248 38.4651 69.4248C39.6007 69.4248 40.3708 70.0194 40.9215 70.7797V69.6636L42.9636 69.6685L42.9685 80.9951L40.8094 81ZM40.863 74.6202C40.8776 74.4691 40.863 73.6552 40.8387 73.4359C40.6437 71.9689 39.9809 71.1599 38.7234 71.1599C38.163 71.1599 37.7877 71.3548 37.3978 71.7496C36.8617 72.2857 36.5546 73.1484 36.5546 74.1134C36.5546 75.1271 36.8373 75.9654 37.349 76.482C37.7243 76.8622 38.1191 77.0571 38.7234 77.0571C40.054 77.0571 40.7217 76.1896 40.863 74.6202Z" fill="#002F6C"/>
</svg>
