<svg width="90" height="90" viewBox="0 0 90 90" fill="none" xmlns="http://www.w3.org/2000/svg">
<rect width="90" height="90" rx="10" fill="white"/>
<path d="M67.0586 16.1572C59.0561 17.4484 47.4954 21.4271 34.7786 27.2675C31.4155 28.8139 23.4731 32.7926 20.08 34.6243C16.0712 36.8014 10.9064 39.8792 7.69345 42.0262C4.78074 43.978 4.64562 44.0831 5.14108 44.1282C6.92774 44.3083 12.1376 42.4616 18.6686 39.3387C20.5904 38.4229 22.6473 37.477 23.2179 37.2518C24.9445 36.5611 26.3107 36.5011 25.5751 37.1317C25.4399 37.2668 24.3139 37.8974 23.0677 38.558C17.6177 41.4707 12.7531 44.2933 12.8733 44.4885C13.0985 44.8488 16.6568 44.2783 19.1941 43.5126C22.4371 42.5067 24.3139 41.6959 28.698 39.4138C33.097 37.1317 33.9678 36.7863 34.0729 37.2668C34.133 37.5821 33.6976 37.8824 31.6257 38.9784C28.0373 40.8551 25.2297 42.6718 23.5181 44.2032L22.9176 44.7437L23.8485 44.7588C24.9445 44.7588 27.5419 44.0531 30.1393 43.0321C32.1662 42.2364 35.244 40.69 37.8565 39.1586C41.1896 37.2067 42.3306 36.6212 42.6609 36.7263C42.9762 36.8314 43.0363 37.0566 42.8411 37.3419C42.736 37.492 41.9102 38.1376 37.9916 41.1104C37.1208 41.771 35.6194 42.7769 34.6585 43.3474C33.6976 43.918 32.9019 44.4284 32.9019 44.4885C32.9019 44.6837 34.0279 44.6236 35.0338 44.3684C36.25 44.0531 39.7182 42.7018 41.1595 41.9812C42.6759 41.2155 45.1532 39.7441 47.4504 38.2427C50.1529 36.456 50.9036 36.1107 51.1438 36.5161C51.309 36.7713 50.9486 37.0716 45.934 41.1104C43.3065 43.2123 41.1595 44.999 41.1595 45.0891C41.1595 45.3893 42.4657 45.0891 44.4926 44.3083C48.6215 42.7169 51.1138 41.2905 54.7471 38.3928C55.7381 37.5971 56.744 36.8164 56.9842 36.6512C57.4196 36.381 57.6749 36.381 57.6749 36.6512C57.6749 36.9065 56.729 37.8674 55.4678 38.9183C54.1316 40.0444 50.6784 43.6928 50.333 44.3534C50.2129 44.5786 50.1529 44.7888 50.1979 44.8488C50.3481 44.984 52.6002 44.1582 53.8463 43.4976C54.5069 43.1523 55.5279 42.5517 56.1134 42.1613C57.2545 41.4106 60.2122 38.7832 61.5334 37.3569C61.9689 36.8764 62.4343 36.5011 62.5694 36.5011C62.7946 36.5011 62.7946 36.5311 62.5544 36.9065C61.5334 38.543 58.2304 42.0713 56.0383 43.903C55.663 44.2032 55.4678 44.4585 55.6029 44.4585C56.4888 44.4585 60.0321 42.7769 62.2241 41.3055C63.0949 40.735 63.9057 40.2546 64.0408 40.2546C64.4462 40.2546 64.311 40.7801 63.7405 41.3206C63.185 41.8611 62.179 43.2724 62.179 43.5276C62.179 43.6327 62.9898 43.6477 64.4762 43.6027C66.5331 43.5276 67.0436 43.5726 69.686 43.993C76.8777 45.1641 78.9947 45.3893 78.9947 45.044C78.9947 44.9389 78.8445 44.6987 78.6644 44.5035C78.2139 44.0231 78.4542 43.6327 79.2049 43.6327H79.7454V42.6118C79.7454 41.3656 79.31 39.9993 78.6043 39.0084C77.7935 37.8824 77.9287 36.9965 79.0697 35.9005C79.7303 35.2699 80.3759 34.264 80.7363 33.3482C81.1867 32.1771 81.8173 31.6816 83.5289 31.1861C84.3997 30.9309 85.0002 30.4805 85.0002 30.0601C85.0002 29.94 84.8201 29.5797 84.6099 29.2644C84.3847 28.9491 84.1745 28.4836 84.1144 28.2134C84.0243 27.778 83.9493 27.7179 83.4988 27.7029C82.8683 27.7029 82.7632 27.4327 83.2586 27.1024C83.7541 26.7871 83.7391 26.5919 83.2586 25.7511C82.8232 25.0004 82.8532 24.8653 83.5439 24.8653C84.2796 24.8653 84.2195 24.4299 83.3337 23.2438C82.583 22.2529 81.7722 21.5322 80.8114 21.0067C80.3759 20.7665 80.3459 20.6914 80.421 20.1809C80.5261 19.4753 80.451 19.3702 79.5051 18.8897C78.8295 18.5444 78.7394 18.4543 78.7995 18.124C78.8896 17.6436 78.7995 17.5985 76.097 16.8328C73.8749 16.2022 73.4395 16.1722 73.4395 16.6076C73.4395 16.8929 73.4996 16.9079 72.1783 16.4575C70.737 15.977 68.8753 15.8719 67.0586 16.1572ZM76.0669 17.3733C77.6284 17.8237 77.8086 17.9438 77.4632 18.2742C77.238 18.4994 77.1479 18.4994 76.2621 18.2141C75.7517 18.0339 75.031 17.8237 74.6706 17.7337C74.1001 17.5835 74.0551 17.5385 74.1902 17.2832C74.4004 16.9079 74.4454 16.9079 76.0669 17.3733ZM72.5387 18.124C72.5387 18.4243 71.9681 19.3852 71.788 19.3852C71.7279 19.3852 71.3526 19.235 70.9472 19.0549L70.2115 18.7246L70.737 18.6045C71.0223 18.5294 71.5027 18.3492 71.788 18.1841C72.4636 17.8388 72.5387 17.8388 72.5387 18.124ZM76.2621 18.7846C76.8927 18.9498 77.0579 19.22 76.7125 19.4903C76.4723 19.6855 73.5896 18.8147 73.5896 18.5594C73.5896 18.124 73.92 18.064 74.7757 18.3342C75.2412 18.4994 75.9018 18.6945 76.2621 18.7846ZM68.62 18.6195C68.9503 18.8297 68.605 18.9498 66.7733 19.2501C62.8397 19.9257 58.4105 21.382 52.2999 24.0245C49.7925 25.1055 47.5705 26.0364 47.3753 26.0814C46.6696 26.2616 47 25.7361 47.8858 25.2707C49.162 24.595 56.729 21.4121 58.8159 20.6614C60.3624 20.1059 63.8606 19.175 66.2328 18.6645C67.1036 18.4693 68.3498 18.4543 68.62 18.6195ZM75.076 19.8957C76.1871 20.226 76.3672 20.3761 75.9769 20.6313C75.7967 20.7364 75.3463 20.6764 74.3403 20.3911C73.5596 20.1659 72.914 19.9557 72.869 19.9107C72.8389 19.8806 72.8389 19.7455 72.899 19.6104C73.0041 19.3251 73.4395 19.3852 75.076 19.8957ZM71.4126 20.286C71.5027 20.4211 71.1574 21.2169 70.8421 21.6073C70.722 21.7574 70.6319 21.7424 70.4217 21.5472C70.2716 21.4121 69.9262 21.2469 69.656 21.2019L69.1605 21.0968L70.0614 20.6163C71.0373 20.1209 71.2625 20.0608 71.4126 20.286ZM79.6703 20.5863C79.6703 20.7064 79.4451 20.9316 79.1898 21.1118C78.9196 21.2769 78.4692 21.5622 78.1689 21.7424L77.6434 22.0727V21.6523C77.6434 21.1718 77.9437 20.8566 78.6944 20.5262C79.31 20.256 79.6703 20.271 79.6703 20.5863ZM74.4004 21.0367C75.4213 21.352 75.4814 21.4121 75.2562 21.7724C75.1361 21.9526 74.9409 21.9376 73.98 21.6673C72.2384 21.1568 72.0883 21.0818 72.1933 20.7965C72.2984 20.5112 72.869 20.5713 74.4004 21.0367ZM76.9828 21.367C76.9227 21.6373 76.6675 22.1928 76.3973 22.6132C75.7066 23.6491 75.6916 23.7242 75.9318 24.7302C76.2171 25.9012 76.2771 29.2493 76.0219 29.6998C75.9168 29.8949 75.7366 30.0451 75.6315 30.0451C75.4664 30.0451 75.4063 29.5797 75.3463 27.9732C75.3162 26.8471 75.1961 25.646 75.091 25.3157L74.9109 24.7302L74.5055 25.1956C74.2953 25.4508 73.92 25.9313 73.6947 26.2766C73.2443 26.9372 72.5987 27.4477 72.4336 27.2825C72.3435 27.1924 73.1392 25.9613 75.5264 22.4931C76.6675 20.8415 77.163 20.4512 76.9828 21.367ZM68.2747 21.2169C68.4248 21.4421 67.9444 21.7724 67.2988 21.8625C65.8425 22.0877 62.5394 23.0786 60.3023 23.9644C57.7499 24.9554 56.9242 25.1355 56.9242 24.7001C56.9242 24.1746 61.7887 22.2679 64.9116 21.5772C67.4339 21.0217 68.1096 20.9466 68.2747 21.2169ZM79.9856 21.8174C80.1207 22.0877 80.3309 22.433 80.451 22.5681C80.6912 22.8384 80.6012 23.1387 80.2859 23.1387C80.1808 23.1387 79.9105 22.9285 79.6703 22.6883C79.4301 22.433 79.1448 22.2378 79.0397 22.2378C78.7995 22.2378 78.7845 22.0276 78.9947 21.6223C79.2349 21.1718 79.7003 21.2769 79.9856 21.8174ZM73.0942 21.9376C74.7607 22.3279 74.9559 22.433 74.6106 22.7783C74.3854 23.0186 74.2803 23.0035 73.0041 22.6883C71.5628 22.3429 71.4276 22.2679 71.5778 21.8775C71.6829 21.5922 71.5027 21.5772 73.0942 21.9376ZM69.9112 23.6191L69.5509 24.3998L68.2297 24.4149C67.1637 24.4149 66.6382 24.5049 65.4821 24.8953C62.7196 25.7961 61.4133 26.1565 61.1131 26.0664C60.002 25.7061 62.164 24.7902 65.9776 23.9795C67.3589 23.6942 68.8452 23.2888 69.2806 23.0936C69.701 22.8985 70.1064 22.7633 70.1665 22.7934C70.2265 22.8234 70.1064 23.1987 69.9112 23.6191ZM72.5987 23.2137C73.3344 23.4089 73.95 23.6041 73.995 23.6341C74.025 23.6642 73.935 23.8443 73.7848 24.0095L73.5146 24.3398L72.2534 23.9644C71.5628 23.7542 70.9622 23.5591 70.9322 23.529C70.8271 23.439 71.0373 22.8384 71.1574 22.8384C71.2174 22.8384 71.863 23.0035 72.5987 23.2137ZM81.2768 24.535C81.2317 25.0454 81.2618 25.0905 81.6071 25.0905C82.1926 25.0905 82.1176 25.601 81.487 25.9012C80.8714 26.1865 80.7663 26.4267 80.8864 27.2075C80.9615 27.5978 80.9014 27.9581 80.7363 28.3035C80.3759 29.0542 80.2258 29.0842 80.0607 28.4386C79.9405 28.0032 79.9706 27.6128 80.1507 26.8171C80.2859 26.2315 80.406 25.3307 80.436 24.7902C80.466 24.2497 80.481 23.7993 80.4961 23.7843C80.4961 23.7693 80.6762 23.8143 80.9014 23.8744C81.2768 23.9795 81.3068 24.0395 81.2768 24.535ZM71.9832 24.565C72.9741 24.8352 73.2744 25.1355 72.7489 25.3457C72.5086 25.4358 70.6019 24.9854 70.3767 24.7752C70.2115 24.6251 70.5718 24.1596 70.7971 24.2347C70.8871 24.2647 71.4126 24.4149 71.9832 24.565ZM69.1605 25.2256C69.2506 25.3758 68.8452 26.5619 68.605 26.8171C68.5299 26.8922 68.2897 26.8771 67.9444 26.757C67.4489 26.5769 67.3438 26.5919 66.6382 26.9672C65.1518 27.748 63.5303 28.1834 63.5303 27.793C63.5303 27.5378 64.7464 26.8621 66.0827 26.3667C66.7883 26.0964 67.7042 25.7061 68.1096 25.4959C68.9503 25.0605 69.0404 25.0304 69.1605 25.2256ZM72.2234 26.0814C72.2684 26.1264 72.1933 26.2466 72.0732 26.3517C71.773 26.6519 69.8362 26.2015 69.8362 25.8412C69.8362 25.7061 69.8662 25.5559 69.9112 25.5109C69.9863 25.4358 72.0883 25.9613 72.2234 26.0814ZM71.4877 27.1924C71.4877 27.2375 71.3976 27.4026 71.2925 27.5528C71.1123 27.808 71.0523 27.808 70.2115 27.5678C69.716 27.4176 69.2957 27.2825 69.2656 27.2675C69.2356 27.2375 69.2806 27.0873 69.3707 26.9222C69.5209 26.6369 69.5659 26.6369 70.5118 26.8621C71.0523 26.9973 71.4877 27.1474 71.4877 27.1924ZM82.598 27.8531C82.598 28.0933 82.2827 28.6938 82.1476 28.6938C81.8924 28.6938 81.8023 28.2584 81.9975 28.0182C82.1626 27.808 82.598 27.7029 82.598 27.8531ZM68.0345 29.0842C67.8693 29.6397 67.7192 30.1202 67.6742 30.1502C67.5691 30.2703 65.9325 30.3003 65.9325 30.1952C65.9325 29.7898 67.9294 27.8681 68.1846 28.0182C68.2597 28.0632 68.1846 28.5437 68.0345 29.0842ZM70.3166 28.3035C70.6169 28.4236 70.692 28.5287 70.6019 28.6788C70.4818 28.859 70.3316 28.874 69.626 28.7088C69.1605 28.6037 68.7852 28.4987 68.7852 28.4686C68.7852 28.4386 68.8302 28.3035 68.8753 28.1683C68.9804 27.9131 69.4908 27.9581 70.3166 28.3035ZM70.752 30.8558C70.3316 31.6366 69.9863 32.3122 69.9863 32.3572C69.9863 32.4023 70.0914 32.4023 70.2115 32.3572C70.4517 32.2521 70.5268 32.4924 70.6619 33.9037C70.722 34.5493 70.692 34.8495 70.5869 34.8495C70.3316 34.8495 69.9863 33.8887 69.9863 33.168L69.9713 32.5224L69.7311 32.9728C69.4758 33.4382 69.5509 34.1289 70.0013 35.3C70.1965 35.7954 70.2415 35.8255 70.8271 35.7804C71.2775 35.7504 71.5027 35.8104 71.7129 36.0507C71.9832 36.3509 71.9832 36.3509 71.0673 36.3509C70.5268 36.3509 70.1364 36.2759 70.1064 36.1858C70.0614 36.0657 69.9713 36.0807 69.8211 36.2308C69.4458 36.6062 69.671 39.9543 70.1064 40.4347C70.2265 40.5849 70.2716 40.705 70.2115 40.705C70.1364 40.705 70.1515 40.7801 70.2565 40.8852C70.3616 40.9903 70.4367 41.1854 70.4367 41.3206C70.4367 41.7259 70.8421 41.9812 71.1123 41.756C71.4126 41.5007 71.5477 41.6509 71.848 42.6118C71.9982 43.0321 72.2084 43.4676 72.3285 43.5576C72.7038 43.8879 72.5537 44.0231 71.848 43.978C71.0823 43.933 70.9472 43.7979 70.8271 42.9571C70.767 42.5967 70.6319 42.3715 70.3917 42.2815C70.1364 42.1613 70.0614 41.9962 70.0464 41.5308C70.0313 41.0803 69.9262 40.8101 69.641 40.5248C69.3857 40.2696 69.2356 39.9543 69.2356 39.684C69.2356 39.4438 69.1305 39.0384 68.9954 38.7682C68.8603 38.4979 68.7852 38.0926 68.8152 37.8523C68.8603 37.5521 68.8302 37.447 68.6801 37.507C68.575 37.5521 68.4849 37.507 68.4849 37.4019C68.4849 37.1016 69.1155 35.7504 69.2506 35.7504C69.4308 35.7504 69.4158 35.5552 69.2356 35.0597C69.0254 34.5042 68.8302 34.7294 68.5149 35.9155C68.3348 36.5762 68.1696 36.8914 67.9894 36.9215C67.6141 36.9965 67.6591 36.5011 68.1846 34.8796C68.7401 33.213 69.9262 30.6456 70.5869 29.6697C71.0223 29.0392 71.0973 28.9941 71.2925 29.1893C71.5027 29.3995 71.4427 29.5646 70.752 30.8558ZM69.8211 29.4746C70.1214 29.5797 70.1364 29.6397 69.9713 29.8649C69.8662 30 69.7611 30.1352 69.7461 30.1652C69.7311 30.1952 69.4458 30.1352 69.1005 30.0301C68.6951 29.91 68.4849 29.7598 68.4849 29.5947C68.4849 29.1142 68.7852 29.0842 69.8211 29.4746ZM69.0554 30.5706C69.4008 30.6757 69.5059 31.1561 69.2356 31.3213C69.1455 31.3813 68.8452 31.3363 68.545 31.2462C68.1696 31.1261 68.0345 31.006 68.0945 30.8408C68.1396 30.7207 68.1846 30.5556 68.1846 30.4805C68.1846 30.3904 68.3047 30.3604 68.4549 30.4054C68.59 30.4354 68.8603 30.5105 69.0554 30.5706ZM67.509 31.1261C67.539 31.2312 67.524 31.7867 67.464 32.3422L67.3589 33.3782L66.7583 33.5884C66.413 33.7085 65.9025 34.0838 65.4821 34.5343C64.5663 35.5402 63.7105 36.1407 63.5153 35.9456C63.2901 35.7204 63.5453 35.3 64.6864 34.0538C65.2419 33.4533 65.9776 32.5224 66.3379 31.9519C66.9385 31.006 67.3589 30.7057 67.509 31.1261ZM75.9318 31.7717C76.4573 32.2221 76.9678 32.2371 78.0938 31.8468C79.0397 31.5165 79.5502 31.4864 80.1507 31.7116C80.5711 31.8768 80.5711 31.8768 79.7454 32.132C79.2949 32.2822 78.7544 32.4924 78.5442 32.5975C78.3341 32.7026 77.6134 32.8827 76.9378 32.9878C75.9919 33.1229 75.5865 33.2581 75.2412 33.5583C74.8358 33.8887 74.3403 34.0838 74.3403 33.8887C74.3403 33.8586 74.5355 33.4082 74.7757 32.8827C75.016 32.3572 75.2412 31.8017 75.3012 31.6516C75.4063 31.3213 75.4063 31.3213 75.9318 31.7717ZM68.7552 31.8468C68.9954 31.8468 68.9954 32.2822 68.7401 32.3873C68.62 32.4323 68.3648 32.3873 68.1396 32.3122C67.6441 32.117 67.7342 31.6216 68.2447 31.7567C68.4098 31.8017 68.6501 31.8468 68.7552 31.8468ZM67.464 34.219C67.509 34.3691 67.479 34.8946 67.4039 35.3901C67.3138 35.8705 67.2387 36.7413 67.2237 37.3118L67.2087 38.3328L66.6082 38.6331C66.2779 38.8132 65.7824 39.1135 65.5121 39.3237C65.1218 39.609 64.9716 39.654 64.8365 39.5189C64.7014 39.3838 64.7164 39.2336 64.9416 38.8583C65.5272 37.8824 66.0677 36.6812 66.383 35.6002C66.5781 34.9847 66.7883 34.3541 66.8634 34.2039C67.0286 33.8736 67.3739 33.8736 67.464 34.219ZM73.5896 35.0898C73.5896 35.4201 73.7398 35.5402 74.7607 35.9906C76.2471 36.6812 77.3431 37.3719 77.3431 37.6572C77.3431 38.0175 76.5324 37.7623 74.7757 36.8464C73.8149 36.3359 73.0792 36.0507 72.929 36.0957C72.7639 36.1558 72.6888 36.381 72.6888 36.7713C72.6888 37.1016 72.5987 37.447 72.4936 37.537C72.3735 37.6271 72.3135 37.8824 72.3585 38.1376C72.4336 38.6781 72.1633 38.8733 71.9381 38.4379C71.788 38.1676 71.6829 38.1376 71.2174 38.2277C70.9021 38.2877 70.5718 38.3928 70.4818 38.4829C70.3316 38.603 70.2866 38.558 70.2866 38.3328C70.2866 37.9574 70.6019 37.6872 71.3976 37.4019C71.863 37.2218 72.0282 37.0866 72.0582 36.8014C72.1483 35.9606 72.2684 35.7053 72.8089 35.2099C73.4695 34.5943 73.5896 34.5793 73.5896 35.0898ZM73.5896 37.537C73.5896 38.0325 73.3044 38.9033 73.1392 38.9033C72.899 38.9033 72.854 37.9724 73.0642 37.462C73.3044 36.8614 73.5896 36.9065 73.5896 37.537ZM75.3162 38.3478C75.3763 38.603 75.3463 39.1736 75.2862 39.5789C75.1661 40.2245 75.1361 40.2846 74.9859 40.0294C74.9109 39.8642 74.7908 39.2336 74.7457 38.6331C74.6556 37.5971 74.6706 37.5521 74.9409 37.7022C75.1061 37.7923 75.2712 38.0775 75.3162 38.3478ZM74.2653 39.0384C74.2052 39.5489 74.1151 39.9543 74.0401 39.9543C73.7848 39.9543 73.6347 38.4679 73.8299 37.9274C73.92 37.7022 73.95 37.7022 74.1452 37.8974C74.3253 38.0775 74.3554 38.3178 74.2653 39.0384ZM72.0883 39.3537C72.0883 39.654 71.6679 39.9993 71.0823 40.1795C70.4968 40.3447 70.6619 39.7591 71.3075 39.3237C71.9231 38.9183 72.0883 38.9183 72.0883 39.3537ZM76.4123 39.3838C76.4123 39.654 76.4573 40.4497 76.5174 41.1404L76.6375 42.4016L76.097 41.9962C75.7817 41.756 75.5415 41.5458 75.5415 41.5308C75.5415 41.5157 75.6466 41.2004 75.7667 40.8551C75.8868 40.5098 75.9919 39.9693 75.9919 39.654C75.9919 39.3537 76.0369 39.0535 76.097 39.0084C76.3072 38.7832 76.4273 38.9183 76.4123 39.3838ZM77.163 39.0985C77.3581 39.3237 77.5834 40.8551 77.7035 42.6268L77.7935 43.8879L77.253 43.3625L76.7276 42.852L76.8927 41.9061C77.0429 41.0503 77.0278 40.5248 76.8026 39.3087C76.7125 38.8733 76.8927 38.7682 77.163 39.0985ZM78.229 39.3237C78.4391 39.7141 78.7995 41.2755 78.9046 42.2064L78.9947 43.0472H78.4692H77.9437V42.0562C77.9437 41.5157 77.8986 40.6299 77.8386 40.0594C77.7785 39.3687 77.8086 39.0535 77.9137 39.0535C78.0037 39.0535 78.1539 39.1736 78.229 39.3237ZM72.8089 39.3838C72.914 39.4889 72.9891 39.8942 72.9891 40.3146C72.9891 41.0203 73.0191 41.0803 73.8749 41.846C75.1511 43.0021 76.112 44.6086 75.5114 44.6086C75.4213 44.6086 74.7007 43.918 73.9049 43.0922C73.1092 42.2514 72.3135 41.5157 72.1183 41.4407L71.773 41.3055L72.0732 40.9152C72.2834 40.6449 72.3885 40.2996 72.3885 39.8642C72.3885 39.1886 72.4936 39.0685 72.8089 39.3838Z" fill="#CD1628"/>
<path d="M27.4968 46.8604C25.3348 47.1307 23.353 47.8964 22.0618 48.9774C21.3711 49.5629 21.3111 49.5779 19.6595 49.7281C15.801 50.0734 13.684 51.0493 12.8883 52.851C12.3177 54.1572 12.9934 55.7337 14.3746 56.2592C15.846 56.8147 18.0981 56.5294 19.029 55.6436C19.6896 55.013 19.6896 54.7878 19.059 54.983C18.7887 55.058 18.1581 55.1181 17.6477 55.1181C15.1403 55.1181 14.9452 53.0612 17.3324 51.8901C18.023 51.5598 20.2601 50.9742 20.3652 51.0944C20.3952 51.1244 20.3352 51.5598 20.2451 52.0853C19.9748 53.7969 20.5604 55.3133 21.9266 56.4093C22.272 56.6795 22.6323 56.9198 22.7224 56.9498C22.8275 56.9948 22.6173 57.5353 22.2269 58.271C20.4703 61.6642 17.6477 64.3216 14.735 65.3426C13.9392 65.6279 13.4288 65.6879 12.0325 65.7029C10.3659 65.7029 10.2608 65.6879 9.28491 65.2075C6.65747 63.9163 6.35719 61.0786 8.69936 59.8925C9.8104 59.337 10.9515 59.2019 11.6871 59.5622C12.8432 60.1328 12.2276 61.2438 10.6812 61.3939C10.2608 61.424 9.94552 61.529 9.97555 61.6191C10.0656 61.9044 11.4019 62.4899 12.3027 62.6251C14.9151 63.0605 16.8669 61.424 15.7409 59.7574C14.9902 58.6464 13.669 58.1209 11.2667 58.0158C8.02374 57.8506 5.54644 58.8566 4.40538 60.8084C4.07507 61.3789 4 61.6792 4 62.55C4 64.3817 4.99092 65.6879 7.10789 66.6788C8.60928 67.3845 9.99056 67.6247 12.4078 67.6097C14.1644 67.6097 14.765 67.5346 16.0112 67.2193C20.3952 66.0783 23.6532 63.3157 26.4609 58.3311C26.7912 57.7305 26.8362 57.7005 27.707 57.6254C29.0433 57.5053 30.4396 56.7546 31.0701 55.8087C31.8659 54.6226 31.7007 53.1963 30.6497 52.1904C30.3945 51.9502 30.1993 51.6799 30.1993 51.5898C30.1993 51.3046 32.1061 49.2476 33.3973 48.1216C34.4933 47.1607 34.5534 47.0856 34.2231 46.9655C33.7276 46.7703 28.818 46.7103 27.4968 46.8604ZM30.0492 48.1216C29.9291 48.2267 29.2985 48.7822 28.6379 49.3377L27.4668 50.3587L25.9053 50.0734C25.0345 49.9233 24.3589 49.7281 24.3889 49.653C24.494 49.3527 26.596 48.3468 27.5268 48.1366C28.0523 48.0315 28.8781 47.9264 29.3736 47.9264C30.1393 47.9114 30.2294 47.9414 30.0492 48.1216ZM25.4399 51.2295C25.9053 51.3346 26.2957 51.4697 26.2957 51.5448C26.2957 51.6349 26.0405 52.0102 25.7252 52.4006C25.4099 52.7759 24.8544 53.5116 24.494 54.0371L23.8334 54.968L23.383 54.5326C22.8125 53.962 22.6773 52.7459 23.0677 51.74C23.3079 51.0793 23.338 51.0643 23.9535 51.0643C24.3139 51.0643 24.9745 51.1394 25.4399 51.2295ZM29.809 53.3464C30.1843 53.8719 30.0942 54.4425 29.5838 55.028C29.0583 55.6436 27.7971 56.109 27.7971 55.7036C27.7971 55.4784 29.3285 53.0161 29.4636 53.0161C29.5237 53.0161 29.6889 53.1663 29.809 53.3464Z" fill="#CD1628"/>
<path d="M52.0746 54.0368C50.1077 56.8894 50.2729 56.7092 49.7774 56.484C49.5372 56.3789 48.9216 56.3039 48.4112 56.3039C44.943 56.3339 41.1294 58.9914 39.1326 62.8049C38.577 63.8709 37.9164 64.4264 37.1507 64.4715C36.8354 64.4865 36.7303 64.4414 36.7453 64.2462C36.7604 64.1111 37.5261 62.8199 38.4569 61.3636C39.3878 59.9222 40.2286 58.4809 40.3337 58.1656C40.5889 57.3999 40.3787 56.8594 39.7031 56.5441C39.0275 56.2138 36.8354 56.3039 35.6493 56.6942C34.8836 56.9495 34.8686 56.9495 34.4632 56.6342C33.9678 56.2438 32.9468 56.2138 32.2261 56.5591C31.9559 56.6792 31.0551 57.3999 30.2143 58.1356C28.7729 59.4118 27.752 60.0574 27.1664 60.0724C26.8361 60.0724 26.8211 60.4177 27.1214 60.6729C27.5418 61.0182 28.6528 60.763 29.6137 60.0874C30.1092 59.7421 30.4995 59.5018 30.4995 59.5469C30.4995 59.5769 29.4486 61.1384 28.1724 63.0001C26.8962 64.8468 25.8452 66.4383 25.8452 66.5284C25.8452 66.6184 26.4308 66.6785 27.4067 66.6785H28.9831L29.3885 66.153C29.6137 65.8527 30.4095 64.7417 31.1602 63.6457C32.4814 61.7389 32.5564 61.6638 33.3222 61.4236C34.1329 61.1534 34.6134 60.8081 34.8836 60.3126C35.0187 60.0724 34.9887 60.0423 34.6734 60.1174C34.4632 60.1775 34.193 60.1324 34.0578 60.0273C33.8176 59.8622 33.8176 59.8171 34.0578 59.3217C34.4182 58.601 35.304 58.1806 36.0397 58.3608C36.37 58.4509 36.5952 58.601 36.6252 58.7662C36.6553 58.9463 35.9346 60.1775 34.8085 61.859C32.8267 64.8318 32.4514 65.4774 32.4514 65.8377C32.4514 66.2281 33.0669 66.6635 33.7876 66.7686C34.7335 66.9187 35.7844 66.6635 37.3909 65.9128L38.7572 65.2822L39.0575 65.6576C39.9133 66.7536 42.1954 67.0539 44.0421 66.3182L45.048 65.9128L45.5135 66.2581C45.9038 66.5434 46.1741 66.6034 47.0749 66.6034C48.0358 66.6034 48.261 66.5434 48.9367 66.123L49.6874 65.6576L49.9726 65.9578C50.8885 66.9938 53.0205 66.8887 55.1524 65.7326L56.0082 65.2672L56.3385 65.6876C56.879 66.3782 57.7198 66.6785 59.1461 66.6785C60.1521 66.6785 60.6025 66.6034 61.3532 66.2881L62.3141 65.9128L62.7795 66.2431C63.0798 66.4833 63.5152 66.6034 64.1158 66.6485C64.8815 66.7085 65.1517 66.6485 65.9625 66.2731C67.0885 65.7326 67.5239 65.3272 69.8811 62.5647C72.0131 60.0423 73.004 58.9764 73.0941 59.0814C73.1992 59.1865 72.944 59.5919 71.7579 61.3035C69.5058 64.5465 68.1845 66.4983 68.1845 66.5884C68.1845 66.6335 68.9202 66.6785 69.806 66.6785H71.4426L73.1992 64.1862C74.1751 62.8199 75.121 61.6488 75.2861 61.5738C75.4663 61.5137 75.8416 61.3636 76.0969 61.2735C76.9377 60.9582 77.8385 59.8922 77.0578 60.1474C76.6524 60.2675 76.2921 60.0874 76.2921 59.7571C76.2921 59.5919 76.5173 59.2316 76.7875 58.9313C77.3881 58.2707 78.4541 58.0605 78.8895 58.4959C79.0246 58.631 79.1447 58.7962 79.1447 58.8713C79.1447 58.9463 78.4841 59.9673 77.6884 61.1534C75.8416 63.8709 75.091 65.1621 75.091 65.5975C75.091 66.138 75.3762 66.5284 75.9317 66.7686C77.0127 67.219 79.5501 66.3032 81.1266 64.9069C81.5319 64.5315 81.8322 64.2162 81.8022 64.1712C81.7571 64.1411 81.2166 64.2913 80.571 64.5015C79.5501 64.8468 79.3699 64.8768 79.1898 64.6816C78.9045 64.3964 79.0246 64.1562 80.9013 61.2885C83.0934 57.9404 83.2585 57.4599 82.5078 56.7543C82.1625 56.439 81.9673 56.394 80.7512 56.3489C79.7152 56.3189 79.0997 56.3789 78.334 56.6041C77.298 56.8894 77.283 56.8894 76.9227 56.6041C75.3912 55.403 73.019 56.7843 69.3556 61.0483C67.6741 63.0151 66.1577 64.5766 65.9475 64.5766C65.8574 64.5766 65.7823 64.5015 65.7823 64.4114C65.7823 64.3063 66.9684 62.4596 68.4097 60.2826L71.0222 56.3189H69.3256C68.1245 56.3189 67.584 56.3789 67.554 56.499C67.5089 56.6342 67.3738 56.6342 67.0135 56.484C66.3829 56.2138 64.3109 56.3339 63.305 56.6942C60.4073 57.7152 57.96 59.8021 56.5487 62.4896C55.9932 63.5556 55.3776 64.1562 54.5369 64.4414C54.1765 64.5615 54.0114 64.5615 53.8462 64.4264C53.561 64.1862 53.5009 64.2763 56.3235 60.1474C57.6147 58.2407 58.7258 56.6041 58.7858 56.499C58.8759 56.3639 58.5306 56.3189 57.3144 56.3189H55.738L53.9363 58.9764C51.8644 62.0542 50.7083 63.4955 49.8375 64.1261C49.1619 64.6216 48.8466 64.6816 48.7265 64.3513C48.6514 64.1862 51.9845 59.1415 56.6088 52.4153C56.804 52.115 56.7739 52.115 55.1074 52.13H53.3958L52.0746 54.0368ZM48.9066 58.1806C49.0267 58.4809 48.5463 59.4268 48.0959 59.7721C47.8256 59.9973 47.4953 60.0724 46.8497 60.0724C46.2342 60.0724 45.9639 60.1324 45.9639 60.2675C45.9639 60.4928 46.3693 61.1233 46.6996 61.3936C46.9098 61.5587 46.8948 61.6188 46.6545 62.0692C45.4684 64.1111 43.2764 65.3423 42.4356 64.4264C42.1804 64.1411 42.1804 64.0961 42.4356 63.4355C42.841 62.3845 44.0571 60.6429 45.048 59.727C46.5194 58.3758 48.6514 57.52 48.9066 58.1806ZM66.1877 58.2106C66.3078 58.5409 65.8123 59.4268 65.3019 59.8021C64.9866 60.0273 64.6412 60.1024 64.0407 60.0874C63.26 60.0874 63.2149 60.1024 63.32 60.4177C63.3651 60.5979 63.5903 60.9282 63.8005 61.1684L64.1908 61.5888L63.9056 62.1143C63.4852 62.895 62.1339 64.2462 61.5183 64.5015C60.5424 64.9069 59.4614 64.6816 59.4765 64.0811C59.4915 63.3304 61.2781 60.6579 62.4642 59.6069C63.9356 58.2857 65.9324 57.55 66.1877 58.2106Z" fill="#CD1628"/>
<path d="M58.3504 52.7915C57.3745 53.1368 56.804 54.0377 57.1944 54.6082C57.7048 55.3889 59.6717 55.2238 60.2872 54.3529C61.083 53.2119 59.8669 52.236 58.3504 52.7915Z" fill="#CD1628"/>
<path d="M81.6968 65.7779C81.0812 66.3935 81.5016 67.2793 82.3874 67.2793C82.9579 67.2793 83.1982 67.0391 83.1982 66.4535C83.1982 65.5827 82.2973 65.1773 81.6968 65.7779ZM82.7628 65.7779C83.1081 65.9731 83.1531 66.7088 82.8378 66.964C82.1472 67.5345 81.1713 66.5887 81.7718 65.928C82.0721 65.5977 82.3274 65.5527 82.7628 65.7779Z" fill="#CD1628"/>
<path d="M82.0123 66.4835C82.0273 66.7988 82.0574 66.934 82.1024 66.7838C82.1775 66.4685 82.4477 66.4385 82.4477 66.7538C82.4477 66.8739 82.4928 66.979 82.5678 66.979C82.6279 66.979 82.6729 66.7538 82.6729 66.4835C82.6729 66.0932 82.6129 65.9881 82.3426 65.9581C82.0273 65.913 81.9973 65.9731 82.0123 66.4835ZM82.4477 66.2283C82.4477 66.3034 82.3877 66.3784 82.2976 66.3784C82.2225 66.3784 82.1475 66.3034 82.1475 66.2283C82.1475 66.1382 82.2225 66.0782 82.2976 66.0782C82.3877 66.0782 82.4477 66.1382 82.4477 66.2283Z" fill="#CD1628"/>
<path d="M17.0316 70.5678C15.8004 71.1383 15.38 72.6397 16.1908 73.6006C17.2718 74.8768 19.4038 74.7116 20.1545 73.2853C20.5298 72.5946 20.5148 72.0842 20.1094 71.4836C19.3587 70.3876 18.1726 70.0273 17.0316 70.5678ZM19.0885 71.7839C19.3738 72.3094 19.2687 72.94 18.8483 73.2703C18.3978 73.6306 18.0675 73.6606 17.5421 73.4204C17.1817 73.2552 16.8364 72.7147 16.8364 72.3244C16.8364 71.9941 17.4219 71.3635 17.7823 71.3034C18.2627 71.2284 18.9233 71.4686 19.0885 71.7839Z" fill="#62340F"/>
<path d="M33.0069 70.4919C31.9409 70.8823 31.4755 71.5879 31.5956 72.6389C31.8208 74.6358 34.7035 75.1763 35.8746 73.4346C36.4902 72.5338 36.1448 71.1675 35.1689 70.6571C34.5083 70.3268 33.6525 70.2517 33.0069 70.4919ZM34.7786 71.633C35.1539 72.0534 35.0188 72.9542 34.5233 73.3296C33.6525 73.9752 32.3613 73.0443 32.7367 72.0384C33.052 71.2126 34.193 70.9874 34.7786 71.633Z" fill="#62340F"/>
<path d="M48.8616 70.4177C47.3752 70.793 46.7146 72.1293 47.3752 73.4205C47.8557 74.3213 49.4021 74.7417 50.5432 74.2763C50.9936 74.0811 51.0686 73.976 51.0686 73.5706C51.0686 73.1802 51.0236 73.1202 50.8134 73.2103C49.7024 73.6607 49.1469 73.6307 48.5613 73.0902C48.1259 72.6998 48.1259 72.2344 48.5463 71.7089C48.8466 71.3335 48.9216 71.3035 49.7024 71.3786C50.1678 71.4086 50.6633 71.4987 50.8134 71.5587C51.0236 71.6488 51.0686 71.5888 51.0686 71.1984C51.0686 70.9131 50.9635 70.6879 50.8134 70.6129C50.393 70.3876 49.3871 70.2976 48.8616 70.4177Z" fill="#62340F"/>
<path d="M63.8004 70.4626C63.1098 70.6427 62.3741 71.4385 62.239 72.1441C61.9537 73.7506 63.9806 74.9968 65.7072 74.2761C66.1576 74.0809 66.2327 73.9758 66.2327 73.5705C66.2327 73.1801 66.1876 73.12 65.9774 73.2101C65.1817 73.5404 64.6862 73.6005 64.1908 73.4353C62.8545 72.9849 63.2449 71.3334 64.6862 71.3334C65.0316 71.3334 65.482 71.3934 65.6922 71.4835C66.0675 71.6186 66.0825 71.6036 66.0825 71.1082C66.0825 70.6427 66.0375 70.5827 65.527 70.4476C64.8514 70.2524 64.5511 70.2674 63.8004 70.4626Z" fill="#62340F"/>
<path d="M7.52783 72.4594V74.4863H8.05332H8.57881V73.3603C8.57881 72.7447 8.62385 72.2342 8.66889 72.2342C8.71393 72.2342 8.92413 72.4294 9.13432 72.6847C9.32951 72.9249 9.59976 73.1351 9.71987 73.1351C9.82497 73.1351 10.0652 72.9249 10.2604 72.6847C10.4405 72.4294 10.6357 72.2342 10.7108 72.2342C10.7708 72.2342 10.8309 72.7447 10.8309 73.3603V74.4863H11.3564H11.8819V72.4594V70.4326H11.3714C10.951 70.4326 10.7708 70.5527 10.2904 71.1382L9.71987 71.8289L9.1043 71.1382C8.60884 70.5677 8.38363 70.4326 8.00828 70.4326H7.52783V72.4594Z" fill="#62340F"/>
<path d="M24.0439 70.8079C24.0439 71.1532 24.104 71.1833 24.7196 71.1833H25.3952V72.8348V74.4863H25.9207H26.4312L26.4762 72.8648L26.5212 71.2583L27.2419 71.2133C27.8725 71.1682 27.9476 71.1382 27.9476 70.7929V70.4326H25.9958H24.0439V70.8079Z" fill="#62340F"/>
<path d="M40.1089 72.4594V74.4863H40.6344H41.1599V73.6455C41.1599 72.9399 41.2049 72.8198 41.4301 72.8648C41.5652 72.8949 41.8805 73.2702 42.1057 73.7056C42.4961 74.4113 42.5712 74.4863 43.0516 74.4863C43.3669 74.4863 43.5621 74.4113 43.5621 74.2911C43.5471 74.0059 43.0066 72.8798 42.8264 72.7747C42.7063 72.6997 42.7513 72.5495 42.9615 72.2793C43.3669 71.7688 43.3369 71.2433 42.8865 70.8079C42.5562 70.4776 42.406 70.4326 41.31 70.4326H40.1089V72.4594ZM42.0307 71.5886C42.0757 71.8889 42.0157 71.934 41.6253 71.934C41.2199 71.934 41.1599 71.8739 41.1599 71.5436C41.1599 71.2133 41.2199 71.1682 41.5803 71.2133C41.8655 71.2433 42.0006 71.3484 42.0307 71.5886Z" fill="#62340F"/>
<path d="M54.6719 70.5377C54.6719 70.6127 55.0172 71.0932 55.4226 71.6187C56.1432 72.5495 56.1733 72.6246 56.1733 73.5404V74.4863H56.6988H57.2242V73.5254C57.2242 72.6246 57.2543 72.5345 57.9749 71.5886C58.3953 71.0481 58.7256 70.5527 58.7256 70.5076C58.7256 70.4626 58.4254 70.4326 58.05 70.4326C57.6747 70.4326 57.3744 70.4776 57.3744 70.5377C57.3744 70.6127 57.2092 70.853 57.0141 71.0932L56.6687 71.5436L56.3084 70.9881C55.9931 70.4926 55.873 70.4326 55.3175 70.4326C54.9571 70.4326 54.6719 70.4776 54.6719 70.5377Z" fill="#62340F"/>
<path d="M70.1362 72.4594V74.4863H71.7127H73.2892V74.0359V73.5855H72.2382H71.1872V72.009V70.4326H70.6617H70.1362V72.4594Z" fill="#62340F"/>
<path d="M77.043 72.4594V74.4863H78.5444H80.0458V74.0359V73.5855H79.0699C78.139 73.5855 78.0939 73.5705 78.0939 73.2101C78.0939 72.8798 78.154 72.8498 78.9648 72.8048C79.7755 72.7597 79.8205 72.7447 79.8656 72.3393C79.9106 71.934 79.9106 71.934 79.0098 71.934C78.139 71.934 78.0939 71.9189 78.0939 71.5586C78.0939 71.1983 78.124 71.1833 79.0699 71.1833C80.0157 71.1833 80.0458 71.1682 80.0458 70.8079V70.4326H78.5444H77.043V72.4594Z" fill="#62340F"/>
</svg>
