<svg width="90" height="90" viewBox="0 0 90 90" fill="none" xmlns="http://www.w3.org/2000/svg">
<rect width="90" height="90" rx="10" fill="white"/>
<g clip-path="url(#clip0_947_1791)" filter="url(#filter0_i_947_1791)">
<path d="M44.1172 41.9896C43.8814 42.3847 43.6549 42.8083 43.4746 43.1129C43.6392 43.139 43.8076 43.1113 43.9561 43.0336C44.1046 42.9559 44.2256 42.8321 44.3021 42.6798C44.3624 42.5613 44.3768 42.4238 44.3425 42.2948C44.3082 42.1659 44.2277 42.0551 44.1172 41.9849" fill="#940730"/>
<path d="M45.9338 48.829C45.8995 48.7939 45.8586 48.7664 45.8136 48.7481C45.7618 48.7287 45.707 48.7191 45.6518 48.7196C45.6022 48.7161 45.5524 48.7236 45.5058 48.7414C45.4591 48.7593 45.4167 48.7871 45.3813 48.8231C45.3459 48.8591 45.3183 48.9025 45.3004 48.9502C45.2825 48.998 45.2747 49.0492 45.2774 49.1003C45.275 49.1518 45.2828 49.2032 45.3003 49.2515C45.3178 49.2998 45.3446 49.3439 45.3791 49.3812C45.4153 49.4167 45.4582 49.4443 45.505 49.4623C45.5519 49.4803 45.6018 49.4883 45.6518 49.4859C45.724 49.4884 45.7956 49.4721 45.8598 49.4383C45.9141 49.407 45.9589 49.3609 45.9893 49.305C46.033 49.1919 46.033 49.0659 45.9893 48.9528C45.9743 48.9087 45.9507 48.8682 45.9199 48.8338" fill="#940730"/>
<path d="M48.4899 48.6435H48.3975V49.0005H48.4899C48.5643 49.006 48.6388 48.9929 48.7072 48.9624C48.7284 48.9471 48.7451 48.9262 48.7557 48.9019C48.7663 48.8776 48.7703 48.8508 48.7673 48.8244C48.7697 48.7968 48.7649 48.7691 48.7536 48.744C48.7422 48.7189 48.7246 48.6974 48.7026 48.6816C48.6349 48.6482 48.5601 48.6335 48.4853 48.6387" fill="#940730"/>
<path d="M40.322 48.8289C40.2877 48.7938 40.2468 48.7663 40.2019 48.748C40.15 48.7286 40.0952 48.7189 40.0401 48.7194C39.99 48.7153 39.9398 48.7222 39.8926 48.7397C39.8454 48.7573 39.8023 48.785 39.7664 48.8211C39.7305 48.8572 39.7025 48.9007 39.6843 48.9489C39.6662 48.997 39.6582 49.0486 39.661 49.1002C39.6575 49.1522 39.665 49.2043 39.6828 49.253C39.7007 49.3018 39.7286 49.346 39.7646 49.3826C39.8006 49.4192 39.8438 49.4473 39.8914 49.4651C39.9389 49.483 39.9896 49.49 40.0401 49.4857C40.1107 49.4879 40.1807 49.4715 40.2435 49.4381C40.2983 49.4077 40.3433 49.3614 40.3729 49.3049C40.4035 49.243 40.4193 49.1744 40.4191 49.105C40.4195 49.0532 40.4117 49.0018 40.396 48.9527C40.3803 48.9078 40.355 48.8671 40.322 48.8337" fill="#940730"/>
<path d="M84.9538 44.1457C84.7782 43.6412 84.4268 43.389 84.2974 43.0891C84.1746 42.7852 84.0952 42.4645 84.0616 42.1372C84.0616 41.9849 83.9553 41.8706 83.6363 41.923C83.3174 41.9753 82.9568 42.1515 82.869 41.8897C82.8228 41.7707 83.0909 41.5565 83.2665 41.4137C83.4422 41.2709 83.7288 41.1853 83.7288 40.9378C83.7288 40.6903 83.4514 40.3666 83.2665 40.0429C83.0953 39.8159 82.9796 39.5498 82.9291 39.2671C82.9509 39.2073 82.9848 39.153 83.0287 39.1079C83.0725 39.0627 83.1253 39.0278 83.1833 39.0053C83.2483 38.9864 83.3171 38.9864 83.3821 39.0053L83.3128 39.1814C83.4526 39.196 83.5936 39.196 83.7334 39.1814C83.886 39.1814 84.1356 39.1053 84.1495 38.8768C84.1633 38.6484 83.983 38.3295 83.6086 37.7488C83.135 37.0477 82.5687 36.4181 81.9259 35.8783C81.5164 35.5859 81.0904 35.3189 80.6501 35.0786C80.3959 34.8835 80.2803 34.8169 80.3173 34.6883C80.4073 34.5087 80.4846 34.3226 80.5484 34.1315C80.5819 33.9033 80.5307 33.6705 80.4051 33.4794C80.1193 33.2465 79.7994 33.0618 79.4574 32.932C79.258 32.8451 79.0636 32.7465 78.875 32.6369C78.7733 32.5798 78.7594 32.5417 78.8241 32.3752C78.9051 32.2065 78.92 32.0122 78.8657 31.8326C78.4412 31.5526 77.9716 31.3527 77.4789 31.2424C76.7393 31.0044 75.482 30.6855 74.8856 30.4951C74.2893 30.3047 73.7762 30.1762 73.6375 30.2952C73.4988 30.4142 73.5404 30.7045 73.4387 30.7712C73.3819 30.8208 73.3098 30.848 73.2353 30.848C73.1608 30.848 73.0887 30.8208 73.0319 30.7712C72.3093 30.3908 71.5266 30.1458 70.7206 30.0477C69.2693 29.8946 67.8038 29.9716 66.3753 30.2762C64.6187 30.5998 60.9899 31.428 58.7571 32.1086C49.9324 34.7835 39.6423 39.1148 30.8315 43.5651C27.0101 45.4911 23.2257 47.4886 19.4782 49.5575C17.5984 50.6395 15.737 51.7501 13.8941 52.8892C12.7985 53.5603 11.6937 54.2076 10.6582 54.9311C10.1173 55.2595 9.60884 55.6355 9.08648 55.9782C8.27289 56.5018 7.5009 57.092 6.70118 57.625C6.28976 57.9106 5.90145 58.2295 5.47154 58.4961C5.29667 58.5976 5.14025 58.7297 5.00928 58.8863C6.45155 58.972 7.84297 58.496 9.20666 58.0915C10.3207 57.7345 11.4209 57.368 12.4934 56.9111C13.686 56.4351 14.8925 55.9592 16.0667 55.3832C18.2995 54.3028 20.5137 53.1986 22.7418 52.1086C25.2196 50.8901 27.0687 51.0329 25.8067 51.7707C24.8822 52.2752 23.99 52.8368 23.0331 53.3176C21.9267 53.8919 20.8358 54.5043 19.7602 55.1548C18.7386 55.7402 17.6893 56.2971 16.6723 56.9016C15.549 57.5774 14.4395 58.2819 13.3301 58.9815C13.2436 59.0326 13.1755 59.1111 13.1359 59.2052C13.8475 59.3068 14.5693 59.3068 15.2809 59.2052C18.5398 58.7578 21.5122 57.5727 24.5493 56.3495C25.1836 56.0704 25.801 55.7525 26.3984 55.3975C27.3876 54.8359 28.4139 54.3695 29.4078 53.8031C30.7483 53.1129 32.0196 52.2705 33.4249 51.7041C34.8302 51.1377 34.7377 51.9849 33.5358 52.656C32.8147 53.0177 32.1259 53.4223 31.4186 53.8031C30.8023 54.1204 30.1982 54.4646 29.6065 54.8359C28.4324 55.5022 27.2952 56.2305 26.1765 57.0063C25.7142 57.3918 25.1965 57.7298 24.7296 58.1248C24.2049 58.5153 23.7378 58.9818 23.3428 59.5099C24.7024 59.534 26.0552 59.3067 27.3368 58.8387C29.7779 58.0653 32.149 57.0747 34.4234 55.8783C36.0274 55.031 37.5899 54.0886 39.1339 53.1319C40.1786 52.4942 41.2464 51.8944 42.3143 51.3138C43.0678 50.8997 43.5578 51.5755 42.8736 52.1134C41.3389 53.3271 39.7857 54.4932 38.2509 55.7212C37.6546 56.1972 37.0721 56.6731 36.4573 57.0777C35.6391 57.6108 34.8255 58.1438 33.975 58.6246C33.6511 58.794 33.3418 58.9914 33.0504 59.2148C33.4475 59.3551 33.8742 59.3814 34.2847 59.2909C35.2542 59.1245 36.2041 58.8533 37.1184 58.4818C38.8037 57.8676 40.4496 57.1443 42.0461 56.3161C42.6009 55.983 43.1741 55.6688 43.7242 55.3214C44.6487 54.7978 45.5455 54.1981 46.4423 53.6222C48.3792 52.3847 47.6257 52.7512 49.5626 51.528C51.726 50.1572 51.5689 51.2471 51.0465 51.6469C48.0741 54.1505 45.7212 56.0924 42.7257 58.5437C42.2274 58.8971 41.782 59.3236 41.4036 59.8097C41.4116 59.8424 41.4224 59.8742 41.4359 59.9049C42.3605 59.9906 43.1972 59.5955 44.02 59.2814C45.7953 58.6563 47.5242 57.8991 49.1928 57.0158C52.0126 55.4309 54.4118 53.4651 56.8387 51.3947C58.0036 50.3999 58.4382 51.0091 56.7555 52.537C55.7293 53.4556 54.9527 54.041 53.9819 55.031C53.3162 55.7212 52.6875 56.4589 52.0265 57.1634C51.6243 57.6393 51.1805 58.0772 50.8107 58.5913C50.573 58.8946 50.3842 59.2353 50.2514 59.6003C50.6441 59.5882 51.0325 59.5127 51.4024 59.3766C52.215 59.0979 53.0088 58.7639 53.7785 58.3771C55.8434 57.2739 57.7429 55.8696 59.4182 54.2076C60.4906 53.151 62.1918 51.3518 62.3674 51.1234C62.5431 50.8949 63.1024 50.814 62.7326 51.3756C62.0386 52.4471 61.2659 53.4623 60.4213 54.4123C59.4274 55.488 58.3919 56.3923 57.4674 57.3775C56.9247 57.9385 56.3505 58.4661 55.7478 58.9577C55.677 59.0198 55.6134 59.0901 55.5582 59.1672C55.9056 59.1583 56.2491 59.0907 56.5752 58.9673C59.2887 58.0153 61.2811 56.735 63.634 55.0406C63.9206 54.8359 64.198 54.7359 64.3644 54.8787C64.5308 55.0215 64.48 55.2214 64.2072 55.5498C63.6692 56.0963 63.1789 56.6904 62.7419 57.3252C62.5156 57.6623 62.3337 58.0288 62.201 58.4151C62.201 58.4151 64.7204 58.1914 66.2274 58.239C67.7403 58.351 69.2453 58.556 70.7345 58.853C71.8531 59.0339 72.81 59.2243 73.6652 59.329C74.5204 59.4337 75.3386 59.567 75.6622 59.6241C75.8647 59.6802 76.08 59.6582 76.2678 59.5622C76.5099 59.7261 76.7772 59.8468 77.0583 59.9192C77.4996 59.9791 77.9445 60.0062 78.3896 60.0001C78.7825 60.0001 78.8935 60.0334 79.0229 59.9382C79.1524 59.843 79.1893 59.7669 79.0691 59.605C78.949 59.4432 78.6485 59.3528 78.5144 59.0053C78.4699 58.8625 78.4795 58.7075 78.5412 58.5716C78.6029 58.4357 78.7122 58.3288 78.8473 58.2723C79.0159 58.1933 79.2069 58.1815 79.3835 58.239C79.5094 58.2766 79.623 58.349 79.7117 58.4485C79.8252 57.9159 79.861 57.3689 79.818 56.8254C79.7425 55.7889 79.4254 54.7864 78.8935 53.903C78.385 53.013 78.1123 53.0272 78.0753 52.4989C78.0629 51.9028 78.2806 51.3259 78.6808 50.8949C79.1792 50.4645 79.6151 49.9628 79.9752 49.4051C80.3945 48.7602 80.7287 48.0608 80.9691 47.3252C81.2279 46.6588 81.5885 46.3304 82.4622 45.9449C83.3359 45.5594 83.9414 45.5546 84.3113 45.3404C84.5323 45.2468 84.7146 45.0767 84.8269 44.8595C84.9391 44.6423 84.9742 44.3915 84.9261 44.1505M80.2942 36.5874C80.4143 36.8492 80.6547 36.9349 80.664 36.9872C80.6393 37.1327 80.6038 37.2759 80.5576 37.4156L80.4791 37.3871C80.4236 37.3871 80.382 37.4156 80.308 37.4156C80.1717 37.3619 80.0509 37.2734 79.9567 37.1586C79.8104 37.0072 79.6715 36.8483 79.5407 36.6826C79.4661 36.5922 79.3743 36.5185 79.2709 36.4661C79.1675 36.4137 79.0548 36.3837 78.9397 36.378C78.7132 36.378 78.8611 36.1162 78.9397 36.0115C79.0183 35.9068 79.2494 35.4737 79.2494 35.4737C79.3294 35.4668 79.4098 35.4668 79.4898 35.4737C79.6429 35.4972 79.7834 35.5746 79.8874 35.6926C80.0548 35.9818 80.1927 36.288 80.2988 36.6065M78.7502 34.7645C78.9189 34.7424 79.0858 34.7074 79.2494 34.6598C79.3102 34.6335 79.3629 34.5907 79.402 34.536H79.7209C79.7495 34.647 79.7479 34.7639 79.716 34.8739C79.6842 34.9839 79.6235 35.0828 79.5407 35.1595C79.2077 35.384 78.8529 35.5723 78.4821 35.7212C78.3068 35.8037 78.1495 35.9219 78.0198 36.0686C77.9135 36.1924 77.784 36.4637 77.7517 36.1829C77.7189 36.004 77.7209 35.8203 77.7574 35.6422C77.7939 35.4641 77.8642 35.2952 77.9643 35.1453C78.1934 34.9455 78.4719 34.8153 78.7687 34.7693M74.3494 31.3185L74.562 31.0139C74.562 31.0139 75.0012 31.1139 75.8656 31.3614C76.7301 31.6089 77.8672 32.0372 77.8672 32.0372L77.613 32.3038C77.5252 32.4085 77.3541 32.6274 77.3541 32.6274C77.3541 32.6274 76.5821 32.3323 76.1615 32.1848C75.7408 32.0372 74.4326 31.7088 74.2338 31.6565C74.0351 31.6041 74.2338 31.4137 74.3263 31.2852M73.9056 32.1515L77.0537 33.1034L76.6191 33.7459C75.5975 33.4032 74.5713 33.1034 73.5451 32.7559L73.9056 32.1515ZM75.898 38.5294C75.972 38.6817 76.0737 39.1196 76.2401 40.7569C76.3852 41.8771 76.3241 43.0155 76.0598 44.1124C75.9119 44.5027 75.69 44.4266 75.5975 44.417C75.5051 44.4075 75.4866 44.2124 75.4357 43.884C75.3849 43.5555 75.4958 42.8559 75.4912 42.2467C75.4951 41.6852 75.4503 41.1245 75.3571 40.5713C75.2832 40.0953 75.052 39.2195 74.9966 39.0196C74.9411 38.8197 74.8486 38.9863 74.7146 39.1719C74.6545 39.2528 74.4742 39.4527 74.3078 39.7098C74.1414 39.9668 73.9241 40.3428 73.693 40.6617C73.4186 41.0923 73.0414 41.4431 72.5974 41.6803C72.3848 41.7041 72.4448 41.4899 72.5096 41.3804C72.5743 41.2709 72.8378 40.8759 73.4572 39.9525C73.8039 39.4242 74.71 38.0011 75.5004 36.8159C76.1106 35.9021 76.6561 35.1262 76.7254 35.0691C76.8965 34.9358 77.0074 35.0215 77.0213 35.2262C77.0388 35.5141 76.9864 35.802 76.8688 36.0639C76.6199 36.5242 76.3451 36.9692 76.0459 37.3966C75.9234 37.5581 75.8437 37.7496 75.8145 37.9523C75.7854 38.155 75.8078 38.362 75.8795 38.5532M73.7161 50.7474C73.2954 50.5094 72.9487 50.3999 72.7916 50.6712C72.6344 50.9425 72.7916 51.2471 72.7916 51.5851C72.7916 51.923 72.4217 52.1419 72.3293 52.2942C72.2368 52.4466 72.4587 52.5513 72.468 52.894C72.4629 53.0034 72.4316 53.1098 72.3767 53.2037C72.3218 53.2976 72.2452 53.376 72.1536 53.4318C72.0612 53.2106 71.9547 52.9959 71.8347 52.7893C71.6914 52.5655 71.5619 52.6845 71.3447 52.7559C71.1428 52.7948 70.9436 52.8473 70.7483 52.913C70.6031 53.0049 70.4748 53.1225 70.3693 53.2605C70.3693 53.2605 70.1335 52.9463 70.5357 52.4608C70.9379 51.9754 71.4602 52.042 71.8162 51.8564C72.2784 51.6136 72.1305 51.1805 72.1952 50.6807C72.2309 50.4695 72.3132 50.2695 72.4358 50.0962C72.5584 49.9228 72.7181 49.7809 72.9025 49.6812C73.1254 49.5245 73.3143 49.3219 73.4572 49.0863C73.4572 49.0863 73.5358 49.2243 73.5959 49.3575C73.656 49.4908 73.5959 49.8335 73.6606 49.962C74.0421 50.2533 74.4733 50.468 74.9319 50.5951C75.636 50.904 76.3081 51.2851 76.9381 51.7326C77.4558 52.0801 77.4466 52.3894 77.4466 52.3894C77.2622 52.4021 77.077 52.3876 76.8965 52.3466C76.3981 52.2351 75.9173 52.0525 75.4681 51.804C74.8255 51.4756 74.1737 51.0377 73.693 50.7616M75.3063 54.1791C75.2696 54.3736 75.2495 54.5711 75.2462 54.7693C75.2462 54.8835 75.2462 55.012 75.1907 55.0025C75.079 54.8534 74.9959 54.6838 74.9457 54.5027C74.8641 54.297 74.8202 54.0776 74.8163 53.8554C74.8163 53.6412 74.7839 53.051 74.7701 52.8083C74.7576 52.6336 74.725 52.461 74.673 52.2942C74.636 52.1657 74.7238 52.1467 74.7238 52.1467C74.7238 52.1467 75.0613 52.1467 75.3155 52.7845C75.4469 53.2395 75.4469 53.724 75.3155 54.1791M74.2662 53.9458C74.2015 54.2838 74.1044 54.8407 74.1044 54.8407C73.9831 54.5921 73.8945 54.328 73.8409 54.0553C73.7512 53.6461 73.7355 53.2233 73.7947 52.8083C73.8407 52.6302 73.8978 52.4553 73.9657 52.2847C73.9657 52.2847 74.2107 52.2847 74.3217 52.6417C74.3863 53.0776 74.3674 53.5222 74.2662 53.9506M73.4757 52.9987C73.3509 53.3033 73.166 53.7745 73.166 53.7745C73.166 53.7745 73.1059 53.5746 73.0782 53.427C72.9549 53.0702 72.9216 52.687 72.9811 52.3133C73.0499 52.0117 73.1842 51.7302 73.374 51.4899C73.5145 51.6232 73.599 51.8075 73.6098 52.0039C73.6462 52.3422 73.5984 52.6845 73.4711 52.9987M72.0982 54.1981C72.0381 54.3504 72.0612 54.4266 71.6729 54.5694C71.2846 54.7121 70.7992 54.874 70.7992 54.874C70.8265 54.7722 70.8481 54.6689 70.8639 54.5646C70.8639 54.4613 70.8944 54.3605 70.9514 54.2755C71.0084 54.1905 71.0891 54.1253 71.1829 54.0886C71.3993 53.9909 71.5979 53.8557 71.7699 53.6888C71.9086 53.5555 72.0149 53.4175 72.0612 53.5032C72.1277 53.7334 72.1388 53.9768 72.0935 54.2124M71.169 50.2095C71.3886 50.2609 71.595 50.3599 71.7746 50.4999C71.8733 50.6019 71.9559 50.7191 72.0196 50.8473C71.949 50.871 71.8761 50.887 71.8023 50.8949C71.5816 50.9055 71.3604 50.896 71.1413 50.8664C70.8087 50.8473 70.4753 50.8473 70.1428 50.8664C70.1503 50.7736 70.1764 50.6834 70.2193 50.6015C70.2623 50.5196 70.3212 50.4478 70.3924 50.3904C70.495 50.2941 70.6194 50.2258 70.7543 50.1918C70.8891 50.1577 71.0301 50.1589 71.1644 50.1952M70.1289 48.1296C69.944 47.1538 70.1797 46.7017 70.3369 46.7017C70.4941 46.7017 70.5403 46.854 70.6282 47.0682C70.6933 47.3807 70.7166 47.701 70.6975 48.0201C70.7206 48.496 70.7714 48.8102 70.7853 48.9958C70.7992 49.1814 70.7853 49.5575 70.7853 49.5575C70.4393 49.157 70.2158 48.6603 70.1428 48.1296M68.1643 45.4404L68.3677 44.7455L69.6204 45.0834L69.3199 45.7973L68.1643 45.4404ZM69.1165 46.3637L68.8623 46.9063L67.9377 46.6112L68.0811 46.0448L69.1165 46.3637ZM68.5294 44.141L68.756 43.4794L70.2398 43.884L69.9024 44.5646L68.5294 44.141ZM68.5294 41.2852C68.2937 41.2852 68.0672 40.8664 67.6835 40.8902C67.3036 40.9372 66.9421 41.0848 66.6342 41.3185C66.2691 41.5518 65.8779 41.7388 65.4692 41.8754C65.2227 41.9328 64.9802 42.0076 64.7435 42.0991C64.4652 42.2245 64.1643 42.2878 63.8605 42.2847C63.6525 42.2419 63.5092 42.2038 63.6756 42.0182C63.9342 41.7672 64.2309 41.5614 64.5539 41.409C65.0731 41.0773 65.6327 40.818 66.2181 40.6379C66.8166 40.4598 67.3995 40.2306 67.9609 39.9525C68.2609 39.8022 68.5512 39.6321 68.8299 39.4432C68.8711 39.4097 68.9195 39.387 68.971 39.3771C69.0225 39.3671 69.0757 39.3702 69.1258 39.3861C69.1976 39.4205 69.2632 39.4672 69.3199 39.5241C69.2353 39.858 69.1287 40.1856 69.001 40.5046C68.7976 41.0187 68.7467 41.2852 68.5063 41.29M68.8808 42.8178L69.0934 42.2276L70.8593 42.7036L70.5311 43.2509L68.8808 42.8178ZM69.3107 41.5851L69.6343 40.8997L71.6359 41.4518L71.2383 42.1134L69.3107 41.5851ZM74.918 36.5874L74.4973 37.2538L71.5249 36.4351L71.8347 35.7878L74.918 36.5874ZM72.1444 35.2262L72.4818 34.636L75.5744 35.5308L75.1537 36.1686L72.1444 35.2262ZM74.1368 37.8297L73.6745 38.5579L70.9009 37.7869L71.1875 37.0253L74.1368 37.8297ZM73.2122 39.1291L72.8332 39.7098L70.3554 39.0529L70.6282 38.4151L73.2122 39.1291ZM72.4079 40.3523L72.0658 40.8711L69.8423 40.3238L70.0965 39.7193L72.4079 40.3523ZM73.1891 33.4699L76.425 34.3742L76.0043 34.9739L72.8285 34.022L73.1891 33.4699ZM70.3647 32.7131C70.7866 32.7121 71.2054 32.6381 71.6035 32.4941C71.8887 32.3891 72.151 32.2274 72.3755 32.0182C72.4289 31.9661 72.4861 31.9184 72.5466 31.8754C72.5963 31.9283 72.6335 31.9924 72.6552 32.0626C72.6768 32.1328 72.6824 32.2072 72.6714 32.28C72.533 32.6094 72.3708 32.9276 72.186 33.2319C72.0473 33.4556 71.9641 33.5508 71.8901 33.5746C71.8162 33.5984 71.6821 33.5746 71.5203 33.427C71.3153 33.2929 71.0948 33.1858 70.8639 33.1081L70.2676 32.8654L70.3647 32.7131ZM69.4401 35.1262C69.4401 35.1262 69.9486 34.9168 70.508 34.6503C70.7342 34.529 70.9466 34.3821 71.1413 34.2124C71.2261 34.2413 71.3094 34.2746 71.3909 34.3123C71.4556 34.3504 71.6035 34.4408 71.5712 34.5313C71.5388 34.6217 71.1089 35.6736 71.0488 35.7355C71.0223 35.7989 70.9747 35.8505 70.9145 35.881C70.8544 35.9115 70.7856 35.919 70.7206 35.9021C70.5264 35.8354 70.4895 35.5546 70.2352 35.4261C69.9523 35.3461 69.6562 35.3283 69.3661 35.3737L69.4401 35.1262ZM70.1428 36.9492L70.4155 37.0348L69.625 38.7436C69.499 38.7617 69.3707 38.7487 69.2506 38.7055C69.0072 38.5552 68.7248 38.4854 68.4416 38.5056C67.5484 38.5856 66.669 38.7839 65.8252 39.0958C64.6834 39.4765 62.8112 40.0477 61.9283 40.3142C61.0453 40.5808 60.6894 40.0382 61.5353 39.6193C62.298 39.2315 63.0973 38.9253 63.9206 38.7055C64.6788 38.5103 65.7697 38.2819 66.5093 38.1438C67.3786 38.0073 68.2341 37.7907 69.0657 37.4965C69.44 37.3478 69.8005 37.1646 70.1428 36.9492ZM58.2995 39.072C57.3749 39.4623 56.4828 39.072 57.6384 38.4865C59.3212 37.5957 61.0847 36.8767 62.9036 36.3399C64.4486 35.821 66.0408 35.4653 67.6558 35.2785C67.8936 35.2276 68.1391 35.2276 68.3769 35.2785L68.5387 35.4689C68.4247 35.6621 68.2478 35.8072 68.0394 35.8783C67.6743 36.0163 67.3692 35.9496 66.3707 36.2305C64.8594 36.5832 63.371 37.0331 61.9144 37.5774C60.0376 38.3152 59.2148 38.6626 58.2948 39.0529M48.4763 39.3147C49.2159 38.972 57.1484 35.4546 57.5506 35.3166C58.5907 34.9549 60.7865 34.1077 62.0115 33.8173C63.5647 33.4508 66.0286 32.7797 67.1473 32.6322C68.6034 32.4323 68.9963 32.8178 68.9963 32.8178C68.9963 32.8178 68.8808 33.0225 68.3029 33.1224C67.7251 33.2224 66.7682 33.3176 65.7281 33.5556C64.688 33.7935 63.6664 34.0553 62.6633 34.3504C61.6602 34.6455 59.0807 35.4832 57.9481 35.8973C57.6246 36.0163 57.1346 36.2067 56.5613 36.4399C56.1638 36.597 48.7028 39.9335 48.2729 40.1191C47.0201 40.7141 46.655 40.1667 48.4902 39.3195M55.6229 42.3418C55.5027 42.8654 54.9018 42.8511 54.9018 42.8511C54.3101 42.8511 54.3332 42.4989 54.3332 42.4989C54.4026 41.9278 55.0775 41.8897 55.0775 41.8897C55.7616 41.8897 55.6229 42.3418 55.6229 42.3418ZM37.7933 49.843H37.3588V48.9625L36.9335 49.4861H36.8965L36.4712 48.9625V49.8288H36.0459V48.3342H36.4712L36.9335 48.8959L37.3957 48.3342H37.7887L37.7933 49.843ZM40.8119 49.4813C40.7488 49.6002 40.6521 49.6965 40.5345 49.7574C40.391 49.8311 40.2327 49.8695 40.0723 49.8695C39.9118 49.8695 39.7536 49.8311 39.61 49.7574C39.4929 49.6914 39.3967 49.5923 39.3326 49.4718C39.273 49.3559 39.2413 49.2269 39.2402 49.0958C39.24 48.9644 39.2718 48.8352 39.3326 48.7198C39.3969 48.5994 39.4931 48.5003 39.61 48.4342C39.7527 48.3586 39.912 48.3225 40.0723 48.3295C40.1935 48.3283 40.314 48.3492 40.4282 48.3913C40.5253 48.4267 40.6137 48.4835 40.6871 48.5579C40.7548 48.6262 40.8069 48.7091 40.8396 48.8007C40.8808 48.9097 40.8985 49.0266 40.8913 49.1433C40.8841 49.2601 40.8523 49.3738 40.798 49.4765M40.0214 47.1681C39.52 47.3728 38.9947 47.5088 38.4589 47.5727C38.1405 47.6004 37.8205 47.6004 37.5021 47.5727C37.1642 47.5632 36.8288 47.5105 36.5036 47.4156C36.0332 47.308 35.5973 47.0786 35.2369 46.7493C35.066 46.5814 34.9353 46.3749 34.8551 46.1461C34.7748 45.9173 34.7473 45.6724 34.7747 45.4308C34.8394 44.7788 35.6068 43.8697 37.2663 43.884C39.2957 43.884 39.4852 44.9882 39.0506 45.388C38.8873 45.5185 38.6994 45.6126 38.4989 45.6642C38.2983 45.7159 38.0895 45.7239 37.8857 45.6879C37.5138 45.6468 37.1657 45.4794 36.8965 45.2119C37.1052 45.2178 37.3137 45.1938 37.5159 45.1405C37.5957 45.1252 37.6702 45.0886 37.7318 45.0343C37.7935 44.98 37.8402 44.9099 37.8672 44.8311C37.8683 44.8169 37.8683 44.8026 37.8672 44.7883C37.8546 44.71 37.8191 44.6375 37.7654 44.5805C37.7117 44.5236 37.6424 44.4848 37.5668 44.4694C37.301 44.4136 37.0258 44.4284 36.7671 44.5122C36.5466 44.5637 36.3476 44.686 36.1989 44.8613C36.0502 45.0367 35.9594 45.2561 35.9396 45.488C35.9396 45.5213 35.9396 45.5498 35.9396 45.5784C35.9625 45.8202 36.0503 46.0507 36.1931 46.244C36.336 46.4373 36.5283 46.5859 36.7486 46.6731C36.9126 46.7482 37.0849 46.8026 37.2617 46.8349C37.7937 46.9104 38.3355 46.8549 38.8426 46.6731C39.5376 46.3942 40.1518 45.9371 40.627 45.3452C41.0811 44.8212 41.4495 44.2249 41.7179 43.5793V43.546C41.3256 43.3648 41.0148 43.0369 40.8483 42.6287C40.6819 42.2204 40.6721 41.7624 40.8211 41.3471V41.309C40.4609 41.3311 40.1066 41.4131 39.7718 41.5517C39.5049 41.6432 39.2734 41.82 39.1107 42.0563C39.0415 42.1604 39.0152 42.2886 39.0378 42.4127C39.0603 42.5367 39.1298 42.6465 39.2309 42.7179C39.6701 42.9987 40.5022 42.7179 40.5207 42.7179C40.4892 42.7885 40.4504 42.8555 40.4051 42.9178C40.3604 42.9761 40.3092 43.0288 40.2525 43.0748C40.1986 43.119 40.1414 43.1588 40.0815 43.1938C40.0219 43.2268 39.9601 43.2554 39.8966 43.2795L39.7024 43.3366L39.5175 43.3699H39.3419H38.9628C38.7426 43.3649 38.5294 43.2893 38.353 43.1537C38.1765 43.018 38.0455 42.8291 37.9782 42.6131C37.9271 42.4119 37.9335 42.1998 37.9967 42.0022C38.0598 41.8047 38.177 41.6301 38.3341 41.4994C38.8519 41.0234 39.818 40.7807 41.154 40.7426C41.3624 40.4999 41.6133 40.2997 41.8936 40.1524C42.1881 40.0011 42.4982 39.8846 42.8181 39.805C43.8868 39.6049 44.9803 39.5888 46.054 39.7574L45.6195 40.1096C45.1852 40.4806 44.7943 40.9022 44.4546 41.3661V41.3994L44.3991 41.4899L44.5331 41.5993C44.7125 41.7526 44.8407 41.96 44.8996 42.1923C44.9584 42.4245 44.9451 42.6699 44.8614 42.894C44.8061 43.0068 44.7378 43.1122 44.658 43.2081L44.6025 43.27C44.5277 43.3451 44.4456 43.4121 44.3575 43.4699C43.9998 43.6845 43.5927 43.7963 43.1787 43.7935C42.8996 44.3209 42.5909 44.831 42.2542 45.3214C41.6717 46.1126 40.9034 46.7382 40.0214 47.1396M43.6271 48.6864H43.1001V49.8145H42.6656V48.6864H42.134V48.3199H43.6271V48.6864ZM46.4007 49.4527C46.3367 49.5709 46.2402 49.667 46.1233 49.7288C45.9807 49.8044 45.8214 49.8405 45.6611 49.8335C45.5004 49.839 45.341 49.8013 45.1988 49.724C45.0816 49.6583 44.9853 49.5592 44.9214 49.4385C44.8627 49.3224 44.832 49.1934 44.832 49.0624C44.832 48.9315 44.8627 48.8026 44.9214 48.6864C44.9848 48.5654 45.0813 48.4661 45.1988 48.4009C45.3415 48.3253 45.5008 48.2892 45.6611 48.2962C45.7839 48.2949 45.9059 48.3158 46.0216 48.358C46.1187 48.3935 46.207 48.4503 46.2805 48.5246C46.3475 48.5934 46.3996 48.6762 46.4331 48.7674C46.4669 48.8602 46.4842 48.9585 46.4839 49.0577C46.4857 49.1922 46.4538 49.325 46.3915 49.4432M48.8831 49.8049L48.7721 49.5432C48.7427 49.467 48.7039 49.395 48.6566 49.329C48.6329 49.2914 48.5992 49.2617 48.5595 49.2433C48.5182 49.2362 48.476 49.2362 48.4347 49.2433H48.3885V49.824H47.9539V48.3295H48.6936C48.7972 48.3248 48.9 48.3513 48.9894 48.4056C49.0597 48.45 49.1159 48.5145 49.1512 48.5912C49.1828 48.6547 49.2002 48.7246 49.202 48.7959C49.2051 48.8636 49.1907 48.9309 49.1604 48.9911C49.1395 49.0339 49.1095 49.0713 49.0726 49.1005C49.0392 49.1273 49.0036 49.1512 48.9663 49.1719C49.0107 49.1972 49.05 49.2312 49.0819 49.2719C49.1312 49.345 49.173 49.4231 49.2067 49.5051L49.3546 49.8288L48.8831 49.8049ZM52.045 49.6907C51.9873 49.7218 51.9269 49.7473 51.8647 49.7669C51.8027 49.7864 51.7394 49.8007 51.6752 49.8097H51.4764C51.3616 49.8106 51.2475 49.7913 51.139 49.7526C51.043 49.7194 50.9548 49.6659 50.8801 49.5955C50.8084 49.5278 50.7516 49.445 50.7137 49.3528C50.6767 49.2541 50.6579 49.1492 50.6582 49.0434C50.656 48.9288 50.6781 48.8151 50.7229 48.7102C50.7623 48.6151 50.8243 48.5316 50.9032 48.4675C50.9808 48.4021 51.0704 48.3535 51.1667 48.3247C51.2686 48.293 51.3745 48.277 51.481 48.2771C51.6708 48.2834 51.8582 48.322 52.0358 48.3913V48.7864C51.9678 48.7429 51.8967 48.7047 51.8231 48.6722C51.7434 48.6411 51.6586 48.6265 51.5735 48.6293C51.4921 48.6289 51.4117 48.6468 51.3377 48.6817C51.268 48.7125 51.2073 48.7617 51.1621 48.8245C51.1211 48.8888 51.0993 48.9641 51.0993 49.041C51.0993 49.118 51.1211 49.1932 51.1621 49.2576C51.2031 49.323 51.2606 49.3756 51.3285 49.4099C51.4015 49.448 51.4823 49.4676 51.5642 49.467C51.6315 49.4675 51.6985 49.4579 51.763 49.4385C51.8187 49.4252 51.8729 49.4061 51.9248 49.3813L52.0542 49.3052L52.045 49.6907ZM54.3794 49.1196V49.8002H53.9449V49.1243L53.3671 48.3057H53.8293L54.1622 48.7816L54.495 48.3057H54.9573L54.3794 49.1196ZM57.5413 49.6907C57.482 49.7216 57.4201 49.7471 57.3564 49.7669C57.2945 49.7863 57.2311 49.8006 57.1669 49.8097C57.1007 49.814 57.0343 49.814 56.9681 49.8097C56.8533 49.8105 56.7392 49.7912 56.6307 49.7526C56.5345 49.7199 56.4462 49.6664 56.3718 49.5955C56.2999 49.528 56.2431 49.4452 56.2054 49.3528C56.1688 49.254 56.15 49.1492 56.1499 49.0434C56.1473 48.9288 56.1694 48.815 56.2146 48.7102C56.2549 48.6156 56.3167 48.5323 56.3949 48.4675C56.474 48.4018 56.5652 48.3532 56.663 48.3247C56.765 48.2931 56.8709 48.2771 56.9774 48.2771C57.1671 48.2835 57.3546 48.3221 57.5321 48.3913V48.7864C57.4642 48.7428 57.3931 48.7046 57.3195 48.6722C57.2413 48.6414 57.1581 48.6268 57.0745 48.6293C56.9931 48.6288 56.9126 48.6466 56.8387 48.6817C56.7688 48.7123 56.7082 48.7616 56.663 48.8245C56.6183 48.8915 56.5956 48.9716 56.5983 49.0529C56.5987 49.1257 56.6196 49.1968 56.6584 49.2576C56.6983 49.3222 56.7542 49.3748 56.8202 49.4099C56.8934 49.4477 56.9741 49.4673 57.056 49.467C57.1232 49.4676 57.1902 49.458 57.2547 49.4385C57.3104 49.425 57.3646 49.4058 57.4165 49.3813L57.546 49.3052L57.5413 49.6907ZM60.13 49.8049H59.0345V48.3104H59.469V49.4432H60.13V49.8049ZM62.6725 49.8049H61.5723V48.3104H62.6448V48.6103H62.0115V48.8816H62.6217V49.1862H62.0115V49.5051H62.6633L62.6725 49.8049ZM62.4229 47.0396C62.0508 47.2343 61.6275 47.2995 61.2164 47.2252C61.1217 47.1821 61.0439 47.1076 60.9953 47.0135C60.9467 46.9195 60.9301 46.8113 60.9483 46.7064C60.9602 46.6354 60.982 46.5664 61.013 46.5018C61.1748 46.2019 61.5353 45.6307 62.3166 44.4789C62.3859 44.379 62.5107 44.16 62.3166 44.0601C62.2424 44.0196 62.1607 43.9961 62.0769 43.9912C61.9931 43.9862 61.9093 44 61.8312 44.0315C61.725 44.0795 61.6314 44.1529 61.5584 44.2457C61.5168 44.2981 61.4845 44.3504 61.4567 44.3885V44.4218C61.3273 44.6598 61.4568 44.6979 61.5307 44.7074C61.6334 44.7106 61.7361 44.6994 61.8358 44.6741C61.7527 44.8451 61.6255 44.9893 61.4682 45.0909C61.3108 45.1924 61.1294 45.2475 60.9436 45.25L60.8558 45.3928L59.6539 47.1586H58.3919L60.1901 44.4884C60.1901 44.4884 60.3843 44.2029 60.1901 44.3171C60.0491 44.4264 59.9258 44.5582 59.8249 44.7074L58.5214 46.2923C58.4058 46.4304 58.3087 46.5256 58.2625 46.5732L58.0545 46.7778C57.9805 46.8349 57.8834 46.9016 57.7679 46.9777C57.5486 47.11 57.3007 47.1837 57.0467 47.1919C57.0467 47.1919 56.455 47.1919 56.2701 46.8445C55.9541 47.0777 55.5771 47.2071 55.1884 47.2157C54.9508 47.2367 54.712 47.1944 54.495 47.0926C54.278 46.9909 54.0901 46.8333 53.9495 46.635L53.7323 46.7683C53.3823 47.0024 52.9827 47.1461 52.5674 47.1871C52.3918 47.2186 52.2111 47.1972 52.0471 47.1254C51.883 47.0537 51.7427 46.9346 51.6428 46.7826L51.4302 46.9349C51.2138 47.0975 50.9538 47.1873 50.6859 47.1919C50.6859 47.1919 50.0896 47.1919 49.9093 46.8445C49.5934 47.0777 49.2163 47.2071 48.8276 47.2157C48.59 47.2367 48.3512 47.1944 48.1342 47.0926C47.9172 46.9909 47.7293 46.8333 47.5887 46.635C47.5887 46.635 46.47 47.2776 45.9569 47.2443C45.7425 47.2499 45.5325 47.1811 45.3606 47.0491C45.3159 47.0036 45.2895 46.9424 45.2866 46.8778C45.2871 46.8288 45.2965 46.7804 45.3144 46.735C45.7365 45.9605 46.2091 45.2163 46.7289 44.5075C46.7983 44.4028 46.9231 44.1886 46.7289 44.0839C46.6295 44.035 46.5197 44.0129 46.4098 44.0195C46.2999 44.0262 46.1934 44.0614 46.1002 44.1219C46.0048 44.1851 45.9281 44.274 45.8783 44.379L45.8506 44.4218C45.7212 44.6598 45.8506 44.6979 45.9246 44.7074C46.0273 44.7105 46.1299 44.6992 46.2297 44.6741C46.1458 44.8455 46.0178 44.9898 45.8596 45.0914C45.7015 45.193 45.5193 45.2478 45.3329 45.25L44.0339 47.1538H42.7719L44.5747 44.4837L44.621 44.4123L44.658 44.3552C44.6589 44.3441 44.6589 44.3329 44.658 44.3219C44.0986 44.8978 43.3544 45.3166 43.1879 44.6979C43.5902 44.6677 43.9643 44.4742 44.228 44.16L44.3806 44.0125L44.7088 43.6983L44.7597 43.646C44.9661 43.4457 45.2219 43.3074 45.4993 43.2462H45.5316C45.6475 43.2357 45.764 43.256 45.87 43.3052C45.976 43.3544 46.068 43.4307 46.1372 43.527C46.5373 43.3672 46.961 43.2786 47.39 43.2652C47.39 43.2652 48.6982 43.2271 48.0371 44.279L46.8214 46.2257C46.8122 46.2535 46.8122 46.2836 46.8214 46.3114C46.8214 46.4018 46.9508 46.5303 47.5518 46.102C47.5518 46.102 48.504 43.5508 51.028 43.2462C51.1628 43.2211 51.3012 43.2255 51.4342 43.2591C51.5672 43.2927 51.6918 43.3548 51.8 43.4413L53.0296 41.6517H54.2685L51.2591 46.1971C51.2591 46.1971 51.1852 46.3542 51.3285 46.397C51.4718 46.4399 51.7306 46.2543 52.1883 45.726C52.1883 45.726 52.4287 45.4261 52.6506 45.1262L52.854 44.8169L53.8663 43.2652H55.0405L53.1313 46.1448C53.1313 46.1448 53.0065 46.3447 53.2007 46.3923C53.3116 46.3923 53.4457 46.3685 53.7415 46.1734C53.7415 46.1734 53.8663 46.0972 53.9403 46.0401C53.9403 46.0401 54.8648 43.5508 57.3842 43.2509C57.3842 43.2509 57.9158 43.1605 58.1608 43.4461L58.281 43.2462H59.5106L57.5783 46.2447C57.5783 46.2447 57.5136 46.3637 57.5783 46.397C57.6431 46.4304 57.7078 46.3971 57.7817 46.3161C57.7817 46.3161 57.9019 46.2114 57.962 46.1495L58.0591 46.0448C58.0591 46.0448 58.8634 45.1262 59.0899 44.8454C59.0899 44.8454 60.3334 43.2462 61.1701 43.2367C61.2913 43.2217 61.4141 43.2393 61.5267 43.2876C61.6393 43.336 61.7378 43.4135 61.8127 43.5127C62.2117 43.3547 62.6335 43.2662 63.0608 43.2509C63.0608 43.2509 64.369 43.2081 63.7034 44.2647L62.5662 46.0591C62.5662 46.0591 62.5662 46.0591 62.5662 46.0877C62.4922 46.2209 62.3166 46.5636 62.7234 46.4875C63.0172 46.411 63.3024 46.3025 63.5739 46.1638L63.4676 46.3114C63.1955 46.6318 62.8597 46.8883 62.483 47.0634M63.3104 47.092C63.3104 47.0185 63.3316 46.9468 63.3712 46.8857C63.4108 46.8247 63.4671 46.7771 63.533 46.749C63.5989 46.7209 63.6714 46.7135 63.7414 46.7278C63.8113 46.7422 63.8755 46.7775 63.926 46.8294C63.9764 46.8814 64.0107 46.9475 64.0247 47.0195C64.0386 47.0915 64.0314 47.1662 64.0041 47.234C63.9769 47.3019 63.9306 47.3598 63.8713 47.4006C63.812 47.4414 63.7423 47.4632 63.671 47.4632C63.5754 47.4632 63.4837 47.4241 63.4161 47.3545C63.3484 47.2849 63.3104 47.1904 63.3104 47.092ZM67.6604 49.4718C67.6003 50.1048 67.4015 51.0329 67.2952 51.5613C67.1889 52.0896 67.3183 52.2133 67.3738 52.3085C67.4212 52.3674 67.4511 52.4391 67.4602 52.515C67.4692 52.591 67.4568 52.668 67.4246 52.7369C67.3368 52.9178 67.0918 53.0082 66.6804 53.2129C66.2481 53.4393 65.8431 53.7173 65.4739 54.041C65.2057 54.2743 65.1133 54.16 65.0116 54.0696C64.9655 54.0425 64.9307 53.9989 64.9137 53.9472C64.8967 53.8955 64.8986 53.8391 64.9191 53.7888C65.0398 53.5446 65.1838 53.3134 65.349 53.0986C65.709 52.4524 66.0181 51.7775 66.2736 51.0805C66.5787 50.3428 66.7359 49.3813 66.9577 48.9197C67.0127 48.8122 67.0561 48.6989 67.0872 48.5817C67.1427 48.4389 67.2258 48.2962 67.3368 48.2962C67.3892 48.2992 67.4404 48.3139 67.4867 48.3394C67.533 48.3649 67.5734 48.4005 67.6049 48.4437C67.707 48.7794 67.7261 49.1361 67.6604 49.4813M67.6604 46.5589C67.591 47.2157 67.5957 47.6203 67.5494 47.7298C67.5032 47.8392 67.4339 47.9297 67.1658 47.9392C66.9519 47.9334 66.7398 47.98 66.547 48.0751C66.3541 48.1703 66.1859 48.3113 66.0563 48.4865C65.6454 48.9731 65.2004 49.4281 64.725 49.8478C64.0038 50.4285 63.8282 50.5046 63.7265 50.4999C63.6248 50.4951 63.5416 50.2809 63.5601 50.1429C63.5786 50.0049 63.6109 49.8335 64.2396 49.1291C64.8683 48.4247 65.4045 47.8487 65.7281 47.4394C65.9355 47.2015 66.1197 46.9432 66.2782 46.6683C66.4669 46.3049 66.6817 45.9565 66.9208 45.626C67.1242 45.4166 67.2628 45.2738 67.4339 45.3357C67.6049 45.3975 67.7343 45.5118 67.7251 45.5736C67.6399 45.8999 67.5797 46.2325 67.5448 46.5684M67.6465 44.6645C67.395 44.5782 67.13 44.5411 66.8653 44.5551C66.639 44.5867 66.4171 44.6458 66.2042 44.7312C66.0656 44.8026 65.9916 44.8216 65.95 44.7312C65.9084 44.6407 66.024 44.4884 66.3337 44.0934C66.6154 43.6826 66.9359 43.3016 67.2906 42.9558C67.4662 42.8035 67.6327 42.6369 67.7528 42.5275C67.8836 42.4289 68.0229 42.3429 68.1689 42.2704L68.2845 42.3656C68.3138 42.3962 68.3401 42.4297 68.363 42.4656C68.363 42.4656 68.1735 43.0082 68.0348 43.5508C67.8961 44.0934 67.8222 44.4266 67.8083 44.5027C67.7944 44.5789 67.7575 44.6883 67.6373 44.6741M69.4586 54.893C69.3789 54.7807 69.325 54.6513 69.301 54.5144C69.277 54.3775 69.2834 54.2368 69.3199 54.1029C69.3615 53.9411 69.3939 53.8649 69.2876 53.7364C69.0884 53.451 68.947 53.1273 68.8715 52.7845C68.8439 52.4544 68.9115 52.1233 69.0657 51.8326C68.9764 51.9028 68.8804 51.9635 68.7791 52.0134C68.7063 52.0475 68.6278 52.0669 68.5479 52.0705C68.5479 52.0705 68.6866 51.4946 68.7883 51.2281C68.8768 50.9304 69.011 50.6491 69.1859 50.3952C69.3708 50.1667 69.5095 50.1048 69.4817 49.9953C69.454 49.8859 69.2922 49.5765 69.2645 49.4385C69.2367 49.3004 69.1812 49.1148 69.1165 49.1338C69.0518 49.1529 68.8946 49.2386 68.719 49.8383C68.5433 50.438 68.4786 50.9473 68.3769 51.1805C68.2752 51.4137 68.2012 51.6089 67.9655 51.5232C67.7297 51.4375 67.8129 50.7331 68.0718 49.962C68.3307 49.191 68.7097 47.9535 68.9594 47.4347C69.209 46.9159 69.4586 46.3399 69.7129 45.7593C69.9458 45.1585 70.2468 44.5882 70.6097 44.0601C70.9887 43.5413 71.1597 43.3604 71.2106 43.3652C71.2694 43.3804 71.3235 43.4106 71.3679 43.453C71.4124 43.4954 71.4457 43.5487 71.4649 43.6079C71.5111 43.7697 71.4649 44.0363 71.1875 44.5836C70.9101 45.131 70.4479 45.8069 70.2861 46.1638C70.1243 46.5208 69.9856 46.992 69.8238 47.2966C69.6109 47.5772 69.5145 47.9331 69.5557 48.2866C69.5879 48.4373 69.6312 48.5853 69.6851 48.7293C69.736 48.9149 69.7637 49.0863 69.7914 49.1624C69.841 49.315 69.906 49.4618 69.9856 49.6003C70.0734 49.724 70.2491 49.8668 70.2537 49.9573C70.2487 50.0486 70.2364 50.1393 70.2167 50.2286C70.2314 50.2844 70.227 50.3436 70.2042 50.3965C70.1815 50.4493 70.1419 50.4925 70.0919 50.5189C69.9128 50.6321 69.756 50.779 69.6296 50.952C69.5611 51.074 69.5098 51.2054 69.4771 51.3423H69.8931C69.6375 51.6877 69.5156 52.1186 69.5511 52.5513C69.5718 52.9456 69.7053 53.3248 69.9347 53.6412C69.8344 53.901 69.804 54.1838 69.8469 54.4599C69.8827 54.7365 70.0101 54.9921 70.2075 55.1833C70.2279 55.2005 70.2437 55.2227 70.2533 55.2479C70.2629 55.2732 70.2659 55.3006 70.2622 55.3274C70.2585 55.3542 70.2481 55.3796 70.232 55.4011C70.2159 55.4225 70.1947 55.4394 70.1705 55.4499C69.8708 55.3537 69.6117 55.1557 69.4355 54.8883M72.5188 58.7721C72.2636 58.7022 72.0015 58.6623 71.7376 58.6531C71.4279 58.6531 71.2753 58.6531 71.1921 58.6198C71.1422 58.6006 71.0983 58.568 71.0649 58.5253C71.0316 58.4825 71.01 58.4313 71.0026 58.3771C70.9662 58.0395 70.9122 57.7043 70.8408 57.3728C70.7807 57.1491 70.7345 57.011 70.7345 57.011C70.592 56.9865 70.4514 56.9515 70.3138 56.9063C70.2114 56.8779 70.1226 56.8119 70.0642 56.7207C70.0148 56.5849 69.9867 56.442 69.981 56.2971C69.9492 56.1085 69.9734 55.9144 70.0503 55.7402C70.1428 55.5879 70.226 55.4737 70.2861 55.5022C70.3462 55.5308 70.3831 55.6545 70.434 55.8735C70.4643 56.0935 70.5522 56.3008 70.6882 56.4732C70.7408 56.5214 70.8074 56.5504 70.8777 56.5555C70.9479 56.5607 71.0178 56.5418 71.0765 56.5018C71.1921 56.4256 71.3123 56.0924 71.3955 56.1353C71.4787 56.1781 71.5712 56.3399 71.696 56.7778C71.801 57.2035 71.9563 57.6142 72.1583 58.001C72.2792 58.1873 72.4136 58.3639 72.5604 58.5294L72.5188 58.7721ZM75.7547 59.329C75.6484 59.4432 75.3155 59.191 75.0151 58.9339C74.5904 58.4935 74.1877 58.0313 73.8085 57.5489C73.362 57.0292 72.8866 56.5365 72.3848 56.0734C72.3062 56.0734 72.0381 56.121 71.9549 56.0401C71.8716 55.9592 71.7699 55.8687 71.8948 55.7735C72.1798 55.5531 72.377 55.2333 72.4495 54.874C72.526 54.5703 72.5033 54.2491 72.3848 53.9601C72.4215 53.9247 72.4601 53.8913 72.5003 53.8602C72.5459 53.8308 72.6005 53.82 72.6534 53.8296C72.7063 53.8393 72.7539 53.8688 72.7869 53.9125C72.8931 54.0396 72.9738 54.187 73.0246 54.3463C73.0753 54.5055 73.0951 54.6735 73.0828 54.8407C73.109 55.1348 73.0759 55.4313 72.9857 55.7117C72.9857 55.7117 73.8548 56.3923 74.1922 56.7302C74.6057 57.1257 74.9649 57.5772 75.2601 58.0725C75.6021 58.6484 75.8702 59.2148 75.7593 59.329M76.6191 57.1253C76.6191 57.1253 76.4527 56.973 76.3464 56.8445C76.2335 56.7119 76.099 56.6008 75.9488 56.516C75.8846 56.4926 75.8259 56.4555 75.7765 56.4071C75.7271 56.3587 75.6882 56.3001 75.6622 56.2352C75.6285 56.0491 75.6494 55.8569 75.7223 55.6831C75.7593 55.5927 75.8795 55.2071 75.9673 54.874C76.0463 54.6156 76.0807 54.345 76.069 54.0743C76.0607 53.8825 76.0857 53.6907 76.143 53.5079C76.1818 53.4421 76.2301 53.3827 76.2863 53.3318C76.3257 53.3792 76.3584 53.4321 76.3834 53.4889C76.4255 53.5741 76.437 53.6719 76.4157 53.765C76.3492 53.9254 76.3269 54.1016 76.351 54.2743C76.3834 54.5598 76.5914 55.3309 76.6469 55.8925C76.6749 56.305 76.6656 56.7193 76.6191 57.13M77.7655 58.596C77.6639 58.3867 77.5224 58.2006 77.3495 58.0486C77.1961 57.9707 77.0518 57.8749 76.9196 57.7631C76.8487 57.6876 76.7991 57.5936 76.7763 57.4913C76.7535 57.389 76.7583 57.2821 76.7902 57.1824C76.9799 56.4977 77.0487 55.7836 76.9936 55.0739C76.9335 54.1219 76.7393 53.546 76.7948 53.5127C76.9566 53.4223 77.16 53.546 77.2571 53.7507C77.4832 54.4102 77.6049 55.1028 77.6176 55.8021C77.6096 56.4507 77.6405 57.0993 77.7101 57.744C77.7492 57.8998 77.8067 58.05 77.8811 58.1914L77.7655 58.596ZM78.4728 54.5694C78.6152 55.047 78.7203 55.5357 78.7872 56.0306C78.8288 56.5065 78.7872 56.8254 78.8519 57.0206C78.9166 57.2157 79.009 57.4965 79.009 57.4965L78.9166 57.7535C78.762 57.6824 78.5958 57.642 78.4266 57.6346C78.2371 57.6346 78.103 57.7155 78.029 57.7155C77.9551 57.7155 77.9089 57.6298 77.9458 57.5013C78.0223 57.0296 78.0425 56.5501 78.0059 56.0734C77.9689 55.2357 77.7887 54.5789 77.7702 54.2171C77.7517 53.8554 77.821 53.6174 77.9921 53.665C78.1631 53.7126 78.3203 53.9458 78.4543 54.5741M80.3589 46.3637C79.9348 46.4526 79.5188 46.5784 79.1154 46.7397C78.7198 46.8935 78.3404 47.0881 77.9828 47.3204C77.7337 47.3848 77.4756 47.4041 77.2201 47.3775C76.7304 47.3855 76.2445 47.4672 75.7778 47.6203C75.3155 47.7964 75.2185 48.0963 74.8255 48.3152C74.4326 48.5341 74.2431 48.4294 74.2431 48.4294C74.2431 48.4294 74.4141 48.1629 74.8302 47.3395C75.0768 46.8567 75.2514 46.3384 75.3479 45.8021C75.3479 45.7497 75.4496 45.8021 75.5605 45.8021C75.6715 45.8021 75.9119 46.3732 76.4342 46.516C76.7961 46.6054 77.1746 46.5922 77.5298 46.478C78.0218 46.2454 78.5431 46.0852 79.0784 46.002C79.593 45.9228 80.1182 46.0323 80.5623 46.3114C80.4984 46.3384 80.4317 46.3575 80.3635 46.3685M81.1956 40.2857C80.8951 40.4047 80.8535 40.5713 80.8026 40.9615C80.7442 41.229 80.7684 41.5086 80.872 41.7612C80.9644 41.9563 80.8489 42.0087 80.8489 42.0087C80.8489 42.0087 80.8489 42.0705 80.8489 42.1515C80.8489 42.2324 80.7749 42.3466 80.6593 42.537C80.578 42.7356 80.5191 42.9432 80.4837 43.1557C80.4375 43.2842 80.2109 43.3033 80.2109 43.3033C80.074 43.0451 79.9935 42.7592 79.9752 42.4656C79.9568 41.5788 80.0914 40.6957 80.3727 39.8573C80.5369 39.4003 80.5659 38.9034 80.4559 38.4294C80.4559 38.22 80.3358 38.1867 80.3496 38.12C80.3869 38.0459 80.4336 37.977 80.4883 37.9154C80.6163 38.0296 80.7658 38.1155 80.9275 38.1676C81.1725 38.2581 81.191 38.1676 81.3019 38.2057C81.4128 38.2438 81.3019 38.458 81.2372 38.5627C81.142 38.7308 81.1138 38.9305 81.1586 39.1196C81.2279 39.329 81.3204 39.4004 81.4822 39.4242C81.644 39.448 81.815 39.3337 81.9445 39.4242C82.0739 39.5146 82.0277 39.6336 81.986 39.7716C81.9618 39.8635 81.9038 39.942 81.8242 39.9906C81.63 40.1258 81.4204 40.2361 81.2002 40.319M82.513 42.318C82.4576 42.4228 82.513 42.5179 82.4761 42.6845C82.4698 42.7507 82.4481 42.8143 82.4127 42.8699C82.3772 42.9254 82.3292 42.9713 82.2727 43.0034C82.1802 43.0606 81.9953 43.1986 81.9953 43.1986C81.9423 43.0603 81.8975 42.9188 81.8612 42.775C81.8641 42.6554 81.8925 42.538 81.9445 42.4311C81.9964 42.3241 82.0706 42.2303 82.1617 42.1562C82.3029 42.0765 82.4685 42.056 82.624 42.0991C82.624 42.0991 82.5778 42.2181 82.5269 42.3228" fill="#940730"/>
<path d="M57.5781 44.3596C57.5781 44.3596 57.8878 43.917 57.4255 43.917C57.4255 43.917 56.1913 44.0217 55.2483 46.016C55.2483 46.016 55.0449 46.492 55.521 46.492H55.5903H55.6597H55.7521L55.8631 46.4539L55.9879 46.392C56.0378 46.3674 56.0857 46.3388 56.1312 46.3063C56.182 46.2683 56.2329 46.2302 56.2837 46.1826C56.3346 46.135 56.3901 46.0779 56.4409 46.0255C56.5003 45.9625 56.5559 45.8957 56.6073 45.8256C56.6674 45.7495 56.7229 45.6638 56.7737 45.5781L56.8153 45.5115L56.9217 45.3449V45.3116C56.8204 45.2512 56.7337 45.168 56.6681 45.0683C56.6025 44.9686 56.5596 44.8548 56.5426 44.7357V44.6785C56.6567 44.7283 56.7793 44.7539 56.9032 44.7539C57.0271 44.7539 57.1497 44.7283 57.2637 44.6785L57.3007 44.65H57.3285C57.3849 44.5969 57.4374 44.5396 57.4856 44.4786L57.5411 44.4072" fill="#940730"/>
<path d="M63.865 47.111C63.87 47.0721 63.8668 47.0325 63.8558 46.9948C63.8447 46.9572 63.826 46.9225 63.8008 46.8929C63.7756 46.8634 63.7446 46.8397 63.7099 46.8234C63.6751 46.8072 63.6373 46.7988 63.5992 46.7988C63.561 46.7988 63.5233 46.8072 63.4885 46.8234C63.4537 46.8397 63.4227 46.8634 63.3976 46.8929C63.3724 46.9225 63.3536 46.9572 63.3426 46.9948C63.3315 47.0325 63.3284 47.0721 63.3334 47.111C63.3419 47.1774 63.3736 47.2384 63.4225 47.2825C63.4714 47.3266 63.5341 47.3509 63.5992 47.3509C63.6642 47.3509 63.727 47.3266 63.7759 47.2825C63.8248 47.2384 63.8565 47.1774 63.865 47.111ZM63.5645 47.111V47.3157H63.4813V46.8778H63.5645C63.62 46.8778 63.7124 46.8778 63.7124 47.0016C63.7137 47.0245 63.7087 47.0473 63.6981 47.0675C63.6875 47.0876 63.6716 47.1044 63.6523 47.1158L63.7263 47.3157H63.6385L63.5645 47.111Z" fill="#940730"/>
<path d="M51.0791 43.9126C51.0791 43.9126 49.8309 44.0173 48.8879 46.0116C48.8879 46.0116 48.6845 46.4875 49.1606 46.4875H49.2808H49.3687L49.475 46.4542L49.5998 46.4019L49.7385 46.321L49.8864 46.2115C49.9431 46.1656 49.9971 46.1163 50.0482 46.0639C50.1053 46.0051 50.1593 45.9431 50.21 45.8783C50.2562 45.8212 50.2932 45.7641 50.3348 45.707L50.5706 45.3072C50.4819 45.2569 50.4039 45.1889 50.3412 45.1072C50.2785 45.0255 50.2323 44.9316 50.2054 44.8312C50.2054 44.8312 50.2054 44.7979 50.2054 44.7836C50.2054 44.7693 50.2054 44.7217 50.2054 44.6979C50.336 44.7559 50.4784 44.7801 50.6202 44.7684C50.762 44.7568 50.8989 44.7097 51.019 44.6313C51.072 44.5876 51.1187 44.5363 51.1576 44.479V44.4552C51.1576 44.4552 51.5321 43.9269 51.0698 43.9316" fill="#940730"/>
<path d="M63.574 46.9539V47.0586C63.6109 47.0586 63.6248 47.03 63.6248 46.9919C63.6255 46.9842 63.6246 46.9765 63.6221 46.9692C63.6195 46.962 63.6154 46.9554 63.6101 46.9499C63.6048 46.9445 63.5984 46.9403 63.5914 46.9377C63.5843 46.935 63.5768 46.9341 63.5693 46.9348" fill="#940730"/>
<path d="M43.4052 41.0711C43.74 40.7184 44.1069 40.3997 44.5008 40.1191C44.0886 40.0767 43.6723 40.1183 43.2757 40.2416C42.8791 40.365 42.51 40.5675 42.1895 40.8378H42.3096C42.6754 40.8802 43.0372 40.9534 43.3914 41.0568" fill="#940730"/>
<path d="M41.8935 41.3039C41.7828 41.4865 41.7162 41.6938 41.6993 41.9084C41.6614 42.0603 41.6694 42.2206 41.7223 42.3677C41.7752 42.5148 41.8704 42.6418 41.9952 42.7318L42.0599 42.7651C42.0876 42.7175 42.1385 42.6414 42.2032 42.5367C42.4438 42.1569 42.7111 41.7958 43.0029 41.4562C42.6378 41.3325 42.2546 41.2745 41.8703 41.2849" fill="#940730"/>
</g>
<defs>
<filter id="filter0_i_947_1791" x="5" y="30" width="80" height="34" filterUnits="userSpaceOnUse" color-interpolation-filters="sRGB">
<feFlood flood-opacity="0" result="BackgroundImageFix"/>
<feBlend mode="normal" in="SourceGraphic" in2="BackgroundImageFix" result="shape"/>
<feColorMatrix in="SourceAlpha" type="matrix" values="0 0 0 0 0 0 0 0 0 0 0 0 0 0 0 0 0 0 127 0" result="hardAlpha"/>
<feOffset dy="4"/>
<feGaussianBlur stdDeviation="2"/>
<feComposite in2="hardAlpha" operator="arithmetic" k2="-1" k3="1"/>
<feColorMatrix type="matrix" values="0 0 0 0 0 0 0 0 0 0 0 0 0 0 0 0 0 0 0.4 0"/>
<feBlend mode="normal" in2="shape" result="effect1_innerShadow_947_1791"/>
</filter>
<clipPath id="clip0_947_1791">
<rect width="80" height="30" fill="white" transform="translate(5 30)"/>
</clipPath>
</defs>
</svg>
