<svg width="90" height="90" viewBox="0 0 90 90" fill="none" xmlns="http://www.w3.org/2000/svg">
<rect width="90" height="90" rx="10" fill="white"/>
<path d="M55.8637 64.0267C56.4315 64.0267 57.2467 63.847 57.2314 63.1855C57.1908 61.3261 51.4561 62.9466 51.4515 59.3176C51.4488 57.1168 53.7334 56.42 55.6749 56.42C57.7055 56.42 60.0911 56.6902 60.3045 59.1752H57.0359C57.0007 58.871 56.8757 58.6574 56.6809 58.4957C56.484 58.3353 56.1203 58.2634 55.8358 58.2634C55.1955 58.2634 54.7852 58.4598 54.7852 58.9249C54.7852 60.2293 60.5891 58.8331 60.5825 62.8254C60.5798 64.6636 59.1423 66.0152 55.7227 65.9999C53.7234 65.9906 51.4495 65.3264 51.4581 62.7376H54.5166C54.6084 63.2693 54.8983 63.9495 55.8637 64.0267ZM81.5525 65.8588V56.7514H85V65.8588H81.5525ZM81.5525 53.0473H85V55.4025H81.5525V53.0473ZM34.4694 61.344L35.8025 65.7956H39.1902L42.3039 56.5578H38.6895L37.264 61.3134H37.3271L35.8843 56.5578H32.8823L31.4408 61.3134H31.4036L29.9801 56.5578H26.3637L29.4774 65.7956H33.0931L34.4242 61.344H34.4694ZM5 53.0466V65.7736H8.67686V62.0175L9.90293 60.6892L13.258 65.7736H17.7739L12.6124 58.0338L17.258 53.0466H12.4189L8.67686 56.9977V53.0466H5ZM74.7261 63.2753V65.8708H71.1835V53H74.7261V59.3316L76.9328 56.7627H80.7114L77.6749 60.1648L81.2201 65.8708H77.3165L75.3876 62.7403L74.7261 63.2753Z" fill="#00A650"/>
<path d="M26.3974 64.408V59.8047C26.3974 57.609 25.6694 55.9799 22.0083 56.0002C18.727 56.0184 17.5269 57.2264 17.3093 59.2731H20.4573C20.6459 58.2476 21.5539 58.077 22.0663 58.077C22.4547 58.077 23.1708 58.1707 23.1708 58.8849C23.1708 60.7252 17.0468 59.4556 17 63.0999C17.0007 65.1494 18.2661 66 20.0149 66C21.3924 66 22.278 65.8041 23.2209 65.1256L23.6384 65.8538H26.5556V65.7349C26.373 65.3956 26.4059 64.8165 26.3974 64.408ZM21.548 63.8589C20.8279 63.9407 20.2865 63.6616 20.2865 63.1741V63.1685C20.2865 61.8912 21.7801 62.0388 22.9809 61.4184C23.0699 62.7705 22.791 63.7183 21.548 63.8589ZM69.8417 64.408V59.8047C69.8417 57.609 69.1137 55.9799 65.4533 56.0002C62.1707 56.0184 60.9726 57.2264 60.755 59.2731H63.9017C64.091 58.2476 64.999 58.077 65.51 58.077C65.8991 58.077 66.6152 58.1707 66.6152 58.8849C66.6152 60.7252 60.4912 59.4556 60.445 63.0999C60.445 65.1494 61.7111 66 63.4586 66C64.8368 66 65.7237 65.8041 66.6653 65.1256L67.0827 65.8538H70V65.7349C69.818 65.3956 69.8503 64.8165 69.8417 64.408ZM64.993 63.8589C64.2723 63.9407 63.7322 63.6616 63.7322 63.1741V63.1685C63.7322 61.8912 65.2252 62.0388 66.4266 61.4184C66.5123 62.7705 66.236 63.7183 64.993 63.8589ZM50.4489 64.408V59.8047C50.4489 57.609 49.7209 55.9799 46.0599 56.0002C42.7773 56.0184 41.5791 57.2264 41.3615 59.2731H44.5082C44.6975 58.2476 45.6055 58.077 46.1166 58.077C46.5056 58.077 47.2218 58.1707 47.2218 58.8849C47.2218 60.7252 41.0977 59.4556 41.0522 63.0999C41.0522 65.1494 42.3183 66 44.0651 66C45.4433 66 46.3302 65.8041 47.2719 65.1256L47.6893 65.8538H50.6065V65.7349C50.4245 65.3956 50.4569 64.8165 50.4489 64.408ZM45.5996 63.8589C44.8788 63.9407 44.3388 63.6616 44.3388 63.1741V63.1685C44.3388 61.8912 45.8317 62.0388 47.0332 61.4184C47.1189 62.7705 46.8406 63.7183 45.5996 63.8589Z" fill="#00A650"/>
<path d="M36.2772 31.6602H39.8225C45.0091 31.7879 53.8723 34.4139 48.8825 38H65C65 36.0142 62.5055 32.4281 56.1368 31.4681C62.5055 30.5074 65 26.9852 65 25H48.8825C53.0841 28.8427 43.1052 31.1476 39.8225 31.2121H36.2772V25H24V38H36.2772V31.6602Z" fill="#00A650"/>
</svg>
