<svg width="90" height="90" viewBox="0 0 90 90" fill="none" xmlns="http://www.w3.org/2000/svg">
<g clip-path="url(#clip0_993_22841)">
<rect width="90" height="90" rx="10" fill="white"/>
<path d="M41.7888 16.0993L40.7964 16.1986L40.7467 17.3895L40.6971 18.5639L39.8535 18.6797C39.1423 18.7789 36.1319 19.4901 34.9741 19.8375C34.6598 19.9367 34.544 19.821 34.0975 18.9278C33.502 17.7534 33.7336 17.7699 31.1532 18.8451C29.4661 19.5563 26.77 20.9788 25.9926 21.5742L25.5791 21.8885L28.3083 27.3634C29.8135 30.3572 31.054 32.8218 31.0705 32.8218C31.0871 32.8218 31.6825 32.4413 32.3938 31.9782C35.95 29.646 39.7543 28.4385 44.121 28.2401C47.793 28.0747 50.8695 28.5874 54.128 29.9107C55.5339 30.473 58.015 31.8293 58.842 32.4744L59.2886 32.8218L59.7021 32.1271C60.8269 30.1422 64.8628 21.8389 64.747 21.7396C64.0854 21.1276 58.412 18.3158 57.2376 18.018C56.8737 17.9353 56.7745 18.0015 56.4271 18.7624C56.2121 19.2255 55.9474 19.6721 55.8482 19.7548C55.7324 19.8375 55.17 19.7548 54.3596 19.5232C53.6318 19.3082 52.2755 18.9939 51.3492 18.8285L49.6621 18.5308L49.6124 17.3564L49.5628 16.1986L48.5704 16.0993C47.3629 15.967 43.1616 15.967 41.7888 16.0993ZM48.5373 16.5459L49.1493 16.6617V17.7699V18.8781L51.0349 19.2255C52.0604 19.424 53.5491 19.7713 54.343 20.0029C55.1204 20.2345 55.8482 20.4164 55.9474 20.4164C56.0301 20.4164 56.3113 19.9864 56.5264 19.4571C56.7579 18.9443 56.973 18.4977 57.006 18.4646C57.1053 18.3654 59.2886 19.2751 61.0254 20.1518C63.1756 21.2269 64.2011 21.8389 64.2011 22.0705C64.2011 22.2524 59.9337 30.8204 59.4375 31.6309L59.1398 32.1436L58.3954 31.6474C56.2617 30.2084 52.8213 28.7859 49.9267 28.1574C47.4787 27.6281 43.0293 27.6446 40.5482 28.1739C37.4386 28.8355 34.6764 29.9437 32.2945 31.4985C31.7156 31.8624 31.2194 32.1602 31.2029 32.1271C31.1698 32.094 30.0285 29.8114 28.6391 27.0491C26.7039 23.1621 26.1911 21.9878 26.3565 21.872C27.3324 21.2269 30.0285 19.821 31.5006 19.1924C32.4765 18.7789 33.3035 18.4315 33.3366 18.4315C33.3531 18.4315 33.5847 18.8781 33.8493 19.424C34.114 19.9698 34.3952 20.4164 34.4613 20.4164C34.544 20.4164 35.2553 20.2345 36.0492 20.0194C36.8432 19.7879 38.1664 19.4901 38.9769 19.3413C39.8039 19.1924 40.6309 19.0435 40.846 18.9939C41.1768 18.9278 41.2099 18.8285 41.2099 17.7699V16.6286L41.7557 16.5625C42.6489 16.4467 47.8757 16.4467 48.5373 16.5459Z" fill="#00205B"/>
<path d="M43.2771 17.4225L42.1192 17.5217L42.0365 18.6795L41.9538 19.8374L40.581 20.0193C38.6623 20.3005 36.9752 20.6975 35.3211 21.2433L33.9317 21.723L33.4189 20.714C32.8069 19.5231 32.9062 19.5066 30.0447 20.9125C26.9847 22.4177 27.0674 21.7064 29.4658 26.5197C30.6071 28.8023 31.5664 30.6714 31.6326 30.6714C31.6822 30.6714 32.3107 30.3406 33.0385 29.9271C37.1902 27.5452 42.6982 26.3709 47.4287 26.8505C50.9849 27.1979 54.8223 28.4053 57.6508 30.0428C58.544 30.5721 58.8086 30.6548 58.9244 30.4894C59.0071 30.3571 59.9664 28.488 61.0746 26.3047C62.6625 23.1951 63.0264 22.335 62.861 22.2027C62.2656 21.8057 57.9816 19.7547 57.75 19.7547C57.6011 19.7547 57.3034 20.1186 57.0388 20.6644C56.7907 21.1606 56.4929 21.5741 56.3606 21.5741C56.2448 21.5741 55.8148 21.4583 55.4178 21.326C54.2434 20.9125 52.1759 20.3997 50.2572 20.0855C49.2813 19.9035 48.4046 19.7216 48.3219 19.672C48.2227 19.6223 48.1565 19.093 48.1565 18.4976V17.439H47.6272C47.3295 17.439 46.4859 17.4059 45.7582 17.3728C45.0304 17.3398 43.9222 17.3563 43.2771 17.4225ZM43.1944 22.8643C43.1944 23.6582 43.2605 24.386 43.3598 24.4852C43.4425 24.5679 43.856 24.6176 44.2695 24.5845L45.0138 24.5183V22.9635C45.0138 21.5245 45.0304 21.4087 45.3446 21.4087C45.6589 21.4087 45.6754 21.5245 45.6754 23.1951C45.6754 24.3695 45.6093 25.0476 45.477 25.1799C45.3612 25.2957 44.7988 25.3784 44.1041 25.3784C43.4094 25.3784 42.847 25.2957 42.7312 25.1799C42.5989 25.0476 42.5328 24.3695 42.5328 23.1951C42.5328 21.5245 42.5493 21.4087 42.8636 21.4087C43.1613 21.4087 43.1944 21.5245 43.1944 22.8643ZM50.1083 21.7561C50.6211 21.938 50.9188 22.4177 50.7203 22.732C50.5714 22.9635 50.3729 22.9304 50.0752 22.6492C49.9429 22.5169 49.4798 22.3515 49.0332 22.3019L48.2392 22.2027L49.3805 23.3109C50.5549 24.4522 50.7534 24.9318 50.2902 25.4777C50.1083 25.6927 49.8767 25.7258 49.0001 25.6431C47.6438 25.4942 47.3295 25.3288 47.3295 24.7168C47.3295 24.3364 47.3957 24.2206 47.6603 24.2206C47.8423 24.2206 47.9911 24.3198 47.9911 24.4522C47.9911 24.7168 48.5039 24.8822 49.3144 24.8822L49.8933 24.8657L48.7685 23.8402C47.6272 22.7981 47.3791 22.2523 47.8588 21.7726C48.1069 21.5245 49.4301 21.508 50.1083 21.7561ZM39.6878 22.1034C40.0351 22.5335 39.9855 22.9801 39.6051 23.0297C39.3901 23.0628 39.2247 22.9966 39.2247 22.8974C39.2247 22.6989 38.563 22.7816 37.7856 23.0793C37.4383 23.2116 37.4383 23.2282 37.6864 24.2537C37.8353 24.8326 38.0007 25.3453 38.0503 25.4115C38.2322 25.61 39.7209 25.1965 39.7209 24.9484C39.7209 24.8161 39.5555 24.7168 39.3239 24.7168C38.745 24.7168 38.6292 24.2537 39.175 24.0386C39.969 23.7409 40.2832 23.9063 40.4487 24.6672C40.5479 25.1634 40.5314 25.4446 40.399 25.61C40.1013 25.9739 37.7856 26.4536 37.4879 26.2055C37.3721 26.1062 37.1075 25.3123 36.909 24.4356C36.4789 22.5831 36.4955 22.5335 37.9841 22.1861C39.2743 21.8718 39.4728 21.8553 39.6878 22.1034ZM53.5322 22.4838C53.9953 22.6327 54.6239 22.8147 54.9712 22.8974C55.4674 23.0462 55.5501 23.1289 55.484 23.4101C55.4013 23.6913 55.302 23.7244 54.7562 23.6417L54.1276 23.5259L53.7803 24.7499C53.5818 25.4115 53.3833 26.0897 53.3502 26.2385C53.251 26.5528 53.0029 26.619 52.6886 26.4039C52.5563 26.3212 52.6059 25.9077 52.8871 24.9649C53.3833 23.2778 53.3833 23.2447 52.7879 23.1124C52.4074 23.0462 52.2916 22.9304 52.2916 22.6327C52.2916 22.1696 52.424 22.153 53.5322 22.4838ZM58.0974 24.1544C58.544 24.386 58.5936 24.4687 58.5109 24.9318C58.4612 25.2296 58.3785 26.0731 58.3124 26.8009C58.2628 27.5452 58.147 28.2399 58.0808 28.3557C57.8989 28.6534 57.4192 28.4384 57.4192 28.058C57.4192 27.6279 55.8809 26.9002 55.5501 27.1813C55.302 27.3798 54.7727 27.264 54.7727 27.0159C54.7727 26.8836 57.4357 23.9063 57.5515 23.8898C57.5846 23.8898 57.8327 24.0056 58.0974 24.1544ZM34.2129 25.4611C34.9241 26.2385 35.5196 26.9332 35.5527 27.0159C35.6354 27.2475 35.073 27.3798 34.8414 27.1979C34.5272 26.9332 32.9393 27.7603 32.9393 28.1738C32.9393 28.455 32.4927 28.7858 32.3438 28.6369C32.2777 28.5707 31.7814 24.998 31.7814 24.6341C31.7814 24.4356 32.3604 24.0883 32.7242 24.0717C32.8235 24.0552 33.5016 24.6837 34.2129 25.4611Z" fill="#00205B"/>
<path d="M56.923 25.6267C56.526 26.0402 56.2283 26.3876 56.2779 26.4207C56.311 26.4372 56.6087 26.5861 56.956 26.7349L57.5515 27.0161L57.6673 26.0237C57.7334 25.4778 57.75 24.9982 57.7169 24.9651C57.6838 24.9155 57.3199 25.2132 56.923 25.6267Z" fill="#00205B"/>
<path d="M32.692 25.8745C32.7582 26.4699 32.8243 26.9661 32.8574 26.9992C32.8905 27.0323 33.1717 26.9165 33.5025 26.7511L34.0814 26.4534L33.3371 25.6264L32.5928 24.7993L32.692 25.8745Z" fill="#00205B"/>
<path d="M65.2929 27.7604C63.7712 28.2566 62.4479 28.7197 62.3818 28.8024C62.2991 28.8686 61.4555 30.6715 60.4962 32.8052C59.5368 34.9389 58.7098 36.7253 58.6602 36.7749C58.6105 36.808 58.4617 36.7418 58.3128 36.6095C58.0482 36.3283 57.9985 36.5103 59.0571 34.0788L59.3714 33.351L57.0723 32.0113C55.8152 31.2669 54.7401 30.6715 54.707 30.6715C54.6739 30.6715 54.2604 31.2008 53.7807 31.8293C53.301 32.4744 52.8544 32.9375 52.7717 32.8879C52.689 32.8383 52.6229 32.5902 52.6229 32.309C52.6229 32.0443 52.6063 31.8293 52.5898 31.8293C52.5567 31.8293 52.0605 31.9782 51.4816 32.1601C50.6711 32.4248 50.3072 32.4579 49.8275 32.3421C49.4967 32.2428 49.0336 32.127 48.802 32.094C48.3223 31.9947 48.3223 31.9947 48.0577 29.6294L47.9585 28.6866H45.2624H42.5663L42.4836 29.2159C42.4339 29.5136 42.3347 30.258 42.2685 30.87L42.1693 31.9782L41.3092 32.1601C40.846 32.2594 39.8536 32.524 39.0928 32.7556C38.3484 33.0037 37.7034 33.1691 37.6703 33.136C37.6537 33.1029 37.2733 32.5902 36.8267 31.9947C36.3967 31.3993 35.9666 30.8534 35.9004 30.7707C35.8012 30.6549 32.2946 32.5406 31.3849 33.2022C31.1202 33.3841 31.1699 33.533 31.7653 34.8893L32.4435 36.378L31.4841 37.2877C30.9548 37.7839 30.194 38.5778 29.797 39.041L29.0527 39.9011L27.5144 39.3056C26.6708 38.9913 25.9596 38.7598 25.9265 38.7929C25.91 38.8259 25.3311 39.9011 24.6694 41.1582L23.462 43.4573L24.0244 43.9204L24.5867 44.3835L12.7934 44.4332L1 44.4828L11.4701 47.1458L21.9403 49.8088L21.9899 52.141C22.0064 53.4312 22.056 54.4898 22.0726 54.5063C22.0891 54.5063 22.85 54.6056 23.7432 54.7048L25.3972 54.9033L25.695 56.2265C25.8604 56.9543 26.0423 57.7317 26.0754 57.9633C26.1581 58.3272 26.0258 58.476 24.901 59.1873C24.2063 59.6504 23.6109 60.097 23.5778 60.1963C23.5447 60.279 23.8755 61.0729 24.3386 61.933C24.7852 62.7931 25.1657 63.5374 25.1657 63.5871C25.1657 63.6367 24.4213 66.0847 23.5116 69.0454C22.6184 71.9896 21.8906 74.4211 21.9072 74.4376C21.9237 74.4542 23.1643 74.0903 24.6694 73.6271L27.3821 72.767L28.5565 68.9627C29.2015 66.8621 29.7639 65.0592 29.797 64.9434C29.8466 64.8276 30.3925 65.2577 31.1699 66.0351L32.46 67.3418L31.7819 68.7973C31.418 69.6078 31.1699 70.319 31.2526 70.4017C31.4676 70.6168 35.6027 73.0151 35.7516 73.0151C35.8343 73.0151 36.2809 72.4528 36.7771 71.7746C37.4552 70.7987 37.7364 70.5341 37.9845 70.5837C38.1665 70.6333 38.9935 70.8483 39.804 71.0799C40.631 71.3115 41.4911 71.543 41.7227 71.5927C42.1362 71.6754 42.1693 71.7746 42.2685 72.8001C42.3347 73.4287 42.4339 74.173 42.4836 74.4542L42.5663 75H45.2624H47.9585L48.0577 74.0572C48.3223 71.6919 48.3389 71.6919 48.802 71.5927C49.1494 71.5265 51.3327 70.9145 52.474 70.5837C52.6394 70.5341 53.0364 70.9145 53.6649 71.7581C54.1942 72.4528 54.6574 73.0151 54.7235 73.0151C54.8228 73.0151 55.2032 72.8001 57.8662 71.2453L59.3879 70.3687L58.7098 68.88L58.0316 67.4079L59.7353 65.605L61.439 63.8021L62.9276 64.381C63.7381 64.6953 64.4493 64.8772 64.532 64.8111C64.9125 64.381 67.0296 60.2293 66.9139 60.1136C66.8312 60.0474 66.2026 59.6173 65.5079 59.1542L64.2508 58.3272L64.6809 56.607L65.1275 54.9033L66.2688 54.7875C66.9139 54.7214 67.6747 54.6221 67.9725 54.5725L68.5183 54.4732L68.4687 51.8929L68.419 49.3126L78.8065 46.9473C84.5129 45.6572 89.2766 44.549 89.3924 44.4993C89.5082 44.4663 84.2318 44.4166 77.6817 44.4166L65.7726 44.4001L66.4011 43.9866C66.7319 43.755 67.0131 43.54 67.0131 43.4904C67.0131 43.3911 64.6644 39.041 64.5155 38.8756C64.4328 38.7929 64.0358 38.8756 63.5396 39.0741C63.093 39.256 62.7126 39.3718 62.7126 39.2891C62.7126 39.2229 63.8373 36.7253 65.2102 33.7149C68.2867 27.016 68.3529 26.8672 68.204 26.8672C68.1379 26.8837 66.8312 27.2807 65.2929 27.7604ZM67.4762 27.7273C67.2777 28.3062 50.8696 64.2321 50.8034 64.2487C50.7538 64.2487 50.208 57.5002 49.596 49.2299C48.9674 40.9762 48.4547 34.0788 48.4381 33.8969C48.405 33.6322 48.7028 33.4834 50.3072 32.9706L52.2094 32.3752L52.3086 33.2187C52.3748 33.6819 52.6725 37.3869 52.9702 41.4559C53.268 45.5414 53.5657 48.866 53.6153 48.866C53.6649 48.866 55.6994 44.4166 58.1474 38.9748C60.5954 33.5495 62.6133 29.0836 62.6299 29.0505C62.6795 29.0009 67.2281 27.5453 67.3935 27.5288C67.4762 27.5288 67.5093 27.628 67.4762 27.7273ZM47.7269 30.5392C47.8758 32.3586 47.9254 32.4909 48.4547 32.5075C48.7028 32.5075 49.0501 32.5736 49.2155 32.6398C49.4802 32.739 49.3809 32.8052 48.7689 32.9872L47.9915 33.2022V34.1284V35.0547L45.2127 35.0713C42.1693 35.0878 41.0942 35.2863 38.6296 36.3118C35.735 37.5192 32.3773 40.4469 30.7894 43.1265L30.0451 44.3835L27.7625 44.4001C25.4799 44.4001 25.4799 44.4001 24.7356 43.8873L24.0078 43.3911L25.0168 41.4559C25.5792 40.3973 26.0919 39.471 26.1415 39.4214C26.1912 39.3552 26.919 39.5703 27.7294 39.8845L29.2181 40.4469L29.8632 39.653C30.227 39.2229 31.0706 38.3297 31.7488 37.6681L32.9728 36.4937L32.3773 35.1209C32.0465 34.3766 31.7819 33.6984 31.7819 33.6322C31.7819 33.5495 32.6585 32.9872 33.7171 32.3586L35.6523 31.2008L36.5455 32.3917C37.0252 33.0368 37.4883 33.5826 37.571 33.6157C37.6537 33.6488 38.4146 33.4503 39.2582 33.1856C40.1017 32.9044 41.1438 32.6398 41.5904 32.5736C42.0204 32.5075 42.4174 32.3917 42.467 32.309C42.5166 32.2263 42.6324 31.4985 42.7317 30.6715L42.9136 29.1828H45.2624H47.6111L47.7269 30.5392ZM58.6932 33.7149C58.6436 33.8142 58.379 34.4758 58.0812 35.187L57.5354 36.4772L57.9655 36.9238C58.3624 37.3373 58.379 37.4035 58.1639 37.8666C58.0482 38.1312 57.8 38.7267 57.6016 39.1568L57.2542 39.9507L56.2122 39.0575C55.6498 38.5778 54.707 37.8997 54.1446 37.5358C53.0198 36.8576 53.0198 36.8411 52.8875 35.0051L52.8048 33.7976L53.7972 32.5075L54.7897 31.2008L56.7745 32.3586C57.8662 33.0037 58.7263 33.6157 58.6932 33.7149ZM46.3375 50.9005C46.966 58.7076 47.4953 65.2577 47.4953 65.4561C47.4953 65.7869 47.2803 65.8862 45.6759 66.3824C44.6669 66.6967 43.8068 66.9117 43.7737 66.8621C43.7241 66.8125 43.3437 62.7435 42.9467 57.7979C42.5332 52.8523 42.1693 48.7833 42.1527 48.7502C42.1197 48.7337 40.7303 50.9336 39.0431 53.6628C37.3725 56.3919 35.9666 58.6249 35.917 58.6249C35.8674 58.6249 35.1727 57.5002 34.3622 56.1273C33.5682 54.7544 32.8735 53.6793 32.8404 53.7124C32.7908 53.7455 31.4841 57.9798 29.9128 63.1074L27.0513 72.4362L24.8348 73.1309C23.6274 73.5279 22.6019 73.8091 22.5688 73.776C22.5026 73.7098 31.7488 43.6227 31.9307 43.2753C31.9969 43.1596 32.857 44.5324 34.0975 46.7985C35.2388 48.8495 36.2147 50.5035 36.2809 50.487C36.347 50.4539 38.2326 47.4601 40.4656 43.8212C45.312 35.9479 45.0639 36.3449 45.13 36.5434C45.1466 36.6426 45.6924 43.0934 46.3375 50.9005ZM65.7891 42.1175C66.1034 42.7295 66.3515 43.2919 66.3515 43.358C66.3515 43.4407 66.0207 43.7054 65.6237 43.9535C64.9125 44.4001 64.8628 44.4166 62.6464 44.367L60.4134 44.3174L61.4059 42.1506L62.4148 39.9838L63.3411 39.653L64.2839 39.3222L64.7471 40.1657C65.0117 40.6289 65.4748 41.5055 65.7891 42.1175ZM30.5248 46.1699C30.3098 46.8812 29.8962 48.254 29.5985 49.2299C29.3008 50.2223 28.97 51.0163 28.8707 51.0163C28.6888 51.0163 5.74712 45.1279 5.39977 44.979C5.31707 44.9459 11.0235 44.9128 18.0863 44.9128L30.9217 44.8963L30.5248 46.1699ZM54.9385 44.9625C54.9385 45.1775 53.8965 47.2616 53.8634 47.1293C53.8303 47.03 53.7807 46.5007 53.7476 45.9218L53.6815 44.8963H54.31C54.6574 44.8963 54.9385 44.9294 54.9385 44.9625ZM84.7114 45.0121C83.9506 45.2106 57.3369 51.314 57.3038 51.2809C57.2708 51.2479 57.8993 49.8088 58.7098 48.0721L60.1488 44.8963L72.5542 44.9128C79.3854 44.9294 84.8438 44.9625 84.7114 45.0121ZM37.6041 47.5759C37.4883 47.9894 36.3636 49.6765 36.2478 49.6103C36.1155 49.5276 33.9321 45.6406 33.9321 45.4752C33.9321 45.4256 34.7757 45.8391 35.8012 46.3849C36.8267 46.9308 37.6372 47.4601 37.6041 47.5759ZM49.3809 52.4388C49.629 55.9454 49.811 58.8565 49.7614 58.9061C49.6952 58.9557 49.1328 58.6084 48.5043 58.1452C47.1645 57.1363 47.2968 57.649 46.9164 52.5049C46.7841 50.6359 46.6187 48.7668 46.5691 48.3367L46.4698 47.5759L47.6111 46.8315C48.2231 46.418 48.7689 46.0707 48.8186 46.0707C48.8682 46.0541 49.1163 48.9322 49.3809 52.4388ZM68.0055 51.8268V54.1259L66.3515 54.3244C64.7636 54.5229 64.6974 54.5394 64.6147 54.9695C64.4659 55.6807 63.9035 57.864 63.7877 58.1618C63.705 58.3768 63.9862 58.6415 65.0117 59.3196C65.7395 59.7993 66.3515 60.279 66.3515 60.3782C66.3515 60.5105 64.4493 64.2156 64.3005 64.3645C64.2839 64.3975 63.5561 64.1329 62.7126 63.8021L61.1743 63.2066L60.8435 63.6863C60.6616 63.951 59.818 64.8441 58.991 65.6877L57.4692 67.2094L58.1143 68.6485C58.4617 69.4424 58.6932 70.1536 58.6271 70.2198C58.5444 70.286 57.6843 70.8318 56.6753 71.4273C54.9551 72.4528 54.8393 72.4858 54.6077 72.2047C54.4754 72.0393 54.0123 71.4603 53.5822 70.898L52.7883 69.889L52.077 70.1867C51.3162 70.5175 48.7689 71.1957 48.3058 71.1957C47.9419 71.1957 47.8758 71.4438 47.7269 73.1309L47.6111 74.5038H45.2624H42.8971L42.7978 73.379C42.5663 71.1295 42.649 71.2618 41.3919 71.0468C40.7633 70.931 39.6717 70.6333 38.9273 70.3852L37.6041 69.9221L36.6448 71.2122C36.132 71.9235 35.6523 72.4858 35.6027 72.4528C34.5607 71.8904 31.9307 70.3025 31.848 70.1867C31.7984 70.0875 32.03 69.3928 32.3608 68.6154L32.9562 67.2094L31.5503 65.8035C30.7563 65.0261 30.1278 64.2652 30.1278 64.1164C30.1278 63.9675 30.3428 63.1735 30.5909 62.3796L31.0541 60.924L31.6826 61.8338C32.6089 63.1735 34.9907 65.3734 36.5455 66.2997C43.2444 70.3025 51.6966 69.2274 57.1715 63.6863C60.248 60.5932 61.8194 57.0205 62.0013 52.7365L62.1006 50.7516L64.6809 50.1562C66.1034 49.8254 67.4266 49.5442 67.6416 49.5442C68.0055 49.5276 68.0055 49.5442 68.0055 51.8268ZM25.7115 50.7847L28.3084 51.4133V52.4222C28.3084 53.1169 28.0933 54.1094 27.564 55.7965C27.1671 57.1032 26.8032 58.2114 26.7535 58.2445C26.6708 58.3437 26.2408 56.8551 25.9927 55.5484L25.7942 54.5229L24.8514 54.4236C24.3386 54.3575 23.6109 54.2748 23.2304 54.2086L22.5192 54.1259V52.0583C22.5192 50.1727 22.5523 49.9908 22.8169 50.0569C22.9658 50.1066 24.2725 50.4208 25.7115 50.7847ZM42.2851 55.2176C42.5166 58.0129 42.682 60.3451 42.6324 60.3947C42.5332 60.5105 37.3725 57.2851 37.4387 57.1528C37.5876 56.822 41.7723 50.0239 41.8054 50.0569C41.8219 50.09 42.037 52.4057 42.2851 55.2176ZM26.6212 58.8234C26.5716 58.9392 26.2904 59.882 25.9927 60.891C25.6784 61.9165 25.3972 62.76 25.3311 62.76C25.2814 62.76 24.9672 62.2142 24.6364 61.536L24.0409 60.3286L25.2153 59.485C26.4393 58.6084 26.737 58.476 26.6212 58.8234Z" fill="#00205B"/>
</g>
<defs>
<clipPath id="clip0_993_22841">
<rect width="90" height="90" rx="10" fill="white"/>
</clipPath>
</defs>
</svg>
