<svg width="90" height="90" viewBox="0 0 90 90" fill="none" xmlns="http://www.w3.org/2000/svg">
<rect width="90" height="90" rx="10" fill="white"/>
<path d="M1.4823 30.0245C3.19268 29.981 4.90424 30.0198 6.6158 30.0045C7.40041 30.0127 8.21678 29.9292 8.9614 30.2362C9.98834 30.6209 10.9376 31.4137 11.2717 32.4865C11.6258 33.6864 11.4376 35.0557 10.6965 36.0744C10.033 36.8825 9.00846 37.2566 8.01916 37.486C8.11092 37.6401 8.2062 37.7942 8.32265 37.9318C9.39664 39.201 10.4953 40.4515 11.6799 41.6196C13.7361 43.5441 16.4229 44.5369 19.0096 45.5203C18.2756 46.019 17.3969 46.2778 16.5099 46.2731C14.9619 46.2896 13.4538 45.752 12.1598 44.9251C9.56721 43.3041 7.47452 40.9361 6.00293 38.2694C5.78413 38.2694 5.56651 38.2682 5.34772 38.267C5.34183 39.4257 5.3783 40.5844 5.36183 41.7431C5.37124 41.9784 5.34889 42.2254 5.43712 42.4489C5.77002 42.8782 6.41112 42.8335 6.76519 43.2417C6.55816 43.5205 6.44758 43.8887 6.18173 44.1122C4.63604 44.1287 3.08799 44.1122 1.54111 44.1193C1.33173 43.8123 1.14704 43.4911 1 43.15C1.42466 42.9559 1.8846 42.8218 2.26691 42.5465C2.44806 42.4207 2.45512 42.1889 2.45747 41.9913C2.45865 38.967 2.45747 35.9438 2.45983 32.9194C2.44806 32.5654 2.50688 32.1936 2.3963 31.8513C2.1528 31.3314 1.56581 31.1302 1.07293 30.922C1.16939 30.6068 1.31526 30.308 1.4823 30.0245ZM5.37124 31.6537C5.32889 33.237 5.36536 34.8216 5.30184 36.4037C5.89589 36.5519 6.60168 36.4931 7.06045 36.0497C7.7639 35.4015 8.19914 34.464 8.25207 33.51C8.29325 32.9665 8.08856 32.3819 7.62274 32.0713C6.96164 31.6325 6.13586 31.6137 5.37124 31.6537Z" fill="#C8102E"/>
<path d="M15.9459 32.3737C16.7729 32.1772 17.6598 32.2784 18.428 32.636C19.5596 33.2018 20.4548 34.2393 20.81 35.4568C21.2512 36.9273 21.0524 38.6047 20.1701 39.8763C19.729 40.4904 19.1644 41.0385 18.4774 41.3679C17.2234 41.9678 15.6671 41.8008 14.5284 41.0209C13.4886 40.3845 12.8733 39.2188 12.6898 38.0377C12.5557 37.0708 12.6087 36.058 12.9569 35.1381C13.4556 33.8265 14.5755 32.7301 15.9459 32.3737ZM16.5635 33.5865C16.0236 33.8029 15.7436 34.3734 15.5189 34.8734C15.0025 36.2756 15.0331 37.8707 15.553 39.267C15.7706 39.7893 16.1012 40.4339 16.7388 40.4857C17.254 40.548 17.6328 40.0986 17.8692 39.6987C18.3398 38.7776 18.4762 37.7131 18.428 36.6885C18.3656 35.7627 18.1339 34.824 17.6222 34.0405C17.4034 33.6947 16.9787 33.4265 16.5635 33.5865ZM21.8358 32.5937C23.1309 32.5525 24.4296 32.5513 25.7248 32.589C25.8083 32.8278 25.8941 33.0654 25.9812 33.303C25.7706 33.4018 25.5612 33.5006 25.3519 33.6018C25.6248 34.5311 26.4164 35.191 26.874 36.0285C27.4375 35.2592 28.0551 34.5017 28.4397 33.6241C28.2718 33.5156 28.0978 33.4166 27.9186 33.3277C27.9527 33.0818 27.9915 32.836 28.0362 32.5913C29.0232 32.5548 30.0137 32.5443 31.0018 32.5937C31.0935 32.8383 31.1876 33.0807 31.2829 33.323C30.8241 33.5006 30.3313 33.6865 30.0454 34.1147C29.4643 34.9416 28.8973 35.7803 28.3174 36.6073C28.0657 36.9908 27.7422 37.3743 27.7292 37.8554C27.7116 38.5682 27.7563 39.2799 27.7798 39.9928C28.0621 40.2845 28.4444 40.4374 28.7879 40.6398C28.655 40.8609 28.5221 41.0821 28.395 41.3056C27.2269 41.3209 26.0577 41.3161 24.8884 41.3114C24.7708 41.0868 24.6496 40.8633 24.5296 40.6398C24.8484 40.4351 25.253 40.3351 25.5071 40.0469C25.6212 39.5693 25.5707 39.0623 25.593 38.5718C25.6248 37.9624 25.2436 37.4507 24.899 36.9861C24.2979 36.1415 23.6803 35.3086 23.0851 34.4605C22.7639 33.9123 22.2216 33.5453 21.6241 33.3583C21.6935 33.103 21.7641 32.8477 21.8358 32.5937ZM34.5531 32.5807C35.2554 32.5443 35.9588 32.5431 36.6611 32.5901C37.2951 34.4852 38.0303 36.3462 38.6961 38.2306C38.9267 38.8 39.0808 39.4034 39.3572 39.9528C39.6149 40.2233 39.9983 40.3092 40.3348 40.4433C40.2395 40.7492 40.1254 41.0479 39.9819 41.3338C38.8855 41.302 37.7892 41.3256 36.6929 41.3326C36.5976 41.0362 36.5082 40.7386 36.42 40.441C36.6011 40.3633 36.7811 40.2857 36.9634 40.2092C36.9787 39.7258 36.7411 39.2929 36.567 38.8576C35.5989 38.88 34.6319 38.8611 33.6638 38.8694C33.5356 39.2046 33.3627 39.5258 33.2862 39.8787C33.1792 40.2516 33.6356 40.3527 33.865 40.5304C33.7544 40.7986 33.6426 41.0656 33.5321 41.3338C32.6416 41.2938 31.7499 41.3373 30.8594 41.3126C30.7594 41.035 30.6489 40.7609 30.5324 40.4904C30.8206 40.381 31.1241 40.3033 31.3947 40.1528C31.6711 39.9728 31.7782 39.6458 31.8946 39.354C32.7698 37.0919 33.6909 34.8475 34.5531 32.5807ZM34.1473 37.6825C34.8154 37.6825 35.4824 37.6731 36.1506 37.6778C35.8259 36.8073 35.5224 35.9286 35.1883 35.0616C34.8531 35.9391 34.4543 36.7932 34.1473 37.6825ZM42.0216 33.2465C42.124 33.0124 42.2393 32.7831 42.3698 32.5619C43.5332 32.5795 44.699 32.5348 45.8624 32.5901C45.9659 32.8078 46.1211 33.0124 46.1435 33.2583C45.8424 33.5124 45.2765 33.51 45.2024 33.9759C45.1824 35.7004 45.2083 37.4272 45.1907 39.1529C45.193 39.4176 45.1907 39.6905 45.2765 39.9445C45.58 40.2057 46.0082 40.1375 46.3788 40.1433C47.5245 40.1339 48.7314 39.8152 49.5419 38.9611C49.7548 39.1446 49.9642 39.3329 50.1701 39.5246C49.7572 40.2763 49.2819 40.9903 48.8326 41.7196C48.2856 41.882 47.975 41.262 47.4516 41.3138C45.7612 41.3114 44.0708 41.3126 42.3804 41.3138C42.2307 41.077 42.0903 40.8345 41.9593 40.5868C42.3734 40.3551 43.1133 40.2469 43.0333 39.6175C43.0239 37.7754 43.045 35.9321 43.0227 34.09C43.0145 33.5571 42.3934 33.4571 42.0216 33.2465ZM29.6584 43.7806C29.9113 43.7735 30.1654 43.7747 30.4195 43.7794C30.983 44.7546 31.5735 45.7121 32.1616 46.6732C31.8887 46.9531 31.6111 47.2272 31.33 47.4989C30.3501 46.4191 28.8891 45.8438 27.4387 45.8827C27.0611 45.9132 26.5929 45.825 26.3082 46.1356C26.0388 46.4002 26.0659 46.8037 26.0553 47.1496C26.0635 48.0883 26.0341 49.027 26.0741 49.9645C26.0565 50.2598 26.327 50.5068 26.6152 50.4951C27.0199 50.508 27.4257 50.4845 27.8316 50.4927C28.0162 50.3433 28.1974 50.1904 28.375 50.0316C28.6162 50.0363 28.8585 50.0433 29.1008 50.0528C29.6596 50.9915 30.2536 51.909 30.8489 52.8254C30.5889 53.1124 30.3101 53.3818 30.0266 53.6453C29.4173 53.0712 28.7973 52.4372 27.9798 52.1749C27.4669 52.0784 26.9364 52.089 26.42 52.1478C26.0918 52.1596 26.0706 52.5489 26.0612 52.7971C26.0471 54.4852 26.0553 56.1732 26.06 57.8612C26.0247 58.2741 26.3035 58.74 26.7446 58.7682C28.2586 58.8635 29.889 58.9246 31.257 58.1588C31.7217 57.9306 32.0534 57.5224 32.4769 57.2378C32.7251 57.5342 33.1074 57.7412 33.2709 58.093C32.7945 58.9905 32.2334 59.8433 31.7264 60.7244C31.5935 61.0867 31.1735 61.0009 30.8736 60.9644C30.5383 60.7362 30.2419 60.3727 29.7937 60.3998C27.2822 60.3821 24.7684 60.4162 22.2569 60.3821C22.1428 60.0974 21.8735 59.8363 21.8535 59.5363C22.2652 59.1375 23.2215 59.0846 23.1886 58.3329C23.2121 54.491 23.198 50.6492 23.2086 46.8073C23.2027 46.5144 23.2133 46.1826 22.9992 45.9521C22.6828 45.6133 22.2428 45.4321 21.8146 45.2792C21.9381 44.9581 22.0852 44.6463 22.2522 44.3452C24.3779 44.297 26.5047 44.3428 28.6291 44.3228C29.0385 44.3287 29.4396 44.1299 29.6584 43.7806ZM50.51 47.9271C50.8465 47.9542 51.1511 47.7766 51.3288 47.4966C51.5487 47.5248 51.8699 47.426 51.984 47.6824C52.3804 48.3353 52.7956 48.9788 53.1768 49.6399C52.9933 49.8951 52.7427 50.088 52.5086 50.2927C51.7605 49.4952 50.6335 49.147 49.5607 49.1646C49.0984 49.1787 48.5667 49.0835 48.1974 49.4305C48.2021 49.8681 48.1597 50.308 48.2244 50.7433C48.3738 50.9303 48.6326 50.9679 48.8585 50.9715C49.4372 51.0409 49.7948 50.428 50.3842 50.5198C50.8476 51.2326 51.2958 51.9537 51.7558 52.6689C51.5311 52.8489 51.3523 53.1594 51.0888 53.2488C50.7029 52.9359 50.3642 52.5525 49.8983 52.3501C49.4478 52.096 48.9208 52.116 48.4232 52.1478C48.3762 52.1925 48.2844 52.2807 48.2374 52.3254C48.1974 53.15 48.2244 53.9758 48.2138 54.8004C48.2032 55.0451 48.2703 55.2815 48.3597 55.5086C48.6655 55.6462 48.969 55.7932 49.2714 55.9415C49.147 56.1772 49.0254 56.4145 48.9067 56.6531C47.7268 56.6802 46.5434 56.7025 45.3636 56.6461C45.2436 56.4179 45.1224 56.1897 44.9989 55.9626C45.2801 55.8332 45.5847 55.745 45.8424 55.5709C46.0364 55.3674 45.9929 55.0545 46.0164 54.7969C46.0176 53.0324 46.02 51.2667 46.0141 49.5022C46.02 48.9505 45.3824 48.827 44.9825 48.6517C45.1036 48.4 45.2401 48.1553 45.3942 47.9212C47.0998 47.933 48.8055 47.9224 50.51 47.9271ZM65.9176 47.9154C66.2187 47.9436 66.4175 47.693 66.6187 47.5119L67.1257 47.4907C67.568 48.213 68.0373 48.9188 68.4691 49.6469C68.2526 49.8704 68.0279 50.0857 67.7974 50.2939C66.9093 49.3717 65.5588 49.0552 64.3166 49.187C64.1413 49.2164 63.9955 49.3258 63.8426 49.4069C63.8378 49.8798 63.839 50.3527 63.8684 50.8256C64.3178 51.0032 64.873 51.0715 65.2718 50.7409C65.4835 50.5421 65.7694 50.5374 66.0446 50.535C66.4952 51.255 66.9575 51.9666 67.4092 52.6854C67.1927 52.8948 66.9704 53.0971 66.7387 53.29C66.1764 52.7148 65.4835 52.1043 64.6272 52.1302C64.3848 52.1537 64.039 52.0807 63.899 52.3348C63.832 52.763 63.8673 53.1983 63.8614 53.63C63.8731 54.204 63.8084 54.7887 63.9543 55.3521C64.2449 55.4274 64.5448 55.4521 64.846 55.4368C65.68 55.4027 66.5552 55.5533 67.3468 55.211C67.8421 55.031 68.2491 54.6946 68.6549 54.3711C68.9243 54.3534 69.096 54.6581 69.3078 54.7898C68.8784 55.5768 68.4161 56.3473 67.9397 57.1072C67.4292 57.1837 67.1257 56.659 66.6328 56.6884C64.7601 56.6578 62.8874 56.7143 61.0158 56.6555C60.9041 56.4249 60.7912 56.1955 60.6759 55.9673C60.9794 55.8227 61.2817 55.6733 61.584 55.5239C61.6393 55.2074 61.6781 54.8875 61.6734 54.5663C61.6652 52.9595 61.6711 51.3526 61.6711 49.7446C61.6581 49.5199 61.6711 49.2611 61.5181 49.0788C61.2582 48.8694 60.9276 48.7811 60.6253 48.6529C60.7559 48.4047 60.8935 48.16 61.037 47.9177C62.6639 47.9307 64.2907 47.9365 65.9176 47.9154ZM70.9629 47.9459C72.0922 47.873 73.2297 47.9542 74.3625 47.9083C74.5401 48.1318 74.6883 48.3777 74.7718 48.6529C74.4472 48.7753 74.1307 48.9188 73.8343 49.0987C73.7355 50.9162 73.8237 52.7407 73.7896 54.5616C73.7849 54.8886 73.7378 55.3639 74.1449 55.4698C75.5447 55.6309 77.1127 55.3745 78.1279 54.3158C78.3373 54.5146 78.5467 54.7134 78.7561 54.9145C78.3291 55.6403 77.8597 56.3402 77.4409 57.0707C77.2798 57.079 77.1198 57.0884 76.9598 57.0978C76.6963 56.879 76.4046 56.6484 76.0387 56.6814C74.3484 56.6778 72.658 56.6825 70.9676 56.6814C70.8241 56.4414 70.6817 56.2026 70.5418 55.9615C70.9194 55.7744 71.3393 55.638 71.6287 55.3133C71.5934 53.3347 71.6357 51.3561 71.611 49.3775C71.551 48.8988 70.9652 48.8247 70.6206 48.6129C70.717 48.3824 70.8017 48.1412 70.9629 47.9459ZM79.8936 48.5471C79.9885 48.2971 80.1026 48.0549 80.2347 47.8224C81.2993 47.8777 82.3674 47.8142 83.4332 47.8589C85.1283 47.9883 86.8833 48.6882 87.8879 50.1198C88.6255 51.155 88.916 52.503 88.6137 53.7441C88.4032 54.6146 87.9879 55.4886 87.2409 56.0203C86.4752 56.5355 85.5294 56.7049 84.6189 56.6849C83.1755 56.6696 81.7275 56.7272 80.2853 56.6567C80.103 56.4802 80.0336 56.2179 79.9171 55.9967C80.2759 55.7756 80.9123 55.6803 80.9135 55.1557C80.9135 53.2324 80.8982 51.3091 80.8805 49.3858C80.8993 48.8482 80.2735 48.7306 79.8936 48.5471ZM83.045 49.2105C83.072 51.2479 83.0767 53.2877 83.045 55.3251C83.712 55.378 84.4236 55.4239 85.0388 55.1121C85.6823 54.7957 86.0987 54.1346 86.2222 53.4406C86.4551 52.2301 86.1928 50.8738 85.3541 49.941C84.7942 49.2999 83.8661 49.0529 83.045 49.2105ZM33.8156 48.62C33.9355 48.3906 34.0532 48.1589 34.1708 47.9283C35.1648 47.9495 36.1588 47.9518 37.1516 47.9271C38.3656 49.3646 39.4725 50.8938 40.7147 52.3066C40.7359 51.342 40.7547 50.3739 40.7112 49.4093C40.53 48.9694 40.0019 48.8388 39.6196 48.6212C39.7407 48.3988 39.8548 48.173 39.9595 47.9424C40.8677 47.9471 41.777 47.9259 42.6851 47.9542C42.8015 48.1859 42.9274 48.4141 43.0615 48.6376C42.6169 48.8729 41.9675 49.1329 42.0075 49.7398C42.004 52.0466 42.024 54.3534 41.9958 56.659C41.6076 56.6755 41.2182 56.6802 40.83 56.679C39.4666 54.7957 38.0915 52.9206 36.7258 51.0385C36.6175 50.8694 36.4621 50.7357 36.2788 50.6539C36.2141 51.9937 36.287 53.3359 36.2482 54.6769C36.2306 54.9616 36.2706 55.2451 36.3623 55.5168C36.6634 55.6791 36.9634 55.8462 37.2657 56.0109C37.1399 56.2308 37.0305 56.4638 36.867 56.659C35.9706 56.6767 35.0672 56.7096 34.1732 56.6449C34.0238 56.4449 33.9297 56.2097 33.8214 55.9873C34.1943 55.7862 34.8531 55.7027 34.8354 55.158C34.8695 53.4335 34.8378 51.7055 34.8507 49.9798C34.8307 49.6916 34.8978 49.3352 34.6531 49.1223C34.399 48.9176 34.0991 48.78 33.8156 48.62ZM54.4919 48.6376C54.5978 48.3953 54.7166 48.1589 54.8472 47.9295C55.9929 47.9271 57.1387 47.9271 58.2856 47.9259C58.4291 48.1518 58.5726 48.3777 58.7149 48.6059C58.3809 48.7482 58.0538 48.9058 57.7445 49.0964C57.688 49.387 57.6445 49.681 57.6515 49.9786C57.6586 51.5843 57.6562 53.19 57.6515 54.7969C57.6633 55.0251 57.6304 55.3121 57.835 55.4698C58.0974 55.6744 58.4032 55.8121 58.6891 55.9791C58.5655 56.2026 58.4444 56.4261 58.3279 56.6531C57.1669 56.7049 56.0035 56.6778 54.8413 56.672C54.7177 56.4391 54.5958 56.2054 54.4754 55.9709C54.7801 55.8132 55.1201 55.698 55.3777 55.4615C55.4683 55.2968 55.46 55.1027 55.4694 54.9216C55.4589 53.11 55.4706 51.2997 55.4589 49.4881C55.4624 48.9717 54.873 48.8141 54.4919 48.6376Z" fill="#C8102E"/>
</svg>
