<svg width="90" height="90" viewBox="0 0 90 90" fill="none" xmlns="http://www.w3.org/2000/svg">
<rect width="90" height="90" rx="10" fill="white"/>
<path d="M26.8164 18.0052C26.8164 18.1371 27.8776 21.7659 29.1886 26.0215C30.4683 30.2771 31.5607 34.0048 31.5607 34.3017C31.5919 34.5986 30.5307 38.4913 29.1886 42.8789C27.8464 47.2994 26.8164 50.9942 26.8788 51.0602C26.9413 51.1261 30.5307 47.4314 34.8692 42.8459L42.7348 34.5327L34.7756 26.1205C30.4058 21.502 26.8164 17.8402 26.8164 18.0052Z" fill="#DA2A21"/>
<path d="M51.2541 26.1501L42.7344 34.3986L51.2541 42.7791C55.95 47.3983 59.8409 51.1266 59.8744 51.0607C59.9415 50.9947 58.8011 47.2333 57.3252 42.7131L54.6418 34.4976L57.2917 26.2821C58.7675 21.7619 59.908 18.0335 59.8744 18.0005C59.8409 17.9675 55.95 21.6299 51.2541 26.1501Z" fill="#DA2A21"/>
<path d="M8.70028 61.0442C7.22203 61.5895 6.43362 62.6604 6.43362 64.1987C6.43362 65.9122 7.49797 66.7106 10.6319 67.3726C13.3322 67.9373 14.16 68.7551 13.4701 70.1571C13.0562 71.0333 12.4255 71.4228 11.2232 71.5785C9.82376 71.7343 8.5426 71.1502 8.18782 70.196C7.93159 69.5145 7.89217 69.4951 6.96579 69.4951H6L6.13797 70.1182C6.55188 72.0459 8.06956 73 10.6713 73C14.1403 73 15.7959 71.7733 15.7959 69.164C15.7959 68.1515 15.7171 67.8789 15.3032 67.4505C14.5936 66.7106 13.7066 66.3017 11.4597 65.7175C9.37043 65.1723 8.60173 64.6855 8.60173 63.9066C8.60173 62.8162 9.56753 62.0957 11.0064 62.0957C11.9722 62.0957 13.1153 62.6994 13.273 63.2835C13.3519 63.5951 13.549 63.6535 14.4162 63.6535C15.4214 63.6535 15.4411 63.634 15.3426 63.1472C15.2046 62.4073 13.9629 61.2584 13.0168 60.9664C11.9327 60.6548 9.68579 60.6937 8.70028 61.0442Z" fill="black"/>
<path d="M18.2451 66.8776V73H19.1635H20.0819V70.2684V67.5181L23.1023 67.5746L26.1023 67.6311L26.1635 70.3061L26.2247 73H27.1227H28.041V66.8776V60.7551H27.1227H26.2043V63.3925V66.0298H23.1431H20.0819V63.3925V60.7551H19.1635H18.2451V66.8776Z" fill="black"/>
<path d="M30.7708 66.6445C29.3343 69.8912 28.0894 72.666 28.0511 72.7981C27.9745 72.9868 28.3192 73.0246 29.6216 72.9868L31.2879 72.9302L33.9502 66.9842C35.425 63.7187 36.6124 60.9816 36.6124 60.9061C36.6124 60.8117 35.8846 60.7551 35.0036 60.7551H33.4139L30.7708 66.6445Z" fill="#DA2A21"/>
<path d="M36.6123 66.887V73L37.3878 72.9436L38.1429 72.8871L38.245 68.1472L38.347 63.4072L42.1225 68.1848L45.898 72.9624L46.7756 72.9812H47.6327V66.8681V60.7551H46.8164H46.0001L45.9592 65.5327L45.898 70.2915L42.1225 65.5327L38.347 60.7739H37.4899L36.6123 60.7551V66.887Z" fill="black"/>
<path d="M46.4082 61.3672V61.9795H49.4694H52.5307V61.3672V60.755H49.4694H46.4082V61.3672Z" fill="black"/>
<path d="M54.3148 61.5827V62.4103L56.1169 62.4856C58.1639 62.5608 58.8463 62.8806 59.3187 63.9151C59.5636 64.4605 59.5636 64.6863 59.4062 65.2882C59.0737 66.4731 58.6188 66.6612 56.0119 66.7741L53.7549 66.8681L56.1869 69.8776L58.6188 72.8871L59.7211 72.9436L60.8234 73L59.4587 71.2883C58.6888 70.3479 57.9365 69.3698 57.7615 69.1253L57.4466 68.6927L58.4264 68.3729C61.9256 67.282 62.0131 62.3539 58.5664 61.0184C58.1814 60.8868 57.1492 60.7739 56.1169 60.7551H54.3148V61.5827Z" fill="black"/>
<path d="M67.0595 61.0489C66.7705 61.5964 62.3262 72.7546 62.3262 72.8867C62.3262 72.9622 62.7417 73 63.2656 72.9622L64.2051 72.9056L64.8374 71.2441L65.4516 69.6016H67.8364H70.2211L70.8896 71.3008L71.5761 73H72.4613C72.9491 73 73.3466 72.9245 73.3466 72.849C73.3466 72.7734 72.2987 70.0358 71.0341 66.7695L68.7216 60.8223L67.9628 60.7657C67.4028 60.7279 67.186 60.7845 67.0595 61.0489ZM68.812 65.5235C69.2275 66.543 69.5527 67.4492 69.5527 67.5436C69.5527 67.638 68.83 67.7136 67.9267 67.7136C67.0415 67.7136 66.3007 67.638 66.3007 67.5436C66.3007 67.4492 66.4091 67.0905 66.5537 66.7507C66.6801 66.3919 67.0234 65.4857 67.2944 64.7305C67.5654 63.9564 67.8544 63.4089 67.9267 63.5033C68.017 63.5788 68.4145 64.485 68.812 65.5235Z" fill="black"/>
<path d="M72.1221 60.8681C72.1221 60.9246 73.1454 62.6389 74.3852 64.6923L76.6483 68.4223V70.7206V73H77.6323H78.6162V70.7017V68.4035L80.8794 64.6923C82.1192 62.6389 83.1425 60.9246 83.1425 60.8681C83.1425 60.8116 82.6111 60.7551 81.9814 60.7551H80.8006L79.305 63.4867C78.4785 64.9937 77.7307 66.1805 77.6323 66.124C77.5339 66.0675 76.7861 64.843 75.9595 63.3925L74.4442 60.7551H73.2831C72.6534 60.7551 72.1221 60.7928 72.1221 60.8681Z" fill="black"/>
<path d="M46.4082 67.4898V68.1021H49.4694H52.5307V67.4898V66.8776H49.4694H46.4082V67.4898Z" fill="black"/>
<path d="M46.4082 72.3878V73H49.4694H52.5307V72.3878V71.7755H49.4694H46.4082V72.3878Z" fill="black"/>
</svg>
