<svg width="90" height="90" viewBox="0 0 90 90" fill="none" xmlns="http://www.w3.org/2000/svg">
<rect width="90" height="90" rx="10" fill="white"/>
<path fill-rule="evenodd" clip-rule="evenodd" d="M34.9425 54.7728H30.8303L28.5257 46.6149V54.7728H24.7747V35.235H28.3446L30.8751 43.4263L31.0563 35.1679H34.9425V54.7728ZM52.8826 52.0534C53.605 52.0196 54.3739 51.7176 54.3739 51.3151V38.3907C54.3739 37.9207 53.605 37.7194 52.8826 37.6861C52.1591 37.6861 51.3912 37.887 51.3912 38.2902V51.2142C51.3912 51.8517 52.1591 52.0871 52.8826 52.0534ZM52.8826 35.0671H53.0177C56.3626 35.0671 57.9886 35.8395 57.9886 38.5248V51.0467C57.9886 54.1349 56.4973 54.9066 53.1086 54.9066H52.8826C49.6739 54.8399 47.8663 53.765 47.8663 51.3151V38.4578C47.8663 35.8058 49.629 35.1008 52.8826 35.0671ZM75.9287 35.1008L72.268 54.8066H69.1048L67.116 44.0637L65.0829 54.7053H61.7834L58.1227 35.1008H61.964L63.2747 43.6271L65.1283 35.1008H69.0139L70.5053 43.6271L72.3134 35.1008H75.9287ZM87 54.8066H83.3393L80.6736 46.3803V54.7053H76.922V35.1008H80.6281L83.4302 43.6609V35.1008H87V54.8066ZM41.3143 52.4229C42.0822 52.3217 42.8505 51.9192 42.8505 51.2813V38.7598C42.8505 38.1223 42.1276 37.9878 41.3143 37.954C40.7271 37.9207 40.0939 37.9874 39.7327 37.9874V51.9859C39.7322 52.4229 40.5005 52.5571 41.3143 52.4229ZM41.3143 35.1008H41.7658C45.7423 35.1008 46.5556 37.0141 46.5556 38.8606V51.348C46.5556 54.2687 45.1551 54.7387 41.5847 54.7387H36.2077V35.1008H41.3143ZM2.31578 48.0248H5.79533V51.2138C5.79533 52.725 8.10043 52.3554 8.10043 51.2138L8.14531 47.2865C6.83514 46.0107 2.94897 44.6012 2.49692 43.9633C2.04542 43.3254 2 41.6468 2 40.8751V39.1965C2 36.5108 3.76222 35 7.15147 35C10.1795 35 11.7611 36.3429 11.7611 38.7936V41.7476H8.10043L7.91983 38.5586C7.87495 37.5853 5.79587 37.3836 5.84129 38.7602C5.88617 39.7673 5.57039 41.6472 6.11274 42.1842C7.91983 44.0304 11.0831 44.937 11.5805 45.6424C12.0775 46.3807 11.9872 47.9248 11.9872 48.831V51.0138C11.9872 53.7662 10.6764 54.9411 6.97141 54.9411C3.71734 54.9411 2.31686 53.6316 2.31686 51.148V48.0248H2.31578ZM13.2519 35.1679H17.0478V51.3155C17.0478 52.3558 19.3978 52.3221 19.3978 51.248V35.235H23.1482V51.7517C23.1482 55.8132 13.2524 56.4848 13.2524 51.3484L13.2519 35.1679Z" fill="#0033A0"/>
</svg>
