<svg width="90" height="90" viewBox="0 0 90 90" fill="none" xmlns="http://www.w3.org/2000/svg">
<rect width="90" height="90" rx="10" fill="white"/>
<path d="M38.7957 26.3437C39.2072 24.9948 40.2493 25.6832 40.2493 25.6832C40.2493 25.6832 42.9501 27.7477 50.3576 32.4797C57.7651 37.2117 67 30.6449 67 30.6449L45.0664 15C35.4462 25.2367 23.1328 28.9066 23.1328 28.9066L23.1677 28.9202L51.2043 48.6563C50.7928 50.0052 49.7507 49.3171 49.7507 49.3171C49.7507 49.3171 47.0499 47.2523 39.6424 42.52C32.2349 37.788 23 44.3551 23 44.3551L44.9336 60C54.5538 49.763 66.8672 46.0934 66.8672 46.0934L66.8317 46.0795L38.7957 26.3437Z" fill="#FF0016"/>
<path d="M13 73.5375L17.8642 73.5633C17.9478 74.0209 17.8164 74.0192 18.0722 74.258C18.4728 74.6308 19.0944 74.7156 19.6161 74.6237C20.0434 74.5488 20.7057 74.4182 20.7373 73.8878C20.7718 73.312 20.3733 73.1114 19.8732 73.0457C19.1818 72.9554 18.4841 72.9317 17.7947 72.8215C16.0187 72.5298 15.0743 72.3992 14.318 71.917C13.555 71.4344 13.4892 70.3836 13.4892 69.6355C13.4892 69.1438 13.6844 68.6799 14.0746 68.2418C14.4648 67.8054 15.0518 67.4618 15.8352 67.2109C16.619 66.9609 17.6928 66.8369 19.0578 66.8369C20.7319 66.8369 22.0095 67.0636 22.8877 67.5171C23.7672 67.9706 24.2902 68.982 24.457 69.97H20.3213C20.352 69.9114 20.2401 69.6468 20.2222 69.5806C20.0637 69.0069 19.51 68.8397 18.9796 68.7224C18.5448 68.6262 18.0481 68.6179 17.6562 68.8576C17.4178 69.004 17.2327 69.1583 17.2327 69.368C17.2327 69.5199 17.3309 69.6568 17.528 69.7786C17.7198 69.9043 18.1729 70.022 18.888 70.1302C20.6582 70.4098 21.9259 70.691 22.6922 70.9751C23.4577 71.2614 24.0148 71.6137 24.3638 72.0352C24.712 72.4566 24.8867 72.9284 24.8867 73.4501C24.8867 74.0633 24.6542 74.6283 24.1891 75.145C23.7248 75.6617 23.0754 76.0553 22.2412 76.3224C21.4067 76.5899 20.3554 76.723 19.0865 76.723C16.8587 76.723 15.3148 76.4101 14.4573 75.7844C13.5987 75.1596 13.1132 74.5035 13 73.5375ZM32.7359 67.0166H36.3308V73.7754C36.3308 75.1625 35.4693 76.1447 33.7456 76.7251C32.9481 76.9897 31.9921 76.9996 30.9096 76.9996C29.939 76.9996 29.0682 77.0175 28.2628 76.8079C26.3657 76.0499 25.4176 75.0389 25.4176 73.7754V67.0166H29.0379V72.8048C29.0379 73.8586 29.1777 74.6428 30.91 74.6428C32.6773 74.6428 32.7127 73.8245 32.7127 72.7707L32.7359 67.0166ZM56.2411 67.0166H59.8364V73.7754C59.8364 75.1625 58.9748 76.1447 57.2512 76.7251C56.4541 76.9897 55.4977 76.9996 54.4152 76.9996C53.4446 76.9996 52.5734 77.0175 51.7684 76.8079C49.8709 76.0499 48.9228 75.0389 48.9228 73.7754V67.0166H52.543V72.8048C52.543 73.8586 52.6832 74.6428 54.4152 74.6428C56.1824 74.6428 56.2178 73.8245 56.2178 72.7707L56.2411 67.0166ZM37.0705 67.0865H48.2059V69.1642L42.7664 74.0529H48.2064V76.7742H37.0705V74.4348L42.3849 69.6156H37.0805L37.0705 67.0865ZM60.7267 76.7571V67.0699H64.2958L64.295 70.6556L68.1445 67.0699H72.6114L67.4855 71.7648L72.8248 76.7571H68.0055L64.3304 73.2908L64.3653 76.7571H60.7267ZM76.8969 67.0686V76.7571H73.3349V67.0699H76.8969V67.0686Z" fill="#015CD0"/>
</svg>
