<svg width="90" height="90" viewBox="0 0 90 90" fill="none" xmlns="http://www.w3.org/2000/svg">
<rect width="90" height="90" rx="10" fill="white"/>
<path fill-rule="evenodd" clip-rule="evenodd" d="M26.9375 36.2941C26.9375 36.2941 27.4081 36.6596 27.4081 38.2807V47.4806C27.4081 48.579 27.7225 48.8924 28.3494 48.8924H31.3295C31.3295 48.8924 30.8066 48.2654 30.8066 47.3772V38.0185C30.8066 36.7638 30.5975 36.2411 29.8655 36.2411C29.1334 36.2411 26.9375 36.2941 26.9375 36.2941ZM33.0019 36.2409C33.0019 36.2409 33.4725 36.6066 33.4725 37.652V45.4426C33.4725 47.7948 35.4591 49.3108 38.1258 49.3108C40.5301 49.3108 41.4194 48.0563 41.4194 48.0563C41.4194 48.0563 41.5764 48.9445 42.4127 48.9445C43.2489 48.9445 45.2355 48.8924 45.2355 48.8924C45.2355 48.8924 44.7128 48.1084 44.7128 47.22V36.2411H40.8446C40.8446 36.2411 41.3152 36.921 41.3152 37.8613C41.3152 38.8025 41.2622 43.1945 41.2622 44.3442C41.2622 45.4938 40.8444 46.8537 39.0141 46.8537C37.1846 46.8537 36.9231 45.0241 36.9231 44.3442V37.4435C36.9231 36.8168 36.5576 36.189 36.087 36.189C35.6164 36.189 33.0019 36.2409 33.0019 36.2409ZM46.8037 36.2409C46.8037 36.2409 47.4836 36.7117 47.4836 37.9664V47.1151C47.4836 48.3697 46.9609 48.8924 46.9609 48.8924H50.5679C50.5679 48.8924 50.0973 48.3175 50.0973 47.1149V40.1102C50.0973 40.1102 51.5612 43.0894 52.4503 44.5535C53.3386 46.0174 54.1238 46.1225 54.8557 46.1737C55.5877 46.2259 55.9002 46.0174 55.9002 46.0174C55.9002 46.0174 57.6777 41.0507 58.5669 39.6388C58.4627 39.7437 58.5669 46.2259 58.5669 47.3242C58.5669 48.4218 58.044 48.9445 58.044 48.9445H62.0176C62.0176 48.9445 61.4947 48.1084 61.4947 47.22V37.8615C61.4947 36.8689 62.0176 36.2411 62.0176 36.2411C62.0176 36.2411 58.8282 36.2941 58.0962 36.2941C57.3641 36.2941 56.9988 36.6596 56.6323 37.652C56.2668 38.6462 54.8027 42.3574 54.8027 42.3574C54.8027 42.3574 52.921 38.4891 52.5026 37.5488C52.0841 36.6066 51.7705 36.189 50.9864 36.189C50.2024 36.189 46.8037 36.2409 46.8037 36.2409ZM67.7684 38.384C67.7684 38.384 68.9181 38.3319 69.2846 38.3319C69.6501 38.3319 71.114 38.7506 71.114 40.0051C71.114 42.6188 67.7686 42.9852 67.7686 42.9852L67.7684 38.384ZM63.6899 36.189H70.4341C72.5259 36.189 74.1983 37.7571 74.1983 40.2145C74.1983 44.2399 67.7684 45.0762 67.7684 45.0762V47.7425C67.7684 48.7358 67.3499 48.8922 66.9315 48.8922H63.6898C63.6898 48.8922 64.2655 48.1603 64.2655 47.3241V37.652C64.2655 36.8689 63.6898 36.189 63.6898 36.189" fill="#010202"/>
<path fill-rule="evenodd" clip-rule="evenodd" d="M87.5294 47.4296V36.2412H83.5039C83.5039 36.2412 83.9745 37.1294 83.9745 37.9144V39.691C82.3517 39.8747 80.775 40.6808 79.0606 41.8313V36.2413H75.0352C75.0352 36.2413 75.5049 37.1295 75.5049 37.9146V44.4248C69.7429 48.7509 61.7764 54.4702 46.9606 54.5915C27.8263 54.7479 22.3369 44.136 22.3369 44.136C22.3369 44.136 25.0556 43.0376 25.0556 40.1628C25.0556 37.8095 23.2251 36.1892 21.4487 36.1892C19.6702 36.1892 15.802 36.2941 15.802 36.2941L15.4882 33C15.4882 33 12.9788 33.2614 8.74412 33.2614C4.50948 33.2613 2.31338 33.0528 2.31338 33.0528L2 36.9734C3.25474 36.4505 7.0709 36.1891 7.0709 36.1891C7.0709 36.1891 7.01896 40.0575 7.01896 43.4041C7.01896 46.7497 6.1827 48.9447 6.1827 48.9447L11.6722 48.8926C11.6722 48.8926 10.783 46.5404 10.783 43.1948V36.1892C10.783 36.1892 14.3379 36.3977 14.8606 36.7119C15.1878 36.9075 15.3835 37.2348 15.3835 37.6012V47.3245C15.3835 48.0565 14.9136 48.9447 14.9136 48.9447L19.1475 48.8926C19.1475 48.8926 18.7299 48.2129 18.7299 47.6381C18.7299 47.0632 18.6769 44.9722 18.6769 44.9722L19.2005 44.9193C19.2005 44.9193 26.8851 56.4209 46.6994 56.4209C60.6063 56.4209 69.3569 51.5406 75.5467 47.6226C75.6544 48.4905 75.9806 48.9447 76.4462 48.9447H79.5312C79.5312 48.9447 79.0606 48.3178 79.0606 47.4294V44.7982C80.7339 43.5288 82.4661 42.5544 83.9745 42.0444V46.9592C83.9745 48.2659 84.3409 48.9449 84.9157 48.9449H88C88 48.9449 87.5294 48.318 87.5294 47.4296ZM18.7299 38.3843H20.1408C20.7165 38.3843 22.0755 38.8028 22.0755 40.0575C22.0755 42.6191 18.6768 42.9327 18.6768 42.9327L18.7299 38.3843Z" fill="#010202"/>
</svg>
