<svg width="90" height="90" viewBox="0 0 90 90" fill="none" xmlns="http://www.w3.org/2000/svg">
<g clip-path="url(#clip0_993_22847)">
<rect width="90" height="90" rx="10" fill="white"/>
<mask id="mask0_993_22847" style="mask-type:luminance" maskUnits="userSpaceOnUse" x="4" y="16" width="82" height="58">
<path d="M4 74H85.1298V16H4V74Z" fill="white"/>
</mask>
<g mask="url(#mask0_993_22847)">
<path d="M10.8707 74H14.0494L20.6773 59.8874H17.5564L12.3392 71.0064L12.3178 70.9625L11.5499 72.5732L10.8707 74ZM26.7459 73.9936C26.8485 73.9979 26.9523 74 27.0592 74H34.7567C36.8947 74 37.9643 73.1433 37.9643 71.4352V62.4543C37.9643 61.4115 37.5664 60.6853 36.7707 60.28L34.9514 62.1998C34.9642 62.2575 34.9706 62.3206 34.9706 62.3912V71.4973C34.9706 71.9465 34.6925 72.1829 34.115 72.1829H28.4614L26.7459 73.9936ZM23.8528 71.4352C23.8528 72.4706 24.2442 73.1914 25.0293 73.6011L26.8635 71.6812C26.8518 71.6246 26.8464 71.5625 26.8464 71.4973V62.3912C26.8464 61.941 27.1234 61.7046 27.701 61.7046H33.3128L35.0444 59.8949C34.9514 59.8917 34.8551 59.8874 34.7567 59.8874H27.0592C24.9212 59.8874 23.8528 60.7431 23.8528 62.4543V71.4352ZM44.8799 74H52.6576L53.5271 72.1829H45.7462L44.8799 74ZM41.1397 74H43.1954L44.1334 72.0534V59.8874H41.1397V74ZM58.8545 59.8874H58.6395L58.7037 60.0457L58.8545 59.8874ZM59.3935 61.7377V74H62.3872V61.7046H68.3744L69.2643 59.8874H60.9454L59.3336 61.5891L59.3935 61.7377ZM59.2224 61.7046H59.3807L59.3336 61.5891L59.2224 61.7046ZM53.4073 61.7046H57.1176L58.7037 60.0457L58.6395 59.8874H53.4073V61.7046ZM75.55 74H84.2603L85.1288 72.1829H77.2709L75.55 74ZM80.8271 59.8939L72.4761 59.8992L71.6729 61.7046H79.0944L80.8271 59.8939ZM71.459 74H73.458L75.1949 72.1829H75.0933L84.9287 61.7046V59.8874L82.9202 59.8917L81.2003 61.7046H81.2945L71.459 72.1829V74ZM4 59.8874L9.91027 72.4727L11.4889 69.1956L7.12198 59.8874H4Z" fill="black"/>
<path d="M46.1478 30.0784L44.8579 32.7073L40.2407 23.3681H36.4717L44.8365 40.1855L48.0227 33.8475L46.1478 30.0784ZM56.6902 16.7092H52.7126L49.2377 23.7852L51.1351 27.6538L55.1597 19.6472H55.179L56.6902 16.7092Z" fill="black"/>
<path d="M44.4685 52.8286L50.9916 39.8498L49.0782 36.0026L44.4888 45.3504L31.4329 18.9371H34.2522L34.2533 18.9382H41.8096L51.6002 38.6219L62.98 16.0001H58.9094L56.2687 21.3596L51.521 30.9918L44.123 16.0023L26.1494 16.0001L44.4685 52.8286Z" fill="black"/>
</g>
</g>
<defs>
<clipPath id="clip0_993_22847">
<rect width="90" height="90" rx="10" fill="white"/>
</clipPath>
</defs>
</svg>
