<svg width="90" height="90" viewBox="0 0 90 90" fill="none" xmlns="http://www.w3.org/2000/svg">
<rect width="90" height="90" rx="10" fill="white"/>
<path d="M58.3184 45.2674C54.8021 48.7848 49.8602 50.8318 44.8876 50.8318C39.9151 50.8318 34.9731 48.7848 31.4579 45.2674C27.9426 41.7521 25.8956 36.8113 25.8956 31.8399C25.8956 26.8662 27.9426 21.9254 31.4579 18.4102C34.9731 14.8949 39.9151 12.8479 44.8876 12.8479C49.8602 12.8479 54.8021 14.8949 58.3184 18.4102C61.8337 21.9254 63.8807 26.8662 63.8807 31.8399C63.8807 36.8102 61.8337 41.7521 58.3184 45.2674ZM58.9158 17.8106C55.243 14.1389 50.0812 12 44.8876 12C39.6941 12 34.5322 14.1389 30.8605 17.8106C27.1877 21.4823 25.0488 26.6452 25.0488 31.8399C25.0488 37.0323 27.1877 42.1941 30.8605 45.8658C34.5322 49.5386 39.6941 51.6775 44.8876 51.6775C50.0822 51.6775 55.243 49.5408 58.9158 45.8658C62.5875 42.1941 64.7264 37.0323 64.7264 31.8399C64.7264 26.6452 62.5875 21.4823 58.9158 17.8106Z" fill="#F30B16"/>
<path d="M43.7976 31.203V32.4621L44.8894 33.0922L45.9812 32.4621V31.203L44.8894 30.5729L43.7976 31.203ZM45.8388 28.186V25.5103C45.8374 25.2591 45.7376 25.0184 45.5607 24.8397C45.3855 24.6636 45.138 24.563 44.8894 24.563C44.6408 24.563 44.3945 24.6647 44.2192 24.8397C44.0421 25.0182 43.9422 25.259 43.9411 25.5103V28.186L44.8905 28.7329L45.8388 28.186ZM38.9323 34.1729C38.7156 34.2995 38.5568 34.5055 38.4899 34.7472C38.4259 34.99 38.4606 35.2482 38.5863 35.4656C38.712 35.683 38.9186 35.842 39.1612 35.9079C39.4045 35.9712 39.6629 35.9374 39.8817 35.8138L42.2011 34.4759V33.382L41.2516 32.8351L38.9323 34.1729ZM50.8455 34.1729L48.5261 32.8351L47.5767 33.382V34.4781L49.896 35.816C50.1147 35.9403 50.3733 35.9741 50.6166 35.91C50.8592 35.8439 51.0661 35.6852 51.1926 35.4681C51.3169 35.25 51.3502 34.9918 51.2853 34.7493C51.2203 34.5069 51.0623 34.2998 50.8455 34.1729Z" fill="#F30B16"/>
<path d="M58.5823 39.9383C58.5274 39.9639 58.4659 39.9719 58.4063 39.9613L54.244 39.1819C54.1412 39.1626 54.0476 39.1099 53.9777 39.0321C53.9077 38.9543 53.8654 38.8556 53.8571 38.7513C53.8319 38.4517 53.7169 38.1668 53.527 37.9337C53.3348 37.7028 53.0767 37.5361 52.7873 37.4559C52.4978 37.3756 52.1908 37.3856 51.9071 37.4845C51.4001 37.6631 50.8604 37.73 50.3252 37.6803C49.7899 37.6307 49.2717 37.4658 48.8062 37.197L47.5732 36.4876V44.5859H45.8364V35.4842L44.8887 34.9377L43.9411 35.4842V44.5859H42.2053V36.4876L40.9713 37.197C40.5059 37.4662 39.9877 37.6313 39.4524 37.6809C38.917 37.7305 38.3773 37.6635 37.8704 37.4845C37.6585 37.4095 37.4323 37.3843 37.2091 37.4108C36.986 37.4372 36.7719 37.5147 36.5835 37.6372C36.3951 37.7597 36.2373 37.9239 36.1226 38.117C36.0078 38.3102 35.939 38.5273 35.9215 38.7513C35.9133 38.8554 35.8711 38.954 35.8013 39.0318C35.7316 39.1096 35.6383 39.1624 35.5356 39.1819L31.3723 39.9613C31.3279 39.9691 31.2824 39.9666 31.2391 39.9541C31.1958 39.9416 31.156 39.9194 31.1227 39.8891C31.0893 39.8588 31.0634 39.8213 31.0468 39.7794C31.0302 39.7376 31.0234 39.6925 31.0269 39.6476C31.0326 39.5872 31.0566 39.53 31.0957 39.4836L33.8513 36.2701C33.9188 36.1903 34.0109 36.1351 34.1132 36.1132C34.2154 36.0912 34.322 36.1037 34.4164 36.1488C34.6864 36.2767 34.9946 36.3193 35.2886 36.2701C35.5826 36.2209 35.8603 36.0799 36.0734 35.8711C36.2866 35.6635 36.433 35.3869 36.4888 35.094C36.5868 34.5653 36.7984 34.0641 37.1091 33.6252C37.4197 33.1862 37.8219 32.8199 38.2879 32.5516L39.5219 31.8411L32.5068 27.7914L33.3747 26.2885L41.2577 30.8399L42.2053 30.2934V29.1993L34.3224 24.6479L35.1892 23.1449L42.2043 27.1946V25.7682C42.2043 25.2337 42.3212 24.6981 42.5442 24.2107C42.7694 23.7243 43.0984 23.287 43.505 22.9384C43.7325 22.7419 43.8946 22.4807 43.9696 22.1897C44.0446 21.8987 44.0289 21.5916 43.9247 21.3097C43.8182 21.029 43.6292 20.787 43.3825 20.6157C43.2969 20.5558 43.233 20.4696 43.2007 20.3702C43.1683 20.2708 43.1692 20.1636 43.2033 20.0648L44.61 16.0708C44.6304 16.0138 44.6679 15.9644 44.7174 15.9294C44.7669 15.8944 44.826 15.8754 44.8866 15.8752C44.9472 15.8754 45.0062 15.8944 45.0557 15.9294C45.1052 15.9644 45.1427 16.0138 45.1631 16.0708L46.5709 20.0648C46.605 20.1636 46.6059 20.2708 46.5735 20.3702C46.5412 20.4696 46.4774 20.5558 46.3917 20.6157C46.1446 20.7868 45.9558 21.0294 45.8507 21.311C45.7456 21.5926 45.7292 21.8996 45.8036 22.1907C45.8779 22.4793 46.043 22.7438 46.2692 22.9384C46.6772 23.2885 47.0047 23.7227 47.2293 24.2111C47.454 24.6995 47.5706 25.2306 47.5711 25.7682V27.1935L54.5861 23.1439L55.454 24.6468L47.5711 29.1982V30.2923L48.5187 30.8388L56.4017 26.2874L57.2695 27.7903L50.2555 31.84L51.4896 32.5505C51.9548 32.8199 52.3565 33.1865 52.6672 33.6252C52.9778 34.064 53.1902 34.5646 53.2898 35.0929C53.3445 35.3858 53.492 35.6624 53.7041 35.8701C53.9172 36.0788 54.1959 36.2198 54.4889 36.269C54.784 36.3182 55.0922 36.2756 55.3611 36.1477C55.4555 36.1028 55.5621 36.0904 55.6643 36.1123C55.7665 36.1343 55.8585 36.1894 55.9262 36.269L58.6818 39.4825C58.7207 39.5288 58.7446 39.5858 58.75 39.646C58.7555 39.7063 58.7424 39.7667 58.7124 39.8192C58.6832 39.8721 58.6375 39.9139 58.5823 39.9383ZM56.7919 19.9336C53.6756 16.8163 49.2959 15.0029 44.8877 15.0029C40.4805 15.0029 36.1007 16.8174 32.9834 19.9336C29.8661 23.0509 28.0527 27.4307 28.0527 31.8389C28.0527 36.245 29.8661 40.6269 32.9834 43.7443C36.1007 46.8594 40.4805 48.6739 44.8877 48.6739C49.2948 48.6739 53.6756 46.8594 56.7919 43.7443C59.9092 40.6269 61.7237 36.2472 61.7237 31.8389C61.7237 27.4307 59.9092 23.0509 56.7919 19.9336Z" fill="#F30B16"/>
<path d="M59.958 76.9998V57.0557H63.4497V64.7004H67.2734V57.0557H70.8431V76.9998H67.2734V68.243H63.4497V76.9998H59.958ZM8.87716 69.2857L5 57.0557H8.4845L10.8715 64.8258L13.51 57.0557H16.7753L12.7563 68.8884V76.9998H8.87716V69.2857ZM29.6211 76.9998H32.7486V61.9663L35.4167 75.0358H38.337L40.7035 61.7551V76.9998H44.3701V57.0557H38.688L37.0138 66.543L35.0736 57.0557H29.6211V76.9998ZM76.9996 69.0349L78.4865 60.1152L79.9285 69.0349H76.9996ZM81.4853 57.0557H76.0843L72.4388 76.9998H75.6705L76.4446 72.3584H80.4657L81.2173 76.9998H84.7777L81.4853 57.0557ZM50.5254 69.0349L52.0123 60.1152L53.4549 69.0349H50.5254ZM55.0117 57.0557H49.6108L45.9659 76.9998H49.1976L49.9711 72.3584H53.9914L54.7425 76.9998H58.3035L55.0117 57.0557ZM20.1886 69.0349L21.6754 60.1152L23.118 69.0349H20.1886ZM24.6748 57.0557H19.2739L15.6284 76.9998H18.8614L19.6349 72.3584H23.6552L24.4062 76.9998H27.9666L24.6748 57.0557Z" fill="#F30B16"/>
</svg>
