<svg width="90" height="90" viewBox="0 0 90 90" fill="none" xmlns="http://www.w3.org/2000/svg">
<rect width="90" height="90" rx="10" fill="white"/>
<path fill-rule="evenodd" clip-rule="evenodd" d="M85.5238 36.2357L61.2047 36.2386C60.5836 36.2386 60.1766 36.0532 60.1766 35.1996V31.5914C60.1766 30.5506 59.6167 30 58.6001 30L30.761 30.001C29.7206 30.001 29.1855 30.5869 29.1855 31.5819L29.1836 35.1901C29.1836 35.9519 28.8244 36.2291 28.1555 36.2291L12.2186 36.2338C10.9994 36.2338 10.2857 36.8159 9.91784 37.5806L2.1586 52.7542C2.05565 52.953 2.00129 53.1735 2 53.3974C2 53.9986 2.39365 54.7738 3.48 54.7738L28.1536 54.7709C28.9151 54.7709 29.1817 55.1169 29.1817 55.8099L29.1798 59.4181C29.1798 60.5049 29.8113 61 30.7591 61L44.6801 60.999L58.5972 60.9981C59.545 60.9981 60.1757 60.5393 60.1757 59.4277L60.1737 55.8195C60.1737 55.0816 60.4871 54.7805 61.2018 54.7805L76.6735 54.7767C77.7407 54.7767 78.5079 54.4957 79.043 53.5016L86.7143 38.5068C86.8825 38.1827 87 37.9983 87 37.6131C87.0029 36.5942 86.1248 36.2357 85.5238 36.2357ZM79.3955 42.2803L75.697 49.5168C75.4658 49.9364 75.053 49.9546 74.7635 49.9546H56.4045C55.643 49.9546 55.3649 50.3006 55.3649 50.9926L55.3611 55.1552C55.3611 55.8472 55.0592 56.1779 54.3197 56.1779H44.682L35.0377 56.1798C34.3927 56.1798 33.9981 55.9533 33.9981 55.1447L33.9962 50.9821C33.9962 50.2213 33.6475 49.9498 32.9567 49.9498H10.4491C9.89587 49.9498 9.51369 49.6009 9.51369 49.1173C9.51369 48.9777 9.54904 48.8449 9.61018 48.7292L13.3087 41.4927C13.4502 41.2356 13.6823 41.0598 14.2413 41.0598L32.9567 41.0607C33.6026 41.0607 34.0039 40.8007 34.0039 40.016L34.0029 35.8544C34.0029 35.1155 34.3249 34.8192 35.0396 34.8192L54.3235 34.8183C55.0162 34.8183 55.3611 35.126 55.3611 35.8639L55.3592 40.0256C55.3592 40.7405 55.6917 41.0578 56.4064 41.0578H78.5576C79.2627 41.0578 79.493 41.5224 79.493 41.8904C79.4913 42.0262 79.458 42.1597 79.3955 42.2803Z" fill="#F3C623"/>
</svg>
