<svg width="90" height="90" viewBox="0 0 90 90" fill="none" xmlns="http://www.w3.org/2000/svg">
<rect width="90" height="90" rx="10" fill="white"/>
<g filter="url(#filter0_i_952_1576)">
<path d="M45 33.208C26.616 33.208 11.715 38.29 11.715 44.506C11.715 50.722 26.616 55.801 45 55.801C63.381 55.801 78.282 50.722 78.282 44.506C78.282 38.287 63.381 33.208 45 33.208ZM27.906 51.928C25.938 51.943 24.207 50.728 24.006 48.625C23.8918 47.5292 24.208 46.4319 24.888 45.565C25.473 44.803 26.463 44.17 27.3 44.014C27.57 43.963 27.939 43.996 28.092 44.176C28.329 44.455 28.26 44.758 28.023 44.878C27.384 45.205 26.613 45.763 26.232 46.528C26.0575 46.8524 25.9748 47.2183 25.9927 47.5862C26.0107 47.9541 26.1287 48.3102 26.334 48.616C27.123 49.807 29.325 49.84 31.371 47.941C31.878 47.473 32.331 47.029 32.79 46.501C33.69 45.469 33.99 45.091 35.19 43.429C35.205 43.411 35.208 43.387 35.202 43.375C35.193 43.354 35.175 43.345 35.142 43.345C34.341 43.366 33.642 43.606 32.967 44.11C32.772 44.254 32.49 44.233 32.367 44.047C32.229 43.837 32.328 43.558 32.553 43.402C33.642 42.643 34.833 42.508 36.051 42.301C36.051 42.301 36.135 42.307 36.204 42.211C36.705 41.572 37.08 40.996 37.614 40.348C38.148 39.688 38.844 39.088 39.372 38.632C40.11 37.996 40.584 37.783 41.064 37.522C41.193 37.456 41.049 37.375 41.01 37.375C38.322 36.871 35.529 36.217 32.859 37.207C31.011 37.897 30.198 39.361 30.588 40.342C30.867 41.035 31.779 41.152 32.637 40.732C33.3831 40.362 34.0162 39.7983 34.47 39.1C34.731 38.698 35.28 38.986 34.983 39.685C34.203 41.518 32.712 42.976 30.894 43.039C29.346 43.087 28.347 41.95 28.35 40.546C28.356 37.774 31.44 35.95 34.68 35.68C38.583 35.356 42.279 36.397 46.155 36.865C49.122 37.225 51.969 37.234 54.951 36.547C55.305 36.472 55.551 36.697 55.53 37.051C55.5 37.567 55.101 38.062 54.12 38.599C53.001 39.211 51.831 39.397 50.61 39.409C47.658 39.433 44.907 38.281 42.06 37.663C42.066 37.786 42.096 37.936 41.991 38.014C40.416 39.178 38.991 40.36 38.037 42.016C38.004 42.055 38.022 42.091 38.076 42.088C38.907 42.043 39.651 42.022 40.425 41.962C40.56 41.95 40.566 41.917 40.554 41.818C40.5116 41.5113 40.544 41.1988 40.6485 40.9074C40.753 40.6159 40.9264 40.354 41.154 40.144C41.67 39.685 42.315 39.634 42.744 39.964C43.224 40.342 43.185 41.023 42.918 41.533C42.7991 41.757 42.6364 41.9547 42.4395 42.1145C42.2426 42.2743 42.0156 42.3928 41.772 42.463C41.772 42.463 41.682 42.481 41.694 42.565C41.712 42.694 42.294 43.018 42.345 43.105C42.396 43.186 42.369 43.315 42.282 43.411C42.2474 43.4532 42.2039 43.4871 42.1546 43.5105C42.1054 43.5338 42.0515 43.546 41.997 43.546C41.898 43.546 41.838 43.51 41.709 43.441C41.4002 43.2772 41.1253 43.0563 40.899 42.79C40.827 42.697 40.788 42.694 40.602 42.703C39.765 42.754 38.46 42.88 37.575 42.991C37.362 43.015 37.329 43.057 37.287 43.132C35.877 45.457 34.371 47.962 32.718 49.642C30.942 51.442 29.469 51.916 27.906 51.928ZM66.15 40.63C65.877 41.104 60.603 49.132 60.27 49.96C60.165 50.224 60.15 50.425 60.258 50.572C60.534 50.944 61.149 50.725 61.533 50.458C62.676 49.672 63.468 48.718 64.344 47.884C64.395 47.845 64.482 47.83 64.539 47.884C64.668 48.004 64.857 48.157 64.989 48.295C65.0007 48.3058 65.0102 48.3188 65.0169 48.3332C65.0236 48.3477 65.0273 48.3633 65.0278 48.3792C65.0284 48.3952 65.0258 48.411 65.0201 48.4259C65.0145 48.4408 65.006 48.4544 64.995 48.466C64.1936 49.4733 63.2841 50.3898 62.283 51.199C60.873 52.291 59.466 52.57 58.767 51.871C58.5205 51.6138 58.3719 51.2784 58.347 50.923C58.341 50.752 58.254 50.743 58.173 50.821C57.339 51.646 55.893 52.558 54.579 51.907C53.481 51.367 53.226 50.053 53.43 48.949C53.433 48.925 53.412 48.769 53.277 48.859C53 49.0604 52.6973 49.2239 52.377 49.345C52.0326 49.5023 51.6576 49.5812 51.279 49.576C51.0068 49.5791 50.7385 49.5106 50.501 49.3774C50.2636 49.2442 50.0653 49.051 49.926 48.817C49.7489 48.4979 49.6512 48.1408 49.641 47.776C49.638 47.743 49.59 47.68 49.542 47.761C48.642 49.132 47.805 50.458 46.917 51.85C46.869 51.916 46.827 51.958 46.737 51.961L44.976 51.964C44.868 51.964 44.817 51.88 44.874 51.775C45.186 51.175 46.896 48.685 48.054 46.567C48.375 45.985 48.309 45.685 48.111 45.556C47.862 45.394 47.367 45.637 46.95 45.955C45.813 46.816 44.859 48.16 44.373 48.76C44.088 49.111 43.818 49.633 43.074 50.44C41.901 51.715 40.344 52.447 38.85 51.94C38.4554 51.8063 38.0996 51.5777 37.814 51.2743C37.5284 50.9709 37.3217 50.602 37.212 50.2C37.167 50.044 37.08 50.002 36.993 50.104C36.753 50.404 36.258 50.851 35.844 51.13C35.799 51.163 35.688 51.229 35.592 51.181C35.4114 51.0056 35.2577 50.8044 35.136 50.584C35.1179 50.544 35.1128 50.4993 35.1214 50.4563C35.13 50.4132 35.1519 50.374 35.184 50.344C35.775 49.825 36.099 49.531 36.357 49.204C36.549 48.964 36.696 48.694 36.867 48.259C37.227 47.353 38.046 45.661 39.681 44.785C40.285 44.443 40.949 44.22 41.637 44.128C41.937 44.098 42.186 44.134 42.276 44.368C42.309 44.467 42.393 44.683 42.444 44.842C42.477 44.938 42.453 45.013 42.339 45.055C41.379 45.421 40.41 45.988 39.744 46.885C38.985 47.899 38.781 49.123 39.288 49.825C39.657 50.335 40.254 50.425 40.83 50.242C41.7 49.966 42.444 49.153 42.828 48.253C43.242 47.266 43.308 46.102 43.002 45.076C42.954 44.899 42.999 44.764 43.113 44.668C43.344 44.479 43.665 44.332 43.758 44.284C43.8496 44.235 43.9561 44.2217 44.0569 44.2466C44.1578 44.2715 44.2458 44.333 44.304 44.419C44.622 44.89 44.793 45.553 44.814 46.24C44.832 46.387 44.892 46.39 44.964 46.315C45.534 45.709 46.062 45.061 46.668 44.575C47.223 44.134 47.934 43.774 48.597 43.789C49.455 43.807 49.881 44.389 49.854 45.427C49.851 45.559 49.944 45.547 50.007 45.46C50.2058 45.1613 50.4486 44.8943 50.727 44.668C51.321 44.179 51.927 43.96 52.56 44.002C53.34 44.062 53.964 44.773 53.835 45.583C53.8039 45.8392 53.7109 46.084 53.564 46.2962C53.4171 46.5084 53.2208 46.6816 52.992 46.801C52.7996 46.9035 52.5809 46.9457 52.3642 46.9221C52.1475 46.8986 51.9429 46.8104 51.777 46.669C51.6484 46.5474 51.5541 46.3942 51.5036 46.2246C51.453 46.055 51.448 45.8751 51.489 45.703C51.504 45.628 51.408 45.559 51.327 45.643C50.565 46.435 50.508 47.461 51.006 47.923C51.555 48.433 52.38 48.091 52.98 47.698C54.078 46.981 54.93 46.009 55.917 45.259C56.571 44.761 57.318 44.317 58.155 44.206C58.6148 44.1357 59.085 44.1896 59.517 44.362C60.117 44.605 60.495 45.112 60.543 45.55C60.555 45.679 60.651 45.694 60.732 45.58C61.206 44.842 63.747 41.029 63.957 40.63C64.017 40.507 64.089 40.489 64.224 40.489H66.042C66.147 40.489 66.195 40.549 66.15 40.63ZM59.19 47.242C59.1714 47.2793 59.1682 47.3224 59.181 47.362C59.19 47.422 59.271 47.482 59.349 47.512C59.379 47.521 59.394 47.542 59.361 47.608C59.136 48.088 58.932 48.364 58.65 48.781C58.4008 49.1495 58.0974 49.4782 57.75 49.756C57.216 50.197 56.478 50.677 55.866 50.356C55.596 50.215 55.476 49.834 55.485 49.528C55.497 48.664 55.881 47.776 56.592 46.903C57.456 45.838 58.413 45.286 59.04 45.589C59.688 45.898 59.484 46.654 59.19 47.242ZM41.343 41.599C41.3204 41.4073 41.3447 41.213 41.4137 41.0328C41.4826 40.8525 41.5943 40.6917 41.739 40.564C41.91 40.414 42.138 40.378 42.279 40.498C42.435 40.633 42.36 40.969 42.201 41.2C42.0283 41.4601 41.7672 41.6488 41.466 41.731C41.412 41.743 41.364 41.719 41.343 41.599ZM45 31C25.02 31 9 36.991 9 44.5C9 51.964 25.149 58 45 58C64.851 58 81 51.94 81 44.5C81 37.06 64.851 31 45 31ZM45 56.824C25.947 56.824 10.5 51.31 10.5 44.506C10.5 37.699 25.95 32.185 45 32.185C64.05 32.185 79.494 37.699 79.494 44.506C79.494 51.31 64.05 56.824 45 56.824Z" fill="#003399"/>
</g>
<defs>
<filter id="filter0_i_952_1576" x="9" y="31" width="72" height="31" filterUnits="userSpaceOnUse" color-interpolation-filters="sRGB">
<feFlood flood-opacity="0" result="BackgroundImageFix"/>
<feBlend mode="normal" in="SourceGraphic" in2="BackgroundImageFix" result="shape"/>
<feColorMatrix in="SourceAlpha" type="matrix" values="0 0 0 0 0 0 0 0 0 0 0 0 0 0 0 0 0 0 127 0" result="hardAlpha"/>
<feOffset dy="4"/>
<feGaussianBlur stdDeviation="2"/>
<feComposite in2="hardAlpha" operator="arithmetic" k2="-1" k3="1"/>
<feColorMatrix type="matrix" values="0 0 0 0 0 0 0 0 0 0 0 0 0 0 0 0 0 0 0.5 0"/>
<feBlend mode="normal" in2="shape" result="effect1_innerShadow_952_1576"/>
</filter>
</defs>
</svg>
