<svg width="90" height="90" viewBox="0 0 90 90" fill="none" xmlns="http://www.w3.org/2000/svg">
<rect width="90" height="90" rx="10" fill="white"/>
<path d="M18.1524 61.1632C22.2458 61.1632 29.7475 61.1468 29.7475 61.1468V64.8527C29.7475 64.8527 17.6318 64.8476 12.8874 64.8552C11.1028 64.859 11.2181 65.0604 11.2067 66.8563C11.1953 68.7181 11.2269 70.5812 11.1978 72.443C11.1813 73.4968 11.2991 73.9832 12.3845 73.9743C15.7105 73.9477 19.0364 73.9642 22.3623 73.9642C22.9183 73.9642 23.4946 73.8996 23.6529 73.2726C23.8353 72.5494 23.8885 71.7756 23.6301 71.065C23.52 70.7649 23.064 70.9321 22.7689 70.9308C20.7298 70.9181 15.7725 70.946 15.7725 70.946L15.7573 67.9456C15.7573 67.9456 24.3356 67.9253 27.8388 67.9177C29.5335 67.9139 29.6348 68.0127 29.5955 69.7263C29.5575 71.3652 29.631 73.0066 29.3967 74.6392C29.113 76.6087 28.1061 77.6207 26.1619 77.6409C20.8855 77.6941 15.6079 77.7562 10.3327 77.6928C6.73198 77.6498 5.23746 76.04 5.07534 72.4481C4.97529 70.2304 4.96515 68.0165 5.10447 65.8013C5.27166 63.1251 6.76237 61.5901 9.43857 61.3393C12.667 61.0391 15.9068 61.2266 18.1524 61.1632ZM66.5316 68.9183C66.5316 71.4741 66.4658 73.93 66.5607 76.3807C66.6051 77.5269 66.5607 77.7422 66.5607 77.7422L60.451 77.6903C60.451 77.6903 60.4522 77.3889 60.451 76.7277C60.4446 71.8034 60.4358 66.2357 60.4193 61.3114C60.4193 61.3114 64.2468 61.2975 65.7983 61.3051C66.6241 61.3089 66.9027 61.9156 67.1991 62.5248C68.6898 65.5885 70.1856 68.6498 71.6826 71.7097C71.9701 72.2974 72.269 72.8787 72.687 73.7083C73.4646 72.1479 74.1587 70.7889 74.8236 69.4147C75.9243 67.1451 77.0249 64.8767 78.0875 62.5894C78.5511 61.5926 79.216 61.0822 80.3622 61.1442C81.6009 61.2114 84.9914 61.1392 84.9914 61.1392C84.9914 61.1392 84.9724 71.6426 84.9978 76.4339C85.0028 77.4218 84.9978 77.7714 84.9978 77.7714L78.8956 77.7612C78.8956 77.7612 78.8829 77.4408 78.8956 76.672C78.9374 74.106 78.912 71.5387 78.912 68.9335C78.28 69.0196 78.242 69.5351 78.0723 69.8897C77.0553 72.0023 76.0167 74.106 75.0909 76.2591C74.6235 77.3458 73.9206 77.8651 72.7706 77.8423C71.5864 77.8195 70.7391 77.2837 70.2869 76.1793C69.4327 74.0908 68.4774 72.045 67.4245 70.0493C67.2295 69.682 67.1725 69.2045 66.5316 68.9183ZM58.8615 61.1556C57.1592 66.3801 55.4912 71.5793 53.8194 76.7011C53.7649 76.8683 53.7155 77.071 53.5939 77.1761C52.8606 77.8892 50.8063 77.6979 49.2738 77.684C48.5949 77.6637 48.2643 77.1153 48.0604 76.52C47.3144 74.3466 46.5811 72.1682 45.8313 69.9961C45.6363 69.4312 45.3981 68.8815 45.155 68.2622C45.155 68.2622 42.6865 74.3289 41.9443 76.5973C41.6847 77.3927 41.2515 77.7397 40.4004 77.7182C35.837 77.6055 36.9681 78.2831 35.5698 74.3163C34.0436 69.9872 32.6454 65.6139 31.1572 61.1569H36.8528L40.4637 71.2766C40.4637 71.2766 42.651 65.092 43.4413 62.5602C43.6959 61.7484 43.9733 61.1214 45.0194 61.0974C46.0745 61.0721 46.3746 61.6851 46.633 62.502C47.4309 65.03 49.2383 70.9523 49.769 71.3488C50.6796 68.5446 52.9619 61.1569 52.9619 61.1569C52.9619 61.1569 58.6411 61.1088 58.8615 61.1556ZM44.9701 49.2426C38.2194 49.2071 31.7525 48.0267 25.9276 44.3879C22.09 41.9891 19.0795 38.8278 17.9332 34.3443C16.2829 27.89 18.5754 22.6731 23.5073 18.5125C27.6223 15.041 32.544 13.3425 37.79 12.5775C45.4488 11.4605 52.9872 11.843 60.2546 14.7965C62.6079 15.7528 64.7724 17.032 66.7039 18.6924C74.5868 25.4709 74.5121 35.9971 66.5025 42.6401C61.9923 46.3802 56.6412 48.0824 50.9405 48.8816C48.9596 49.1603 46.9674 49.2324 44.9701 49.2426ZM45.0347 46.8919C47.8299 46.8627 50.6163 46.7196 53.3697 46.208C57.9964 45.3467 62.3723 43.8877 65.9743 40.6909C72.0917 35.2613 72.4274 26.6551 66.771 20.7569C64.4646 18.3517 61.7188 16.5975 58.6487 15.3551C52.0171 12.6725 45.1499 12.2356 38.1599 13.4109C32.4009 14.3798 27.1904 16.5431 23.0906 20.8772C17.723 26.55 17.9117 34.6786 23.5086 40.145C25.1095 41.7092 26.9624 42.9023 28.9889 43.837C34.0829 46.1852 39.4986 46.8514 45.0347 46.8919Z" fill="#282828"/>
<path d="M45.8315 21.7055L54.8341 27.1161C54.829 28.6246 54.7999 32.1658 54.7999 32.1658C54.468 37.1053 57.8054 38.0717 61.301 36.9964C65.2552 35.7805 67.4019 31.3046 66.1823 26.954C65.2894 23.7712 63.1362 21.6168 60.4385 19.9197C56.2197 17.2663 51.5005 16.3987 46.6269 16.1517C40.9984 15.8667 35.565 16.6976 30.5355 19.3599C27.0348 21.2128 24.3751 23.832 23.5987 27.928C22.588 33.2677 26.8575 38.0806 31.8844 37.2738C34.0071 36.9331 35.1381 35.6564 35.1787 33.4615C35.2141 31.5098 35.2091 28.7588 35.1749 26.8071L44.1926 21.6624C44.1217 26.4069 44.2863 32.3685 44.0242 37.1104C43.8342 40.5402 41.7811 42.6363 38.3729 43.053C34.13 43.5723 30.1632 42.8542 26.5434 40.5263C20.1765 36.4303 18.8124 28.351 23.472 22.3565C26.3838 18.6101 30.3696 16.6419 34.8658 15.5184C43.1414 13.4527 51.2852 13.6706 59.2391 16.9458C63.8379 18.8406 67.3449 21.8866 68.7749 26.8071C70.1655 31.5934 68.9775 35.8502 65.2539 39.1141C61.0287 42.8187 55.9879 43.9801 50.4835 42.787C47.8111 42.2082 46.2507 40.4161 46.043 37.6778C45.6441 32.4546 45.9569 27.2187 45.8315 21.7055Z" fill="#282828"/>
</svg>
