<svg width="90" height="90" viewBox="0 0 90 90" fill="none" xmlns="http://www.w3.org/2000/svg">
<rect width="90" height="90" rx="10" fill="white"/>
<path fill-rule="evenodd" clip-rule="evenodd" d="M28.2212 29.5049V43.1315C28.2212 46.7638 25.4456 49.7335 22.0418 49.7335H11.1794C7.77558 49.7335 5 46.7638 5 43.1315V41.3383H10.2999C11.3964 41.3383 11.8875 41.6923 11.8875 42.8346V43.1201C11.8875 44.388 12.7785 45.8043 14.1491 45.8043H19.0721C20.4427 45.8043 21.3336 44.388 21.3336 43.1201V31.9379C21.3336 30.5786 21.9619 29.4935 23.4696 29.4935H28.2212V29.5049ZM29.2378 49.7335H34.2635C34.846 49.7335 35.5885 49.2652 35.9311 48.7055L43.3213 36.7694C43.4697 36.5295 43.7325 36.3582 43.9952 36.3582C44.2579 36.3582 44.5206 36.541 44.6691 36.7808L47.5474 41.4182C47.9015 41.9893 47.6845 42.2749 47.0106 42.2749H42.99C42.3846 42.2749 41.6194 42.7089 41.311 43.2458C40.9683 43.8397 40.6142 44.4451 40.2715 45.0505C39.8489 45.7929 40.0317 46.3526 40.8769 46.3526H49.5006C50.4258 46.3526 50.7228 46.5582 51.2139 47.3463L52.0592 48.7055C52.4019 49.2652 53.1443 49.7335 53.7268 49.7335H58.7526C59.3237 49.7335 59.5178 49.2652 59.1866 48.7055L48.3242 30.5329C47.9815 29.9618 47.239 29.5049 46.6565 29.5049H41.3224C40.7399 29.5049 39.9974 29.9618 39.6547 30.5329L28.7923 48.7055C28.4611 49.2652 28.6552 49.7335 29.2378 49.7335ZM67.0564 36.9293C68.884 33.5369 73.4186 32.6003 76.8109 35.5701C77.1536 35.8671 77.2678 36.1526 77.7704 36.1526C79.6551 36.1526 82.0766 36.1526 83.9612 36.1526C84.6808 36.1526 85.1605 35.9242 85.2633 35.5016C85.3319 35.216 85.2405 34.8276 84.8635 34.3822C82.225 31.2297 78.4672 29.3108 73.2587 29.0252C67.6847 28.7282 61.6652 31.0583 59.061 35.8556C57.8616 38.0601 57.8616 41.1784 59.061 43.3828C61.6652 48.1801 67.6847 50.5102 73.2701 50.2133C77.4506 49.9848 80.7059 48.7055 83.1845 46.5696C83.9955 45.8729 84.6237 45.0961 85.309 44.2852C85.6859 43.8397 85.7088 43.4514 85.6403 43.1658C85.5375 42.7432 85.0577 42.5147 84.3381 42.5147C82.4535 42.5147 80.0206 42.5147 78.1359 42.5147C77.5762 42.5147 76.8566 43.6455 76.3769 44.0339C75.7601 44.5365 75.1547 44.9248 74.4808 45.1533C71.6139 46.1356 68.4728 44.9362 67.0564 42.3091C66.1427 40.6187 66.1427 38.6198 67.0564 36.9293Z" fill="#E60012"/>
<path fill-rule="evenodd" clip-rule="evenodd" d="M80.5002 58.6885H81.117C81.117 58.8713 81.1855 59.0198 81.3226 59.134C81.4596 59.2482 81.631 59.3282 81.8366 59.3739C82.0422 59.4195 82.2363 59.4538 82.4419 59.4538C82.7503 59.4538 83.013 59.3739 83.2415 59.2025C83.4699 59.0426 83.5842 58.7799 83.5842 58.4372C83.5842 58.2545 83.4699 58.0946 83.2415 57.9689C83.013 57.8547 82.6361 57.6834 82.0993 57.4664C81.5624 57.2493 81.1627 57.0437 80.8885 56.861C80.6258 56.6668 80.4888 56.4269 80.4888 56.1414C80.4888 55.8558 80.5801 55.616 80.7629 55.4218C80.9456 55.2276 81.1855 55.0906 81.4711 55.0106C81.768 54.9192 82.0764 54.8735 82.4305 54.8735C82.6247 54.8735 82.8303 54.9078 83.0359 54.9649C83.2415 55.0334 83.4357 55.1134 83.607 55.2276C83.7783 55.3418 83.9268 55.4789 84.0296 55.6274C84.1324 55.7873 84.1895 55.9586 84.1895 56.13H83.5727C83.5727 55.9701 83.5156 55.833 83.4014 55.7188C83.2872 55.6046 83.1387 55.5132 82.9674 55.4561C82.7846 55.399 82.6133 55.3647 82.4191 55.3647C82.2363 55.3647 82.0764 55.3761 81.9394 55.3761C81.8023 55.3875 81.6767 55.4104 81.5396 55.4675C81.4025 55.5132 81.2997 55.5931 81.2198 55.6959C81.1398 55.7987 81.0941 55.9472 81.0941 56.1186C81.0941 56.347 81.2198 56.5297 81.4596 56.6668C81.6995 56.8039 82.0879 56.9638 82.6018 57.158C83.1158 57.3521 83.5156 57.5349 83.7783 57.7176C84.041 57.9004 84.1781 58.1288 84.1781 58.4144C84.1781 58.6771 84.1096 58.9284 83.9839 59.1568C83.8583 59.3853 83.6641 59.5795 83.39 59.7165C83.1273 59.8536 82.796 59.9221 82.4077 59.9221C81.9736 59.9221 81.6195 59.8764 81.334 59.7736C81.037 59.6708 80.8314 59.5223 80.6829 59.3396C80.5344 59.1568 80.5002 58.9512 80.5002 58.6885ZM66.4281 60.0478V54.9763H68.5526C68.8839 54.9763 69.1808 55.0449 69.4207 55.1934C69.6606 55.3304 69.8433 55.5246 69.9575 55.753C70.0832 55.9815 70.1403 56.2328 70.1403 56.4955C70.1403 56.7582 70.0832 57.0095 69.9575 57.2379C69.8433 57.4664 69.6606 57.6605 69.4207 57.7976C69.1808 57.9347 68.8953 58.0146 68.5526 58.0146L70.1403 60.0478H69.5235L67.913 58.0146H66.9421V60.0478H66.4281ZM66.9535 55.4789V57.5006H68.4498C68.6897 57.5006 68.8953 57.4549 69.0666 57.3636C69.238 57.2722 69.3636 57.1465 69.455 56.9866C69.5464 56.8267 69.5806 56.6668 69.5806 56.4955C69.5806 56.3241 69.5349 56.1528 69.455 56.0043C69.3636 55.8444 69.238 55.7188 69.0666 55.6274C68.8953 55.536 68.6897 55.4789 68.4498 55.4789H66.9535ZM53.7495 55.4789C53.4069 55.4789 53.0985 55.5589 52.8129 55.6959C52.5274 55.8444 52.3104 56.0729 52.139 56.3698C51.9677 56.6782 51.8877 57.0437 51.8877 57.5006C51.8877 57.9575 51.9677 58.323 52.139 58.6314C52.3104 58.9398 52.5274 59.1683 52.8129 59.3053C53.0985 59.4538 53.4069 59.5223 53.7495 59.5223C54.0808 59.5223 54.3892 59.4424 54.6633 59.2825C54.9489 59.1226 55.1659 58.8827 55.3372 58.5743C55.5086 58.2659 55.5885 57.9118 55.5885 57.5006C55.5885 57.0894 55.4971 56.7353 55.3372 56.4269C55.1659 56.1185 54.9374 55.8787 54.6633 55.7188C54.3778 55.5703 54.0808 55.4789 53.7495 55.4789ZM53.7495 54.9763C54.0808 54.9763 54.3892 55.0334 54.6747 55.1362C54.9603 55.239 55.2116 55.399 55.4286 55.616C55.6456 55.833 55.8169 56.0957 55.9426 56.4155C56.0568 56.7353 56.1253 57.1008 56.1253 57.512C56.1253 57.9232 56.0682 58.2888 55.9426 58.6086C55.8169 58.9284 55.6456 59.1911 55.4286 59.4081C55.2116 59.6251 54.9603 59.7851 54.6747 59.8879C54.3892 59.9907 54.0808 60.0478 53.7495 60.0478C53.4069 60.0478 53.0871 60.0021 52.8015 59.9107C52.516 59.8193 52.2647 59.6708 52.0476 59.4767C51.8306 59.2825 51.6593 59.0198 51.5451 58.6885C51.4194 58.3573 51.3623 57.9689 51.3623 57.5235C51.3623 57.0666 51.4194 56.6782 51.5451 56.3584C51.6707 56.0272 51.842 55.7759 52.0591 55.5703C52.2761 55.3647 52.5274 55.2276 52.8129 55.1362C53.0871 55.022 53.4069 54.9763 53.7495 54.9763ZM36.9362 54.9763H41.1624V55.4789H39.3234V60.0363H38.7865V55.4789H36.9362V54.9763ZM24.5774 55.4789C24.2348 55.4789 23.9264 55.5589 23.6408 55.6959C23.3552 55.8444 23.1382 56.0729 22.9669 56.3698C22.7956 56.6782 22.7156 57.0437 22.7156 57.5006C22.7156 57.9575 22.7956 58.323 22.9669 58.6314C23.1268 58.9398 23.3552 59.1683 23.6408 59.3053C23.9264 59.4538 24.2348 59.5223 24.5774 59.5223C24.9087 59.5223 25.2171 59.4424 25.4912 59.2825C25.7767 59.1226 25.9938 58.8827 26.1651 58.5743C26.3364 58.2659 26.4164 57.9118 26.4164 57.5006C26.4164 57.0894 26.3364 56.7353 26.1651 56.4269C25.9938 56.1185 25.7767 55.8787 25.4912 55.7188C25.2171 55.5703 24.9087 55.4789 24.5774 55.4789ZM24.5774 54.9763C24.9087 54.9763 25.2171 55.0334 25.5026 55.1362C25.7882 55.239 26.0394 55.399 26.2565 55.616C26.4735 55.833 26.6448 56.0957 26.759 56.4155C26.8847 56.7353 26.9418 57.1008 26.9418 57.512C26.9418 57.9232 26.8847 58.2888 26.759 58.6086C26.6334 58.9284 26.4735 59.1911 26.2565 59.4081C26.0394 59.6251 25.7882 59.7851 25.5026 59.8879C25.2171 59.9907 24.9087 60.0478 24.5774 60.0478C24.2348 60.0478 23.9149 60.0021 23.6294 59.9107C23.3438 59.8193 23.0925 59.6708 22.8755 59.4767C22.6585 59.2825 22.4986 59.0198 22.3729 58.6885C22.2473 58.3573 22.1902 57.9689 22.1902 57.5235C22.1902 57.0666 22.2473 56.6782 22.3729 56.3584C22.4986 56.0272 22.6585 55.7759 22.8755 55.5703C23.0925 55.3647 23.3438 55.2276 23.6294 55.1362C23.9264 55.022 24.2348 54.9763 24.5774 54.9763ZM6.46191 60.0478V54.9763H6.98733L9.10043 58.5172L11.2249 54.9763H11.7504V60.0478H11.2249V55.9929L9.10043 59.4538L6.98733 55.9929V60.0478H6.46191Z" fill="#E60012"/>
<path d="M80.5002 58.6885H81.117C81.117 58.8713 81.1855 59.0198 81.3226 59.134C81.4596 59.2482 81.631 59.3282 81.8366 59.3739C82.0422 59.4195 82.2363 59.4538 82.4419 59.4538C82.7503 59.4538 83.013 59.3739 83.2415 59.2025C83.4699 59.0426 83.5842 58.7799 83.5842 58.4372C83.5842 58.2545 83.4699 58.0946 83.2415 57.9689C83.013 57.8547 82.6361 57.6834 82.0993 57.4664C81.5624 57.2493 81.1627 57.0437 80.8885 56.861C80.6258 56.6668 80.4888 56.4269 80.4888 56.1414C80.4888 55.8558 80.5801 55.616 80.7629 55.4218C80.9456 55.2276 81.1855 55.0906 81.4711 55.0106C81.768 54.9192 82.0764 54.8735 82.4305 54.8735C82.6247 54.8735 82.8303 54.9078 83.0359 54.9649C83.2415 55.0334 83.4357 55.1134 83.607 55.2276C83.7783 55.3418 83.9268 55.4789 84.0296 55.6274C84.1324 55.7873 84.1895 55.9586 84.1895 56.13H83.5727C83.5727 55.9701 83.5156 55.833 83.4014 55.7188C83.2872 55.6046 83.1387 55.5132 82.9674 55.4561C82.7846 55.399 82.6133 55.3647 82.4191 55.3647C82.2363 55.3647 82.0764 55.3761 81.9394 55.3761C81.8023 55.3875 81.6767 55.4104 81.5396 55.4675C81.4025 55.5132 81.2997 55.5931 81.2198 55.6959C81.1398 55.7987 81.0941 55.9472 81.0941 56.1186C81.0941 56.347 81.2198 56.5297 81.4596 56.6668C81.6995 56.8039 82.0879 56.9638 82.6018 57.158C83.1158 57.3521 83.5156 57.5349 83.7783 57.7176C84.041 57.9004 84.1781 58.1288 84.1781 58.4144C84.1781 58.6771 84.1096 58.9284 83.9839 59.1568C83.8583 59.3853 83.6641 59.5795 83.39 59.7165C83.1273 59.8536 82.796 59.9221 82.4077 59.9221C81.9736 59.9221 81.6195 59.8764 81.334 59.7736C81.037 59.6708 80.8314 59.5223 80.6829 59.3396C80.5344 59.1568 80.5002 58.9512 80.5002 58.6885ZM66.4281 60.0478V54.9763H68.5526C68.8839 54.9763 69.1808 55.0449 69.4207 55.1934C69.6606 55.3304 69.8433 55.5246 69.9575 55.753C70.0832 55.9815 70.1403 56.2328 70.1403 56.4955C70.1403 56.7582 70.0832 57.0095 69.9575 57.2379C69.8433 57.4664 69.6606 57.6605 69.4207 57.7976C69.1808 57.9347 68.8953 58.0146 68.5526 58.0146L70.1403 60.0478H69.5235L67.913 58.0146H66.9421V60.0478H66.4281ZM66.9535 55.4789V57.5006H68.4498C68.6897 57.5006 68.8953 57.4549 69.0666 57.3636C69.238 57.2722 69.3636 57.1465 69.455 56.9866C69.5464 56.8267 69.5806 56.6668 69.5806 56.4955C69.5806 56.3241 69.5349 56.1528 69.455 56.0043C69.3636 55.8444 69.238 55.7188 69.0666 55.6274C68.8953 55.536 68.6897 55.4789 68.4498 55.4789H66.9535ZM53.7495 55.4789C53.4069 55.4789 53.0985 55.5589 52.8129 55.6959C52.5274 55.8444 52.3104 56.0729 52.139 56.3698C51.9677 56.6782 51.8877 57.0437 51.8877 57.5006C51.8877 57.9575 51.9677 58.323 52.139 58.6314C52.3104 58.9398 52.5274 59.1683 52.8129 59.3053C53.0985 59.4538 53.4069 59.5223 53.7495 59.5223C54.0808 59.5223 54.3892 59.4424 54.6633 59.2825C54.9489 59.1226 55.1659 58.8827 55.3372 58.5743C55.5086 58.2659 55.5885 57.9118 55.5885 57.5006C55.5885 57.0894 55.4971 56.7353 55.3372 56.4269C55.1659 56.1185 54.9374 55.8787 54.6633 55.7188C54.3778 55.5703 54.0808 55.4789 53.7495 55.4789ZM53.7495 54.9763C54.0808 54.9763 54.3892 55.0334 54.6747 55.1362C54.9603 55.239 55.2116 55.399 55.4286 55.616C55.6456 55.833 55.8169 56.0957 55.9426 56.4155C56.0568 56.7353 56.1253 57.1008 56.1253 57.512C56.1253 57.9232 56.0682 58.2888 55.9426 58.6086C55.8169 58.9284 55.6456 59.1911 55.4286 59.4081C55.2116 59.6251 54.9603 59.7851 54.6747 59.8879C54.3892 59.9907 54.0808 60.0478 53.7495 60.0478C53.4069 60.0478 53.0871 60.0021 52.8015 59.9107C52.516 59.8193 52.2647 59.6708 52.0476 59.4767C51.8306 59.2825 51.6593 59.0198 51.5451 58.6885C51.4194 58.3573 51.3623 57.9689 51.3623 57.5235C51.3623 57.0666 51.4194 56.6782 51.5451 56.3584C51.6707 56.0272 51.842 55.7759 52.0591 55.5703C52.2761 55.3647 52.5274 55.2276 52.8129 55.1362C53.0871 55.022 53.4069 54.9763 53.7495 54.9763ZM36.9362 54.9763H41.1624V55.4789H39.3234V60.0363H38.7865V55.4789H36.9362V54.9763ZM24.5774 55.4789C24.2348 55.4789 23.9264 55.5589 23.6408 55.6959C23.3552 55.8444 23.1382 56.0729 22.9669 56.3698C22.7956 56.6782 22.7156 57.0437 22.7156 57.5006C22.7156 57.9575 22.7956 58.323 22.9669 58.6314C23.1268 58.9398 23.3552 59.1683 23.6408 59.3053C23.9264 59.4538 24.2348 59.5223 24.5774 59.5223C24.9087 59.5223 25.2171 59.4424 25.4912 59.2825C25.7767 59.1226 25.9938 58.8827 26.1651 58.5743C26.3364 58.2659 26.4164 57.9118 26.4164 57.5006C26.4164 57.0894 26.3364 56.7353 26.1651 56.4269C25.9938 56.1185 25.7767 55.8787 25.4912 55.7188C25.2171 55.5703 24.9087 55.4789 24.5774 55.4789ZM24.5774 54.9763C24.9087 54.9763 25.2171 55.0334 25.5026 55.1362C25.7882 55.239 26.0394 55.399 26.2565 55.616C26.4735 55.833 26.6448 56.0957 26.759 56.4155C26.8847 56.7353 26.9418 57.1008 26.9418 57.512C26.9418 57.9232 26.8847 58.2888 26.759 58.6086C26.6334 58.9284 26.4735 59.1911 26.2565 59.4081C26.0394 59.6251 25.7882 59.7851 25.5026 59.8879C25.2171 59.9907 24.9087 60.0478 24.5774 60.0478C24.2348 60.0478 23.9149 60.0021 23.6294 59.9107C23.3438 59.8193 23.0925 59.6708 22.8755 59.4767C22.6585 59.2825 22.4986 59.0198 22.3729 58.6885C22.2473 58.3573 22.1902 57.9689 22.1902 57.5235C22.1902 57.0666 22.2473 56.6782 22.3729 56.3584C22.4986 56.0272 22.6585 55.7759 22.8755 55.5703C23.0925 55.3647 23.3438 55.2276 23.6294 55.1362C23.9264 55.022 24.2348 54.9763 24.5774 54.9763ZM6.46191 60.0478V54.9763H6.98733L9.10043 58.5172L11.2249 54.9763H11.7504V60.0478H11.2249V55.9929L9.10043 59.4538L6.98733 55.9929V60.0478H6.46191Z" fill="#E60012" stroke="#1B1918" stroke-width="0.4807"/>
</svg>
