<svg width="90" height="90" viewBox="0 0 90 90" fill="none" xmlns="http://www.w3.org/2000/svg">
<rect width="90" height="90" rx="10" fill="white"/>
<path d="M21.0159 29.4023V45.6558C21.0159 47.7689 19.6284 49.0236 17.3822 49.0236C15.1369 49.0236 13.9472 47.3727 13.9472 45.5886V42.6827H8V45.6558C8 48.6933 8.925 54.1145 17.4484 54.1145C25.9709 54.1145 27.1616 48.2977 27.1616 45.5245V29.4023H21.0159ZM36.3837 36.1405C30.7672 36.1405 28.2578 41.292 28.2578 45.7208C28.2578 50.1483 31.0997 54.4433 36.9125 54.4433C42.0016 54.5089 45.3719 51.2055 45.3719 48.7598H39.7541C39.7541 48.7598 39.0938 50.3467 37.1109 50.3467C35.1288 50.3467 34.0066 49.223 34.0066 46.5139H45.4366C45.4366 37.9898 41.21 36.1405 36.3837 36.1405ZM54.6559 36.1405C49.0409 36.1405 46.5287 41.292 46.5287 45.7208C46.5287 50.1483 49.3706 54.4433 55.1866 54.4433C60.2741 54.5089 63.645 51.2055 63.645 48.7598H58.0269C58.0269 48.7598 57.3656 50.3467 55.385 50.3467C53.4013 50.3467 52.2781 49.223 52.2781 46.5139H63.7075C63.7075 37.9898 59.4816 36.1405 54.6559 36.1405ZM75.7294 36.3389C72.8756 36.3389 71.6087 37.8895 71.5416 37.9702C71.1406 38.4508 70.6431 38.9592 70.6431 37.7258V36.8011H64.9578V59.598H70.7072V53.3189C70.7072 52.8564 71.1691 52.9252 71.5019 53.3189C71.8341 53.718 73.2866 54.7073 75.7994 54.7073C80.3594 54.7073 83 50.7433 83 45.3252C83 38.3205 78.5744 36.3386 75.7294 36.3389ZM36.9762 39.8398C39.0906 39.8398 40.0138 41.4252 40.0138 43.0789H34.2009C34.2009 41.292 34.9278 39.8398 36.9762 39.8398ZM55.2475 39.8398C57.3622 39.8398 58.2863 41.4252 58.2863 43.0789H52.4719C52.4719 41.292 53.2003 39.8398 55.2475 39.8398ZM73.7488 40.7648C76.6606 40.7648 77.1863 43.0114 77.1863 45.3252C77.1863 47.6377 76.7887 50.6764 74.0172 50.6764C71.2409 50.6764 70.5134 48.8923 70.5744 45.5245C70.6431 42.1533 71.9622 40.7648 73.7488 40.7648ZM80.8778 55.0348C80.6375 55.0348 80.3994 55.0821 80.1774 55.1741C79.9553 55.2661 79.7535 55.4009 79.5836 55.5709C79.4137 55.7408 79.2789 55.9426 79.1869 56.1647C79.095 56.3868 79.0477 56.6248 79.0478 56.8652C79.0478 57.8755 79.8656 58.6952 80.8778 58.6952C81.8834 58.6952 82.7059 57.8755 82.7059 56.8652C82.7059 55.8548 81.8834 55.0348 80.8778 55.0348ZM80.8778 55.2286C81.3117 55.2289 81.7278 55.4015 82.0346 55.7083C82.3414 56.0152 82.5138 56.4312 82.5141 56.8652C82.5141 57.7664 81.7809 58.5045 80.8778 58.5045C80.4431 58.5039 80.0264 58.331 79.7189 58.0237C79.4114 57.7165 79.2382 57.2999 79.2372 56.8652C79.2372 55.962 79.9722 55.2286 80.8778 55.2286ZM80.2191 55.8611V57.8011H80.4456V56.9608H80.9969L81.3591 57.8014H81.6109L81.2309 56.9036C81.3516 56.862 81.3916 56.8327 81.4559 56.7639C81.5391 56.6742 81.5916 56.533 81.5916 56.4045C81.5916 56.0814 81.3428 55.8608 80.9822 55.8608L80.2191 55.8611ZM80.4394 56.0723H80.9775C81.2025 56.0723 81.3453 56.2005 81.3453 56.3989C81.3453 56.6239 81.1937 56.7639 80.9459 56.7639H80.4394V56.0723Z" fill="black"/>
</svg>
