<svg width="90" height="90" viewBox="0 0 90 90" fill="none" xmlns="http://www.w3.org/2000/svg">
<rect width="90" height="90" rx="10" fill="white"/>
<path fill-rule="evenodd" clip-rule="evenodd" d="M45.3256 47.577H21.7071L10 68H33.6867L45.3256 47.577ZM57.3259 26.6259L45.5168 6L33.6737 26.6259L45.5168 47.2858L57.3259 26.6259ZM57.3137 68H81L69.2929 47.577H45.6744L57.3137 68Z" fill="#E60012"/>
<path fill-rule="evenodd" clip-rule="evenodd" d="M55.8096 83.7313H57.6262V75.1922H55.8096V83.7313ZM76.183 83.7313H78V75.1922H76.183V83.7313ZM21.6664 83.7313H23.483V75.1922H21.6664V83.7313ZM30.4266 75.1922H24.8081V76.6403H26.6809V83.7313H28.5538V76.6403H30.4266V75.1922ZM72.5455 78.4381H68.4551V75.1922H66.6385V83.7313H68.4551V79.8862H72.5455V83.7313H74.3612V75.1922H72.5455V78.4381ZM15.8027 79.0122L14.0999 75.1922H12V83.7313H13.8161V78.4381L15.8027 82.6825L17.7322 78.3883V83.7313H19.5479V75.1922H17.5051L15.8027 79.0122ZM45.817 75.193H44.0173V81.2851C44.0173 81.9482 43.1733 82.4853 42.4196 82.4853C41.6664 82.4853 40.8224 81.9482 40.8224 81.2851V75.193H38.9894L39.0162 81.2105C39.0162 82.751 40.6684 84 42.4192 84C44.1704 84 45.8226 82.751 45.8226 81.2105L45.817 75.193ZM52.8215 79.1123C53.0768 78.9623 54.0415 78.4629 54.0415 77.3898C54.0415 75.8911 52.6796 75.2174 51.7711 75.1926H47.5639V83.7316H51.2883C52.7644 83.7316 54.353 83.1073 54.353 81.4595C54.3534 80.0362 53.5881 79.4865 52.8215 79.1123ZM51.3744 82.2832H49.3814V76.6403H51.2892C51.8006 76.6403 52.1977 77.0148 52.1977 77.4644C52.1977 77.914 51.9991 78.4381 51.3182 78.4381H50.5248V79.8866H51.3749C51.8862 79.8866 52.5948 80.311 52.5672 81.1846C52.5421 81.9334 51.8568 82.2832 51.3744 82.2832ZM31.1538 80.96C31.1395 81.0472 31.1538 81.1473 31.1603 81.3095C31.1603 82.7819 32.5165 83.9006 34.1899 83.9006C35.8633 83.9006 37.2196 82.9071 37.2196 81.4343C37.2196 80.6597 36.8748 80.0613 36.2756 79.574C35.7863 79.1766 34.3924 78.5805 33.8494 78.2882C33.3385 78.0133 33.0976 77.8017 33.0854 77.402C33.0854 76.8169 33.525 76.405 34.1899 76.405C34.5092 76.405 34.8155 76.5166 35.0413 76.7153C35.2671 76.914 35.3939 77.1834 35.3939 77.4644C35.406 77.6144 35.4103 77.764 35.4103 77.8637H37.0193V77.4644C37.0193 76.0898 36.0346 75 34.1899 75C32.6277 75 31.3606 75.9414 31.3606 77.4644C31.3662 78.1386 31.721 78.7876 32.6009 79.2996C33.5462 79.8493 34.729 80.2604 35.1261 80.6102C35.3658 80.8211 35.5142 81.1123 35.5142 81.434C35.5142 82.0773 34.921 82.5367 34.1895 82.5367C33.4579 82.5367 32.87 81.9707 32.78 81.434C32.761 81.2969 32.7138 81.0598 32.7281 80.9596H31.1538V80.96ZM61.8282 78.2882C61.3169 78.0133 61.0764 77.8017 61.0634 77.402C61.0634 76.8169 61.5038 76.405 62.1687 76.405C62.4879 76.4052 62.7939 76.5169 63.0195 76.7156C63.2451 76.9142 63.3718 77.1836 63.3718 77.4644C63.3844 77.6144 63.3887 77.764 63.3887 77.8637H64.9976V77.4644C64.9976 76.0898 64.0125 75 62.1687 75C60.6057 75 59.339 75.9414 59.339 77.4644C59.345 78.1386 59.6998 78.7876 60.5793 79.2996C61.525 79.8493 62.7078 80.2604 63.1049 80.6102C63.3441 80.8211 63.4925 81.1123 63.4925 81.434C63.4925 82.0773 62.8994 82.5367 62.1683 82.5367C61.4367 82.5367 60.8484 81.9707 60.7579 81.434C60.7393 81.2969 60.6922 81.0598 60.7065 80.9596H59.1313C59.117 81.0468 59.1313 81.1469 59.1382 81.3091C59.1382 82.7815 60.4945 83.9003 62.1683 83.9003C63.8412 83.9003 65.1975 82.9067 65.1975 81.434C65.1975 80.6593 64.8527 80.0609 64.2535 79.5737C63.7647 79.1766 62.3707 78.5805 61.8282 78.2882Z" fill="black"/>
</svg>
