<svg width="90" height="90" viewBox="0 0 90 90" fill="none" xmlns="http://www.w3.org/2000/svg">
<rect width="90" height="90" rx="10" fill="white"/>
<path d="M39.4408 9.06455C39.5131 9.17212 39.2096 9.20798 37.786 9.25101C35.7121 9.30838 31.3691 9.60242 29.259 9.82475C28.7026 9.88212 28.1317 9.93232 27.9944 9.93232C27.8571 9.93232 27.3513 9.97535 26.8744 10.0399C26.3974 10.0973 25.552 10.1977 24.9956 10.2551C24.4391 10.3196 23.6081 10.42 23.1529 10.4774C20.5225 10.8144 20.602 10.8073 18.5064 11.1157C17.3719 11.2878 15.8038 11.546 14.5175 11.7683C14.1996 11.8185 13.7877 11.883 13.5998 11.9045C13.4191 11.9261 13.2312 11.9834 13.1951 12.0336C13.0723 12.1842 13 16.1932 13 22.5545C13 29.6689 13.0723 31.5837 13.4336 34.4955C13.4986 34.9688 13.542 35.4493 13.542 35.5712C13.542 35.686 13.5853 36.0947 13.6431 36.4677C13.7009 36.8406 13.7877 37.3928 13.831 37.6869C13.8816 37.9809 13.9466 38.4327 13.9755 38.6909C14.0117 38.9491 14.0767 39.3507 14.1201 39.5874C14.1634 39.824 14.2501 40.2759 14.3079 40.5914C14.4958 41.5811 14.7993 43.0226 14.9655 43.6753C15.0233 43.9119 15.1173 44.292 15.1751 44.5143C15.4136 45.4682 15.6014 46.1854 15.811 46.8667C15.8688 47.046 15.9628 47.383 16.035 47.6197C16.1073 47.8564 16.194 48.1289 16.2374 48.2293C16.2735 48.3297 16.3313 48.5018 16.3674 48.6237C16.3963 48.7385 16.5409 49.1616 16.6854 49.5561C16.8299 49.9505 16.9744 50.3521 17.0106 50.4525C17.0467 50.5529 17.1406 50.8111 17.2273 51.0263C17.3141 51.2414 17.408 51.5068 17.4441 51.6072C17.473 51.7076 17.5309 51.851 17.5742 51.9299C17.6176 52.0016 17.7693 52.353 17.9138 52.7116C18.0656 53.063 18.2607 53.5364 18.3619 53.7515C18.6076 54.2894 20.0889 57.237 20.2768 57.5525C20.3563 57.6888 20.5008 57.947 20.602 58.1263C20.6959 58.3056 20.8405 58.5422 20.92 58.6641C20.9922 58.7789 21.0862 58.9438 21.1295 59.0227C21.1729 59.1016 21.2596 59.2522 21.3319 59.3598C21.3969 59.4602 21.5486 59.704 21.6643 59.8977C22.0256 60.4929 22.6687 61.4468 22.9867 61.8699C23.1601 62.0922 23.2974 62.293 23.2974 62.3217C23.2974 62.3719 24.4897 63.9497 24.9811 64.5449C25.1762 64.7816 25.458 65.1187 25.6026 65.298C27.1562 67.1841 29.7504 69.8162 31.716 71.4943C32.5903 72.2402 32.6192 72.2617 33.1612 72.6848C33.443 72.9 33.6815 73.0936 33.7032 73.1152C33.8477 73.2873 36.8466 75.4244 37.3741 75.7328C37.4391 75.7759 37.6921 75.9336 37.9305 76.0914C38.4508 76.4285 38.6026 76.5289 38.7977 76.6293C38.8772 76.6723 39.0434 76.7656 39.159 76.8444C39.2818 76.9233 39.4408 77.0166 39.5203 77.0596C39.5998 77.1026 39.831 77.2317 40.0261 77.3536C40.2285 77.4684 40.4886 77.619 40.6042 77.6764C40.7271 77.7337 40.9366 77.8485 41.0739 77.9345C41.3774 78.1138 43.6248 79.2326 44.4341 79.6056C44.7521 79.749 45.07 79.8996 45.1351 79.9355C45.3013 80.0215 45.5903 80.0215 45.7565 79.9355C45.8216 79.8996 46.0889 79.7705 46.3491 79.6558C47.1367 79.2972 49.1745 78.2931 49.6732 78.0206C49.9333 77.8772 50.2874 77.6835 50.468 77.5831C50.6487 77.4899 50.8944 77.3465 51.01 77.2676C51.1329 77.1959 51.2918 77.1026 51.3713 77.0668C51.4508 77.0309 51.6315 76.9233 51.7688 76.8301C51.9061 76.7369 52.0723 76.6365 52.1301 76.6078C52.1879 76.5791 52.3396 76.493 52.4553 76.4141C52.5781 76.3352 52.7154 76.2492 52.7732 76.2277C52.8238 76.199 53.214 75.948 53.6404 75.6611C54.0595 75.3814 54.5725 75.0372 54.7677 74.9081C55.129 74.6642 57.3763 72.9789 57.9833 72.4984C59.985 70.9134 62.9911 67.9874 64.7399 65.9506C64.8193 65.8574 64.935 65.7283 65 65.6637C65.0578 65.5992 65.2168 65.4056 65.3541 65.2263C65.4842 65.047 65.6359 64.8677 65.6793 64.8318C65.7226 64.7888 65.9683 64.4876 66.2212 64.1505C66.4814 63.8134 66.7271 63.4907 66.7777 63.4333C67.4352 62.6158 69.3213 59.8546 69.6898 59.1662C69.7332 59.0873 69.8271 58.9223 69.8994 58.8076C69.9789 58.6857 70.1306 58.4275 70.239 58.2338C70.3474 58.033 70.4847 57.7964 70.5353 57.696C70.9038 57.0362 71.2073 56.4696 71.6048 55.6879C72.2118 54.483 72.5514 53.7515 73.05 52.5682C73.1078 52.4319 73.2018 52.2096 73.2596 52.0805C73.3102 51.9586 73.4113 51.7076 73.4836 51.5283C73.5486 51.349 73.6426 51.1267 73.6787 51.0263C73.7221 50.9259 73.7799 50.7681 73.8088 50.6677C73.8449 50.5673 73.9389 50.3091 74.0256 50.0939C74.1123 49.8788 74.2062 49.5991 74.2424 49.4843C74.3002 49.2835 74.358 49.1042 74.5675 48.5162C74.6181 48.3799 74.7193 48.0715 74.7843 47.8349C74.8566 47.5982 74.9433 47.3257 74.9867 47.2253C75.0228 47.1249 75.0806 46.9312 75.1167 46.7949C75.1456 46.6587 75.2396 46.3144 75.3191 46.0419C75.4058 45.7622 75.4997 45.4108 75.5431 45.253C75.5792 45.0953 75.6442 44.8227 75.6948 44.6434C75.9333 43.7326 76.0417 43.2808 76.3018 42.0258C76.3669 41.7102 76.468 41.2512 76.5258 41.0074C76.5837 40.7635 76.627 40.491 76.627 40.3978C76.627 40.3117 76.6704 40.0033 76.7282 39.7308C77.0678 38.1172 77.7037 32.9966 77.7182 31.6985C77.7326 30.7733 77.8049 30.1924 77.9133 30.2068C77.9783 30.2211 78 28.5716 78 22.1171C78 17.3622 77.9711 14.0274 77.935 14.0489C77.8338 14.1134 77.7832 13.8983 77.776 13.3174C77.7688 13.0162 77.7471 12.5859 77.7254 12.3707C77.6748 11.9763 77.6748 11.9763 77.3858 11.9261C77.2268 11.9045 76.8872 11.84 76.627 11.7898C76.3669 11.7396 75.9767 11.6822 75.7599 11.6535C75.5431 11.6248 75.1673 11.5675 74.9289 11.5244C74.4519 11.4384 73.9172 11.3523 71.2073 10.9364C70.9111 10.8862 70.4414 10.8216 70.1595 10.7929C69.8849 10.7642 69.4297 10.6997 69.1479 10.6567C68.8733 10.6136 68.2518 10.5347 67.7749 10.4774C67.2979 10.42 66.6187 10.3339 66.2574 10.2837C65.9033 10.2407 65.3324 10.1762 64.9928 10.1475C64.6531 10.1188 64.0389 10.0614 63.6198 10.0112C63.2007 9.96818 62.4202 9.88212 61.8855 9.82475C61.3508 9.76737 60.7293 9.71717 60.5125 9.71717C60.2957 9.71717 59.7104 9.66697 59.2118 9.6096C58.7132 9.55222 58.07 9.50202 57.7738 9.50202C57.4847 9.50202 56.7187 9.45899 56.0756 9.40162C55.4397 9.34424 54.1751 9.2797 53.2718 9.25818C51.6387 9.21515 51.3713 9.18646 51.4508 9.06455C51.4725 9.02869 48.9867 9 45.4458 9C41.9194 9 39.4191 9.02869 39.4408 9.06455ZM49.5648 11.1515C54.7966 11.2806 61.3797 11.7181 64.8483 12.1699C65.1879 12.2129 65.7371 12.2703 66.0767 12.299C66.4163 12.3277 66.9655 12.3851 67.3052 12.4353C67.6448 12.4783 68.2952 12.5643 68.7504 12.6289C70.557 12.8656 73.1729 13.2457 74.6037 13.4895C74.9433 13.5397 75.3335 13.6042 75.478 13.6258C75.6298 13.6473 75.7815 13.7118 75.8321 13.7692C76.0706 14.0561 76.0995 28.0481 75.8683 30.4076C75.8104 30.9957 75.7599 31.6626 75.7599 31.8778C75.7599 32.2651 75.6153 33.7496 75.4564 34.9616C75.4202 35.2987 75.3552 35.8151 75.3263 36.1091C75.2974 36.4031 75.2324 36.8908 75.1818 37.1848C74.9433 38.7124 74.8783 39.1284 74.7771 39.5874C74.7193 39.8599 74.6759 40.1611 74.6759 40.2543C74.6759 40.3404 74.6326 40.5986 74.5748 40.8281C74.517 41.0504 74.4158 41.4951 74.3507 41.8106C74.0472 43.2593 73.7076 44.6076 73.2596 46.1495C72.9994 47.0173 72.4213 48.7815 72.1612 49.4843C72.1034 49.6421 72.0167 49.886 71.9661 50.0222C71.7782 50.5314 71.4097 51.4279 71.3085 51.6215C71.2507 51.7363 71.2073 51.8582 71.2073 51.894C71.2073 51.9944 70.5642 53.3642 69.8416 54.8273C69.3357 55.8313 68.8444 56.7565 68.5698 57.1939C68.483 57.3302 68.3891 57.4952 68.3674 57.5525C68.3385 57.6099 68.2518 57.7533 68.1723 57.8753C68.0928 57.99 67.9989 58.155 67.9555 58.2338C67.7676 58.5781 67.2835 59.3239 66.2212 60.8874C65.7154 61.6261 63.8655 63.9999 63.3669 64.5378C63.3307 64.5808 63.1862 64.7458 63.0489 64.9035C62.3046 65.7785 60.751 67.3778 59.2768 68.7834C58.7349 69.2998 56.9789 70.7987 56.3936 71.2505C56.2129 71.3868 56.0539 71.5159 56.0322 71.5374C55.9961 71.5876 54.7821 72.4984 54.5075 72.6992C53.821 73.1797 53.2212 73.5957 53.1201 73.653C53.0623 73.6889 52.7732 73.8825 52.4769 74.0833C52.1879 74.277 51.8916 74.4706 51.8266 74.5136C51.7615 74.5495 51.2701 74.8435 50.7426 75.1663C50.2151 75.4818 49.731 75.7615 49.6732 75.7902C49.6153 75.8189 49.4708 75.905 49.348 75.9767C49.0011 76.199 48.3724 76.5217 45.9661 77.7122C45.7421 77.827 45.5108 77.9202 45.4675 77.9202C45.4169 77.9202 45.164 77.8198 44.9038 77.6979C43.9933 77.2604 42.7649 76.6508 42.3747 76.4357C42.1579 76.3137 41.8399 76.1416 41.6665 76.0484C41.2546 75.8189 41.2257 75.8045 40.3296 75.2667C39.8961 75.0085 39.4914 74.7646 39.4263 74.7288C39.3613 74.6858 39.1084 74.528 38.8699 74.3702C38.6315 74.2124 38.3785 74.0546 38.3135 74.0116C37.9956 73.818 36.478 72.7637 35.8999 72.3263C35.1773 71.7884 33.9416 70.7987 33.2046 70.1747C31.2679 68.5324 29.3963 66.6821 27.821 64.8677C27.214 64.1577 26.9539 63.8493 26.1012 62.7879C25.6242 62.1998 24.2296 60.2706 23.9839 59.8618C23.9405 59.7973 23.7815 59.5463 23.6226 59.3096C23.2974 58.8219 23.189 58.657 23.0806 58.449C23.0372 58.3701 22.9433 58.2052 22.8638 58.0904C22.7843 57.9685 22.6904 57.8107 22.647 57.7318C22.6037 57.6529 22.4736 57.4234 22.3507 57.2298C22.2351 57.029 22.0834 56.7708 22.0256 56.6561C21.9678 56.5341 21.8088 56.2473 21.6715 56.0106C21.1223 55.0281 20.2913 53.3069 19.7565 52.0303C19.5542 51.5355 19.3519 51.0693 19.3085 50.9976C19.2651 50.9187 19.2073 50.7753 19.1712 50.6748C19.1134 50.474 18.9906 50.1441 18.7449 49.5202C18.6581 49.3051 18.5642 49.0254 18.5281 48.9106C18.4703 48.7098 18.4125 48.5305 18.2029 47.9424C18.1523 47.8062 18.0511 47.4978 17.9861 47.2611C17.9138 47.0244 17.8127 46.7232 17.7621 46.5941C17.7043 46.4651 17.6609 46.3073 17.6609 46.2356C17.6609 46.171 17.6176 45.9917 17.5598 45.8268C17.5019 45.669 17.4008 45.3319 17.3357 45.0737C17.2707 44.8156 17.1695 44.4426 17.119 44.249C16.866 43.3454 16.6203 42.2194 16.259 40.3906C16.035 39.2503 15.9844 38.9921 15.9266 38.5475C15.8544 37.9666 15.7315 37.192 15.5942 36.3888C15.5436 36.0517 15.4931 35.6788 15.4931 35.564C15.4931 35.4493 15.4497 34.9544 15.3847 34.4596C15.2546 33.3695 15.0956 31.4977 14.98 29.7621C14.8499 27.8114 14.821 18.3806 14.9366 15.8705C14.9944 14.5653 15.0595 13.7764 15.1101 13.7262C15.1534 13.6831 15.4136 13.6186 15.6882 13.5899C15.9555 13.554 16.3602 13.4967 16.577 13.4536C16.7938 13.4106 17.2852 13.3317 17.6609 13.2743C18.0367 13.217 18.6437 13.1166 19.005 13.052C19.3663 12.9946 19.7565 12.9444 19.8722 12.9444C19.9878 12.9444 20.3419 12.9014 20.6598 12.844C21.3752 12.7149 22.2785 12.593 23.0445 12.5141C23.3624 12.4855 23.8827 12.4209 24.2007 12.3779C24.5186 12.3348 25.2196 12.256 25.7543 12.1986C26.289 12.1412 27.055 12.0552 27.4525 12.0121C27.8499 11.9619 28.5364 11.9045 28.97 11.8687C29.4108 11.84 30.1262 11.7755 30.5598 11.7324C31.9183 11.6033 33.3346 11.4958 34.5342 11.4384C35.1701 11.4097 36.3769 11.3452 37.2079 11.3021C40.8644 11.1013 45.3591 11.0439 49.5648 11.1515Z" fill="#001F6B"/>
<path d="M38.7784 13.0491C38.3002 13.0776 37.1118 13.1419 36.1336 13.1776C35.1554 13.2204 34.112 13.2918 33.8149 13.3275C33.5179 13.3632 33.0106 13.3917 32.6918 13.3988C32.3658 13.3988 31.7136 13.4488 31.2426 13.5059C30.7644 13.563 30.163 13.613 29.9021 13.613C29.6413 13.613 29.1196 13.663 28.7428 13.7201C28.366 13.7772 27.8733 13.8271 27.6487 13.8271C27.424 13.8271 27.0618 13.8628 26.8516 13.8985C26.6342 13.9413 26.1198 14.0056 25.6995 14.0413C24.9532 14.1055 24.4822 14.1555 22.9461 14.3625C22.5258 14.4196 22.0403 14.4767 21.8592 14.4981C21.678 14.5124 21.2868 14.5624 20.9897 14.6123C20.6926 14.6552 20.1274 14.7408 19.7361 14.7979C18.2725 15.0049 17.5261 15.1263 16.8595 15.2476L16.1712 15.3761L16.0914 17.5104C15.9828 20.2586 15.9683 25.9763 16.0625 28.3533C16.1494 30.5733 16.3161 32.9432 16.461 34.1709C16.5262 34.6635 16.5697 35.156 16.5697 35.2774C16.5624 35.7913 17.2146 39.8886 17.5479 41.4519C17.5986 41.7089 17.7 42.1728 17.7653 42.4869C18.0116 43.6504 18.5116 45.5635 18.8521 46.6271C18.8956 46.7841 18.9971 47.1053 19.0695 47.3409C19.1347 47.5764 19.2362 47.8834 19.2869 48.019C19.497 48.6043 19.555 48.7828 19.613 48.9827C19.6492 49.0969 19.7434 49.3753 19.8303 49.5894C20.0767 50.2104 20.1999 50.5388 20.2578 50.7386C20.2941 50.8386 20.352 50.9813 20.3955 51.0599C20.439 51.1312 20.5912 51.481 20.7361 51.8379C21.3013 53.187 22.0621 54.7503 22.7577 56.0138C22.9026 56.2707 23.0403 56.5277 23.0693 56.5848C23.12 56.699 23.6924 57.6841 23.8156 57.8697C23.8518 57.9268 23.9678 58.1195 24.0764 58.298C24.1851 58.4764 24.4895 58.9404 24.7503 59.333C25.0112 59.7256 25.2575 60.1039 25.301 60.1682C25.4677 60.4537 26.9386 62.4381 27.1125 62.6094C27.1559 62.6523 27.3878 62.9449 27.6342 63.259C27.8805 63.5731 28.1559 63.9086 28.2501 64.0085C28.3443 64.1085 28.5979 64.4011 28.8153 64.651C29.3877 65.3291 29.8732 65.8288 31.1702 67.1136C33.228 69.1337 34.0106 69.8119 36.4235 71.6321C36.88 71.9819 37.4741 72.4173 37.7495 72.5957C38.0176 72.7813 38.4523 73.074 38.7132 73.2525C38.974 73.4309 39.1987 73.5737 39.2131 73.5737C39.2276 73.5737 39.445 73.7093 39.6986 73.8806C39.9522 74.0519 40.2058 74.209 40.2638 74.2375C40.3218 74.2661 40.4739 74.3517 40.5899 74.4303C40.713 74.5088 40.8725 74.6016 40.9522 74.6444C41.0319 74.6872 41.1985 74.78 41.3145 74.8585C41.4376 74.9371 41.597 75.0299 41.6768 75.0727C41.7565 75.1084 42.0173 75.2511 42.2564 75.3868C43.4303 76.0506 45.3504 77 45.5316 77C45.691 77 48.3357 75.6794 49.3139 75.1084C49.8067 74.8157 50.6689 74.3018 50.8283 74.2018C50.937 74.1305 51.0675 74.0519 51.1254 74.0305C51.6254 73.7878 55.1107 71.3323 55.9874 70.5971C56.0889 70.5114 56.3932 70.2616 56.6758 70.026C56.9511 69.7976 57.2192 69.5763 57.2627 69.5406C57.3062 69.4978 57.6467 69.198 58.0235 68.8696C58.9003 68.0916 60.7842 66.2285 61.574 65.3719C61.9073 65.0007 62.2334 64.651 62.2986 64.5867C62.3566 64.5225 62.6174 64.2155 62.8783 63.9014C63.1319 63.5874 63.3783 63.2947 63.4217 63.259C63.5666 63.1305 65.4288 60.6393 65.8781 59.9754C66.3926 59.2117 66.2911 59.3758 67.1679 57.9339C67.5591 57.2915 67.9069 56.7133 67.9432 56.6562C68.1606 56.2921 69.175 54.3291 69.5952 53.444C70.1097 52.3447 70.2619 52.0092 70.2619 51.9521C70.2619 51.9164 70.3053 51.7951 70.3633 51.6809C70.4648 51.4882 70.8343 50.5959 71.0227 50.0891C71.0734 49.9534 71.1604 49.7108 71.2183 49.5537C71.3705 49.1611 71.4719 48.847 71.6458 48.3045C71.7328 48.0476 71.8415 47.7263 71.8922 47.5907C71.9429 47.4551 72.0371 47.1481 72.1096 46.9126C72.3849 45.9846 72.4284 45.8276 72.5443 45.4136C72.6095 45.178 72.711 44.8354 72.769 44.6569C72.8269 44.4713 72.8704 44.2643 72.8704 44.2001C72.8704 44.1287 72.9139 43.9074 72.9718 43.7075C73.0878 43.3078 73.2254 42.7153 73.4138 41.8445C73.4791 41.5304 73.566 41.1307 73.6095 40.9522C73.6457 40.7738 73.7109 40.4383 73.7399 40.2027C73.7761 39.9671 73.8341 39.596 73.8776 39.3818C74.3123 37.0905 74.7181 33.4072 74.9137 29.9594C75.0224 28.1249 75.0297 17.0607 74.9282 16.0043L74.863 15.369L74.1747 15.2405C72.8487 15.0049 71.4502 14.7979 68.1823 14.3696C67.378 14.2626 66.0882 14.1127 64.4289 13.9342C63.9144 13.8771 63.0305 13.7843 62.4725 13.7201C61.9146 13.663 61.3132 13.613 61.132 13.613C60.9509 13.613 60.3205 13.563 59.7191 13.5059C58.7046 13.4131 57.2337 13.3132 53.705 13.1062C52.0167 13.0062 40.1116 12.9563 38.7784 13.0491ZM48.0459 17.4391C48.2126 17.5033 48.2053 18.0172 48.0387 18.0672C47.9662 18.0886 46.9518 18.1029 45.7779 18.1029C44.2925 18.1029 43.6259 18.1243 43.5679 18.1814C43.4448 18.3028 43.4592 20.6227 43.5897 20.7797C43.6766 20.8868 43.894 20.8939 45.691 20.8797L47.6909 20.8582V19.8589L46.6837 19.8375C46.0678 19.8232 45.633 19.7875 45.5751 19.7375C45.5098 19.6876 45.4809 19.552 45.4953 19.402L45.5171 19.1451L46.8793 19.1237C47.7343 19.1165 48.2923 19.1308 48.3792 19.1808C48.5169 19.2521 48.5241 19.3378 48.5241 20.3586C48.5241 21.1366 48.5024 21.4721 48.4372 21.5078C48.3865 21.5364 47.2416 21.5578 45.8794 21.5435C43.1332 21.5221 43.1042 21.5221 42.8578 21.0367C42.7564 20.8297 42.7347 20.5656 42.7274 19.5805C42.7274 18.8453 42.7636 18.2671 42.8144 18.0958C42.9086 17.7745 43.2346 17.4962 43.5607 17.4462C43.9085 17.3962 47.9227 17.3891 48.0459 17.4391ZM40.9014 19.0737C40.9304 21.6791 40.9522 21.6577 37.7277 21.7291C35.967 21.7719 35.8655 21.7648 35.5902 21.622C35.1047 21.3793 35.0395 21.0938 35.0612 19.2521L35.083 17.7246L35.3366 17.6746C35.8438 17.5675 35.8438 17.5747 35.8438 19.295C35.8438 20.2872 35.8728 20.8868 35.9235 20.9796C36.0032 21.1295 36.0394 21.1295 37.4307 21.0795C39.3218 21.0224 39.887 20.9653 40.0174 20.844C40.0971 20.7583 40.1189 20.4299 40.1189 19.1522C40.1189 18.2814 40.1406 17.539 40.1696 17.5104C40.1986 17.4819 40.3725 17.4676 40.5536 17.4819L40.8797 17.5033L40.9014 19.0737ZM53.9948 17.5461C54.7919 17.589 55.5164 17.6532 55.6106 17.6889C55.7918 17.7603 55.828 18.0101 55.6758 18.21C55.5817 18.3313 55.502 18.3385 54.2049 18.2599C53.4514 18.21 52.4442 18.1671 51.9659 18.16L51.0964 18.1457V19.1451L52.5456 19.195C53.3427 19.2236 54.2701 19.2736 54.6107 19.3021L55.2266 19.3592L55.2483 19.5948C55.2846 19.9303 55.1541 20.0516 54.8353 20.0088C54.6904 19.9874 53.8354 19.9303 52.9224 19.8874C51.6254 19.8232 51.2486 19.8303 51.1689 19.8946C51.053 19.9874 51.0167 20.7155 51.1182 20.8725C51.1761 20.9653 53.0311 21.0867 54.9005 21.1295L55.6541 21.1438L55.7266 21.3793C55.8498 21.8148 55.8642 21.8148 53.234 21.7434C50.8138 21.6791 50.4443 21.6506 50.3718 21.5364C50.3429 21.4864 50.3139 18.5455 50.3356 17.5533C50.3356 17.439 51.9804 17.4391 53.9948 17.5461ZM33.2425 17.9387C33.2932 18.0815 33.286 18.1671 33.2063 18.2885C33.1193 18.417 33.0106 18.4527 32.5397 18.4884C32.2353 18.5169 31.7643 18.5383 31.5035 18.5383C31.2426 18.5455 30.4746 18.6026 29.7935 18.6668L28.5617 18.7953L28.5399 19.245C28.5254 19.4948 28.5472 19.7304 28.5834 19.7661C28.6269 19.8089 29.0254 19.7946 29.6196 19.7233C30.1558 19.6662 31.0542 19.5948 31.6122 19.5734C32.7063 19.5305 32.7281 19.5377 32.7281 19.8803C32.7208 20.173 32.6339 20.2015 31.4455 20.2658C30.8151 20.2943 29.9094 20.3657 29.4312 20.4157L28.5617 20.5013L28.5399 20.9582C28.5254 21.2151 28.5544 21.4507 28.5979 21.4935C28.6921 21.5863 29.7282 21.5578 30.9528 21.4222C32.1556 21.2937 33.2063 21.2865 33.2498 21.4079C33.2643 21.4578 33.2643 21.5935 33.2425 21.7148C33.199 21.929 33.1918 21.929 32.6194 21.9718C30.2934 22.1431 29.6196 22.1931 28.8515 22.2787C28.3733 22.3287 27.953 22.3501 27.924 22.3216C27.8588 22.2645 27.8516 18.2742 27.9168 18.1743C27.9385 18.1386 28.1414 18.11 28.366 18.11C28.5906 18.11 29.1848 18.0601 29.6848 18.003C30.1847 17.9459 30.8659 17.8959 31.2064 17.8888C31.547 17.8816 32.018 17.8531 32.2571 17.8245C33.0904 17.7246 33.1556 17.7317 33.2425 17.9387ZM61.4074 18.0172C62.8276 18.1529 63.0884 18.2457 63.3565 18.7168C63.5087 18.9809 63.5232 19.088 63.5232 20.2729C63.5232 21.6149 63.4942 21.7791 63.1609 22.0717C63.0087 22.2074 62.9145 22.2145 61.7914 22.1931C60.7552 22.1788 59.1829 22.0574 58.3931 21.9218C58.2626 21.9004 58.0525 21.7791 57.9076 21.6363L57.654 21.3865V19.8589C57.654 18.3742 57.6612 18.3242 57.8206 18.1457C57.9076 18.0387 58.096 17.9316 58.2337 17.8959C58.5597 17.8174 59.8133 17.8673 61.4074 18.0172ZM66.1317 18.4313C66.5085 18.4884 66.965 18.5383 67.1461 18.5383C67.3273 18.5383 67.8128 18.5812 68.233 18.6454C68.6533 18.7025 69.3054 18.781 69.6822 18.831C70.059 18.8738 70.414 18.9452 70.4648 18.9809C70.5807 19.0808 70.5807 19.5305 70.4503 19.5805C70.3995 19.6019 70.0662 19.5662 69.7112 19.5091C68.9141 19.3735 68.2547 19.3449 68.1606 19.4377C68.1243 19.4734 68.0808 20.2158 68.0736 21.1438L68.0519 22.7855L67.8128 22.807C67.3708 22.8498 67.3635 22.8355 67.3635 21.001C67.3635 19.759 67.3418 19.3235 67.2766 19.2736C67.2258 19.2307 66.8925 19.1808 66.5302 19.1522C66.1752 19.1237 65.6535 19.0666 65.3709 19.0166C64.8927 18.9381 64.8637 18.9167 64.8419 18.7311C64.7912 18.2814 64.9216 18.2457 66.1317 18.4313ZM25.6271 18.5669C25.7213 18.6097 25.8807 18.7525 25.9676 18.8881C26.1125 19.0951 26.1343 19.2236 26.1343 19.7804C26.1343 20.3229 26.1053 20.4799 25.9676 20.7155C25.772 21.0581 25.301 21.3151 24.859 21.3151C24.6923 21.3222 24.3808 21.3579 24.1706 21.3936C23.9533 21.4364 23.4026 21.5007 22.9461 21.5364C22.4896 21.5792 21.9172 21.6506 21.678 21.7005L21.2433 21.7862L21.2071 22.3929L21.1708 22.9926L20.9172 23.0497C20.7795 23.0782 20.6201 23.0853 20.5767 23.0711C20.5042 23.0497 20.4825 22.5714 20.4825 21.0081C20.4825 19.1379 20.4897 18.9738 20.6129 18.9381C20.7506 18.8952 21.4462 18.8096 22.8736 18.6454C25.0909 18.3956 25.243 18.3956 25.6271 18.5669ZM48.7777 26.1048C49.5386 26.1405 50.6617 26.1905 51.2776 26.219C52.4152 26.2618 52.9369 26.3546 53.5238 26.6187C54.1035 26.8757 56.4367 28.0321 57.1105 28.389C57.4728 28.5817 57.9293 28.8173 58.125 28.9244C58.3279 29.0243 58.6032 29.1742 58.7409 29.2599C58.8785 29.3384 59.1394 29.4812 59.3205 29.5811C59.9292 29.9023 60.2987 30.1236 60.4799 30.2592C60.7915 30.4948 63.0884 32.7504 63.0884 32.8218C63.0884 32.9289 62.7261 32.8932 62.487 32.7576C62.3638 32.6933 62.0523 32.5006 61.7986 32.3293C61.545 32.1651 61.3277 32.0295 61.3132 32.0295C61.2987 32.0295 61.161 31.9438 61.0088 31.8439C60.8567 31.744 60.6683 31.6297 60.5886 31.5941C60.5089 31.5584 60.3495 31.4656 60.2263 31.387C60.1103 31.3085 59.9582 31.2229 59.9002 31.1943C59.8422 31.1658 59.5669 31.0087 59.2843 30.8517C59.009 30.6875 58.4873 30.4163 58.1322 30.2449C57.4801 29.938 57.4801 29.938 56.3932 29.8809C55.1614 29.8095 54.3716 29.7024 54.1035 29.5668C53.7267 29.3669 52.6688 28.8958 52.0384 28.6389C51.6834 28.4961 51.2631 28.3248 51.1109 28.2605C50.8646 28.1606 50.6182 28.1606 48.6473 28.2391C47.4445 28.2891 46.0605 28.3533 45.5678 28.3676C44.9809 28.3962 44.6476 28.3819 44.5969 28.3319C44.5389 28.2748 44.5679 28.2463 44.6911 28.2177C45.1113 28.1392 46.5533 27.9536 47.5822 27.8608C48.1981 27.7965 49.0676 27.718 49.5023 27.6752C49.9443 27.6252 50.8138 27.5681 51.4442 27.5324C52.0746 27.5039 52.6036 27.4611 52.6253 27.4396C52.6471 27.4254 52.5384 27.3326 52.3862 27.2398L52.1109 27.0685L48.0169 27.0827C44.8215 27.0899 43.6549 27.1184 42.7129 27.2112L41.5029 27.3254L40.4667 27.8465C39.8943 28.132 39.2059 28.4889 38.9233 28.6389C38.177 29.0457 37.5901 29.3598 37.1843 29.5668C36.9887 29.6667 36.7278 29.8095 36.6046 29.8809C36.4887 29.9523 36.1771 30.1236 35.9163 30.2592C35.6554 30.402 35.2786 30.609 35.083 30.7232C34.8801 30.8374 34.67 30.9516 34.612 30.9802C34.554 31.0087 34.4453 31.0658 34.3801 31.1158C34.2352 31.2157 34.141 31.1586 34.199 31.0087C34.2207 30.9516 34.525 30.7161 34.8801 30.4876C35.6771 29.9737 36.4887 29.3741 37.322 28.6745C38.2205 27.9322 38.3726 27.768 38.8219 27.1041C39.1045 26.683 39.2784 26.4974 39.4668 26.4189C39.7131 26.3118 40.5247 26.2547 43.7056 26.1119C45.4084 26.0334 47.2199 26.0334 48.7777 26.1048ZM41.3724 29.8595C41.3652 29.9451 41.1623 30.3306 40.9304 30.7161C40.6986 31.1015 40.4884 31.4727 40.4594 31.5298C40.4305 31.5869 40.3435 31.7297 40.2638 31.851C40.1913 31.9652 40.0537 32.2079 39.9595 32.3793C39.7711 32.7362 39.4668 33.0146 39.1914 33.0717C39.0827 33.0931 38.8798 33.1502 38.7422 33.2001C38.6045 33.2573 38.3074 33.35 38.09 33.4143C37.8727 33.4714 37.4017 33.6213 37.0394 33.7284C35.8148 34.1138 35.5322 34.1638 34.141 34.2423C32.315 34.3351 32.4165 34.3423 32.5034 34.1852C32.5397 34.1138 32.7715 33.9782 33.0179 33.8783C33.5541 33.6713 33.641 33.5927 34.3584 32.7076C35.2569 31.6012 35.3221 31.5441 36.2061 31.1229C37.0973 30.7018 37.4089 30.559 37.7857 30.4091C37.9089 30.3591 38.1263 30.2735 38.2567 30.2164C38.4741 30.1236 38.6625 30.0522 39.3581 29.7952C39.5682 29.7167 39.8943 29.6882 40.5174 29.6953C41.3579 29.7096 41.3869 29.7167 41.3724 29.8595ZM49.5313 31.644C49.9443 31.851 50.0458 31.9367 50.0458 32.0652C50.0458 32.1508 50.0965 32.365 50.1545 32.5363C50.2197 32.7005 50.2704 33.0717 50.2776 33.3429C50.2921 33.7998 50.2704 33.8854 50.082 34.1709C49.9588 34.3494 49.8501 34.5207 49.8284 34.5635C49.8067 34.5992 49.6038 34.9204 49.3647 35.2702C48.9806 35.8484 48.9444 35.9412 48.9444 36.2696C48.9516 36.4694 49.0024 36.8263 49.0603 37.0619C49.1183 37.2975 49.2197 37.7472 49.285 38.0612C49.3502 38.3753 49.4371 38.7751 49.4806 38.9535C49.5965 39.4175 49.64 39.8815 49.5603 39.8815C49.3574 39.8815 49.0893 39.3889 48.8502 38.5609C48.7777 38.3254 48.6835 38.0184 48.6328 37.8828C48.5821 37.7472 48.4879 37.4402 48.4155 37.2047C48.3502 36.9691 48.2488 36.6479 48.1908 36.4908C47.9734 35.877 48.0169 35.7556 48.8502 34.6706C49.3429 34.021 49.611 33.6142 49.611 33.5C49.611 33.2715 49.3719 32.8147 49.1328 32.5934C48.9806 32.4578 48.8719 32.4221 48.5314 32.4221C48.2923 32.4221 47.9807 32.4792 47.7923 32.5577C47.6184 32.6291 47.3431 32.7362 47.1836 32.7933C47.0242 32.8575 46.7996 32.9432 46.6764 32.9931C46.5605 33.0431 46.3286 33.1359 46.1692 33.193C46.0098 33.2501 45.6258 33.4 45.3214 33.5285L44.7563 33.7641L44.2925 33.6427C44.0317 33.5785 43.7273 33.5285 43.6187 33.5285C43.1767 33.5285 43.1477 33.3072 43.51 32.779C43.7273 32.4649 44.0027 32.3507 45.0678 32.1437C46.4156 31.8724 46.7127 31.8153 47.2923 31.7083C47.6329 31.644 48.1039 31.5512 48.343 31.5013C48.9661 31.3585 48.9661 31.3585 49.5313 31.644ZM58.2119 31.694C58.3206 31.7511 58.8568 32.0152 59.393 32.2793C59.9292 32.5363 60.5668 32.8647 60.806 33.0003C61.0451 33.1359 61.3059 33.2787 61.3856 33.3215C61.4653 33.3572 61.5958 33.4286 61.6755 33.4785C62.4218 33.914 63.0594 34.2994 63.2188 34.3994C63.3275 34.4707 63.4652 34.5493 63.5232 34.5778C63.6391 34.6349 64.8492 35.4344 65.3419 35.7913C65.6969 36.0411 65.9143 36.4266 65.9143 36.8049C65.9143 36.9191 65.9578 37.2261 66.0158 37.4973C66.2911 38.8108 66.3998 42.1514 66.2114 43.7361C66.11 44.5998 65.994 44.8925 65.1607 46.3772C65.0231 46.6342 64.8564 46.934 64.7985 47.0553C64.7405 47.1696 64.5883 47.4265 64.4724 47.6264C64.3492 47.8191 64.2188 48.0476 64.1753 48.1261C64.1318 48.2046 64.0376 48.3616 63.9579 48.483C63.8782 48.5972 63.7913 48.7471 63.7623 48.8042C63.5811 49.1825 62.1537 51.1598 62.0595 51.1598C62.0305 51.1598 62.0015 50.7886 62.0015 50.3389C62.0015 49.4181 61.9581 49.4966 62.7768 48.8256C62.987 48.6543 63.2696 48.3117 63.4507 48.0047C63.7913 47.4479 64.9941 45.1423 65.0665 44.9068C65.0883 44.8354 65.1752 44.5784 65.2549 44.35C65.3419 44.1144 65.4071 43.7646 65.4071 43.5648C65.4071 42.6011 64.9579 39.1962 64.7115 38.3396C64.6535 38.1398 64.6101 37.9328 64.6101 37.8757C64.6028 37.7115 64.3057 37.4045 63.9942 37.2546C63.6101 37.0619 63.0377 36.8121 62.3276 36.5265C61.4436 36.1696 61.1755 36.0411 61.0161 35.8984C60.9436 35.827 60.6973 35.6271 60.4726 35.4558C59.422 34.6278 58.9945 34.2851 58.9582 34.2423C58.9365 34.2138 58.5235 33.8997 58.0308 33.5428C57.0236 32.8075 56.9149 32.7719 56.0309 33.0003C55.6179 33.1002 55.2846 33.1859 54.4513 33.3929C54.0528 33.4857 53.3572 33.4214 53.234 33.2787C53.1688 33.2073 53.1905 33.1716 53.3209 33.1359C53.4151 33.1073 53.6977 32.986 53.9586 32.8647C54.5093 32.6148 54.8426 32.4721 55.1759 32.3364C55.2991 32.2865 55.5164 32.2008 55.6469 32.1437C55.77 32.0937 56.0237 31.9938 56.2048 31.9224C56.386 31.8582 56.5961 31.7654 56.6758 31.7225C57.0743 31.5155 57.8351 31.5013 58.2119 31.694ZM33.4526 32.5149C33.4526 32.5434 33.0903 32.8361 32.6483 33.1645C31.7354 33.8426 31.6484 33.9711 31.5904 34.792C31.547 35.363 31.4093 35.6271 31.1195 35.6914C31.0253 35.7128 30.7717 35.7984 30.5543 35.8841C30.3369 35.9698 30.0905 36.0554 30.0108 36.0768C29.8369 36.1268 29.1776 36.6051 29.1776 36.6836C29.1776 36.7692 29.5543 36.7478 29.9094 36.6407C30.6847 36.4052 30.8731 36.3838 31.2137 36.498C31.5615 36.6193 32.0469 36.5908 32.6918 36.4195C32.8947 36.3624 33.2932 36.2553 33.5831 36.1768C33.8946 36.0911 34.3004 35.9127 34.554 35.7413C35.0395 35.4201 35.0467 35.4201 35.0467 35.5486C35.0467 35.7056 34.3729 36.2838 34.0323 36.4123C33.8512 36.4837 33.6121 36.5836 33.4889 36.6336C33.3729 36.6836 33.1338 36.7764 32.9672 36.8406C32.7933 36.9049 32.5179 37.0048 32.3513 37.069C32.1774 37.1333 31.9455 37.2261 31.8223 37.276C31.7064 37.326 31.46 37.4188 31.2789 37.4902C31.0977 37.5544 30.8731 37.6472 30.7717 37.6829C30.6702 37.7186 30.3659 37.8257 30.0833 37.9185C29.808 38.0113 29.3949 38.1612 29.1776 38.2397C28.9602 38.3254 28.6993 38.411 28.5979 38.4324C28.337 38.4824 28.0617 38.7037 28.1052 38.825C28.1341 38.8964 28.4095 38.9464 29.0761 39.0178C29.5906 39.0677 30.0616 39.1391 30.1195 39.1677C30.1775 39.1962 30.6485 39.6531 31.1629 40.167C32.2353 41.2449 32.2281 41.2235 31.3368 41.3734C31.047 41.4233 30.5543 41.509 30.25 41.5661C29.9384 41.6161 29.4167 41.716 29.0906 41.7731C28.7573 41.8373 28.3443 41.923 28.1631 41.9658C27.982 42.0087 27.6921 42.0658 27.511 42.0943C26.8444 42.2085 26.7067 42.3513 26.569 43.058C26.2502 44.6426 26.2575 44.6355 25.714 44.1144C25.2503 43.6719 24.3228 42.4726 24.3228 42.3156C24.3228 42.1586 24.5184 41.9016 25.1488 41.2092C25.4242 40.9094 25.7068 40.5882 25.7647 40.5025C26.0183 40.1527 26.2067 39.4389 26.0763 39.3533C25.9966 39.3104 25.5401 39.8172 25.4604 40.0314C25.4387 40.0956 25.1633 40.3383 24.8518 40.5739C23.9605 41.2449 23.8808 41.2663 23.6489 40.888C23.3084 40.3098 23.8083 39.7744 26.6777 37.6472C27.2791 37.1975 28.0182 36.6622 28.3298 36.4409C28.8587 36.0697 29.0181 35.8984 29.8949 34.7705C30.0543 34.5707 30.3079 34.3066 30.4601 34.1924C30.7209 33.9925 32.018 33.1859 32.6918 32.8147C32.8657 32.7147 33.0541 32.5934 33.1048 32.5434C33.199 32.4506 33.4526 32.4221 33.4526 32.5149ZM33.6265 34.9276C33.9019 35.1917 33.6555 35.6057 33.1483 35.7271C32.9454 35.7699 32.757 35.7913 32.7208 35.7699C32.6846 35.7485 32.6556 35.5772 32.6556 35.3844C32.6556 34.9419 32.7788 34.8134 33.199 34.8134C33.3874 34.8134 33.5613 34.8562 33.6265 34.9276ZM55.9005 38.7251C57.0743 39.8886 58.4003 41.4376 59.6973 43.1365C60.8204 44.607 60.8857 44.7497 61.0016 46.056C61.1755 48.0476 61.0958 50.6387 60.7987 52.7659C60.6031 54.1293 60.3495 55.4855 60.1466 56.1994C60.0886 56.3992 60.0451 56.6134 60.0451 56.6847C60.0451 57.0345 59.5742 57.5699 58.8133 58.0838C58.6757 58.1766 58.5452 58.2766 58.5235 58.298C58.5018 58.3194 58.2844 58.4907 58.038 58.6763C57.7917 58.8619 57.5453 59.0546 57.4946 59.1046C57.4439 59.1474 57.0743 59.4472 56.6758 59.7613C56.2773 60.0754 55.9222 60.368 55.8787 60.4109C55.8425 60.4537 55.6614 60.5965 55.4802 60.7321C55.1831 60.9534 53.6905 62.1669 53.0818 62.6808C52.9441 62.8022 52.6688 63.0306 52.4804 63.1876C52.292 63.3375 52.0601 63.5303 51.9732 63.6159C51.879 63.6944 51.4805 64.0371 51.0819 64.3797C50.4008 64.965 50.0603 65.3648 49.6835 66.0429C49.5965 66.1999 49.4589 66.4426 49.3792 66.5783C49.2994 66.7139 49.1473 66.978 49.0531 67.1636C48.8067 67.6276 48.6691 67.6133 48.4589 67.0922C48.3647 66.8709 48.2488 66.5783 48.1908 66.4498C47.9952 66.0001 47.8865 65.7502 47.7633 65.4362C47.6981 65.2577 47.6039 65.0364 47.5677 64.9365C47.2996 64.2655 47.2706 64.1227 47.3575 63.7587C47.4083 63.5588 47.488 63.2876 47.5459 63.1519C47.5967 63.0163 47.6836 62.7736 47.7488 62.6166C48.0097 61.9242 48.1111 61.6743 48.1981 61.4745C48.2488 61.3531 48.6111 60.5179 48.9951 59.6185C49.3792 58.712 49.727 57.9482 49.7632 57.9125C49.7994 57.8697 49.8284 57.7983 49.8284 57.7412C49.8284 57.6841 49.9081 57.5485 50.0096 57.4271C50.1255 57.2915 50.1907 57.2558 50.1907 57.3272C50.1907 57.3843 50.1617 57.4557 50.1182 57.4771C50.082 57.4985 50.0458 57.6056 50.0458 57.7126C50.0458 57.8126 50.0023 58.0267 49.9443 58.1909C49.7197 58.8476 49.3284 60.2039 49.0748 61.1889C49.0169 61.4245 48.9082 61.8385 48.843 62.1169C48.6691 62.8022 48.6691 63.9014 48.843 64.5082C49.0458 65.222 49.1835 65.5789 49.2487 65.5789C49.285 65.5789 49.3864 65.429 49.4806 65.2434C49.6618 64.8651 50.7341 63.7658 51.8935 62.7522C52.292 62.4096 52.6326 62.1026 52.6543 62.0812C52.7702 61.9527 55.9657 59.2545 56.7845 58.5978C56.9656 58.455 57.1613 58.2908 57.2265 58.2266C57.2917 58.1695 57.567 57.9411 57.8424 57.7269C58.6684 57.0773 59.009 56.7204 59.0887 56.4064C59.2988 55.6354 59.4075 53.3512 59.3785 50.5531C59.3495 47.9904 59.335 47.7406 59.2046 47.3694C58.9293 46.6271 58.1395 45.5992 56.6685 44.0716C56.2845 43.6719 55.9729 43.2864 55.944 43.1793C55.9222 43.0722 55.8642 42.7796 55.8063 42.5226C55.7556 42.2656 55.6541 41.8016 55.5889 41.4876C55.5237 41.1735 55.4295 40.7238 55.3715 40.4882C55.3208 40.2527 55.2194 39.803 55.1541 39.4889C55.0817 39.1748 54.9802 38.7536 54.9295 38.5466C54.7919 38.0541 54.7991 38.0256 55.0165 38.0256C55.1541 38.0256 55.3788 38.1969 55.9005 38.7251ZM41.1406 40.0314C41.1623 40.167 41.2565 40.5311 41.3507 40.8451C41.4376 41.1592 41.5391 41.5447 41.5753 41.7017C41.6043 41.8588 41.6695 42.1015 41.713 42.2371C41.8144 42.5797 41.8072 42.9723 41.684 43.2507C41.626 43.3792 41.3579 44.0002 41.0971 44.6284C40.6044 45.7776 40.4377 46.1631 40.0319 47.0197C39.9088 47.2766 39.7204 47.6764 39.6117 47.9119C39.0248 49.1825 38.2567 50.6601 38.0683 50.91C37.9451 51.067 37.0756 51.9521 36.1336 52.873L34.4236 54.5504L34.2932 55.1929C34.2207 55.5712 34.1627 56.2279 34.1555 56.799L34.141 57.7626L34.583 58.4764C35.1047 59.3187 35.5322 59.9398 36.2061 60.8249C36.4669 61.1818 36.7495 61.5601 36.8292 61.6601C37.322 62.331 38.4306 63.723 38.9088 64.294C39.2276 64.6652 39.6044 65.1149 39.7493 65.2863C40.4739 66.15 41.2927 67.0708 41.9304 67.7418C42.1115 67.9274 42.5825 68.2986 42.981 68.5627C43.3795 68.8268 43.7129 69.098 43.7273 69.1694C43.7708 69.3978 43.6404 69.3479 41.9376 68.4699C41.5246 68.2486 41.2058 67.9916 40.4884 67.2921C39.6117 66.4284 38.6262 65.3933 38.1915 64.8651C38.0755 64.7295 37.9668 64.601 37.9451 64.5796C37.8582 64.5011 36.9307 63.416 36.2858 62.6451C35.9163 62.1954 35.5395 61.7529 35.4598 61.6529C35.2641 61.4245 33.8439 59.5543 33.5613 59.1474C32.7933 58.0553 32.6918 57.7698 32.7643 56.9489C32.8947 55.3927 32.9309 55.0144 33.0179 54.5147C33.1483 53.751 33.2932 53.4369 33.728 52.9301C34.8004 51.6952 35.4525 50.8814 37.206 48.5829C38.6987 46.6199 39.5537 45.4778 39.6044 45.3565C39.6189 45.3208 39.7711 45.0852 39.945 44.8354C40.1189 44.5855 40.2638 44.3643 40.2638 44.3428C40.2638 44.3286 40.358 44.1715 40.4812 44.0002C40.858 43.4506 41.1333 42.8295 41.1333 42.544C41.1333 42.3941 41.0898 41.9801 41.0319 41.6303C40.8869 40.7381 40.8145 39.91 40.8797 39.8101C40.9667 39.6745 41.0971 39.7744 41.1406 40.0314ZM33.5034 42.2014C33.7135 42.2585 34.0613 42.3584 34.2714 42.4155C34.4888 42.4726 34.7352 42.5226 34.8221 42.5226C34.9091 42.5226 35.0395 42.5512 35.112 42.594C35.1844 42.6297 35.467 42.7082 35.7424 42.7724C36.0177 42.8367 36.322 42.9081 36.4235 42.9295C36.6553 42.9866 37.0031 43.2364 37.0031 43.3506C37.0031 43.3935 37.0539 43.472 37.1118 43.5219C37.1698 43.5719 37.235 43.7147 37.264 43.8432C37.3075 44.0787 37.1843 44.3785 36.7568 45.128C36.6698 45.2851 36.4669 45.6348 36.3148 45.9132C36.0249 46.4343 35.8003 46.8198 35.6409 47.0553C35.5974 47.1339 35.525 47.2624 35.4887 47.3409C35.4525 47.4194 35.3366 47.605 35.2351 47.7549C35.1337 47.9048 35.0467 48.0476 35.0467 48.0832C35.0467 48.2046 34.525 48.6614 34.3004 48.7257C34.1772 48.7614 33.7425 48.9113 33.344 49.054C32.9454 49.1968 32.5252 49.3396 32.402 49.3753C32.2861 49.4038 32.0687 49.4752 31.931 49.5252C31.7933 49.568 31.5615 49.6465 31.4238 49.6965C31.2861 49.7464 31.076 49.8178 30.9528 49.8464C30.7499 49.9106 30.7354 49.9392 30.7137 50.2818C30.6992 50.4817 30.7427 50.86 30.8079 51.117C30.8659 51.3811 30.9166 51.6737 30.9166 51.7737C30.9166 51.8736 30.9673 52.0521 31.0325 52.1734C31.1267 52.3519 31.1774 52.3804 31.3368 52.3519C31.576 52.3162 32.1411 52.1806 32.5976 52.0521C32.8223 51.995 32.9599 51.9807 32.9889 52.0307C33.0686 52.152 32.5179 52.5589 32.0904 52.6874C31.8658 52.7516 31.5252 52.8587 31.3368 52.9158C31.1557 52.98 30.8948 53.0157 30.7644 53.0014C30.5398 52.98 30.5181 52.9515 30.4021 52.5517C30.2644 52.0949 30.1268 51.5738 29.9384 50.7672C29.808 50.2318 29.663 49.825 29.4819 49.4823C29.337 49.2111 29.2718 48.1689 29.3877 47.9548C29.4746 47.8049 29.4891 47.812 29.9963 48.2403C30.6122 48.7542 30.7137 48.7971 31.0542 48.7257C31.7136 48.5829 33.3584 48.0261 33.6193 47.8548C33.7715 47.7549 35.0467 46.1559 35.0467 46.0631C35.0467 46.0417 35.1772 45.8419 35.3293 45.6063C35.4887 45.3707 35.7351 44.9567 35.88 44.6783L36.1481 44.1787L36.0105 43.8075C35.88 43.4292 35.7786 43.3578 35.1917 43.165C35.0902 43.1294 34.8294 43.0366 34.612 42.9509C34.1048 42.7582 33.0251 42.3798 32.8367 42.337C32.5324 42.2585 32.5034 42.2371 32.5469 42.1657C32.6121 42.0586 33.0541 42.08 33.5034 42.2014ZM28.0907 44.3214C28.0907 44.8068 27.8588 45.8775 27.7501 45.8775C27.6994 45.8775 27.6559 45.8561 27.6559 45.8204C27.6559 45.7919 27.4748 45.5635 27.2574 45.3065C27.04 45.0567 26.8589 44.814 26.8589 44.7711C26.8589 44.557 27.6197 44.0288 27.9313 44.0216C28.0689 44.0216 28.0907 44.0573 28.0907 44.3214ZM34.5613 45.7491C34.4526 45.9204 34.1338 46.3558 33.8584 46.7199C33.4744 47.2267 33.286 47.4194 33.0469 47.5193C32.873 47.5978 32.7063 47.6621 32.6628 47.6621C32.6194 47.6621 32.4817 47.7049 32.3513 47.762C31.9817 47.9191 31.5035 48.0476 31.4528 48.0047C31.4238 47.969 31.6557 47.7549 32.5469 47.0268C32.8367 46.7912 33.7715 46.0489 34.2424 45.6848C34.5033 45.4778 34.7279 45.335 34.7424 45.3707C34.7569 45.4136 34.6772 45.5777 34.5613 45.7491ZM45.5823 48.7614C45.72 49.3895 45.7127 49.7322 45.5606 50.3389C45.307 51.3097 45.0896 52.2948 44.72 54.1221C44.365 55.871 44.2346 56.5491 44.1766 56.9774C44.1476 57.1701 44.0896 57.5271 44.0462 57.7626C43.9375 58.3408 43.7708 59.4329 43.6404 60.4823C43.5172 61.4959 43.5607 61.7529 44.0752 63.1662C44.2635 63.6659 44.4085 64.0442 44.5027 64.2584C44.5534 64.3726 44.6403 64.601 44.7055 64.758C44.8577 65.1578 45.2562 66.1357 45.3939 66.4355C45.4519 66.5711 45.5388 66.7781 45.5895 66.8995C45.6403 67.0137 45.8287 67.4634 46.0171 67.8988C46.3721 68.734 46.604 69.5692 46.5025 69.6691C46.4518 69.7191 46.2852 69.5335 46.0895 69.1837C44.2853 65.9572 42.8578 63.1591 41.8651 60.8749C41.4521 59.9398 41.4594 59.4829 41.8724 58.1552C41.9159 58.0196 41.9811 57.7912 42.0101 57.6555C42.0391 57.5199 42.097 57.3058 42.1332 57.1916C42.1767 57.0702 42.2637 56.7847 42.3361 56.5491C42.4013 56.3136 42.4955 56.0066 42.5463 55.871C42.597 55.7354 42.6984 55.4284 42.7636 55.1929C42.8361 54.9573 42.9231 54.6861 42.9665 54.5861C43.0028 54.4862 43.0607 54.3077 43.097 54.1935C43.1259 54.0722 43.2709 53.6582 43.4158 53.2656C43.5607 52.873 43.7056 52.4518 43.7418 52.3376C43.7708 52.2162 43.8723 51.945 43.9592 51.7309C44.0462 51.5167 44.1404 51.2597 44.1766 51.1598C44.2128 51.0599 44.307 50.8029 44.394 50.5887C44.4809 50.3746 44.5751 50.0962 44.6041 49.982C44.6331 49.8606 44.6983 49.7036 44.7345 49.6251C44.8287 49.4609 45.1838 48.5544 45.2925 48.2117C45.3649 47.9833 45.4519 48.1404 45.5823 48.7614Z" fill="#001F6B"/>
<path d="M58.5366 18.635C58.5 18.7132 58.4634 19.2534 58.4634 19.8717C58.4634 21.3073 58.3463 21.2149 60.1829 21.3642C61.4488 21.4708 62.4073 21.5205 62.7146 21.4921C62.9341 21.4779 63 21.151 63 20.1062C63 19.1823 62.9854 19.0686 62.8463 18.898C62.7293 18.7488 62.6341 18.7132 62.3927 18.7132C62.2244 18.7132 61.6756 18.6635 61.1707 18.6066C60.6659 18.5498 59.8902 18.5 59.4366 18.5C58.6976 18.5 58.6098 18.5142 58.5366 18.635ZM23.8683 19.1878C23.4952 19.2233 23.1 19.2659 22.9976 19.2944C22.8952 19.3157 22.4708 19.3654 22.0537 19.401C20.9781 19.4934 21 19.4792 21 20.2894C21 20.6732 21.0293 20.9788 21.0732 21.0001C21.1464 21.0427 21.5854 21.0001 23.3415 20.7869C23.8025 20.73 24.3366 20.6803 24.5195 20.6803C24.7537 20.6803 24.922 20.6305 25.0537 20.531C25.2293 20.396 25.2439 20.3462 25.2439 19.863C25.2439 19.0741 25.2512 19.0812 23.8683 19.1878Z" fill="#2553C3"/>
</svg>
