<svg width="90" height="90" viewBox="0 0 90 90" fill="none" xmlns="http://www.w3.org/2000/svg">
<rect width="90" height="90" rx="10" fill="white"/>
<g filter="url(#filter0_i_952_1593)">
<path d="M45.0003 15C53.6783 15 62.6856 15.7343 71.8281 17.2983C71.9645 20.9312 72.1195 26.5465 71.8593 31.3118C71.2767 41.936 68.9176 50.1819 64.4331 57.2629C59.9624 64.3233 53.0399 70.3944 45.0003 74C36.9608 70.3944 30.0375 64.3235 25.5671 57.2629C21.083 50.1819 18.7235 41.9357 18.1414 31.3118C17.8802 26.5468 18.0355 20.9312 18.1721 17.2983C27.3146 15.7343 36.3224 15 45.0003 15ZM45.0003 16.0234C36.4454 16.0234 27.76 16.7444 19.1726 18.1676C18.9841 23.557 18.9841 27.8453 19.1714 31.2565C19.743 41.6995 22.053 49.7908 26.4403 56.7187C30.8272 63.646 37.405 69.3685 45.0003 72.8743C52.595 69.3685 59.1735 63.646 63.5603 56.7187C67.9477 49.7906 70.2569 41.6995 70.8293 31.2565C71.0166 27.8453 71.0166 23.557 70.8281 18.1676C62.2406 16.7444 53.5548 16.0234 45.0003 16.0234ZM44.9257 47.0471C44.9257 47.0471 45.0946 48.0415 45.1459 48.3298C45.1747 48.4933 45.1809 48.5371 45.1392 48.6974C45.0209 49.114 44.2382 52.6061 43.8037 55.1524C43.5998 56.3243 43.4235 57.4874 43.3208 58.4825C43.2628 59.0479 43.2816 59.1834 43.4322 59.6851C43.8587 61.1028 45.4366 64.8068 45.7397 65.4821C45.7726 65.5564 45.7941 65.6352 45.8034 65.7159L45.9172 66.5894C45.4118 65.8319 42.6646 60.8226 41.5857 58.0486C41.4585 57.7219 41.4339 57.5609 41.5748 56.9601C42.325 53.7736 44.3553 48.3579 44.9257 47.0471ZM40.9195 39.3483C40.9969 39.5728 41.641 41.7587 41.6901 42.2784C41.7298 42.567 41.7231 42.6447 41.6197 42.921C41.0552 44.4108 39.3481 48.1152 38.6897 49.3523C38.5433 49.6244 38.4057 49.8016 38.1302 50.0794C37.5014 50.7142 36.2983 51.9138 35.5533 52.585C35.2827 52.8291 35.2098 53.0375 35.1548 53.3534C35.066 53.8606 34.9779 54.7262 34.9534 55.1731C34.932 55.5662 34.9963 55.7501 35.2173 56.1395C36.5302 58.4628 40.9131 63.808 42.1618 64.9305C42.2524 65.0118 42.3186 65.0664 42.5096 65.1923C42.6931 65.3137 43.2918 65.6989 43.2918 65.6989C43.3158 65.7157 43.3359 65.7372 43.3511 65.7621L43.5678 66.1405C43.0083 65.8644 42.111 65.4207 41.6477 65.1746C41.5377 65.1158 41.4339 65.0462 41.3379 64.9669C39.8757 63.7618 35.3948 58.5595 34.0769 56.3873C33.7483 55.845 33.7145 55.6694 33.7587 55.1561C33.8413 54.2006 33.9693 52.9992 34.0814 52.4726C34.1493 52.155 34.2197 51.9684 34.465 51.6879C36.3333 49.562 39.9359 44.8678 40.986 42.8605C41.1028 42.6334 41.1127 42.5545 41.1152 42.3401C41.1219 41.7181 40.9218 40.5069 40.8692 40.2009C40.8611 40.1529 40.859 40.1041 40.863 40.0556L40.9195 39.3483ZM53.149 38.1811C53.3504 38.2738 53.679 38.378 53.8266 38.5503C56.1495 40.9556 58.0071 43.4496 58.3791 44.1069C58.4508 44.2333 58.4996 44.3596 58.5175 44.5042C58.9349 48.012 58.5763 51.728 57.7236 54.9607C57.6465 55.2523 57.5602 55.4017 57.2774 55.6124C55.3908 57.0168 50.9062 60.7051 49.4006 62.0771C49.2357 62.2282 49.0923 62.4009 48.9745 62.5904C48.595 63.2077 48.1265 64.0683 47.8287 64.6185C47.5226 63.9557 46.8555 62.3389 46.6266 61.6855C46.5519 61.4723 46.5385 61.3605 46.6174 61.0751C46.9906 59.72 48.7552 55.7803 49.0987 55.0679C49.0943 55.1593 49.1144 55.399 49.0791 55.4841C48.9244 55.9499 47.9755 59.0551 47.7828 60.4015C47.7399 60.7009 47.7436 60.7818 47.7828 61.0758C47.8674 61.7044 48.2461 62.8574 48.2461 62.8574C48.2892 62.7556 48.7141 61.9143 49.0124 61.6837C50.7706 59.9668 54.4615 56.8347 56.5765 55.1352C56.8141 54.9445 56.9027 54.8169 56.9555 54.455C57.2174 52.6717 57.2933 49.4707 57.1356 47.1412C57.1068 46.7013 56.9606 46.2769 56.712 45.9113C56.1391 45.0713 55.454 44.2763 54.4154 43.2551C54.2668 43.109 54.1667 42.9214 54.1284 42.7175C53.8254 41.1136 53.149 38.1811 53.149 38.1811ZM33.5062 41.891C33.6502 41.8449 33.8041 41.8392 33.9511 41.8745C34.6133 42.0323 36.0151 42.3733 37.0746 42.6422C37.2234 42.6798 37.4087 42.8178 37.4878 42.9483L37.7185 43.3291C37.7582 43.3945 37.7804 43.4689 37.783 43.5453C37.7855 43.6216 37.7684 43.6973 37.7331 43.7652C37.4874 44.2319 37.2348 44.6951 36.9754 45.1544L36.7557 45.5436C36.3512 46.2555 35.9486 46.9426 35.72 47.304C35.5694 47.5427 35.4856 47.6484 35.2175 47.7425C34.1751 48.1064 32.8805 48.5413 32.1111 48.7886C31.9539 48.839 31.9006 48.9338 31.9311 49.1069C31.9861 49.4221 32.1637 50.4924 32.2317 50.8046C32.2567 50.9199 32.3497 51.0119 32.5224 50.9789C32.9772 50.8934 34.1878 50.5994 34.1878 50.5994C34.1878 50.5994 33.8309 50.9268 33.6173 51.1198C33.5787 51.1559 33.5326 51.1831 33.4822 51.1994C33.1523 51.3088 32.3468 51.5328 32.0958 51.5876C31.8998 51.6294 31.7751 51.553 31.7247 51.3332C31.7247 51.3332 31.3812 49.8828 31.2572 49.3894C31.2384 49.3173 31.2173 49.2458 31.1942 49.175C31.1012 48.8896 30.8778 48.3284 30.7518 48.0343C30.737 48.0002 30.7297 47.9633 30.7302 47.9262C30.7339 47.5904 30.7964 46.8408 30.7964 46.8408C30.7964 46.8408 31.5377 47.5301 31.8964 47.7792C31.9772 47.8357 32.0256 47.8473 32.1248 47.8222C32.6176 47.6966 33.7505 47.3246 34.3723 47.094C34.5139 47.0412 34.6391 46.9524 34.7351 46.8364C35.3785 46.0657 36.185 44.8665 36.651 43.9621C36.7148 43.8381 36.7278 43.6944 36.6872 43.5612L36.5868 43.2332C36.5575 43.1373 36.4551 43.0292 36.3608 42.9933C35.3757 42.6201 34.3835 42.2653 33.3849 41.9291L33.5062 41.891ZM55.1864 32.5554C55.4271 32.4674 55.6926 32.4734 55.929 32.5724C57.7665 33.3377 60.8562 35.1382 62.5737 36.4064C62.7397 36.5291 62.8056 36.6137 62.8493 36.8116C63.2525 38.6312 63.4056 41.4443 63.1516 43.8124C63.1332 43.9825 63.099 44.0845 63.0095 44.2662C61.9212 46.474 60.6965 48.5521 59.4074 50.1549C59.4267 49.9565 59.518 49.0199 59.5242 48.4749C59.5244 48.446 59.5313 48.4176 59.5444 48.3918C59.5574 48.366 59.5763 48.3435 59.5996 48.3261C59.8553 48.1293 60.1066 47.927 60.3535 47.7194C60.444 47.6417 60.4944 47.5835 60.5415 47.508C61.0666 46.666 62.0055 44.9034 62.3838 43.8429C62.4765 43.5845 62.5127 43.3096 62.4901 43.0363C62.3689 41.5586 62.1352 39.5111 61.7868 38.1747C61.7581 38.0621 61.7056 37.9568 61.6328 37.8658C61.56 37.7749 61.4685 37.7002 61.3644 37.6469C61.0638 37.4938 60.4746 37.2273 59.1323 36.6933C58.9462 36.6194 58.773 36.5167 58.6194 36.389C57.7392 35.6552 56.3633 34.5553 55.5071 33.9223C55.3834 33.8307 55.2412 33.7668 55.0902 33.735C54.9391 33.7032 54.7829 33.7043 54.6324 33.7382C54.0082 33.8791 53.3867 34.0313 52.7681 34.1944C52.6163 34.2352 52.5563 34.2387 52.3995 34.2205C52.1493 34.1917 51.6538 34.1529 51.4521 34.1379C52.9082 33.4591 54.3092 32.8738 55.1864 32.5554ZM35.7592 44.5002C35.3038 45.2436 34.7597 46.0333 34.3482 46.5266C34.2931 46.5919 34.2218 46.6417 34.1414 46.6712C33.5628 46.8816 32.9787 47.0769 32.3897 47.2568L35.7592 44.5002ZM29.7406 43.5243L29.472 45.3641L28.5581 44.2999C28.7245 43.9422 29.2111 43.6044 29.7406 43.5243ZM28.0378 39.3486L27.7079 39.5546C27.6254 39.6067 27.6028 39.6293 27.5683 39.7008C27.5021 39.8356 27.4313 39.9681 27.356 40.0981C27.3334 40.1369 27.2727 40.1972 27.2404 40.222C26.8511 40.5185 26.4565 40.808 26.0567 41.0905C26.0346 41.1058 26.0066 41.0991 25.9875 41.0807C25.9466 41.0399 25.7744 40.8462 25.7439 40.8007C25.7189 40.7656 25.7058 40.7235 25.7065 40.6805C25.708 40.5708 25.7131 40.4612 25.7219 40.3518C25.7315 40.2267 25.7677 40.1672 25.9215 40.0091C26.0934 39.8324 26.2809 39.6465 26.4778 39.4557C26.9607 39.0523 28.1799 38.071 30.3572 36.5293C30.3987 36.5006 30.4352 36.4655 30.4656 36.4254C30.694 36.1195 31.3435 35.2837 31.5038 35.0851C31.5262 35.0568 31.5518 35.0311 31.5802 35.0086C31.7848 34.845 31.9997 34.6945 32.2237 34.558C32.8301 34.1789 34.0047 33.4876 34.6627 33.1081L34.4129 33.4129C34.3991 33.4264 34.3854 33.439 34.3715 33.453C33.9035 33.8026 33.4385 34.1561 32.9765 34.5135C32.9055 34.5693 32.8773 34.618 32.8609 34.706C32.8046 35.0172 32.7108 35.6082 32.6833 35.9354C32.6754 36.0313 32.6337 36.0787 32.5352 36.1183C32.1062 36.2914 31.5975 36.4735 31.1863 36.637C31.098 36.6717 31.0737 36.685 31.0216 36.7245C30.9805 36.756 30.4341 37.2403 30.4341 37.2403C30.4341 37.2403 31.6221 36.95 32.0578 36.8521C32.162 36.829 32.2066 36.8352 32.3026 36.8801C32.3926 36.9214 32.5424 36.9804 32.6216 37.009C32.7428 37.0532 32.8071 37.0513 32.941 37.0222C33.4318 36.9136 34.2574 36.7191 34.6969 36.6056C34.9253 36.5466 35.0501 36.4853 35.2435 36.3511C35.4541 36.2058 35.9873 35.8091 35.9873 35.8091C35.9873 35.8091 35.9774 35.8791 35.9702 35.918C35.9653 35.9475 35.9514 35.9748 35.9303 35.9961C35.804 36.1456 35.6732 36.2913 35.5382 36.433C35.3222 36.6547 35.1929 36.7336 34.9219 36.846C33.6731 37.3622 31.5395 38.1641 29.9391 38.7138C29.8341 38.7502 29.7888 38.78 29.7111 38.8589C29.6266 38.9439 29.514 39.0678 29.514 39.0678C29.514 39.0678 30.819 39.162 31.2173 39.2075C31.3465 39.222 31.4388 39.264 31.5375 39.3483C31.8649 39.6278 32.9489 40.7351 33.2733 41.1195C33.2733 41.1195 30.1915 41.6279 28.7635 41.9797C28.5871 42.0227 28.4991 42.1341 28.4592 42.2742C28.3411 42.686 28.0626 44.0103 28.0626 44.0103C28.0626 44.0103 27.9634 43.9788 27.825 43.8997C27.73 43.8456 27.6819 43.8006 27.5777 43.6915C27.2399 43.3375 26.6846 42.6594 26.4178 42.2666C26.3394 42.1506 26.3064 42.0031 26.4044 41.8846C26.6938 41.5311 27.2754 40.886 27.5961 40.5544C27.6303 40.5185 27.6737 40.456 27.7198 40.3661C27.8434 40.1124 27.9773 39.5855 28.0378 39.3486ZM47.9326 32.4244C48.0238 32.4087 48.1176 32.4215 48.2012 32.4608L48.8371 32.7627C48.8682 32.7776 48.8955 32.7992 48.9171 32.8259C48.9387 32.8526 48.9539 32.8838 48.9618 32.9171C49.0481 33.278 49.154 33.7559 49.225 34.1622C49.2536 34.3309 49.222 34.5043 49.1357 34.6524C48.8725 35.1062 48.3321 35.9224 48.0296 36.361C47.9623 36.4593 47.9542 36.5785 47.975 36.6955C48.1121 37.4475 48.6838 40.0733 48.6838 40.0733L48.3239 39.7483C48.2549 39.6876 48.2034 39.6098 48.1746 39.5229C47.9187 38.7799 47.44 37.228 47.2198 36.4731C47.202 36.4121 47.1995 36.3478 47.2124 36.2857C47.2253 36.2236 47.2533 36.1656 47.294 36.1166C47.6692 35.6647 48.2158 34.942 48.5353 34.484C48.6245 34.3552 48.654 34.2131 48.6015 34.1069C48.502 33.9098 48.3967 33.7156 48.2858 33.5245C48.2534 33.4674 48.2006 33.4245 48.1377 33.4043L47.7061 33.2671C47.6309 33.2434 47.5498 33.2449 47.4755 33.2713C46.5353 33.6096 45.2709 34.0973 44.4971 34.4157C44.3838 34.4624 44.3374 34.4661 44.2002 34.4454C43.9763 34.4127 43.3238 34.2967 43.0036 34.2372C42.9903 34.2346 42.9777 34.2288 42.9671 34.2204C42.9565 34.212 42.948 34.2012 42.9424 34.189C42.9368 34.1767 42.9343 34.1632 42.935 34.1498C42.9357 34.1363 42.9397 34.1232 42.9465 34.1116L43.326 33.4591C43.3512 33.4156 43.3853 33.3777 43.4261 33.3479C43.4669 33.3181 43.5134 33.2971 43.5629 33.2861C44.7836 33.01 46.3976 32.6929 47.9326 32.4244ZM34.4271 35.4201C34.4554 35.4176 34.4837 35.424 34.5081 35.4384C34.5325 35.4528 34.5517 35.4745 34.563 35.5003C34.6396 35.6773 34.6188 35.8747 34.5446 36.0433C34.5159 36.1122 34.4271 36.1788 34.3544 36.1948L33.7453 36.329C33.7368 36.3308 33.728 36.3306 33.7195 36.3285C33.7111 36.3263 33.7033 36.3223 33.6967 36.3166C33.6901 36.311 33.6849 36.3039 33.6816 36.2959C33.6782 36.288 33.6768 36.2793 33.6773 36.2707L33.7344 35.5613C33.7363 35.5381 33.7464 35.5163 33.763 35.4998C33.7796 35.4834 33.8015 35.4732 33.8249 35.4713L34.4271 35.4201ZM41.3568 30.8617C41.3728 30.8615 41.3886 30.8655 41.4025 30.8733C41.4165 30.8812 41.4281 30.8925 41.4362 30.9062C41.4442 30.9199 41.4485 30.9355 41.4486 30.9514C41.4486 30.9673 41.4444 30.9829 41.4364 30.9966L39.9516 33.5336C39.8691 33.6828 39.7309 33.7941 39.5666 33.8434L36.7822 34.7077C36.4792 34.8017 36.1662 34.8605 35.8494 34.8828C35.2319 34.929 33.3976 34.986 33.3976 34.986L33.4378 34.8997C33.4569 34.8591 33.4904 34.8269 33.532 34.8092L34.4 34.4437C34.4646 34.4169 34.5214 34.3745 34.5652 34.3203L35.9057 32.6828C35.9774 32.5953 36.0709 32.5114 36.1709 32.4593C37.0563 31.9969 38.6311 31.3027 39.7343 30.9371C39.8488 30.9013 39.9679 30.8818 40.088 30.8794L41.3568 30.8617ZM39.8682 27.9156C42.9408 27.6476 47.0985 27.5749 51.0704 27.8731C51.2957 27.8899 51.5167 27.943 51.7247 28.0304C53.026 28.5734 55.3348 29.7616 57.9017 31.2186C58.015 31.2829 58.1215 31.3584 58.2194 31.444C58.8994 32.0387 60.6224 33.7881 60.6224 33.7881L60.0849 33.6823C60.01 33.6679 59.9388 33.6385 59.8756 33.5961C58.7886 32.8713 57.2015 31.9281 55.8715 31.2631C55.7136 31.1844 55.5427 31.1346 55.367 31.1161C54.6706 31.0455 53.9723 30.9949 53.273 30.9642C52.9908 30.9526 52.7986 30.9059 52.5225 30.7668C51.995 30.5013 50.717 29.926 50.0804 29.6851C49.8081 29.5818 49.6692 29.5575 49.4023 29.5617C48.3086 29.5774 45.8168 29.6563 44.5442 29.7348C44.5011 29.7373 44.4578 29.7352 44.415 29.7286L43.8086 29.6345C45.5286 29.3404 49.78 28.9646 51.5397 28.8729L50.8237 28.6354C50.6852 28.5901 50.5408 28.5653 50.3951 28.5619C47.9899 28.5083 44.6819 28.5181 41.8831 28.7266C41.7101 28.7391 41.5405 28.781 41.3818 28.8505C40.5813 29.1993 38.6289 30.2498 36.6711 31.3287C36.0397 31.6768 35.3591 32.0544 34.7537 32.3922C34.7537 32.3922 34.998 32.0805 35.0451 32.0198C35.0868 31.9669 35.0994 31.9571 35.156 31.9207C35.4085 31.7526 36.1751 31.2624 36.4811 31.0394C37.0706 30.5984 38.0009 29.821 38.5555 29.3392C38.6804 29.2305 38.7881 29.1038 38.8749 28.9633C39.0542 28.6755 39.2502 28.3633 39.3707 28.1902C39.4734 28.04 39.6492 27.935 39.8682 27.9156ZM26.7836 20.9098C27.5425 20.8321 27.9666 21.1249 27.9666 21.887V22.3086C27.9666 23.0884 27.5425 23.4038 26.7836 23.4822C25.7335 23.5909 24.6843 23.7089 23.6363 23.8362V24.9885C23.4166 25.0152 23.1964 25.042 22.9766 25.0698V21.3459C24.244 21.1868 25.513 21.0414 26.7836 20.9098ZM62.0093 20.7891C63.6834 20.9509 65.3552 21.1364 67.0241 21.3454V21.9463C66.302 21.8556 65.5794 21.7696 64.8562 21.6881V24.8119C64.6361 24.7871 64.4159 24.7626 64.1957 24.7384V21.6144C63.4675 21.5348 62.7387 21.4599 62.0095 21.3897L62.0093 20.7891ZM34.2101 20.2997V20.8998C32.8332 20.9841 31.4574 21.0844 30.0829 21.2004V22.1176C31.3054 22.0138 32.529 21.9231 33.7535 21.8455V22.4463C32.529 22.524 31.3054 22.6145 30.0829 22.7177V23.7241C31.4574 23.6076 32.8332 23.5074 34.2101 23.4235V24.0236C32.6175 24.1209 31.0264 24.2397 29.4371 24.38V20.6556C31.0264 20.5154 32.6175 20.3967 34.2101 20.2997ZM55.62 21.3196C55.62 20.4845 56.0374 20.3125 56.9781 20.3756C57.8045 20.4322 58.6293 20.4934 59.4552 20.5615C60.2724 20.6284 60.8116 20.856 60.8116 21.7083V23.3714C60.8116 24.2077 60.3458 24.3584 59.4552 24.2856C58.63 24.2182 57.8042 24.1564 56.9781 24.1003C56.0783 24.04 55.62 23.8677 55.62 22.9827V21.3196ZM49.2183 20.0207C50.812 20.0583 52.4052 20.1178 53.9985 20.1991V20.7992C52.6214 20.7293 51.2435 20.6754 49.8651 20.6377V21.5542C51.091 21.5883 52.3164 21.6345 53.5414 21.6935V22.2944C52.3166 22.2352 51.0911 22.1888 49.8653 22.1552V23.1612C51.2437 23.1988 52.6216 23.2529 53.9987 23.3234V23.9235C52.4062 23.8426 50.8127 23.7832 49.2185 23.745L49.2183 20.0207ZM40.9248 20.0175V22.7113C40.9248 23.5636 40.4736 23.7507 39.5647 23.7785C38.773 23.8025 37.9816 23.8321 37.1904 23.8672C36.3469 23.9048 35.8316 23.7458 35.8316 22.9021V20.2082L36.4779 20.1755V22.9829C36.4779 23.1536 36.6255 23.2927 36.8214 23.2836C37.8583 23.2355 38.8956 23.1965 39.9332 23.1668C40.1304 23.1614 40.2613 23.012 40.2613 22.8413V20.0339C40.4821 20.0278 40.703 20.0224 40.9248 20.0175ZM56.6103 20.9521C56.4139 20.9388 56.2663 21.0755 56.2663 21.2705V23.112C56.2663 23.2826 56.4139 23.4618 56.6103 23.4753C57.6819 23.5459 58.7526 23.626 59.823 23.7158C59.9944 23.7303 60.1658 23.5742 60.1658 23.4041V21.562C60.1658 21.3676 59.9944 21.2068 59.823 21.192C58.7529 21.1022 57.6819 21.0223 56.6103 20.9521ZM43.7828 19.9747C44.9708 19.9661 46.1588 19.9705 47.3463 19.9862V20.5863C46.0765 20.5696 44.8066 20.5664 43.5368 20.5765C43.3649 20.5782 43.1928 20.726 43.1928 20.8966V22.7624C43.1928 22.933 43.3647 23.1019 43.5368 23.1002C44.6759 23.0904 45.8143 23.0923 46.9534 23.1051V22.0987C46.2926 22.0913 45.6317 22.0879 44.9708 22.0884V21.4878C45.8473 21.4878 46.7238 21.4944 47.6002 21.5072V23.7138C46.3689 23.6958 45.1373 23.6905 43.9059 23.6981C43.0043 23.7042 42.5458 23.5498 42.5458 22.6813V21.0583C42.5458 20.2473 42.9552 19.9808 43.7828 19.9747ZM26.9795 21.4905C25.8639 21.6045 24.7495 21.7293 23.6363 21.8646V23.2354C24.7495 23.1003 25.864 22.9758 26.9795 22.8617C27.1504 22.8436 27.3218 22.6887 27.3218 22.5264V21.7722C27.3218 21.6016 27.1504 21.4728 26.9795 21.4905Z" fill="#004B87"/>
</g>
<defs>
<filter id="filter0_i_952_1593" x="18" y="15" width="54" height="63" filterUnits="userSpaceOnUse" color-interpolation-filters="sRGB">
<feFlood flood-opacity="0" result="BackgroundImageFix"/>
<feBlend mode="normal" in="SourceGraphic" in2="BackgroundImageFix" result="shape"/>
<feColorMatrix in="SourceAlpha" type="matrix" values="0 0 0 0 0 0 0 0 0 0 0 0 0 0 0 0 0 0 127 0" result="hardAlpha"/>
<feOffset dy="4"/>
<feGaussianBlur stdDeviation="2"/>
<feComposite in2="hardAlpha" operator="arithmetic" k2="-1" k3="1"/>
<feColorMatrix type="matrix" values="0 0 0 0 0 0 0 0 0 0 0 0 0 0 0 0 0 0 0.5 0"/>
<feBlend mode="normal" in2="shape" result="effect1_innerShadow_952_1593"/>
</filter>
</defs>
</svg>
