<svg width="90" height="90" viewBox="0 0 90 90" fill="none" xmlns="http://www.w3.org/2000/svg">
<rect width="90" height="90" rx="10" fill="white"/>
<path d="M44.5 79.55C25.825 79.55 10.525 64.175 10.525 45.5C10.525 41.3 11.275 37.325 12.7 33.575L32.575 73.55C32.8 74.075 33.175 74.525 33.775 74.525C34.375 74.525 34.75 74.075 34.975 73.55L44.125 53.075C44.2 52.85 44.35 52.625 44.575 52.625C44.8 52.625 44.875 52.85 45.025 53.075L54.175 73.55C54.4 74.075 54.775 74.525 55.375 74.525C55.975 74.525 56.35 74.075 56.575 73.55L76.45 33.575C77.875 37.325 78.625 41.3 78.625 45.5C78.475 64.175 63.175 79.55 44.5 79.55ZM44.5 37.775C44.275 37.775 44.2 37.55 44.05 37.325L33.4 13.325C36.85 12.05 40.6 11.375 44.5 11.375C48.4 11.375 52.15 12.05 55.6 13.325L44.95 37.325C44.8 37.625 44.725 37.775 44.5 37.775ZM33.625 62.45C33.4 62.45 33.325 62.225 33.175 62L15.925 27.2C19 22.475 23.125 18.5 28.15 15.725L40.6 43.4C40.75 43.85 41.125 44 41.5 44H47.5C47.95 44 48.25 43.925 48.475 43.4L60.925 15.725C65.875 18.5 70.075 22.475 73.15 27.2L55.75 62C55.675 62.225 55.525 62.45 55.3 62.45C55.075 62.45 55 62.225 54.85 62L48.325 47.15C48.1 46.625 47.8 46.55 47.35 46.55H41.35C40.9 46.55 40.6 46.625 40.375 47.15L34.075 62C34 62.225 33.85 62.45 33.625 62.45ZM44.5 83C65.275 83 82 66.275 82 45.5C82 24.725 65.275 8 44.5 8C23.725 8 7 24.725 7 45.5C7 66.275 23.725 83 44.5 83Z" fill="#0C4DA2"/>
</svg>
