<svg width="90" height="90" viewBox="0 0 90 90" fill="none" xmlns="http://www.w3.org/2000/svg">
<rect width="90" height="90" rx="10" fill="white"/>
<path d="M44.5022 18C46.8017 18 48.298 18.405 48.9302 18.5445C48.6152 21.4852 48.7052 23.841 48.9302 24.5227C49.6952 26.784 54.0512 27.8393 55.8107 26.7975C57.7457 25.623 57.3047 22.05 57.3047 19.6965C57.3047 19.6965 60.1577 20.3715 61.9082 21.0308C63.3302 21.5663 65.425 22.6125 65.425 22.6125C65.8412 25.5915 65.4475 29.997 62.518 31.491C64.7275 33.7072 65.47 36.333 66.415 41.175C67.18 45.5175 67 48.555 66.955 51.0863C66.73 54.5288 66.73 56.385 65.92 59.508C64.75 63.0832 64.0547 64.7617 61.6832 67.2457C56.8682 72.297 49.018 72 44.5022 71.9955C39.9865 72 32.1407 72.297 27.3235 67.2457C24.9497 64.7617 24.2567 63.0832 23.0867 59.508C22.2767 56.385 22.2767 54.5288 22.0517 51.0863C22.0045 48.555 21.8267 45.5198 22.5917 41.175C23.5367 36.3285 24.2792 33.7072 26.4887 31.491C23.5592 29.997 23.1655 25.5915 23.5817 22.6125C23.5817 22.6125 25.681 21.5663 27.0985 21.0308C28.849 20.3737 31.6997 19.6965 31.6997 19.6965C31.6997 22.0522 31.2587 25.6185 33.1937 26.7975C34.9532 27.8348 39.3047 26.784 40.0742 24.5227C40.2992 23.841 40.3892 21.4852 40.0742 18.5445C40.7065 18.405 42.205 18 44.5022 18ZM44.4955 65.5312C49.765 65.5312 51.448 65.5312 54.0602 64.8067C54.9602 64.4872 56.5847 64.0373 57.7592 62.181C59.9192 58.4685 59.9192 51.498 59.9192 48.1523C59.9192 44.7997 59.9192 38.8732 57.7592 35.2057C56.5892 33.3067 54.985 32.7802 54.0602 32.5372C51.3917 31.8263 49.6772 31.869 44.4955 31.8577H44.4977C39.316 31.869 37.6015 31.8263 34.933 32.5372C34.0105 32.7847 32.4085 33.3067 31.234 35.2057C29.074 38.8732 29.074 44.8043 29.074 48.1523C29.074 51.5003 29.074 58.4707 31.234 62.181C32.404 64.0373 34.0262 64.4872 34.933 64.8067C37.543 65.5357 39.2282 65.5312 44.4955 65.5312ZM44.5022 50.5305C49.0112 50.5305 48.9122 50.535 48.9122 51.9795V61.0988H55.0412V35.838H48.9122V43.425C48.9122 44.919 49.0112 44.9145 44.5022 44.9145H44.5067C40 44.9145 40.0967 44.919 40.0967 43.425V35.838H33.9745V61.1055H40.0967V51.9795C40.0967 50.5305 40.0067 50.5305 44.5022 50.5305Z" fill="#273A60"/>
</svg>
